M48
; DRILL file {KiCad 5.99.0+really5.1.10+dfsg1-1} date Sun Dec  5 23:29:02 2021
; FORMAT={-:-/ absolute / inch / decimal}
; #@! TF.CreationDate,2021-12-05T23:29:02+01:00
; #@! TF.GenerationSoftware,Kicad,Pcbnew,5.99.0+really5.1.10+dfsg1-1
; #@! TF.FileFunction,Plated,1,2,PTH
FMAT,2
INCH
T1C0.0118
T2C0.0394
T3C0.0433
%
G90
G05
T1
X1.7199Y-2.6884
X1.7205Y-2.7634
X1.7205Y-3.6693
X1.7933Y-1.9272
X1.7953Y-2.252
X1.8031Y-2.1496
X1.811Y-1.9882
X1.8238Y-3.4656
X1.8307Y-2.6693
X1.8524Y-1.685
X1.8573Y-3.499
X1.878Y-1.7795
X1.8819Y-1.8661
X1.8996Y-2.1752
X1.9203Y-1.9282
X1.9281Y-1.9872
X1.9567Y-2.2382
X1.9646Y-1.9567
X1.9705Y-2.0157
X1.9882Y-1.9291
X1.9961Y-4.0984
X2.0157Y-1.7165
X2.0197Y-4.4587
X2.0433Y-3.9646
X2.0591Y-2.5945
X2.061Y-3.8996
X2.063Y-1.6437
X2.065Y-1.7283
X2.0689Y-2.6693
X2.0748Y-3.9626
X2.0827Y-1.9213
X2.0866Y-3.8071
X2.0866Y-4.3957
X2.0886Y-4.2343
X2.0945Y-2.4606
X2.1043Y-2.6398
X2.1161Y-1.7283
X2.1181Y-3.8661
X2.1181Y-2.3839
X2.1181Y-3.752
X2.122Y-1.8543
X2.1299Y-1.6929
X2.1378Y-2.5492
X2.1398Y-2.6161
X2.1417Y-2.7364
X2.1417Y-2.9882
X2.1437Y-2.0157
X2.1457Y-2.248
X2.1457Y-2.3228
X2.1457Y-3.6299
X2.1496Y-3.8661
X2.1535Y-2.6664
X2.1535Y-2.4587
X2.1693Y-2.4961
X2.1732Y-3.9252
X2.1772Y-2.7362
X2.1772Y-2.1732
X2.1772Y-2.9882
X2.1811Y-3.1378
X2.1811Y-3.5984
X2.1811Y-3.8661
X2.189Y-2.376
X2.1988Y-4.1496
X2.2087Y-2.7362
X2.2126Y-4.3898
X2.2155Y-3.1368
X2.2165Y-2.1161
X2.2165Y-2.9876
X2.2283Y-3.7598
X2.2283Y-3.7992
X2.2343Y-2.5768
X2.2362Y-2.4961
X2.248Y-1.8504
X2.252Y-1.6929
X2.252Y-2.6654
X2.252Y-3.2087
X2.3228Y-3.2126
X2.3228Y-3.8642
X2.3583Y-3.9882
X2.3583Y-4.0394
X2.3583Y-4.0906
X2.3583Y-3.5787
X2.3585Y-3.6262
X2.3602Y-3.1142
X2.3681Y-2.6516
X2.3701Y-2.372
X2.374Y-2.5512
X2.376Y-2.2165
X2.376Y-4.3878
X2.4055Y-2.7913
X2.4134Y-3.626
X2.4134Y-4.0906
X2.4134Y-4.1457
X2.4331Y-3.5787
X2.4331Y-1.9213
X2.4331Y-4.0394
X2.437Y-2.7362
X2.437Y-2.7835
X2.4409Y-1.6614
X2.4409Y-1.6929
X2.4409Y-1.815
X2.4409Y-1.8543
X2.4469Y-2.5512
X2.4488Y-2.4213
X2.4508Y-3.1142
X2.4528Y-3.9882
X2.4567Y-2.376
X2.463Y-2.8559
X2.4685Y-2.7835
X2.4685Y-2.7362
X2.4715Y-3.9449
X2.4724Y-2.0197
X2.4803Y-4.5236
X2.4852Y-2.8782
X2.4902Y-4.0748
X2.5059Y-4.3366
X2.5079Y-4.2402
X2.5177Y-2.1043
X2.5197Y-2.3799
X2.5197Y-2.8189
X2.5217Y-2.4646
X2.5236Y-2.7087
X2.5276Y-2.8819
X2.5276Y-4.2913
X2.5315Y-2.7598
X2.5472Y-3.685
X2.5472Y-4.3386
X2.5512Y-2.0
X2.5545Y-2.0388
X2.563Y-3.622
X2.5945Y-2.4698
X2.5945Y-2.5984
X2.5945Y-2.6614
X2.5984Y-1.6929
X2.5984Y-2.374
X2.599Y-2.0833
X2.6004Y-2.185
X2.6004Y-4.0709
X2.6006Y-4.3404
X2.6014Y-4.2904
X2.6022Y-4.2404
X2.6024Y-4.1654
X2.6063Y-1.8504
X2.6102Y-1.9567
X2.626Y-2.6614
X2.6614Y-2.5866
X2.6614Y-3.8189
X2.7283Y-3.7953
X2.7323Y-1.9646
X2.7323Y-2.063
X2.7323Y-2.6811
X2.7362Y-3.9449
X2.7441Y-2.4803
X2.7441Y-2.5472
X2.7441Y-3.3031
X2.7441Y-3.6122
X2.748Y-2.2047
X2.748Y-4.0118
X2.7598Y-3.752
X2.7638Y-2.5827
X2.7677Y-3.9055
X2.7717Y-4.3504
X2.7736Y-2.6969
X2.7795Y-3.7953
X2.7854Y-3.437
X2.7874Y-3.2283
X2.7953Y-4.2008
X2.811Y-2.3465
X2.815Y-3.1181
X2.8366Y-1.9291
X2.8583Y-3.8031
X2.8602Y-3.7087
X2.8701Y-1.8346
X2.874Y-2.0433
X2.874Y-3.5079
X2.878Y-3.9055
X2.8799Y-4.2126
X2.8957Y-1.9213
X2.9114Y-1.6024
X2.9213Y-1.8701
X2.9488Y-1.7185
X2.9843Y-1.8701
X2.9843Y-1.9213
X3.002Y-1.8051
X3.0157Y-4.1102
X3.0157Y-4.189
X3.0335Y-3.7106
X3.0374Y-4.2913
X3.0433Y-3.4173
X3.0492Y-4.002
X3.0571Y-4.4705
X3.0827Y-2.3898
X3.0906Y-1.9724
X3.0945Y-3.6437
X3.0965Y-3.8091
X3.124Y-2.5131
X3.128Y-4.0689
X3.1339Y-2.8957
X3.1339Y-2.9728
X3.1496Y-2.6969
X3.1772Y-3.9134
X3.1831Y-2.6319
X3.1929Y-3.0906
X3.2008Y-2.3386
X3.2028Y-2.7264
X3.2165Y-2.2087
X3.2165Y-3.2303
X3.2323Y-4.2106
X3.252Y-2.8169
X3.252Y-2.9925
X3.2815Y-3.8425
X3.2835Y-4.1217
X3.2835Y-4.1929
X3.3484Y-4.2087
X3.3878Y-2.5374
X3.3917Y-3.9941
X3.3957Y-2.6535
X3.3976Y-2.437
X3.3996Y-2.7953
X3.4055Y-3.8563
X3.4075Y-3.563
X3.4311Y-2.4803
X3.4311Y-2.6969
X3.4528Y-3.8681
X3.4567Y-2.8169
X3.5039Y-2.8169
X3.5039Y-3.8681
X3.5039Y-3.9783
X3.5591Y-2.8169
X3.6063Y-3.8681
X3.6063Y-3.9783
X3.622Y-2.8169
X3.6295Y-2.6969
X3.6457Y-3.8681
X3.6457Y-3.9783
X3.6614Y-2.9134
X3.6693Y-3.7854
X3.6811Y-2.7323
X3.7106Y-2.6555
X3.7205Y-1.9665
X3.7205Y-2.9134
X3.7311Y-4.0433
X3.752Y-3.1063
X3.7736Y-4.4646
X3.8366Y-4.5335
X3.8543Y-2.5315
X3.8622Y-1.9272
X3.8819Y-3.4823
X3.9094Y-3.3602
X3.9295Y-4.0433
X3.9449Y-2.1575
X3.9488Y-3.3228
X3.9587Y-2.7441
X3.9705Y-2.6063
X3.9744Y-3.2362
X3.9744Y-3.4311
X3.9912Y-3.3513
X4.002Y-2.0925
X4.0059Y-3.8012
X4.0118Y-3.3976
X4.0118Y-4.3445
X4.0157Y-4.2382
X4.0236Y-2.6102
X4.0246Y-2.6781
X4.0246Y-3.3179
X4.0512Y-4.248
X4.0512Y-4.2953
X4.065Y-1.7283
X4.0709Y-2.7362
X4.0768Y-1.813
X4.0787Y-3.3465
X4.0886Y-1.9213
X4.0945Y-1.6043
X4.1004Y-3.9488
X4.1004Y-4.2303
X4.1004Y-4.3189
X4.1024Y-4.4114
X4.1063Y-4.5315
X8.5394Y-2.2087
X8.5512Y-3.9331
X8.8346Y-2.4606
X8.8376Y-3.685
T2
X1.7835Y-2.3209
X1.7835Y-2.4209
X1.7835Y-2.5209
X1.7835Y-2.6209
X1.7835Y-2.7209
X1.7835Y-2.8209
X1.7835Y-2.9209
X1.7835Y-3.0209
X1.7835Y-3.1209
X1.7835Y-3.2209
X1.7835Y-3.3209
X1.7835Y-3.4209
X1.7835Y-3.5209
X1.7835Y-3.6209
X1.7835Y-3.7209
X1.7835Y-3.8209
X1.9835Y-2.3209
X1.9835Y-2.4209
X1.9835Y-2.5209
X1.9835Y-2.6209
X1.9835Y-2.7209
X1.9835Y-2.8209
X1.9835Y-2.9209
X1.9835Y-3.0209
X1.9835Y-3.1209
X1.9835Y-3.2209
X1.9835Y-3.3209
X1.9835Y-3.4209
X1.9835Y-3.5209
X1.9835Y-3.6209
X1.9835Y-3.7209
X1.9835Y-3.8209
X2.9528Y-2.0472
X2.9528Y-2.1472
X2.9528Y-2.2472
X2.9528Y-2.3472
X2.9528Y-2.4472
X2.9528Y-2.5472
X2.9528Y-2.6472
X2.9528Y-2.7472
X2.9528Y-2.8472
X2.9528Y-2.9472
X2.9528Y-3.0472
X2.9528Y-3.1472
X2.9528Y-3.3472
X2.9528Y-3.4472
X2.9528Y-3.5472
X2.9528Y-3.6472
X2.9528Y-3.7472
X2.9528Y-3.8472
X2.9528Y-3.9472
X2.9528Y-4.0472
X2.9528Y-4.1472
X2.9528Y-4.2472
X2.9528Y-4.3472
X2.9528Y-4.4472
X3.5039Y-2.3803
X3.5039Y-2.4803
X3.5039Y-2.9709
X3.5039Y-3.0709
X3.5039Y-3.5614
X3.5039Y-3.6614
X3.5039Y-4.152
X3.5039Y-4.252
X3.6039Y-2.3803
X3.6039Y-2.4803
X3.6039Y-2.9709
X3.6039Y-3.0709
X3.6039Y-3.5614
X3.6039Y-3.6614
X3.6039Y-4.152
X3.6039Y-4.252
X3.7039Y-2.3803
X3.7039Y-2.4803
X3.7039Y-2.9709
X3.7039Y-3.0709
X3.7039Y-3.5614
X3.7039Y-3.6614
X3.7039Y-4.152
X3.7039Y-4.252
X3.8039Y-2.3803
X3.8039Y-2.4803
X3.8039Y-2.9709
X3.8039Y-3.0709
X3.8039Y-3.5614
X3.8039Y-3.6614
X3.8039Y-4.152
X3.8039Y-4.252
X3.9039Y-2.3803
X3.9039Y-2.4803
X3.9039Y-2.9709
X3.9039Y-3.0709
X3.9039Y-3.5614
X3.9039Y-3.6614
X3.9039Y-4.152
X3.9039Y-4.252
X4.2122Y-1.6209
X4.2122Y-1.7209
X4.2122Y-1.8209
X4.2122Y-1.9209
X4.2122Y-2.0209
X4.2122Y-2.1209
X4.2122Y-2.2209
X4.2122Y-2.3209
X4.2122Y-2.4209
X4.2122Y-2.5209
X4.2122Y-2.6209
X4.2122Y-2.7209
X4.2122Y-2.8209
X4.2122Y-2.9209
X4.2122Y-3.0209
X4.2122Y-3.1209
X4.2122Y-3.2209
X4.2122Y-3.3209
X4.2122Y-3.4209
X4.2122Y-3.5209
X4.2122Y-3.6209
X4.2122Y-3.7209
X4.2122Y-3.8209
X4.2122Y-3.9209
X4.2122Y-4.0209
X4.2122Y-4.1209
X4.2122Y-4.2209
X4.2122Y-4.3209
X4.2122Y-4.4209
X4.2122Y-4.5209
X4.3122Y-1.6209
X4.3122Y-1.7209
X4.3122Y-1.8209
X4.3122Y-1.9209
X4.3122Y-2.0209
X4.3122Y-2.1209
X4.3122Y-2.2209
X4.3122Y-2.3209
X4.3122Y-2.4209
X4.3122Y-2.5209
X4.3122Y-2.6209
X4.3122Y-2.7209
X4.3122Y-2.8209
X4.3122Y-2.9209
X4.3122Y-3.0209
X4.3122Y-3.1209
X4.3122Y-3.2209
X4.3122Y-3.3209
X4.3122Y-3.4209
X4.3122Y-3.5209
X4.3122Y-3.6209
X4.3122Y-3.7209
X4.3122Y-3.8209
X4.3122Y-3.9209
X4.3122Y-4.0209
X4.3122Y-4.1209
X4.3122Y-4.2209
X4.3122Y-4.3209
X4.3122Y-4.4209
X4.3122Y-4.5209
X4.4122Y-1.6209
X4.4122Y-1.7209
X4.4122Y-1.8209
X4.4122Y-1.9209
X4.4122Y-2.0209
X4.4122Y-2.1209
X4.4122Y-2.2209
X4.4122Y-2.3209
X4.4122Y-2.4209
X4.4122Y-2.5209
X4.4122Y-2.6209
X4.4122Y-2.7209
X4.4122Y-2.8209
X4.4122Y-2.9209
X4.4122Y-3.0209
X4.4122Y-3.1209
X4.4122Y-3.2209
X4.4122Y-3.3209
X4.4122Y-3.4209
X4.4122Y-3.5209
X4.4122Y-3.6209
X4.4122Y-3.7209
X4.4122Y-3.8209
X4.4122Y-3.9209
X4.4122Y-4.0209
X4.4122Y-4.1209
X4.4122Y-4.2209
X4.4122Y-4.3209
X4.4122Y-4.4209
X4.4122Y-4.5209
X4.5122Y-1.6209
X4.5122Y-1.7209
X4.5122Y-1.8209
X4.5122Y-1.9209
X4.5122Y-2.0209
X4.5122Y-2.1209
X4.5122Y-2.2209
X4.5122Y-2.3209
X4.5122Y-2.4209
X4.5122Y-2.5209
X4.5122Y-2.6209
X4.5122Y-2.7209
X4.5122Y-2.8209
X4.5122Y-2.9209
X4.5122Y-3.0209
X4.5122Y-3.1209
X4.5122Y-3.2209
X4.5122Y-3.3209
X4.5122Y-3.4209
X4.5122Y-3.5209
X4.5122Y-3.6209
X4.5122Y-3.7209
X4.5122Y-3.8209
X4.5122Y-3.9209
X4.5122Y-4.0209
X4.5122Y-4.1209
X4.5122Y-4.2209
X4.5122Y-4.3209
X4.5122Y-4.4209
X4.5122Y-4.5209
X4.6122Y-1.6209
X4.6122Y-1.7209
X4.6122Y-1.8209
X4.6122Y-1.9209
X4.6122Y-2.0209
X4.6122Y-2.1209
X4.6122Y-2.2209
X4.6122Y-2.3209
X4.6122Y-2.4209
X4.6122Y-2.5209
X4.6122Y-2.6209
X4.6122Y-2.7209
X4.6122Y-2.8209
X4.6122Y-2.9209
X4.6122Y-3.0209
X4.6122Y-3.1209
X4.6122Y-3.2209
X4.6122Y-3.3209
X4.6122Y-3.4209
X4.6122Y-3.5209
X4.6122Y-3.6209
X4.6122Y-3.7209
X4.6122Y-3.8209
X4.6122Y-3.9209
X4.6122Y-4.0209
X4.6122Y-4.1209
X4.6122Y-4.2209
X4.6122Y-4.3209
X4.6122Y-4.4209
X4.6122Y-4.5209
X4.7122Y-1.6209
X4.7122Y-1.7209
X4.7122Y-1.8209
X4.7122Y-1.9209
X4.7122Y-2.0209
X4.7122Y-2.1209
X4.7122Y-2.2209
X4.7122Y-2.3209
X4.7122Y-2.4209
X4.7122Y-2.5209
X4.7122Y-2.6209
X4.7122Y-2.7209
X4.7122Y-2.8209
X4.7122Y-2.9209
X4.7122Y-3.0209
X4.7122Y-3.1209
X4.7122Y-3.2209
X4.7122Y-3.3209
X4.7122Y-3.4209
X4.7122Y-3.5209
X4.7122Y-3.6209
X4.7122Y-3.7209
X4.7122Y-3.8209
X4.7122Y-3.9209
X4.7122Y-4.0209
X4.7122Y-4.1209
X4.7122Y-4.2209
X4.7122Y-4.3209
X4.7122Y-4.4209
X4.7122Y-4.5209
X4.8122Y-1.6209
X4.8122Y-1.7209
X4.8122Y-1.8209
X4.8122Y-1.9209
X4.8122Y-2.0209
X4.8122Y-2.1209
X4.8122Y-2.2209
X4.8122Y-2.3209
X4.8122Y-2.4209
X4.8122Y-2.5209
X4.8122Y-2.6209
X4.8122Y-2.7209
X4.8122Y-2.8209
X4.8122Y-2.9209
X4.8122Y-3.0209
X4.8122Y-3.1209
X4.8122Y-3.2209
X4.8122Y-3.3209
X4.8122Y-3.4209
X4.8122Y-3.5209
X4.8122Y-3.6209
X4.8122Y-3.7209
X4.8122Y-3.8209
X4.8122Y-3.9209
X4.8122Y-4.0209
X4.8122Y-4.1209
X4.8122Y-4.2209
X4.8122Y-4.3209
X4.8122Y-4.4209
X4.8122Y-4.5209
X4.9122Y-1.6209
X4.9122Y-1.7209
X4.9122Y-1.8209
X4.9122Y-1.9209
X4.9122Y-2.0209
X4.9122Y-2.1209
X4.9122Y-2.2209
X4.9122Y-2.3209
X4.9122Y-2.4209
X4.9122Y-2.5209
X4.9122Y-2.6209
X4.9122Y-2.7209
X4.9122Y-2.8209
X4.9122Y-2.9209
X4.9122Y-3.0209
X4.9122Y-3.1209
X4.9122Y-3.2209
X4.9122Y-3.3209
X4.9122Y-3.4209
X4.9122Y-3.5209
X4.9122Y-3.6209
X4.9122Y-3.7209
X4.9122Y-3.8209
X4.9122Y-3.9209
X4.9122Y-4.0209
X4.9122Y-4.1209
X4.9122Y-4.2209
X4.9122Y-4.3209
X4.9122Y-4.4209
X4.9122Y-4.5209
X5.0122Y-1.6209
X5.0122Y-1.7209
X5.0122Y-1.8209
X5.0122Y-1.9209
X5.0122Y-2.0209
X5.0122Y-2.1209
X5.0122Y-2.2209
X5.0122Y-2.3209
X5.0122Y-2.4209
X5.0122Y-2.5209
X5.0122Y-2.6209
X5.0122Y-2.7209
X5.0122Y-2.8209
X5.0122Y-2.9209
X5.0122Y-3.0209
X5.0122Y-3.1209
X5.0122Y-3.2209
X5.0122Y-3.3209
X5.0122Y-3.4209
X5.0122Y-3.5209
X5.0122Y-3.6209
X5.0122Y-3.7209
X5.0122Y-3.8209
X5.0122Y-3.9209
X5.0122Y-4.0209
X5.0122Y-4.1209
X5.0122Y-4.2209
X5.0122Y-4.3209
X5.0122Y-4.4209
X5.0122Y-4.5209
X5.1122Y-1.6209
X5.1122Y-1.7209
X5.1122Y-1.8209
X5.1122Y-1.9209
X5.1122Y-2.0209
X5.1122Y-2.1209
X5.1122Y-2.2209
X5.1122Y-2.3209
X5.1122Y-2.4209
X5.1122Y-2.5209
X5.1122Y-2.6209
X5.1122Y-2.7209
X5.1122Y-2.8209
X5.1122Y-2.9209
X5.1122Y-3.0209
X5.1122Y-3.1209
X5.1122Y-3.2209
X5.1122Y-3.3209
X5.1122Y-3.4209
X5.1122Y-3.5209
X5.1122Y-3.6209
X5.1122Y-3.7209
X5.1122Y-3.8209
X5.1122Y-3.9209
X5.1122Y-4.0209
X5.1122Y-4.1209
X5.1122Y-4.2209
X5.1122Y-4.3209
X5.1122Y-4.4209
X5.1122Y-4.5209
X5.2122Y-1.6209
X5.2122Y-1.7209
X5.2122Y-1.8209
X5.2122Y-1.9209
X5.2122Y-2.0209
X5.2122Y-2.1209
X5.2122Y-2.2209
X5.2122Y-2.3209
X5.2122Y-2.4209
X5.2122Y-2.5209
X5.2122Y-2.6209
X5.2122Y-2.7209
X5.2122Y-2.8209
X5.2122Y-2.9209
X5.2122Y-3.0209
X5.2122Y-3.1209
X5.2122Y-3.2209
X5.2122Y-3.3209
X5.2122Y-3.4209
X5.2122Y-3.5209
X5.2122Y-3.6209
X5.2122Y-3.7209
X5.2122Y-3.8209
X5.2122Y-3.9209
X5.2122Y-4.0209
X5.2122Y-4.1209
X5.2122Y-4.2209
X5.2122Y-4.3209
X5.2122Y-4.4209
X5.2122Y-4.5209
X5.3122Y-1.6209
X5.3122Y-1.7209
X5.3122Y-1.8209
X5.3122Y-1.9209
X5.3122Y-2.0209
X5.3122Y-2.1209
X5.3122Y-2.2209
X5.3122Y-2.3209
X5.3122Y-2.4209
X5.3122Y-2.5209
X5.3122Y-2.6209
X5.3122Y-2.7209
X5.3122Y-2.8209
X5.3122Y-2.9209
X5.3122Y-3.0209
X5.3122Y-3.1209
X5.3122Y-3.2209
X5.3122Y-3.3209
X5.3122Y-3.4209
X5.3122Y-3.5209
X5.3122Y-3.6209
X5.3122Y-3.7209
X5.3122Y-3.8209
X5.3122Y-3.9209
X5.3122Y-4.0209
X5.3122Y-4.1209
X5.3122Y-4.2209
X5.3122Y-4.3209
X5.3122Y-4.4209
X5.3122Y-4.5209
X5.4122Y-1.6209
X5.4122Y-1.7209
X5.4122Y-1.8209
X5.4122Y-1.9209
X5.4122Y-2.0209
X5.4122Y-2.1209
X5.4122Y-2.2209
X5.4122Y-2.3209
X5.4122Y-2.4209
X5.4122Y-2.5209
X5.4122Y-2.6209
X5.4122Y-2.7209
X5.4122Y-2.8209
X5.4122Y-2.9209
X5.4122Y-3.0209
X5.4122Y-3.1209
X5.4122Y-3.2209
X5.4122Y-3.3209
X5.4122Y-3.4209
X5.4122Y-3.5209
X5.4122Y-3.6209
X5.4122Y-3.7209
X5.4122Y-3.8209
X5.4122Y-3.9209
X5.4122Y-4.0209
X5.4122Y-4.1209
X5.4122Y-4.2209
X5.4122Y-4.3209
X5.4122Y-4.4209
X5.4122Y-4.5209
X5.5122Y-1.6209
X5.5122Y-1.7209
X5.5122Y-1.8209
X5.5122Y-1.9209
X5.5122Y-2.0209
X5.5122Y-2.1209
X5.5122Y-2.2209
X5.5122Y-2.3209
X5.5122Y-2.4209
X5.5122Y-2.5209
X5.5122Y-2.6209
X5.5122Y-2.7209
X5.5122Y-2.8209
X5.5122Y-2.9209
X5.5122Y-3.0209
X5.5122Y-3.1209
X5.5122Y-3.2209
X5.5122Y-3.3209
X5.5122Y-3.4209
X5.5122Y-3.5209
X5.5122Y-3.6209
X5.5122Y-3.7209
X5.5122Y-3.8209
X5.5122Y-3.9209
X5.5122Y-4.0209
X5.5122Y-4.1209
X5.5122Y-4.2209
X5.5122Y-4.3209
X5.5122Y-4.4209
X5.5122Y-4.5209
X5.6122Y-1.6209
X5.6122Y-1.7209
X5.6122Y-1.8209
X5.6122Y-1.9209
X5.6122Y-2.0209
X5.6122Y-2.1209
X5.6122Y-2.2209
X5.6122Y-2.3209
X5.6122Y-2.4209
X5.6122Y-2.5209
X5.6122Y-2.6209
X5.6122Y-2.7209
X5.6122Y-2.8209
X5.6122Y-2.9209
X5.6122Y-3.0209
X5.6122Y-3.1209
X5.6122Y-3.2209
X5.6122Y-3.3209
X5.6122Y-3.4209
X5.6122Y-3.5209
X5.6122Y-3.6209
X5.6122Y-3.7209
X5.6122Y-3.8209
X5.6122Y-3.9209
X5.6122Y-4.0209
X5.6122Y-4.1209
X5.6122Y-4.2209
X5.6122Y-4.3209
X5.6122Y-4.4209
X5.6122Y-4.5209
X5.7122Y-1.6209
X5.7122Y-1.7209
X5.7122Y-1.8209
X5.7122Y-1.9209
X5.7122Y-2.0209
X5.7122Y-2.1209
X5.7122Y-2.2209
X5.7122Y-2.3209
X5.7122Y-2.4209
X5.7122Y-2.5209
X5.7122Y-2.6209
X5.7122Y-2.7209
X5.7122Y-2.8209
X5.7122Y-2.9209
X5.7122Y-3.0209
X5.7122Y-3.1209
X5.7122Y-3.2209
X5.7122Y-3.3209
X5.7122Y-3.4209
X5.7122Y-3.5209
X5.7122Y-3.6209
X5.7122Y-3.7209
X5.7122Y-3.8209
X5.7122Y-3.9209
X5.7122Y-4.0209
X5.7122Y-4.1209
X5.7122Y-4.2209
X5.7122Y-4.3209
X5.7122Y-4.4209
X5.7122Y-4.5209
X5.8122Y-1.6209
X5.8122Y-1.7209
X5.8122Y-1.8209
X5.8122Y-1.9209
X5.8122Y-2.0209
X5.8122Y-2.1209
X5.8122Y-2.2209
X5.8122Y-2.3209
X5.8122Y-2.4209
X5.8122Y-2.5209
X5.8122Y-2.6209
X5.8122Y-2.7209
X5.8122Y-2.8209
X5.8122Y-2.9209
X5.8122Y-3.0209
X5.8122Y-3.1209
X5.8122Y-3.2209
X5.8122Y-3.3209
X5.8122Y-3.4209
X5.8122Y-3.5209
X5.8122Y-3.6209
X5.8122Y-3.7209
X5.8122Y-3.8209
X5.8122Y-3.9209
X5.8122Y-4.0209
X5.8122Y-4.1209
X5.8122Y-4.2209
X5.8122Y-4.3209
X5.8122Y-4.4209
X5.8122Y-4.5209
X5.9122Y-1.6209
X5.9122Y-1.7209
X5.9122Y-1.8209
X5.9122Y-1.9209
X5.9122Y-2.0209
X5.9122Y-2.1209
X5.9122Y-2.2209
X5.9122Y-2.3209
X5.9122Y-2.4209
X5.9122Y-2.5209
X5.9122Y-2.6209
X5.9122Y-2.7209
X5.9122Y-2.8209
X5.9122Y-2.9209
X5.9122Y-3.0209
X5.9122Y-3.1209
X5.9122Y-3.2209
X5.9122Y-3.3209
X5.9122Y-3.4209
X5.9122Y-3.5209
X5.9122Y-3.6209
X5.9122Y-3.7209
X5.9122Y-3.8209
X5.9122Y-3.9209
X5.9122Y-4.0209
X5.9122Y-4.1209
X5.9122Y-4.2209
X5.9122Y-4.3209
X5.9122Y-4.4209
X5.9122Y-4.5209
X6.0122Y-1.6209
X6.0122Y-1.7209
X6.0122Y-1.8209
X6.0122Y-1.9209
X6.0122Y-2.0209
X6.0122Y-2.1209
X6.0122Y-2.2209
X6.0122Y-2.3209
X6.0122Y-2.4209
X6.0122Y-2.5209
X6.0122Y-2.6209
X6.0122Y-2.7209
X6.0122Y-2.8209
X6.0122Y-2.9209
X6.0122Y-3.0209
X6.0122Y-3.1209
X6.0122Y-3.2209
X6.0122Y-3.3209
X6.0122Y-3.4209
X6.0122Y-3.5209
X6.0122Y-3.6209
X6.0122Y-3.7209
X6.0122Y-3.8209
X6.0122Y-3.9209
X6.0122Y-4.0209
X6.0122Y-4.1209
X6.0122Y-4.2209
X6.0122Y-4.3209
X6.0122Y-4.4209
X6.0122Y-4.5209
X6.1122Y-1.6209
X6.1122Y-1.7209
X6.1122Y-1.8209
X6.1122Y-1.9209
X6.1122Y-2.0209
X6.1122Y-2.1209
X6.1122Y-2.2209
X6.1122Y-2.3209
X6.1122Y-2.4209
X6.1122Y-2.5209
X6.1122Y-2.6209
X6.1122Y-2.7209
X6.1122Y-2.8209
X6.1122Y-2.9209
X6.1122Y-3.0209
X6.1122Y-3.1209
X6.1122Y-3.2209
X6.1122Y-3.3209
X6.1122Y-3.4209
X6.1122Y-3.5209
X6.1122Y-3.6209
X6.1122Y-3.7209
X6.1122Y-3.8209
X6.1122Y-3.9209
X6.1122Y-4.0209
X6.1122Y-4.1209
X6.1122Y-4.2209
X6.1122Y-4.3209
X6.1122Y-4.4209
X6.1122Y-4.5209
X6.2122Y-1.6209
X6.2122Y-1.7209
X6.2122Y-1.8209
X6.2122Y-1.9209
X6.2122Y-2.0209
X6.2122Y-2.1209
X6.2122Y-2.2209
X6.2122Y-2.3209
X6.2122Y-2.4209
X6.2122Y-2.5209
X6.2122Y-2.6209
X6.2122Y-2.7209
X6.2122Y-2.8209
X6.2122Y-2.9209
X6.2122Y-3.0209
X6.2122Y-3.1209
X6.2122Y-3.2209
X6.2122Y-3.3209
X6.2122Y-3.4209
X6.2122Y-3.5209
X6.2122Y-3.6209
X6.2122Y-3.7209
X6.2122Y-3.8209
X6.2122Y-3.9209
X6.2122Y-4.0209
X6.2122Y-4.1209
X6.2122Y-4.2209
X6.2122Y-4.3209
X6.2122Y-4.4209
X6.2122Y-4.5209
X6.3122Y-1.6209
X6.3122Y-1.7209
X6.3122Y-1.8209
X6.3122Y-1.9209
X6.3122Y-2.0209
X6.3122Y-2.1209
X6.3122Y-2.2209
X6.3122Y-2.3209
X6.3122Y-2.4209
X6.3122Y-2.5209
X6.3122Y-2.6209
X6.3122Y-2.7209
X6.3122Y-2.8209
X6.3122Y-2.9209
X6.3122Y-3.0209
X6.3122Y-3.1209
X6.3122Y-3.2209
X6.3122Y-3.3209
X6.3122Y-3.4209
X6.3122Y-3.5209
X6.3122Y-3.6209
X6.3122Y-3.7209
X6.3122Y-3.8209
X6.3122Y-3.9209
X6.3122Y-4.0209
X6.3122Y-4.1209
X6.3122Y-4.2209
X6.3122Y-4.3209
X6.3122Y-4.4209
X6.3122Y-4.5209
X6.4122Y-1.6209
X6.4122Y-1.7209
X6.4122Y-1.8209
X6.4122Y-1.9209
X6.4122Y-2.0209
X6.4122Y-2.1209
X6.4122Y-2.2209
X6.4122Y-2.3209
X6.4122Y-2.4209
X6.4122Y-2.5209
X6.4122Y-2.6209
X6.4122Y-2.7209
X6.4122Y-2.8209
X6.4122Y-2.9209
X6.4122Y-3.0209
X6.4122Y-3.1209
X6.4122Y-3.2209
X6.4122Y-3.3209
X6.4122Y-3.4209
X6.4122Y-3.5209
X6.4122Y-3.6209
X6.4122Y-3.7209
X6.4122Y-3.8209
X6.4122Y-3.9209
X6.4122Y-4.0209
X6.4122Y-4.1209
X6.4122Y-4.2209
X6.4122Y-4.3209
X6.4122Y-4.4209
X6.4122Y-4.5209
X6.5122Y-1.6209
X6.5122Y-1.7209
X6.5122Y-1.8209
X6.5122Y-1.9209
X6.5122Y-2.0209
X6.5122Y-2.1209
X6.5122Y-2.2209
X6.5122Y-2.3209
X6.5122Y-2.4209
X6.5122Y-2.5209
X6.5122Y-2.6209
X6.5122Y-2.7209
X6.5122Y-2.8209
X6.5122Y-2.9209
X6.5122Y-3.0209
X6.5122Y-3.1209
X6.5122Y-3.2209
X6.5122Y-3.3209
X6.5122Y-3.4209
X6.5122Y-3.5209
X6.5122Y-3.6209
X6.5122Y-3.7209
X6.5122Y-3.8209
X6.5122Y-3.9209
X6.5122Y-4.0209
X6.5122Y-4.1209
X6.5122Y-4.2209
X6.5122Y-4.3209
X6.5122Y-4.4209
X6.5122Y-4.5209
X6.6122Y-1.6209
X6.6122Y-1.7209
X6.6122Y-1.8209
X6.6122Y-1.9209
X6.6122Y-2.0209
X6.6122Y-2.1209
X6.6122Y-2.2209
X6.6122Y-2.3209
X6.6122Y-2.4209
X6.6122Y-2.5209
X6.6122Y-2.6209
X6.6122Y-2.7209
X6.6122Y-2.8209
X6.6122Y-2.9209
X6.6122Y-3.0209
X6.6122Y-3.1209
X6.6122Y-3.2209
X6.6122Y-3.3209
X6.6122Y-3.4209
X6.6122Y-3.5209
X6.6122Y-3.6209
X6.6122Y-3.7209
X6.6122Y-3.8209
X6.6122Y-3.9209
X6.6122Y-4.0209
X6.6122Y-4.1209
X6.6122Y-4.2209
X6.6122Y-4.3209
X6.6122Y-4.4209
X6.6122Y-4.5209
X6.7122Y-1.6209
X6.7122Y-1.7209
X6.7122Y-1.8209
X6.7122Y-1.9209
X6.7122Y-2.0209
X6.7122Y-2.1209
X6.7122Y-2.2209
X6.7122Y-2.3209
X6.7122Y-2.4209
X6.7122Y-2.5209
X6.7122Y-2.6209
X6.7122Y-2.7209
X6.7122Y-2.8209
X6.7122Y-2.9209
X6.7122Y-3.0209
X6.7122Y-3.1209
X6.7122Y-3.2209
X6.7122Y-3.3209
X6.7122Y-3.4209
X6.7122Y-3.5209
X6.7122Y-3.6209
X6.7122Y-3.7209
X6.7122Y-3.8209
X6.7122Y-3.9209
X6.7122Y-4.0209
X6.7122Y-4.1209
X6.7122Y-4.2209
X6.7122Y-4.3209
X6.7122Y-4.4209
X6.7122Y-4.5209
X6.8122Y-1.6209
X6.8122Y-1.7209
X6.8122Y-1.8209
X6.8122Y-1.9209
X6.8122Y-2.0209
X6.8122Y-2.1209
X6.8122Y-2.2209
X6.8122Y-2.3209
X6.8122Y-2.4209
X6.8122Y-2.5209
X6.8122Y-2.6209
X6.8122Y-2.7209
X6.8122Y-2.8209
X6.8122Y-2.9209
X6.8122Y-3.0209
X6.8122Y-3.1209
X6.8122Y-3.2209
X6.8122Y-3.3209
X6.8122Y-3.4209
X6.8122Y-3.5209
X6.8122Y-3.6209
X6.8122Y-3.7209
X6.8122Y-3.8209
X6.8122Y-3.9209
X6.8122Y-4.0209
X6.8122Y-4.1209
X6.8122Y-4.2209
X6.8122Y-4.3209
X6.8122Y-4.4209
X6.8122Y-4.5209
X6.9122Y-1.6209
X6.9122Y-1.7209
X6.9122Y-1.8209
X6.9122Y-1.9209
X6.9122Y-2.0209
X6.9122Y-2.1209
X6.9122Y-2.2209
X6.9122Y-2.3209
X6.9122Y-2.4209
X6.9122Y-2.5209
X6.9122Y-2.6209
X6.9122Y-2.7209
X6.9122Y-2.8209
X6.9122Y-2.9209
X6.9122Y-3.0209
X6.9122Y-3.1209
X6.9122Y-3.2209
X6.9122Y-3.3209
X6.9122Y-3.4209
X6.9122Y-3.5209
X6.9122Y-3.6209
X6.9122Y-3.7209
X6.9122Y-3.8209
X6.9122Y-3.9209
X6.9122Y-4.0209
X6.9122Y-4.1209
X6.9122Y-4.2209
X6.9122Y-4.3209
X6.9122Y-4.4209
X6.9122Y-4.5209
X7.0122Y-1.6209
X7.0122Y-1.7209
X7.0122Y-1.8209
X7.0122Y-1.9209
X7.0122Y-2.0209
X7.0122Y-2.1209
X7.0122Y-2.2209
X7.0122Y-2.3209
X7.0122Y-2.4209
X7.0122Y-2.5209
X7.0122Y-2.6209
X7.0122Y-2.7209
X7.0122Y-2.8209
X7.0122Y-2.9209
X7.0122Y-3.0209
X7.0122Y-3.1209
X7.0122Y-3.2209
X7.0122Y-3.3209
X7.0122Y-3.4209
X7.0122Y-3.5209
X7.0122Y-3.6209
X7.0122Y-3.7209
X7.0122Y-3.8209
X7.0122Y-3.9209
X7.0122Y-4.0209
X7.0122Y-4.1209
X7.0122Y-4.2209
X7.0122Y-4.3209
X7.0122Y-4.4209
X7.0122Y-4.5209
X7.1122Y-1.6209
X7.1122Y-1.7209
X7.1122Y-1.8209
X7.1122Y-1.9209
X7.1122Y-2.0209
X7.1122Y-2.1209
X7.1122Y-2.2209
X7.1122Y-2.3209
X7.1122Y-2.4209
X7.1122Y-2.5209
X7.1122Y-2.6209
X7.1122Y-2.7209
X7.1122Y-2.8209
X7.1122Y-2.9209
X7.1122Y-3.0209
X7.1122Y-3.1209
X7.1122Y-3.2209
X7.1122Y-3.3209
X7.1122Y-3.4209
X7.1122Y-3.5209
X7.1122Y-3.6209
X7.1122Y-3.7209
X7.1122Y-3.8209
X7.1122Y-3.9209
X7.1122Y-4.0209
X7.1122Y-4.1209
X7.1122Y-4.2209
X7.1122Y-4.3209
X7.1122Y-4.4209
X7.1122Y-4.5209
X7.2122Y-1.6209
X7.2122Y-1.7209
X7.2122Y-1.8209
X7.2122Y-1.9209
X7.2122Y-2.0209
X7.2122Y-2.1209
X7.2122Y-2.2209
X7.2122Y-2.3209
X7.2122Y-2.4209
X7.2122Y-2.5209
X7.2122Y-2.6209
X7.2122Y-2.7209
X7.2122Y-2.8209
X7.2122Y-2.9209
X7.2122Y-3.0209
X7.2122Y-3.1209
X7.2122Y-3.2209
X7.2122Y-3.3209
X7.2122Y-3.4209
X7.2122Y-3.5209
X7.2122Y-3.6209
X7.2122Y-3.7209
X7.2122Y-3.8209
X7.2122Y-3.9209
X7.2122Y-4.0209
X7.2122Y-4.1209
X7.2122Y-4.2209
X7.2122Y-4.3209
X7.2122Y-4.4209
X7.2122Y-4.5209
X7.3122Y-1.6209
X7.3122Y-1.7209
X7.3122Y-1.8209
X7.3122Y-1.9209
X7.3122Y-2.0209
X7.3122Y-2.1209
X7.3122Y-2.2209
X7.3122Y-2.3209
X7.3122Y-2.4209
X7.3122Y-2.5209
X7.3122Y-2.6209
X7.3122Y-2.7209
X7.3122Y-2.8209
X7.3122Y-2.9209
X7.3122Y-3.0209
X7.3122Y-3.1209
X7.3122Y-3.2209
X7.3122Y-3.3209
X7.3122Y-3.4209
X7.3122Y-3.5209
X7.3122Y-3.6209
X7.3122Y-3.7209
X7.3122Y-3.8209
X7.3122Y-3.9209
X7.3122Y-4.0209
X7.3122Y-4.1209
X7.3122Y-4.2209
X7.3122Y-4.3209
X7.3122Y-4.4209
X7.3122Y-4.5209
X7.4122Y-1.6209
X7.4122Y-1.7209
X7.4122Y-1.8209
X7.4122Y-1.9209
X7.4122Y-2.0209
X7.4122Y-2.1209
X7.4122Y-2.2209
X7.4122Y-2.3209
X7.4122Y-2.4209
X7.4122Y-2.5209
X7.4122Y-2.6209
X7.4122Y-2.7209
X7.4122Y-2.8209
X7.4122Y-2.9209
X7.4122Y-3.0209
X7.4122Y-3.1209
X7.4122Y-3.2209
X7.4122Y-3.3209
X7.4122Y-3.4209
X7.4122Y-3.5209
X7.4122Y-3.6209
X7.4122Y-3.7209
X7.4122Y-3.8209
X7.4122Y-3.9209
X7.4122Y-4.0209
X7.4122Y-4.1209
X7.4122Y-4.2209
X7.4122Y-4.3209
X7.4122Y-4.4209
X7.4122Y-4.5209
X7.5122Y-1.6209
X7.5122Y-1.7209
X7.5122Y-1.8209
X7.5122Y-1.9209
X7.5122Y-2.0209
X7.5122Y-2.1209
X7.5122Y-2.2209
X7.5122Y-2.3209
X7.5122Y-2.4209
X7.5122Y-2.5209
X7.5122Y-2.6209
X7.5122Y-2.7209
X7.5122Y-2.8209
X7.5122Y-2.9209
X7.5122Y-3.0209
X7.5122Y-3.1209
X7.5122Y-3.2209
X7.5122Y-3.3209
X7.5122Y-3.4209
X7.5122Y-3.5209
X7.5122Y-3.6209
X7.5122Y-3.7209
X7.5122Y-3.8209
X7.5122Y-3.9209
X7.5122Y-4.0209
X7.5122Y-4.1209
X7.5122Y-4.2209
X7.5122Y-4.3209
X7.5122Y-4.4209
X7.5122Y-4.5209
X7.6122Y-1.6209
X7.6122Y-1.7209
X7.6122Y-1.8209
X7.6122Y-1.9209
X7.6122Y-2.0209
X7.6122Y-2.1209
X7.6122Y-2.2209
X7.6122Y-2.3209
X7.6122Y-2.4209
X7.6122Y-2.5209
X7.6122Y-2.6209
X7.6122Y-2.7209
X7.6122Y-2.8209
X7.6122Y-2.9209
X7.6122Y-3.0209
X7.6122Y-3.1209
X7.6122Y-3.2209
X7.6122Y-3.3209
X7.6122Y-3.4209
X7.6122Y-3.5209
X7.6122Y-3.6209
X7.6122Y-3.7209
X7.6122Y-3.8209
X7.6122Y-3.9209
X7.6122Y-4.0209
X7.6122Y-4.1209
X7.6122Y-4.2209
X7.6122Y-4.3209
X7.6122Y-4.4209
X7.6122Y-4.5209
X7.7122Y-1.6209
X7.7122Y-1.7209
X7.7122Y-1.8209
X7.7122Y-1.9209
X7.7122Y-2.0209
X7.7122Y-2.1209
X7.7122Y-2.2209
X7.7122Y-2.3209
X7.7122Y-2.4209
X7.7122Y-2.5209
X7.7122Y-2.6209
X7.7122Y-2.7209
X7.7122Y-2.8209
X7.7122Y-2.9209
X7.7122Y-3.0209
X7.7122Y-3.1209
X7.7122Y-3.2209
X7.7122Y-3.3209
X7.7122Y-3.4209
X7.7122Y-3.5209
X7.7122Y-3.6209
X7.7122Y-3.7209
X7.7122Y-3.8209
X7.7122Y-3.9209
X7.7122Y-4.0209
X7.7122Y-4.1209
X7.7122Y-4.2209
X7.7122Y-4.3209
X7.7122Y-4.4209
X7.7122Y-4.5209
X7.8122Y-1.6209
X7.8122Y-1.7209
X7.8122Y-1.8209
X7.8122Y-1.9209
X7.8122Y-2.0209
X7.8122Y-2.1209
X7.8122Y-2.2209
X7.8122Y-2.3209
X7.8122Y-2.4209
X7.8122Y-2.5209
X7.8122Y-2.6209
X7.8122Y-2.7209
X7.8122Y-2.8209
X7.8122Y-2.9209
X7.8122Y-3.0209
X7.8122Y-3.1209
X7.8122Y-3.2209
X7.8122Y-3.3209
X7.8122Y-3.4209
X7.8122Y-3.5209
X7.8122Y-3.6209
X7.8122Y-3.7209
X7.8122Y-3.8209
X7.8122Y-3.9209
X7.8122Y-4.0209
X7.8122Y-4.1209
X7.8122Y-4.2209
X7.8122Y-4.3209
X7.8122Y-4.4209
X7.8122Y-4.5209
X7.9122Y-1.6209
X7.9122Y-1.7209
X7.9122Y-1.8209
X7.9122Y-1.9209
X7.9122Y-2.0209
X7.9122Y-2.1209
X7.9122Y-2.2209
X7.9122Y-2.3209
X7.9122Y-2.4209
X7.9122Y-2.5209
X7.9122Y-2.6209
X7.9122Y-2.7209
X7.9122Y-2.8209
X7.9122Y-2.9209
X7.9122Y-3.0209
X7.9122Y-3.1209
X7.9122Y-3.2209
X7.9122Y-3.3209
X7.9122Y-3.4209
X7.9122Y-3.5209
X7.9122Y-3.6209
X7.9122Y-3.7209
X7.9122Y-3.8209
X7.9122Y-3.9209
X7.9122Y-4.0209
X7.9122Y-4.1209
X7.9122Y-4.2209
X7.9122Y-4.3209
X7.9122Y-4.4209
X7.9122Y-4.5209
X8.0122Y-1.6209
X8.0122Y-1.7209
X8.0122Y-1.8209
X8.0122Y-1.9209
X8.0122Y-2.0209
X8.0122Y-2.1209
X8.0122Y-2.2209
X8.0122Y-2.3209
X8.0122Y-2.4209
X8.0122Y-2.5209
X8.0122Y-2.6209
X8.0122Y-2.7209
X8.0122Y-2.8209
X8.0122Y-2.9209
X8.0122Y-3.0209
X8.0122Y-3.1209
X8.0122Y-3.2209
X8.0122Y-3.3209
X8.0122Y-3.4209
X8.0122Y-3.5209
X8.0122Y-3.6209
X8.0122Y-3.7209
X8.0122Y-3.8209
X8.0122Y-3.9209
X8.0122Y-4.0209
X8.0122Y-4.1209
X8.0122Y-4.2209
X8.0122Y-4.3209
X8.0122Y-4.4209
X8.0122Y-4.5209
X8.1122Y-1.6209
X8.1122Y-1.7209
X8.1122Y-1.8209
X8.1122Y-1.9209
X8.1122Y-2.0209
X8.1122Y-2.1209
X8.1122Y-2.2209
X8.1122Y-2.4209
X8.1122Y-2.5209
X8.1122Y-2.6209
X8.1122Y-2.7209
X8.1122Y-2.8209
X8.1122Y-2.9209
X8.1122Y-3.0209
X8.1122Y-3.1209
X8.1122Y-3.2209
X8.1122Y-3.3209
X8.1122Y-3.4209
X8.1122Y-3.5209
X8.1122Y-3.6209
X8.1122Y-3.7209
X8.1122Y-3.9209
X8.1122Y-4.0209
X8.1122Y-4.1209
X8.1122Y-4.2209
X8.1122Y-4.3209
X8.1122Y-4.4209
X8.1122Y-4.5209
X8.2122Y-1.6209
X8.2122Y-1.7209
X8.2122Y-1.8209
X8.2122Y-1.9209
X8.2122Y-2.0209
X8.2122Y-2.1209
X8.2122Y-2.5209
X8.2122Y-2.6209
X8.2122Y-2.7209
X8.2122Y-2.8209
X8.2122Y-2.9209
X8.2122Y-3.0209
X8.2122Y-3.1209
X8.2122Y-3.2209
X8.2122Y-3.3209
X8.2122Y-3.4209
X8.2122Y-3.5209
X8.2122Y-3.6209
X8.2122Y-4.0209
X8.2122Y-4.1209
X8.2122Y-4.2209
X8.2122Y-4.3209
X8.2122Y-4.4209
X8.2122Y-4.5209
X8.3122Y-1.6209
X8.3122Y-1.7209
X8.3122Y-1.8209
X8.3122Y-1.9209
X8.3122Y-2.0209
X8.3122Y-2.1209
X8.3122Y-2.2209
X8.3122Y-2.4209
X8.3122Y-2.5209
X8.3122Y-2.6209
X8.3122Y-2.7209
X8.3122Y-2.8209
X8.3122Y-2.9209
X8.3122Y-3.0209
X8.3122Y-3.1209
X8.3122Y-3.2209
X8.3122Y-3.3209
X8.3122Y-3.4209
X8.3122Y-3.5209
X8.3122Y-3.6209
X8.3122Y-3.7209
X8.3122Y-3.9209
X8.3122Y-4.0209
X8.3122Y-4.1209
X8.3122Y-4.2209
X8.3122Y-4.3209
X8.3122Y-4.4209
X8.3122Y-4.5209
X8.4122Y-1.6209
X8.4122Y-1.7209
X8.4122Y-1.8209
X8.4122Y-1.9209
X8.4122Y-2.0209
X8.4122Y-2.1209
X8.4122Y-2.4209
X8.4122Y-2.5209
X8.4122Y-2.6209
X8.4122Y-2.7209
X8.4122Y-2.8209
X8.4122Y-2.9209
X8.4122Y-3.0209
X8.4122Y-3.1209
X8.4122Y-3.2209
X8.4122Y-3.3209
X8.4122Y-3.4209
X8.4122Y-3.5209
X8.4122Y-3.6209
X8.4122Y-3.7209
X8.4122Y-4.0209
X8.4122Y-4.1209
X8.4122Y-4.2209
X8.4122Y-4.3209
X8.4122Y-4.4209
X8.4122Y-4.5209
X8.5122Y-1.6209
X8.5122Y-1.7209
X8.5122Y-1.8209
X8.5122Y-1.9209
X8.5122Y-2.0209
X8.5122Y-2.1209
X8.5122Y-2.5209
X8.5122Y-2.6209
X8.5122Y-2.7209
X8.5122Y-2.8209
X8.5122Y-2.9209
X8.5122Y-3.0209
X8.5122Y-3.1209
X8.5122Y-3.2209
X8.5122Y-3.3209
X8.5122Y-3.4209
X8.5122Y-3.5209
X8.5122Y-3.6209
X8.5122Y-3.7209
X8.5122Y-4.0209
X8.5122Y-4.1209
X8.5122Y-4.2209
X8.5122Y-4.3209
X8.5122Y-4.4209
X8.5122Y-4.5209
X8.6122Y-1.6209
X8.6122Y-1.7209
X8.6122Y-1.8209
X8.6122Y-1.9209
X8.6122Y-2.0209
X8.6122Y-2.1209
X8.6122Y-2.5209
X8.6122Y-2.6209
X8.6122Y-2.7209
X8.6122Y-2.8209
X8.6122Y-2.9209
X8.6122Y-3.0209
X8.6122Y-3.1209
X8.6122Y-3.2209
X8.6122Y-3.3209
X8.6122Y-3.4209
X8.6122Y-3.5209
X8.6122Y-3.6209
X8.6122Y-4.0209
X8.6122Y-4.1209
X8.6122Y-4.2209
X8.6122Y-4.3209
X8.6122Y-4.4209
X8.6122Y-4.5209
X8.7122Y-1.6209
X8.7122Y-1.7209
X8.7122Y-1.8209
X8.7122Y-1.9209
X8.7122Y-2.0209
X8.7122Y-2.1209
X8.7122Y-2.5209
X8.7122Y-2.6209
X8.7122Y-2.7209
X8.7122Y-2.8209
X8.7122Y-2.9209
X8.7122Y-3.0209
X8.7122Y-3.1209
X8.7122Y-3.2209
X8.7122Y-3.3209
X8.7122Y-3.4209
X8.7122Y-3.5209
X8.7122Y-3.6209
X8.7122Y-4.0209
X8.7122Y-4.1209
X8.7122Y-4.2209
X8.7122Y-4.3209
X8.7122Y-4.4209
X8.7122Y-4.5209
X8.8122Y-1.6209
X8.8122Y-1.7209
X8.8122Y-1.8209
X8.8122Y-1.9209
X8.8122Y-2.0209
X8.8122Y-2.1209
X8.8122Y-2.5209
X8.8122Y-2.6209
X8.8122Y-2.7209
X8.8122Y-2.8209
X8.8122Y-2.9209
X8.8122Y-3.0209
X8.8122Y-3.1209
X8.8122Y-3.2209
X8.8122Y-3.3209
X8.8122Y-3.4209
X8.8122Y-3.5209
X8.8122Y-3.6209
X8.8122Y-4.0209
X8.8122Y-4.1209
X8.8122Y-4.2209
X8.8122Y-4.3209
X8.8122Y-4.4209
X8.8122Y-4.5209
T3
X8.4843Y-2.2913
X8.4843Y-3.8504
T0
M30
