M48
; DRILL file {KiCad 5.99.0+really5.1.10+dfsg1-1} date Sun Dec  5 23:32:42 2021
; FORMAT={-:-/ absolute / inch / decimal}
; #@! TF.CreationDate,2021-12-05T23:32:42+01:00
; #@! TF.GenerationSoftware,Kicad,Pcbnew,5.99.0+really5.1.10+dfsg1-1
; #@! TF.FileFunction,NonPlated,1,2,NPTH
FMAT,2
INCH
T1C0.1122
T2C0.1260
%
G90
G05
T1
X2.1197Y-2.4823
X2.1197Y-4.4508
X2.9307Y-2.4823
X2.9307Y-4.4508
X3.7417Y-2.4823
X3.7417Y-4.4508
X4.5528Y-2.4823
X4.5528Y-4.4508
X5.3638Y-2.4823
X5.3638Y-4.4508
X6.1748Y-2.4823
X6.1748Y-4.4508
X6.9858Y-2.4823
X6.9858Y-4.4508
X7.7969Y-2.4823
X7.7969Y-4.4508
X8.6079Y-2.4823
X8.6079Y-4.4508
X9.4189Y-2.4823
X9.4189Y-4.4508
X10.2299Y-2.4823
X10.2299Y-4.4508
X11.0409Y-2.4823
X11.0409Y-4.4508
X11.852Y-2.4823
X11.852Y-4.4508
X12.663Y-2.4823
X12.663Y-4.4508
X13.474Y-2.4823
X13.474Y-4.4508
X14.285Y-2.4823
X14.285Y-4.4508
X15.0961Y-2.4823
X15.0961Y-4.4508
X15.9071Y-2.4823
X15.9071Y-4.4508
X16.7181Y-2.4823
X16.7181Y-4.4508
X17.5291Y-2.4823
X17.5291Y-4.4508
T2
X1.7126Y-2.1063
X1.7126Y-4.8228
X7.0276Y-2.1063
X7.374Y-4.4094
X12.2402Y-4.4094
X12.3425Y-2.1063
X17.1063Y-4.4094
X17.6575Y-2.1063
T0
M30
