%TF.GenerationSoftware,KiCad,Pcbnew,5.99.0+really5.1.10+dfsg1-1*%
%TF.CreationDate,2021-12-05T23:32:40+01:00*%
%TF.ProjectId,Backplane,4261636b-706c-4616-9e65-2e6b69636164,rev?*%
%TF.SameCoordinates,Original*%
%TF.FileFunction,Soldermask,Bot*%
%TF.FilePolarity,Negative*%
%FSLAX46Y46*%
G04 Gerber Fmt 4.6, Leading zero omitted, Abs format (unit mm)*
G04 Created by KiCad (PCBNEW 5.99.0+really5.1.10+dfsg1-1) date 2021-12-05 23:32:40*
%MOMM*%
%LPD*%
G01*
G04 APERTURE LIST*
%ADD10C,0.010000*%
%ADD11C,1.550000*%
%ADD12C,2.850000*%
%ADD13C,3.200000*%
%ADD14R,0.800000X0.500000*%
%ADD15R,0.800000X0.400000*%
G04 APERTURE END LIST*
D10*
%TO.C,MARK2*%
G36*
X414865636Y-102426219D02*
G01*
X414843371Y-102454776D01*
X414816581Y-102494820D01*
X414790179Y-102538891D01*
X414783722Y-102550573D01*
X414769423Y-102576624D01*
X414745961Y-102618928D01*
X414714559Y-102675295D01*
X414676443Y-102743535D01*
X414632836Y-102821460D01*
X414584963Y-102906878D01*
X414534048Y-102997602D01*
X414481315Y-103091440D01*
X414477825Y-103097646D01*
X414217432Y-103560667D01*
X413782568Y-103560667D01*
X413522175Y-103097646D01*
X413469366Y-103003679D01*
X413418294Y-102912685D01*
X413370184Y-102826851D01*
X413326260Y-102748369D01*
X413287746Y-102679427D01*
X413255867Y-102622215D01*
X413231847Y-102578922D01*
X413216911Y-102551739D01*
X413216278Y-102550573D01*
X413190829Y-102506695D01*
X413163659Y-102464821D01*
X413139680Y-102432409D01*
X413134365Y-102426219D01*
X413097954Y-102385917D01*
X412911748Y-102385917D01*
X412880329Y-102428639D01*
X412869515Y-102446772D01*
X412850826Y-102482005D01*
X412825298Y-102532235D01*
X412793965Y-102595363D01*
X412757861Y-102669286D01*
X412718021Y-102751903D01*
X412675479Y-102841113D01*
X412634140Y-102928702D01*
X412560923Y-103084583D01*
X412495731Y-103223210D01*
X412437591Y-103346488D01*
X412385528Y-103456324D01*
X412338570Y-103554623D01*
X412295744Y-103643289D01*
X412256077Y-103724229D01*
X412218596Y-103799347D01*
X412182327Y-103870550D01*
X412146298Y-103939742D01*
X412109535Y-104008830D01*
X412071066Y-104079718D01*
X412029917Y-104154313D01*
X411985116Y-104234518D01*
X411935688Y-104322241D01*
X411880662Y-104419386D01*
X411819064Y-104527859D01*
X411803359Y-104555500D01*
X411433542Y-105206375D01*
X411430012Y-105324352D01*
X411428932Y-105379398D01*
X411430094Y-105419998D01*
X411434313Y-105452826D01*
X411442402Y-105484555D01*
X411453567Y-105517415D01*
X411499471Y-105626189D01*
X411556356Y-105725673D01*
X411627726Y-105821427D01*
X411686984Y-105887952D01*
X411703193Y-105902980D01*
X411734892Y-105930335D01*
X411781019Y-105969151D01*
X411840512Y-106018563D01*
X411912310Y-106077704D01*
X411995350Y-106145708D01*
X412088570Y-106221711D01*
X412190908Y-106304845D01*
X412301302Y-106394246D01*
X412418691Y-106489046D01*
X412542011Y-106588382D01*
X412670201Y-106691386D01*
X412802199Y-106797193D01*
X412806660Y-106800764D01*
X413862278Y-107645833D01*
X414002577Y-107645044D01*
X414142875Y-107644255D01*
X415183629Y-106810315D01*
X415314624Y-106705272D01*
X415441778Y-106603155D01*
X415564030Y-106504826D01*
X415680316Y-106411144D01*
X415789576Y-106322971D01*
X415890748Y-106241166D01*
X415982769Y-106166590D01*
X416064578Y-106100104D01*
X416135112Y-106042568D01*
X416193311Y-105994844D01*
X416238111Y-105957791D01*
X416268451Y-105932270D01*
X416282945Y-105919458D01*
X416326400Y-105873535D01*
X416373137Y-105818039D01*
X416418757Y-105758743D01*
X416458860Y-105701417D01*
X416489044Y-105651835D01*
X416493628Y-105643111D01*
X416510872Y-105605975D01*
X416530379Y-105559369D01*
X416546525Y-105517161D01*
X416558723Y-105480857D01*
X416566335Y-105449349D01*
X416570171Y-105415969D01*
X416571042Y-105374052D01*
X416570668Y-105356399D01*
X416418070Y-105356399D01*
X416406596Y-105401650D01*
X416384206Y-105456425D01*
X416352635Y-105517723D01*
X416313617Y-105582544D01*
X416268889Y-105647886D01*
X416220184Y-105710749D01*
X416169238Y-105768131D01*
X416147066Y-105790380D01*
X416132390Y-105803272D01*
X416103584Y-105827443D01*
X416062342Y-105861528D01*
X416010358Y-105904160D01*
X415949325Y-105953974D01*
X415880937Y-106009603D01*
X415806888Y-106069681D01*
X415728872Y-106132842D01*
X415648582Y-106197720D01*
X415567711Y-106262949D01*
X415487955Y-106327163D01*
X415411005Y-106388996D01*
X415338557Y-106447081D01*
X415272304Y-106500054D01*
X415213939Y-106546546D01*
X415165156Y-106585193D01*
X415127649Y-106614629D01*
X415103111Y-106633486D01*
X415093237Y-106640400D01*
X415093176Y-106640409D01*
X415095594Y-106631015D01*
X415103751Y-106605247D01*
X415116464Y-106566730D01*
X415132547Y-106519094D01*
X415137645Y-106504171D01*
X415205490Y-106321984D01*
X415286300Y-106132040D01*
X415377489Y-105939371D01*
X415476473Y-105749012D01*
X415580666Y-105565995D01*
X415687482Y-105395356D01*
X415765654Y-105281462D01*
X415807555Y-105226903D01*
X415857955Y-105167398D01*
X415913144Y-105106799D01*
X415969411Y-105048958D01*
X416023048Y-104997729D01*
X416070344Y-104956964D01*
X416097482Y-104936858D01*
X416129890Y-104915962D01*
X416155619Y-104900747D01*
X416169543Y-104894225D01*
X416170084Y-104894167D01*
X416177365Y-104902913D01*
X416193060Y-104927064D01*
X416215366Y-104963484D01*
X416242482Y-105009037D01*
X416272605Y-105060588D01*
X416303936Y-105115003D01*
X416334671Y-105169146D01*
X416363010Y-105219881D01*
X416387151Y-105264075D01*
X416405292Y-105298591D01*
X416415633Y-105320295D01*
X416416892Y-105323674D01*
X416418070Y-105356399D01*
X416570668Y-105356399D01*
X416569988Y-105324352D01*
X416566458Y-105206375D01*
X416295547Y-104729573D01*
X416081945Y-104729573D01*
X416074268Y-104739257D01*
X416051900Y-104754089D01*
X416019622Y-104770916D01*
X416018445Y-104771468D01*
X415989010Y-104787084D01*
X415958760Y-104807561D01*
X415924535Y-104835517D01*
X415883174Y-104873571D01*
X415831517Y-104924339D01*
X415820333Y-104935582D01*
X415723522Y-105040020D01*
X415630408Y-105154886D01*
X415539519Y-105282349D01*
X415449385Y-105424580D01*
X415358533Y-105583748D01*
X415282196Y-105728958D01*
X415196841Y-105901904D01*
X415123563Y-106061877D01*
X415061026Y-106212277D01*
X415007896Y-106356507D01*
X414962835Y-106497967D01*
X414924727Y-106639175D01*
X414910911Y-106694181D01*
X414898396Y-106742257D01*
X414888239Y-106779466D01*
X414881501Y-106801870D01*
X414879827Y-106806148D01*
X414869898Y-106816129D01*
X414845885Y-106837159D01*
X414810291Y-106867138D01*
X414765621Y-106903968D01*
X414714378Y-106945551D01*
X414693208Y-106962558D01*
X414629084Y-107013358D01*
X414579260Y-107051430D01*
X414542061Y-107077928D01*
X414515809Y-107094004D01*
X414498827Y-107100812D01*
X414492125Y-107100860D01*
X414471160Y-107095196D01*
X414437411Y-107086194D01*
X414402167Y-107076855D01*
X414379674Y-107071649D01*
X414354251Y-107067525D01*
X414323291Y-107064369D01*
X414284187Y-107062067D01*
X414234333Y-107060506D01*
X414171123Y-107059573D01*
X414091948Y-107059155D01*
X413994708Y-107059137D01*
X413899817Y-107059348D01*
X413823343Y-107059802D01*
X413762535Y-107060654D01*
X413714643Y-107062057D01*
X413676919Y-107064165D01*
X413646610Y-107067134D01*
X413620969Y-107071116D01*
X413597244Y-107076267D01*
X413572685Y-107082740D01*
X413572429Y-107082811D01*
X413530309Y-107093081D01*
X413497408Y-107098358D01*
X413478701Y-107097896D01*
X413477179Y-107097110D01*
X413439706Y-107067994D01*
X413395165Y-107032772D01*
X413346370Y-106993740D01*
X413296141Y-106953197D01*
X413247292Y-106913438D01*
X413202642Y-106876759D01*
X413165007Y-106845459D01*
X413137204Y-106821832D01*
X413122050Y-106808177D01*
X413120173Y-106806043D01*
X413115389Y-106791916D01*
X413106694Y-106761147D01*
X413095147Y-106717671D01*
X413081806Y-106665421D01*
X413075273Y-106639175D01*
X413073569Y-106632864D01*
X412898014Y-106632864D01*
X412896683Y-106632702D01*
X412886249Y-106624405D01*
X412860756Y-106604059D01*
X412821673Y-106572837D01*
X412770468Y-106531915D01*
X412708609Y-106482465D01*
X412637567Y-106425662D01*
X412558809Y-106362680D01*
X412473804Y-106294694D01*
X412384021Y-106222876D01*
X412380750Y-106220259D01*
X412267130Y-106129221D01*
X412168788Y-106050022D01*
X412084346Y-105981440D01*
X412012431Y-105922246D01*
X411951667Y-105871216D01*
X411900678Y-105827124D01*
X411858090Y-105788745D01*
X411822526Y-105754853D01*
X411792611Y-105724221D01*
X411766971Y-105695626D01*
X411744230Y-105667840D01*
X411723012Y-105639638D01*
X411712134Y-105624417D01*
X411673095Y-105564520D01*
X411639018Y-105503627D01*
X411611461Y-105445366D01*
X411591978Y-105393362D01*
X411582126Y-105351242D01*
X411583108Y-105323674D01*
X411590917Y-105306159D01*
X411607036Y-105274946D01*
X411629664Y-105233169D01*
X411657000Y-105183965D01*
X411687240Y-105130467D01*
X411718585Y-105075811D01*
X411749233Y-105023133D01*
X411777381Y-104975567D01*
X411801229Y-104936249D01*
X411818974Y-104908313D01*
X411828816Y-104894895D01*
X411829917Y-104894167D01*
X411842397Y-104899666D01*
X411867187Y-104914157D01*
X411899164Y-104934625D01*
X411902519Y-104936858D01*
X411943234Y-104968097D01*
X411992865Y-105012474D01*
X412047700Y-105066135D01*
X412104031Y-105125228D01*
X412158148Y-105185902D01*
X412206342Y-105244303D01*
X412234347Y-105281462D01*
X412341904Y-105440582D01*
X412448650Y-105615768D01*
X412552004Y-105801993D01*
X412649386Y-105994230D01*
X412738213Y-106187453D01*
X412815906Y-106376634D01*
X412862798Y-106505464D01*
X412878825Y-106554151D01*
X412890612Y-106593774D01*
X412897296Y-106621092D01*
X412898014Y-106632864D01*
X413073569Y-106632864D01*
X413036910Y-106497098D01*
X412991804Y-106355632D01*
X412938619Y-106211374D01*
X412876021Y-106060925D01*
X412802673Y-105900883D01*
X412717804Y-105728958D01*
X412625258Y-105554226D01*
X412534641Y-105398216D01*
X412444480Y-105258759D01*
X412353304Y-105133685D01*
X412259643Y-105020824D01*
X412179667Y-104935582D01*
X412125708Y-104882115D01*
X412082643Y-104841858D01*
X412047310Y-104812194D01*
X412016551Y-104790503D01*
X411987205Y-104774169D01*
X411981556Y-104771468D01*
X411949032Y-104754629D01*
X411926262Y-104739680D01*
X411918025Y-104729777D01*
X411918056Y-104729573D01*
X411923637Y-104718166D01*
X411938548Y-104690436D01*
X411961639Y-104648453D01*
X411991757Y-104594285D01*
X412027754Y-104529999D01*
X412068477Y-104457663D01*
X412112777Y-104379346D01*
X412121226Y-104364448D01*
X412173169Y-104272187D01*
X412221220Y-104185150D01*
X412266964Y-104100230D01*
X412311990Y-104014317D01*
X412357885Y-103924304D01*
X412406234Y-103827083D01*
X412458625Y-103719545D01*
X412516645Y-103598583D01*
X412574832Y-103476000D01*
X412623709Y-103372556D01*
X412671320Y-103271619D01*
X412716621Y-103175412D01*
X412758571Y-103086154D01*
X412796128Y-103006067D01*
X412828250Y-102937372D01*
X412853893Y-102882290D01*
X412872017Y-102843041D01*
X412877767Y-102830417D01*
X412902969Y-102775500D01*
X412930078Y-102717866D01*
X412955093Y-102665963D01*
X412967678Y-102640601D01*
X413007408Y-102561910D01*
X413026968Y-102587684D01*
X413038303Y-102605586D01*
X413057123Y-102638584D01*
X413081345Y-102682892D01*
X413108890Y-102734724D01*
X413128391Y-102772208D01*
X413156240Y-102825649D01*
X413181396Y-102872868D01*
X413202006Y-102910471D01*
X413216221Y-102935066D01*
X413221481Y-102942841D01*
X413228917Y-102954369D01*
X413245523Y-102982393D01*
X413270160Y-103024922D01*
X413301691Y-103079966D01*
X413338977Y-103145533D01*
X413380881Y-103219633D01*
X413426263Y-103300275D01*
X413449667Y-103342004D01*
X413666625Y-103729285D01*
X413726963Y-103729642D01*
X413773737Y-103726844D01*
X413824833Y-103719326D01*
X413848249Y-103714125D01*
X413908806Y-103703598D01*
X413980677Y-103699058D01*
X414054872Y-103700503D01*
X414122402Y-103707934D01*
X414151751Y-103714125D01*
X414198766Y-103723326D01*
X414249788Y-103728873D01*
X414273037Y-103729642D01*
X414333375Y-103729285D01*
X414550333Y-103342004D01*
X414597017Y-103258861D01*
X414640786Y-103181273D01*
X414680500Y-103111233D01*
X414715022Y-103050731D01*
X414743214Y-103001757D01*
X414763938Y-102966304D01*
X414776056Y-102946361D01*
X414778519Y-102942841D01*
X414786927Y-102929824D01*
X414803075Y-102901333D01*
X414825114Y-102860762D01*
X414851190Y-102811503D01*
X414871610Y-102772208D01*
X414900223Y-102717429D01*
X414926925Y-102667608D01*
X414949633Y-102626531D01*
X414966268Y-102597985D01*
X414973032Y-102587684D01*
X414992592Y-102561910D01*
X415032322Y-102640601D01*
X415054072Y-102684806D01*
X415080372Y-102739926D01*
X415107218Y-102797511D01*
X415122233Y-102830417D01*
X415136353Y-102861225D01*
X415158496Y-102908939D01*
X415187620Y-102971339D01*
X415222682Y-103046203D01*
X415262641Y-103131310D01*
X415306455Y-103224439D01*
X415353081Y-103323369D01*
X415401476Y-103425880D01*
X415425169Y-103476000D01*
X415489593Y-103611661D01*
X415546965Y-103731108D01*
X415598870Y-103837447D01*
X415646895Y-103933789D01*
X415692628Y-104023240D01*
X415737655Y-104108908D01*
X415783563Y-104193903D01*
X415831938Y-104281331D01*
X415878774Y-104364448D01*
X415923606Y-104443641D01*
X415965074Y-104517232D01*
X416002027Y-104583154D01*
X416033313Y-104639340D01*
X416057783Y-104683720D01*
X416074286Y-104714227D01*
X416081670Y-104728794D01*
X416081945Y-104729573D01*
X416295547Y-104729573D01*
X416196641Y-104555500D01*
X416133339Y-104444056D01*
X416076840Y-104344393D01*
X416026170Y-104254604D01*
X415980358Y-104172786D01*
X415938430Y-104097031D01*
X415899412Y-104025435D01*
X415862332Y-103956092D01*
X415826217Y-103887097D01*
X415790093Y-103816544D01*
X415752988Y-103742528D01*
X415713928Y-103663144D01*
X415671941Y-103576486D01*
X415626053Y-103480648D01*
X415575291Y-103373725D01*
X415518682Y-103253812D01*
X415455253Y-103119004D01*
X415384031Y-102967394D01*
X415365861Y-102928702D01*
X415321728Y-102835225D01*
X415279328Y-102746375D01*
X415239697Y-102664253D01*
X415203868Y-102590960D01*
X415172877Y-102528598D01*
X415147757Y-102479268D01*
X415129543Y-102445071D01*
X415119671Y-102428639D01*
X415088252Y-102385917D01*
X414902047Y-102385917D01*
X414865636Y-102426219D01*
G37*
X414865636Y-102426219D02*
X414843371Y-102454776D01*
X414816581Y-102494820D01*
X414790179Y-102538891D01*
X414783722Y-102550573D01*
X414769423Y-102576624D01*
X414745961Y-102618928D01*
X414714559Y-102675295D01*
X414676443Y-102743535D01*
X414632836Y-102821460D01*
X414584963Y-102906878D01*
X414534048Y-102997602D01*
X414481315Y-103091440D01*
X414477825Y-103097646D01*
X414217432Y-103560667D01*
X413782568Y-103560667D01*
X413522175Y-103097646D01*
X413469366Y-103003679D01*
X413418294Y-102912685D01*
X413370184Y-102826851D01*
X413326260Y-102748369D01*
X413287746Y-102679427D01*
X413255867Y-102622215D01*
X413231847Y-102578922D01*
X413216911Y-102551739D01*
X413216278Y-102550573D01*
X413190829Y-102506695D01*
X413163659Y-102464821D01*
X413139680Y-102432409D01*
X413134365Y-102426219D01*
X413097954Y-102385917D01*
X412911748Y-102385917D01*
X412880329Y-102428639D01*
X412869515Y-102446772D01*
X412850826Y-102482005D01*
X412825298Y-102532235D01*
X412793965Y-102595363D01*
X412757861Y-102669286D01*
X412718021Y-102751903D01*
X412675479Y-102841113D01*
X412634140Y-102928702D01*
X412560923Y-103084583D01*
X412495731Y-103223210D01*
X412437591Y-103346488D01*
X412385528Y-103456324D01*
X412338570Y-103554623D01*
X412295744Y-103643289D01*
X412256077Y-103724229D01*
X412218596Y-103799347D01*
X412182327Y-103870550D01*
X412146298Y-103939742D01*
X412109535Y-104008830D01*
X412071066Y-104079718D01*
X412029917Y-104154313D01*
X411985116Y-104234518D01*
X411935688Y-104322241D01*
X411880662Y-104419386D01*
X411819064Y-104527859D01*
X411803359Y-104555500D01*
X411433542Y-105206375D01*
X411430012Y-105324352D01*
X411428932Y-105379398D01*
X411430094Y-105419998D01*
X411434313Y-105452826D01*
X411442402Y-105484555D01*
X411453567Y-105517415D01*
X411499471Y-105626189D01*
X411556356Y-105725673D01*
X411627726Y-105821427D01*
X411686984Y-105887952D01*
X411703193Y-105902980D01*
X411734892Y-105930335D01*
X411781019Y-105969151D01*
X411840512Y-106018563D01*
X411912310Y-106077704D01*
X411995350Y-106145708D01*
X412088570Y-106221711D01*
X412190908Y-106304845D01*
X412301302Y-106394246D01*
X412418691Y-106489046D01*
X412542011Y-106588382D01*
X412670201Y-106691386D01*
X412802199Y-106797193D01*
X412806660Y-106800764D01*
X413862278Y-107645833D01*
X414002577Y-107645044D01*
X414142875Y-107644255D01*
X415183629Y-106810315D01*
X415314624Y-106705272D01*
X415441778Y-106603155D01*
X415564030Y-106504826D01*
X415680316Y-106411144D01*
X415789576Y-106322971D01*
X415890748Y-106241166D01*
X415982769Y-106166590D01*
X416064578Y-106100104D01*
X416135112Y-106042568D01*
X416193311Y-105994844D01*
X416238111Y-105957791D01*
X416268451Y-105932270D01*
X416282945Y-105919458D01*
X416326400Y-105873535D01*
X416373137Y-105818039D01*
X416418757Y-105758743D01*
X416458860Y-105701417D01*
X416489044Y-105651835D01*
X416493628Y-105643111D01*
X416510872Y-105605975D01*
X416530379Y-105559369D01*
X416546525Y-105517161D01*
X416558723Y-105480857D01*
X416566335Y-105449349D01*
X416570171Y-105415969D01*
X416571042Y-105374052D01*
X416570668Y-105356399D01*
X416418070Y-105356399D01*
X416406596Y-105401650D01*
X416384206Y-105456425D01*
X416352635Y-105517723D01*
X416313617Y-105582544D01*
X416268889Y-105647886D01*
X416220184Y-105710749D01*
X416169238Y-105768131D01*
X416147066Y-105790380D01*
X416132390Y-105803272D01*
X416103584Y-105827443D01*
X416062342Y-105861528D01*
X416010358Y-105904160D01*
X415949325Y-105953974D01*
X415880937Y-106009603D01*
X415806888Y-106069681D01*
X415728872Y-106132842D01*
X415648582Y-106197720D01*
X415567711Y-106262949D01*
X415487955Y-106327163D01*
X415411005Y-106388996D01*
X415338557Y-106447081D01*
X415272304Y-106500054D01*
X415213939Y-106546546D01*
X415165156Y-106585193D01*
X415127649Y-106614629D01*
X415103111Y-106633486D01*
X415093237Y-106640400D01*
X415093176Y-106640409D01*
X415095594Y-106631015D01*
X415103751Y-106605247D01*
X415116464Y-106566730D01*
X415132547Y-106519094D01*
X415137645Y-106504171D01*
X415205490Y-106321984D01*
X415286300Y-106132040D01*
X415377489Y-105939371D01*
X415476473Y-105749012D01*
X415580666Y-105565995D01*
X415687482Y-105395356D01*
X415765654Y-105281462D01*
X415807555Y-105226903D01*
X415857955Y-105167398D01*
X415913144Y-105106799D01*
X415969411Y-105048958D01*
X416023048Y-104997729D01*
X416070344Y-104956964D01*
X416097482Y-104936858D01*
X416129890Y-104915962D01*
X416155619Y-104900747D01*
X416169543Y-104894225D01*
X416170084Y-104894167D01*
X416177365Y-104902913D01*
X416193060Y-104927064D01*
X416215366Y-104963484D01*
X416242482Y-105009037D01*
X416272605Y-105060588D01*
X416303936Y-105115003D01*
X416334671Y-105169146D01*
X416363010Y-105219881D01*
X416387151Y-105264075D01*
X416405292Y-105298591D01*
X416415633Y-105320295D01*
X416416892Y-105323674D01*
X416418070Y-105356399D01*
X416570668Y-105356399D01*
X416569988Y-105324352D01*
X416566458Y-105206375D01*
X416295547Y-104729573D01*
X416081945Y-104729573D01*
X416074268Y-104739257D01*
X416051900Y-104754089D01*
X416019622Y-104770916D01*
X416018445Y-104771468D01*
X415989010Y-104787084D01*
X415958760Y-104807561D01*
X415924535Y-104835517D01*
X415883174Y-104873571D01*
X415831517Y-104924339D01*
X415820333Y-104935582D01*
X415723522Y-105040020D01*
X415630408Y-105154886D01*
X415539519Y-105282349D01*
X415449385Y-105424580D01*
X415358533Y-105583748D01*
X415282196Y-105728958D01*
X415196841Y-105901904D01*
X415123563Y-106061877D01*
X415061026Y-106212277D01*
X415007896Y-106356507D01*
X414962835Y-106497967D01*
X414924727Y-106639175D01*
X414910911Y-106694181D01*
X414898396Y-106742257D01*
X414888239Y-106779466D01*
X414881501Y-106801870D01*
X414879827Y-106806148D01*
X414869898Y-106816129D01*
X414845885Y-106837159D01*
X414810291Y-106867138D01*
X414765621Y-106903968D01*
X414714378Y-106945551D01*
X414693208Y-106962558D01*
X414629084Y-107013358D01*
X414579260Y-107051430D01*
X414542061Y-107077928D01*
X414515809Y-107094004D01*
X414498827Y-107100812D01*
X414492125Y-107100860D01*
X414471160Y-107095196D01*
X414437411Y-107086194D01*
X414402167Y-107076855D01*
X414379674Y-107071649D01*
X414354251Y-107067525D01*
X414323291Y-107064369D01*
X414284187Y-107062067D01*
X414234333Y-107060506D01*
X414171123Y-107059573D01*
X414091948Y-107059155D01*
X413994708Y-107059137D01*
X413899817Y-107059348D01*
X413823343Y-107059802D01*
X413762535Y-107060654D01*
X413714643Y-107062057D01*
X413676919Y-107064165D01*
X413646610Y-107067134D01*
X413620969Y-107071116D01*
X413597244Y-107076267D01*
X413572685Y-107082740D01*
X413572429Y-107082811D01*
X413530309Y-107093081D01*
X413497408Y-107098358D01*
X413478701Y-107097896D01*
X413477179Y-107097110D01*
X413439706Y-107067994D01*
X413395165Y-107032772D01*
X413346370Y-106993740D01*
X413296141Y-106953197D01*
X413247292Y-106913438D01*
X413202642Y-106876759D01*
X413165007Y-106845459D01*
X413137204Y-106821832D01*
X413122050Y-106808177D01*
X413120173Y-106806043D01*
X413115389Y-106791916D01*
X413106694Y-106761147D01*
X413095147Y-106717671D01*
X413081806Y-106665421D01*
X413075273Y-106639175D01*
X413073569Y-106632864D01*
X412898014Y-106632864D01*
X412896683Y-106632702D01*
X412886249Y-106624405D01*
X412860756Y-106604059D01*
X412821673Y-106572837D01*
X412770468Y-106531915D01*
X412708609Y-106482465D01*
X412637567Y-106425662D01*
X412558809Y-106362680D01*
X412473804Y-106294694D01*
X412384021Y-106222876D01*
X412380750Y-106220259D01*
X412267130Y-106129221D01*
X412168788Y-106050022D01*
X412084346Y-105981440D01*
X412012431Y-105922246D01*
X411951667Y-105871216D01*
X411900678Y-105827124D01*
X411858090Y-105788745D01*
X411822526Y-105754853D01*
X411792611Y-105724221D01*
X411766971Y-105695626D01*
X411744230Y-105667840D01*
X411723012Y-105639638D01*
X411712134Y-105624417D01*
X411673095Y-105564520D01*
X411639018Y-105503627D01*
X411611461Y-105445366D01*
X411591978Y-105393362D01*
X411582126Y-105351242D01*
X411583108Y-105323674D01*
X411590917Y-105306159D01*
X411607036Y-105274946D01*
X411629664Y-105233169D01*
X411657000Y-105183965D01*
X411687240Y-105130467D01*
X411718585Y-105075811D01*
X411749233Y-105023133D01*
X411777381Y-104975567D01*
X411801229Y-104936249D01*
X411818974Y-104908313D01*
X411828816Y-104894895D01*
X411829917Y-104894167D01*
X411842397Y-104899666D01*
X411867187Y-104914157D01*
X411899164Y-104934625D01*
X411902519Y-104936858D01*
X411943234Y-104968097D01*
X411992865Y-105012474D01*
X412047700Y-105066135D01*
X412104031Y-105125228D01*
X412158148Y-105185902D01*
X412206342Y-105244303D01*
X412234347Y-105281462D01*
X412341904Y-105440582D01*
X412448650Y-105615768D01*
X412552004Y-105801993D01*
X412649386Y-105994230D01*
X412738213Y-106187453D01*
X412815906Y-106376634D01*
X412862798Y-106505464D01*
X412878825Y-106554151D01*
X412890612Y-106593774D01*
X412897296Y-106621092D01*
X412898014Y-106632864D01*
X413073569Y-106632864D01*
X413036910Y-106497098D01*
X412991804Y-106355632D01*
X412938619Y-106211374D01*
X412876021Y-106060925D01*
X412802673Y-105900883D01*
X412717804Y-105728958D01*
X412625258Y-105554226D01*
X412534641Y-105398216D01*
X412444480Y-105258759D01*
X412353304Y-105133685D01*
X412259643Y-105020824D01*
X412179667Y-104935582D01*
X412125708Y-104882115D01*
X412082643Y-104841858D01*
X412047310Y-104812194D01*
X412016551Y-104790503D01*
X411987205Y-104774169D01*
X411981556Y-104771468D01*
X411949032Y-104754629D01*
X411926262Y-104739680D01*
X411918025Y-104729777D01*
X411918056Y-104729573D01*
X411923637Y-104718166D01*
X411938548Y-104690436D01*
X411961639Y-104648453D01*
X411991757Y-104594285D01*
X412027754Y-104529999D01*
X412068477Y-104457663D01*
X412112777Y-104379346D01*
X412121226Y-104364448D01*
X412173169Y-104272187D01*
X412221220Y-104185150D01*
X412266964Y-104100230D01*
X412311990Y-104014317D01*
X412357885Y-103924304D01*
X412406234Y-103827083D01*
X412458625Y-103719545D01*
X412516645Y-103598583D01*
X412574832Y-103476000D01*
X412623709Y-103372556D01*
X412671320Y-103271619D01*
X412716621Y-103175412D01*
X412758571Y-103086154D01*
X412796128Y-103006067D01*
X412828250Y-102937372D01*
X412853893Y-102882290D01*
X412872017Y-102843041D01*
X412877767Y-102830417D01*
X412902969Y-102775500D01*
X412930078Y-102717866D01*
X412955093Y-102665963D01*
X412967678Y-102640601D01*
X413007408Y-102561910D01*
X413026968Y-102587684D01*
X413038303Y-102605586D01*
X413057123Y-102638584D01*
X413081345Y-102682892D01*
X413108890Y-102734724D01*
X413128391Y-102772208D01*
X413156240Y-102825649D01*
X413181396Y-102872868D01*
X413202006Y-102910471D01*
X413216221Y-102935066D01*
X413221481Y-102942841D01*
X413228917Y-102954369D01*
X413245523Y-102982393D01*
X413270160Y-103024922D01*
X413301691Y-103079966D01*
X413338977Y-103145533D01*
X413380881Y-103219633D01*
X413426263Y-103300275D01*
X413449667Y-103342004D01*
X413666625Y-103729285D01*
X413726963Y-103729642D01*
X413773737Y-103726844D01*
X413824833Y-103719326D01*
X413848249Y-103714125D01*
X413908806Y-103703598D01*
X413980677Y-103699058D01*
X414054872Y-103700503D01*
X414122402Y-103707934D01*
X414151751Y-103714125D01*
X414198766Y-103723326D01*
X414249788Y-103728873D01*
X414273037Y-103729642D01*
X414333375Y-103729285D01*
X414550333Y-103342004D01*
X414597017Y-103258861D01*
X414640786Y-103181273D01*
X414680500Y-103111233D01*
X414715022Y-103050731D01*
X414743214Y-103001757D01*
X414763938Y-102966304D01*
X414776056Y-102946361D01*
X414778519Y-102942841D01*
X414786927Y-102929824D01*
X414803075Y-102901333D01*
X414825114Y-102860762D01*
X414851190Y-102811503D01*
X414871610Y-102772208D01*
X414900223Y-102717429D01*
X414926925Y-102667608D01*
X414949633Y-102626531D01*
X414966268Y-102597985D01*
X414973032Y-102587684D01*
X414992592Y-102561910D01*
X415032322Y-102640601D01*
X415054072Y-102684806D01*
X415080372Y-102739926D01*
X415107218Y-102797511D01*
X415122233Y-102830417D01*
X415136353Y-102861225D01*
X415158496Y-102908939D01*
X415187620Y-102971339D01*
X415222682Y-103046203D01*
X415262641Y-103131310D01*
X415306455Y-103224439D01*
X415353081Y-103323369D01*
X415401476Y-103425880D01*
X415425169Y-103476000D01*
X415489593Y-103611661D01*
X415546965Y-103731108D01*
X415598870Y-103837447D01*
X415646895Y-103933789D01*
X415692628Y-104023240D01*
X415737655Y-104108908D01*
X415783563Y-104193903D01*
X415831938Y-104281331D01*
X415878774Y-104364448D01*
X415923606Y-104443641D01*
X415965074Y-104517232D01*
X416002027Y-104583154D01*
X416033313Y-104639340D01*
X416057783Y-104683720D01*
X416074286Y-104714227D01*
X416081670Y-104728794D01*
X416081945Y-104729573D01*
X416295547Y-104729573D01*
X416196641Y-104555500D01*
X416133339Y-104444056D01*
X416076840Y-104344393D01*
X416026170Y-104254604D01*
X415980358Y-104172786D01*
X415938430Y-104097031D01*
X415899412Y-104025435D01*
X415862332Y-103956092D01*
X415826217Y-103887097D01*
X415790093Y-103816544D01*
X415752988Y-103742528D01*
X415713928Y-103663144D01*
X415671941Y-103576486D01*
X415626053Y-103480648D01*
X415575291Y-103373725D01*
X415518682Y-103253812D01*
X415455253Y-103119004D01*
X415384031Y-102967394D01*
X415365861Y-102928702D01*
X415321728Y-102835225D01*
X415279328Y-102746375D01*
X415239697Y-102664253D01*
X415203868Y-102590960D01*
X415172877Y-102528598D01*
X415147757Y-102479268D01*
X415129543Y-102445071D01*
X415119671Y-102428639D01*
X415088252Y-102385917D01*
X414902047Y-102385917D01*
X414865636Y-102426219D01*
%TD*%
%TO.C,U19*%
G36*
G01*
X427655000Y-106574998D02*
X427655000Y-107625002D01*
G75*
G02*
X427405002Y-107875000I-249998J0D01*
G01*
X426354998Y-107875000D01*
G75*
G02*
X426105000Y-107625002I0J249998D01*
G01*
X426105000Y-106574998D01*
G75*
G02*
X426354998Y-106325000I249998J0D01*
G01*
X427405002Y-106325000D01*
G75*
G02*
X427655000Y-106574998I0J-249998D01*
G01*
G37*
D11*
X426880000Y-104560000D03*
X426880000Y-102020000D03*
X426880000Y-99480000D03*
X426880000Y-96940000D03*
X426880000Y-94400000D03*
X426880000Y-91860000D03*
X426880000Y-89320000D03*
X426880000Y-86780000D03*
X426880000Y-84240000D03*
X426880000Y-81700000D03*
X426880000Y-79160000D03*
X426880000Y-76620000D03*
X426880000Y-74080000D03*
X426880000Y-71540000D03*
X426880000Y-69000000D03*
X424340000Y-107100000D03*
X424340000Y-104560000D03*
X424340000Y-102020000D03*
X424340000Y-99480000D03*
X424340000Y-96940000D03*
X424340000Y-94400000D03*
X424340000Y-91860000D03*
X424340000Y-89320000D03*
X424340000Y-86780000D03*
X424340000Y-84240000D03*
X424340000Y-81700000D03*
X424340000Y-79160000D03*
X424340000Y-76620000D03*
X424340000Y-74080000D03*
X424340000Y-71540000D03*
X424340000Y-69000000D03*
X421800000Y-107100000D03*
X421800000Y-104560000D03*
X421800000Y-102020000D03*
X421800000Y-99480000D03*
X421800000Y-96940000D03*
X421800000Y-94400000D03*
X421800000Y-91860000D03*
X421800000Y-89320000D03*
X421800000Y-86780000D03*
X421800000Y-84240000D03*
X421800000Y-81700000D03*
X421800000Y-79160000D03*
X421800000Y-76620000D03*
X421800000Y-74080000D03*
X421800000Y-71540000D03*
X421800000Y-69000000D03*
D12*
X424640000Y-113050000D03*
X424640000Y-63050000D03*
%TD*%
%TO.C,U1*%
G36*
G01*
X56855000Y-106574998D02*
X56855000Y-107625002D01*
G75*
G02*
X56605002Y-107875000I-249998J0D01*
G01*
X55554998Y-107875000D01*
G75*
G02*
X55305000Y-107625002I0J249998D01*
G01*
X55305000Y-106574998D01*
G75*
G02*
X55554998Y-106325000I249998J0D01*
G01*
X56605002Y-106325000D01*
G75*
G02*
X56855000Y-106574998I0J-249998D01*
G01*
G37*
D11*
X56080000Y-104560000D03*
X56080000Y-102020000D03*
X56080000Y-99480000D03*
X56080000Y-96940000D03*
X56080000Y-94400000D03*
X56080000Y-91860000D03*
X56080000Y-89320000D03*
X56080000Y-86780000D03*
X56080000Y-84240000D03*
X56080000Y-81700000D03*
X56080000Y-79160000D03*
X56080000Y-76620000D03*
X56080000Y-74080000D03*
X56080000Y-71540000D03*
X56080000Y-69000000D03*
X53540000Y-107100000D03*
X53540000Y-104560000D03*
X53540000Y-102020000D03*
X53540000Y-99480000D03*
X53540000Y-96940000D03*
X53540000Y-94400000D03*
X53540000Y-91860000D03*
X53540000Y-89320000D03*
X53540000Y-86780000D03*
X53540000Y-84240000D03*
X53540000Y-81700000D03*
X53540000Y-79160000D03*
X53540000Y-76620000D03*
X53540000Y-74080000D03*
X53540000Y-71540000D03*
X53540000Y-69000000D03*
X51000000Y-107100000D03*
X51000000Y-104560000D03*
X51000000Y-102020000D03*
X51000000Y-99480000D03*
X51000000Y-96940000D03*
X51000000Y-94400000D03*
X51000000Y-91860000D03*
X51000000Y-89320000D03*
X51000000Y-86780000D03*
X51000000Y-84240000D03*
X51000000Y-81700000D03*
X51000000Y-79160000D03*
X51000000Y-76620000D03*
X51000000Y-74080000D03*
X51000000Y-71540000D03*
X51000000Y-69000000D03*
D12*
X53840000Y-113050000D03*
X53840000Y-63050000D03*
%TD*%
D13*
%TO.C,H8*%
X434500000Y-112000000D03*
%TD*%
%TO.C,H7*%
X310900000Y-112000000D03*
%TD*%
%TO.C,H6*%
X187300000Y-112000000D03*
%TD*%
%TO.C,H5*%
X43500000Y-122500000D03*
%TD*%
%TO.C,H4*%
X448500000Y-53500000D03*
%TD*%
%TO.C,H3*%
X313500000Y-53500000D03*
%TD*%
%TO.C,H2*%
X178500000Y-53500000D03*
%TD*%
%TO.C,H1*%
X43500000Y-53500000D03*
%TD*%
%TO.C,U40*%
G36*
G01*
X442565000Y-122525000D02*
X442765000Y-122525000D01*
G75*
G02*
X442865000Y-122625000I0J-100000D01*
G01*
X442865000Y-123900000D01*
G75*
G02*
X442765000Y-124000000I-100000J0D01*
G01*
X442565000Y-124000000D01*
G75*
G02*
X442465000Y-123900000I0J100000D01*
G01*
X442465000Y-122625000D01*
G75*
G02*
X442565000Y-122525000I100000J0D01*
G01*
G37*
G36*
G01*
X443215000Y-122525000D02*
X443415000Y-122525000D01*
G75*
G02*
X443515000Y-122625000I0J-100000D01*
G01*
X443515000Y-123900000D01*
G75*
G02*
X443415000Y-124000000I-100000J0D01*
G01*
X443215000Y-124000000D01*
G75*
G02*
X443115000Y-123900000I0J100000D01*
G01*
X443115000Y-122625000D01*
G75*
G02*
X443215000Y-122525000I100000J0D01*
G01*
G37*
G36*
G01*
X443865000Y-122525000D02*
X444065000Y-122525000D01*
G75*
G02*
X444165000Y-122625000I0J-100000D01*
G01*
X444165000Y-123900000D01*
G75*
G02*
X444065000Y-124000000I-100000J0D01*
G01*
X443865000Y-124000000D01*
G75*
G02*
X443765000Y-123900000I0J100000D01*
G01*
X443765000Y-122625000D01*
G75*
G02*
X443865000Y-122525000I100000J0D01*
G01*
G37*
G36*
G01*
X444515000Y-122525000D02*
X444715000Y-122525000D01*
G75*
G02*
X444815000Y-122625000I0J-100000D01*
G01*
X444815000Y-123900000D01*
G75*
G02*
X444715000Y-124000000I-100000J0D01*
G01*
X444515000Y-124000000D01*
G75*
G02*
X444415000Y-123900000I0J100000D01*
G01*
X444415000Y-122625000D01*
G75*
G02*
X444515000Y-122525000I100000J0D01*
G01*
G37*
G36*
G01*
X445165000Y-122525000D02*
X445365000Y-122525000D01*
G75*
G02*
X445465000Y-122625000I0J-100000D01*
G01*
X445465000Y-123900000D01*
G75*
G02*
X445365000Y-124000000I-100000J0D01*
G01*
X445165000Y-124000000D01*
G75*
G02*
X445065000Y-123900000I0J100000D01*
G01*
X445065000Y-122625000D01*
G75*
G02*
X445165000Y-122525000I100000J0D01*
G01*
G37*
G36*
G01*
X445815000Y-122525000D02*
X446015000Y-122525000D01*
G75*
G02*
X446115000Y-122625000I0J-100000D01*
G01*
X446115000Y-123900000D01*
G75*
G02*
X446015000Y-124000000I-100000J0D01*
G01*
X445815000Y-124000000D01*
G75*
G02*
X445715000Y-123900000I0J100000D01*
G01*
X445715000Y-122625000D01*
G75*
G02*
X445815000Y-122525000I100000J0D01*
G01*
G37*
G36*
G01*
X446465000Y-122525000D02*
X446665000Y-122525000D01*
G75*
G02*
X446765000Y-122625000I0J-100000D01*
G01*
X446765000Y-123900000D01*
G75*
G02*
X446665000Y-124000000I-100000J0D01*
G01*
X446465000Y-124000000D01*
G75*
G02*
X446365000Y-123900000I0J100000D01*
G01*
X446365000Y-122625000D01*
G75*
G02*
X446465000Y-122525000I100000J0D01*
G01*
G37*
G36*
G01*
X447115000Y-122525000D02*
X447315000Y-122525000D01*
G75*
G02*
X447415000Y-122625000I0J-100000D01*
G01*
X447415000Y-123900000D01*
G75*
G02*
X447315000Y-124000000I-100000J0D01*
G01*
X447115000Y-124000000D01*
G75*
G02*
X447015000Y-123900000I0J100000D01*
G01*
X447015000Y-122625000D01*
G75*
G02*
X447115000Y-122525000I100000J0D01*
G01*
G37*
G36*
G01*
X447115000Y-116800000D02*
X447315000Y-116800000D01*
G75*
G02*
X447415000Y-116900000I0J-100000D01*
G01*
X447415000Y-118175000D01*
G75*
G02*
X447315000Y-118275000I-100000J0D01*
G01*
X447115000Y-118275000D01*
G75*
G02*
X447015000Y-118175000I0J100000D01*
G01*
X447015000Y-116900000D01*
G75*
G02*
X447115000Y-116800000I100000J0D01*
G01*
G37*
G36*
G01*
X446465000Y-116800000D02*
X446665000Y-116800000D01*
G75*
G02*
X446765000Y-116900000I0J-100000D01*
G01*
X446765000Y-118175000D01*
G75*
G02*
X446665000Y-118275000I-100000J0D01*
G01*
X446465000Y-118275000D01*
G75*
G02*
X446365000Y-118175000I0J100000D01*
G01*
X446365000Y-116900000D01*
G75*
G02*
X446465000Y-116800000I100000J0D01*
G01*
G37*
G36*
G01*
X445815000Y-116800000D02*
X446015000Y-116800000D01*
G75*
G02*
X446115000Y-116900000I0J-100000D01*
G01*
X446115000Y-118175000D01*
G75*
G02*
X446015000Y-118275000I-100000J0D01*
G01*
X445815000Y-118275000D01*
G75*
G02*
X445715000Y-118175000I0J100000D01*
G01*
X445715000Y-116900000D01*
G75*
G02*
X445815000Y-116800000I100000J0D01*
G01*
G37*
G36*
G01*
X445165000Y-116800000D02*
X445365000Y-116800000D01*
G75*
G02*
X445465000Y-116900000I0J-100000D01*
G01*
X445465000Y-118175000D01*
G75*
G02*
X445365000Y-118275000I-100000J0D01*
G01*
X445165000Y-118275000D01*
G75*
G02*
X445065000Y-118175000I0J100000D01*
G01*
X445065000Y-116900000D01*
G75*
G02*
X445165000Y-116800000I100000J0D01*
G01*
G37*
G36*
G01*
X444515000Y-116800000D02*
X444715000Y-116800000D01*
G75*
G02*
X444815000Y-116900000I0J-100000D01*
G01*
X444815000Y-118175000D01*
G75*
G02*
X444715000Y-118275000I-100000J0D01*
G01*
X444515000Y-118275000D01*
G75*
G02*
X444415000Y-118175000I0J100000D01*
G01*
X444415000Y-116900000D01*
G75*
G02*
X444515000Y-116800000I100000J0D01*
G01*
G37*
G36*
G01*
X443865000Y-116800000D02*
X444065000Y-116800000D01*
G75*
G02*
X444165000Y-116900000I0J-100000D01*
G01*
X444165000Y-118175000D01*
G75*
G02*
X444065000Y-118275000I-100000J0D01*
G01*
X443865000Y-118275000D01*
G75*
G02*
X443765000Y-118175000I0J100000D01*
G01*
X443765000Y-116900000D01*
G75*
G02*
X443865000Y-116800000I100000J0D01*
G01*
G37*
G36*
G01*
X443215000Y-116800000D02*
X443415000Y-116800000D01*
G75*
G02*
X443515000Y-116900000I0J-100000D01*
G01*
X443515000Y-118175000D01*
G75*
G02*
X443415000Y-118275000I-100000J0D01*
G01*
X443215000Y-118275000D01*
G75*
G02*
X443115000Y-118175000I0J100000D01*
G01*
X443115000Y-116900000D01*
G75*
G02*
X443215000Y-116800000I100000J0D01*
G01*
G37*
G36*
G01*
X442565000Y-116800000D02*
X442765000Y-116800000D01*
G75*
G02*
X442865000Y-116900000I0J-100000D01*
G01*
X442865000Y-118175000D01*
G75*
G02*
X442765000Y-118275000I-100000J0D01*
G01*
X442565000Y-118275000D01*
G75*
G02*
X442465000Y-118175000I0J100000D01*
G01*
X442465000Y-116900000D01*
G75*
G02*
X442565000Y-116800000I100000J0D01*
G01*
G37*
%TD*%
%TO.C,U39*%
G36*
G01*
X421965000Y-122525000D02*
X422165000Y-122525000D01*
G75*
G02*
X422265000Y-122625000I0J-100000D01*
G01*
X422265000Y-123900000D01*
G75*
G02*
X422165000Y-124000000I-100000J0D01*
G01*
X421965000Y-124000000D01*
G75*
G02*
X421865000Y-123900000I0J100000D01*
G01*
X421865000Y-122625000D01*
G75*
G02*
X421965000Y-122525000I100000J0D01*
G01*
G37*
G36*
G01*
X422615000Y-122525000D02*
X422815000Y-122525000D01*
G75*
G02*
X422915000Y-122625000I0J-100000D01*
G01*
X422915000Y-123900000D01*
G75*
G02*
X422815000Y-124000000I-100000J0D01*
G01*
X422615000Y-124000000D01*
G75*
G02*
X422515000Y-123900000I0J100000D01*
G01*
X422515000Y-122625000D01*
G75*
G02*
X422615000Y-122525000I100000J0D01*
G01*
G37*
G36*
G01*
X423265000Y-122525000D02*
X423465000Y-122525000D01*
G75*
G02*
X423565000Y-122625000I0J-100000D01*
G01*
X423565000Y-123900000D01*
G75*
G02*
X423465000Y-124000000I-100000J0D01*
G01*
X423265000Y-124000000D01*
G75*
G02*
X423165000Y-123900000I0J100000D01*
G01*
X423165000Y-122625000D01*
G75*
G02*
X423265000Y-122525000I100000J0D01*
G01*
G37*
G36*
G01*
X423915000Y-122525000D02*
X424115000Y-122525000D01*
G75*
G02*
X424215000Y-122625000I0J-100000D01*
G01*
X424215000Y-123900000D01*
G75*
G02*
X424115000Y-124000000I-100000J0D01*
G01*
X423915000Y-124000000D01*
G75*
G02*
X423815000Y-123900000I0J100000D01*
G01*
X423815000Y-122625000D01*
G75*
G02*
X423915000Y-122525000I100000J0D01*
G01*
G37*
G36*
G01*
X424565000Y-122525000D02*
X424765000Y-122525000D01*
G75*
G02*
X424865000Y-122625000I0J-100000D01*
G01*
X424865000Y-123900000D01*
G75*
G02*
X424765000Y-124000000I-100000J0D01*
G01*
X424565000Y-124000000D01*
G75*
G02*
X424465000Y-123900000I0J100000D01*
G01*
X424465000Y-122625000D01*
G75*
G02*
X424565000Y-122525000I100000J0D01*
G01*
G37*
G36*
G01*
X425215000Y-122525000D02*
X425415000Y-122525000D01*
G75*
G02*
X425515000Y-122625000I0J-100000D01*
G01*
X425515000Y-123900000D01*
G75*
G02*
X425415000Y-124000000I-100000J0D01*
G01*
X425215000Y-124000000D01*
G75*
G02*
X425115000Y-123900000I0J100000D01*
G01*
X425115000Y-122625000D01*
G75*
G02*
X425215000Y-122525000I100000J0D01*
G01*
G37*
G36*
G01*
X425865000Y-122525000D02*
X426065000Y-122525000D01*
G75*
G02*
X426165000Y-122625000I0J-100000D01*
G01*
X426165000Y-123900000D01*
G75*
G02*
X426065000Y-124000000I-100000J0D01*
G01*
X425865000Y-124000000D01*
G75*
G02*
X425765000Y-123900000I0J100000D01*
G01*
X425765000Y-122625000D01*
G75*
G02*
X425865000Y-122525000I100000J0D01*
G01*
G37*
G36*
G01*
X426515000Y-122525000D02*
X426715000Y-122525000D01*
G75*
G02*
X426815000Y-122625000I0J-100000D01*
G01*
X426815000Y-123900000D01*
G75*
G02*
X426715000Y-124000000I-100000J0D01*
G01*
X426515000Y-124000000D01*
G75*
G02*
X426415000Y-123900000I0J100000D01*
G01*
X426415000Y-122625000D01*
G75*
G02*
X426515000Y-122525000I100000J0D01*
G01*
G37*
G36*
G01*
X426515000Y-116800000D02*
X426715000Y-116800000D01*
G75*
G02*
X426815000Y-116900000I0J-100000D01*
G01*
X426815000Y-118175000D01*
G75*
G02*
X426715000Y-118275000I-100000J0D01*
G01*
X426515000Y-118275000D01*
G75*
G02*
X426415000Y-118175000I0J100000D01*
G01*
X426415000Y-116900000D01*
G75*
G02*
X426515000Y-116800000I100000J0D01*
G01*
G37*
G36*
G01*
X425865000Y-116800000D02*
X426065000Y-116800000D01*
G75*
G02*
X426165000Y-116900000I0J-100000D01*
G01*
X426165000Y-118175000D01*
G75*
G02*
X426065000Y-118275000I-100000J0D01*
G01*
X425865000Y-118275000D01*
G75*
G02*
X425765000Y-118175000I0J100000D01*
G01*
X425765000Y-116900000D01*
G75*
G02*
X425865000Y-116800000I100000J0D01*
G01*
G37*
G36*
G01*
X425215000Y-116800000D02*
X425415000Y-116800000D01*
G75*
G02*
X425515000Y-116900000I0J-100000D01*
G01*
X425515000Y-118175000D01*
G75*
G02*
X425415000Y-118275000I-100000J0D01*
G01*
X425215000Y-118275000D01*
G75*
G02*
X425115000Y-118175000I0J100000D01*
G01*
X425115000Y-116900000D01*
G75*
G02*
X425215000Y-116800000I100000J0D01*
G01*
G37*
G36*
G01*
X424565000Y-116800000D02*
X424765000Y-116800000D01*
G75*
G02*
X424865000Y-116900000I0J-100000D01*
G01*
X424865000Y-118175000D01*
G75*
G02*
X424765000Y-118275000I-100000J0D01*
G01*
X424565000Y-118275000D01*
G75*
G02*
X424465000Y-118175000I0J100000D01*
G01*
X424465000Y-116900000D01*
G75*
G02*
X424565000Y-116800000I100000J0D01*
G01*
G37*
G36*
G01*
X423915000Y-116800000D02*
X424115000Y-116800000D01*
G75*
G02*
X424215000Y-116900000I0J-100000D01*
G01*
X424215000Y-118175000D01*
G75*
G02*
X424115000Y-118275000I-100000J0D01*
G01*
X423915000Y-118275000D01*
G75*
G02*
X423815000Y-118175000I0J100000D01*
G01*
X423815000Y-116900000D01*
G75*
G02*
X423915000Y-116800000I100000J0D01*
G01*
G37*
G36*
G01*
X423265000Y-116800000D02*
X423465000Y-116800000D01*
G75*
G02*
X423565000Y-116900000I0J-100000D01*
G01*
X423565000Y-118175000D01*
G75*
G02*
X423465000Y-118275000I-100000J0D01*
G01*
X423265000Y-118275000D01*
G75*
G02*
X423165000Y-118175000I0J100000D01*
G01*
X423165000Y-116900000D01*
G75*
G02*
X423265000Y-116800000I100000J0D01*
G01*
G37*
G36*
G01*
X422615000Y-116800000D02*
X422815000Y-116800000D01*
G75*
G02*
X422915000Y-116900000I0J-100000D01*
G01*
X422915000Y-118175000D01*
G75*
G02*
X422815000Y-118275000I-100000J0D01*
G01*
X422615000Y-118275000D01*
G75*
G02*
X422515000Y-118175000I0J100000D01*
G01*
X422515000Y-116900000D01*
G75*
G02*
X422615000Y-116800000I100000J0D01*
G01*
G37*
G36*
G01*
X421965000Y-116800000D02*
X422165000Y-116800000D01*
G75*
G02*
X422265000Y-116900000I0J-100000D01*
G01*
X422265000Y-118175000D01*
G75*
G02*
X422165000Y-118275000I-100000J0D01*
G01*
X421965000Y-118275000D01*
G75*
G02*
X421865000Y-118175000I0J100000D01*
G01*
X421865000Y-116900000D01*
G75*
G02*
X421965000Y-116800000I100000J0D01*
G01*
G37*
%TD*%
%TO.C,U38*%
G36*
G01*
X401365000Y-122525000D02*
X401565000Y-122525000D01*
G75*
G02*
X401665000Y-122625000I0J-100000D01*
G01*
X401665000Y-123900000D01*
G75*
G02*
X401565000Y-124000000I-100000J0D01*
G01*
X401365000Y-124000000D01*
G75*
G02*
X401265000Y-123900000I0J100000D01*
G01*
X401265000Y-122625000D01*
G75*
G02*
X401365000Y-122525000I100000J0D01*
G01*
G37*
G36*
G01*
X402015000Y-122525000D02*
X402215000Y-122525000D01*
G75*
G02*
X402315000Y-122625000I0J-100000D01*
G01*
X402315000Y-123900000D01*
G75*
G02*
X402215000Y-124000000I-100000J0D01*
G01*
X402015000Y-124000000D01*
G75*
G02*
X401915000Y-123900000I0J100000D01*
G01*
X401915000Y-122625000D01*
G75*
G02*
X402015000Y-122525000I100000J0D01*
G01*
G37*
G36*
G01*
X402665000Y-122525000D02*
X402865000Y-122525000D01*
G75*
G02*
X402965000Y-122625000I0J-100000D01*
G01*
X402965000Y-123900000D01*
G75*
G02*
X402865000Y-124000000I-100000J0D01*
G01*
X402665000Y-124000000D01*
G75*
G02*
X402565000Y-123900000I0J100000D01*
G01*
X402565000Y-122625000D01*
G75*
G02*
X402665000Y-122525000I100000J0D01*
G01*
G37*
G36*
G01*
X403315000Y-122525000D02*
X403515000Y-122525000D01*
G75*
G02*
X403615000Y-122625000I0J-100000D01*
G01*
X403615000Y-123900000D01*
G75*
G02*
X403515000Y-124000000I-100000J0D01*
G01*
X403315000Y-124000000D01*
G75*
G02*
X403215000Y-123900000I0J100000D01*
G01*
X403215000Y-122625000D01*
G75*
G02*
X403315000Y-122525000I100000J0D01*
G01*
G37*
G36*
G01*
X403965000Y-122525000D02*
X404165000Y-122525000D01*
G75*
G02*
X404265000Y-122625000I0J-100000D01*
G01*
X404265000Y-123900000D01*
G75*
G02*
X404165000Y-124000000I-100000J0D01*
G01*
X403965000Y-124000000D01*
G75*
G02*
X403865000Y-123900000I0J100000D01*
G01*
X403865000Y-122625000D01*
G75*
G02*
X403965000Y-122525000I100000J0D01*
G01*
G37*
G36*
G01*
X404615000Y-122525000D02*
X404815000Y-122525000D01*
G75*
G02*
X404915000Y-122625000I0J-100000D01*
G01*
X404915000Y-123900000D01*
G75*
G02*
X404815000Y-124000000I-100000J0D01*
G01*
X404615000Y-124000000D01*
G75*
G02*
X404515000Y-123900000I0J100000D01*
G01*
X404515000Y-122625000D01*
G75*
G02*
X404615000Y-122525000I100000J0D01*
G01*
G37*
G36*
G01*
X405265000Y-122525000D02*
X405465000Y-122525000D01*
G75*
G02*
X405565000Y-122625000I0J-100000D01*
G01*
X405565000Y-123900000D01*
G75*
G02*
X405465000Y-124000000I-100000J0D01*
G01*
X405265000Y-124000000D01*
G75*
G02*
X405165000Y-123900000I0J100000D01*
G01*
X405165000Y-122625000D01*
G75*
G02*
X405265000Y-122525000I100000J0D01*
G01*
G37*
G36*
G01*
X405915000Y-122525000D02*
X406115000Y-122525000D01*
G75*
G02*
X406215000Y-122625000I0J-100000D01*
G01*
X406215000Y-123900000D01*
G75*
G02*
X406115000Y-124000000I-100000J0D01*
G01*
X405915000Y-124000000D01*
G75*
G02*
X405815000Y-123900000I0J100000D01*
G01*
X405815000Y-122625000D01*
G75*
G02*
X405915000Y-122525000I100000J0D01*
G01*
G37*
G36*
G01*
X405915000Y-116800000D02*
X406115000Y-116800000D01*
G75*
G02*
X406215000Y-116900000I0J-100000D01*
G01*
X406215000Y-118175000D01*
G75*
G02*
X406115000Y-118275000I-100000J0D01*
G01*
X405915000Y-118275000D01*
G75*
G02*
X405815000Y-118175000I0J100000D01*
G01*
X405815000Y-116900000D01*
G75*
G02*
X405915000Y-116800000I100000J0D01*
G01*
G37*
G36*
G01*
X405265000Y-116800000D02*
X405465000Y-116800000D01*
G75*
G02*
X405565000Y-116900000I0J-100000D01*
G01*
X405565000Y-118175000D01*
G75*
G02*
X405465000Y-118275000I-100000J0D01*
G01*
X405265000Y-118275000D01*
G75*
G02*
X405165000Y-118175000I0J100000D01*
G01*
X405165000Y-116900000D01*
G75*
G02*
X405265000Y-116800000I100000J0D01*
G01*
G37*
G36*
G01*
X404615000Y-116800000D02*
X404815000Y-116800000D01*
G75*
G02*
X404915000Y-116900000I0J-100000D01*
G01*
X404915000Y-118175000D01*
G75*
G02*
X404815000Y-118275000I-100000J0D01*
G01*
X404615000Y-118275000D01*
G75*
G02*
X404515000Y-118175000I0J100000D01*
G01*
X404515000Y-116900000D01*
G75*
G02*
X404615000Y-116800000I100000J0D01*
G01*
G37*
G36*
G01*
X403965000Y-116800000D02*
X404165000Y-116800000D01*
G75*
G02*
X404265000Y-116900000I0J-100000D01*
G01*
X404265000Y-118175000D01*
G75*
G02*
X404165000Y-118275000I-100000J0D01*
G01*
X403965000Y-118275000D01*
G75*
G02*
X403865000Y-118175000I0J100000D01*
G01*
X403865000Y-116900000D01*
G75*
G02*
X403965000Y-116800000I100000J0D01*
G01*
G37*
G36*
G01*
X403315000Y-116800000D02*
X403515000Y-116800000D01*
G75*
G02*
X403615000Y-116900000I0J-100000D01*
G01*
X403615000Y-118175000D01*
G75*
G02*
X403515000Y-118275000I-100000J0D01*
G01*
X403315000Y-118275000D01*
G75*
G02*
X403215000Y-118175000I0J100000D01*
G01*
X403215000Y-116900000D01*
G75*
G02*
X403315000Y-116800000I100000J0D01*
G01*
G37*
G36*
G01*
X402665000Y-116800000D02*
X402865000Y-116800000D01*
G75*
G02*
X402965000Y-116900000I0J-100000D01*
G01*
X402965000Y-118175000D01*
G75*
G02*
X402865000Y-118275000I-100000J0D01*
G01*
X402665000Y-118275000D01*
G75*
G02*
X402565000Y-118175000I0J100000D01*
G01*
X402565000Y-116900000D01*
G75*
G02*
X402665000Y-116800000I100000J0D01*
G01*
G37*
G36*
G01*
X402015000Y-116800000D02*
X402215000Y-116800000D01*
G75*
G02*
X402315000Y-116900000I0J-100000D01*
G01*
X402315000Y-118175000D01*
G75*
G02*
X402215000Y-118275000I-100000J0D01*
G01*
X402015000Y-118275000D01*
G75*
G02*
X401915000Y-118175000I0J100000D01*
G01*
X401915000Y-116900000D01*
G75*
G02*
X402015000Y-116800000I100000J0D01*
G01*
G37*
G36*
G01*
X401365000Y-116800000D02*
X401565000Y-116800000D01*
G75*
G02*
X401665000Y-116900000I0J-100000D01*
G01*
X401665000Y-118175000D01*
G75*
G02*
X401565000Y-118275000I-100000J0D01*
G01*
X401365000Y-118275000D01*
G75*
G02*
X401265000Y-118175000I0J100000D01*
G01*
X401265000Y-116900000D01*
G75*
G02*
X401365000Y-116800000I100000J0D01*
G01*
G37*
%TD*%
%TO.C,U37*%
G36*
G01*
X380765000Y-122525000D02*
X380965000Y-122525000D01*
G75*
G02*
X381065000Y-122625000I0J-100000D01*
G01*
X381065000Y-123900000D01*
G75*
G02*
X380965000Y-124000000I-100000J0D01*
G01*
X380765000Y-124000000D01*
G75*
G02*
X380665000Y-123900000I0J100000D01*
G01*
X380665000Y-122625000D01*
G75*
G02*
X380765000Y-122525000I100000J0D01*
G01*
G37*
G36*
G01*
X381415000Y-122525000D02*
X381615000Y-122525000D01*
G75*
G02*
X381715000Y-122625000I0J-100000D01*
G01*
X381715000Y-123900000D01*
G75*
G02*
X381615000Y-124000000I-100000J0D01*
G01*
X381415000Y-124000000D01*
G75*
G02*
X381315000Y-123900000I0J100000D01*
G01*
X381315000Y-122625000D01*
G75*
G02*
X381415000Y-122525000I100000J0D01*
G01*
G37*
G36*
G01*
X382065000Y-122525000D02*
X382265000Y-122525000D01*
G75*
G02*
X382365000Y-122625000I0J-100000D01*
G01*
X382365000Y-123900000D01*
G75*
G02*
X382265000Y-124000000I-100000J0D01*
G01*
X382065000Y-124000000D01*
G75*
G02*
X381965000Y-123900000I0J100000D01*
G01*
X381965000Y-122625000D01*
G75*
G02*
X382065000Y-122525000I100000J0D01*
G01*
G37*
G36*
G01*
X382715000Y-122525000D02*
X382915000Y-122525000D01*
G75*
G02*
X383015000Y-122625000I0J-100000D01*
G01*
X383015000Y-123900000D01*
G75*
G02*
X382915000Y-124000000I-100000J0D01*
G01*
X382715000Y-124000000D01*
G75*
G02*
X382615000Y-123900000I0J100000D01*
G01*
X382615000Y-122625000D01*
G75*
G02*
X382715000Y-122525000I100000J0D01*
G01*
G37*
G36*
G01*
X383365000Y-122525000D02*
X383565000Y-122525000D01*
G75*
G02*
X383665000Y-122625000I0J-100000D01*
G01*
X383665000Y-123900000D01*
G75*
G02*
X383565000Y-124000000I-100000J0D01*
G01*
X383365000Y-124000000D01*
G75*
G02*
X383265000Y-123900000I0J100000D01*
G01*
X383265000Y-122625000D01*
G75*
G02*
X383365000Y-122525000I100000J0D01*
G01*
G37*
G36*
G01*
X384015000Y-122525000D02*
X384215000Y-122525000D01*
G75*
G02*
X384315000Y-122625000I0J-100000D01*
G01*
X384315000Y-123900000D01*
G75*
G02*
X384215000Y-124000000I-100000J0D01*
G01*
X384015000Y-124000000D01*
G75*
G02*
X383915000Y-123900000I0J100000D01*
G01*
X383915000Y-122625000D01*
G75*
G02*
X384015000Y-122525000I100000J0D01*
G01*
G37*
G36*
G01*
X384665000Y-122525000D02*
X384865000Y-122525000D01*
G75*
G02*
X384965000Y-122625000I0J-100000D01*
G01*
X384965000Y-123900000D01*
G75*
G02*
X384865000Y-124000000I-100000J0D01*
G01*
X384665000Y-124000000D01*
G75*
G02*
X384565000Y-123900000I0J100000D01*
G01*
X384565000Y-122625000D01*
G75*
G02*
X384665000Y-122525000I100000J0D01*
G01*
G37*
G36*
G01*
X385315000Y-122525000D02*
X385515000Y-122525000D01*
G75*
G02*
X385615000Y-122625000I0J-100000D01*
G01*
X385615000Y-123900000D01*
G75*
G02*
X385515000Y-124000000I-100000J0D01*
G01*
X385315000Y-124000000D01*
G75*
G02*
X385215000Y-123900000I0J100000D01*
G01*
X385215000Y-122625000D01*
G75*
G02*
X385315000Y-122525000I100000J0D01*
G01*
G37*
G36*
G01*
X385315000Y-116800000D02*
X385515000Y-116800000D01*
G75*
G02*
X385615000Y-116900000I0J-100000D01*
G01*
X385615000Y-118175000D01*
G75*
G02*
X385515000Y-118275000I-100000J0D01*
G01*
X385315000Y-118275000D01*
G75*
G02*
X385215000Y-118175000I0J100000D01*
G01*
X385215000Y-116900000D01*
G75*
G02*
X385315000Y-116800000I100000J0D01*
G01*
G37*
G36*
G01*
X384665000Y-116800000D02*
X384865000Y-116800000D01*
G75*
G02*
X384965000Y-116900000I0J-100000D01*
G01*
X384965000Y-118175000D01*
G75*
G02*
X384865000Y-118275000I-100000J0D01*
G01*
X384665000Y-118275000D01*
G75*
G02*
X384565000Y-118175000I0J100000D01*
G01*
X384565000Y-116900000D01*
G75*
G02*
X384665000Y-116800000I100000J0D01*
G01*
G37*
G36*
G01*
X384015000Y-116800000D02*
X384215000Y-116800000D01*
G75*
G02*
X384315000Y-116900000I0J-100000D01*
G01*
X384315000Y-118175000D01*
G75*
G02*
X384215000Y-118275000I-100000J0D01*
G01*
X384015000Y-118275000D01*
G75*
G02*
X383915000Y-118175000I0J100000D01*
G01*
X383915000Y-116900000D01*
G75*
G02*
X384015000Y-116800000I100000J0D01*
G01*
G37*
G36*
G01*
X383365000Y-116800000D02*
X383565000Y-116800000D01*
G75*
G02*
X383665000Y-116900000I0J-100000D01*
G01*
X383665000Y-118175000D01*
G75*
G02*
X383565000Y-118275000I-100000J0D01*
G01*
X383365000Y-118275000D01*
G75*
G02*
X383265000Y-118175000I0J100000D01*
G01*
X383265000Y-116900000D01*
G75*
G02*
X383365000Y-116800000I100000J0D01*
G01*
G37*
G36*
G01*
X382715000Y-116800000D02*
X382915000Y-116800000D01*
G75*
G02*
X383015000Y-116900000I0J-100000D01*
G01*
X383015000Y-118175000D01*
G75*
G02*
X382915000Y-118275000I-100000J0D01*
G01*
X382715000Y-118275000D01*
G75*
G02*
X382615000Y-118175000I0J100000D01*
G01*
X382615000Y-116900000D01*
G75*
G02*
X382715000Y-116800000I100000J0D01*
G01*
G37*
G36*
G01*
X382065000Y-116800000D02*
X382265000Y-116800000D01*
G75*
G02*
X382365000Y-116900000I0J-100000D01*
G01*
X382365000Y-118175000D01*
G75*
G02*
X382265000Y-118275000I-100000J0D01*
G01*
X382065000Y-118275000D01*
G75*
G02*
X381965000Y-118175000I0J100000D01*
G01*
X381965000Y-116900000D01*
G75*
G02*
X382065000Y-116800000I100000J0D01*
G01*
G37*
G36*
G01*
X381415000Y-116800000D02*
X381615000Y-116800000D01*
G75*
G02*
X381715000Y-116900000I0J-100000D01*
G01*
X381715000Y-118175000D01*
G75*
G02*
X381615000Y-118275000I-100000J0D01*
G01*
X381415000Y-118275000D01*
G75*
G02*
X381315000Y-118175000I0J100000D01*
G01*
X381315000Y-116900000D01*
G75*
G02*
X381415000Y-116800000I100000J0D01*
G01*
G37*
G36*
G01*
X380765000Y-116800000D02*
X380965000Y-116800000D01*
G75*
G02*
X381065000Y-116900000I0J-100000D01*
G01*
X381065000Y-118175000D01*
G75*
G02*
X380965000Y-118275000I-100000J0D01*
G01*
X380765000Y-118275000D01*
G75*
G02*
X380665000Y-118175000I0J100000D01*
G01*
X380665000Y-116900000D01*
G75*
G02*
X380765000Y-116800000I100000J0D01*
G01*
G37*
%TD*%
%TO.C,U36*%
G36*
G01*
X360165000Y-122525000D02*
X360365000Y-122525000D01*
G75*
G02*
X360465000Y-122625000I0J-100000D01*
G01*
X360465000Y-123900000D01*
G75*
G02*
X360365000Y-124000000I-100000J0D01*
G01*
X360165000Y-124000000D01*
G75*
G02*
X360065000Y-123900000I0J100000D01*
G01*
X360065000Y-122625000D01*
G75*
G02*
X360165000Y-122525000I100000J0D01*
G01*
G37*
G36*
G01*
X360815000Y-122525000D02*
X361015000Y-122525000D01*
G75*
G02*
X361115000Y-122625000I0J-100000D01*
G01*
X361115000Y-123900000D01*
G75*
G02*
X361015000Y-124000000I-100000J0D01*
G01*
X360815000Y-124000000D01*
G75*
G02*
X360715000Y-123900000I0J100000D01*
G01*
X360715000Y-122625000D01*
G75*
G02*
X360815000Y-122525000I100000J0D01*
G01*
G37*
G36*
G01*
X361465000Y-122525000D02*
X361665000Y-122525000D01*
G75*
G02*
X361765000Y-122625000I0J-100000D01*
G01*
X361765000Y-123900000D01*
G75*
G02*
X361665000Y-124000000I-100000J0D01*
G01*
X361465000Y-124000000D01*
G75*
G02*
X361365000Y-123900000I0J100000D01*
G01*
X361365000Y-122625000D01*
G75*
G02*
X361465000Y-122525000I100000J0D01*
G01*
G37*
G36*
G01*
X362115000Y-122525000D02*
X362315000Y-122525000D01*
G75*
G02*
X362415000Y-122625000I0J-100000D01*
G01*
X362415000Y-123900000D01*
G75*
G02*
X362315000Y-124000000I-100000J0D01*
G01*
X362115000Y-124000000D01*
G75*
G02*
X362015000Y-123900000I0J100000D01*
G01*
X362015000Y-122625000D01*
G75*
G02*
X362115000Y-122525000I100000J0D01*
G01*
G37*
G36*
G01*
X362765000Y-122525000D02*
X362965000Y-122525000D01*
G75*
G02*
X363065000Y-122625000I0J-100000D01*
G01*
X363065000Y-123900000D01*
G75*
G02*
X362965000Y-124000000I-100000J0D01*
G01*
X362765000Y-124000000D01*
G75*
G02*
X362665000Y-123900000I0J100000D01*
G01*
X362665000Y-122625000D01*
G75*
G02*
X362765000Y-122525000I100000J0D01*
G01*
G37*
G36*
G01*
X363415000Y-122525000D02*
X363615000Y-122525000D01*
G75*
G02*
X363715000Y-122625000I0J-100000D01*
G01*
X363715000Y-123900000D01*
G75*
G02*
X363615000Y-124000000I-100000J0D01*
G01*
X363415000Y-124000000D01*
G75*
G02*
X363315000Y-123900000I0J100000D01*
G01*
X363315000Y-122625000D01*
G75*
G02*
X363415000Y-122525000I100000J0D01*
G01*
G37*
G36*
G01*
X364065000Y-122525000D02*
X364265000Y-122525000D01*
G75*
G02*
X364365000Y-122625000I0J-100000D01*
G01*
X364365000Y-123900000D01*
G75*
G02*
X364265000Y-124000000I-100000J0D01*
G01*
X364065000Y-124000000D01*
G75*
G02*
X363965000Y-123900000I0J100000D01*
G01*
X363965000Y-122625000D01*
G75*
G02*
X364065000Y-122525000I100000J0D01*
G01*
G37*
G36*
G01*
X364715000Y-122525000D02*
X364915000Y-122525000D01*
G75*
G02*
X365015000Y-122625000I0J-100000D01*
G01*
X365015000Y-123900000D01*
G75*
G02*
X364915000Y-124000000I-100000J0D01*
G01*
X364715000Y-124000000D01*
G75*
G02*
X364615000Y-123900000I0J100000D01*
G01*
X364615000Y-122625000D01*
G75*
G02*
X364715000Y-122525000I100000J0D01*
G01*
G37*
G36*
G01*
X364715000Y-116800000D02*
X364915000Y-116800000D01*
G75*
G02*
X365015000Y-116900000I0J-100000D01*
G01*
X365015000Y-118175000D01*
G75*
G02*
X364915000Y-118275000I-100000J0D01*
G01*
X364715000Y-118275000D01*
G75*
G02*
X364615000Y-118175000I0J100000D01*
G01*
X364615000Y-116900000D01*
G75*
G02*
X364715000Y-116800000I100000J0D01*
G01*
G37*
G36*
G01*
X364065000Y-116800000D02*
X364265000Y-116800000D01*
G75*
G02*
X364365000Y-116900000I0J-100000D01*
G01*
X364365000Y-118175000D01*
G75*
G02*
X364265000Y-118275000I-100000J0D01*
G01*
X364065000Y-118275000D01*
G75*
G02*
X363965000Y-118175000I0J100000D01*
G01*
X363965000Y-116900000D01*
G75*
G02*
X364065000Y-116800000I100000J0D01*
G01*
G37*
G36*
G01*
X363415000Y-116800000D02*
X363615000Y-116800000D01*
G75*
G02*
X363715000Y-116900000I0J-100000D01*
G01*
X363715000Y-118175000D01*
G75*
G02*
X363615000Y-118275000I-100000J0D01*
G01*
X363415000Y-118275000D01*
G75*
G02*
X363315000Y-118175000I0J100000D01*
G01*
X363315000Y-116900000D01*
G75*
G02*
X363415000Y-116800000I100000J0D01*
G01*
G37*
G36*
G01*
X362765000Y-116800000D02*
X362965000Y-116800000D01*
G75*
G02*
X363065000Y-116900000I0J-100000D01*
G01*
X363065000Y-118175000D01*
G75*
G02*
X362965000Y-118275000I-100000J0D01*
G01*
X362765000Y-118275000D01*
G75*
G02*
X362665000Y-118175000I0J100000D01*
G01*
X362665000Y-116900000D01*
G75*
G02*
X362765000Y-116800000I100000J0D01*
G01*
G37*
G36*
G01*
X362115000Y-116800000D02*
X362315000Y-116800000D01*
G75*
G02*
X362415000Y-116900000I0J-100000D01*
G01*
X362415000Y-118175000D01*
G75*
G02*
X362315000Y-118275000I-100000J0D01*
G01*
X362115000Y-118275000D01*
G75*
G02*
X362015000Y-118175000I0J100000D01*
G01*
X362015000Y-116900000D01*
G75*
G02*
X362115000Y-116800000I100000J0D01*
G01*
G37*
G36*
G01*
X361465000Y-116800000D02*
X361665000Y-116800000D01*
G75*
G02*
X361765000Y-116900000I0J-100000D01*
G01*
X361765000Y-118175000D01*
G75*
G02*
X361665000Y-118275000I-100000J0D01*
G01*
X361465000Y-118275000D01*
G75*
G02*
X361365000Y-118175000I0J100000D01*
G01*
X361365000Y-116900000D01*
G75*
G02*
X361465000Y-116800000I100000J0D01*
G01*
G37*
G36*
G01*
X360815000Y-116800000D02*
X361015000Y-116800000D01*
G75*
G02*
X361115000Y-116900000I0J-100000D01*
G01*
X361115000Y-118175000D01*
G75*
G02*
X361015000Y-118275000I-100000J0D01*
G01*
X360815000Y-118275000D01*
G75*
G02*
X360715000Y-118175000I0J100000D01*
G01*
X360715000Y-116900000D01*
G75*
G02*
X360815000Y-116800000I100000J0D01*
G01*
G37*
G36*
G01*
X360165000Y-116800000D02*
X360365000Y-116800000D01*
G75*
G02*
X360465000Y-116900000I0J-100000D01*
G01*
X360465000Y-118175000D01*
G75*
G02*
X360365000Y-118275000I-100000J0D01*
G01*
X360165000Y-118275000D01*
G75*
G02*
X360065000Y-118175000I0J100000D01*
G01*
X360065000Y-116900000D01*
G75*
G02*
X360165000Y-116800000I100000J0D01*
G01*
G37*
%TD*%
%TO.C,U35*%
G36*
G01*
X339565000Y-122525000D02*
X339765000Y-122525000D01*
G75*
G02*
X339865000Y-122625000I0J-100000D01*
G01*
X339865000Y-123900000D01*
G75*
G02*
X339765000Y-124000000I-100000J0D01*
G01*
X339565000Y-124000000D01*
G75*
G02*
X339465000Y-123900000I0J100000D01*
G01*
X339465000Y-122625000D01*
G75*
G02*
X339565000Y-122525000I100000J0D01*
G01*
G37*
G36*
G01*
X340215000Y-122525000D02*
X340415000Y-122525000D01*
G75*
G02*
X340515000Y-122625000I0J-100000D01*
G01*
X340515000Y-123900000D01*
G75*
G02*
X340415000Y-124000000I-100000J0D01*
G01*
X340215000Y-124000000D01*
G75*
G02*
X340115000Y-123900000I0J100000D01*
G01*
X340115000Y-122625000D01*
G75*
G02*
X340215000Y-122525000I100000J0D01*
G01*
G37*
G36*
G01*
X340865000Y-122525000D02*
X341065000Y-122525000D01*
G75*
G02*
X341165000Y-122625000I0J-100000D01*
G01*
X341165000Y-123900000D01*
G75*
G02*
X341065000Y-124000000I-100000J0D01*
G01*
X340865000Y-124000000D01*
G75*
G02*
X340765000Y-123900000I0J100000D01*
G01*
X340765000Y-122625000D01*
G75*
G02*
X340865000Y-122525000I100000J0D01*
G01*
G37*
G36*
G01*
X341515000Y-122525000D02*
X341715000Y-122525000D01*
G75*
G02*
X341815000Y-122625000I0J-100000D01*
G01*
X341815000Y-123900000D01*
G75*
G02*
X341715000Y-124000000I-100000J0D01*
G01*
X341515000Y-124000000D01*
G75*
G02*
X341415000Y-123900000I0J100000D01*
G01*
X341415000Y-122625000D01*
G75*
G02*
X341515000Y-122525000I100000J0D01*
G01*
G37*
G36*
G01*
X342165000Y-122525000D02*
X342365000Y-122525000D01*
G75*
G02*
X342465000Y-122625000I0J-100000D01*
G01*
X342465000Y-123900000D01*
G75*
G02*
X342365000Y-124000000I-100000J0D01*
G01*
X342165000Y-124000000D01*
G75*
G02*
X342065000Y-123900000I0J100000D01*
G01*
X342065000Y-122625000D01*
G75*
G02*
X342165000Y-122525000I100000J0D01*
G01*
G37*
G36*
G01*
X342815000Y-122525000D02*
X343015000Y-122525000D01*
G75*
G02*
X343115000Y-122625000I0J-100000D01*
G01*
X343115000Y-123900000D01*
G75*
G02*
X343015000Y-124000000I-100000J0D01*
G01*
X342815000Y-124000000D01*
G75*
G02*
X342715000Y-123900000I0J100000D01*
G01*
X342715000Y-122625000D01*
G75*
G02*
X342815000Y-122525000I100000J0D01*
G01*
G37*
G36*
G01*
X343465000Y-122525000D02*
X343665000Y-122525000D01*
G75*
G02*
X343765000Y-122625000I0J-100000D01*
G01*
X343765000Y-123900000D01*
G75*
G02*
X343665000Y-124000000I-100000J0D01*
G01*
X343465000Y-124000000D01*
G75*
G02*
X343365000Y-123900000I0J100000D01*
G01*
X343365000Y-122625000D01*
G75*
G02*
X343465000Y-122525000I100000J0D01*
G01*
G37*
G36*
G01*
X344115000Y-122525000D02*
X344315000Y-122525000D01*
G75*
G02*
X344415000Y-122625000I0J-100000D01*
G01*
X344415000Y-123900000D01*
G75*
G02*
X344315000Y-124000000I-100000J0D01*
G01*
X344115000Y-124000000D01*
G75*
G02*
X344015000Y-123900000I0J100000D01*
G01*
X344015000Y-122625000D01*
G75*
G02*
X344115000Y-122525000I100000J0D01*
G01*
G37*
G36*
G01*
X344115000Y-116800000D02*
X344315000Y-116800000D01*
G75*
G02*
X344415000Y-116900000I0J-100000D01*
G01*
X344415000Y-118175000D01*
G75*
G02*
X344315000Y-118275000I-100000J0D01*
G01*
X344115000Y-118275000D01*
G75*
G02*
X344015000Y-118175000I0J100000D01*
G01*
X344015000Y-116900000D01*
G75*
G02*
X344115000Y-116800000I100000J0D01*
G01*
G37*
G36*
G01*
X343465000Y-116800000D02*
X343665000Y-116800000D01*
G75*
G02*
X343765000Y-116900000I0J-100000D01*
G01*
X343765000Y-118175000D01*
G75*
G02*
X343665000Y-118275000I-100000J0D01*
G01*
X343465000Y-118275000D01*
G75*
G02*
X343365000Y-118175000I0J100000D01*
G01*
X343365000Y-116900000D01*
G75*
G02*
X343465000Y-116800000I100000J0D01*
G01*
G37*
G36*
G01*
X342815000Y-116800000D02*
X343015000Y-116800000D01*
G75*
G02*
X343115000Y-116900000I0J-100000D01*
G01*
X343115000Y-118175000D01*
G75*
G02*
X343015000Y-118275000I-100000J0D01*
G01*
X342815000Y-118275000D01*
G75*
G02*
X342715000Y-118175000I0J100000D01*
G01*
X342715000Y-116900000D01*
G75*
G02*
X342815000Y-116800000I100000J0D01*
G01*
G37*
G36*
G01*
X342165000Y-116800000D02*
X342365000Y-116800000D01*
G75*
G02*
X342465000Y-116900000I0J-100000D01*
G01*
X342465000Y-118175000D01*
G75*
G02*
X342365000Y-118275000I-100000J0D01*
G01*
X342165000Y-118275000D01*
G75*
G02*
X342065000Y-118175000I0J100000D01*
G01*
X342065000Y-116900000D01*
G75*
G02*
X342165000Y-116800000I100000J0D01*
G01*
G37*
G36*
G01*
X341515000Y-116800000D02*
X341715000Y-116800000D01*
G75*
G02*
X341815000Y-116900000I0J-100000D01*
G01*
X341815000Y-118175000D01*
G75*
G02*
X341715000Y-118275000I-100000J0D01*
G01*
X341515000Y-118275000D01*
G75*
G02*
X341415000Y-118175000I0J100000D01*
G01*
X341415000Y-116900000D01*
G75*
G02*
X341515000Y-116800000I100000J0D01*
G01*
G37*
G36*
G01*
X340865000Y-116800000D02*
X341065000Y-116800000D01*
G75*
G02*
X341165000Y-116900000I0J-100000D01*
G01*
X341165000Y-118175000D01*
G75*
G02*
X341065000Y-118275000I-100000J0D01*
G01*
X340865000Y-118275000D01*
G75*
G02*
X340765000Y-118175000I0J100000D01*
G01*
X340765000Y-116900000D01*
G75*
G02*
X340865000Y-116800000I100000J0D01*
G01*
G37*
G36*
G01*
X340215000Y-116800000D02*
X340415000Y-116800000D01*
G75*
G02*
X340515000Y-116900000I0J-100000D01*
G01*
X340515000Y-118175000D01*
G75*
G02*
X340415000Y-118275000I-100000J0D01*
G01*
X340215000Y-118275000D01*
G75*
G02*
X340115000Y-118175000I0J100000D01*
G01*
X340115000Y-116900000D01*
G75*
G02*
X340215000Y-116800000I100000J0D01*
G01*
G37*
G36*
G01*
X339565000Y-116800000D02*
X339765000Y-116800000D01*
G75*
G02*
X339865000Y-116900000I0J-100000D01*
G01*
X339865000Y-118175000D01*
G75*
G02*
X339765000Y-118275000I-100000J0D01*
G01*
X339565000Y-118275000D01*
G75*
G02*
X339465000Y-118175000I0J100000D01*
G01*
X339465000Y-116900000D01*
G75*
G02*
X339565000Y-116800000I100000J0D01*
G01*
G37*
%TD*%
%TO.C,U34*%
G36*
G01*
X318965000Y-122525000D02*
X319165000Y-122525000D01*
G75*
G02*
X319265000Y-122625000I0J-100000D01*
G01*
X319265000Y-123900000D01*
G75*
G02*
X319165000Y-124000000I-100000J0D01*
G01*
X318965000Y-124000000D01*
G75*
G02*
X318865000Y-123900000I0J100000D01*
G01*
X318865000Y-122625000D01*
G75*
G02*
X318965000Y-122525000I100000J0D01*
G01*
G37*
G36*
G01*
X319615000Y-122525000D02*
X319815000Y-122525000D01*
G75*
G02*
X319915000Y-122625000I0J-100000D01*
G01*
X319915000Y-123900000D01*
G75*
G02*
X319815000Y-124000000I-100000J0D01*
G01*
X319615000Y-124000000D01*
G75*
G02*
X319515000Y-123900000I0J100000D01*
G01*
X319515000Y-122625000D01*
G75*
G02*
X319615000Y-122525000I100000J0D01*
G01*
G37*
G36*
G01*
X320265000Y-122525000D02*
X320465000Y-122525000D01*
G75*
G02*
X320565000Y-122625000I0J-100000D01*
G01*
X320565000Y-123900000D01*
G75*
G02*
X320465000Y-124000000I-100000J0D01*
G01*
X320265000Y-124000000D01*
G75*
G02*
X320165000Y-123900000I0J100000D01*
G01*
X320165000Y-122625000D01*
G75*
G02*
X320265000Y-122525000I100000J0D01*
G01*
G37*
G36*
G01*
X320915000Y-122525000D02*
X321115000Y-122525000D01*
G75*
G02*
X321215000Y-122625000I0J-100000D01*
G01*
X321215000Y-123900000D01*
G75*
G02*
X321115000Y-124000000I-100000J0D01*
G01*
X320915000Y-124000000D01*
G75*
G02*
X320815000Y-123900000I0J100000D01*
G01*
X320815000Y-122625000D01*
G75*
G02*
X320915000Y-122525000I100000J0D01*
G01*
G37*
G36*
G01*
X321565000Y-122525000D02*
X321765000Y-122525000D01*
G75*
G02*
X321865000Y-122625000I0J-100000D01*
G01*
X321865000Y-123900000D01*
G75*
G02*
X321765000Y-124000000I-100000J0D01*
G01*
X321565000Y-124000000D01*
G75*
G02*
X321465000Y-123900000I0J100000D01*
G01*
X321465000Y-122625000D01*
G75*
G02*
X321565000Y-122525000I100000J0D01*
G01*
G37*
G36*
G01*
X322215000Y-122525000D02*
X322415000Y-122525000D01*
G75*
G02*
X322515000Y-122625000I0J-100000D01*
G01*
X322515000Y-123900000D01*
G75*
G02*
X322415000Y-124000000I-100000J0D01*
G01*
X322215000Y-124000000D01*
G75*
G02*
X322115000Y-123900000I0J100000D01*
G01*
X322115000Y-122625000D01*
G75*
G02*
X322215000Y-122525000I100000J0D01*
G01*
G37*
G36*
G01*
X322865000Y-122525000D02*
X323065000Y-122525000D01*
G75*
G02*
X323165000Y-122625000I0J-100000D01*
G01*
X323165000Y-123900000D01*
G75*
G02*
X323065000Y-124000000I-100000J0D01*
G01*
X322865000Y-124000000D01*
G75*
G02*
X322765000Y-123900000I0J100000D01*
G01*
X322765000Y-122625000D01*
G75*
G02*
X322865000Y-122525000I100000J0D01*
G01*
G37*
G36*
G01*
X323515000Y-122525000D02*
X323715000Y-122525000D01*
G75*
G02*
X323815000Y-122625000I0J-100000D01*
G01*
X323815000Y-123900000D01*
G75*
G02*
X323715000Y-124000000I-100000J0D01*
G01*
X323515000Y-124000000D01*
G75*
G02*
X323415000Y-123900000I0J100000D01*
G01*
X323415000Y-122625000D01*
G75*
G02*
X323515000Y-122525000I100000J0D01*
G01*
G37*
G36*
G01*
X323515000Y-116800000D02*
X323715000Y-116800000D01*
G75*
G02*
X323815000Y-116900000I0J-100000D01*
G01*
X323815000Y-118175000D01*
G75*
G02*
X323715000Y-118275000I-100000J0D01*
G01*
X323515000Y-118275000D01*
G75*
G02*
X323415000Y-118175000I0J100000D01*
G01*
X323415000Y-116900000D01*
G75*
G02*
X323515000Y-116800000I100000J0D01*
G01*
G37*
G36*
G01*
X322865000Y-116800000D02*
X323065000Y-116800000D01*
G75*
G02*
X323165000Y-116900000I0J-100000D01*
G01*
X323165000Y-118175000D01*
G75*
G02*
X323065000Y-118275000I-100000J0D01*
G01*
X322865000Y-118275000D01*
G75*
G02*
X322765000Y-118175000I0J100000D01*
G01*
X322765000Y-116900000D01*
G75*
G02*
X322865000Y-116800000I100000J0D01*
G01*
G37*
G36*
G01*
X322215000Y-116800000D02*
X322415000Y-116800000D01*
G75*
G02*
X322515000Y-116900000I0J-100000D01*
G01*
X322515000Y-118175000D01*
G75*
G02*
X322415000Y-118275000I-100000J0D01*
G01*
X322215000Y-118275000D01*
G75*
G02*
X322115000Y-118175000I0J100000D01*
G01*
X322115000Y-116900000D01*
G75*
G02*
X322215000Y-116800000I100000J0D01*
G01*
G37*
G36*
G01*
X321565000Y-116800000D02*
X321765000Y-116800000D01*
G75*
G02*
X321865000Y-116900000I0J-100000D01*
G01*
X321865000Y-118175000D01*
G75*
G02*
X321765000Y-118275000I-100000J0D01*
G01*
X321565000Y-118275000D01*
G75*
G02*
X321465000Y-118175000I0J100000D01*
G01*
X321465000Y-116900000D01*
G75*
G02*
X321565000Y-116800000I100000J0D01*
G01*
G37*
G36*
G01*
X320915000Y-116800000D02*
X321115000Y-116800000D01*
G75*
G02*
X321215000Y-116900000I0J-100000D01*
G01*
X321215000Y-118175000D01*
G75*
G02*
X321115000Y-118275000I-100000J0D01*
G01*
X320915000Y-118275000D01*
G75*
G02*
X320815000Y-118175000I0J100000D01*
G01*
X320815000Y-116900000D01*
G75*
G02*
X320915000Y-116800000I100000J0D01*
G01*
G37*
G36*
G01*
X320265000Y-116800000D02*
X320465000Y-116800000D01*
G75*
G02*
X320565000Y-116900000I0J-100000D01*
G01*
X320565000Y-118175000D01*
G75*
G02*
X320465000Y-118275000I-100000J0D01*
G01*
X320265000Y-118275000D01*
G75*
G02*
X320165000Y-118175000I0J100000D01*
G01*
X320165000Y-116900000D01*
G75*
G02*
X320265000Y-116800000I100000J0D01*
G01*
G37*
G36*
G01*
X319615000Y-116800000D02*
X319815000Y-116800000D01*
G75*
G02*
X319915000Y-116900000I0J-100000D01*
G01*
X319915000Y-118175000D01*
G75*
G02*
X319815000Y-118275000I-100000J0D01*
G01*
X319615000Y-118275000D01*
G75*
G02*
X319515000Y-118175000I0J100000D01*
G01*
X319515000Y-116900000D01*
G75*
G02*
X319615000Y-116800000I100000J0D01*
G01*
G37*
G36*
G01*
X318965000Y-116800000D02*
X319165000Y-116800000D01*
G75*
G02*
X319265000Y-116900000I0J-100000D01*
G01*
X319265000Y-118175000D01*
G75*
G02*
X319165000Y-118275000I-100000J0D01*
G01*
X318965000Y-118275000D01*
G75*
G02*
X318865000Y-118175000I0J100000D01*
G01*
X318865000Y-116900000D01*
G75*
G02*
X318965000Y-116800000I100000J0D01*
G01*
G37*
%TD*%
%TO.C,U33*%
G36*
G01*
X298365000Y-122525000D02*
X298565000Y-122525000D01*
G75*
G02*
X298665000Y-122625000I0J-100000D01*
G01*
X298665000Y-123900000D01*
G75*
G02*
X298565000Y-124000000I-100000J0D01*
G01*
X298365000Y-124000000D01*
G75*
G02*
X298265000Y-123900000I0J100000D01*
G01*
X298265000Y-122625000D01*
G75*
G02*
X298365000Y-122525000I100000J0D01*
G01*
G37*
G36*
G01*
X299015000Y-122525000D02*
X299215000Y-122525000D01*
G75*
G02*
X299315000Y-122625000I0J-100000D01*
G01*
X299315000Y-123900000D01*
G75*
G02*
X299215000Y-124000000I-100000J0D01*
G01*
X299015000Y-124000000D01*
G75*
G02*
X298915000Y-123900000I0J100000D01*
G01*
X298915000Y-122625000D01*
G75*
G02*
X299015000Y-122525000I100000J0D01*
G01*
G37*
G36*
G01*
X299665000Y-122525000D02*
X299865000Y-122525000D01*
G75*
G02*
X299965000Y-122625000I0J-100000D01*
G01*
X299965000Y-123900000D01*
G75*
G02*
X299865000Y-124000000I-100000J0D01*
G01*
X299665000Y-124000000D01*
G75*
G02*
X299565000Y-123900000I0J100000D01*
G01*
X299565000Y-122625000D01*
G75*
G02*
X299665000Y-122525000I100000J0D01*
G01*
G37*
G36*
G01*
X300315000Y-122525000D02*
X300515000Y-122525000D01*
G75*
G02*
X300615000Y-122625000I0J-100000D01*
G01*
X300615000Y-123900000D01*
G75*
G02*
X300515000Y-124000000I-100000J0D01*
G01*
X300315000Y-124000000D01*
G75*
G02*
X300215000Y-123900000I0J100000D01*
G01*
X300215000Y-122625000D01*
G75*
G02*
X300315000Y-122525000I100000J0D01*
G01*
G37*
G36*
G01*
X300965000Y-122525000D02*
X301165000Y-122525000D01*
G75*
G02*
X301265000Y-122625000I0J-100000D01*
G01*
X301265000Y-123900000D01*
G75*
G02*
X301165000Y-124000000I-100000J0D01*
G01*
X300965000Y-124000000D01*
G75*
G02*
X300865000Y-123900000I0J100000D01*
G01*
X300865000Y-122625000D01*
G75*
G02*
X300965000Y-122525000I100000J0D01*
G01*
G37*
G36*
G01*
X301615000Y-122525000D02*
X301815000Y-122525000D01*
G75*
G02*
X301915000Y-122625000I0J-100000D01*
G01*
X301915000Y-123900000D01*
G75*
G02*
X301815000Y-124000000I-100000J0D01*
G01*
X301615000Y-124000000D01*
G75*
G02*
X301515000Y-123900000I0J100000D01*
G01*
X301515000Y-122625000D01*
G75*
G02*
X301615000Y-122525000I100000J0D01*
G01*
G37*
G36*
G01*
X302265000Y-122525000D02*
X302465000Y-122525000D01*
G75*
G02*
X302565000Y-122625000I0J-100000D01*
G01*
X302565000Y-123900000D01*
G75*
G02*
X302465000Y-124000000I-100000J0D01*
G01*
X302265000Y-124000000D01*
G75*
G02*
X302165000Y-123900000I0J100000D01*
G01*
X302165000Y-122625000D01*
G75*
G02*
X302265000Y-122525000I100000J0D01*
G01*
G37*
G36*
G01*
X302915000Y-122525000D02*
X303115000Y-122525000D01*
G75*
G02*
X303215000Y-122625000I0J-100000D01*
G01*
X303215000Y-123900000D01*
G75*
G02*
X303115000Y-124000000I-100000J0D01*
G01*
X302915000Y-124000000D01*
G75*
G02*
X302815000Y-123900000I0J100000D01*
G01*
X302815000Y-122625000D01*
G75*
G02*
X302915000Y-122525000I100000J0D01*
G01*
G37*
G36*
G01*
X302915000Y-116800000D02*
X303115000Y-116800000D01*
G75*
G02*
X303215000Y-116900000I0J-100000D01*
G01*
X303215000Y-118175000D01*
G75*
G02*
X303115000Y-118275000I-100000J0D01*
G01*
X302915000Y-118275000D01*
G75*
G02*
X302815000Y-118175000I0J100000D01*
G01*
X302815000Y-116900000D01*
G75*
G02*
X302915000Y-116800000I100000J0D01*
G01*
G37*
G36*
G01*
X302265000Y-116800000D02*
X302465000Y-116800000D01*
G75*
G02*
X302565000Y-116900000I0J-100000D01*
G01*
X302565000Y-118175000D01*
G75*
G02*
X302465000Y-118275000I-100000J0D01*
G01*
X302265000Y-118275000D01*
G75*
G02*
X302165000Y-118175000I0J100000D01*
G01*
X302165000Y-116900000D01*
G75*
G02*
X302265000Y-116800000I100000J0D01*
G01*
G37*
G36*
G01*
X301615000Y-116800000D02*
X301815000Y-116800000D01*
G75*
G02*
X301915000Y-116900000I0J-100000D01*
G01*
X301915000Y-118175000D01*
G75*
G02*
X301815000Y-118275000I-100000J0D01*
G01*
X301615000Y-118275000D01*
G75*
G02*
X301515000Y-118175000I0J100000D01*
G01*
X301515000Y-116900000D01*
G75*
G02*
X301615000Y-116800000I100000J0D01*
G01*
G37*
G36*
G01*
X300965000Y-116800000D02*
X301165000Y-116800000D01*
G75*
G02*
X301265000Y-116900000I0J-100000D01*
G01*
X301265000Y-118175000D01*
G75*
G02*
X301165000Y-118275000I-100000J0D01*
G01*
X300965000Y-118275000D01*
G75*
G02*
X300865000Y-118175000I0J100000D01*
G01*
X300865000Y-116900000D01*
G75*
G02*
X300965000Y-116800000I100000J0D01*
G01*
G37*
G36*
G01*
X300315000Y-116800000D02*
X300515000Y-116800000D01*
G75*
G02*
X300615000Y-116900000I0J-100000D01*
G01*
X300615000Y-118175000D01*
G75*
G02*
X300515000Y-118275000I-100000J0D01*
G01*
X300315000Y-118275000D01*
G75*
G02*
X300215000Y-118175000I0J100000D01*
G01*
X300215000Y-116900000D01*
G75*
G02*
X300315000Y-116800000I100000J0D01*
G01*
G37*
G36*
G01*
X299665000Y-116800000D02*
X299865000Y-116800000D01*
G75*
G02*
X299965000Y-116900000I0J-100000D01*
G01*
X299965000Y-118175000D01*
G75*
G02*
X299865000Y-118275000I-100000J0D01*
G01*
X299665000Y-118275000D01*
G75*
G02*
X299565000Y-118175000I0J100000D01*
G01*
X299565000Y-116900000D01*
G75*
G02*
X299665000Y-116800000I100000J0D01*
G01*
G37*
G36*
G01*
X299015000Y-116800000D02*
X299215000Y-116800000D01*
G75*
G02*
X299315000Y-116900000I0J-100000D01*
G01*
X299315000Y-118175000D01*
G75*
G02*
X299215000Y-118275000I-100000J0D01*
G01*
X299015000Y-118275000D01*
G75*
G02*
X298915000Y-118175000I0J100000D01*
G01*
X298915000Y-116900000D01*
G75*
G02*
X299015000Y-116800000I100000J0D01*
G01*
G37*
G36*
G01*
X298365000Y-116800000D02*
X298565000Y-116800000D01*
G75*
G02*
X298665000Y-116900000I0J-100000D01*
G01*
X298665000Y-118175000D01*
G75*
G02*
X298565000Y-118275000I-100000J0D01*
G01*
X298365000Y-118275000D01*
G75*
G02*
X298265000Y-118175000I0J100000D01*
G01*
X298265000Y-116900000D01*
G75*
G02*
X298365000Y-116800000I100000J0D01*
G01*
G37*
%TD*%
%TO.C,U32*%
G36*
G01*
X277765000Y-122525000D02*
X277965000Y-122525000D01*
G75*
G02*
X278065000Y-122625000I0J-100000D01*
G01*
X278065000Y-123900000D01*
G75*
G02*
X277965000Y-124000000I-100000J0D01*
G01*
X277765000Y-124000000D01*
G75*
G02*
X277665000Y-123900000I0J100000D01*
G01*
X277665000Y-122625000D01*
G75*
G02*
X277765000Y-122525000I100000J0D01*
G01*
G37*
G36*
G01*
X278415000Y-122525000D02*
X278615000Y-122525000D01*
G75*
G02*
X278715000Y-122625000I0J-100000D01*
G01*
X278715000Y-123900000D01*
G75*
G02*
X278615000Y-124000000I-100000J0D01*
G01*
X278415000Y-124000000D01*
G75*
G02*
X278315000Y-123900000I0J100000D01*
G01*
X278315000Y-122625000D01*
G75*
G02*
X278415000Y-122525000I100000J0D01*
G01*
G37*
G36*
G01*
X279065000Y-122525000D02*
X279265000Y-122525000D01*
G75*
G02*
X279365000Y-122625000I0J-100000D01*
G01*
X279365000Y-123900000D01*
G75*
G02*
X279265000Y-124000000I-100000J0D01*
G01*
X279065000Y-124000000D01*
G75*
G02*
X278965000Y-123900000I0J100000D01*
G01*
X278965000Y-122625000D01*
G75*
G02*
X279065000Y-122525000I100000J0D01*
G01*
G37*
G36*
G01*
X279715000Y-122525000D02*
X279915000Y-122525000D01*
G75*
G02*
X280015000Y-122625000I0J-100000D01*
G01*
X280015000Y-123900000D01*
G75*
G02*
X279915000Y-124000000I-100000J0D01*
G01*
X279715000Y-124000000D01*
G75*
G02*
X279615000Y-123900000I0J100000D01*
G01*
X279615000Y-122625000D01*
G75*
G02*
X279715000Y-122525000I100000J0D01*
G01*
G37*
G36*
G01*
X280365000Y-122525000D02*
X280565000Y-122525000D01*
G75*
G02*
X280665000Y-122625000I0J-100000D01*
G01*
X280665000Y-123900000D01*
G75*
G02*
X280565000Y-124000000I-100000J0D01*
G01*
X280365000Y-124000000D01*
G75*
G02*
X280265000Y-123900000I0J100000D01*
G01*
X280265000Y-122625000D01*
G75*
G02*
X280365000Y-122525000I100000J0D01*
G01*
G37*
G36*
G01*
X281015000Y-122525000D02*
X281215000Y-122525000D01*
G75*
G02*
X281315000Y-122625000I0J-100000D01*
G01*
X281315000Y-123900000D01*
G75*
G02*
X281215000Y-124000000I-100000J0D01*
G01*
X281015000Y-124000000D01*
G75*
G02*
X280915000Y-123900000I0J100000D01*
G01*
X280915000Y-122625000D01*
G75*
G02*
X281015000Y-122525000I100000J0D01*
G01*
G37*
G36*
G01*
X281665000Y-122525000D02*
X281865000Y-122525000D01*
G75*
G02*
X281965000Y-122625000I0J-100000D01*
G01*
X281965000Y-123900000D01*
G75*
G02*
X281865000Y-124000000I-100000J0D01*
G01*
X281665000Y-124000000D01*
G75*
G02*
X281565000Y-123900000I0J100000D01*
G01*
X281565000Y-122625000D01*
G75*
G02*
X281665000Y-122525000I100000J0D01*
G01*
G37*
G36*
G01*
X282315000Y-122525000D02*
X282515000Y-122525000D01*
G75*
G02*
X282615000Y-122625000I0J-100000D01*
G01*
X282615000Y-123900000D01*
G75*
G02*
X282515000Y-124000000I-100000J0D01*
G01*
X282315000Y-124000000D01*
G75*
G02*
X282215000Y-123900000I0J100000D01*
G01*
X282215000Y-122625000D01*
G75*
G02*
X282315000Y-122525000I100000J0D01*
G01*
G37*
G36*
G01*
X282315000Y-116800000D02*
X282515000Y-116800000D01*
G75*
G02*
X282615000Y-116900000I0J-100000D01*
G01*
X282615000Y-118175000D01*
G75*
G02*
X282515000Y-118275000I-100000J0D01*
G01*
X282315000Y-118275000D01*
G75*
G02*
X282215000Y-118175000I0J100000D01*
G01*
X282215000Y-116900000D01*
G75*
G02*
X282315000Y-116800000I100000J0D01*
G01*
G37*
G36*
G01*
X281665000Y-116800000D02*
X281865000Y-116800000D01*
G75*
G02*
X281965000Y-116900000I0J-100000D01*
G01*
X281965000Y-118175000D01*
G75*
G02*
X281865000Y-118275000I-100000J0D01*
G01*
X281665000Y-118275000D01*
G75*
G02*
X281565000Y-118175000I0J100000D01*
G01*
X281565000Y-116900000D01*
G75*
G02*
X281665000Y-116800000I100000J0D01*
G01*
G37*
G36*
G01*
X281015000Y-116800000D02*
X281215000Y-116800000D01*
G75*
G02*
X281315000Y-116900000I0J-100000D01*
G01*
X281315000Y-118175000D01*
G75*
G02*
X281215000Y-118275000I-100000J0D01*
G01*
X281015000Y-118275000D01*
G75*
G02*
X280915000Y-118175000I0J100000D01*
G01*
X280915000Y-116900000D01*
G75*
G02*
X281015000Y-116800000I100000J0D01*
G01*
G37*
G36*
G01*
X280365000Y-116800000D02*
X280565000Y-116800000D01*
G75*
G02*
X280665000Y-116900000I0J-100000D01*
G01*
X280665000Y-118175000D01*
G75*
G02*
X280565000Y-118275000I-100000J0D01*
G01*
X280365000Y-118275000D01*
G75*
G02*
X280265000Y-118175000I0J100000D01*
G01*
X280265000Y-116900000D01*
G75*
G02*
X280365000Y-116800000I100000J0D01*
G01*
G37*
G36*
G01*
X279715000Y-116800000D02*
X279915000Y-116800000D01*
G75*
G02*
X280015000Y-116900000I0J-100000D01*
G01*
X280015000Y-118175000D01*
G75*
G02*
X279915000Y-118275000I-100000J0D01*
G01*
X279715000Y-118275000D01*
G75*
G02*
X279615000Y-118175000I0J100000D01*
G01*
X279615000Y-116900000D01*
G75*
G02*
X279715000Y-116800000I100000J0D01*
G01*
G37*
G36*
G01*
X279065000Y-116800000D02*
X279265000Y-116800000D01*
G75*
G02*
X279365000Y-116900000I0J-100000D01*
G01*
X279365000Y-118175000D01*
G75*
G02*
X279265000Y-118275000I-100000J0D01*
G01*
X279065000Y-118275000D01*
G75*
G02*
X278965000Y-118175000I0J100000D01*
G01*
X278965000Y-116900000D01*
G75*
G02*
X279065000Y-116800000I100000J0D01*
G01*
G37*
G36*
G01*
X278415000Y-116800000D02*
X278615000Y-116800000D01*
G75*
G02*
X278715000Y-116900000I0J-100000D01*
G01*
X278715000Y-118175000D01*
G75*
G02*
X278615000Y-118275000I-100000J0D01*
G01*
X278415000Y-118275000D01*
G75*
G02*
X278315000Y-118175000I0J100000D01*
G01*
X278315000Y-116900000D01*
G75*
G02*
X278415000Y-116800000I100000J0D01*
G01*
G37*
G36*
G01*
X277765000Y-116800000D02*
X277965000Y-116800000D01*
G75*
G02*
X278065000Y-116900000I0J-100000D01*
G01*
X278065000Y-118175000D01*
G75*
G02*
X277965000Y-118275000I-100000J0D01*
G01*
X277765000Y-118275000D01*
G75*
G02*
X277665000Y-118175000I0J100000D01*
G01*
X277665000Y-116900000D01*
G75*
G02*
X277765000Y-116800000I100000J0D01*
G01*
G37*
%TD*%
%TO.C,U31*%
G36*
G01*
X257165000Y-122525000D02*
X257365000Y-122525000D01*
G75*
G02*
X257465000Y-122625000I0J-100000D01*
G01*
X257465000Y-123900000D01*
G75*
G02*
X257365000Y-124000000I-100000J0D01*
G01*
X257165000Y-124000000D01*
G75*
G02*
X257065000Y-123900000I0J100000D01*
G01*
X257065000Y-122625000D01*
G75*
G02*
X257165000Y-122525000I100000J0D01*
G01*
G37*
G36*
G01*
X257815000Y-122525000D02*
X258015000Y-122525000D01*
G75*
G02*
X258115000Y-122625000I0J-100000D01*
G01*
X258115000Y-123900000D01*
G75*
G02*
X258015000Y-124000000I-100000J0D01*
G01*
X257815000Y-124000000D01*
G75*
G02*
X257715000Y-123900000I0J100000D01*
G01*
X257715000Y-122625000D01*
G75*
G02*
X257815000Y-122525000I100000J0D01*
G01*
G37*
G36*
G01*
X258465000Y-122525000D02*
X258665000Y-122525000D01*
G75*
G02*
X258765000Y-122625000I0J-100000D01*
G01*
X258765000Y-123900000D01*
G75*
G02*
X258665000Y-124000000I-100000J0D01*
G01*
X258465000Y-124000000D01*
G75*
G02*
X258365000Y-123900000I0J100000D01*
G01*
X258365000Y-122625000D01*
G75*
G02*
X258465000Y-122525000I100000J0D01*
G01*
G37*
G36*
G01*
X259115000Y-122525000D02*
X259315000Y-122525000D01*
G75*
G02*
X259415000Y-122625000I0J-100000D01*
G01*
X259415000Y-123900000D01*
G75*
G02*
X259315000Y-124000000I-100000J0D01*
G01*
X259115000Y-124000000D01*
G75*
G02*
X259015000Y-123900000I0J100000D01*
G01*
X259015000Y-122625000D01*
G75*
G02*
X259115000Y-122525000I100000J0D01*
G01*
G37*
G36*
G01*
X259765000Y-122525000D02*
X259965000Y-122525000D01*
G75*
G02*
X260065000Y-122625000I0J-100000D01*
G01*
X260065000Y-123900000D01*
G75*
G02*
X259965000Y-124000000I-100000J0D01*
G01*
X259765000Y-124000000D01*
G75*
G02*
X259665000Y-123900000I0J100000D01*
G01*
X259665000Y-122625000D01*
G75*
G02*
X259765000Y-122525000I100000J0D01*
G01*
G37*
G36*
G01*
X260415000Y-122525000D02*
X260615000Y-122525000D01*
G75*
G02*
X260715000Y-122625000I0J-100000D01*
G01*
X260715000Y-123900000D01*
G75*
G02*
X260615000Y-124000000I-100000J0D01*
G01*
X260415000Y-124000000D01*
G75*
G02*
X260315000Y-123900000I0J100000D01*
G01*
X260315000Y-122625000D01*
G75*
G02*
X260415000Y-122525000I100000J0D01*
G01*
G37*
G36*
G01*
X261065000Y-122525000D02*
X261265000Y-122525000D01*
G75*
G02*
X261365000Y-122625000I0J-100000D01*
G01*
X261365000Y-123900000D01*
G75*
G02*
X261265000Y-124000000I-100000J0D01*
G01*
X261065000Y-124000000D01*
G75*
G02*
X260965000Y-123900000I0J100000D01*
G01*
X260965000Y-122625000D01*
G75*
G02*
X261065000Y-122525000I100000J0D01*
G01*
G37*
G36*
G01*
X261715000Y-122525000D02*
X261915000Y-122525000D01*
G75*
G02*
X262015000Y-122625000I0J-100000D01*
G01*
X262015000Y-123900000D01*
G75*
G02*
X261915000Y-124000000I-100000J0D01*
G01*
X261715000Y-124000000D01*
G75*
G02*
X261615000Y-123900000I0J100000D01*
G01*
X261615000Y-122625000D01*
G75*
G02*
X261715000Y-122525000I100000J0D01*
G01*
G37*
G36*
G01*
X261715000Y-116800000D02*
X261915000Y-116800000D01*
G75*
G02*
X262015000Y-116900000I0J-100000D01*
G01*
X262015000Y-118175000D01*
G75*
G02*
X261915000Y-118275000I-100000J0D01*
G01*
X261715000Y-118275000D01*
G75*
G02*
X261615000Y-118175000I0J100000D01*
G01*
X261615000Y-116900000D01*
G75*
G02*
X261715000Y-116800000I100000J0D01*
G01*
G37*
G36*
G01*
X261065000Y-116800000D02*
X261265000Y-116800000D01*
G75*
G02*
X261365000Y-116900000I0J-100000D01*
G01*
X261365000Y-118175000D01*
G75*
G02*
X261265000Y-118275000I-100000J0D01*
G01*
X261065000Y-118275000D01*
G75*
G02*
X260965000Y-118175000I0J100000D01*
G01*
X260965000Y-116900000D01*
G75*
G02*
X261065000Y-116800000I100000J0D01*
G01*
G37*
G36*
G01*
X260415000Y-116800000D02*
X260615000Y-116800000D01*
G75*
G02*
X260715000Y-116900000I0J-100000D01*
G01*
X260715000Y-118175000D01*
G75*
G02*
X260615000Y-118275000I-100000J0D01*
G01*
X260415000Y-118275000D01*
G75*
G02*
X260315000Y-118175000I0J100000D01*
G01*
X260315000Y-116900000D01*
G75*
G02*
X260415000Y-116800000I100000J0D01*
G01*
G37*
G36*
G01*
X259765000Y-116800000D02*
X259965000Y-116800000D01*
G75*
G02*
X260065000Y-116900000I0J-100000D01*
G01*
X260065000Y-118175000D01*
G75*
G02*
X259965000Y-118275000I-100000J0D01*
G01*
X259765000Y-118275000D01*
G75*
G02*
X259665000Y-118175000I0J100000D01*
G01*
X259665000Y-116900000D01*
G75*
G02*
X259765000Y-116800000I100000J0D01*
G01*
G37*
G36*
G01*
X259115000Y-116800000D02*
X259315000Y-116800000D01*
G75*
G02*
X259415000Y-116900000I0J-100000D01*
G01*
X259415000Y-118175000D01*
G75*
G02*
X259315000Y-118275000I-100000J0D01*
G01*
X259115000Y-118275000D01*
G75*
G02*
X259015000Y-118175000I0J100000D01*
G01*
X259015000Y-116900000D01*
G75*
G02*
X259115000Y-116800000I100000J0D01*
G01*
G37*
G36*
G01*
X258465000Y-116800000D02*
X258665000Y-116800000D01*
G75*
G02*
X258765000Y-116900000I0J-100000D01*
G01*
X258765000Y-118175000D01*
G75*
G02*
X258665000Y-118275000I-100000J0D01*
G01*
X258465000Y-118275000D01*
G75*
G02*
X258365000Y-118175000I0J100000D01*
G01*
X258365000Y-116900000D01*
G75*
G02*
X258465000Y-116800000I100000J0D01*
G01*
G37*
G36*
G01*
X257815000Y-116800000D02*
X258015000Y-116800000D01*
G75*
G02*
X258115000Y-116900000I0J-100000D01*
G01*
X258115000Y-118175000D01*
G75*
G02*
X258015000Y-118275000I-100000J0D01*
G01*
X257815000Y-118275000D01*
G75*
G02*
X257715000Y-118175000I0J100000D01*
G01*
X257715000Y-116900000D01*
G75*
G02*
X257815000Y-116800000I100000J0D01*
G01*
G37*
G36*
G01*
X257165000Y-116800000D02*
X257365000Y-116800000D01*
G75*
G02*
X257465000Y-116900000I0J-100000D01*
G01*
X257465000Y-118175000D01*
G75*
G02*
X257365000Y-118275000I-100000J0D01*
G01*
X257165000Y-118275000D01*
G75*
G02*
X257065000Y-118175000I0J100000D01*
G01*
X257065000Y-116900000D01*
G75*
G02*
X257165000Y-116800000I100000J0D01*
G01*
G37*
%TD*%
%TO.C,U30*%
G36*
G01*
X236565000Y-122525000D02*
X236765000Y-122525000D01*
G75*
G02*
X236865000Y-122625000I0J-100000D01*
G01*
X236865000Y-123900000D01*
G75*
G02*
X236765000Y-124000000I-100000J0D01*
G01*
X236565000Y-124000000D01*
G75*
G02*
X236465000Y-123900000I0J100000D01*
G01*
X236465000Y-122625000D01*
G75*
G02*
X236565000Y-122525000I100000J0D01*
G01*
G37*
G36*
G01*
X237215000Y-122525000D02*
X237415000Y-122525000D01*
G75*
G02*
X237515000Y-122625000I0J-100000D01*
G01*
X237515000Y-123900000D01*
G75*
G02*
X237415000Y-124000000I-100000J0D01*
G01*
X237215000Y-124000000D01*
G75*
G02*
X237115000Y-123900000I0J100000D01*
G01*
X237115000Y-122625000D01*
G75*
G02*
X237215000Y-122525000I100000J0D01*
G01*
G37*
G36*
G01*
X237865000Y-122525000D02*
X238065000Y-122525000D01*
G75*
G02*
X238165000Y-122625000I0J-100000D01*
G01*
X238165000Y-123900000D01*
G75*
G02*
X238065000Y-124000000I-100000J0D01*
G01*
X237865000Y-124000000D01*
G75*
G02*
X237765000Y-123900000I0J100000D01*
G01*
X237765000Y-122625000D01*
G75*
G02*
X237865000Y-122525000I100000J0D01*
G01*
G37*
G36*
G01*
X238515000Y-122525000D02*
X238715000Y-122525000D01*
G75*
G02*
X238815000Y-122625000I0J-100000D01*
G01*
X238815000Y-123900000D01*
G75*
G02*
X238715000Y-124000000I-100000J0D01*
G01*
X238515000Y-124000000D01*
G75*
G02*
X238415000Y-123900000I0J100000D01*
G01*
X238415000Y-122625000D01*
G75*
G02*
X238515000Y-122525000I100000J0D01*
G01*
G37*
G36*
G01*
X239165000Y-122525000D02*
X239365000Y-122525000D01*
G75*
G02*
X239465000Y-122625000I0J-100000D01*
G01*
X239465000Y-123900000D01*
G75*
G02*
X239365000Y-124000000I-100000J0D01*
G01*
X239165000Y-124000000D01*
G75*
G02*
X239065000Y-123900000I0J100000D01*
G01*
X239065000Y-122625000D01*
G75*
G02*
X239165000Y-122525000I100000J0D01*
G01*
G37*
G36*
G01*
X239815000Y-122525000D02*
X240015000Y-122525000D01*
G75*
G02*
X240115000Y-122625000I0J-100000D01*
G01*
X240115000Y-123900000D01*
G75*
G02*
X240015000Y-124000000I-100000J0D01*
G01*
X239815000Y-124000000D01*
G75*
G02*
X239715000Y-123900000I0J100000D01*
G01*
X239715000Y-122625000D01*
G75*
G02*
X239815000Y-122525000I100000J0D01*
G01*
G37*
G36*
G01*
X240465000Y-122525000D02*
X240665000Y-122525000D01*
G75*
G02*
X240765000Y-122625000I0J-100000D01*
G01*
X240765000Y-123900000D01*
G75*
G02*
X240665000Y-124000000I-100000J0D01*
G01*
X240465000Y-124000000D01*
G75*
G02*
X240365000Y-123900000I0J100000D01*
G01*
X240365000Y-122625000D01*
G75*
G02*
X240465000Y-122525000I100000J0D01*
G01*
G37*
G36*
G01*
X241115000Y-122525000D02*
X241315000Y-122525000D01*
G75*
G02*
X241415000Y-122625000I0J-100000D01*
G01*
X241415000Y-123900000D01*
G75*
G02*
X241315000Y-124000000I-100000J0D01*
G01*
X241115000Y-124000000D01*
G75*
G02*
X241015000Y-123900000I0J100000D01*
G01*
X241015000Y-122625000D01*
G75*
G02*
X241115000Y-122525000I100000J0D01*
G01*
G37*
G36*
G01*
X241115000Y-116800000D02*
X241315000Y-116800000D01*
G75*
G02*
X241415000Y-116900000I0J-100000D01*
G01*
X241415000Y-118175000D01*
G75*
G02*
X241315000Y-118275000I-100000J0D01*
G01*
X241115000Y-118275000D01*
G75*
G02*
X241015000Y-118175000I0J100000D01*
G01*
X241015000Y-116900000D01*
G75*
G02*
X241115000Y-116800000I100000J0D01*
G01*
G37*
G36*
G01*
X240465000Y-116800000D02*
X240665000Y-116800000D01*
G75*
G02*
X240765000Y-116900000I0J-100000D01*
G01*
X240765000Y-118175000D01*
G75*
G02*
X240665000Y-118275000I-100000J0D01*
G01*
X240465000Y-118275000D01*
G75*
G02*
X240365000Y-118175000I0J100000D01*
G01*
X240365000Y-116900000D01*
G75*
G02*
X240465000Y-116800000I100000J0D01*
G01*
G37*
G36*
G01*
X239815000Y-116800000D02*
X240015000Y-116800000D01*
G75*
G02*
X240115000Y-116900000I0J-100000D01*
G01*
X240115000Y-118175000D01*
G75*
G02*
X240015000Y-118275000I-100000J0D01*
G01*
X239815000Y-118275000D01*
G75*
G02*
X239715000Y-118175000I0J100000D01*
G01*
X239715000Y-116900000D01*
G75*
G02*
X239815000Y-116800000I100000J0D01*
G01*
G37*
G36*
G01*
X239165000Y-116800000D02*
X239365000Y-116800000D01*
G75*
G02*
X239465000Y-116900000I0J-100000D01*
G01*
X239465000Y-118175000D01*
G75*
G02*
X239365000Y-118275000I-100000J0D01*
G01*
X239165000Y-118275000D01*
G75*
G02*
X239065000Y-118175000I0J100000D01*
G01*
X239065000Y-116900000D01*
G75*
G02*
X239165000Y-116800000I100000J0D01*
G01*
G37*
G36*
G01*
X238515000Y-116800000D02*
X238715000Y-116800000D01*
G75*
G02*
X238815000Y-116900000I0J-100000D01*
G01*
X238815000Y-118175000D01*
G75*
G02*
X238715000Y-118275000I-100000J0D01*
G01*
X238515000Y-118275000D01*
G75*
G02*
X238415000Y-118175000I0J100000D01*
G01*
X238415000Y-116900000D01*
G75*
G02*
X238515000Y-116800000I100000J0D01*
G01*
G37*
G36*
G01*
X237865000Y-116800000D02*
X238065000Y-116800000D01*
G75*
G02*
X238165000Y-116900000I0J-100000D01*
G01*
X238165000Y-118175000D01*
G75*
G02*
X238065000Y-118275000I-100000J0D01*
G01*
X237865000Y-118275000D01*
G75*
G02*
X237765000Y-118175000I0J100000D01*
G01*
X237765000Y-116900000D01*
G75*
G02*
X237865000Y-116800000I100000J0D01*
G01*
G37*
G36*
G01*
X237215000Y-116800000D02*
X237415000Y-116800000D01*
G75*
G02*
X237515000Y-116900000I0J-100000D01*
G01*
X237515000Y-118175000D01*
G75*
G02*
X237415000Y-118275000I-100000J0D01*
G01*
X237215000Y-118275000D01*
G75*
G02*
X237115000Y-118175000I0J100000D01*
G01*
X237115000Y-116900000D01*
G75*
G02*
X237215000Y-116800000I100000J0D01*
G01*
G37*
G36*
G01*
X236565000Y-116800000D02*
X236765000Y-116800000D01*
G75*
G02*
X236865000Y-116900000I0J-100000D01*
G01*
X236865000Y-118175000D01*
G75*
G02*
X236765000Y-118275000I-100000J0D01*
G01*
X236565000Y-118275000D01*
G75*
G02*
X236465000Y-118175000I0J100000D01*
G01*
X236465000Y-116900000D01*
G75*
G02*
X236565000Y-116800000I100000J0D01*
G01*
G37*
%TD*%
%TO.C,U29*%
G36*
G01*
X215965000Y-122525000D02*
X216165000Y-122525000D01*
G75*
G02*
X216265000Y-122625000I0J-100000D01*
G01*
X216265000Y-123900000D01*
G75*
G02*
X216165000Y-124000000I-100000J0D01*
G01*
X215965000Y-124000000D01*
G75*
G02*
X215865000Y-123900000I0J100000D01*
G01*
X215865000Y-122625000D01*
G75*
G02*
X215965000Y-122525000I100000J0D01*
G01*
G37*
G36*
G01*
X216615000Y-122525000D02*
X216815000Y-122525000D01*
G75*
G02*
X216915000Y-122625000I0J-100000D01*
G01*
X216915000Y-123900000D01*
G75*
G02*
X216815000Y-124000000I-100000J0D01*
G01*
X216615000Y-124000000D01*
G75*
G02*
X216515000Y-123900000I0J100000D01*
G01*
X216515000Y-122625000D01*
G75*
G02*
X216615000Y-122525000I100000J0D01*
G01*
G37*
G36*
G01*
X217265000Y-122525000D02*
X217465000Y-122525000D01*
G75*
G02*
X217565000Y-122625000I0J-100000D01*
G01*
X217565000Y-123900000D01*
G75*
G02*
X217465000Y-124000000I-100000J0D01*
G01*
X217265000Y-124000000D01*
G75*
G02*
X217165000Y-123900000I0J100000D01*
G01*
X217165000Y-122625000D01*
G75*
G02*
X217265000Y-122525000I100000J0D01*
G01*
G37*
G36*
G01*
X217915000Y-122525000D02*
X218115000Y-122525000D01*
G75*
G02*
X218215000Y-122625000I0J-100000D01*
G01*
X218215000Y-123900000D01*
G75*
G02*
X218115000Y-124000000I-100000J0D01*
G01*
X217915000Y-124000000D01*
G75*
G02*
X217815000Y-123900000I0J100000D01*
G01*
X217815000Y-122625000D01*
G75*
G02*
X217915000Y-122525000I100000J0D01*
G01*
G37*
G36*
G01*
X218565000Y-122525000D02*
X218765000Y-122525000D01*
G75*
G02*
X218865000Y-122625000I0J-100000D01*
G01*
X218865000Y-123900000D01*
G75*
G02*
X218765000Y-124000000I-100000J0D01*
G01*
X218565000Y-124000000D01*
G75*
G02*
X218465000Y-123900000I0J100000D01*
G01*
X218465000Y-122625000D01*
G75*
G02*
X218565000Y-122525000I100000J0D01*
G01*
G37*
G36*
G01*
X219215000Y-122525000D02*
X219415000Y-122525000D01*
G75*
G02*
X219515000Y-122625000I0J-100000D01*
G01*
X219515000Y-123900000D01*
G75*
G02*
X219415000Y-124000000I-100000J0D01*
G01*
X219215000Y-124000000D01*
G75*
G02*
X219115000Y-123900000I0J100000D01*
G01*
X219115000Y-122625000D01*
G75*
G02*
X219215000Y-122525000I100000J0D01*
G01*
G37*
G36*
G01*
X219865000Y-122525000D02*
X220065000Y-122525000D01*
G75*
G02*
X220165000Y-122625000I0J-100000D01*
G01*
X220165000Y-123900000D01*
G75*
G02*
X220065000Y-124000000I-100000J0D01*
G01*
X219865000Y-124000000D01*
G75*
G02*
X219765000Y-123900000I0J100000D01*
G01*
X219765000Y-122625000D01*
G75*
G02*
X219865000Y-122525000I100000J0D01*
G01*
G37*
G36*
G01*
X220515000Y-122525000D02*
X220715000Y-122525000D01*
G75*
G02*
X220815000Y-122625000I0J-100000D01*
G01*
X220815000Y-123900000D01*
G75*
G02*
X220715000Y-124000000I-100000J0D01*
G01*
X220515000Y-124000000D01*
G75*
G02*
X220415000Y-123900000I0J100000D01*
G01*
X220415000Y-122625000D01*
G75*
G02*
X220515000Y-122525000I100000J0D01*
G01*
G37*
G36*
G01*
X220515000Y-116800000D02*
X220715000Y-116800000D01*
G75*
G02*
X220815000Y-116900000I0J-100000D01*
G01*
X220815000Y-118175000D01*
G75*
G02*
X220715000Y-118275000I-100000J0D01*
G01*
X220515000Y-118275000D01*
G75*
G02*
X220415000Y-118175000I0J100000D01*
G01*
X220415000Y-116900000D01*
G75*
G02*
X220515000Y-116800000I100000J0D01*
G01*
G37*
G36*
G01*
X219865000Y-116800000D02*
X220065000Y-116800000D01*
G75*
G02*
X220165000Y-116900000I0J-100000D01*
G01*
X220165000Y-118175000D01*
G75*
G02*
X220065000Y-118275000I-100000J0D01*
G01*
X219865000Y-118275000D01*
G75*
G02*
X219765000Y-118175000I0J100000D01*
G01*
X219765000Y-116900000D01*
G75*
G02*
X219865000Y-116800000I100000J0D01*
G01*
G37*
G36*
G01*
X219215000Y-116800000D02*
X219415000Y-116800000D01*
G75*
G02*
X219515000Y-116900000I0J-100000D01*
G01*
X219515000Y-118175000D01*
G75*
G02*
X219415000Y-118275000I-100000J0D01*
G01*
X219215000Y-118275000D01*
G75*
G02*
X219115000Y-118175000I0J100000D01*
G01*
X219115000Y-116900000D01*
G75*
G02*
X219215000Y-116800000I100000J0D01*
G01*
G37*
G36*
G01*
X218565000Y-116800000D02*
X218765000Y-116800000D01*
G75*
G02*
X218865000Y-116900000I0J-100000D01*
G01*
X218865000Y-118175000D01*
G75*
G02*
X218765000Y-118275000I-100000J0D01*
G01*
X218565000Y-118275000D01*
G75*
G02*
X218465000Y-118175000I0J100000D01*
G01*
X218465000Y-116900000D01*
G75*
G02*
X218565000Y-116800000I100000J0D01*
G01*
G37*
G36*
G01*
X217915000Y-116800000D02*
X218115000Y-116800000D01*
G75*
G02*
X218215000Y-116900000I0J-100000D01*
G01*
X218215000Y-118175000D01*
G75*
G02*
X218115000Y-118275000I-100000J0D01*
G01*
X217915000Y-118275000D01*
G75*
G02*
X217815000Y-118175000I0J100000D01*
G01*
X217815000Y-116900000D01*
G75*
G02*
X217915000Y-116800000I100000J0D01*
G01*
G37*
G36*
G01*
X217265000Y-116800000D02*
X217465000Y-116800000D01*
G75*
G02*
X217565000Y-116900000I0J-100000D01*
G01*
X217565000Y-118175000D01*
G75*
G02*
X217465000Y-118275000I-100000J0D01*
G01*
X217265000Y-118275000D01*
G75*
G02*
X217165000Y-118175000I0J100000D01*
G01*
X217165000Y-116900000D01*
G75*
G02*
X217265000Y-116800000I100000J0D01*
G01*
G37*
G36*
G01*
X216615000Y-116800000D02*
X216815000Y-116800000D01*
G75*
G02*
X216915000Y-116900000I0J-100000D01*
G01*
X216915000Y-118175000D01*
G75*
G02*
X216815000Y-118275000I-100000J0D01*
G01*
X216615000Y-118275000D01*
G75*
G02*
X216515000Y-118175000I0J100000D01*
G01*
X216515000Y-116900000D01*
G75*
G02*
X216615000Y-116800000I100000J0D01*
G01*
G37*
G36*
G01*
X215965000Y-116800000D02*
X216165000Y-116800000D01*
G75*
G02*
X216265000Y-116900000I0J-100000D01*
G01*
X216265000Y-118175000D01*
G75*
G02*
X216165000Y-118275000I-100000J0D01*
G01*
X215965000Y-118275000D01*
G75*
G02*
X215865000Y-118175000I0J100000D01*
G01*
X215865000Y-116900000D01*
G75*
G02*
X215965000Y-116800000I100000J0D01*
G01*
G37*
%TD*%
%TO.C,U28*%
G36*
G01*
X195365000Y-122525000D02*
X195565000Y-122525000D01*
G75*
G02*
X195665000Y-122625000I0J-100000D01*
G01*
X195665000Y-123900000D01*
G75*
G02*
X195565000Y-124000000I-100000J0D01*
G01*
X195365000Y-124000000D01*
G75*
G02*
X195265000Y-123900000I0J100000D01*
G01*
X195265000Y-122625000D01*
G75*
G02*
X195365000Y-122525000I100000J0D01*
G01*
G37*
G36*
G01*
X196015000Y-122525000D02*
X196215000Y-122525000D01*
G75*
G02*
X196315000Y-122625000I0J-100000D01*
G01*
X196315000Y-123900000D01*
G75*
G02*
X196215000Y-124000000I-100000J0D01*
G01*
X196015000Y-124000000D01*
G75*
G02*
X195915000Y-123900000I0J100000D01*
G01*
X195915000Y-122625000D01*
G75*
G02*
X196015000Y-122525000I100000J0D01*
G01*
G37*
G36*
G01*
X196665000Y-122525000D02*
X196865000Y-122525000D01*
G75*
G02*
X196965000Y-122625000I0J-100000D01*
G01*
X196965000Y-123900000D01*
G75*
G02*
X196865000Y-124000000I-100000J0D01*
G01*
X196665000Y-124000000D01*
G75*
G02*
X196565000Y-123900000I0J100000D01*
G01*
X196565000Y-122625000D01*
G75*
G02*
X196665000Y-122525000I100000J0D01*
G01*
G37*
G36*
G01*
X197315000Y-122525000D02*
X197515000Y-122525000D01*
G75*
G02*
X197615000Y-122625000I0J-100000D01*
G01*
X197615000Y-123900000D01*
G75*
G02*
X197515000Y-124000000I-100000J0D01*
G01*
X197315000Y-124000000D01*
G75*
G02*
X197215000Y-123900000I0J100000D01*
G01*
X197215000Y-122625000D01*
G75*
G02*
X197315000Y-122525000I100000J0D01*
G01*
G37*
G36*
G01*
X197965000Y-122525000D02*
X198165000Y-122525000D01*
G75*
G02*
X198265000Y-122625000I0J-100000D01*
G01*
X198265000Y-123900000D01*
G75*
G02*
X198165000Y-124000000I-100000J0D01*
G01*
X197965000Y-124000000D01*
G75*
G02*
X197865000Y-123900000I0J100000D01*
G01*
X197865000Y-122625000D01*
G75*
G02*
X197965000Y-122525000I100000J0D01*
G01*
G37*
G36*
G01*
X198615000Y-122525000D02*
X198815000Y-122525000D01*
G75*
G02*
X198915000Y-122625000I0J-100000D01*
G01*
X198915000Y-123900000D01*
G75*
G02*
X198815000Y-124000000I-100000J0D01*
G01*
X198615000Y-124000000D01*
G75*
G02*
X198515000Y-123900000I0J100000D01*
G01*
X198515000Y-122625000D01*
G75*
G02*
X198615000Y-122525000I100000J0D01*
G01*
G37*
G36*
G01*
X199265000Y-122525000D02*
X199465000Y-122525000D01*
G75*
G02*
X199565000Y-122625000I0J-100000D01*
G01*
X199565000Y-123900000D01*
G75*
G02*
X199465000Y-124000000I-100000J0D01*
G01*
X199265000Y-124000000D01*
G75*
G02*
X199165000Y-123900000I0J100000D01*
G01*
X199165000Y-122625000D01*
G75*
G02*
X199265000Y-122525000I100000J0D01*
G01*
G37*
G36*
G01*
X199915000Y-122525000D02*
X200115000Y-122525000D01*
G75*
G02*
X200215000Y-122625000I0J-100000D01*
G01*
X200215000Y-123900000D01*
G75*
G02*
X200115000Y-124000000I-100000J0D01*
G01*
X199915000Y-124000000D01*
G75*
G02*
X199815000Y-123900000I0J100000D01*
G01*
X199815000Y-122625000D01*
G75*
G02*
X199915000Y-122525000I100000J0D01*
G01*
G37*
G36*
G01*
X199915000Y-116800000D02*
X200115000Y-116800000D01*
G75*
G02*
X200215000Y-116900000I0J-100000D01*
G01*
X200215000Y-118175000D01*
G75*
G02*
X200115000Y-118275000I-100000J0D01*
G01*
X199915000Y-118275000D01*
G75*
G02*
X199815000Y-118175000I0J100000D01*
G01*
X199815000Y-116900000D01*
G75*
G02*
X199915000Y-116800000I100000J0D01*
G01*
G37*
G36*
G01*
X199265000Y-116800000D02*
X199465000Y-116800000D01*
G75*
G02*
X199565000Y-116900000I0J-100000D01*
G01*
X199565000Y-118175000D01*
G75*
G02*
X199465000Y-118275000I-100000J0D01*
G01*
X199265000Y-118275000D01*
G75*
G02*
X199165000Y-118175000I0J100000D01*
G01*
X199165000Y-116900000D01*
G75*
G02*
X199265000Y-116800000I100000J0D01*
G01*
G37*
G36*
G01*
X198615000Y-116800000D02*
X198815000Y-116800000D01*
G75*
G02*
X198915000Y-116900000I0J-100000D01*
G01*
X198915000Y-118175000D01*
G75*
G02*
X198815000Y-118275000I-100000J0D01*
G01*
X198615000Y-118275000D01*
G75*
G02*
X198515000Y-118175000I0J100000D01*
G01*
X198515000Y-116900000D01*
G75*
G02*
X198615000Y-116800000I100000J0D01*
G01*
G37*
G36*
G01*
X197965000Y-116800000D02*
X198165000Y-116800000D01*
G75*
G02*
X198265000Y-116900000I0J-100000D01*
G01*
X198265000Y-118175000D01*
G75*
G02*
X198165000Y-118275000I-100000J0D01*
G01*
X197965000Y-118275000D01*
G75*
G02*
X197865000Y-118175000I0J100000D01*
G01*
X197865000Y-116900000D01*
G75*
G02*
X197965000Y-116800000I100000J0D01*
G01*
G37*
G36*
G01*
X197315000Y-116800000D02*
X197515000Y-116800000D01*
G75*
G02*
X197615000Y-116900000I0J-100000D01*
G01*
X197615000Y-118175000D01*
G75*
G02*
X197515000Y-118275000I-100000J0D01*
G01*
X197315000Y-118275000D01*
G75*
G02*
X197215000Y-118175000I0J100000D01*
G01*
X197215000Y-116900000D01*
G75*
G02*
X197315000Y-116800000I100000J0D01*
G01*
G37*
G36*
G01*
X196665000Y-116800000D02*
X196865000Y-116800000D01*
G75*
G02*
X196965000Y-116900000I0J-100000D01*
G01*
X196965000Y-118175000D01*
G75*
G02*
X196865000Y-118275000I-100000J0D01*
G01*
X196665000Y-118275000D01*
G75*
G02*
X196565000Y-118175000I0J100000D01*
G01*
X196565000Y-116900000D01*
G75*
G02*
X196665000Y-116800000I100000J0D01*
G01*
G37*
G36*
G01*
X196015000Y-116800000D02*
X196215000Y-116800000D01*
G75*
G02*
X196315000Y-116900000I0J-100000D01*
G01*
X196315000Y-118175000D01*
G75*
G02*
X196215000Y-118275000I-100000J0D01*
G01*
X196015000Y-118275000D01*
G75*
G02*
X195915000Y-118175000I0J100000D01*
G01*
X195915000Y-116900000D01*
G75*
G02*
X196015000Y-116800000I100000J0D01*
G01*
G37*
G36*
G01*
X195365000Y-116800000D02*
X195565000Y-116800000D01*
G75*
G02*
X195665000Y-116900000I0J-100000D01*
G01*
X195665000Y-118175000D01*
G75*
G02*
X195565000Y-118275000I-100000J0D01*
G01*
X195365000Y-118275000D01*
G75*
G02*
X195265000Y-118175000I0J100000D01*
G01*
X195265000Y-116900000D01*
G75*
G02*
X195365000Y-116800000I100000J0D01*
G01*
G37*
%TD*%
%TO.C,U27*%
G36*
G01*
X174765000Y-122525000D02*
X174965000Y-122525000D01*
G75*
G02*
X175065000Y-122625000I0J-100000D01*
G01*
X175065000Y-123900000D01*
G75*
G02*
X174965000Y-124000000I-100000J0D01*
G01*
X174765000Y-124000000D01*
G75*
G02*
X174665000Y-123900000I0J100000D01*
G01*
X174665000Y-122625000D01*
G75*
G02*
X174765000Y-122525000I100000J0D01*
G01*
G37*
G36*
G01*
X175415000Y-122525000D02*
X175615000Y-122525000D01*
G75*
G02*
X175715000Y-122625000I0J-100000D01*
G01*
X175715000Y-123900000D01*
G75*
G02*
X175615000Y-124000000I-100000J0D01*
G01*
X175415000Y-124000000D01*
G75*
G02*
X175315000Y-123900000I0J100000D01*
G01*
X175315000Y-122625000D01*
G75*
G02*
X175415000Y-122525000I100000J0D01*
G01*
G37*
G36*
G01*
X176065000Y-122525000D02*
X176265000Y-122525000D01*
G75*
G02*
X176365000Y-122625000I0J-100000D01*
G01*
X176365000Y-123900000D01*
G75*
G02*
X176265000Y-124000000I-100000J0D01*
G01*
X176065000Y-124000000D01*
G75*
G02*
X175965000Y-123900000I0J100000D01*
G01*
X175965000Y-122625000D01*
G75*
G02*
X176065000Y-122525000I100000J0D01*
G01*
G37*
G36*
G01*
X176715000Y-122525000D02*
X176915000Y-122525000D01*
G75*
G02*
X177015000Y-122625000I0J-100000D01*
G01*
X177015000Y-123900000D01*
G75*
G02*
X176915000Y-124000000I-100000J0D01*
G01*
X176715000Y-124000000D01*
G75*
G02*
X176615000Y-123900000I0J100000D01*
G01*
X176615000Y-122625000D01*
G75*
G02*
X176715000Y-122525000I100000J0D01*
G01*
G37*
G36*
G01*
X177365000Y-122525000D02*
X177565000Y-122525000D01*
G75*
G02*
X177665000Y-122625000I0J-100000D01*
G01*
X177665000Y-123900000D01*
G75*
G02*
X177565000Y-124000000I-100000J0D01*
G01*
X177365000Y-124000000D01*
G75*
G02*
X177265000Y-123900000I0J100000D01*
G01*
X177265000Y-122625000D01*
G75*
G02*
X177365000Y-122525000I100000J0D01*
G01*
G37*
G36*
G01*
X178015000Y-122525000D02*
X178215000Y-122525000D01*
G75*
G02*
X178315000Y-122625000I0J-100000D01*
G01*
X178315000Y-123900000D01*
G75*
G02*
X178215000Y-124000000I-100000J0D01*
G01*
X178015000Y-124000000D01*
G75*
G02*
X177915000Y-123900000I0J100000D01*
G01*
X177915000Y-122625000D01*
G75*
G02*
X178015000Y-122525000I100000J0D01*
G01*
G37*
G36*
G01*
X178665000Y-122525000D02*
X178865000Y-122525000D01*
G75*
G02*
X178965000Y-122625000I0J-100000D01*
G01*
X178965000Y-123900000D01*
G75*
G02*
X178865000Y-124000000I-100000J0D01*
G01*
X178665000Y-124000000D01*
G75*
G02*
X178565000Y-123900000I0J100000D01*
G01*
X178565000Y-122625000D01*
G75*
G02*
X178665000Y-122525000I100000J0D01*
G01*
G37*
G36*
G01*
X179315000Y-122525000D02*
X179515000Y-122525000D01*
G75*
G02*
X179615000Y-122625000I0J-100000D01*
G01*
X179615000Y-123900000D01*
G75*
G02*
X179515000Y-124000000I-100000J0D01*
G01*
X179315000Y-124000000D01*
G75*
G02*
X179215000Y-123900000I0J100000D01*
G01*
X179215000Y-122625000D01*
G75*
G02*
X179315000Y-122525000I100000J0D01*
G01*
G37*
G36*
G01*
X179315000Y-116800000D02*
X179515000Y-116800000D01*
G75*
G02*
X179615000Y-116900000I0J-100000D01*
G01*
X179615000Y-118175000D01*
G75*
G02*
X179515000Y-118275000I-100000J0D01*
G01*
X179315000Y-118275000D01*
G75*
G02*
X179215000Y-118175000I0J100000D01*
G01*
X179215000Y-116900000D01*
G75*
G02*
X179315000Y-116800000I100000J0D01*
G01*
G37*
G36*
G01*
X178665000Y-116800000D02*
X178865000Y-116800000D01*
G75*
G02*
X178965000Y-116900000I0J-100000D01*
G01*
X178965000Y-118175000D01*
G75*
G02*
X178865000Y-118275000I-100000J0D01*
G01*
X178665000Y-118275000D01*
G75*
G02*
X178565000Y-118175000I0J100000D01*
G01*
X178565000Y-116900000D01*
G75*
G02*
X178665000Y-116800000I100000J0D01*
G01*
G37*
G36*
G01*
X178015000Y-116800000D02*
X178215000Y-116800000D01*
G75*
G02*
X178315000Y-116900000I0J-100000D01*
G01*
X178315000Y-118175000D01*
G75*
G02*
X178215000Y-118275000I-100000J0D01*
G01*
X178015000Y-118275000D01*
G75*
G02*
X177915000Y-118175000I0J100000D01*
G01*
X177915000Y-116900000D01*
G75*
G02*
X178015000Y-116800000I100000J0D01*
G01*
G37*
G36*
G01*
X177365000Y-116800000D02*
X177565000Y-116800000D01*
G75*
G02*
X177665000Y-116900000I0J-100000D01*
G01*
X177665000Y-118175000D01*
G75*
G02*
X177565000Y-118275000I-100000J0D01*
G01*
X177365000Y-118275000D01*
G75*
G02*
X177265000Y-118175000I0J100000D01*
G01*
X177265000Y-116900000D01*
G75*
G02*
X177365000Y-116800000I100000J0D01*
G01*
G37*
G36*
G01*
X176715000Y-116800000D02*
X176915000Y-116800000D01*
G75*
G02*
X177015000Y-116900000I0J-100000D01*
G01*
X177015000Y-118175000D01*
G75*
G02*
X176915000Y-118275000I-100000J0D01*
G01*
X176715000Y-118275000D01*
G75*
G02*
X176615000Y-118175000I0J100000D01*
G01*
X176615000Y-116900000D01*
G75*
G02*
X176715000Y-116800000I100000J0D01*
G01*
G37*
G36*
G01*
X176065000Y-116800000D02*
X176265000Y-116800000D01*
G75*
G02*
X176365000Y-116900000I0J-100000D01*
G01*
X176365000Y-118175000D01*
G75*
G02*
X176265000Y-118275000I-100000J0D01*
G01*
X176065000Y-118275000D01*
G75*
G02*
X175965000Y-118175000I0J100000D01*
G01*
X175965000Y-116900000D01*
G75*
G02*
X176065000Y-116800000I100000J0D01*
G01*
G37*
G36*
G01*
X175415000Y-116800000D02*
X175615000Y-116800000D01*
G75*
G02*
X175715000Y-116900000I0J-100000D01*
G01*
X175715000Y-118175000D01*
G75*
G02*
X175615000Y-118275000I-100000J0D01*
G01*
X175415000Y-118275000D01*
G75*
G02*
X175315000Y-118175000I0J100000D01*
G01*
X175315000Y-116900000D01*
G75*
G02*
X175415000Y-116800000I100000J0D01*
G01*
G37*
G36*
G01*
X174765000Y-116800000D02*
X174965000Y-116800000D01*
G75*
G02*
X175065000Y-116900000I0J-100000D01*
G01*
X175065000Y-118175000D01*
G75*
G02*
X174965000Y-118275000I-100000J0D01*
G01*
X174765000Y-118275000D01*
G75*
G02*
X174665000Y-118175000I0J100000D01*
G01*
X174665000Y-116900000D01*
G75*
G02*
X174765000Y-116800000I100000J0D01*
G01*
G37*
%TD*%
%TO.C,U26*%
G36*
G01*
X154165000Y-122525000D02*
X154365000Y-122525000D01*
G75*
G02*
X154465000Y-122625000I0J-100000D01*
G01*
X154465000Y-123900000D01*
G75*
G02*
X154365000Y-124000000I-100000J0D01*
G01*
X154165000Y-124000000D01*
G75*
G02*
X154065000Y-123900000I0J100000D01*
G01*
X154065000Y-122625000D01*
G75*
G02*
X154165000Y-122525000I100000J0D01*
G01*
G37*
G36*
G01*
X154815000Y-122525000D02*
X155015000Y-122525000D01*
G75*
G02*
X155115000Y-122625000I0J-100000D01*
G01*
X155115000Y-123900000D01*
G75*
G02*
X155015000Y-124000000I-100000J0D01*
G01*
X154815000Y-124000000D01*
G75*
G02*
X154715000Y-123900000I0J100000D01*
G01*
X154715000Y-122625000D01*
G75*
G02*
X154815000Y-122525000I100000J0D01*
G01*
G37*
G36*
G01*
X155465000Y-122525000D02*
X155665000Y-122525000D01*
G75*
G02*
X155765000Y-122625000I0J-100000D01*
G01*
X155765000Y-123900000D01*
G75*
G02*
X155665000Y-124000000I-100000J0D01*
G01*
X155465000Y-124000000D01*
G75*
G02*
X155365000Y-123900000I0J100000D01*
G01*
X155365000Y-122625000D01*
G75*
G02*
X155465000Y-122525000I100000J0D01*
G01*
G37*
G36*
G01*
X156115000Y-122525000D02*
X156315000Y-122525000D01*
G75*
G02*
X156415000Y-122625000I0J-100000D01*
G01*
X156415000Y-123900000D01*
G75*
G02*
X156315000Y-124000000I-100000J0D01*
G01*
X156115000Y-124000000D01*
G75*
G02*
X156015000Y-123900000I0J100000D01*
G01*
X156015000Y-122625000D01*
G75*
G02*
X156115000Y-122525000I100000J0D01*
G01*
G37*
G36*
G01*
X156765000Y-122525000D02*
X156965000Y-122525000D01*
G75*
G02*
X157065000Y-122625000I0J-100000D01*
G01*
X157065000Y-123900000D01*
G75*
G02*
X156965000Y-124000000I-100000J0D01*
G01*
X156765000Y-124000000D01*
G75*
G02*
X156665000Y-123900000I0J100000D01*
G01*
X156665000Y-122625000D01*
G75*
G02*
X156765000Y-122525000I100000J0D01*
G01*
G37*
G36*
G01*
X157415000Y-122525000D02*
X157615000Y-122525000D01*
G75*
G02*
X157715000Y-122625000I0J-100000D01*
G01*
X157715000Y-123900000D01*
G75*
G02*
X157615000Y-124000000I-100000J0D01*
G01*
X157415000Y-124000000D01*
G75*
G02*
X157315000Y-123900000I0J100000D01*
G01*
X157315000Y-122625000D01*
G75*
G02*
X157415000Y-122525000I100000J0D01*
G01*
G37*
G36*
G01*
X158065000Y-122525000D02*
X158265000Y-122525000D01*
G75*
G02*
X158365000Y-122625000I0J-100000D01*
G01*
X158365000Y-123900000D01*
G75*
G02*
X158265000Y-124000000I-100000J0D01*
G01*
X158065000Y-124000000D01*
G75*
G02*
X157965000Y-123900000I0J100000D01*
G01*
X157965000Y-122625000D01*
G75*
G02*
X158065000Y-122525000I100000J0D01*
G01*
G37*
G36*
G01*
X158715000Y-122525000D02*
X158915000Y-122525000D01*
G75*
G02*
X159015000Y-122625000I0J-100000D01*
G01*
X159015000Y-123900000D01*
G75*
G02*
X158915000Y-124000000I-100000J0D01*
G01*
X158715000Y-124000000D01*
G75*
G02*
X158615000Y-123900000I0J100000D01*
G01*
X158615000Y-122625000D01*
G75*
G02*
X158715000Y-122525000I100000J0D01*
G01*
G37*
G36*
G01*
X158715000Y-116800000D02*
X158915000Y-116800000D01*
G75*
G02*
X159015000Y-116900000I0J-100000D01*
G01*
X159015000Y-118175000D01*
G75*
G02*
X158915000Y-118275000I-100000J0D01*
G01*
X158715000Y-118275000D01*
G75*
G02*
X158615000Y-118175000I0J100000D01*
G01*
X158615000Y-116900000D01*
G75*
G02*
X158715000Y-116800000I100000J0D01*
G01*
G37*
G36*
G01*
X158065000Y-116800000D02*
X158265000Y-116800000D01*
G75*
G02*
X158365000Y-116900000I0J-100000D01*
G01*
X158365000Y-118175000D01*
G75*
G02*
X158265000Y-118275000I-100000J0D01*
G01*
X158065000Y-118275000D01*
G75*
G02*
X157965000Y-118175000I0J100000D01*
G01*
X157965000Y-116900000D01*
G75*
G02*
X158065000Y-116800000I100000J0D01*
G01*
G37*
G36*
G01*
X157415000Y-116800000D02*
X157615000Y-116800000D01*
G75*
G02*
X157715000Y-116900000I0J-100000D01*
G01*
X157715000Y-118175000D01*
G75*
G02*
X157615000Y-118275000I-100000J0D01*
G01*
X157415000Y-118275000D01*
G75*
G02*
X157315000Y-118175000I0J100000D01*
G01*
X157315000Y-116900000D01*
G75*
G02*
X157415000Y-116800000I100000J0D01*
G01*
G37*
G36*
G01*
X156765000Y-116800000D02*
X156965000Y-116800000D01*
G75*
G02*
X157065000Y-116900000I0J-100000D01*
G01*
X157065000Y-118175000D01*
G75*
G02*
X156965000Y-118275000I-100000J0D01*
G01*
X156765000Y-118275000D01*
G75*
G02*
X156665000Y-118175000I0J100000D01*
G01*
X156665000Y-116900000D01*
G75*
G02*
X156765000Y-116800000I100000J0D01*
G01*
G37*
G36*
G01*
X156115000Y-116800000D02*
X156315000Y-116800000D01*
G75*
G02*
X156415000Y-116900000I0J-100000D01*
G01*
X156415000Y-118175000D01*
G75*
G02*
X156315000Y-118275000I-100000J0D01*
G01*
X156115000Y-118275000D01*
G75*
G02*
X156015000Y-118175000I0J100000D01*
G01*
X156015000Y-116900000D01*
G75*
G02*
X156115000Y-116800000I100000J0D01*
G01*
G37*
G36*
G01*
X155465000Y-116800000D02*
X155665000Y-116800000D01*
G75*
G02*
X155765000Y-116900000I0J-100000D01*
G01*
X155765000Y-118175000D01*
G75*
G02*
X155665000Y-118275000I-100000J0D01*
G01*
X155465000Y-118275000D01*
G75*
G02*
X155365000Y-118175000I0J100000D01*
G01*
X155365000Y-116900000D01*
G75*
G02*
X155465000Y-116800000I100000J0D01*
G01*
G37*
G36*
G01*
X154815000Y-116800000D02*
X155015000Y-116800000D01*
G75*
G02*
X155115000Y-116900000I0J-100000D01*
G01*
X155115000Y-118175000D01*
G75*
G02*
X155015000Y-118275000I-100000J0D01*
G01*
X154815000Y-118275000D01*
G75*
G02*
X154715000Y-118175000I0J100000D01*
G01*
X154715000Y-116900000D01*
G75*
G02*
X154815000Y-116800000I100000J0D01*
G01*
G37*
G36*
G01*
X154165000Y-116800000D02*
X154365000Y-116800000D01*
G75*
G02*
X154465000Y-116900000I0J-100000D01*
G01*
X154465000Y-118175000D01*
G75*
G02*
X154365000Y-118275000I-100000J0D01*
G01*
X154165000Y-118275000D01*
G75*
G02*
X154065000Y-118175000I0J100000D01*
G01*
X154065000Y-116900000D01*
G75*
G02*
X154165000Y-116800000I100000J0D01*
G01*
G37*
%TD*%
%TO.C,U25*%
G36*
G01*
X133565000Y-122525000D02*
X133765000Y-122525000D01*
G75*
G02*
X133865000Y-122625000I0J-100000D01*
G01*
X133865000Y-123900000D01*
G75*
G02*
X133765000Y-124000000I-100000J0D01*
G01*
X133565000Y-124000000D01*
G75*
G02*
X133465000Y-123900000I0J100000D01*
G01*
X133465000Y-122625000D01*
G75*
G02*
X133565000Y-122525000I100000J0D01*
G01*
G37*
G36*
G01*
X134215000Y-122525000D02*
X134415000Y-122525000D01*
G75*
G02*
X134515000Y-122625000I0J-100000D01*
G01*
X134515000Y-123900000D01*
G75*
G02*
X134415000Y-124000000I-100000J0D01*
G01*
X134215000Y-124000000D01*
G75*
G02*
X134115000Y-123900000I0J100000D01*
G01*
X134115000Y-122625000D01*
G75*
G02*
X134215000Y-122525000I100000J0D01*
G01*
G37*
G36*
G01*
X134865000Y-122525000D02*
X135065000Y-122525000D01*
G75*
G02*
X135165000Y-122625000I0J-100000D01*
G01*
X135165000Y-123900000D01*
G75*
G02*
X135065000Y-124000000I-100000J0D01*
G01*
X134865000Y-124000000D01*
G75*
G02*
X134765000Y-123900000I0J100000D01*
G01*
X134765000Y-122625000D01*
G75*
G02*
X134865000Y-122525000I100000J0D01*
G01*
G37*
G36*
G01*
X135515000Y-122525000D02*
X135715000Y-122525000D01*
G75*
G02*
X135815000Y-122625000I0J-100000D01*
G01*
X135815000Y-123900000D01*
G75*
G02*
X135715000Y-124000000I-100000J0D01*
G01*
X135515000Y-124000000D01*
G75*
G02*
X135415000Y-123900000I0J100000D01*
G01*
X135415000Y-122625000D01*
G75*
G02*
X135515000Y-122525000I100000J0D01*
G01*
G37*
G36*
G01*
X136165000Y-122525000D02*
X136365000Y-122525000D01*
G75*
G02*
X136465000Y-122625000I0J-100000D01*
G01*
X136465000Y-123900000D01*
G75*
G02*
X136365000Y-124000000I-100000J0D01*
G01*
X136165000Y-124000000D01*
G75*
G02*
X136065000Y-123900000I0J100000D01*
G01*
X136065000Y-122625000D01*
G75*
G02*
X136165000Y-122525000I100000J0D01*
G01*
G37*
G36*
G01*
X136815000Y-122525000D02*
X137015000Y-122525000D01*
G75*
G02*
X137115000Y-122625000I0J-100000D01*
G01*
X137115000Y-123900000D01*
G75*
G02*
X137015000Y-124000000I-100000J0D01*
G01*
X136815000Y-124000000D01*
G75*
G02*
X136715000Y-123900000I0J100000D01*
G01*
X136715000Y-122625000D01*
G75*
G02*
X136815000Y-122525000I100000J0D01*
G01*
G37*
G36*
G01*
X137465000Y-122525000D02*
X137665000Y-122525000D01*
G75*
G02*
X137765000Y-122625000I0J-100000D01*
G01*
X137765000Y-123900000D01*
G75*
G02*
X137665000Y-124000000I-100000J0D01*
G01*
X137465000Y-124000000D01*
G75*
G02*
X137365000Y-123900000I0J100000D01*
G01*
X137365000Y-122625000D01*
G75*
G02*
X137465000Y-122525000I100000J0D01*
G01*
G37*
G36*
G01*
X138115000Y-122525000D02*
X138315000Y-122525000D01*
G75*
G02*
X138415000Y-122625000I0J-100000D01*
G01*
X138415000Y-123900000D01*
G75*
G02*
X138315000Y-124000000I-100000J0D01*
G01*
X138115000Y-124000000D01*
G75*
G02*
X138015000Y-123900000I0J100000D01*
G01*
X138015000Y-122625000D01*
G75*
G02*
X138115000Y-122525000I100000J0D01*
G01*
G37*
G36*
G01*
X138115000Y-116800000D02*
X138315000Y-116800000D01*
G75*
G02*
X138415000Y-116900000I0J-100000D01*
G01*
X138415000Y-118175000D01*
G75*
G02*
X138315000Y-118275000I-100000J0D01*
G01*
X138115000Y-118275000D01*
G75*
G02*
X138015000Y-118175000I0J100000D01*
G01*
X138015000Y-116900000D01*
G75*
G02*
X138115000Y-116800000I100000J0D01*
G01*
G37*
G36*
G01*
X137465000Y-116800000D02*
X137665000Y-116800000D01*
G75*
G02*
X137765000Y-116900000I0J-100000D01*
G01*
X137765000Y-118175000D01*
G75*
G02*
X137665000Y-118275000I-100000J0D01*
G01*
X137465000Y-118275000D01*
G75*
G02*
X137365000Y-118175000I0J100000D01*
G01*
X137365000Y-116900000D01*
G75*
G02*
X137465000Y-116800000I100000J0D01*
G01*
G37*
G36*
G01*
X136815000Y-116800000D02*
X137015000Y-116800000D01*
G75*
G02*
X137115000Y-116900000I0J-100000D01*
G01*
X137115000Y-118175000D01*
G75*
G02*
X137015000Y-118275000I-100000J0D01*
G01*
X136815000Y-118275000D01*
G75*
G02*
X136715000Y-118175000I0J100000D01*
G01*
X136715000Y-116900000D01*
G75*
G02*
X136815000Y-116800000I100000J0D01*
G01*
G37*
G36*
G01*
X136165000Y-116800000D02*
X136365000Y-116800000D01*
G75*
G02*
X136465000Y-116900000I0J-100000D01*
G01*
X136465000Y-118175000D01*
G75*
G02*
X136365000Y-118275000I-100000J0D01*
G01*
X136165000Y-118275000D01*
G75*
G02*
X136065000Y-118175000I0J100000D01*
G01*
X136065000Y-116900000D01*
G75*
G02*
X136165000Y-116800000I100000J0D01*
G01*
G37*
G36*
G01*
X135515000Y-116800000D02*
X135715000Y-116800000D01*
G75*
G02*
X135815000Y-116900000I0J-100000D01*
G01*
X135815000Y-118175000D01*
G75*
G02*
X135715000Y-118275000I-100000J0D01*
G01*
X135515000Y-118275000D01*
G75*
G02*
X135415000Y-118175000I0J100000D01*
G01*
X135415000Y-116900000D01*
G75*
G02*
X135515000Y-116800000I100000J0D01*
G01*
G37*
G36*
G01*
X134865000Y-116800000D02*
X135065000Y-116800000D01*
G75*
G02*
X135165000Y-116900000I0J-100000D01*
G01*
X135165000Y-118175000D01*
G75*
G02*
X135065000Y-118275000I-100000J0D01*
G01*
X134865000Y-118275000D01*
G75*
G02*
X134765000Y-118175000I0J100000D01*
G01*
X134765000Y-116900000D01*
G75*
G02*
X134865000Y-116800000I100000J0D01*
G01*
G37*
G36*
G01*
X134215000Y-116800000D02*
X134415000Y-116800000D01*
G75*
G02*
X134515000Y-116900000I0J-100000D01*
G01*
X134515000Y-118175000D01*
G75*
G02*
X134415000Y-118275000I-100000J0D01*
G01*
X134215000Y-118275000D01*
G75*
G02*
X134115000Y-118175000I0J100000D01*
G01*
X134115000Y-116900000D01*
G75*
G02*
X134215000Y-116800000I100000J0D01*
G01*
G37*
G36*
G01*
X133565000Y-116800000D02*
X133765000Y-116800000D01*
G75*
G02*
X133865000Y-116900000I0J-100000D01*
G01*
X133865000Y-118175000D01*
G75*
G02*
X133765000Y-118275000I-100000J0D01*
G01*
X133565000Y-118275000D01*
G75*
G02*
X133465000Y-118175000I0J100000D01*
G01*
X133465000Y-116900000D01*
G75*
G02*
X133565000Y-116800000I100000J0D01*
G01*
G37*
%TD*%
%TO.C,U24*%
G36*
G01*
X112965000Y-116800000D02*
X113165000Y-116800000D01*
G75*
G02*
X113265000Y-116900000I0J-100000D01*
G01*
X113265000Y-118175000D01*
G75*
G02*
X113165000Y-118275000I-100000J0D01*
G01*
X112965000Y-118275000D01*
G75*
G02*
X112865000Y-118175000I0J100000D01*
G01*
X112865000Y-116900000D01*
G75*
G02*
X112965000Y-116800000I100000J0D01*
G01*
G37*
G36*
G01*
X113615000Y-116800000D02*
X113815000Y-116800000D01*
G75*
G02*
X113915000Y-116900000I0J-100000D01*
G01*
X113915000Y-118175000D01*
G75*
G02*
X113815000Y-118275000I-100000J0D01*
G01*
X113615000Y-118275000D01*
G75*
G02*
X113515000Y-118175000I0J100000D01*
G01*
X113515000Y-116900000D01*
G75*
G02*
X113615000Y-116800000I100000J0D01*
G01*
G37*
G36*
G01*
X114265000Y-116800000D02*
X114465000Y-116800000D01*
G75*
G02*
X114565000Y-116900000I0J-100000D01*
G01*
X114565000Y-118175000D01*
G75*
G02*
X114465000Y-118275000I-100000J0D01*
G01*
X114265000Y-118275000D01*
G75*
G02*
X114165000Y-118175000I0J100000D01*
G01*
X114165000Y-116900000D01*
G75*
G02*
X114265000Y-116800000I100000J0D01*
G01*
G37*
G36*
G01*
X114915000Y-116800000D02*
X115115000Y-116800000D01*
G75*
G02*
X115215000Y-116900000I0J-100000D01*
G01*
X115215000Y-118175000D01*
G75*
G02*
X115115000Y-118275000I-100000J0D01*
G01*
X114915000Y-118275000D01*
G75*
G02*
X114815000Y-118175000I0J100000D01*
G01*
X114815000Y-116900000D01*
G75*
G02*
X114915000Y-116800000I100000J0D01*
G01*
G37*
G36*
G01*
X115565000Y-116800000D02*
X115765000Y-116800000D01*
G75*
G02*
X115865000Y-116900000I0J-100000D01*
G01*
X115865000Y-118175000D01*
G75*
G02*
X115765000Y-118275000I-100000J0D01*
G01*
X115565000Y-118275000D01*
G75*
G02*
X115465000Y-118175000I0J100000D01*
G01*
X115465000Y-116900000D01*
G75*
G02*
X115565000Y-116800000I100000J0D01*
G01*
G37*
G36*
G01*
X116215000Y-116800000D02*
X116415000Y-116800000D01*
G75*
G02*
X116515000Y-116900000I0J-100000D01*
G01*
X116515000Y-118175000D01*
G75*
G02*
X116415000Y-118275000I-100000J0D01*
G01*
X116215000Y-118275000D01*
G75*
G02*
X116115000Y-118175000I0J100000D01*
G01*
X116115000Y-116900000D01*
G75*
G02*
X116215000Y-116800000I100000J0D01*
G01*
G37*
G36*
G01*
X116865000Y-116800000D02*
X117065000Y-116800000D01*
G75*
G02*
X117165000Y-116900000I0J-100000D01*
G01*
X117165000Y-118175000D01*
G75*
G02*
X117065000Y-118275000I-100000J0D01*
G01*
X116865000Y-118275000D01*
G75*
G02*
X116765000Y-118175000I0J100000D01*
G01*
X116765000Y-116900000D01*
G75*
G02*
X116865000Y-116800000I100000J0D01*
G01*
G37*
G36*
G01*
X117515000Y-116800000D02*
X117715000Y-116800000D01*
G75*
G02*
X117815000Y-116900000I0J-100000D01*
G01*
X117815000Y-118175000D01*
G75*
G02*
X117715000Y-118275000I-100000J0D01*
G01*
X117515000Y-118275000D01*
G75*
G02*
X117415000Y-118175000I0J100000D01*
G01*
X117415000Y-116900000D01*
G75*
G02*
X117515000Y-116800000I100000J0D01*
G01*
G37*
G36*
G01*
X117515000Y-122525000D02*
X117715000Y-122525000D01*
G75*
G02*
X117815000Y-122625000I0J-100000D01*
G01*
X117815000Y-123900000D01*
G75*
G02*
X117715000Y-124000000I-100000J0D01*
G01*
X117515000Y-124000000D01*
G75*
G02*
X117415000Y-123900000I0J100000D01*
G01*
X117415000Y-122625000D01*
G75*
G02*
X117515000Y-122525000I100000J0D01*
G01*
G37*
G36*
G01*
X116865000Y-122525000D02*
X117065000Y-122525000D01*
G75*
G02*
X117165000Y-122625000I0J-100000D01*
G01*
X117165000Y-123900000D01*
G75*
G02*
X117065000Y-124000000I-100000J0D01*
G01*
X116865000Y-124000000D01*
G75*
G02*
X116765000Y-123900000I0J100000D01*
G01*
X116765000Y-122625000D01*
G75*
G02*
X116865000Y-122525000I100000J0D01*
G01*
G37*
G36*
G01*
X116215000Y-122525000D02*
X116415000Y-122525000D01*
G75*
G02*
X116515000Y-122625000I0J-100000D01*
G01*
X116515000Y-123900000D01*
G75*
G02*
X116415000Y-124000000I-100000J0D01*
G01*
X116215000Y-124000000D01*
G75*
G02*
X116115000Y-123900000I0J100000D01*
G01*
X116115000Y-122625000D01*
G75*
G02*
X116215000Y-122525000I100000J0D01*
G01*
G37*
G36*
G01*
X115565000Y-122525000D02*
X115765000Y-122525000D01*
G75*
G02*
X115865000Y-122625000I0J-100000D01*
G01*
X115865000Y-123900000D01*
G75*
G02*
X115765000Y-124000000I-100000J0D01*
G01*
X115565000Y-124000000D01*
G75*
G02*
X115465000Y-123900000I0J100000D01*
G01*
X115465000Y-122625000D01*
G75*
G02*
X115565000Y-122525000I100000J0D01*
G01*
G37*
G36*
G01*
X114915000Y-122525000D02*
X115115000Y-122525000D01*
G75*
G02*
X115215000Y-122625000I0J-100000D01*
G01*
X115215000Y-123900000D01*
G75*
G02*
X115115000Y-124000000I-100000J0D01*
G01*
X114915000Y-124000000D01*
G75*
G02*
X114815000Y-123900000I0J100000D01*
G01*
X114815000Y-122625000D01*
G75*
G02*
X114915000Y-122525000I100000J0D01*
G01*
G37*
G36*
G01*
X114265000Y-122525000D02*
X114465000Y-122525000D01*
G75*
G02*
X114565000Y-122625000I0J-100000D01*
G01*
X114565000Y-123900000D01*
G75*
G02*
X114465000Y-124000000I-100000J0D01*
G01*
X114265000Y-124000000D01*
G75*
G02*
X114165000Y-123900000I0J100000D01*
G01*
X114165000Y-122625000D01*
G75*
G02*
X114265000Y-122525000I100000J0D01*
G01*
G37*
G36*
G01*
X113615000Y-122525000D02*
X113815000Y-122525000D01*
G75*
G02*
X113915000Y-122625000I0J-100000D01*
G01*
X113915000Y-123900000D01*
G75*
G02*
X113815000Y-124000000I-100000J0D01*
G01*
X113615000Y-124000000D01*
G75*
G02*
X113515000Y-123900000I0J100000D01*
G01*
X113515000Y-122625000D01*
G75*
G02*
X113615000Y-122525000I100000J0D01*
G01*
G37*
G36*
G01*
X112965000Y-122525000D02*
X113165000Y-122525000D01*
G75*
G02*
X113265000Y-122625000I0J-100000D01*
G01*
X113265000Y-123900000D01*
G75*
G02*
X113165000Y-124000000I-100000J0D01*
G01*
X112965000Y-124000000D01*
G75*
G02*
X112865000Y-123900000I0J100000D01*
G01*
X112865000Y-122625000D01*
G75*
G02*
X112965000Y-122525000I100000J0D01*
G01*
G37*
%TD*%
%TO.C,U23*%
G36*
G01*
X92365000Y-122525000D02*
X92565000Y-122525000D01*
G75*
G02*
X92665000Y-122625000I0J-100000D01*
G01*
X92665000Y-123900000D01*
G75*
G02*
X92565000Y-124000000I-100000J0D01*
G01*
X92365000Y-124000000D01*
G75*
G02*
X92265000Y-123900000I0J100000D01*
G01*
X92265000Y-122625000D01*
G75*
G02*
X92365000Y-122525000I100000J0D01*
G01*
G37*
G36*
G01*
X93015000Y-122525000D02*
X93215000Y-122525000D01*
G75*
G02*
X93315000Y-122625000I0J-100000D01*
G01*
X93315000Y-123900000D01*
G75*
G02*
X93215000Y-124000000I-100000J0D01*
G01*
X93015000Y-124000000D01*
G75*
G02*
X92915000Y-123900000I0J100000D01*
G01*
X92915000Y-122625000D01*
G75*
G02*
X93015000Y-122525000I100000J0D01*
G01*
G37*
G36*
G01*
X93665000Y-122525000D02*
X93865000Y-122525000D01*
G75*
G02*
X93965000Y-122625000I0J-100000D01*
G01*
X93965000Y-123900000D01*
G75*
G02*
X93865000Y-124000000I-100000J0D01*
G01*
X93665000Y-124000000D01*
G75*
G02*
X93565000Y-123900000I0J100000D01*
G01*
X93565000Y-122625000D01*
G75*
G02*
X93665000Y-122525000I100000J0D01*
G01*
G37*
G36*
G01*
X94315000Y-122525000D02*
X94515000Y-122525000D01*
G75*
G02*
X94615000Y-122625000I0J-100000D01*
G01*
X94615000Y-123900000D01*
G75*
G02*
X94515000Y-124000000I-100000J0D01*
G01*
X94315000Y-124000000D01*
G75*
G02*
X94215000Y-123900000I0J100000D01*
G01*
X94215000Y-122625000D01*
G75*
G02*
X94315000Y-122525000I100000J0D01*
G01*
G37*
G36*
G01*
X94965000Y-122525000D02*
X95165000Y-122525000D01*
G75*
G02*
X95265000Y-122625000I0J-100000D01*
G01*
X95265000Y-123900000D01*
G75*
G02*
X95165000Y-124000000I-100000J0D01*
G01*
X94965000Y-124000000D01*
G75*
G02*
X94865000Y-123900000I0J100000D01*
G01*
X94865000Y-122625000D01*
G75*
G02*
X94965000Y-122525000I100000J0D01*
G01*
G37*
G36*
G01*
X95615000Y-122525000D02*
X95815000Y-122525000D01*
G75*
G02*
X95915000Y-122625000I0J-100000D01*
G01*
X95915000Y-123900000D01*
G75*
G02*
X95815000Y-124000000I-100000J0D01*
G01*
X95615000Y-124000000D01*
G75*
G02*
X95515000Y-123900000I0J100000D01*
G01*
X95515000Y-122625000D01*
G75*
G02*
X95615000Y-122525000I100000J0D01*
G01*
G37*
G36*
G01*
X96265000Y-122525000D02*
X96465000Y-122525000D01*
G75*
G02*
X96565000Y-122625000I0J-100000D01*
G01*
X96565000Y-123900000D01*
G75*
G02*
X96465000Y-124000000I-100000J0D01*
G01*
X96265000Y-124000000D01*
G75*
G02*
X96165000Y-123900000I0J100000D01*
G01*
X96165000Y-122625000D01*
G75*
G02*
X96265000Y-122525000I100000J0D01*
G01*
G37*
G36*
G01*
X96915000Y-122525000D02*
X97115000Y-122525000D01*
G75*
G02*
X97215000Y-122625000I0J-100000D01*
G01*
X97215000Y-123900000D01*
G75*
G02*
X97115000Y-124000000I-100000J0D01*
G01*
X96915000Y-124000000D01*
G75*
G02*
X96815000Y-123900000I0J100000D01*
G01*
X96815000Y-122625000D01*
G75*
G02*
X96915000Y-122525000I100000J0D01*
G01*
G37*
G36*
G01*
X96915000Y-116800000D02*
X97115000Y-116800000D01*
G75*
G02*
X97215000Y-116900000I0J-100000D01*
G01*
X97215000Y-118175000D01*
G75*
G02*
X97115000Y-118275000I-100000J0D01*
G01*
X96915000Y-118275000D01*
G75*
G02*
X96815000Y-118175000I0J100000D01*
G01*
X96815000Y-116900000D01*
G75*
G02*
X96915000Y-116800000I100000J0D01*
G01*
G37*
G36*
G01*
X96265000Y-116800000D02*
X96465000Y-116800000D01*
G75*
G02*
X96565000Y-116900000I0J-100000D01*
G01*
X96565000Y-118175000D01*
G75*
G02*
X96465000Y-118275000I-100000J0D01*
G01*
X96265000Y-118275000D01*
G75*
G02*
X96165000Y-118175000I0J100000D01*
G01*
X96165000Y-116900000D01*
G75*
G02*
X96265000Y-116800000I100000J0D01*
G01*
G37*
G36*
G01*
X95615000Y-116800000D02*
X95815000Y-116800000D01*
G75*
G02*
X95915000Y-116900000I0J-100000D01*
G01*
X95915000Y-118175000D01*
G75*
G02*
X95815000Y-118275000I-100000J0D01*
G01*
X95615000Y-118275000D01*
G75*
G02*
X95515000Y-118175000I0J100000D01*
G01*
X95515000Y-116900000D01*
G75*
G02*
X95615000Y-116800000I100000J0D01*
G01*
G37*
G36*
G01*
X94965000Y-116800000D02*
X95165000Y-116800000D01*
G75*
G02*
X95265000Y-116900000I0J-100000D01*
G01*
X95265000Y-118175000D01*
G75*
G02*
X95165000Y-118275000I-100000J0D01*
G01*
X94965000Y-118275000D01*
G75*
G02*
X94865000Y-118175000I0J100000D01*
G01*
X94865000Y-116900000D01*
G75*
G02*
X94965000Y-116800000I100000J0D01*
G01*
G37*
G36*
G01*
X94315000Y-116800000D02*
X94515000Y-116800000D01*
G75*
G02*
X94615000Y-116900000I0J-100000D01*
G01*
X94615000Y-118175000D01*
G75*
G02*
X94515000Y-118275000I-100000J0D01*
G01*
X94315000Y-118275000D01*
G75*
G02*
X94215000Y-118175000I0J100000D01*
G01*
X94215000Y-116900000D01*
G75*
G02*
X94315000Y-116800000I100000J0D01*
G01*
G37*
G36*
G01*
X93665000Y-116800000D02*
X93865000Y-116800000D01*
G75*
G02*
X93965000Y-116900000I0J-100000D01*
G01*
X93965000Y-118175000D01*
G75*
G02*
X93865000Y-118275000I-100000J0D01*
G01*
X93665000Y-118275000D01*
G75*
G02*
X93565000Y-118175000I0J100000D01*
G01*
X93565000Y-116900000D01*
G75*
G02*
X93665000Y-116800000I100000J0D01*
G01*
G37*
G36*
G01*
X93015000Y-116800000D02*
X93215000Y-116800000D01*
G75*
G02*
X93315000Y-116900000I0J-100000D01*
G01*
X93315000Y-118175000D01*
G75*
G02*
X93215000Y-118275000I-100000J0D01*
G01*
X93015000Y-118275000D01*
G75*
G02*
X92915000Y-118175000I0J100000D01*
G01*
X92915000Y-116900000D01*
G75*
G02*
X93015000Y-116800000I100000J0D01*
G01*
G37*
G36*
G01*
X92365000Y-116800000D02*
X92565000Y-116800000D01*
G75*
G02*
X92665000Y-116900000I0J-100000D01*
G01*
X92665000Y-118175000D01*
G75*
G02*
X92565000Y-118275000I-100000J0D01*
G01*
X92365000Y-118275000D01*
G75*
G02*
X92265000Y-118175000I0J100000D01*
G01*
X92265000Y-116900000D01*
G75*
G02*
X92365000Y-116800000I100000J0D01*
G01*
G37*
%TD*%
%TO.C,U22*%
G36*
G01*
X71765000Y-122525000D02*
X71965000Y-122525000D01*
G75*
G02*
X72065000Y-122625000I0J-100000D01*
G01*
X72065000Y-123900000D01*
G75*
G02*
X71965000Y-124000000I-100000J0D01*
G01*
X71765000Y-124000000D01*
G75*
G02*
X71665000Y-123900000I0J100000D01*
G01*
X71665000Y-122625000D01*
G75*
G02*
X71765000Y-122525000I100000J0D01*
G01*
G37*
G36*
G01*
X72415000Y-122525000D02*
X72615000Y-122525000D01*
G75*
G02*
X72715000Y-122625000I0J-100000D01*
G01*
X72715000Y-123900000D01*
G75*
G02*
X72615000Y-124000000I-100000J0D01*
G01*
X72415000Y-124000000D01*
G75*
G02*
X72315000Y-123900000I0J100000D01*
G01*
X72315000Y-122625000D01*
G75*
G02*
X72415000Y-122525000I100000J0D01*
G01*
G37*
G36*
G01*
X73065000Y-122525000D02*
X73265000Y-122525000D01*
G75*
G02*
X73365000Y-122625000I0J-100000D01*
G01*
X73365000Y-123900000D01*
G75*
G02*
X73265000Y-124000000I-100000J0D01*
G01*
X73065000Y-124000000D01*
G75*
G02*
X72965000Y-123900000I0J100000D01*
G01*
X72965000Y-122625000D01*
G75*
G02*
X73065000Y-122525000I100000J0D01*
G01*
G37*
G36*
G01*
X73715000Y-122525000D02*
X73915000Y-122525000D01*
G75*
G02*
X74015000Y-122625000I0J-100000D01*
G01*
X74015000Y-123900000D01*
G75*
G02*
X73915000Y-124000000I-100000J0D01*
G01*
X73715000Y-124000000D01*
G75*
G02*
X73615000Y-123900000I0J100000D01*
G01*
X73615000Y-122625000D01*
G75*
G02*
X73715000Y-122525000I100000J0D01*
G01*
G37*
G36*
G01*
X74365000Y-122525000D02*
X74565000Y-122525000D01*
G75*
G02*
X74665000Y-122625000I0J-100000D01*
G01*
X74665000Y-123900000D01*
G75*
G02*
X74565000Y-124000000I-100000J0D01*
G01*
X74365000Y-124000000D01*
G75*
G02*
X74265000Y-123900000I0J100000D01*
G01*
X74265000Y-122625000D01*
G75*
G02*
X74365000Y-122525000I100000J0D01*
G01*
G37*
G36*
G01*
X75015000Y-122525000D02*
X75215000Y-122525000D01*
G75*
G02*
X75315000Y-122625000I0J-100000D01*
G01*
X75315000Y-123900000D01*
G75*
G02*
X75215000Y-124000000I-100000J0D01*
G01*
X75015000Y-124000000D01*
G75*
G02*
X74915000Y-123900000I0J100000D01*
G01*
X74915000Y-122625000D01*
G75*
G02*
X75015000Y-122525000I100000J0D01*
G01*
G37*
G36*
G01*
X75665000Y-122525000D02*
X75865000Y-122525000D01*
G75*
G02*
X75965000Y-122625000I0J-100000D01*
G01*
X75965000Y-123900000D01*
G75*
G02*
X75865000Y-124000000I-100000J0D01*
G01*
X75665000Y-124000000D01*
G75*
G02*
X75565000Y-123900000I0J100000D01*
G01*
X75565000Y-122625000D01*
G75*
G02*
X75665000Y-122525000I100000J0D01*
G01*
G37*
G36*
G01*
X76315000Y-122525000D02*
X76515000Y-122525000D01*
G75*
G02*
X76615000Y-122625000I0J-100000D01*
G01*
X76615000Y-123900000D01*
G75*
G02*
X76515000Y-124000000I-100000J0D01*
G01*
X76315000Y-124000000D01*
G75*
G02*
X76215000Y-123900000I0J100000D01*
G01*
X76215000Y-122625000D01*
G75*
G02*
X76315000Y-122525000I100000J0D01*
G01*
G37*
G36*
G01*
X76315000Y-116800000D02*
X76515000Y-116800000D01*
G75*
G02*
X76615000Y-116900000I0J-100000D01*
G01*
X76615000Y-118175000D01*
G75*
G02*
X76515000Y-118275000I-100000J0D01*
G01*
X76315000Y-118275000D01*
G75*
G02*
X76215000Y-118175000I0J100000D01*
G01*
X76215000Y-116900000D01*
G75*
G02*
X76315000Y-116800000I100000J0D01*
G01*
G37*
G36*
G01*
X75665000Y-116800000D02*
X75865000Y-116800000D01*
G75*
G02*
X75965000Y-116900000I0J-100000D01*
G01*
X75965000Y-118175000D01*
G75*
G02*
X75865000Y-118275000I-100000J0D01*
G01*
X75665000Y-118275000D01*
G75*
G02*
X75565000Y-118175000I0J100000D01*
G01*
X75565000Y-116900000D01*
G75*
G02*
X75665000Y-116800000I100000J0D01*
G01*
G37*
G36*
G01*
X75015000Y-116800000D02*
X75215000Y-116800000D01*
G75*
G02*
X75315000Y-116900000I0J-100000D01*
G01*
X75315000Y-118175000D01*
G75*
G02*
X75215000Y-118275000I-100000J0D01*
G01*
X75015000Y-118275000D01*
G75*
G02*
X74915000Y-118175000I0J100000D01*
G01*
X74915000Y-116900000D01*
G75*
G02*
X75015000Y-116800000I100000J0D01*
G01*
G37*
G36*
G01*
X74365000Y-116800000D02*
X74565000Y-116800000D01*
G75*
G02*
X74665000Y-116900000I0J-100000D01*
G01*
X74665000Y-118175000D01*
G75*
G02*
X74565000Y-118275000I-100000J0D01*
G01*
X74365000Y-118275000D01*
G75*
G02*
X74265000Y-118175000I0J100000D01*
G01*
X74265000Y-116900000D01*
G75*
G02*
X74365000Y-116800000I100000J0D01*
G01*
G37*
G36*
G01*
X73715000Y-116800000D02*
X73915000Y-116800000D01*
G75*
G02*
X74015000Y-116900000I0J-100000D01*
G01*
X74015000Y-118175000D01*
G75*
G02*
X73915000Y-118275000I-100000J0D01*
G01*
X73715000Y-118275000D01*
G75*
G02*
X73615000Y-118175000I0J100000D01*
G01*
X73615000Y-116900000D01*
G75*
G02*
X73715000Y-116800000I100000J0D01*
G01*
G37*
G36*
G01*
X73065000Y-116800000D02*
X73265000Y-116800000D01*
G75*
G02*
X73365000Y-116900000I0J-100000D01*
G01*
X73365000Y-118175000D01*
G75*
G02*
X73265000Y-118275000I-100000J0D01*
G01*
X73065000Y-118275000D01*
G75*
G02*
X72965000Y-118175000I0J100000D01*
G01*
X72965000Y-116900000D01*
G75*
G02*
X73065000Y-116800000I100000J0D01*
G01*
G37*
G36*
G01*
X72415000Y-116800000D02*
X72615000Y-116800000D01*
G75*
G02*
X72715000Y-116900000I0J-100000D01*
G01*
X72715000Y-118175000D01*
G75*
G02*
X72615000Y-118275000I-100000J0D01*
G01*
X72415000Y-118275000D01*
G75*
G02*
X72315000Y-118175000I0J100000D01*
G01*
X72315000Y-116900000D01*
G75*
G02*
X72415000Y-116800000I100000J0D01*
G01*
G37*
G36*
G01*
X71765000Y-116800000D02*
X71965000Y-116800000D01*
G75*
G02*
X72065000Y-116900000I0J-100000D01*
G01*
X72065000Y-118175000D01*
G75*
G02*
X71965000Y-118275000I-100000J0D01*
G01*
X71765000Y-118275000D01*
G75*
G02*
X71665000Y-118175000I0J100000D01*
G01*
X71665000Y-116900000D01*
G75*
G02*
X71765000Y-116800000I100000J0D01*
G01*
G37*
%TD*%
%TO.C,U21*%
G36*
G01*
X51165000Y-122525000D02*
X51365000Y-122525000D01*
G75*
G02*
X51465000Y-122625000I0J-100000D01*
G01*
X51465000Y-123900000D01*
G75*
G02*
X51365000Y-124000000I-100000J0D01*
G01*
X51165000Y-124000000D01*
G75*
G02*
X51065000Y-123900000I0J100000D01*
G01*
X51065000Y-122625000D01*
G75*
G02*
X51165000Y-122525000I100000J0D01*
G01*
G37*
G36*
G01*
X51815000Y-122525000D02*
X52015000Y-122525000D01*
G75*
G02*
X52115000Y-122625000I0J-100000D01*
G01*
X52115000Y-123900000D01*
G75*
G02*
X52015000Y-124000000I-100000J0D01*
G01*
X51815000Y-124000000D01*
G75*
G02*
X51715000Y-123900000I0J100000D01*
G01*
X51715000Y-122625000D01*
G75*
G02*
X51815000Y-122525000I100000J0D01*
G01*
G37*
G36*
G01*
X52465000Y-122525000D02*
X52665000Y-122525000D01*
G75*
G02*
X52765000Y-122625000I0J-100000D01*
G01*
X52765000Y-123900000D01*
G75*
G02*
X52665000Y-124000000I-100000J0D01*
G01*
X52465000Y-124000000D01*
G75*
G02*
X52365000Y-123900000I0J100000D01*
G01*
X52365000Y-122625000D01*
G75*
G02*
X52465000Y-122525000I100000J0D01*
G01*
G37*
G36*
G01*
X53115000Y-122525000D02*
X53315000Y-122525000D01*
G75*
G02*
X53415000Y-122625000I0J-100000D01*
G01*
X53415000Y-123900000D01*
G75*
G02*
X53315000Y-124000000I-100000J0D01*
G01*
X53115000Y-124000000D01*
G75*
G02*
X53015000Y-123900000I0J100000D01*
G01*
X53015000Y-122625000D01*
G75*
G02*
X53115000Y-122525000I100000J0D01*
G01*
G37*
G36*
G01*
X53765000Y-122525000D02*
X53965000Y-122525000D01*
G75*
G02*
X54065000Y-122625000I0J-100000D01*
G01*
X54065000Y-123900000D01*
G75*
G02*
X53965000Y-124000000I-100000J0D01*
G01*
X53765000Y-124000000D01*
G75*
G02*
X53665000Y-123900000I0J100000D01*
G01*
X53665000Y-122625000D01*
G75*
G02*
X53765000Y-122525000I100000J0D01*
G01*
G37*
G36*
G01*
X54415000Y-122525000D02*
X54615000Y-122525000D01*
G75*
G02*
X54715000Y-122625000I0J-100000D01*
G01*
X54715000Y-123900000D01*
G75*
G02*
X54615000Y-124000000I-100000J0D01*
G01*
X54415000Y-124000000D01*
G75*
G02*
X54315000Y-123900000I0J100000D01*
G01*
X54315000Y-122625000D01*
G75*
G02*
X54415000Y-122525000I100000J0D01*
G01*
G37*
G36*
G01*
X55065000Y-122525000D02*
X55265000Y-122525000D01*
G75*
G02*
X55365000Y-122625000I0J-100000D01*
G01*
X55365000Y-123900000D01*
G75*
G02*
X55265000Y-124000000I-100000J0D01*
G01*
X55065000Y-124000000D01*
G75*
G02*
X54965000Y-123900000I0J100000D01*
G01*
X54965000Y-122625000D01*
G75*
G02*
X55065000Y-122525000I100000J0D01*
G01*
G37*
G36*
G01*
X55715000Y-122525000D02*
X55915000Y-122525000D01*
G75*
G02*
X56015000Y-122625000I0J-100000D01*
G01*
X56015000Y-123900000D01*
G75*
G02*
X55915000Y-124000000I-100000J0D01*
G01*
X55715000Y-124000000D01*
G75*
G02*
X55615000Y-123900000I0J100000D01*
G01*
X55615000Y-122625000D01*
G75*
G02*
X55715000Y-122525000I100000J0D01*
G01*
G37*
G36*
G01*
X55715000Y-116800000D02*
X55915000Y-116800000D01*
G75*
G02*
X56015000Y-116900000I0J-100000D01*
G01*
X56015000Y-118175000D01*
G75*
G02*
X55915000Y-118275000I-100000J0D01*
G01*
X55715000Y-118275000D01*
G75*
G02*
X55615000Y-118175000I0J100000D01*
G01*
X55615000Y-116900000D01*
G75*
G02*
X55715000Y-116800000I100000J0D01*
G01*
G37*
G36*
G01*
X55065000Y-116800000D02*
X55265000Y-116800000D01*
G75*
G02*
X55365000Y-116900000I0J-100000D01*
G01*
X55365000Y-118175000D01*
G75*
G02*
X55265000Y-118275000I-100000J0D01*
G01*
X55065000Y-118275000D01*
G75*
G02*
X54965000Y-118175000I0J100000D01*
G01*
X54965000Y-116900000D01*
G75*
G02*
X55065000Y-116800000I100000J0D01*
G01*
G37*
G36*
G01*
X54415000Y-116800000D02*
X54615000Y-116800000D01*
G75*
G02*
X54715000Y-116900000I0J-100000D01*
G01*
X54715000Y-118175000D01*
G75*
G02*
X54615000Y-118275000I-100000J0D01*
G01*
X54415000Y-118275000D01*
G75*
G02*
X54315000Y-118175000I0J100000D01*
G01*
X54315000Y-116900000D01*
G75*
G02*
X54415000Y-116800000I100000J0D01*
G01*
G37*
G36*
G01*
X53765000Y-116800000D02*
X53965000Y-116800000D01*
G75*
G02*
X54065000Y-116900000I0J-100000D01*
G01*
X54065000Y-118175000D01*
G75*
G02*
X53965000Y-118275000I-100000J0D01*
G01*
X53765000Y-118275000D01*
G75*
G02*
X53665000Y-118175000I0J100000D01*
G01*
X53665000Y-116900000D01*
G75*
G02*
X53765000Y-116800000I100000J0D01*
G01*
G37*
G36*
G01*
X53115000Y-116800000D02*
X53315000Y-116800000D01*
G75*
G02*
X53415000Y-116900000I0J-100000D01*
G01*
X53415000Y-118175000D01*
G75*
G02*
X53315000Y-118275000I-100000J0D01*
G01*
X53115000Y-118275000D01*
G75*
G02*
X53015000Y-118175000I0J100000D01*
G01*
X53015000Y-116900000D01*
G75*
G02*
X53115000Y-116800000I100000J0D01*
G01*
G37*
G36*
G01*
X52465000Y-116800000D02*
X52665000Y-116800000D01*
G75*
G02*
X52765000Y-116900000I0J-100000D01*
G01*
X52765000Y-118175000D01*
G75*
G02*
X52665000Y-118275000I-100000J0D01*
G01*
X52465000Y-118275000D01*
G75*
G02*
X52365000Y-118175000I0J100000D01*
G01*
X52365000Y-116900000D01*
G75*
G02*
X52465000Y-116800000I100000J0D01*
G01*
G37*
G36*
G01*
X51815000Y-116800000D02*
X52015000Y-116800000D01*
G75*
G02*
X52115000Y-116900000I0J-100000D01*
G01*
X52115000Y-118175000D01*
G75*
G02*
X52015000Y-118275000I-100000J0D01*
G01*
X51815000Y-118275000D01*
G75*
G02*
X51715000Y-118175000I0J100000D01*
G01*
X51715000Y-116900000D01*
G75*
G02*
X51815000Y-116800000I100000J0D01*
G01*
G37*
G36*
G01*
X51165000Y-116800000D02*
X51365000Y-116800000D01*
G75*
G02*
X51465000Y-116900000I0J-100000D01*
G01*
X51465000Y-118175000D01*
G75*
G02*
X51365000Y-118275000I-100000J0D01*
G01*
X51165000Y-118275000D01*
G75*
G02*
X51065000Y-118175000I0J100000D01*
G01*
X51065000Y-116900000D01*
G75*
G02*
X51165000Y-116800000I100000J0D01*
G01*
G37*
%TD*%
D14*
%TO.C,RN1*%
X47700000Y-120200000D03*
D15*
X47700000Y-119400000D03*
D14*
X47700000Y-117800000D03*
D15*
X47700000Y-118600000D03*
D14*
X49500000Y-120200000D03*
D15*
X49500000Y-118600000D03*
X49500000Y-119400000D03*
D14*
X49500000Y-117800000D03*
%TD*%
%TO.C,R1*%
G36*
G01*
X49025000Y-122037500D02*
X49025000Y-121562500D01*
G75*
G02*
X49262500Y-121325000I237500J0D01*
G01*
X49762500Y-121325000D01*
G75*
G02*
X50000000Y-121562500I0J-237500D01*
G01*
X50000000Y-122037500D01*
G75*
G02*
X49762500Y-122275000I-237500J0D01*
G01*
X49262500Y-122275000D01*
G75*
G02*
X49025000Y-122037500I0J237500D01*
G01*
G37*
G36*
G01*
X47200000Y-122037500D02*
X47200000Y-121562500D01*
G75*
G02*
X47437500Y-121325000I237500J0D01*
G01*
X47937500Y-121325000D01*
G75*
G02*
X48175000Y-121562500I0J-237500D01*
G01*
X48175000Y-122037500D01*
G75*
G02*
X47937500Y-122275000I-237500J0D01*
G01*
X47437500Y-122275000D01*
G75*
G02*
X47200000Y-122037500I0J237500D01*
G01*
G37*
%TD*%
%TO.C,C20*%
G36*
G01*
X439675000Y-123162500D02*
X439675000Y-123637500D01*
G75*
G02*
X439437500Y-123875000I-237500J0D01*
G01*
X438837500Y-123875000D01*
G75*
G02*
X438600000Y-123637500I0J237500D01*
G01*
X438600000Y-123162500D01*
G75*
G02*
X438837500Y-122925000I237500J0D01*
G01*
X439437500Y-122925000D01*
G75*
G02*
X439675000Y-123162500I0J-237500D01*
G01*
G37*
G36*
G01*
X441400000Y-123162500D02*
X441400000Y-123637500D01*
G75*
G02*
X441162500Y-123875000I-237500J0D01*
G01*
X440562500Y-123875000D01*
G75*
G02*
X440325000Y-123637500I0J237500D01*
G01*
X440325000Y-123162500D01*
G75*
G02*
X440562500Y-122925000I237500J0D01*
G01*
X441162500Y-122925000D01*
G75*
G02*
X441400000Y-123162500I0J-237500D01*
G01*
G37*
%TD*%
%TO.C,C19*%
G36*
G01*
X419075000Y-123162500D02*
X419075000Y-123637500D01*
G75*
G02*
X418837500Y-123875000I-237500J0D01*
G01*
X418237500Y-123875000D01*
G75*
G02*
X418000000Y-123637500I0J237500D01*
G01*
X418000000Y-123162500D01*
G75*
G02*
X418237500Y-122925000I237500J0D01*
G01*
X418837500Y-122925000D01*
G75*
G02*
X419075000Y-123162500I0J-237500D01*
G01*
G37*
G36*
G01*
X420800000Y-123162500D02*
X420800000Y-123637500D01*
G75*
G02*
X420562500Y-123875000I-237500J0D01*
G01*
X419962500Y-123875000D01*
G75*
G02*
X419725000Y-123637500I0J237500D01*
G01*
X419725000Y-123162500D01*
G75*
G02*
X419962500Y-122925000I237500J0D01*
G01*
X420562500Y-122925000D01*
G75*
G02*
X420800000Y-123162500I0J-237500D01*
G01*
G37*
%TD*%
%TO.C,C18*%
G36*
G01*
X398475000Y-123162500D02*
X398475000Y-123637500D01*
G75*
G02*
X398237500Y-123875000I-237500J0D01*
G01*
X397637500Y-123875000D01*
G75*
G02*
X397400000Y-123637500I0J237500D01*
G01*
X397400000Y-123162500D01*
G75*
G02*
X397637500Y-122925000I237500J0D01*
G01*
X398237500Y-122925000D01*
G75*
G02*
X398475000Y-123162500I0J-237500D01*
G01*
G37*
G36*
G01*
X400200000Y-123162500D02*
X400200000Y-123637500D01*
G75*
G02*
X399962500Y-123875000I-237500J0D01*
G01*
X399362500Y-123875000D01*
G75*
G02*
X399125000Y-123637500I0J237500D01*
G01*
X399125000Y-123162500D01*
G75*
G02*
X399362500Y-122925000I237500J0D01*
G01*
X399962500Y-122925000D01*
G75*
G02*
X400200000Y-123162500I0J-237500D01*
G01*
G37*
%TD*%
%TO.C,C17*%
G36*
G01*
X377875000Y-123162500D02*
X377875000Y-123637500D01*
G75*
G02*
X377637500Y-123875000I-237500J0D01*
G01*
X377037500Y-123875000D01*
G75*
G02*
X376800000Y-123637500I0J237500D01*
G01*
X376800000Y-123162500D01*
G75*
G02*
X377037500Y-122925000I237500J0D01*
G01*
X377637500Y-122925000D01*
G75*
G02*
X377875000Y-123162500I0J-237500D01*
G01*
G37*
G36*
G01*
X379600000Y-123162500D02*
X379600000Y-123637500D01*
G75*
G02*
X379362500Y-123875000I-237500J0D01*
G01*
X378762500Y-123875000D01*
G75*
G02*
X378525000Y-123637500I0J237500D01*
G01*
X378525000Y-123162500D01*
G75*
G02*
X378762500Y-122925000I237500J0D01*
G01*
X379362500Y-122925000D01*
G75*
G02*
X379600000Y-123162500I0J-237500D01*
G01*
G37*
%TD*%
%TO.C,C16*%
G36*
G01*
X357275000Y-123162500D02*
X357275000Y-123637500D01*
G75*
G02*
X357037500Y-123875000I-237500J0D01*
G01*
X356437500Y-123875000D01*
G75*
G02*
X356200000Y-123637500I0J237500D01*
G01*
X356200000Y-123162500D01*
G75*
G02*
X356437500Y-122925000I237500J0D01*
G01*
X357037500Y-122925000D01*
G75*
G02*
X357275000Y-123162500I0J-237500D01*
G01*
G37*
G36*
G01*
X359000000Y-123162500D02*
X359000000Y-123637500D01*
G75*
G02*
X358762500Y-123875000I-237500J0D01*
G01*
X358162500Y-123875000D01*
G75*
G02*
X357925000Y-123637500I0J237500D01*
G01*
X357925000Y-123162500D01*
G75*
G02*
X358162500Y-122925000I237500J0D01*
G01*
X358762500Y-122925000D01*
G75*
G02*
X359000000Y-123162500I0J-237500D01*
G01*
G37*
%TD*%
%TO.C,C15*%
G36*
G01*
X336675000Y-123162500D02*
X336675000Y-123637500D01*
G75*
G02*
X336437500Y-123875000I-237500J0D01*
G01*
X335837500Y-123875000D01*
G75*
G02*
X335600000Y-123637500I0J237500D01*
G01*
X335600000Y-123162500D01*
G75*
G02*
X335837500Y-122925000I237500J0D01*
G01*
X336437500Y-122925000D01*
G75*
G02*
X336675000Y-123162500I0J-237500D01*
G01*
G37*
G36*
G01*
X338400000Y-123162500D02*
X338400000Y-123637500D01*
G75*
G02*
X338162500Y-123875000I-237500J0D01*
G01*
X337562500Y-123875000D01*
G75*
G02*
X337325000Y-123637500I0J237500D01*
G01*
X337325000Y-123162500D01*
G75*
G02*
X337562500Y-122925000I237500J0D01*
G01*
X338162500Y-122925000D01*
G75*
G02*
X338400000Y-123162500I0J-237500D01*
G01*
G37*
%TD*%
%TO.C,C14*%
G36*
G01*
X316075000Y-123162500D02*
X316075000Y-123637500D01*
G75*
G02*
X315837500Y-123875000I-237500J0D01*
G01*
X315237500Y-123875000D01*
G75*
G02*
X315000000Y-123637500I0J237500D01*
G01*
X315000000Y-123162500D01*
G75*
G02*
X315237500Y-122925000I237500J0D01*
G01*
X315837500Y-122925000D01*
G75*
G02*
X316075000Y-123162500I0J-237500D01*
G01*
G37*
G36*
G01*
X317800000Y-123162500D02*
X317800000Y-123637500D01*
G75*
G02*
X317562500Y-123875000I-237500J0D01*
G01*
X316962500Y-123875000D01*
G75*
G02*
X316725000Y-123637500I0J237500D01*
G01*
X316725000Y-123162500D01*
G75*
G02*
X316962500Y-122925000I237500J0D01*
G01*
X317562500Y-122925000D01*
G75*
G02*
X317800000Y-123162500I0J-237500D01*
G01*
G37*
%TD*%
%TO.C,C13*%
G36*
G01*
X295475000Y-123162500D02*
X295475000Y-123637500D01*
G75*
G02*
X295237500Y-123875000I-237500J0D01*
G01*
X294637500Y-123875000D01*
G75*
G02*
X294400000Y-123637500I0J237500D01*
G01*
X294400000Y-123162500D01*
G75*
G02*
X294637500Y-122925000I237500J0D01*
G01*
X295237500Y-122925000D01*
G75*
G02*
X295475000Y-123162500I0J-237500D01*
G01*
G37*
G36*
G01*
X297200000Y-123162500D02*
X297200000Y-123637500D01*
G75*
G02*
X296962500Y-123875000I-237500J0D01*
G01*
X296362500Y-123875000D01*
G75*
G02*
X296125000Y-123637500I0J237500D01*
G01*
X296125000Y-123162500D01*
G75*
G02*
X296362500Y-122925000I237500J0D01*
G01*
X296962500Y-122925000D01*
G75*
G02*
X297200000Y-123162500I0J-237500D01*
G01*
G37*
%TD*%
%TO.C,C12*%
G36*
G01*
X274875000Y-123162500D02*
X274875000Y-123637500D01*
G75*
G02*
X274637500Y-123875000I-237500J0D01*
G01*
X274037500Y-123875000D01*
G75*
G02*
X273800000Y-123637500I0J237500D01*
G01*
X273800000Y-123162500D01*
G75*
G02*
X274037500Y-122925000I237500J0D01*
G01*
X274637500Y-122925000D01*
G75*
G02*
X274875000Y-123162500I0J-237500D01*
G01*
G37*
G36*
G01*
X276600000Y-123162500D02*
X276600000Y-123637500D01*
G75*
G02*
X276362500Y-123875000I-237500J0D01*
G01*
X275762500Y-123875000D01*
G75*
G02*
X275525000Y-123637500I0J237500D01*
G01*
X275525000Y-123162500D01*
G75*
G02*
X275762500Y-122925000I237500J0D01*
G01*
X276362500Y-122925000D01*
G75*
G02*
X276600000Y-123162500I0J-237500D01*
G01*
G37*
%TD*%
%TO.C,C11*%
G36*
G01*
X254275000Y-123162500D02*
X254275000Y-123637500D01*
G75*
G02*
X254037500Y-123875000I-237500J0D01*
G01*
X253437500Y-123875000D01*
G75*
G02*
X253200000Y-123637500I0J237500D01*
G01*
X253200000Y-123162500D01*
G75*
G02*
X253437500Y-122925000I237500J0D01*
G01*
X254037500Y-122925000D01*
G75*
G02*
X254275000Y-123162500I0J-237500D01*
G01*
G37*
G36*
G01*
X256000000Y-123162500D02*
X256000000Y-123637500D01*
G75*
G02*
X255762500Y-123875000I-237500J0D01*
G01*
X255162500Y-123875000D01*
G75*
G02*
X254925000Y-123637500I0J237500D01*
G01*
X254925000Y-123162500D01*
G75*
G02*
X255162500Y-122925000I237500J0D01*
G01*
X255762500Y-122925000D01*
G75*
G02*
X256000000Y-123162500I0J-237500D01*
G01*
G37*
%TD*%
%TO.C,C10*%
G36*
G01*
X233675000Y-123162500D02*
X233675000Y-123637500D01*
G75*
G02*
X233437500Y-123875000I-237500J0D01*
G01*
X232837500Y-123875000D01*
G75*
G02*
X232600000Y-123637500I0J237500D01*
G01*
X232600000Y-123162500D01*
G75*
G02*
X232837500Y-122925000I237500J0D01*
G01*
X233437500Y-122925000D01*
G75*
G02*
X233675000Y-123162500I0J-237500D01*
G01*
G37*
G36*
G01*
X235400000Y-123162500D02*
X235400000Y-123637500D01*
G75*
G02*
X235162500Y-123875000I-237500J0D01*
G01*
X234562500Y-123875000D01*
G75*
G02*
X234325000Y-123637500I0J237500D01*
G01*
X234325000Y-123162500D01*
G75*
G02*
X234562500Y-122925000I237500J0D01*
G01*
X235162500Y-122925000D01*
G75*
G02*
X235400000Y-123162500I0J-237500D01*
G01*
G37*
%TD*%
%TO.C,C9*%
G36*
G01*
X213075000Y-123162500D02*
X213075000Y-123637500D01*
G75*
G02*
X212837500Y-123875000I-237500J0D01*
G01*
X212237500Y-123875000D01*
G75*
G02*
X212000000Y-123637500I0J237500D01*
G01*
X212000000Y-123162500D01*
G75*
G02*
X212237500Y-122925000I237500J0D01*
G01*
X212837500Y-122925000D01*
G75*
G02*
X213075000Y-123162500I0J-237500D01*
G01*
G37*
G36*
G01*
X214800000Y-123162500D02*
X214800000Y-123637500D01*
G75*
G02*
X214562500Y-123875000I-237500J0D01*
G01*
X213962500Y-123875000D01*
G75*
G02*
X213725000Y-123637500I0J237500D01*
G01*
X213725000Y-123162500D01*
G75*
G02*
X213962500Y-122925000I237500J0D01*
G01*
X214562500Y-122925000D01*
G75*
G02*
X214800000Y-123162500I0J-237500D01*
G01*
G37*
%TD*%
%TO.C,C8*%
G36*
G01*
X192475000Y-123162500D02*
X192475000Y-123637500D01*
G75*
G02*
X192237500Y-123875000I-237500J0D01*
G01*
X191637500Y-123875000D01*
G75*
G02*
X191400000Y-123637500I0J237500D01*
G01*
X191400000Y-123162500D01*
G75*
G02*
X191637500Y-122925000I237500J0D01*
G01*
X192237500Y-122925000D01*
G75*
G02*
X192475000Y-123162500I0J-237500D01*
G01*
G37*
G36*
G01*
X194200000Y-123162500D02*
X194200000Y-123637500D01*
G75*
G02*
X193962500Y-123875000I-237500J0D01*
G01*
X193362500Y-123875000D01*
G75*
G02*
X193125000Y-123637500I0J237500D01*
G01*
X193125000Y-123162500D01*
G75*
G02*
X193362500Y-122925000I237500J0D01*
G01*
X193962500Y-122925000D01*
G75*
G02*
X194200000Y-123162500I0J-237500D01*
G01*
G37*
%TD*%
%TO.C,C7*%
G36*
G01*
X171875000Y-123162500D02*
X171875000Y-123637500D01*
G75*
G02*
X171637500Y-123875000I-237500J0D01*
G01*
X171037500Y-123875000D01*
G75*
G02*
X170800000Y-123637500I0J237500D01*
G01*
X170800000Y-123162500D01*
G75*
G02*
X171037500Y-122925000I237500J0D01*
G01*
X171637500Y-122925000D01*
G75*
G02*
X171875000Y-123162500I0J-237500D01*
G01*
G37*
G36*
G01*
X173600000Y-123162500D02*
X173600000Y-123637500D01*
G75*
G02*
X173362500Y-123875000I-237500J0D01*
G01*
X172762500Y-123875000D01*
G75*
G02*
X172525000Y-123637500I0J237500D01*
G01*
X172525000Y-123162500D01*
G75*
G02*
X172762500Y-122925000I237500J0D01*
G01*
X173362500Y-122925000D01*
G75*
G02*
X173600000Y-123162500I0J-237500D01*
G01*
G37*
%TD*%
%TO.C,C6*%
G36*
G01*
X151275000Y-123162500D02*
X151275000Y-123637500D01*
G75*
G02*
X151037500Y-123875000I-237500J0D01*
G01*
X150437500Y-123875000D01*
G75*
G02*
X150200000Y-123637500I0J237500D01*
G01*
X150200000Y-123162500D01*
G75*
G02*
X150437500Y-122925000I237500J0D01*
G01*
X151037500Y-122925000D01*
G75*
G02*
X151275000Y-123162500I0J-237500D01*
G01*
G37*
G36*
G01*
X153000000Y-123162500D02*
X153000000Y-123637500D01*
G75*
G02*
X152762500Y-123875000I-237500J0D01*
G01*
X152162500Y-123875000D01*
G75*
G02*
X151925000Y-123637500I0J237500D01*
G01*
X151925000Y-123162500D01*
G75*
G02*
X152162500Y-122925000I237500J0D01*
G01*
X152762500Y-122925000D01*
G75*
G02*
X153000000Y-123162500I0J-237500D01*
G01*
G37*
%TD*%
%TO.C,C5*%
G36*
G01*
X130675000Y-123162500D02*
X130675000Y-123637500D01*
G75*
G02*
X130437500Y-123875000I-237500J0D01*
G01*
X129837500Y-123875000D01*
G75*
G02*
X129600000Y-123637500I0J237500D01*
G01*
X129600000Y-123162500D01*
G75*
G02*
X129837500Y-122925000I237500J0D01*
G01*
X130437500Y-122925000D01*
G75*
G02*
X130675000Y-123162500I0J-237500D01*
G01*
G37*
G36*
G01*
X132400000Y-123162500D02*
X132400000Y-123637500D01*
G75*
G02*
X132162500Y-123875000I-237500J0D01*
G01*
X131562500Y-123875000D01*
G75*
G02*
X131325000Y-123637500I0J237500D01*
G01*
X131325000Y-123162500D01*
G75*
G02*
X131562500Y-122925000I237500J0D01*
G01*
X132162500Y-122925000D01*
G75*
G02*
X132400000Y-123162500I0J-237500D01*
G01*
G37*
%TD*%
%TO.C,C4*%
G36*
G01*
X110075000Y-123162500D02*
X110075000Y-123637500D01*
G75*
G02*
X109837500Y-123875000I-237500J0D01*
G01*
X109237500Y-123875000D01*
G75*
G02*
X109000000Y-123637500I0J237500D01*
G01*
X109000000Y-123162500D01*
G75*
G02*
X109237500Y-122925000I237500J0D01*
G01*
X109837500Y-122925000D01*
G75*
G02*
X110075000Y-123162500I0J-237500D01*
G01*
G37*
G36*
G01*
X111800000Y-123162500D02*
X111800000Y-123637500D01*
G75*
G02*
X111562500Y-123875000I-237500J0D01*
G01*
X110962500Y-123875000D01*
G75*
G02*
X110725000Y-123637500I0J237500D01*
G01*
X110725000Y-123162500D01*
G75*
G02*
X110962500Y-122925000I237500J0D01*
G01*
X111562500Y-122925000D01*
G75*
G02*
X111800000Y-123162500I0J-237500D01*
G01*
G37*
%TD*%
%TO.C,C3*%
G36*
G01*
X89475000Y-123162500D02*
X89475000Y-123637500D01*
G75*
G02*
X89237500Y-123875000I-237500J0D01*
G01*
X88637500Y-123875000D01*
G75*
G02*
X88400000Y-123637500I0J237500D01*
G01*
X88400000Y-123162500D01*
G75*
G02*
X88637500Y-122925000I237500J0D01*
G01*
X89237500Y-122925000D01*
G75*
G02*
X89475000Y-123162500I0J-237500D01*
G01*
G37*
G36*
G01*
X91200000Y-123162500D02*
X91200000Y-123637500D01*
G75*
G02*
X90962500Y-123875000I-237500J0D01*
G01*
X90362500Y-123875000D01*
G75*
G02*
X90125000Y-123637500I0J237500D01*
G01*
X90125000Y-123162500D01*
G75*
G02*
X90362500Y-122925000I237500J0D01*
G01*
X90962500Y-122925000D01*
G75*
G02*
X91200000Y-123162500I0J-237500D01*
G01*
G37*
%TD*%
%TO.C,C2*%
G36*
G01*
X68875000Y-123162500D02*
X68875000Y-123637500D01*
G75*
G02*
X68637500Y-123875000I-237500J0D01*
G01*
X68037500Y-123875000D01*
G75*
G02*
X67800000Y-123637500I0J237500D01*
G01*
X67800000Y-123162500D01*
G75*
G02*
X68037500Y-122925000I237500J0D01*
G01*
X68637500Y-122925000D01*
G75*
G02*
X68875000Y-123162500I0J-237500D01*
G01*
G37*
G36*
G01*
X70600000Y-123162500D02*
X70600000Y-123637500D01*
G75*
G02*
X70362500Y-123875000I-237500J0D01*
G01*
X69762500Y-123875000D01*
G75*
G02*
X69525000Y-123637500I0J237500D01*
G01*
X69525000Y-123162500D01*
G75*
G02*
X69762500Y-122925000I237500J0D01*
G01*
X70362500Y-122925000D01*
G75*
G02*
X70600000Y-123162500I0J-237500D01*
G01*
G37*
%TD*%
%TO.C,C1*%
G36*
G01*
X48275000Y-123162500D02*
X48275000Y-123637500D01*
G75*
G02*
X48037500Y-123875000I-237500J0D01*
G01*
X47437500Y-123875000D01*
G75*
G02*
X47200000Y-123637500I0J237500D01*
G01*
X47200000Y-123162500D01*
G75*
G02*
X47437500Y-122925000I237500J0D01*
G01*
X48037500Y-122925000D01*
G75*
G02*
X48275000Y-123162500I0J-237500D01*
G01*
G37*
G36*
G01*
X50000000Y-123162500D02*
X50000000Y-123637500D01*
G75*
G02*
X49762500Y-123875000I-237500J0D01*
G01*
X49162500Y-123875000D01*
G75*
G02*
X48925000Y-123637500I0J237500D01*
G01*
X48925000Y-123162500D01*
G75*
G02*
X49162500Y-122925000I237500J0D01*
G01*
X49762500Y-122925000D01*
G75*
G02*
X50000000Y-123162500I0J-237500D01*
G01*
G37*
%TD*%
%TO.C,U20*%
G36*
G01*
X448255000Y-106574998D02*
X448255000Y-107625002D01*
G75*
G02*
X448005002Y-107875000I-249998J0D01*
G01*
X446954998Y-107875000D01*
G75*
G02*
X446705000Y-107625002I0J249998D01*
G01*
X446705000Y-106574998D01*
G75*
G02*
X446954998Y-106325000I249998J0D01*
G01*
X448005002Y-106325000D01*
G75*
G02*
X448255000Y-106574998I0J-249998D01*
G01*
G37*
D11*
X447480000Y-104560000D03*
X447480000Y-102020000D03*
X447480000Y-99480000D03*
X447480000Y-96940000D03*
X447480000Y-94400000D03*
X447480000Y-91860000D03*
X447480000Y-89320000D03*
X447480000Y-86780000D03*
X447480000Y-84240000D03*
X447480000Y-81700000D03*
X447480000Y-79160000D03*
X447480000Y-76620000D03*
X447480000Y-74080000D03*
X447480000Y-71540000D03*
X447480000Y-69000000D03*
X444940000Y-107100000D03*
X444940000Y-104560000D03*
X444940000Y-102020000D03*
X444940000Y-99480000D03*
X444940000Y-96940000D03*
X444940000Y-94400000D03*
X444940000Y-91860000D03*
X444940000Y-89320000D03*
X444940000Y-86780000D03*
X444940000Y-84240000D03*
X444940000Y-81700000D03*
X444940000Y-79160000D03*
X444940000Y-76620000D03*
X444940000Y-74080000D03*
X444940000Y-71540000D03*
X444940000Y-69000000D03*
X442400000Y-107100000D03*
X442400000Y-104560000D03*
X442400000Y-102020000D03*
X442400000Y-99480000D03*
X442400000Y-96940000D03*
X442400000Y-94400000D03*
X442400000Y-91860000D03*
X442400000Y-89320000D03*
X442400000Y-86780000D03*
X442400000Y-84240000D03*
X442400000Y-81700000D03*
X442400000Y-79160000D03*
X442400000Y-76620000D03*
X442400000Y-74080000D03*
X442400000Y-71540000D03*
X442400000Y-69000000D03*
D12*
X445240000Y-113050000D03*
X445240000Y-63050000D03*
%TD*%
%TO.C,U18*%
G36*
G01*
X407055000Y-106574998D02*
X407055000Y-107625002D01*
G75*
G02*
X406805002Y-107875000I-249998J0D01*
G01*
X405754998Y-107875000D01*
G75*
G02*
X405505000Y-107625002I0J249998D01*
G01*
X405505000Y-106574998D01*
G75*
G02*
X405754998Y-106325000I249998J0D01*
G01*
X406805002Y-106325000D01*
G75*
G02*
X407055000Y-106574998I0J-249998D01*
G01*
G37*
D11*
X406280000Y-104560000D03*
X406280000Y-102020000D03*
X406280000Y-99480000D03*
X406280000Y-96940000D03*
X406280000Y-94400000D03*
X406280000Y-91860000D03*
X406280000Y-89320000D03*
X406280000Y-86780000D03*
X406280000Y-84240000D03*
X406280000Y-81700000D03*
X406280000Y-79160000D03*
X406280000Y-76620000D03*
X406280000Y-74080000D03*
X406280000Y-71540000D03*
X406280000Y-69000000D03*
X403740000Y-107100000D03*
X403740000Y-104560000D03*
X403740000Y-102020000D03*
X403740000Y-99480000D03*
X403740000Y-96940000D03*
X403740000Y-94400000D03*
X403740000Y-91860000D03*
X403740000Y-89320000D03*
X403740000Y-86780000D03*
X403740000Y-84240000D03*
X403740000Y-81700000D03*
X403740000Y-79160000D03*
X403740000Y-76620000D03*
X403740000Y-74080000D03*
X403740000Y-71540000D03*
X403740000Y-69000000D03*
X401200000Y-107100000D03*
X401200000Y-104560000D03*
X401200000Y-102020000D03*
X401200000Y-99480000D03*
X401200000Y-96940000D03*
X401200000Y-94400000D03*
X401200000Y-91860000D03*
X401200000Y-89320000D03*
X401200000Y-86780000D03*
X401200000Y-84240000D03*
X401200000Y-81700000D03*
X401200000Y-79160000D03*
X401200000Y-76620000D03*
X401200000Y-74080000D03*
X401200000Y-71540000D03*
X401200000Y-69000000D03*
D12*
X404040000Y-113050000D03*
X404040000Y-63050000D03*
%TD*%
%TO.C,U17*%
G36*
G01*
X386455000Y-106574998D02*
X386455000Y-107625002D01*
G75*
G02*
X386205002Y-107875000I-249998J0D01*
G01*
X385154998Y-107875000D01*
G75*
G02*
X384905000Y-107625002I0J249998D01*
G01*
X384905000Y-106574998D01*
G75*
G02*
X385154998Y-106325000I249998J0D01*
G01*
X386205002Y-106325000D01*
G75*
G02*
X386455000Y-106574998I0J-249998D01*
G01*
G37*
D11*
X385680000Y-104560000D03*
X385680000Y-102020000D03*
X385680000Y-99480000D03*
X385680000Y-96940000D03*
X385680000Y-94400000D03*
X385680000Y-91860000D03*
X385680000Y-89320000D03*
X385680000Y-86780000D03*
X385680000Y-84240000D03*
X385680000Y-81700000D03*
X385680000Y-79160000D03*
X385680000Y-76620000D03*
X385680000Y-74080000D03*
X385680000Y-71540000D03*
X385680000Y-69000000D03*
X383140000Y-107100000D03*
X383140000Y-104560000D03*
X383140000Y-102020000D03*
X383140000Y-99480000D03*
X383140000Y-96940000D03*
X383140000Y-94400000D03*
X383140000Y-91860000D03*
X383140000Y-89320000D03*
X383140000Y-86780000D03*
X383140000Y-84240000D03*
X383140000Y-81700000D03*
X383140000Y-79160000D03*
X383140000Y-76620000D03*
X383140000Y-74080000D03*
X383140000Y-71540000D03*
X383140000Y-69000000D03*
X380600000Y-107100000D03*
X380600000Y-104560000D03*
X380600000Y-102020000D03*
X380600000Y-99480000D03*
X380600000Y-96940000D03*
X380600000Y-94400000D03*
X380600000Y-91860000D03*
X380600000Y-89320000D03*
X380600000Y-86780000D03*
X380600000Y-84240000D03*
X380600000Y-81700000D03*
X380600000Y-79160000D03*
X380600000Y-76620000D03*
X380600000Y-74080000D03*
X380600000Y-71540000D03*
X380600000Y-69000000D03*
D12*
X383440000Y-113050000D03*
X383440000Y-63050000D03*
%TD*%
%TO.C,U16*%
G36*
G01*
X365855000Y-106574998D02*
X365855000Y-107625002D01*
G75*
G02*
X365605002Y-107875000I-249998J0D01*
G01*
X364554998Y-107875000D01*
G75*
G02*
X364305000Y-107625002I0J249998D01*
G01*
X364305000Y-106574998D01*
G75*
G02*
X364554998Y-106325000I249998J0D01*
G01*
X365605002Y-106325000D01*
G75*
G02*
X365855000Y-106574998I0J-249998D01*
G01*
G37*
D11*
X365080000Y-104560000D03*
X365080000Y-102020000D03*
X365080000Y-99480000D03*
X365080000Y-96940000D03*
X365080000Y-94400000D03*
X365080000Y-91860000D03*
X365080000Y-89320000D03*
X365080000Y-86780000D03*
X365080000Y-84240000D03*
X365080000Y-81700000D03*
X365080000Y-79160000D03*
X365080000Y-76620000D03*
X365080000Y-74080000D03*
X365080000Y-71540000D03*
X365080000Y-69000000D03*
X362540000Y-107100000D03*
X362540000Y-104560000D03*
X362540000Y-102020000D03*
X362540000Y-99480000D03*
X362540000Y-96940000D03*
X362540000Y-94400000D03*
X362540000Y-91860000D03*
X362540000Y-89320000D03*
X362540000Y-86780000D03*
X362540000Y-84240000D03*
X362540000Y-81700000D03*
X362540000Y-79160000D03*
X362540000Y-76620000D03*
X362540000Y-74080000D03*
X362540000Y-71540000D03*
X362540000Y-69000000D03*
X360000000Y-107100000D03*
X360000000Y-104560000D03*
X360000000Y-102020000D03*
X360000000Y-99480000D03*
X360000000Y-96940000D03*
X360000000Y-94400000D03*
X360000000Y-91860000D03*
X360000000Y-89320000D03*
X360000000Y-86780000D03*
X360000000Y-84240000D03*
X360000000Y-81700000D03*
X360000000Y-79160000D03*
X360000000Y-76620000D03*
X360000000Y-74080000D03*
X360000000Y-71540000D03*
X360000000Y-69000000D03*
D12*
X362840000Y-113050000D03*
X362840000Y-63050000D03*
%TD*%
%TO.C,U15*%
G36*
G01*
X345255000Y-106574998D02*
X345255000Y-107625002D01*
G75*
G02*
X345005002Y-107875000I-249998J0D01*
G01*
X343954998Y-107875000D01*
G75*
G02*
X343705000Y-107625002I0J249998D01*
G01*
X343705000Y-106574998D01*
G75*
G02*
X343954998Y-106325000I249998J0D01*
G01*
X345005002Y-106325000D01*
G75*
G02*
X345255000Y-106574998I0J-249998D01*
G01*
G37*
D11*
X344480000Y-104560000D03*
X344480000Y-102020000D03*
X344480000Y-99480000D03*
X344480000Y-96940000D03*
X344480000Y-94400000D03*
X344480000Y-91860000D03*
X344480000Y-89320000D03*
X344480000Y-86780000D03*
X344480000Y-84240000D03*
X344480000Y-81700000D03*
X344480000Y-79160000D03*
X344480000Y-76620000D03*
X344480000Y-74080000D03*
X344480000Y-71540000D03*
X344480000Y-69000000D03*
X341940000Y-107100000D03*
X341940000Y-104560000D03*
X341940000Y-102020000D03*
X341940000Y-99480000D03*
X341940000Y-96940000D03*
X341940000Y-94400000D03*
X341940000Y-91860000D03*
X341940000Y-89320000D03*
X341940000Y-86780000D03*
X341940000Y-84240000D03*
X341940000Y-81700000D03*
X341940000Y-79160000D03*
X341940000Y-76620000D03*
X341940000Y-74080000D03*
X341940000Y-71540000D03*
X341940000Y-69000000D03*
X339400000Y-107100000D03*
X339400000Y-104560000D03*
X339400000Y-102020000D03*
X339400000Y-99480000D03*
X339400000Y-96940000D03*
X339400000Y-94400000D03*
X339400000Y-91860000D03*
X339400000Y-89320000D03*
X339400000Y-86780000D03*
X339400000Y-84240000D03*
X339400000Y-81700000D03*
X339400000Y-79160000D03*
X339400000Y-76620000D03*
X339400000Y-74080000D03*
X339400000Y-71540000D03*
X339400000Y-69000000D03*
D12*
X342240000Y-113050000D03*
X342240000Y-63050000D03*
%TD*%
%TO.C,U14*%
G36*
G01*
X324655000Y-106574998D02*
X324655000Y-107625002D01*
G75*
G02*
X324405002Y-107875000I-249998J0D01*
G01*
X323354998Y-107875000D01*
G75*
G02*
X323105000Y-107625002I0J249998D01*
G01*
X323105000Y-106574998D01*
G75*
G02*
X323354998Y-106325000I249998J0D01*
G01*
X324405002Y-106325000D01*
G75*
G02*
X324655000Y-106574998I0J-249998D01*
G01*
G37*
D11*
X323880000Y-104560000D03*
X323880000Y-102020000D03*
X323880000Y-99480000D03*
X323880000Y-96940000D03*
X323880000Y-94400000D03*
X323880000Y-91860000D03*
X323880000Y-89320000D03*
X323880000Y-86780000D03*
X323880000Y-84240000D03*
X323880000Y-81700000D03*
X323880000Y-79160000D03*
X323880000Y-76620000D03*
X323880000Y-74080000D03*
X323880000Y-71540000D03*
X323880000Y-69000000D03*
X321340000Y-107100000D03*
X321340000Y-104560000D03*
X321340000Y-102020000D03*
X321340000Y-99480000D03*
X321340000Y-96940000D03*
X321340000Y-94400000D03*
X321340000Y-91860000D03*
X321340000Y-89320000D03*
X321340000Y-86780000D03*
X321340000Y-84240000D03*
X321340000Y-81700000D03*
X321340000Y-79160000D03*
X321340000Y-76620000D03*
X321340000Y-74080000D03*
X321340000Y-71540000D03*
X321340000Y-69000000D03*
X318800000Y-107100000D03*
X318800000Y-104560000D03*
X318800000Y-102020000D03*
X318800000Y-99480000D03*
X318800000Y-96940000D03*
X318800000Y-94400000D03*
X318800000Y-91860000D03*
X318800000Y-89320000D03*
X318800000Y-86780000D03*
X318800000Y-84240000D03*
X318800000Y-81700000D03*
X318800000Y-79160000D03*
X318800000Y-76620000D03*
X318800000Y-74080000D03*
X318800000Y-71540000D03*
X318800000Y-69000000D03*
D12*
X321640000Y-113050000D03*
X321640000Y-63050000D03*
%TD*%
%TO.C,U13*%
G36*
G01*
X304055000Y-106574998D02*
X304055000Y-107625002D01*
G75*
G02*
X303805002Y-107875000I-249998J0D01*
G01*
X302754998Y-107875000D01*
G75*
G02*
X302505000Y-107625002I0J249998D01*
G01*
X302505000Y-106574998D01*
G75*
G02*
X302754998Y-106325000I249998J0D01*
G01*
X303805002Y-106325000D01*
G75*
G02*
X304055000Y-106574998I0J-249998D01*
G01*
G37*
D11*
X303280000Y-104560000D03*
X303280000Y-102020000D03*
X303280000Y-99480000D03*
X303280000Y-96940000D03*
X303280000Y-94400000D03*
X303280000Y-91860000D03*
X303280000Y-89320000D03*
X303280000Y-86780000D03*
X303280000Y-84240000D03*
X303280000Y-81700000D03*
X303280000Y-79160000D03*
X303280000Y-76620000D03*
X303280000Y-74080000D03*
X303280000Y-71540000D03*
X303280000Y-69000000D03*
X300740000Y-107100000D03*
X300740000Y-104560000D03*
X300740000Y-102020000D03*
X300740000Y-99480000D03*
X300740000Y-96940000D03*
X300740000Y-94400000D03*
X300740000Y-91860000D03*
X300740000Y-89320000D03*
X300740000Y-86780000D03*
X300740000Y-84240000D03*
X300740000Y-81700000D03*
X300740000Y-79160000D03*
X300740000Y-76620000D03*
X300740000Y-74080000D03*
X300740000Y-71540000D03*
X300740000Y-69000000D03*
X298200000Y-107100000D03*
X298200000Y-104560000D03*
X298200000Y-102020000D03*
X298200000Y-99480000D03*
X298200000Y-96940000D03*
X298200000Y-94400000D03*
X298200000Y-91860000D03*
X298200000Y-89320000D03*
X298200000Y-86780000D03*
X298200000Y-84240000D03*
X298200000Y-81700000D03*
X298200000Y-79160000D03*
X298200000Y-76620000D03*
X298200000Y-74080000D03*
X298200000Y-71540000D03*
X298200000Y-69000000D03*
D12*
X301040000Y-113050000D03*
X301040000Y-63050000D03*
%TD*%
%TO.C,U12*%
G36*
G01*
X283455000Y-106574998D02*
X283455000Y-107625002D01*
G75*
G02*
X283205002Y-107875000I-249998J0D01*
G01*
X282154998Y-107875000D01*
G75*
G02*
X281905000Y-107625002I0J249998D01*
G01*
X281905000Y-106574998D01*
G75*
G02*
X282154998Y-106325000I249998J0D01*
G01*
X283205002Y-106325000D01*
G75*
G02*
X283455000Y-106574998I0J-249998D01*
G01*
G37*
D11*
X282680000Y-104560000D03*
X282680000Y-102020000D03*
X282680000Y-99480000D03*
X282680000Y-96940000D03*
X282680000Y-94400000D03*
X282680000Y-91860000D03*
X282680000Y-89320000D03*
X282680000Y-86780000D03*
X282680000Y-84240000D03*
X282680000Y-81700000D03*
X282680000Y-79160000D03*
X282680000Y-76620000D03*
X282680000Y-74080000D03*
X282680000Y-71540000D03*
X282680000Y-69000000D03*
X280140000Y-107100000D03*
X280140000Y-104560000D03*
X280140000Y-102020000D03*
X280140000Y-99480000D03*
X280140000Y-96940000D03*
X280140000Y-94400000D03*
X280140000Y-91860000D03*
X280140000Y-89320000D03*
X280140000Y-86780000D03*
X280140000Y-84240000D03*
X280140000Y-81700000D03*
X280140000Y-79160000D03*
X280140000Y-76620000D03*
X280140000Y-74080000D03*
X280140000Y-71540000D03*
X280140000Y-69000000D03*
X277600000Y-107100000D03*
X277600000Y-104560000D03*
X277600000Y-102020000D03*
X277600000Y-99480000D03*
X277600000Y-96940000D03*
X277600000Y-94400000D03*
X277600000Y-91860000D03*
X277600000Y-89320000D03*
X277600000Y-86780000D03*
X277600000Y-84240000D03*
X277600000Y-81700000D03*
X277600000Y-79160000D03*
X277600000Y-76620000D03*
X277600000Y-74080000D03*
X277600000Y-71540000D03*
X277600000Y-69000000D03*
D12*
X280440000Y-113050000D03*
X280440000Y-63050000D03*
%TD*%
%TO.C,U11*%
G36*
G01*
X262855000Y-106574998D02*
X262855000Y-107625002D01*
G75*
G02*
X262605002Y-107875000I-249998J0D01*
G01*
X261554998Y-107875000D01*
G75*
G02*
X261305000Y-107625002I0J249998D01*
G01*
X261305000Y-106574998D01*
G75*
G02*
X261554998Y-106325000I249998J0D01*
G01*
X262605002Y-106325000D01*
G75*
G02*
X262855000Y-106574998I0J-249998D01*
G01*
G37*
D11*
X262080000Y-104560000D03*
X262080000Y-102020000D03*
X262080000Y-99480000D03*
X262080000Y-96940000D03*
X262080000Y-94400000D03*
X262080000Y-91860000D03*
X262080000Y-89320000D03*
X262080000Y-86780000D03*
X262080000Y-84240000D03*
X262080000Y-81700000D03*
X262080000Y-79160000D03*
X262080000Y-76620000D03*
X262080000Y-74080000D03*
X262080000Y-71540000D03*
X262080000Y-69000000D03*
X259540000Y-107100000D03*
X259540000Y-104560000D03*
X259540000Y-102020000D03*
X259540000Y-99480000D03*
X259540000Y-96940000D03*
X259540000Y-94400000D03*
X259540000Y-91860000D03*
X259540000Y-89320000D03*
X259540000Y-86780000D03*
X259540000Y-84240000D03*
X259540000Y-81700000D03*
X259540000Y-79160000D03*
X259540000Y-76620000D03*
X259540000Y-74080000D03*
X259540000Y-71540000D03*
X259540000Y-69000000D03*
X257000000Y-107100000D03*
X257000000Y-104560000D03*
X257000000Y-102020000D03*
X257000000Y-99480000D03*
X257000000Y-96940000D03*
X257000000Y-94400000D03*
X257000000Y-91860000D03*
X257000000Y-89320000D03*
X257000000Y-86780000D03*
X257000000Y-84240000D03*
X257000000Y-81700000D03*
X257000000Y-79160000D03*
X257000000Y-76620000D03*
X257000000Y-74080000D03*
X257000000Y-71540000D03*
X257000000Y-69000000D03*
D12*
X259840000Y-113050000D03*
X259840000Y-63050000D03*
%TD*%
%TO.C,U10*%
G36*
G01*
X242255000Y-106574998D02*
X242255000Y-107625002D01*
G75*
G02*
X242005002Y-107875000I-249998J0D01*
G01*
X240954998Y-107875000D01*
G75*
G02*
X240705000Y-107625002I0J249998D01*
G01*
X240705000Y-106574998D01*
G75*
G02*
X240954998Y-106325000I249998J0D01*
G01*
X242005002Y-106325000D01*
G75*
G02*
X242255000Y-106574998I0J-249998D01*
G01*
G37*
D11*
X241480000Y-104560000D03*
X241480000Y-102020000D03*
X241480000Y-99480000D03*
X241480000Y-96940000D03*
X241480000Y-94400000D03*
X241480000Y-91860000D03*
X241480000Y-89320000D03*
X241480000Y-86780000D03*
X241480000Y-84240000D03*
X241480000Y-81700000D03*
X241480000Y-79160000D03*
X241480000Y-76620000D03*
X241480000Y-74080000D03*
X241480000Y-71540000D03*
X241480000Y-69000000D03*
X238940000Y-107100000D03*
X238940000Y-104560000D03*
X238940000Y-102020000D03*
X238940000Y-99480000D03*
X238940000Y-96940000D03*
X238940000Y-94400000D03*
X238940000Y-91860000D03*
X238940000Y-89320000D03*
X238940000Y-86780000D03*
X238940000Y-84240000D03*
X238940000Y-81700000D03*
X238940000Y-79160000D03*
X238940000Y-76620000D03*
X238940000Y-74080000D03*
X238940000Y-71540000D03*
X238940000Y-69000000D03*
X236400000Y-107100000D03*
X236400000Y-104560000D03*
X236400000Y-102020000D03*
X236400000Y-99480000D03*
X236400000Y-96940000D03*
X236400000Y-94400000D03*
X236400000Y-91860000D03*
X236400000Y-89320000D03*
X236400000Y-86780000D03*
X236400000Y-84240000D03*
X236400000Y-81700000D03*
X236400000Y-79160000D03*
X236400000Y-76620000D03*
X236400000Y-74080000D03*
X236400000Y-71540000D03*
X236400000Y-69000000D03*
D12*
X239240000Y-113050000D03*
X239240000Y-63050000D03*
%TD*%
%TO.C,U9*%
G36*
G01*
X221655000Y-106574998D02*
X221655000Y-107625002D01*
G75*
G02*
X221405002Y-107875000I-249998J0D01*
G01*
X220354998Y-107875000D01*
G75*
G02*
X220105000Y-107625002I0J249998D01*
G01*
X220105000Y-106574998D01*
G75*
G02*
X220354998Y-106325000I249998J0D01*
G01*
X221405002Y-106325000D01*
G75*
G02*
X221655000Y-106574998I0J-249998D01*
G01*
G37*
D11*
X220880000Y-104560000D03*
X220880000Y-102020000D03*
X220880000Y-99480000D03*
X220880000Y-96940000D03*
X220880000Y-94400000D03*
X220880000Y-91860000D03*
X220880000Y-89320000D03*
X220880000Y-86780000D03*
X220880000Y-84240000D03*
X220880000Y-81700000D03*
X220880000Y-79160000D03*
X220880000Y-76620000D03*
X220880000Y-74080000D03*
X220880000Y-71540000D03*
X220880000Y-69000000D03*
X218340000Y-107100000D03*
X218340000Y-104560000D03*
X218340000Y-102020000D03*
X218340000Y-99480000D03*
X218340000Y-96940000D03*
X218340000Y-94400000D03*
X218340000Y-91860000D03*
X218340000Y-89320000D03*
X218340000Y-86780000D03*
X218340000Y-84240000D03*
X218340000Y-81700000D03*
X218340000Y-79160000D03*
X218340000Y-76620000D03*
X218340000Y-74080000D03*
X218340000Y-71540000D03*
X218340000Y-69000000D03*
X215800000Y-107100000D03*
X215800000Y-104560000D03*
X215800000Y-102020000D03*
X215800000Y-99480000D03*
X215800000Y-96940000D03*
X215800000Y-94400000D03*
X215800000Y-91860000D03*
X215800000Y-89320000D03*
X215800000Y-86780000D03*
X215800000Y-84240000D03*
X215800000Y-81700000D03*
X215800000Y-79160000D03*
X215800000Y-76620000D03*
X215800000Y-74080000D03*
X215800000Y-71540000D03*
X215800000Y-69000000D03*
D12*
X218640000Y-113050000D03*
X218640000Y-63050000D03*
%TD*%
%TO.C,U8*%
G36*
G01*
X201055000Y-106574998D02*
X201055000Y-107625002D01*
G75*
G02*
X200805002Y-107875000I-249998J0D01*
G01*
X199754998Y-107875000D01*
G75*
G02*
X199505000Y-107625002I0J249998D01*
G01*
X199505000Y-106574998D01*
G75*
G02*
X199754998Y-106325000I249998J0D01*
G01*
X200805002Y-106325000D01*
G75*
G02*
X201055000Y-106574998I0J-249998D01*
G01*
G37*
D11*
X200280000Y-104560000D03*
X200280000Y-102020000D03*
X200280000Y-99480000D03*
X200280000Y-96940000D03*
X200280000Y-94400000D03*
X200280000Y-91860000D03*
X200280000Y-89320000D03*
X200280000Y-86780000D03*
X200280000Y-84240000D03*
X200280000Y-81700000D03*
X200280000Y-79160000D03*
X200280000Y-76620000D03*
X200280000Y-74080000D03*
X200280000Y-71540000D03*
X200280000Y-69000000D03*
X197740000Y-107100000D03*
X197740000Y-104560000D03*
X197740000Y-102020000D03*
X197740000Y-99480000D03*
X197740000Y-96940000D03*
X197740000Y-94400000D03*
X197740000Y-91860000D03*
X197740000Y-89320000D03*
X197740000Y-86780000D03*
X197740000Y-84240000D03*
X197740000Y-81700000D03*
X197740000Y-79160000D03*
X197740000Y-76620000D03*
X197740000Y-74080000D03*
X197740000Y-71540000D03*
X197740000Y-69000000D03*
X195200000Y-107100000D03*
X195200000Y-104560000D03*
X195200000Y-102020000D03*
X195200000Y-99480000D03*
X195200000Y-96940000D03*
X195200000Y-94400000D03*
X195200000Y-91860000D03*
X195200000Y-89320000D03*
X195200000Y-86780000D03*
X195200000Y-84240000D03*
X195200000Y-81700000D03*
X195200000Y-79160000D03*
X195200000Y-76620000D03*
X195200000Y-74080000D03*
X195200000Y-71540000D03*
X195200000Y-69000000D03*
D12*
X198040000Y-113050000D03*
X198040000Y-63050000D03*
%TD*%
%TO.C,U7*%
G36*
G01*
X180455000Y-106574998D02*
X180455000Y-107625002D01*
G75*
G02*
X180205002Y-107875000I-249998J0D01*
G01*
X179154998Y-107875000D01*
G75*
G02*
X178905000Y-107625002I0J249998D01*
G01*
X178905000Y-106574998D01*
G75*
G02*
X179154998Y-106325000I249998J0D01*
G01*
X180205002Y-106325000D01*
G75*
G02*
X180455000Y-106574998I0J-249998D01*
G01*
G37*
D11*
X179680000Y-104560000D03*
X179680000Y-102020000D03*
X179680000Y-99480000D03*
X179680000Y-96940000D03*
X179680000Y-94400000D03*
X179680000Y-91860000D03*
X179680000Y-89320000D03*
X179680000Y-86780000D03*
X179680000Y-84240000D03*
X179680000Y-81700000D03*
X179680000Y-79160000D03*
X179680000Y-76620000D03*
X179680000Y-74080000D03*
X179680000Y-71540000D03*
X179680000Y-69000000D03*
X177140000Y-107100000D03*
X177140000Y-104560000D03*
X177140000Y-102020000D03*
X177140000Y-99480000D03*
X177140000Y-96940000D03*
X177140000Y-94400000D03*
X177140000Y-91860000D03*
X177140000Y-89320000D03*
X177140000Y-86780000D03*
X177140000Y-84240000D03*
X177140000Y-81700000D03*
X177140000Y-79160000D03*
X177140000Y-76620000D03*
X177140000Y-74080000D03*
X177140000Y-71540000D03*
X177140000Y-69000000D03*
X174600000Y-107100000D03*
X174600000Y-104560000D03*
X174600000Y-102020000D03*
X174600000Y-99480000D03*
X174600000Y-96940000D03*
X174600000Y-94400000D03*
X174600000Y-91860000D03*
X174600000Y-89320000D03*
X174600000Y-86780000D03*
X174600000Y-84240000D03*
X174600000Y-81700000D03*
X174600000Y-79160000D03*
X174600000Y-76620000D03*
X174600000Y-74080000D03*
X174600000Y-71540000D03*
X174600000Y-69000000D03*
D12*
X177440000Y-113050000D03*
X177440000Y-63050000D03*
%TD*%
%TO.C,U6*%
G36*
G01*
X159855000Y-106574998D02*
X159855000Y-107625002D01*
G75*
G02*
X159605002Y-107875000I-249998J0D01*
G01*
X158554998Y-107875000D01*
G75*
G02*
X158305000Y-107625002I0J249998D01*
G01*
X158305000Y-106574998D01*
G75*
G02*
X158554998Y-106325000I249998J0D01*
G01*
X159605002Y-106325000D01*
G75*
G02*
X159855000Y-106574998I0J-249998D01*
G01*
G37*
D11*
X159080000Y-104560000D03*
X159080000Y-102020000D03*
X159080000Y-99480000D03*
X159080000Y-96940000D03*
X159080000Y-94400000D03*
X159080000Y-91860000D03*
X159080000Y-89320000D03*
X159080000Y-86780000D03*
X159080000Y-84240000D03*
X159080000Y-81700000D03*
X159080000Y-79160000D03*
X159080000Y-76620000D03*
X159080000Y-74080000D03*
X159080000Y-71540000D03*
X159080000Y-69000000D03*
X156540000Y-107100000D03*
X156540000Y-104560000D03*
X156540000Y-102020000D03*
X156540000Y-99480000D03*
X156540000Y-96940000D03*
X156540000Y-94400000D03*
X156540000Y-91860000D03*
X156540000Y-89320000D03*
X156540000Y-86780000D03*
X156540000Y-84240000D03*
X156540000Y-81700000D03*
X156540000Y-79160000D03*
X156540000Y-76620000D03*
X156540000Y-74080000D03*
X156540000Y-71540000D03*
X156540000Y-69000000D03*
X154000000Y-107100000D03*
X154000000Y-104560000D03*
X154000000Y-102020000D03*
X154000000Y-99480000D03*
X154000000Y-96940000D03*
X154000000Y-94400000D03*
X154000000Y-91860000D03*
X154000000Y-89320000D03*
X154000000Y-86780000D03*
X154000000Y-84240000D03*
X154000000Y-81700000D03*
X154000000Y-79160000D03*
X154000000Y-76620000D03*
X154000000Y-74080000D03*
X154000000Y-71540000D03*
X154000000Y-69000000D03*
D12*
X156840000Y-113050000D03*
X156840000Y-63050000D03*
%TD*%
%TO.C,U5*%
G36*
G01*
X139255000Y-106574998D02*
X139255000Y-107625002D01*
G75*
G02*
X139005002Y-107875000I-249998J0D01*
G01*
X137954998Y-107875000D01*
G75*
G02*
X137705000Y-107625002I0J249998D01*
G01*
X137705000Y-106574998D01*
G75*
G02*
X137954998Y-106325000I249998J0D01*
G01*
X139005002Y-106325000D01*
G75*
G02*
X139255000Y-106574998I0J-249998D01*
G01*
G37*
D11*
X138480000Y-104560000D03*
X138480000Y-102020000D03*
X138480000Y-99480000D03*
X138480000Y-96940000D03*
X138480000Y-94400000D03*
X138480000Y-91860000D03*
X138480000Y-89320000D03*
X138480000Y-86780000D03*
X138480000Y-84240000D03*
X138480000Y-81700000D03*
X138480000Y-79160000D03*
X138480000Y-76620000D03*
X138480000Y-74080000D03*
X138480000Y-71540000D03*
X138480000Y-69000000D03*
X135940000Y-107100000D03*
X135940000Y-104560000D03*
X135940000Y-102020000D03*
X135940000Y-99480000D03*
X135940000Y-96940000D03*
X135940000Y-94400000D03*
X135940000Y-91860000D03*
X135940000Y-89320000D03*
X135940000Y-86780000D03*
X135940000Y-84240000D03*
X135940000Y-81700000D03*
X135940000Y-79160000D03*
X135940000Y-76620000D03*
X135940000Y-74080000D03*
X135940000Y-71540000D03*
X135940000Y-69000000D03*
X133400000Y-107100000D03*
X133400000Y-104560000D03*
X133400000Y-102020000D03*
X133400000Y-99480000D03*
X133400000Y-96940000D03*
X133400000Y-94400000D03*
X133400000Y-91860000D03*
X133400000Y-89320000D03*
X133400000Y-86780000D03*
X133400000Y-84240000D03*
X133400000Y-81700000D03*
X133400000Y-79160000D03*
X133400000Y-76620000D03*
X133400000Y-74080000D03*
X133400000Y-71540000D03*
X133400000Y-69000000D03*
D12*
X136240000Y-113050000D03*
X136240000Y-63050000D03*
%TD*%
%TO.C,U4*%
G36*
G01*
X118655000Y-106574998D02*
X118655000Y-107625002D01*
G75*
G02*
X118405002Y-107875000I-249998J0D01*
G01*
X117354998Y-107875000D01*
G75*
G02*
X117105000Y-107625002I0J249998D01*
G01*
X117105000Y-106574998D01*
G75*
G02*
X117354998Y-106325000I249998J0D01*
G01*
X118405002Y-106325000D01*
G75*
G02*
X118655000Y-106574998I0J-249998D01*
G01*
G37*
D11*
X117880000Y-104560000D03*
X117880000Y-102020000D03*
X117880000Y-99480000D03*
X117880000Y-96940000D03*
X117880000Y-94400000D03*
X117880000Y-91860000D03*
X117880000Y-89320000D03*
X117880000Y-86780000D03*
X117880000Y-84240000D03*
X117880000Y-81700000D03*
X117880000Y-79160000D03*
X117880000Y-76620000D03*
X117880000Y-74080000D03*
X117880000Y-71540000D03*
X117880000Y-69000000D03*
X115340000Y-107100000D03*
X115340000Y-104560000D03*
X115340000Y-102020000D03*
X115340000Y-99480000D03*
X115340000Y-96940000D03*
X115340000Y-94400000D03*
X115340000Y-91860000D03*
X115340000Y-89320000D03*
X115340000Y-86780000D03*
X115340000Y-84240000D03*
X115340000Y-81700000D03*
X115340000Y-79160000D03*
X115340000Y-76620000D03*
X115340000Y-74080000D03*
X115340000Y-71540000D03*
X115340000Y-69000000D03*
X112800000Y-107100000D03*
X112800000Y-104560000D03*
X112800000Y-102020000D03*
X112800000Y-99480000D03*
X112800000Y-96940000D03*
X112800000Y-94400000D03*
X112800000Y-91860000D03*
X112800000Y-89320000D03*
X112800000Y-86780000D03*
X112800000Y-84240000D03*
X112800000Y-81700000D03*
X112800000Y-79160000D03*
X112800000Y-76620000D03*
X112800000Y-74080000D03*
X112800000Y-71540000D03*
X112800000Y-69000000D03*
D12*
X115640000Y-113050000D03*
X115640000Y-63050000D03*
%TD*%
%TO.C,U3*%
G36*
G01*
X98055000Y-106574998D02*
X98055000Y-107625002D01*
G75*
G02*
X97805002Y-107875000I-249998J0D01*
G01*
X96754998Y-107875000D01*
G75*
G02*
X96505000Y-107625002I0J249998D01*
G01*
X96505000Y-106574998D01*
G75*
G02*
X96754998Y-106325000I249998J0D01*
G01*
X97805002Y-106325000D01*
G75*
G02*
X98055000Y-106574998I0J-249998D01*
G01*
G37*
D11*
X97280000Y-104560000D03*
X97280000Y-102020000D03*
X97280000Y-99480000D03*
X97280000Y-96940000D03*
X97280000Y-94400000D03*
X97280000Y-91860000D03*
X97280000Y-89320000D03*
X97280000Y-86780000D03*
X97280000Y-84240000D03*
X97280000Y-81700000D03*
X97280000Y-79160000D03*
X97280000Y-76620000D03*
X97280000Y-74080000D03*
X97280000Y-71540000D03*
X97280000Y-69000000D03*
X94740000Y-107100000D03*
X94740000Y-104560000D03*
X94740000Y-102020000D03*
X94740000Y-99480000D03*
X94740000Y-96940000D03*
X94740000Y-94400000D03*
X94740000Y-91860000D03*
X94740000Y-89320000D03*
X94740000Y-86780000D03*
X94740000Y-84240000D03*
X94740000Y-81700000D03*
X94740000Y-79160000D03*
X94740000Y-76620000D03*
X94740000Y-74080000D03*
X94740000Y-71540000D03*
X94740000Y-69000000D03*
X92200000Y-107100000D03*
X92200000Y-104560000D03*
X92200000Y-102020000D03*
X92200000Y-99480000D03*
X92200000Y-96940000D03*
X92200000Y-94400000D03*
X92200000Y-91860000D03*
X92200000Y-89320000D03*
X92200000Y-86780000D03*
X92200000Y-84240000D03*
X92200000Y-81700000D03*
X92200000Y-79160000D03*
X92200000Y-76620000D03*
X92200000Y-74080000D03*
X92200000Y-71540000D03*
X92200000Y-69000000D03*
D12*
X95040000Y-113050000D03*
X95040000Y-63050000D03*
%TD*%
%TO.C,U2*%
G36*
G01*
X77455000Y-106574998D02*
X77455000Y-107625002D01*
G75*
G02*
X77205002Y-107875000I-249998J0D01*
G01*
X76154998Y-107875000D01*
G75*
G02*
X75905000Y-107625002I0J249998D01*
G01*
X75905000Y-106574998D01*
G75*
G02*
X76154998Y-106325000I249998J0D01*
G01*
X77205002Y-106325000D01*
G75*
G02*
X77455000Y-106574998I0J-249998D01*
G01*
G37*
D11*
X76680000Y-104560000D03*
X76680000Y-102020000D03*
X76680000Y-99480000D03*
X76680000Y-96940000D03*
X76680000Y-94400000D03*
X76680000Y-91860000D03*
X76680000Y-89320000D03*
X76680000Y-86780000D03*
X76680000Y-84240000D03*
X76680000Y-81700000D03*
X76680000Y-79160000D03*
X76680000Y-76620000D03*
X76680000Y-74080000D03*
X76680000Y-71540000D03*
X76680000Y-69000000D03*
X74140000Y-107100000D03*
X74140000Y-104560000D03*
X74140000Y-102020000D03*
X74140000Y-99480000D03*
X74140000Y-96940000D03*
X74140000Y-94400000D03*
X74140000Y-91860000D03*
X74140000Y-89320000D03*
X74140000Y-86780000D03*
X74140000Y-84240000D03*
X74140000Y-81700000D03*
X74140000Y-79160000D03*
X74140000Y-76620000D03*
X74140000Y-74080000D03*
X74140000Y-71540000D03*
X74140000Y-69000000D03*
X71600000Y-107100000D03*
X71600000Y-104560000D03*
X71600000Y-102020000D03*
X71600000Y-99480000D03*
X71600000Y-96940000D03*
X71600000Y-94400000D03*
X71600000Y-91860000D03*
X71600000Y-89320000D03*
X71600000Y-86780000D03*
X71600000Y-84240000D03*
X71600000Y-81700000D03*
X71600000Y-79160000D03*
X71600000Y-76620000D03*
X71600000Y-74080000D03*
X71600000Y-71540000D03*
X71600000Y-69000000D03*
D12*
X74440000Y-113050000D03*
X74440000Y-63050000D03*
%TD*%
M02*
