M48
; DRILL file {KiCad 5.99.0+really5.1.10+dfsg1-1} date Sun Dec  5 23:32:42 2021
; FORMAT={-:-/ absolute / inch / decimal}
; #@! TF.CreationDate,2021-12-05T23:32:42+01:00
; #@! TF.GenerationSoftware,Kicad,Pcbnew,5.99.0+really5.1.10+dfsg1-1
; #@! TF.FileFunction,Plated,1,2,PTH
FMAT,2
INCH
T1C0.0118
T2C0.0157
T3C0.0394
%
G90
G05
T1
X1.6102Y-4.9213
X1.6181Y-2.0118
X1.6181Y-2.4016
X1.6181Y-2.7953
X1.6181Y-3.189
X1.6181Y-3.5827
X1.6181Y-3.9764
X1.6181Y-4.3701
X1.6181Y-4.7638
X1.7874Y-4.622
X1.7874Y-4.7205
X1.7953Y-4.8543
X1.8622Y-4.5748
X1.878Y-4.9173
X1.9449Y-4.9016
X1.9961Y-4.8031
X2.0079Y-2.0118
X2.0699Y-4.7808
X2.0945Y-4.7559
X2.122Y-4.7283
X2.1496Y-4.7559
X2.1732Y-4.7835
X2.252Y-4.5709
X2.252Y-4.6378
X2.252Y-4.8081
X2.3228Y-4.5079
X2.3661Y-3.8937
X2.3701Y-2.752
X2.5Y-4.6378
X2.6299Y-2.752
X2.6299Y-4.8543
X2.6654Y-3.8898
X2.7008Y-4.6378
X2.7598Y-4.9016
X2.7953Y-2.0118
X2.8795Y-4.8081
X2.9055Y-4.7008
X2.9331Y-4.7283
X2.9606Y-4.7559
X2.9843Y-4.7835
X3.0463Y-4.8081
X3.063Y-4.5748
X3.063Y-4.6417
X3.1181Y-4.5157
X3.1535Y-2.748
X3.2047Y-3.8858
X3.3071Y-4.6378
X3.4409Y-4.8543
X3.4882Y-2.7441
X3.4921Y-3.8898
X3.5236Y-4.6378
X3.5709Y-4.9016
X3.5827Y-2.0118
X3.6925Y-4.8081
X3.7205Y-4.7008
X3.748Y-4.7283
X3.7677Y-4.7559
X3.7953Y-4.7835
X3.8583Y-4.8081
X3.874Y-4.5709
X3.874Y-4.6417
X3.9449Y-4.5039
X4.0157Y-3.8976
X4.0197Y-2.7441
X4.1181Y-4.6378
X4.2441Y-4.8543
X4.2756Y-2.7441
X4.2992Y-3.8858
X4.311Y-4.6378
X4.3701Y-2.0118
X4.3898Y-4.9016
X4.5035Y-4.8081
X4.5276Y-4.7008
X4.5551Y-4.7283
X4.5827Y-4.7559
X4.6063Y-4.7835
X4.6811Y-4.5787
X4.6811Y-4.6417
X4.689Y-4.8081
X4.7598Y-4.5
X4.811Y-3.8819
X4.8189Y-2.7441
X4.9134Y-4.6378
X5.0591Y-4.8543
X5.1102Y-2.748
X5.1142Y-3.8937
X5.1299Y-4.6378
X5.1575Y-2.0118
X5.1969Y-4.9016
X5.3146Y-4.8081
X5.3425Y-4.7008
X5.3661Y-4.7283
X5.3898Y-4.7559
X5.415Y-4.7835
X5.4961Y-4.5748
X5.4961Y-4.6417
X5.5Y-4.8081
X5.5551Y-4.5157
X5.6102Y-2.7441
X5.6496Y-3.8898
X5.7323Y-4.6378
X5.8661Y-4.8543
X5.874Y-2.752
X5.9016Y-3.8858
X5.9449Y-2.0118
X5.9488Y-4.6378
X6.0039Y-4.9016
X6.1256Y-4.8081
X6.1535Y-4.7008
X6.1772Y-4.7283
X6.2008Y-4.7559
X6.2283Y-4.7835
X6.2992Y-4.5866
X6.2992Y-4.6417
X6.3031Y-4.8081
X6.3504Y-4.5394
X6.4094Y-2.7441
X6.4291Y-3.8819
X6.5512Y-4.6378
X6.6811Y-4.8543
X6.6969Y-2.748
X6.7244Y-3.8858
X6.7323Y-2.0118
X6.7559Y-4.6378
X6.815Y-4.9016
X6.9366Y-4.8081
X6.9606Y-4.7008
X6.9858Y-4.7283
X7.0118Y-4.7559
X7.0394Y-4.7835
X7.1142Y-4.5906
X7.1142Y-4.6417
X7.1181Y-4.8081
X7.1772Y-4.5276
X7.2205Y-2.752
X7.2441Y-3.8898
X7.3504Y-4.6378
X7.4803Y-4.8543
X7.4961Y-3.8898
X7.5197Y-2.0118
X7.5197Y-2.7441
X7.5827Y-4.6378
X7.6299Y-4.9016
X7.7476Y-4.8081
X7.7717Y-4.7008
X7.7992Y-4.7283
X7.8228Y-4.7559
X7.848Y-4.7835
X7.9213Y-4.5866
X7.9213Y-4.6417
X7.9252Y-4.8081
X7.9764Y-4.5315
X8.0472Y-2.748
X8.0512Y-3.8858
X8.1654Y-4.6378
X8.2992Y-4.8543
X8.3071Y-2.0118
X8.3268Y-3.8898
X8.3465Y-2.748
X8.3898Y-4.6378
X8.4449Y-4.9016
X8.5587Y-4.8081
X8.5827Y-4.7008
X8.6102Y-4.7283
X8.6339Y-4.7559
X8.6654Y-4.7835
X8.7323Y-4.5906
X8.7323Y-4.6417
X8.7362Y-4.8081
X8.7756Y-4.5394
X8.8307Y-2.752
X8.8661Y-3.878
X9.0Y-4.6378
X9.0945Y-2.0118
X9.0945Y-2.0118
X9.1142Y-3.8819
X9.1142Y-4.8543
X9.1299Y-2.752
X9.2087Y-4.6378
X9.2559Y-4.9016
X9.3697Y-4.8081
X9.3937Y-4.7008
X9.4213Y-4.7283
X9.4449Y-4.7559
X9.4724Y-4.7835
X9.5433Y-4.5945
X9.5433Y-4.6378
X9.5512Y-4.8081
X9.5866Y-4.5472
X9.6693Y-2.7559
X9.685Y-3.8858
X9.7992Y-4.6378
X9.8819Y-2.0118
X9.9213Y-4.8583
X9.9291Y-2.7559
X9.9291Y-3.8858
X10.0118Y-4.6378
X10.0669Y-4.9016
X10.1807Y-4.8081
X10.2087Y-4.7008
X10.2323Y-4.7283
X10.2598Y-4.7559
X10.2835Y-4.7835
X10.3543Y-4.5906
X10.3543Y-4.6378
X10.3583Y-4.8081
X10.3976Y-4.5433
X10.4803Y-2.7441
X10.5197Y-3.8858
X10.6417Y-4.6417
X10.6693Y-2.0118
X10.6693Y-2.0118
X10.7402Y-4.8543
X10.748Y-3.8858
X10.7598Y-2.748
X10.8307Y-4.6417
X10.878Y-4.9016
X10.9917Y-4.8081
X11.0157Y-4.7008
X11.0433Y-4.7283
X11.0709Y-4.7559
X11.0984Y-4.7835
X11.1654Y-4.5866
X11.1654Y-4.6378
X11.1654Y-4.8081
X11.2087Y-4.5394
X11.2677Y-3.8858
X11.2913Y-2.7559
X11.4094Y-4.6417
X11.4567Y-2.0118
X11.4567Y-2.0118
X11.5433Y-4.8583
X11.5866Y-2.7559
X11.5906Y-3.8819
X11.6378Y-4.6378
X11.685Y-4.9016
X11.8028Y-4.8081
X11.8307Y-4.7008
X11.8543Y-4.7283
X11.878Y-4.7559
X11.9055Y-4.7835
X11.9606Y-4.8081
X11.9803Y-4.5906
X11.9803Y-4.6417
X12.0354Y-4.5315
X12.0787Y-3.8858
X12.0906Y-2.7559
X12.2165Y-4.6378
X12.2441Y-2.0118
X12.2441Y-2.0118
X12.3583Y-4.8543
X12.4016Y-3.8819
X12.4134Y-2.752
X12.4488Y-4.6417
X12.4961Y-4.9016
X12.6138Y-4.8081
X12.6378Y-4.7008
X12.6654Y-4.7283
X12.689Y-4.7559
X12.7165Y-4.7835
X12.7874Y-4.5984
X12.7874Y-4.6417
X12.7953Y-4.8081
X12.8425Y-4.5354
X12.9055Y-3.8898
X12.9134Y-2.7559
X13.0276Y-4.6378
X13.0315Y-2.0118
X13.1732Y-4.8543
X13.1929Y-3.8819
X13.1969Y-2.752
X13.2559Y-4.6378
X13.3071Y-4.9016
X13.4248Y-4.8081
X13.4528Y-4.7008
X13.4764Y-4.7283
X13.5039Y-4.7559
X13.5276Y-4.7835
X13.5984Y-4.5906
X13.6024Y-4.6378
X13.6063Y-4.8081
X13.6457Y-4.5394
X13.6929Y-2.7559
X13.7047Y-3.878
X13.8189Y-2.0118
X13.8346Y-4.6378
X13.9843Y-4.8543
X14.0276Y-2.7559
X14.0276Y-3.878
X14.0591Y-4.6339
X14.1181Y-4.9016
X14.2358Y-4.8081
X14.2598Y-4.7008
X14.2913Y-4.7283
X14.311Y-4.7559
X14.3425Y-4.7835
X14.4134Y-4.5866
X14.4134Y-4.6378
X14.4252Y-4.811
X14.4803Y-4.5197
X14.5157Y-2.748
X14.5197Y-3.8819
X14.6063Y-2.0118
X14.6457Y-4.6339
X14.7953Y-4.8543
X14.8268Y-2.748
X14.8307Y-3.8819
X14.8819Y-4.6378
X14.9291Y-4.9016
X15.0469Y-4.8081
X15.0709Y-4.7008
X15.0984Y-4.7283
X15.126Y-4.7559
X15.1535Y-4.7835
X15.2323Y-4.6339
X15.2323Y-4.8081
X15.2362Y-4.5827
X15.2874Y-4.5197
X15.3189Y-2.7441
X15.3543Y-3.8858
X15.3937Y-2.0118
X15.3976Y-4.6299
X15.563Y-4.6339
X15.6063Y-4.8543
X15.6102Y-2.748
X15.6378Y-4.6614
X15.6654Y-3.8819
X15.6732Y-4.7559
X15.7008Y-4.7283
X15.7323Y-4.7008
X15.7402Y-4.9016
X15.8386Y-4.5551
X15.8579Y-4.8081
X15.8819Y-4.7008
X15.9134Y-4.7283
X15.9331Y-4.7559
X15.9646Y-4.7835
X16.0039Y-4.3898
X16.0236Y-4.5591
X16.0285Y-4.8081
X16.0315Y-4.626
X16.0748Y-4.5118
X16.1181Y-2.752
X16.1417Y-3.9055
X16.1732Y-4.6378
X16.1772Y-4.4528
X16.1772Y-4.5709
X16.1811Y-2.0118
X16.2992Y-4.6575
X16.4173Y-4.8583
X16.4409Y-2.752
X16.4528Y-3.9055
X16.5157Y-4.6614
X16.5551Y-4.9016
X16.6669Y-4.8081
X16.6929Y-4.7008
X16.7205Y-4.7283
X16.7441Y-4.7559
X16.7693Y-4.7835
X16.7717Y-4.5512
X16.8465Y-4.5906
X16.8465Y-4.6457
X16.8465Y-4.8081
X16.9488Y-2.7441
X16.9646Y-3.9094
X16.9685Y-2.0118
X17.0669Y-4.6614
X17.2283Y-4.8583
X17.2598Y-2.7441
X17.311Y-3.9094
X17.3346Y-4.6614
X17.3583Y-4.9016
X17.4409Y-4.9213
X17.478Y-4.8081
X17.5039Y-4.7037
X17.5315Y-4.7283
X17.5394Y-4.5591
X17.5591Y-4.7559
X17.5827Y-4.7835
X17.6142Y-4.5591
X17.6299Y-4.9213
X17.6457Y-4.8543
X17.7559Y-2.0118
X17.7559Y-2.2087
X17.7559Y-2.4055
X17.7559Y-2.6024
X17.7559Y-2.7992
X17.7559Y-2.9961
X17.7559Y-3.1929
X17.7559Y-3.3898
X17.7559Y-3.5866
X17.7559Y-3.8228
X17.7598Y-4.8268
X17.7598Y-4.9252
T2
X2.315Y-4.0157
X2.3346Y-4.1181
X2.3583Y-4.2165
X3.1024Y-4.0177
X3.126Y-4.1181
X3.1496Y-4.2165
X3.9173Y-4.0197
X3.9409Y-4.1181
X3.9646Y-4.2165
X4.7323Y-4.0197
X4.7598Y-4.1181
X4.7835Y-4.2165
X5.5354Y-4.0157
X5.563Y-4.1181
X5.5827Y-4.2165
X6.3504Y-4.0197
X6.374Y-4.1181
X6.3976Y-4.2165
X7.1693Y-4.0157
X7.2008Y-4.1181
X7.2165Y-4.2165
X7.9843Y-4.0157
X8.0079Y-4.1181
X8.0276Y-4.2165
X8.7835Y-4.0197
X8.8071Y-4.1181
X8.8307Y-4.2165
X9.6063Y-4.0157
X9.6299Y-4.1181
X9.6535Y-4.2165
X10.4094Y-4.0197
X10.4331Y-4.122
X10.4567Y-4.2165
X11.2205Y-4.0157
X11.2441Y-4.1142
X11.2677Y-4.2165
X12.0354Y-4.0157
X12.0551Y-4.1181
X12.0787Y-4.2165
X12.8465Y-4.0157
X12.8661Y-4.1181
X12.8898Y-4.2165
X13.6535Y-4.0197
X13.6772Y-4.1142
X13.7008Y-4.2165
X14.4646Y-4.0157
X14.4882Y-4.1181
X14.5118Y-4.2165
X15.2756Y-4.0197
X15.2992Y-4.1181
X15.3228Y-4.2165
X16.0945Y-4.1142
T3
X2.0079Y-2.7165
X2.0079Y-2.8165
X2.0079Y-2.9165
X2.0079Y-3.0165
X2.0079Y-3.1165
X2.0079Y-3.2165
X2.0079Y-3.3165
X2.0079Y-3.4165
X2.0079Y-3.5165
X2.0079Y-3.6165
X2.0079Y-3.7165
X2.0079Y-3.8165
X2.0079Y-3.9165
X2.0079Y-4.0165
X2.0079Y-4.1165
X2.0079Y-4.2165
X2.1079Y-2.7165
X2.1079Y-2.8165
X2.1079Y-2.9165
X2.1079Y-3.0165
X2.1079Y-3.1165
X2.1079Y-3.2165
X2.1079Y-3.3165
X2.1079Y-3.4165
X2.1079Y-3.5165
X2.1079Y-3.6165
X2.1079Y-3.7165
X2.1079Y-3.8165
X2.1079Y-3.9165
X2.1079Y-4.0165
X2.1079Y-4.1165
X2.1079Y-4.2165
X2.2079Y-2.7165
X2.2079Y-2.8165
X2.2079Y-2.9165
X2.2079Y-3.0165
X2.2079Y-3.1165
X2.2079Y-3.2165
X2.2079Y-3.3165
X2.2079Y-3.4165
X2.2079Y-3.5165
X2.2079Y-3.6165
X2.2079Y-3.7165
X2.2079Y-3.8165
X2.2079Y-3.9165
X2.2079Y-4.0165
X2.2079Y-4.1165
X2.2079Y-4.2165
X2.8189Y-2.7165
X2.8189Y-2.8165
X2.8189Y-2.9165
X2.8189Y-3.0165
X2.8189Y-3.1165
X2.8189Y-3.2165
X2.8189Y-3.3165
X2.8189Y-3.4165
X2.8189Y-3.5165
X2.8189Y-3.6165
X2.8189Y-3.7165
X2.8189Y-3.8165
X2.8189Y-3.9165
X2.8189Y-4.0165
X2.8189Y-4.1165
X2.8189Y-4.2165
X2.9189Y-2.7165
X2.9189Y-2.8165
X2.9189Y-2.9165
X2.9189Y-3.0165
X2.9189Y-3.1165
X2.9189Y-3.2165
X2.9189Y-3.3165
X2.9189Y-3.4165
X2.9189Y-3.5165
X2.9189Y-3.6165
X2.9189Y-3.7165
X2.9189Y-3.8165
X2.9189Y-3.9165
X2.9189Y-4.0165
X2.9189Y-4.1165
X2.9189Y-4.2165
X3.0189Y-2.7165
X3.0189Y-2.8165
X3.0189Y-2.9165
X3.0189Y-3.0165
X3.0189Y-3.1165
X3.0189Y-3.2165
X3.0189Y-3.3165
X3.0189Y-3.4165
X3.0189Y-3.5165
X3.0189Y-3.6165
X3.0189Y-3.7165
X3.0189Y-3.8165
X3.0189Y-3.9165
X3.0189Y-4.0165
X3.0189Y-4.1165
X3.0189Y-4.2165
X3.6299Y-2.7165
X3.6299Y-2.8165
X3.6299Y-2.9165
X3.6299Y-3.0165
X3.6299Y-3.1165
X3.6299Y-3.2165
X3.6299Y-3.3165
X3.6299Y-3.4165
X3.6299Y-3.5165
X3.6299Y-3.6165
X3.6299Y-3.7165
X3.6299Y-3.8165
X3.6299Y-3.9165
X3.6299Y-4.0165
X3.6299Y-4.1165
X3.6299Y-4.2165
X3.7299Y-2.7165
X3.7299Y-2.8165
X3.7299Y-2.9165
X3.7299Y-3.0165
X3.7299Y-3.1165
X3.7299Y-3.2165
X3.7299Y-3.3165
X3.7299Y-3.4165
X3.7299Y-3.5165
X3.7299Y-3.6165
X3.7299Y-3.7165
X3.7299Y-3.8165
X3.7299Y-3.9165
X3.7299Y-4.0165
X3.7299Y-4.1165
X3.7299Y-4.2165
X3.8299Y-2.7165
X3.8299Y-2.8165
X3.8299Y-2.9165
X3.8299Y-3.0165
X3.8299Y-3.1165
X3.8299Y-3.2165
X3.8299Y-3.3165
X3.8299Y-3.4165
X3.8299Y-3.5165
X3.8299Y-3.6165
X3.8299Y-3.7165
X3.8299Y-3.8165
X3.8299Y-3.9165
X3.8299Y-4.0165
X3.8299Y-4.1165
X3.8299Y-4.2165
X4.4409Y-2.7165
X4.4409Y-2.8165
X4.4409Y-2.9165
X4.4409Y-3.0165
X4.4409Y-3.1165
X4.4409Y-3.2165
X4.4409Y-3.3165
X4.4409Y-3.4165
X4.4409Y-3.5165
X4.4409Y-3.6165
X4.4409Y-3.7165
X4.4409Y-3.8165
X4.4409Y-3.9165
X4.4409Y-4.0165
X4.4409Y-4.1165
X4.4409Y-4.2165
X4.5409Y-2.7165
X4.5409Y-2.8165
X4.5409Y-2.9165
X4.5409Y-3.0165
X4.5409Y-3.1165
X4.5409Y-3.2165
X4.5409Y-3.3165
X4.5409Y-3.4165
X4.5409Y-3.5165
X4.5409Y-3.6165
X4.5409Y-3.7165
X4.5409Y-3.8165
X4.5409Y-3.9165
X4.5409Y-4.0165
X4.5409Y-4.1165
X4.5409Y-4.2165
X4.6409Y-2.7165
X4.6409Y-2.8165
X4.6409Y-2.9165
X4.6409Y-3.0165
X4.6409Y-3.1165
X4.6409Y-3.2165
X4.6409Y-3.3165
X4.6409Y-3.4165
X4.6409Y-3.5165
X4.6409Y-3.6165
X4.6409Y-3.7165
X4.6409Y-3.8165
X4.6409Y-3.9165
X4.6409Y-4.0165
X4.6409Y-4.1165
X4.6409Y-4.2165
X5.252Y-2.7165
X5.252Y-2.8165
X5.252Y-2.9165
X5.252Y-3.0165
X5.252Y-3.1165
X5.252Y-3.2165
X5.252Y-3.3165
X5.252Y-3.4165
X5.252Y-3.5165
X5.252Y-3.6165
X5.252Y-3.7165
X5.252Y-3.8165
X5.252Y-3.9165
X5.252Y-4.0165
X5.252Y-4.1165
X5.252Y-4.2165
X5.352Y-2.7165
X5.352Y-2.8165
X5.352Y-2.9165
X5.352Y-3.0165
X5.352Y-3.1165
X5.352Y-3.2165
X5.352Y-3.3165
X5.352Y-3.4165
X5.352Y-3.5165
X5.352Y-3.6165
X5.352Y-3.7165
X5.352Y-3.8165
X5.352Y-3.9165
X5.352Y-4.0165
X5.352Y-4.1165
X5.352Y-4.2165
X5.452Y-2.7165
X5.452Y-2.8165
X5.452Y-2.9165
X5.452Y-3.0165
X5.452Y-3.1165
X5.452Y-3.2165
X5.452Y-3.3165
X5.452Y-3.4165
X5.452Y-3.5165
X5.452Y-3.6165
X5.452Y-3.7165
X5.452Y-3.8165
X5.452Y-3.9165
X5.452Y-4.0165
X5.452Y-4.1165
X5.452Y-4.2165
X6.063Y-2.7165
X6.063Y-2.8165
X6.063Y-2.9165
X6.063Y-3.0165
X6.063Y-3.1165
X6.063Y-3.2165
X6.063Y-3.3165
X6.063Y-3.4165
X6.063Y-3.5165
X6.063Y-3.6165
X6.063Y-3.7165
X6.063Y-3.8165
X6.063Y-3.9165
X6.063Y-4.0165
X6.063Y-4.1165
X6.063Y-4.2165
X6.163Y-2.7165
X6.163Y-2.8165
X6.163Y-2.9165
X6.163Y-3.0165
X6.163Y-3.1165
X6.163Y-3.2165
X6.163Y-3.3165
X6.163Y-3.4165
X6.163Y-3.5165
X6.163Y-3.6165
X6.163Y-3.7165
X6.163Y-3.8165
X6.163Y-3.9165
X6.163Y-4.0165
X6.163Y-4.1165
X6.163Y-4.2165
X6.263Y-2.7165
X6.263Y-2.8165
X6.263Y-2.9165
X6.263Y-3.0165
X6.263Y-3.1165
X6.263Y-3.2165
X6.263Y-3.3165
X6.263Y-3.4165
X6.263Y-3.5165
X6.263Y-3.6165
X6.263Y-3.7165
X6.263Y-3.8165
X6.263Y-3.9165
X6.263Y-4.0165
X6.263Y-4.1165
X6.263Y-4.2165
X6.874Y-2.7165
X6.874Y-2.8165
X6.874Y-2.9165
X6.874Y-3.0165
X6.874Y-3.1165
X6.874Y-3.2165
X6.874Y-3.3165
X6.874Y-3.4165
X6.874Y-3.5165
X6.874Y-3.6165
X6.874Y-3.7165
X6.874Y-3.8165
X6.874Y-3.9165
X6.874Y-4.0165
X6.874Y-4.1165
X6.874Y-4.2165
X6.974Y-2.7165
X6.974Y-2.8165
X6.974Y-2.9165
X6.974Y-3.0165
X6.974Y-3.1165
X6.974Y-3.2165
X6.974Y-3.3165
X6.974Y-3.4165
X6.974Y-3.5165
X6.974Y-3.6165
X6.974Y-3.7165
X6.974Y-3.8165
X6.974Y-3.9165
X6.974Y-4.0165
X6.974Y-4.1165
X6.974Y-4.2165
X7.074Y-2.7165
X7.074Y-2.8165
X7.074Y-2.9165
X7.074Y-3.0165
X7.074Y-3.1165
X7.074Y-3.2165
X7.074Y-3.3165
X7.074Y-3.4165
X7.074Y-3.5165
X7.074Y-3.6165
X7.074Y-3.7165
X7.074Y-3.8165
X7.074Y-3.9165
X7.074Y-4.0165
X7.074Y-4.1165
X7.074Y-4.2165
X7.685Y-2.7165
X7.685Y-2.8165
X7.685Y-2.9165
X7.685Y-3.0165
X7.685Y-3.1165
X7.685Y-3.2165
X7.685Y-3.3165
X7.685Y-3.4165
X7.685Y-3.5165
X7.685Y-3.6165
X7.685Y-3.7165
X7.685Y-3.8165
X7.685Y-3.9165
X7.685Y-4.0165
X7.685Y-4.1165
X7.685Y-4.2165
X7.785Y-2.7165
X7.785Y-2.8165
X7.785Y-2.9165
X7.785Y-3.0165
X7.785Y-3.1165
X7.785Y-3.2165
X7.785Y-3.3165
X7.785Y-3.4165
X7.785Y-3.5165
X7.785Y-3.6165
X7.785Y-3.7165
X7.785Y-3.8165
X7.785Y-3.9165
X7.785Y-4.0165
X7.785Y-4.1165
X7.785Y-4.2165
X7.885Y-2.7165
X7.885Y-2.8165
X7.885Y-2.9165
X7.885Y-3.0165
X7.885Y-3.1165
X7.885Y-3.2165
X7.885Y-3.3165
X7.885Y-3.4165
X7.885Y-3.5165
X7.885Y-3.6165
X7.885Y-3.7165
X7.885Y-3.8165
X7.885Y-3.9165
X7.885Y-4.0165
X7.885Y-4.1165
X7.885Y-4.2165
X8.4961Y-2.7165
X8.4961Y-2.8165
X8.4961Y-2.9165
X8.4961Y-3.0165
X8.4961Y-3.1165
X8.4961Y-3.2165
X8.4961Y-3.3165
X8.4961Y-3.4165
X8.4961Y-3.5165
X8.4961Y-3.6165
X8.4961Y-3.7165
X8.4961Y-3.8165
X8.4961Y-3.9165
X8.4961Y-4.0165
X8.4961Y-4.1165
X8.4961Y-4.2165
X8.5961Y-2.7165
X8.5961Y-2.8165
X8.5961Y-2.9165
X8.5961Y-3.0165
X8.5961Y-3.1165
X8.5961Y-3.2165
X8.5961Y-3.3165
X8.5961Y-3.4165
X8.5961Y-3.5165
X8.5961Y-3.6165
X8.5961Y-3.7165
X8.5961Y-3.8165
X8.5961Y-3.9165
X8.5961Y-4.0165
X8.5961Y-4.1165
X8.5961Y-4.2165
X8.6961Y-2.7165
X8.6961Y-2.8165
X8.6961Y-2.9165
X8.6961Y-3.0165
X8.6961Y-3.1165
X8.6961Y-3.2165
X8.6961Y-3.3165
X8.6961Y-3.4165
X8.6961Y-3.5165
X8.6961Y-3.6165
X8.6961Y-3.7165
X8.6961Y-3.8165
X8.6961Y-3.9165
X8.6961Y-4.0165
X8.6961Y-4.1165
X8.6961Y-4.2165
X9.3071Y-2.7165
X9.3071Y-2.8165
X9.3071Y-2.9165
X9.3071Y-3.0165
X9.3071Y-3.1165
X9.3071Y-3.2165
X9.3071Y-3.3165
X9.3071Y-3.4165
X9.3071Y-3.5165
X9.3071Y-3.6165
X9.3071Y-3.7165
X9.3071Y-3.8165
X9.3071Y-3.9165
X9.3071Y-4.0165
X9.3071Y-4.1165
X9.3071Y-4.2165
X9.4071Y-2.7165
X9.4071Y-2.8165
X9.4071Y-2.9165
X9.4071Y-3.0165
X9.4071Y-3.1165
X9.4071Y-3.2165
X9.4071Y-3.3165
X9.4071Y-3.4165
X9.4071Y-3.5165
X9.4071Y-3.6165
X9.4071Y-3.7165
X9.4071Y-3.8165
X9.4071Y-3.9165
X9.4071Y-4.0165
X9.4071Y-4.1165
X9.4071Y-4.2165
X9.5071Y-2.7165
X9.5071Y-2.8165
X9.5071Y-2.9165
X9.5071Y-3.0165
X9.5071Y-3.1165
X9.5071Y-3.2165
X9.5071Y-3.3165
X9.5071Y-3.4165
X9.5071Y-3.5165
X9.5071Y-3.6165
X9.5071Y-3.7165
X9.5071Y-3.8165
X9.5071Y-3.9165
X9.5071Y-4.0165
X9.5071Y-4.1165
X9.5071Y-4.2165
X10.1181Y-2.7165
X10.1181Y-2.8165
X10.1181Y-2.9165
X10.1181Y-3.0165
X10.1181Y-3.1165
X10.1181Y-3.2165
X10.1181Y-3.3165
X10.1181Y-3.4165
X10.1181Y-3.5165
X10.1181Y-3.6165
X10.1181Y-3.7165
X10.1181Y-3.8165
X10.1181Y-3.9165
X10.1181Y-4.0165
X10.1181Y-4.1165
X10.1181Y-4.2165
X10.2181Y-2.7165
X10.2181Y-2.8165
X10.2181Y-2.9165
X10.2181Y-3.0165
X10.2181Y-3.1165
X10.2181Y-3.2165
X10.2181Y-3.3165
X10.2181Y-3.4165
X10.2181Y-3.5165
X10.2181Y-3.6165
X10.2181Y-3.7165
X10.2181Y-3.8165
X10.2181Y-3.9165
X10.2181Y-4.0165
X10.2181Y-4.1165
X10.2181Y-4.2165
X10.3181Y-2.7165
X10.3181Y-2.8165
X10.3181Y-2.9165
X10.3181Y-3.0165
X10.3181Y-3.1165
X10.3181Y-3.2165
X10.3181Y-3.3165
X10.3181Y-3.4165
X10.3181Y-3.5165
X10.3181Y-3.6165
X10.3181Y-3.7165
X10.3181Y-3.8165
X10.3181Y-3.9165
X10.3181Y-4.0165
X10.3181Y-4.1165
X10.3181Y-4.2165
X10.9291Y-2.7165
X10.9291Y-2.8165
X10.9291Y-2.9165
X10.9291Y-3.0165
X10.9291Y-3.1165
X10.9291Y-3.2165
X10.9291Y-3.3165
X10.9291Y-3.4165
X10.9291Y-3.5165
X10.9291Y-3.6165
X10.9291Y-3.7165
X10.9291Y-3.8165
X10.9291Y-3.9165
X10.9291Y-4.0165
X10.9291Y-4.1165
X10.9291Y-4.2165
X11.0291Y-2.7165
X11.0291Y-2.8165
X11.0291Y-2.9165
X11.0291Y-3.0165
X11.0291Y-3.1165
X11.0291Y-3.2165
X11.0291Y-3.3165
X11.0291Y-3.4165
X11.0291Y-3.5165
X11.0291Y-3.6165
X11.0291Y-3.7165
X11.0291Y-3.8165
X11.0291Y-3.9165
X11.0291Y-4.0165
X11.0291Y-4.1165
X11.0291Y-4.2165
X11.1291Y-2.7165
X11.1291Y-2.8165
X11.1291Y-2.9165
X11.1291Y-3.0165
X11.1291Y-3.1165
X11.1291Y-3.2165
X11.1291Y-3.3165
X11.1291Y-3.4165
X11.1291Y-3.5165
X11.1291Y-3.6165
X11.1291Y-3.7165
X11.1291Y-3.8165
X11.1291Y-3.9165
X11.1291Y-4.0165
X11.1291Y-4.1165
X11.1291Y-4.2165
X11.7402Y-2.7165
X11.7402Y-2.8165
X11.7402Y-2.9165
X11.7402Y-3.0165
X11.7402Y-3.1165
X11.7402Y-3.2165
X11.7402Y-3.3165
X11.7402Y-3.4165
X11.7402Y-3.5165
X11.7402Y-3.6165
X11.7402Y-3.7165
X11.7402Y-3.8165
X11.7402Y-3.9165
X11.7402Y-4.0165
X11.7402Y-4.1165
X11.7402Y-4.2165
X11.8402Y-2.7165
X11.8402Y-2.8165
X11.8402Y-2.9165
X11.8402Y-3.0165
X11.8402Y-3.1165
X11.8402Y-3.2165
X11.8402Y-3.3165
X11.8402Y-3.4165
X11.8402Y-3.5165
X11.8402Y-3.6165
X11.8402Y-3.7165
X11.8402Y-3.8165
X11.8402Y-3.9165
X11.8402Y-4.0165
X11.8402Y-4.1165
X11.8402Y-4.2165
X11.9402Y-2.7165
X11.9402Y-2.8165
X11.9402Y-2.9165
X11.9402Y-3.0165
X11.9402Y-3.1165
X11.9402Y-3.2165
X11.9402Y-3.3165
X11.9402Y-3.4165
X11.9402Y-3.5165
X11.9402Y-3.6165
X11.9402Y-3.7165
X11.9402Y-3.8165
X11.9402Y-3.9165
X11.9402Y-4.0165
X11.9402Y-4.1165
X11.9402Y-4.2165
X12.5512Y-2.7165
X12.5512Y-2.8165
X12.5512Y-2.9165
X12.5512Y-3.0165
X12.5512Y-3.1165
X12.5512Y-3.2165
X12.5512Y-3.3165
X12.5512Y-3.4165
X12.5512Y-3.5165
X12.5512Y-3.6165
X12.5512Y-3.7165
X12.5512Y-3.8165
X12.5512Y-3.9165
X12.5512Y-4.0165
X12.5512Y-4.1165
X12.5512Y-4.2165
X12.6512Y-2.7165
X12.6512Y-2.8165
X12.6512Y-2.9165
X12.6512Y-3.0165
X12.6512Y-3.1165
X12.6512Y-3.2165
X12.6512Y-3.3165
X12.6512Y-3.4165
X12.6512Y-3.5165
X12.6512Y-3.6165
X12.6512Y-3.7165
X12.6512Y-3.8165
X12.6512Y-3.9165
X12.6512Y-4.0165
X12.6512Y-4.1165
X12.6512Y-4.2165
X12.7512Y-2.7165
X12.7512Y-2.8165
X12.7512Y-2.9165
X12.7512Y-3.0165
X12.7512Y-3.1165
X12.7512Y-3.2165
X12.7512Y-3.3165
X12.7512Y-3.4165
X12.7512Y-3.5165
X12.7512Y-3.6165
X12.7512Y-3.7165
X12.7512Y-3.8165
X12.7512Y-3.9165
X12.7512Y-4.0165
X12.7512Y-4.1165
X12.7512Y-4.2165
X13.3622Y-2.7165
X13.3622Y-2.8165
X13.3622Y-2.9165
X13.3622Y-3.0165
X13.3622Y-3.1165
X13.3622Y-3.2165
X13.3622Y-3.3165
X13.3622Y-3.4165
X13.3622Y-3.5165
X13.3622Y-3.6165
X13.3622Y-3.7165
X13.3622Y-3.8165
X13.3622Y-3.9165
X13.3622Y-4.0165
X13.3622Y-4.1165
X13.3622Y-4.2165
X13.4622Y-2.7165
X13.4622Y-2.8165
X13.4622Y-2.9165
X13.4622Y-3.0165
X13.4622Y-3.1165
X13.4622Y-3.2165
X13.4622Y-3.3165
X13.4622Y-3.4165
X13.4622Y-3.5165
X13.4622Y-3.6165
X13.4622Y-3.7165
X13.4622Y-3.8165
X13.4622Y-3.9165
X13.4622Y-4.0165
X13.4622Y-4.1165
X13.4622Y-4.2165
X13.5622Y-2.7165
X13.5622Y-2.8165
X13.5622Y-2.9165
X13.5622Y-3.0165
X13.5622Y-3.1165
X13.5622Y-3.2165
X13.5622Y-3.3165
X13.5622Y-3.4165
X13.5622Y-3.5165
X13.5622Y-3.6165
X13.5622Y-3.7165
X13.5622Y-3.8165
X13.5622Y-3.9165
X13.5622Y-4.0165
X13.5622Y-4.1165
X13.5622Y-4.2165
X14.1732Y-2.7165
X14.1732Y-2.8165
X14.1732Y-2.9165
X14.1732Y-3.0165
X14.1732Y-3.1165
X14.1732Y-3.2165
X14.1732Y-3.3165
X14.1732Y-3.4165
X14.1732Y-3.5165
X14.1732Y-3.6165
X14.1732Y-3.7165
X14.1732Y-3.8165
X14.1732Y-3.9165
X14.1732Y-4.0165
X14.1732Y-4.1165
X14.1732Y-4.2165
X14.2732Y-2.7165
X14.2732Y-2.8165
X14.2732Y-2.9165
X14.2732Y-3.0165
X14.2732Y-3.1165
X14.2732Y-3.2165
X14.2732Y-3.3165
X14.2732Y-3.4165
X14.2732Y-3.5165
X14.2732Y-3.6165
X14.2732Y-3.7165
X14.2732Y-3.8165
X14.2732Y-3.9165
X14.2732Y-4.0165
X14.2732Y-4.1165
X14.2732Y-4.2165
X14.3732Y-2.7165
X14.3732Y-2.8165
X14.3732Y-2.9165
X14.3732Y-3.0165
X14.3732Y-3.1165
X14.3732Y-3.2165
X14.3732Y-3.3165
X14.3732Y-3.4165
X14.3732Y-3.5165
X14.3732Y-3.6165
X14.3732Y-3.7165
X14.3732Y-3.8165
X14.3732Y-3.9165
X14.3732Y-4.0165
X14.3732Y-4.1165
X14.3732Y-4.2165
X14.9843Y-2.7165
X14.9843Y-2.8165
X14.9843Y-2.9165
X14.9843Y-3.0165
X14.9843Y-3.1165
X14.9843Y-3.2165
X14.9843Y-3.3165
X14.9843Y-3.4165
X14.9843Y-3.5165
X14.9843Y-3.6165
X14.9843Y-3.7165
X14.9843Y-3.8165
X14.9843Y-3.9165
X14.9843Y-4.0165
X14.9843Y-4.1165
X14.9843Y-4.2165
X15.0843Y-2.7165
X15.0843Y-2.8165
X15.0843Y-2.9165
X15.0843Y-3.0165
X15.0843Y-3.1165
X15.0843Y-3.2165
X15.0843Y-3.3165
X15.0843Y-3.4165
X15.0843Y-3.5165
X15.0843Y-3.6165
X15.0843Y-3.7165
X15.0843Y-3.8165
X15.0843Y-3.9165
X15.0843Y-4.0165
X15.0843Y-4.1165
X15.0843Y-4.2165
X15.1843Y-2.7165
X15.1843Y-2.8165
X15.1843Y-2.9165
X15.1843Y-3.0165
X15.1843Y-3.1165
X15.1843Y-3.2165
X15.1843Y-3.3165
X15.1843Y-3.4165
X15.1843Y-3.5165
X15.1843Y-3.6165
X15.1843Y-3.7165
X15.1843Y-3.8165
X15.1843Y-3.9165
X15.1843Y-4.0165
X15.1843Y-4.1165
X15.1843Y-4.2165
X15.7953Y-2.7165
X15.7953Y-2.8165
X15.7953Y-2.9165
X15.7953Y-3.0165
X15.7953Y-3.1165
X15.7953Y-3.2165
X15.7953Y-3.3165
X15.7953Y-3.4165
X15.7953Y-3.5165
X15.7953Y-3.6165
X15.7953Y-3.7165
X15.7953Y-3.8165
X15.7953Y-3.9165
X15.7953Y-4.0165
X15.7953Y-4.1165
X15.7953Y-4.2165
X15.8953Y-2.7165
X15.8953Y-2.8165
X15.8953Y-2.9165
X15.8953Y-3.0165
X15.8953Y-3.1165
X15.8953Y-3.2165
X15.8953Y-3.3165
X15.8953Y-3.4165
X15.8953Y-3.5165
X15.8953Y-3.6165
X15.8953Y-3.7165
X15.8953Y-3.8165
X15.8953Y-3.9165
X15.8953Y-4.0165
X15.8953Y-4.1165
X15.8953Y-4.2165
X15.9953Y-2.7165
X15.9953Y-2.8165
X15.9953Y-2.9165
X15.9953Y-3.0165
X15.9953Y-3.1165
X15.9953Y-3.2165
X15.9953Y-3.3165
X15.9953Y-3.4165
X15.9953Y-3.5165
X15.9953Y-3.6165
X15.9953Y-3.7165
X15.9953Y-3.8165
X15.9953Y-3.9165
X15.9953Y-4.0165
X15.9953Y-4.1165
X15.9953Y-4.2165
X16.6063Y-2.7165
X16.6063Y-2.8165
X16.6063Y-2.9165
X16.6063Y-3.0165
X16.6063Y-3.1165
X16.6063Y-3.2165
X16.6063Y-3.3165
X16.6063Y-3.4165
X16.6063Y-3.5165
X16.6063Y-3.6165
X16.6063Y-3.7165
X16.6063Y-3.8165
X16.6063Y-3.9165
X16.6063Y-4.0165
X16.6063Y-4.1165
X16.6063Y-4.2165
X16.7063Y-2.7165
X16.7063Y-2.8165
X16.7063Y-2.9165
X16.7063Y-3.0165
X16.7063Y-3.1165
X16.7063Y-3.2165
X16.7063Y-3.3165
X16.7063Y-3.4165
X16.7063Y-3.5165
X16.7063Y-3.6165
X16.7063Y-3.7165
X16.7063Y-3.8165
X16.7063Y-3.9165
X16.7063Y-4.0165
X16.7063Y-4.1165
X16.7063Y-4.2165
X16.8063Y-2.7165
X16.8063Y-2.8165
X16.8063Y-2.9165
X16.8063Y-3.0165
X16.8063Y-3.1165
X16.8063Y-3.2165
X16.8063Y-3.3165
X16.8063Y-3.4165
X16.8063Y-3.5165
X16.8063Y-3.6165
X16.8063Y-3.7165
X16.8063Y-3.8165
X16.8063Y-3.9165
X16.8063Y-4.0165
X16.8063Y-4.1165
X16.8063Y-4.2165
X17.4173Y-2.7165
X17.4173Y-2.8165
X17.4173Y-2.9165
X17.4173Y-3.0165
X17.4173Y-3.1165
X17.4173Y-3.2165
X17.4173Y-3.3165
X17.4173Y-3.4165
X17.4173Y-3.5165
X17.4173Y-3.6165
X17.4173Y-3.7165
X17.4173Y-3.8165
X17.4173Y-3.9165
X17.4173Y-4.0165
X17.4173Y-4.1165
X17.4173Y-4.2165
X17.5173Y-2.7165
X17.5173Y-2.8165
X17.5173Y-2.9165
X17.5173Y-3.0165
X17.5173Y-3.1165
X17.5173Y-3.2165
X17.5173Y-3.3165
X17.5173Y-3.4165
X17.5173Y-3.5165
X17.5173Y-3.6165
X17.5173Y-3.7165
X17.5173Y-3.8165
X17.5173Y-3.9165
X17.5173Y-4.0165
X17.5173Y-4.1165
X17.5173Y-4.2165
X17.6173Y-2.7165
X17.6173Y-2.8165
X17.6173Y-2.9165
X17.6173Y-3.0165
X17.6173Y-3.1165
X17.6173Y-3.2165
X17.6173Y-3.3165
X17.6173Y-3.4165
X17.6173Y-3.5165
X17.6173Y-3.6165
X17.6173Y-3.7165
X17.6173Y-3.8165
X17.6173Y-3.9165
X17.6173Y-4.0165
X17.6173Y-4.1165
X17.6173Y-4.2165
T0
M30
