%TF.GenerationSoftware,KiCad,Pcbnew,5.99.0+really5.1.10+dfsg1-1*%
%TF.CreationDate,2021-12-05T23:32:40+01:00*%
%TF.ProjectId,Backplane,4261636b-706c-4616-9e65-2e6b69636164,rev?*%
%TF.SameCoordinates,Original*%
%TF.FileFunction,Legend,Bot*%
%TF.FilePolarity,Positive*%
%FSLAX46Y46*%
G04 Gerber Fmt 4.6, Leading zero omitted, Abs format (unit mm)*
G04 Created by KiCad (PCBNEW 5.99.0+really5.1.10+dfsg1-1) date 2021-12-05 23:32:40*
%MOMM*%
%LPD*%
G01*
G04 APERTURE LIST*
%ADD10C,0.150000*%
%ADD11C,0.120000*%
G04 APERTURE END LIST*
D10*
X55682857Y-66604761D02*
X55540000Y-66652380D01*
X55301904Y-66652380D01*
X55206666Y-66604761D01*
X55159047Y-66557142D01*
X55111428Y-66461904D01*
X55111428Y-66366666D01*
X55159047Y-66271428D01*
X55206666Y-66223809D01*
X55301904Y-66176190D01*
X55492380Y-66128571D01*
X55587619Y-66080952D01*
X55635238Y-66033333D01*
X55682857Y-65938095D01*
X55682857Y-65842857D01*
X55635238Y-65747619D01*
X55587619Y-65700000D01*
X55492380Y-65652380D01*
X55254285Y-65652380D01*
X55111428Y-65700000D01*
X54540000Y-66652380D02*
X54635238Y-66604761D01*
X54682857Y-66509523D01*
X54682857Y-65652380D01*
X54016190Y-66652380D02*
X54111428Y-66604761D01*
X54159047Y-66557142D01*
X54206666Y-66461904D01*
X54206666Y-66176190D01*
X54159047Y-66080952D01*
X54111428Y-66033333D01*
X54016190Y-65985714D01*
X53873333Y-65985714D01*
X53778095Y-66033333D01*
X53730476Y-66080952D01*
X53682857Y-66176190D01*
X53682857Y-66461904D01*
X53730476Y-66557142D01*
X53778095Y-66604761D01*
X53873333Y-66652380D01*
X54016190Y-66652380D01*
X53397142Y-65985714D02*
X53016190Y-65985714D01*
X53254285Y-65652380D02*
X53254285Y-66509523D01*
X53206666Y-66604761D01*
X53111428Y-66652380D01*
X53016190Y-66652380D01*
X51397142Y-66652380D02*
X51968571Y-66652380D01*
X51682857Y-66652380D02*
X51682857Y-65652380D01*
X51778095Y-65795238D01*
X51873333Y-65890476D01*
X51968571Y-65938095D01*
X76282857Y-66604761D02*
X76140000Y-66652380D01*
X75901904Y-66652380D01*
X75806666Y-66604761D01*
X75759047Y-66557142D01*
X75711428Y-66461904D01*
X75711428Y-66366666D01*
X75759047Y-66271428D01*
X75806666Y-66223809D01*
X75901904Y-66176190D01*
X76092380Y-66128571D01*
X76187619Y-66080952D01*
X76235238Y-66033333D01*
X76282857Y-65938095D01*
X76282857Y-65842857D01*
X76235238Y-65747619D01*
X76187619Y-65700000D01*
X76092380Y-65652380D01*
X75854285Y-65652380D01*
X75711428Y-65700000D01*
X75140000Y-66652380D02*
X75235238Y-66604761D01*
X75282857Y-66509523D01*
X75282857Y-65652380D01*
X74616190Y-66652380D02*
X74711428Y-66604761D01*
X74759047Y-66557142D01*
X74806666Y-66461904D01*
X74806666Y-66176190D01*
X74759047Y-66080952D01*
X74711428Y-66033333D01*
X74616190Y-65985714D01*
X74473333Y-65985714D01*
X74378095Y-66033333D01*
X74330476Y-66080952D01*
X74282857Y-66176190D01*
X74282857Y-66461904D01*
X74330476Y-66557142D01*
X74378095Y-66604761D01*
X74473333Y-66652380D01*
X74616190Y-66652380D01*
X73997142Y-65985714D02*
X73616190Y-65985714D01*
X73854285Y-65652380D02*
X73854285Y-66509523D01*
X73806666Y-66604761D01*
X73711428Y-66652380D01*
X73616190Y-66652380D01*
X72568571Y-65747619D02*
X72520952Y-65700000D01*
X72425714Y-65652380D01*
X72187619Y-65652380D01*
X72092380Y-65700000D01*
X72044761Y-65747619D01*
X71997142Y-65842857D01*
X71997142Y-65938095D01*
X72044761Y-66080952D01*
X72616190Y-66652380D01*
X71997142Y-66652380D01*
X96882857Y-66604761D02*
X96740000Y-66652380D01*
X96501904Y-66652380D01*
X96406666Y-66604761D01*
X96359047Y-66557142D01*
X96311428Y-66461904D01*
X96311428Y-66366666D01*
X96359047Y-66271428D01*
X96406666Y-66223809D01*
X96501904Y-66176190D01*
X96692380Y-66128571D01*
X96787619Y-66080952D01*
X96835238Y-66033333D01*
X96882857Y-65938095D01*
X96882857Y-65842857D01*
X96835238Y-65747619D01*
X96787619Y-65700000D01*
X96692380Y-65652380D01*
X96454285Y-65652380D01*
X96311428Y-65700000D01*
X95740000Y-66652380D02*
X95835238Y-66604761D01*
X95882857Y-66509523D01*
X95882857Y-65652380D01*
X95216190Y-66652380D02*
X95311428Y-66604761D01*
X95359047Y-66557142D01*
X95406666Y-66461904D01*
X95406666Y-66176190D01*
X95359047Y-66080952D01*
X95311428Y-66033333D01*
X95216190Y-65985714D01*
X95073333Y-65985714D01*
X94978095Y-66033333D01*
X94930476Y-66080952D01*
X94882857Y-66176190D01*
X94882857Y-66461904D01*
X94930476Y-66557142D01*
X94978095Y-66604761D01*
X95073333Y-66652380D01*
X95216190Y-66652380D01*
X94597142Y-65985714D02*
X94216190Y-65985714D01*
X94454285Y-65652380D02*
X94454285Y-66509523D01*
X94406666Y-66604761D01*
X94311428Y-66652380D01*
X94216190Y-66652380D01*
X93216190Y-65652380D02*
X92597142Y-65652380D01*
X92930476Y-66033333D01*
X92787619Y-66033333D01*
X92692380Y-66080952D01*
X92644761Y-66128571D01*
X92597142Y-66223809D01*
X92597142Y-66461904D01*
X92644761Y-66557142D01*
X92692380Y-66604761D01*
X92787619Y-66652380D01*
X93073333Y-66652380D01*
X93168571Y-66604761D01*
X93216190Y-66557142D01*
X117482857Y-66604761D02*
X117340000Y-66652380D01*
X117101904Y-66652380D01*
X117006666Y-66604761D01*
X116959047Y-66557142D01*
X116911428Y-66461904D01*
X116911428Y-66366666D01*
X116959047Y-66271428D01*
X117006666Y-66223809D01*
X117101904Y-66176190D01*
X117292380Y-66128571D01*
X117387619Y-66080952D01*
X117435238Y-66033333D01*
X117482857Y-65938095D01*
X117482857Y-65842857D01*
X117435238Y-65747619D01*
X117387619Y-65700000D01*
X117292380Y-65652380D01*
X117054285Y-65652380D01*
X116911428Y-65700000D01*
X116340000Y-66652380D02*
X116435238Y-66604761D01*
X116482857Y-66509523D01*
X116482857Y-65652380D01*
X115816190Y-66652380D02*
X115911428Y-66604761D01*
X115959047Y-66557142D01*
X116006666Y-66461904D01*
X116006666Y-66176190D01*
X115959047Y-66080952D01*
X115911428Y-66033333D01*
X115816190Y-65985714D01*
X115673333Y-65985714D01*
X115578095Y-66033333D01*
X115530476Y-66080952D01*
X115482857Y-66176190D01*
X115482857Y-66461904D01*
X115530476Y-66557142D01*
X115578095Y-66604761D01*
X115673333Y-66652380D01*
X115816190Y-66652380D01*
X115197142Y-65985714D02*
X114816190Y-65985714D01*
X115054285Y-65652380D02*
X115054285Y-66509523D01*
X115006666Y-66604761D01*
X114911428Y-66652380D01*
X114816190Y-66652380D01*
X113292380Y-65985714D02*
X113292380Y-66652380D01*
X113530476Y-65604761D02*
X113768571Y-66319047D01*
X113149523Y-66319047D01*
X138082857Y-66604761D02*
X137940000Y-66652380D01*
X137701904Y-66652380D01*
X137606666Y-66604761D01*
X137559047Y-66557142D01*
X137511428Y-66461904D01*
X137511428Y-66366666D01*
X137559047Y-66271428D01*
X137606666Y-66223809D01*
X137701904Y-66176190D01*
X137892380Y-66128571D01*
X137987619Y-66080952D01*
X138035238Y-66033333D01*
X138082857Y-65938095D01*
X138082857Y-65842857D01*
X138035238Y-65747619D01*
X137987619Y-65700000D01*
X137892380Y-65652380D01*
X137654285Y-65652380D01*
X137511428Y-65700000D01*
X136940000Y-66652380D02*
X137035238Y-66604761D01*
X137082857Y-66509523D01*
X137082857Y-65652380D01*
X136416190Y-66652380D02*
X136511428Y-66604761D01*
X136559047Y-66557142D01*
X136606666Y-66461904D01*
X136606666Y-66176190D01*
X136559047Y-66080952D01*
X136511428Y-66033333D01*
X136416190Y-65985714D01*
X136273333Y-65985714D01*
X136178095Y-66033333D01*
X136130476Y-66080952D01*
X136082857Y-66176190D01*
X136082857Y-66461904D01*
X136130476Y-66557142D01*
X136178095Y-66604761D01*
X136273333Y-66652380D01*
X136416190Y-66652380D01*
X135797142Y-65985714D02*
X135416190Y-65985714D01*
X135654285Y-65652380D02*
X135654285Y-66509523D01*
X135606666Y-66604761D01*
X135511428Y-66652380D01*
X135416190Y-66652380D01*
X133844761Y-65652380D02*
X134320952Y-65652380D01*
X134368571Y-66128571D01*
X134320952Y-66080952D01*
X134225714Y-66033333D01*
X133987619Y-66033333D01*
X133892380Y-66080952D01*
X133844761Y-66128571D01*
X133797142Y-66223809D01*
X133797142Y-66461904D01*
X133844761Y-66557142D01*
X133892380Y-66604761D01*
X133987619Y-66652380D01*
X134225714Y-66652380D01*
X134320952Y-66604761D01*
X134368571Y-66557142D01*
X158682857Y-66604761D02*
X158540000Y-66652380D01*
X158301904Y-66652380D01*
X158206666Y-66604761D01*
X158159047Y-66557142D01*
X158111428Y-66461904D01*
X158111428Y-66366666D01*
X158159047Y-66271428D01*
X158206666Y-66223809D01*
X158301904Y-66176190D01*
X158492380Y-66128571D01*
X158587619Y-66080952D01*
X158635238Y-66033333D01*
X158682857Y-65938095D01*
X158682857Y-65842857D01*
X158635238Y-65747619D01*
X158587619Y-65700000D01*
X158492380Y-65652380D01*
X158254285Y-65652380D01*
X158111428Y-65700000D01*
X157540000Y-66652380D02*
X157635238Y-66604761D01*
X157682857Y-66509523D01*
X157682857Y-65652380D01*
X157016190Y-66652380D02*
X157111428Y-66604761D01*
X157159047Y-66557142D01*
X157206666Y-66461904D01*
X157206666Y-66176190D01*
X157159047Y-66080952D01*
X157111428Y-66033333D01*
X157016190Y-65985714D01*
X156873333Y-65985714D01*
X156778095Y-66033333D01*
X156730476Y-66080952D01*
X156682857Y-66176190D01*
X156682857Y-66461904D01*
X156730476Y-66557142D01*
X156778095Y-66604761D01*
X156873333Y-66652380D01*
X157016190Y-66652380D01*
X156397142Y-65985714D02*
X156016190Y-65985714D01*
X156254285Y-65652380D02*
X156254285Y-66509523D01*
X156206666Y-66604761D01*
X156111428Y-66652380D01*
X156016190Y-66652380D01*
X154492380Y-65652380D02*
X154682857Y-65652380D01*
X154778095Y-65700000D01*
X154825714Y-65747619D01*
X154920952Y-65890476D01*
X154968571Y-66080952D01*
X154968571Y-66461904D01*
X154920952Y-66557142D01*
X154873333Y-66604761D01*
X154778095Y-66652380D01*
X154587619Y-66652380D01*
X154492380Y-66604761D01*
X154444761Y-66557142D01*
X154397142Y-66461904D01*
X154397142Y-66223809D01*
X154444761Y-66128571D01*
X154492380Y-66080952D01*
X154587619Y-66033333D01*
X154778095Y-66033333D01*
X154873333Y-66080952D01*
X154920952Y-66128571D01*
X154968571Y-66223809D01*
X179282857Y-66604761D02*
X179140000Y-66652380D01*
X178901904Y-66652380D01*
X178806666Y-66604761D01*
X178759047Y-66557142D01*
X178711428Y-66461904D01*
X178711428Y-66366666D01*
X178759047Y-66271428D01*
X178806666Y-66223809D01*
X178901904Y-66176190D01*
X179092380Y-66128571D01*
X179187619Y-66080952D01*
X179235238Y-66033333D01*
X179282857Y-65938095D01*
X179282857Y-65842857D01*
X179235238Y-65747619D01*
X179187619Y-65700000D01*
X179092380Y-65652380D01*
X178854285Y-65652380D01*
X178711428Y-65700000D01*
X178140000Y-66652380D02*
X178235238Y-66604761D01*
X178282857Y-66509523D01*
X178282857Y-65652380D01*
X177616190Y-66652380D02*
X177711428Y-66604761D01*
X177759047Y-66557142D01*
X177806666Y-66461904D01*
X177806666Y-66176190D01*
X177759047Y-66080952D01*
X177711428Y-66033333D01*
X177616190Y-65985714D01*
X177473333Y-65985714D01*
X177378095Y-66033333D01*
X177330476Y-66080952D01*
X177282857Y-66176190D01*
X177282857Y-66461904D01*
X177330476Y-66557142D01*
X177378095Y-66604761D01*
X177473333Y-66652380D01*
X177616190Y-66652380D01*
X176997142Y-65985714D02*
X176616190Y-65985714D01*
X176854285Y-65652380D02*
X176854285Y-66509523D01*
X176806666Y-66604761D01*
X176711428Y-66652380D01*
X176616190Y-66652380D01*
X175616190Y-65652380D02*
X174949523Y-65652380D01*
X175378095Y-66652380D01*
X199882857Y-66604761D02*
X199740000Y-66652380D01*
X199501904Y-66652380D01*
X199406666Y-66604761D01*
X199359047Y-66557142D01*
X199311428Y-66461904D01*
X199311428Y-66366666D01*
X199359047Y-66271428D01*
X199406666Y-66223809D01*
X199501904Y-66176190D01*
X199692380Y-66128571D01*
X199787619Y-66080952D01*
X199835238Y-66033333D01*
X199882857Y-65938095D01*
X199882857Y-65842857D01*
X199835238Y-65747619D01*
X199787619Y-65700000D01*
X199692380Y-65652380D01*
X199454285Y-65652380D01*
X199311428Y-65700000D01*
X198740000Y-66652380D02*
X198835238Y-66604761D01*
X198882857Y-66509523D01*
X198882857Y-65652380D01*
X198216190Y-66652380D02*
X198311428Y-66604761D01*
X198359047Y-66557142D01*
X198406666Y-66461904D01*
X198406666Y-66176190D01*
X198359047Y-66080952D01*
X198311428Y-66033333D01*
X198216190Y-65985714D01*
X198073333Y-65985714D01*
X197978095Y-66033333D01*
X197930476Y-66080952D01*
X197882857Y-66176190D01*
X197882857Y-66461904D01*
X197930476Y-66557142D01*
X197978095Y-66604761D01*
X198073333Y-66652380D01*
X198216190Y-66652380D01*
X197597142Y-65985714D02*
X197216190Y-65985714D01*
X197454285Y-65652380D02*
X197454285Y-66509523D01*
X197406666Y-66604761D01*
X197311428Y-66652380D01*
X197216190Y-66652380D01*
X195978095Y-66080952D02*
X196073333Y-66033333D01*
X196120952Y-65985714D01*
X196168571Y-65890476D01*
X196168571Y-65842857D01*
X196120952Y-65747619D01*
X196073333Y-65700000D01*
X195978095Y-65652380D01*
X195787619Y-65652380D01*
X195692380Y-65700000D01*
X195644761Y-65747619D01*
X195597142Y-65842857D01*
X195597142Y-65890476D01*
X195644761Y-65985714D01*
X195692380Y-66033333D01*
X195787619Y-66080952D01*
X195978095Y-66080952D01*
X196073333Y-66128571D01*
X196120952Y-66176190D01*
X196168571Y-66271428D01*
X196168571Y-66461904D01*
X196120952Y-66557142D01*
X196073333Y-66604761D01*
X195978095Y-66652380D01*
X195787619Y-66652380D01*
X195692380Y-66604761D01*
X195644761Y-66557142D01*
X195597142Y-66461904D01*
X195597142Y-66271428D01*
X195644761Y-66176190D01*
X195692380Y-66128571D01*
X195787619Y-66080952D01*
X220482857Y-66604761D02*
X220340000Y-66652380D01*
X220101904Y-66652380D01*
X220006666Y-66604761D01*
X219959047Y-66557142D01*
X219911428Y-66461904D01*
X219911428Y-66366666D01*
X219959047Y-66271428D01*
X220006666Y-66223809D01*
X220101904Y-66176190D01*
X220292380Y-66128571D01*
X220387619Y-66080952D01*
X220435238Y-66033333D01*
X220482857Y-65938095D01*
X220482857Y-65842857D01*
X220435238Y-65747619D01*
X220387619Y-65700000D01*
X220292380Y-65652380D01*
X220054285Y-65652380D01*
X219911428Y-65700000D01*
X219340000Y-66652380D02*
X219435238Y-66604761D01*
X219482857Y-66509523D01*
X219482857Y-65652380D01*
X218816190Y-66652380D02*
X218911428Y-66604761D01*
X218959047Y-66557142D01*
X219006666Y-66461904D01*
X219006666Y-66176190D01*
X218959047Y-66080952D01*
X218911428Y-66033333D01*
X218816190Y-65985714D01*
X218673333Y-65985714D01*
X218578095Y-66033333D01*
X218530476Y-66080952D01*
X218482857Y-66176190D01*
X218482857Y-66461904D01*
X218530476Y-66557142D01*
X218578095Y-66604761D01*
X218673333Y-66652380D01*
X218816190Y-66652380D01*
X218197142Y-65985714D02*
X217816190Y-65985714D01*
X218054285Y-65652380D02*
X218054285Y-66509523D01*
X218006666Y-66604761D01*
X217911428Y-66652380D01*
X217816190Y-66652380D01*
X216673333Y-66652380D02*
X216482857Y-66652380D01*
X216387619Y-66604761D01*
X216340000Y-66557142D01*
X216244761Y-66414285D01*
X216197142Y-66223809D01*
X216197142Y-65842857D01*
X216244761Y-65747619D01*
X216292380Y-65700000D01*
X216387619Y-65652380D01*
X216578095Y-65652380D01*
X216673333Y-65700000D01*
X216720952Y-65747619D01*
X216768571Y-65842857D01*
X216768571Y-66080952D01*
X216720952Y-66176190D01*
X216673333Y-66223809D01*
X216578095Y-66271428D01*
X216387619Y-66271428D01*
X216292380Y-66223809D01*
X216244761Y-66176190D01*
X216197142Y-66080952D01*
X241559047Y-66604761D02*
X241416190Y-66652380D01*
X241178095Y-66652380D01*
X241082857Y-66604761D01*
X241035238Y-66557142D01*
X240987619Y-66461904D01*
X240987619Y-66366666D01*
X241035238Y-66271428D01*
X241082857Y-66223809D01*
X241178095Y-66176190D01*
X241368571Y-66128571D01*
X241463809Y-66080952D01*
X241511428Y-66033333D01*
X241559047Y-65938095D01*
X241559047Y-65842857D01*
X241511428Y-65747619D01*
X241463809Y-65700000D01*
X241368571Y-65652380D01*
X241130476Y-65652380D01*
X240987619Y-65700000D01*
X240416190Y-66652380D02*
X240511428Y-66604761D01*
X240559047Y-66509523D01*
X240559047Y-65652380D01*
X239892380Y-66652380D02*
X239987619Y-66604761D01*
X240035238Y-66557142D01*
X240082857Y-66461904D01*
X240082857Y-66176190D01*
X240035238Y-66080952D01*
X239987619Y-66033333D01*
X239892380Y-65985714D01*
X239749523Y-65985714D01*
X239654285Y-66033333D01*
X239606666Y-66080952D01*
X239559047Y-66176190D01*
X239559047Y-66461904D01*
X239606666Y-66557142D01*
X239654285Y-66604761D01*
X239749523Y-66652380D01*
X239892380Y-66652380D01*
X239273333Y-65985714D02*
X238892380Y-65985714D01*
X239130476Y-65652380D02*
X239130476Y-66509523D01*
X239082857Y-66604761D01*
X238987619Y-66652380D01*
X238892380Y-66652380D01*
X237273333Y-66652380D02*
X237844761Y-66652380D01*
X237559047Y-66652380D02*
X237559047Y-65652380D01*
X237654285Y-65795238D01*
X237749523Y-65890476D01*
X237844761Y-65938095D01*
X236654285Y-65652380D02*
X236559047Y-65652380D01*
X236463809Y-65700000D01*
X236416190Y-65747619D01*
X236368571Y-65842857D01*
X236320952Y-66033333D01*
X236320952Y-66271428D01*
X236368571Y-66461904D01*
X236416190Y-66557142D01*
X236463809Y-66604761D01*
X236559047Y-66652380D01*
X236654285Y-66652380D01*
X236749523Y-66604761D01*
X236797142Y-66557142D01*
X236844761Y-66461904D01*
X236892380Y-66271428D01*
X236892380Y-66033333D01*
X236844761Y-65842857D01*
X236797142Y-65747619D01*
X236749523Y-65700000D01*
X236654285Y-65652380D01*
X262159047Y-66604761D02*
X262016190Y-66652380D01*
X261778095Y-66652380D01*
X261682857Y-66604761D01*
X261635238Y-66557142D01*
X261587619Y-66461904D01*
X261587619Y-66366666D01*
X261635238Y-66271428D01*
X261682857Y-66223809D01*
X261778095Y-66176190D01*
X261968571Y-66128571D01*
X262063809Y-66080952D01*
X262111428Y-66033333D01*
X262159047Y-65938095D01*
X262159047Y-65842857D01*
X262111428Y-65747619D01*
X262063809Y-65700000D01*
X261968571Y-65652380D01*
X261730476Y-65652380D01*
X261587619Y-65700000D01*
X261016190Y-66652380D02*
X261111428Y-66604761D01*
X261159047Y-66509523D01*
X261159047Y-65652380D01*
X260492380Y-66652380D02*
X260587619Y-66604761D01*
X260635238Y-66557142D01*
X260682857Y-66461904D01*
X260682857Y-66176190D01*
X260635238Y-66080952D01*
X260587619Y-66033333D01*
X260492380Y-65985714D01*
X260349523Y-65985714D01*
X260254285Y-66033333D01*
X260206666Y-66080952D01*
X260159047Y-66176190D01*
X260159047Y-66461904D01*
X260206666Y-66557142D01*
X260254285Y-66604761D01*
X260349523Y-66652380D01*
X260492380Y-66652380D01*
X259873333Y-65985714D02*
X259492380Y-65985714D01*
X259730476Y-65652380D02*
X259730476Y-66509523D01*
X259682857Y-66604761D01*
X259587619Y-66652380D01*
X259492380Y-66652380D01*
X257873333Y-66652380D02*
X258444761Y-66652380D01*
X258159047Y-66652380D02*
X258159047Y-65652380D01*
X258254285Y-65795238D01*
X258349523Y-65890476D01*
X258444761Y-65938095D01*
X256920952Y-66652380D02*
X257492380Y-66652380D01*
X257206666Y-66652380D02*
X257206666Y-65652380D01*
X257301904Y-65795238D01*
X257397142Y-65890476D01*
X257492380Y-65938095D01*
X282759047Y-66604761D02*
X282616190Y-66652380D01*
X282378095Y-66652380D01*
X282282857Y-66604761D01*
X282235238Y-66557142D01*
X282187619Y-66461904D01*
X282187619Y-66366666D01*
X282235238Y-66271428D01*
X282282857Y-66223809D01*
X282378095Y-66176190D01*
X282568571Y-66128571D01*
X282663809Y-66080952D01*
X282711428Y-66033333D01*
X282759047Y-65938095D01*
X282759047Y-65842857D01*
X282711428Y-65747619D01*
X282663809Y-65700000D01*
X282568571Y-65652380D01*
X282330476Y-65652380D01*
X282187619Y-65700000D01*
X281616190Y-66652380D02*
X281711428Y-66604761D01*
X281759047Y-66509523D01*
X281759047Y-65652380D01*
X281092380Y-66652380D02*
X281187619Y-66604761D01*
X281235238Y-66557142D01*
X281282857Y-66461904D01*
X281282857Y-66176190D01*
X281235238Y-66080952D01*
X281187619Y-66033333D01*
X281092380Y-65985714D01*
X280949523Y-65985714D01*
X280854285Y-66033333D01*
X280806666Y-66080952D01*
X280759047Y-66176190D01*
X280759047Y-66461904D01*
X280806666Y-66557142D01*
X280854285Y-66604761D01*
X280949523Y-66652380D01*
X281092380Y-66652380D01*
X280473333Y-65985714D02*
X280092380Y-65985714D01*
X280330476Y-65652380D02*
X280330476Y-66509523D01*
X280282857Y-66604761D01*
X280187619Y-66652380D01*
X280092380Y-66652380D01*
X278473333Y-66652380D02*
X279044761Y-66652380D01*
X278759047Y-66652380D02*
X278759047Y-65652380D01*
X278854285Y-65795238D01*
X278949523Y-65890476D01*
X279044761Y-65938095D01*
X278092380Y-65747619D02*
X278044761Y-65700000D01*
X277949523Y-65652380D01*
X277711428Y-65652380D01*
X277616190Y-65700000D01*
X277568571Y-65747619D01*
X277520952Y-65842857D01*
X277520952Y-65938095D01*
X277568571Y-66080952D01*
X278140000Y-66652380D01*
X277520952Y-66652380D01*
X303359047Y-66604761D02*
X303216190Y-66652380D01*
X302978095Y-66652380D01*
X302882857Y-66604761D01*
X302835238Y-66557142D01*
X302787619Y-66461904D01*
X302787619Y-66366666D01*
X302835238Y-66271428D01*
X302882857Y-66223809D01*
X302978095Y-66176190D01*
X303168571Y-66128571D01*
X303263809Y-66080952D01*
X303311428Y-66033333D01*
X303359047Y-65938095D01*
X303359047Y-65842857D01*
X303311428Y-65747619D01*
X303263809Y-65700000D01*
X303168571Y-65652380D01*
X302930476Y-65652380D01*
X302787619Y-65700000D01*
X302216190Y-66652380D02*
X302311428Y-66604761D01*
X302359047Y-66509523D01*
X302359047Y-65652380D01*
X301692380Y-66652380D02*
X301787619Y-66604761D01*
X301835238Y-66557142D01*
X301882857Y-66461904D01*
X301882857Y-66176190D01*
X301835238Y-66080952D01*
X301787619Y-66033333D01*
X301692380Y-65985714D01*
X301549523Y-65985714D01*
X301454285Y-66033333D01*
X301406666Y-66080952D01*
X301359047Y-66176190D01*
X301359047Y-66461904D01*
X301406666Y-66557142D01*
X301454285Y-66604761D01*
X301549523Y-66652380D01*
X301692380Y-66652380D01*
X301073333Y-65985714D02*
X300692380Y-65985714D01*
X300930476Y-65652380D02*
X300930476Y-66509523D01*
X300882857Y-66604761D01*
X300787619Y-66652380D01*
X300692380Y-66652380D01*
X299073333Y-66652380D02*
X299644761Y-66652380D01*
X299359047Y-66652380D02*
X299359047Y-65652380D01*
X299454285Y-65795238D01*
X299549523Y-65890476D01*
X299644761Y-65938095D01*
X298740000Y-65652380D02*
X298120952Y-65652380D01*
X298454285Y-66033333D01*
X298311428Y-66033333D01*
X298216190Y-66080952D01*
X298168571Y-66128571D01*
X298120952Y-66223809D01*
X298120952Y-66461904D01*
X298168571Y-66557142D01*
X298216190Y-66604761D01*
X298311428Y-66652380D01*
X298597142Y-66652380D01*
X298692380Y-66604761D01*
X298740000Y-66557142D01*
X323959047Y-66604761D02*
X323816190Y-66652380D01*
X323578095Y-66652380D01*
X323482857Y-66604761D01*
X323435238Y-66557142D01*
X323387619Y-66461904D01*
X323387619Y-66366666D01*
X323435238Y-66271428D01*
X323482857Y-66223809D01*
X323578095Y-66176190D01*
X323768571Y-66128571D01*
X323863809Y-66080952D01*
X323911428Y-66033333D01*
X323959047Y-65938095D01*
X323959047Y-65842857D01*
X323911428Y-65747619D01*
X323863809Y-65700000D01*
X323768571Y-65652380D01*
X323530476Y-65652380D01*
X323387619Y-65700000D01*
X322816190Y-66652380D02*
X322911428Y-66604761D01*
X322959047Y-66509523D01*
X322959047Y-65652380D01*
X322292380Y-66652380D02*
X322387619Y-66604761D01*
X322435238Y-66557142D01*
X322482857Y-66461904D01*
X322482857Y-66176190D01*
X322435238Y-66080952D01*
X322387619Y-66033333D01*
X322292380Y-65985714D01*
X322149523Y-65985714D01*
X322054285Y-66033333D01*
X322006666Y-66080952D01*
X321959047Y-66176190D01*
X321959047Y-66461904D01*
X322006666Y-66557142D01*
X322054285Y-66604761D01*
X322149523Y-66652380D01*
X322292380Y-66652380D01*
X321673333Y-65985714D02*
X321292380Y-65985714D01*
X321530476Y-65652380D02*
X321530476Y-66509523D01*
X321482857Y-66604761D01*
X321387619Y-66652380D01*
X321292380Y-66652380D01*
X319673333Y-66652380D02*
X320244761Y-66652380D01*
X319959047Y-66652380D02*
X319959047Y-65652380D01*
X320054285Y-65795238D01*
X320149523Y-65890476D01*
X320244761Y-65938095D01*
X318816190Y-65985714D02*
X318816190Y-66652380D01*
X319054285Y-65604761D02*
X319292380Y-66319047D01*
X318673333Y-66319047D01*
X344559047Y-66604761D02*
X344416190Y-66652380D01*
X344178095Y-66652380D01*
X344082857Y-66604761D01*
X344035238Y-66557142D01*
X343987619Y-66461904D01*
X343987619Y-66366666D01*
X344035238Y-66271428D01*
X344082857Y-66223809D01*
X344178095Y-66176190D01*
X344368571Y-66128571D01*
X344463809Y-66080952D01*
X344511428Y-66033333D01*
X344559047Y-65938095D01*
X344559047Y-65842857D01*
X344511428Y-65747619D01*
X344463809Y-65700000D01*
X344368571Y-65652380D01*
X344130476Y-65652380D01*
X343987619Y-65700000D01*
X343416190Y-66652380D02*
X343511428Y-66604761D01*
X343559047Y-66509523D01*
X343559047Y-65652380D01*
X342892380Y-66652380D02*
X342987619Y-66604761D01*
X343035238Y-66557142D01*
X343082857Y-66461904D01*
X343082857Y-66176190D01*
X343035238Y-66080952D01*
X342987619Y-66033333D01*
X342892380Y-65985714D01*
X342749523Y-65985714D01*
X342654285Y-66033333D01*
X342606666Y-66080952D01*
X342559047Y-66176190D01*
X342559047Y-66461904D01*
X342606666Y-66557142D01*
X342654285Y-66604761D01*
X342749523Y-66652380D01*
X342892380Y-66652380D01*
X342273333Y-65985714D02*
X341892380Y-65985714D01*
X342130476Y-65652380D02*
X342130476Y-66509523D01*
X342082857Y-66604761D01*
X341987619Y-66652380D01*
X341892380Y-66652380D01*
X340273333Y-66652380D02*
X340844761Y-66652380D01*
X340559047Y-66652380D02*
X340559047Y-65652380D01*
X340654285Y-65795238D01*
X340749523Y-65890476D01*
X340844761Y-65938095D01*
X339368571Y-65652380D02*
X339844761Y-65652380D01*
X339892380Y-66128571D01*
X339844761Y-66080952D01*
X339749523Y-66033333D01*
X339511428Y-66033333D01*
X339416190Y-66080952D01*
X339368571Y-66128571D01*
X339320952Y-66223809D01*
X339320952Y-66461904D01*
X339368571Y-66557142D01*
X339416190Y-66604761D01*
X339511428Y-66652380D01*
X339749523Y-66652380D01*
X339844761Y-66604761D01*
X339892380Y-66557142D01*
X365159047Y-66604761D02*
X365016190Y-66652380D01*
X364778095Y-66652380D01*
X364682857Y-66604761D01*
X364635238Y-66557142D01*
X364587619Y-66461904D01*
X364587619Y-66366666D01*
X364635238Y-66271428D01*
X364682857Y-66223809D01*
X364778095Y-66176190D01*
X364968571Y-66128571D01*
X365063809Y-66080952D01*
X365111428Y-66033333D01*
X365159047Y-65938095D01*
X365159047Y-65842857D01*
X365111428Y-65747619D01*
X365063809Y-65700000D01*
X364968571Y-65652380D01*
X364730476Y-65652380D01*
X364587619Y-65700000D01*
X364016190Y-66652380D02*
X364111428Y-66604761D01*
X364159047Y-66509523D01*
X364159047Y-65652380D01*
X363492380Y-66652380D02*
X363587619Y-66604761D01*
X363635238Y-66557142D01*
X363682857Y-66461904D01*
X363682857Y-66176190D01*
X363635238Y-66080952D01*
X363587619Y-66033333D01*
X363492380Y-65985714D01*
X363349523Y-65985714D01*
X363254285Y-66033333D01*
X363206666Y-66080952D01*
X363159047Y-66176190D01*
X363159047Y-66461904D01*
X363206666Y-66557142D01*
X363254285Y-66604761D01*
X363349523Y-66652380D01*
X363492380Y-66652380D01*
X362873333Y-65985714D02*
X362492380Y-65985714D01*
X362730476Y-65652380D02*
X362730476Y-66509523D01*
X362682857Y-66604761D01*
X362587619Y-66652380D01*
X362492380Y-66652380D01*
X360873333Y-66652380D02*
X361444761Y-66652380D01*
X361159047Y-66652380D02*
X361159047Y-65652380D01*
X361254285Y-65795238D01*
X361349523Y-65890476D01*
X361444761Y-65938095D01*
X360016190Y-65652380D02*
X360206666Y-65652380D01*
X360301904Y-65700000D01*
X360349523Y-65747619D01*
X360444761Y-65890476D01*
X360492380Y-66080952D01*
X360492380Y-66461904D01*
X360444761Y-66557142D01*
X360397142Y-66604761D01*
X360301904Y-66652380D01*
X360111428Y-66652380D01*
X360016190Y-66604761D01*
X359968571Y-66557142D01*
X359920952Y-66461904D01*
X359920952Y-66223809D01*
X359968571Y-66128571D01*
X360016190Y-66080952D01*
X360111428Y-66033333D01*
X360301904Y-66033333D01*
X360397142Y-66080952D01*
X360444761Y-66128571D01*
X360492380Y-66223809D01*
X385759047Y-66604761D02*
X385616190Y-66652380D01*
X385378095Y-66652380D01*
X385282857Y-66604761D01*
X385235238Y-66557142D01*
X385187619Y-66461904D01*
X385187619Y-66366666D01*
X385235238Y-66271428D01*
X385282857Y-66223809D01*
X385378095Y-66176190D01*
X385568571Y-66128571D01*
X385663809Y-66080952D01*
X385711428Y-66033333D01*
X385759047Y-65938095D01*
X385759047Y-65842857D01*
X385711428Y-65747619D01*
X385663809Y-65700000D01*
X385568571Y-65652380D01*
X385330476Y-65652380D01*
X385187619Y-65700000D01*
X384616190Y-66652380D02*
X384711428Y-66604761D01*
X384759047Y-66509523D01*
X384759047Y-65652380D01*
X384092380Y-66652380D02*
X384187619Y-66604761D01*
X384235238Y-66557142D01*
X384282857Y-66461904D01*
X384282857Y-66176190D01*
X384235238Y-66080952D01*
X384187619Y-66033333D01*
X384092380Y-65985714D01*
X383949523Y-65985714D01*
X383854285Y-66033333D01*
X383806666Y-66080952D01*
X383759047Y-66176190D01*
X383759047Y-66461904D01*
X383806666Y-66557142D01*
X383854285Y-66604761D01*
X383949523Y-66652380D01*
X384092380Y-66652380D01*
X383473333Y-65985714D02*
X383092380Y-65985714D01*
X383330476Y-65652380D02*
X383330476Y-66509523D01*
X383282857Y-66604761D01*
X383187619Y-66652380D01*
X383092380Y-66652380D01*
X381473333Y-66652380D02*
X382044761Y-66652380D01*
X381759047Y-66652380D02*
X381759047Y-65652380D01*
X381854285Y-65795238D01*
X381949523Y-65890476D01*
X382044761Y-65938095D01*
X381140000Y-65652380D02*
X380473333Y-65652380D01*
X380901904Y-66652380D01*
X406359047Y-66604761D02*
X406216190Y-66652380D01*
X405978095Y-66652380D01*
X405882857Y-66604761D01*
X405835238Y-66557142D01*
X405787619Y-66461904D01*
X405787619Y-66366666D01*
X405835238Y-66271428D01*
X405882857Y-66223809D01*
X405978095Y-66176190D01*
X406168571Y-66128571D01*
X406263809Y-66080952D01*
X406311428Y-66033333D01*
X406359047Y-65938095D01*
X406359047Y-65842857D01*
X406311428Y-65747619D01*
X406263809Y-65700000D01*
X406168571Y-65652380D01*
X405930476Y-65652380D01*
X405787619Y-65700000D01*
X405216190Y-66652380D02*
X405311428Y-66604761D01*
X405359047Y-66509523D01*
X405359047Y-65652380D01*
X404692380Y-66652380D02*
X404787619Y-66604761D01*
X404835238Y-66557142D01*
X404882857Y-66461904D01*
X404882857Y-66176190D01*
X404835238Y-66080952D01*
X404787619Y-66033333D01*
X404692380Y-65985714D01*
X404549523Y-65985714D01*
X404454285Y-66033333D01*
X404406666Y-66080952D01*
X404359047Y-66176190D01*
X404359047Y-66461904D01*
X404406666Y-66557142D01*
X404454285Y-66604761D01*
X404549523Y-66652380D01*
X404692380Y-66652380D01*
X404073333Y-65985714D02*
X403692380Y-65985714D01*
X403930476Y-65652380D02*
X403930476Y-66509523D01*
X403882857Y-66604761D01*
X403787619Y-66652380D01*
X403692380Y-66652380D01*
X402073333Y-66652380D02*
X402644761Y-66652380D01*
X402359047Y-66652380D02*
X402359047Y-65652380D01*
X402454285Y-65795238D01*
X402549523Y-65890476D01*
X402644761Y-65938095D01*
X401501904Y-66080952D02*
X401597142Y-66033333D01*
X401644761Y-65985714D01*
X401692380Y-65890476D01*
X401692380Y-65842857D01*
X401644761Y-65747619D01*
X401597142Y-65700000D01*
X401501904Y-65652380D01*
X401311428Y-65652380D01*
X401216190Y-65700000D01*
X401168571Y-65747619D01*
X401120952Y-65842857D01*
X401120952Y-65890476D01*
X401168571Y-65985714D01*
X401216190Y-66033333D01*
X401311428Y-66080952D01*
X401501904Y-66080952D01*
X401597142Y-66128571D01*
X401644761Y-66176190D01*
X401692380Y-66271428D01*
X401692380Y-66461904D01*
X401644761Y-66557142D01*
X401597142Y-66604761D01*
X401501904Y-66652380D01*
X401311428Y-66652380D01*
X401216190Y-66604761D01*
X401168571Y-66557142D01*
X401120952Y-66461904D01*
X401120952Y-66271428D01*
X401168571Y-66176190D01*
X401216190Y-66128571D01*
X401311428Y-66080952D01*
X426959047Y-66604761D02*
X426816190Y-66652380D01*
X426578095Y-66652380D01*
X426482857Y-66604761D01*
X426435238Y-66557142D01*
X426387619Y-66461904D01*
X426387619Y-66366666D01*
X426435238Y-66271428D01*
X426482857Y-66223809D01*
X426578095Y-66176190D01*
X426768571Y-66128571D01*
X426863809Y-66080952D01*
X426911428Y-66033333D01*
X426959047Y-65938095D01*
X426959047Y-65842857D01*
X426911428Y-65747619D01*
X426863809Y-65700000D01*
X426768571Y-65652380D01*
X426530476Y-65652380D01*
X426387619Y-65700000D01*
X425816190Y-66652380D02*
X425911428Y-66604761D01*
X425959047Y-66509523D01*
X425959047Y-65652380D01*
X425292380Y-66652380D02*
X425387619Y-66604761D01*
X425435238Y-66557142D01*
X425482857Y-66461904D01*
X425482857Y-66176190D01*
X425435238Y-66080952D01*
X425387619Y-66033333D01*
X425292380Y-65985714D01*
X425149523Y-65985714D01*
X425054285Y-66033333D01*
X425006666Y-66080952D01*
X424959047Y-66176190D01*
X424959047Y-66461904D01*
X425006666Y-66557142D01*
X425054285Y-66604761D01*
X425149523Y-66652380D01*
X425292380Y-66652380D01*
X424673333Y-65985714D02*
X424292380Y-65985714D01*
X424530476Y-65652380D02*
X424530476Y-66509523D01*
X424482857Y-66604761D01*
X424387619Y-66652380D01*
X424292380Y-66652380D01*
X422673333Y-66652380D02*
X423244761Y-66652380D01*
X422959047Y-66652380D02*
X422959047Y-65652380D01*
X423054285Y-65795238D01*
X423149523Y-65890476D01*
X423244761Y-65938095D01*
X422197142Y-66652380D02*
X422006666Y-66652380D01*
X421911428Y-66604761D01*
X421863809Y-66557142D01*
X421768571Y-66414285D01*
X421720952Y-66223809D01*
X421720952Y-65842857D01*
X421768571Y-65747619D01*
X421816190Y-65700000D01*
X421911428Y-65652380D01*
X422101904Y-65652380D01*
X422197142Y-65700000D01*
X422244761Y-65747619D01*
X422292380Y-65842857D01*
X422292380Y-66080952D01*
X422244761Y-66176190D01*
X422197142Y-66223809D01*
X422101904Y-66271428D01*
X421911428Y-66271428D01*
X421816190Y-66223809D01*
X421768571Y-66176190D01*
X421720952Y-66080952D01*
X447559047Y-66604761D02*
X447416190Y-66652380D01*
X447178095Y-66652380D01*
X447082857Y-66604761D01*
X447035238Y-66557142D01*
X446987619Y-66461904D01*
X446987619Y-66366666D01*
X447035238Y-66271428D01*
X447082857Y-66223809D01*
X447178095Y-66176190D01*
X447368571Y-66128571D01*
X447463809Y-66080952D01*
X447511428Y-66033333D01*
X447559047Y-65938095D01*
X447559047Y-65842857D01*
X447511428Y-65747619D01*
X447463809Y-65700000D01*
X447368571Y-65652380D01*
X447130476Y-65652380D01*
X446987619Y-65700000D01*
X446416190Y-66652380D02*
X446511428Y-66604761D01*
X446559047Y-66509523D01*
X446559047Y-65652380D01*
X445892380Y-66652380D02*
X445987619Y-66604761D01*
X446035238Y-66557142D01*
X446082857Y-66461904D01*
X446082857Y-66176190D01*
X446035238Y-66080952D01*
X445987619Y-66033333D01*
X445892380Y-65985714D01*
X445749523Y-65985714D01*
X445654285Y-66033333D01*
X445606666Y-66080952D01*
X445559047Y-66176190D01*
X445559047Y-66461904D01*
X445606666Y-66557142D01*
X445654285Y-66604761D01*
X445749523Y-66652380D01*
X445892380Y-66652380D01*
X445273333Y-65985714D02*
X444892380Y-65985714D01*
X445130476Y-65652380D02*
X445130476Y-66509523D01*
X445082857Y-66604761D01*
X444987619Y-66652380D01*
X444892380Y-66652380D01*
X443844761Y-65747619D02*
X443797142Y-65700000D01*
X443701904Y-65652380D01*
X443463809Y-65652380D01*
X443368571Y-65700000D01*
X443320952Y-65747619D01*
X443273333Y-65842857D01*
X443273333Y-65938095D01*
X443320952Y-66080952D01*
X443892380Y-66652380D01*
X443273333Y-66652380D01*
X442654285Y-65652380D02*
X442559047Y-65652380D01*
X442463809Y-65700000D01*
X442416190Y-65747619D01*
X442368571Y-65842857D01*
X442320952Y-66033333D01*
X442320952Y-66271428D01*
X442368571Y-66461904D01*
X442416190Y-66557142D01*
X442463809Y-66604761D01*
X442559047Y-66652380D01*
X442654285Y-66652380D01*
X442749523Y-66604761D01*
X442797142Y-66557142D01*
X442844761Y-66461904D01*
X442892380Y-66271428D01*
X442892380Y-66033333D01*
X442844761Y-65842857D01*
X442797142Y-65747619D01*
X442749523Y-65700000D01*
X442654285Y-65652380D01*
D11*
%TO.C,U40*%
X447675000Y-120400000D02*
X447675000Y-122600000D01*
X447675000Y-120400000D02*
X447675000Y-118200000D01*
X442205000Y-120400000D02*
X442205000Y-122600000D01*
X442205000Y-120400000D02*
X442205000Y-116800000D01*
%TO.C,U39*%
X427075000Y-120400000D02*
X427075000Y-122600000D01*
X427075000Y-120400000D02*
X427075000Y-118200000D01*
X421605000Y-120400000D02*
X421605000Y-122600000D01*
X421605000Y-120400000D02*
X421605000Y-116800000D01*
%TO.C,U38*%
X406475000Y-120400000D02*
X406475000Y-122600000D01*
X406475000Y-120400000D02*
X406475000Y-118200000D01*
X401005000Y-120400000D02*
X401005000Y-122600000D01*
X401005000Y-120400000D02*
X401005000Y-116800000D01*
%TO.C,U37*%
X385875000Y-120400000D02*
X385875000Y-122600000D01*
X385875000Y-120400000D02*
X385875000Y-118200000D01*
X380405000Y-120400000D02*
X380405000Y-122600000D01*
X380405000Y-120400000D02*
X380405000Y-116800000D01*
%TO.C,U36*%
X365275000Y-120400000D02*
X365275000Y-122600000D01*
X365275000Y-120400000D02*
X365275000Y-118200000D01*
X359805000Y-120400000D02*
X359805000Y-122600000D01*
X359805000Y-120400000D02*
X359805000Y-116800000D01*
%TO.C,U35*%
X344675000Y-120400000D02*
X344675000Y-122600000D01*
X344675000Y-120400000D02*
X344675000Y-118200000D01*
X339205000Y-120400000D02*
X339205000Y-122600000D01*
X339205000Y-120400000D02*
X339205000Y-116800000D01*
%TO.C,U34*%
X324075000Y-120400000D02*
X324075000Y-122600000D01*
X324075000Y-120400000D02*
X324075000Y-118200000D01*
X318605000Y-120400000D02*
X318605000Y-122600000D01*
X318605000Y-120400000D02*
X318605000Y-116800000D01*
%TO.C,U33*%
X303475000Y-120400000D02*
X303475000Y-122600000D01*
X303475000Y-120400000D02*
X303475000Y-118200000D01*
X298005000Y-120400000D02*
X298005000Y-122600000D01*
X298005000Y-120400000D02*
X298005000Y-116800000D01*
%TO.C,U32*%
X282875000Y-120400000D02*
X282875000Y-122600000D01*
X282875000Y-120400000D02*
X282875000Y-118200000D01*
X277405000Y-120400000D02*
X277405000Y-122600000D01*
X277405000Y-120400000D02*
X277405000Y-116800000D01*
%TO.C,U31*%
X262275000Y-120400000D02*
X262275000Y-122600000D01*
X262275000Y-120400000D02*
X262275000Y-118200000D01*
X256805000Y-120400000D02*
X256805000Y-122600000D01*
X256805000Y-120400000D02*
X256805000Y-116800000D01*
%TO.C,U30*%
X241675000Y-120400000D02*
X241675000Y-122600000D01*
X241675000Y-120400000D02*
X241675000Y-118200000D01*
X236205000Y-120400000D02*
X236205000Y-122600000D01*
X236205000Y-120400000D02*
X236205000Y-116800000D01*
%TO.C,U29*%
X221075000Y-120400000D02*
X221075000Y-122600000D01*
X221075000Y-120400000D02*
X221075000Y-118200000D01*
X215605000Y-120400000D02*
X215605000Y-122600000D01*
X215605000Y-120400000D02*
X215605000Y-116800000D01*
%TO.C,U28*%
X200475000Y-120400000D02*
X200475000Y-122600000D01*
X200475000Y-120400000D02*
X200475000Y-118200000D01*
X195005000Y-120400000D02*
X195005000Y-122600000D01*
X195005000Y-120400000D02*
X195005000Y-116800000D01*
%TO.C,U27*%
X179875000Y-120400000D02*
X179875000Y-122600000D01*
X179875000Y-120400000D02*
X179875000Y-118200000D01*
X174405000Y-120400000D02*
X174405000Y-122600000D01*
X174405000Y-120400000D02*
X174405000Y-116800000D01*
%TO.C,U26*%
X159275000Y-120400000D02*
X159275000Y-122600000D01*
X159275000Y-120400000D02*
X159275000Y-118200000D01*
X153805000Y-120400000D02*
X153805000Y-122600000D01*
X153805000Y-120400000D02*
X153805000Y-116800000D01*
%TO.C,U25*%
X138675000Y-120400000D02*
X138675000Y-122600000D01*
X138675000Y-120400000D02*
X138675000Y-118200000D01*
X133205000Y-120400000D02*
X133205000Y-122600000D01*
X133205000Y-120400000D02*
X133205000Y-116800000D01*
%TO.C,U24*%
X112605000Y-120400000D02*
X112605000Y-116800000D01*
X112605000Y-120400000D02*
X112605000Y-122600000D01*
X118075000Y-120400000D02*
X118075000Y-118200000D01*
X118075000Y-120400000D02*
X118075000Y-122600000D01*
%TO.C,U23*%
X97475000Y-120400000D02*
X97475000Y-122600000D01*
X97475000Y-120400000D02*
X97475000Y-118200000D01*
X92005000Y-120400000D02*
X92005000Y-122600000D01*
X92005000Y-120400000D02*
X92005000Y-116800000D01*
%TO.C,U22*%
X76875000Y-120400000D02*
X76875000Y-122600000D01*
X76875000Y-120400000D02*
X76875000Y-118200000D01*
X71405000Y-120400000D02*
X71405000Y-122600000D01*
X71405000Y-120400000D02*
X71405000Y-116800000D01*
%TO.C,U21*%
X56275000Y-120400000D02*
X56275000Y-122600000D01*
X56275000Y-120400000D02*
X56275000Y-118200000D01*
X50805000Y-120400000D02*
X50805000Y-122600000D01*
X50805000Y-120400000D02*
X50805000Y-116800000D01*
%TO.C,RN1*%
X48100000Y-120680000D02*
X49100000Y-120680000D01*
X48100000Y-117320000D02*
X49100000Y-117320000D01*
%TO.C,R1*%
X48345276Y-122322500D02*
X48854724Y-122322500D01*
X48345276Y-121277500D02*
X48854724Y-121277500D01*
%TO.C,C20*%
X440146267Y-122890000D02*
X439853733Y-122890000D01*
X440146267Y-123910000D02*
X439853733Y-123910000D01*
%TO.C,C19*%
X419546267Y-122890000D02*
X419253733Y-122890000D01*
X419546267Y-123910000D02*
X419253733Y-123910000D01*
%TO.C,C18*%
X398946267Y-122890000D02*
X398653733Y-122890000D01*
X398946267Y-123910000D02*
X398653733Y-123910000D01*
%TO.C,C17*%
X378346267Y-122890000D02*
X378053733Y-122890000D01*
X378346267Y-123910000D02*
X378053733Y-123910000D01*
%TO.C,C16*%
X357746267Y-122890000D02*
X357453733Y-122890000D01*
X357746267Y-123910000D02*
X357453733Y-123910000D01*
%TO.C,C15*%
X337146267Y-122890000D02*
X336853733Y-122890000D01*
X337146267Y-123910000D02*
X336853733Y-123910000D01*
%TO.C,C14*%
X316546267Y-122890000D02*
X316253733Y-122890000D01*
X316546267Y-123910000D02*
X316253733Y-123910000D01*
%TO.C,C13*%
X295946267Y-122890000D02*
X295653733Y-122890000D01*
X295946267Y-123910000D02*
X295653733Y-123910000D01*
%TO.C,C12*%
X275346267Y-122890000D02*
X275053733Y-122890000D01*
X275346267Y-123910000D02*
X275053733Y-123910000D01*
%TO.C,C11*%
X254746267Y-122890000D02*
X254453733Y-122890000D01*
X254746267Y-123910000D02*
X254453733Y-123910000D01*
%TO.C,C10*%
X234146267Y-122890000D02*
X233853733Y-122890000D01*
X234146267Y-123910000D02*
X233853733Y-123910000D01*
%TO.C,C9*%
X213546267Y-122890000D02*
X213253733Y-122890000D01*
X213546267Y-123910000D02*
X213253733Y-123910000D01*
%TO.C,C8*%
X192946267Y-122890000D02*
X192653733Y-122890000D01*
X192946267Y-123910000D02*
X192653733Y-123910000D01*
%TO.C,C7*%
X172346267Y-122890000D02*
X172053733Y-122890000D01*
X172346267Y-123910000D02*
X172053733Y-123910000D01*
%TO.C,C6*%
X151746267Y-122890000D02*
X151453733Y-122890000D01*
X151746267Y-123910000D02*
X151453733Y-123910000D01*
%TO.C,C5*%
X131146267Y-122890000D02*
X130853733Y-122890000D01*
X131146267Y-123910000D02*
X130853733Y-123910000D01*
%TO.C,C4*%
X110546267Y-122890000D02*
X110253733Y-122890000D01*
X110546267Y-123910000D02*
X110253733Y-123910000D01*
%TO.C,C3*%
X89946267Y-122890000D02*
X89653733Y-122890000D01*
X89946267Y-123910000D02*
X89653733Y-123910000D01*
%TO.C,C2*%
X69346267Y-122890000D02*
X69053733Y-122890000D01*
X69346267Y-123910000D02*
X69053733Y-123910000D01*
%TO.C,C1*%
X48746267Y-122890000D02*
X48453733Y-122890000D01*
X48746267Y-123910000D02*
X48453733Y-123910000D01*
%TO.C,U40*%
D10*
X440942380Y-117161904D02*
X441751904Y-117161904D01*
X441847142Y-117209523D01*
X441894761Y-117257142D01*
X441942380Y-117352380D01*
X441942380Y-117542857D01*
X441894761Y-117638095D01*
X441847142Y-117685714D01*
X441751904Y-117733333D01*
X440942380Y-117733333D01*
X441275714Y-118638095D02*
X441942380Y-118638095D01*
X440894761Y-118400000D02*
X441609047Y-118161904D01*
X441609047Y-118780952D01*
X440942380Y-119352380D02*
X440942380Y-119447619D01*
X440990000Y-119542857D01*
X441037619Y-119590476D01*
X441132857Y-119638095D01*
X441323333Y-119685714D01*
X441561428Y-119685714D01*
X441751904Y-119638095D01*
X441847142Y-119590476D01*
X441894761Y-119542857D01*
X441942380Y-119447619D01*
X441942380Y-119352380D01*
X441894761Y-119257142D01*
X441847142Y-119209523D01*
X441751904Y-119161904D01*
X441561428Y-119114285D01*
X441323333Y-119114285D01*
X441132857Y-119161904D01*
X441037619Y-119209523D01*
X440990000Y-119257142D01*
X440942380Y-119352380D01*
%TO.C,U39*%
X420342380Y-117161904D02*
X421151904Y-117161904D01*
X421247142Y-117209523D01*
X421294761Y-117257142D01*
X421342380Y-117352380D01*
X421342380Y-117542857D01*
X421294761Y-117638095D01*
X421247142Y-117685714D01*
X421151904Y-117733333D01*
X420342380Y-117733333D01*
X420342380Y-118114285D02*
X420342380Y-118733333D01*
X420723333Y-118400000D01*
X420723333Y-118542857D01*
X420770952Y-118638095D01*
X420818571Y-118685714D01*
X420913809Y-118733333D01*
X421151904Y-118733333D01*
X421247142Y-118685714D01*
X421294761Y-118638095D01*
X421342380Y-118542857D01*
X421342380Y-118257142D01*
X421294761Y-118161904D01*
X421247142Y-118114285D01*
X421342380Y-119209523D02*
X421342380Y-119400000D01*
X421294761Y-119495238D01*
X421247142Y-119542857D01*
X421104285Y-119638095D01*
X420913809Y-119685714D01*
X420532857Y-119685714D01*
X420437619Y-119638095D01*
X420390000Y-119590476D01*
X420342380Y-119495238D01*
X420342380Y-119304761D01*
X420390000Y-119209523D01*
X420437619Y-119161904D01*
X420532857Y-119114285D01*
X420770952Y-119114285D01*
X420866190Y-119161904D01*
X420913809Y-119209523D01*
X420961428Y-119304761D01*
X420961428Y-119495238D01*
X420913809Y-119590476D01*
X420866190Y-119638095D01*
X420770952Y-119685714D01*
%TO.C,U38*%
X399742380Y-117161904D02*
X400551904Y-117161904D01*
X400647142Y-117209523D01*
X400694761Y-117257142D01*
X400742380Y-117352380D01*
X400742380Y-117542857D01*
X400694761Y-117638095D01*
X400647142Y-117685714D01*
X400551904Y-117733333D01*
X399742380Y-117733333D01*
X399742380Y-118114285D02*
X399742380Y-118733333D01*
X400123333Y-118400000D01*
X400123333Y-118542857D01*
X400170952Y-118638095D01*
X400218571Y-118685714D01*
X400313809Y-118733333D01*
X400551904Y-118733333D01*
X400647142Y-118685714D01*
X400694761Y-118638095D01*
X400742380Y-118542857D01*
X400742380Y-118257142D01*
X400694761Y-118161904D01*
X400647142Y-118114285D01*
X400170952Y-119304761D02*
X400123333Y-119209523D01*
X400075714Y-119161904D01*
X399980476Y-119114285D01*
X399932857Y-119114285D01*
X399837619Y-119161904D01*
X399790000Y-119209523D01*
X399742380Y-119304761D01*
X399742380Y-119495238D01*
X399790000Y-119590476D01*
X399837619Y-119638095D01*
X399932857Y-119685714D01*
X399980476Y-119685714D01*
X400075714Y-119638095D01*
X400123333Y-119590476D01*
X400170952Y-119495238D01*
X400170952Y-119304761D01*
X400218571Y-119209523D01*
X400266190Y-119161904D01*
X400361428Y-119114285D01*
X400551904Y-119114285D01*
X400647142Y-119161904D01*
X400694761Y-119209523D01*
X400742380Y-119304761D01*
X400742380Y-119495238D01*
X400694761Y-119590476D01*
X400647142Y-119638095D01*
X400551904Y-119685714D01*
X400361428Y-119685714D01*
X400266190Y-119638095D01*
X400218571Y-119590476D01*
X400170952Y-119495238D01*
%TO.C,U37*%
X379142380Y-117161904D02*
X379951904Y-117161904D01*
X380047142Y-117209523D01*
X380094761Y-117257142D01*
X380142380Y-117352380D01*
X380142380Y-117542857D01*
X380094761Y-117638095D01*
X380047142Y-117685714D01*
X379951904Y-117733333D01*
X379142380Y-117733333D01*
X379142380Y-118114285D02*
X379142380Y-118733333D01*
X379523333Y-118400000D01*
X379523333Y-118542857D01*
X379570952Y-118638095D01*
X379618571Y-118685714D01*
X379713809Y-118733333D01*
X379951904Y-118733333D01*
X380047142Y-118685714D01*
X380094761Y-118638095D01*
X380142380Y-118542857D01*
X380142380Y-118257142D01*
X380094761Y-118161904D01*
X380047142Y-118114285D01*
X379142380Y-119066666D02*
X379142380Y-119733333D01*
X380142380Y-119304761D01*
%TO.C,U36*%
X358542380Y-117161904D02*
X359351904Y-117161904D01*
X359447142Y-117209523D01*
X359494761Y-117257142D01*
X359542380Y-117352380D01*
X359542380Y-117542857D01*
X359494761Y-117638095D01*
X359447142Y-117685714D01*
X359351904Y-117733333D01*
X358542380Y-117733333D01*
X358542380Y-118114285D02*
X358542380Y-118733333D01*
X358923333Y-118400000D01*
X358923333Y-118542857D01*
X358970952Y-118638095D01*
X359018571Y-118685714D01*
X359113809Y-118733333D01*
X359351904Y-118733333D01*
X359447142Y-118685714D01*
X359494761Y-118638095D01*
X359542380Y-118542857D01*
X359542380Y-118257142D01*
X359494761Y-118161904D01*
X359447142Y-118114285D01*
X358542380Y-119590476D02*
X358542380Y-119400000D01*
X358590000Y-119304761D01*
X358637619Y-119257142D01*
X358780476Y-119161904D01*
X358970952Y-119114285D01*
X359351904Y-119114285D01*
X359447142Y-119161904D01*
X359494761Y-119209523D01*
X359542380Y-119304761D01*
X359542380Y-119495238D01*
X359494761Y-119590476D01*
X359447142Y-119638095D01*
X359351904Y-119685714D01*
X359113809Y-119685714D01*
X359018571Y-119638095D01*
X358970952Y-119590476D01*
X358923333Y-119495238D01*
X358923333Y-119304761D01*
X358970952Y-119209523D01*
X359018571Y-119161904D01*
X359113809Y-119114285D01*
%TO.C,U35*%
X337942380Y-117161904D02*
X338751904Y-117161904D01*
X338847142Y-117209523D01*
X338894761Y-117257142D01*
X338942380Y-117352380D01*
X338942380Y-117542857D01*
X338894761Y-117638095D01*
X338847142Y-117685714D01*
X338751904Y-117733333D01*
X337942380Y-117733333D01*
X337942380Y-118114285D02*
X337942380Y-118733333D01*
X338323333Y-118400000D01*
X338323333Y-118542857D01*
X338370952Y-118638095D01*
X338418571Y-118685714D01*
X338513809Y-118733333D01*
X338751904Y-118733333D01*
X338847142Y-118685714D01*
X338894761Y-118638095D01*
X338942380Y-118542857D01*
X338942380Y-118257142D01*
X338894761Y-118161904D01*
X338847142Y-118114285D01*
X337942380Y-119638095D02*
X337942380Y-119161904D01*
X338418571Y-119114285D01*
X338370952Y-119161904D01*
X338323333Y-119257142D01*
X338323333Y-119495238D01*
X338370952Y-119590476D01*
X338418571Y-119638095D01*
X338513809Y-119685714D01*
X338751904Y-119685714D01*
X338847142Y-119638095D01*
X338894761Y-119590476D01*
X338942380Y-119495238D01*
X338942380Y-119257142D01*
X338894761Y-119161904D01*
X338847142Y-119114285D01*
%TO.C,U34*%
X317342380Y-117161904D02*
X318151904Y-117161904D01*
X318247142Y-117209523D01*
X318294761Y-117257142D01*
X318342380Y-117352380D01*
X318342380Y-117542857D01*
X318294761Y-117638095D01*
X318247142Y-117685714D01*
X318151904Y-117733333D01*
X317342380Y-117733333D01*
X317342380Y-118114285D02*
X317342380Y-118733333D01*
X317723333Y-118400000D01*
X317723333Y-118542857D01*
X317770952Y-118638095D01*
X317818571Y-118685714D01*
X317913809Y-118733333D01*
X318151904Y-118733333D01*
X318247142Y-118685714D01*
X318294761Y-118638095D01*
X318342380Y-118542857D01*
X318342380Y-118257142D01*
X318294761Y-118161904D01*
X318247142Y-118114285D01*
X317675714Y-119590476D02*
X318342380Y-119590476D01*
X317294761Y-119352380D02*
X318009047Y-119114285D01*
X318009047Y-119733333D01*
%TO.C,U33*%
X296742380Y-117161904D02*
X297551904Y-117161904D01*
X297647142Y-117209523D01*
X297694761Y-117257142D01*
X297742380Y-117352380D01*
X297742380Y-117542857D01*
X297694761Y-117638095D01*
X297647142Y-117685714D01*
X297551904Y-117733333D01*
X296742380Y-117733333D01*
X296742380Y-118114285D02*
X296742380Y-118733333D01*
X297123333Y-118400000D01*
X297123333Y-118542857D01*
X297170952Y-118638095D01*
X297218571Y-118685714D01*
X297313809Y-118733333D01*
X297551904Y-118733333D01*
X297647142Y-118685714D01*
X297694761Y-118638095D01*
X297742380Y-118542857D01*
X297742380Y-118257142D01*
X297694761Y-118161904D01*
X297647142Y-118114285D01*
X296742380Y-119066666D02*
X296742380Y-119685714D01*
X297123333Y-119352380D01*
X297123333Y-119495238D01*
X297170952Y-119590476D01*
X297218571Y-119638095D01*
X297313809Y-119685714D01*
X297551904Y-119685714D01*
X297647142Y-119638095D01*
X297694761Y-119590476D01*
X297742380Y-119495238D01*
X297742380Y-119209523D01*
X297694761Y-119114285D01*
X297647142Y-119066666D01*
%TO.C,U32*%
X276142380Y-117161904D02*
X276951904Y-117161904D01*
X277047142Y-117209523D01*
X277094761Y-117257142D01*
X277142380Y-117352380D01*
X277142380Y-117542857D01*
X277094761Y-117638095D01*
X277047142Y-117685714D01*
X276951904Y-117733333D01*
X276142380Y-117733333D01*
X276142380Y-118114285D02*
X276142380Y-118733333D01*
X276523333Y-118400000D01*
X276523333Y-118542857D01*
X276570952Y-118638095D01*
X276618571Y-118685714D01*
X276713809Y-118733333D01*
X276951904Y-118733333D01*
X277047142Y-118685714D01*
X277094761Y-118638095D01*
X277142380Y-118542857D01*
X277142380Y-118257142D01*
X277094761Y-118161904D01*
X277047142Y-118114285D01*
X276237619Y-119114285D02*
X276190000Y-119161904D01*
X276142380Y-119257142D01*
X276142380Y-119495238D01*
X276190000Y-119590476D01*
X276237619Y-119638095D01*
X276332857Y-119685714D01*
X276428095Y-119685714D01*
X276570952Y-119638095D01*
X277142380Y-119066666D01*
X277142380Y-119685714D01*
%TO.C,U31*%
X255542380Y-117161904D02*
X256351904Y-117161904D01*
X256447142Y-117209523D01*
X256494761Y-117257142D01*
X256542380Y-117352380D01*
X256542380Y-117542857D01*
X256494761Y-117638095D01*
X256447142Y-117685714D01*
X256351904Y-117733333D01*
X255542380Y-117733333D01*
X255542380Y-118114285D02*
X255542380Y-118733333D01*
X255923333Y-118400000D01*
X255923333Y-118542857D01*
X255970952Y-118638095D01*
X256018571Y-118685714D01*
X256113809Y-118733333D01*
X256351904Y-118733333D01*
X256447142Y-118685714D01*
X256494761Y-118638095D01*
X256542380Y-118542857D01*
X256542380Y-118257142D01*
X256494761Y-118161904D01*
X256447142Y-118114285D01*
X256542380Y-119685714D02*
X256542380Y-119114285D01*
X256542380Y-119400000D02*
X255542380Y-119400000D01*
X255685238Y-119304761D01*
X255780476Y-119209523D01*
X255828095Y-119114285D01*
%TO.C,U30*%
X234942380Y-117161904D02*
X235751904Y-117161904D01*
X235847142Y-117209523D01*
X235894761Y-117257142D01*
X235942380Y-117352380D01*
X235942380Y-117542857D01*
X235894761Y-117638095D01*
X235847142Y-117685714D01*
X235751904Y-117733333D01*
X234942380Y-117733333D01*
X234942380Y-118114285D02*
X234942380Y-118733333D01*
X235323333Y-118400000D01*
X235323333Y-118542857D01*
X235370952Y-118638095D01*
X235418571Y-118685714D01*
X235513809Y-118733333D01*
X235751904Y-118733333D01*
X235847142Y-118685714D01*
X235894761Y-118638095D01*
X235942380Y-118542857D01*
X235942380Y-118257142D01*
X235894761Y-118161904D01*
X235847142Y-118114285D01*
X234942380Y-119352380D02*
X234942380Y-119447619D01*
X234990000Y-119542857D01*
X235037619Y-119590476D01*
X235132857Y-119638095D01*
X235323333Y-119685714D01*
X235561428Y-119685714D01*
X235751904Y-119638095D01*
X235847142Y-119590476D01*
X235894761Y-119542857D01*
X235942380Y-119447619D01*
X235942380Y-119352380D01*
X235894761Y-119257142D01*
X235847142Y-119209523D01*
X235751904Y-119161904D01*
X235561428Y-119114285D01*
X235323333Y-119114285D01*
X235132857Y-119161904D01*
X235037619Y-119209523D01*
X234990000Y-119257142D01*
X234942380Y-119352380D01*
%TO.C,U29*%
X214342380Y-117161904D02*
X215151904Y-117161904D01*
X215247142Y-117209523D01*
X215294761Y-117257142D01*
X215342380Y-117352380D01*
X215342380Y-117542857D01*
X215294761Y-117638095D01*
X215247142Y-117685714D01*
X215151904Y-117733333D01*
X214342380Y-117733333D01*
X214437619Y-118161904D02*
X214390000Y-118209523D01*
X214342380Y-118304761D01*
X214342380Y-118542857D01*
X214390000Y-118638095D01*
X214437619Y-118685714D01*
X214532857Y-118733333D01*
X214628095Y-118733333D01*
X214770952Y-118685714D01*
X215342380Y-118114285D01*
X215342380Y-118733333D01*
X215342380Y-119209523D02*
X215342380Y-119400000D01*
X215294761Y-119495238D01*
X215247142Y-119542857D01*
X215104285Y-119638095D01*
X214913809Y-119685714D01*
X214532857Y-119685714D01*
X214437619Y-119638095D01*
X214390000Y-119590476D01*
X214342380Y-119495238D01*
X214342380Y-119304761D01*
X214390000Y-119209523D01*
X214437619Y-119161904D01*
X214532857Y-119114285D01*
X214770952Y-119114285D01*
X214866190Y-119161904D01*
X214913809Y-119209523D01*
X214961428Y-119304761D01*
X214961428Y-119495238D01*
X214913809Y-119590476D01*
X214866190Y-119638095D01*
X214770952Y-119685714D01*
%TO.C,U28*%
X193742380Y-117161904D02*
X194551904Y-117161904D01*
X194647142Y-117209523D01*
X194694761Y-117257142D01*
X194742380Y-117352380D01*
X194742380Y-117542857D01*
X194694761Y-117638095D01*
X194647142Y-117685714D01*
X194551904Y-117733333D01*
X193742380Y-117733333D01*
X193837619Y-118161904D02*
X193790000Y-118209523D01*
X193742380Y-118304761D01*
X193742380Y-118542857D01*
X193790000Y-118638095D01*
X193837619Y-118685714D01*
X193932857Y-118733333D01*
X194028095Y-118733333D01*
X194170952Y-118685714D01*
X194742380Y-118114285D01*
X194742380Y-118733333D01*
X194170952Y-119304761D02*
X194123333Y-119209523D01*
X194075714Y-119161904D01*
X193980476Y-119114285D01*
X193932857Y-119114285D01*
X193837619Y-119161904D01*
X193790000Y-119209523D01*
X193742380Y-119304761D01*
X193742380Y-119495238D01*
X193790000Y-119590476D01*
X193837619Y-119638095D01*
X193932857Y-119685714D01*
X193980476Y-119685714D01*
X194075714Y-119638095D01*
X194123333Y-119590476D01*
X194170952Y-119495238D01*
X194170952Y-119304761D01*
X194218571Y-119209523D01*
X194266190Y-119161904D01*
X194361428Y-119114285D01*
X194551904Y-119114285D01*
X194647142Y-119161904D01*
X194694761Y-119209523D01*
X194742380Y-119304761D01*
X194742380Y-119495238D01*
X194694761Y-119590476D01*
X194647142Y-119638095D01*
X194551904Y-119685714D01*
X194361428Y-119685714D01*
X194266190Y-119638095D01*
X194218571Y-119590476D01*
X194170952Y-119495238D01*
%TO.C,U27*%
X173142380Y-117161904D02*
X173951904Y-117161904D01*
X174047142Y-117209523D01*
X174094761Y-117257142D01*
X174142380Y-117352380D01*
X174142380Y-117542857D01*
X174094761Y-117638095D01*
X174047142Y-117685714D01*
X173951904Y-117733333D01*
X173142380Y-117733333D01*
X173237619Y-118161904D02*
X173190000Y-118209523D01*
X173142380Y-118304761D01*
X173142380Y-118542857D01*
X173190000Y-118638095D01*
X173237619Y-118685714D01*
X173332857Y-118733333D01*
X173428095Y-118733333D01*
X173570952Y-118685714D01*
X174142380Y-118114285D01*
X174142380Y-118733333D01*
X173142380Y-119066666D02*
X173142380Y-119733333D01*
X174142380Y-119304761D01*
%TO.C,U26*%
X152542380Y-117161904D02*
X153351904Y-117161904D01*
X153447142Y-117209523D01*
X153494761Y-117257142D01*
X153542380Y-117352380D01*
X153542380Y-117542857D01*
X153494761Y-117638095D01*
X153447142Y-117685714D01*
X153351904Y-117733333D01*
X152542380Y-117733333D01*
X152637619Y-118161904D02*
X152590000Y-118209523D01*
X152542380Y-118304761D01*
X152542380Y-118542857D01*
X152590000Y-118638095D01*
X152637619Y-118685714D01*
X152732857Y-118733333D01*
X152828095Y-118733333D01*
X152970952Y-118685714D01*
X153542380Y-118114285D01*
X153542380Y-118733333D01*
X152542380Y-119590476D02*
X152542380Y-119400000D01*
X152590000Y-119304761D01*
X152637619Y-119257142D01*
X152780476Y-119161904D01*
X152970952Y-119114285D01*
X153351904Y-119114285D01*
X153447142Y-119161904D01*
X153494761Y-119209523D01*
X153542380Y-119304761D01*
X153542380Y-119495238D01*
X153494761Y-119590476D01*
X153447142Y-119638095D01*
X153351904Y-119685714D01*
X153113809Y-119685714D01*
X153018571Y-119638095D01*
X152970952Y-119590476D01*
X152923333Y-119495238D01*
X152923333Y-119304761D01*
X152970952Y-119209523D01*
X153018571Y-119161904D01*
X153113809Y-119114285D01*
%TO.C,U25*%
X131942380Y-117161904D02*
X132751904Y-117161904D01*
X132847142Y-117209523D01*
X132894761Y-117257142D01*
X132942380Y-117352380D01*
X132942380Y-117542857D01*
X132894761Y-117638095D01*
X132847142Y-117685714D01*
X132751904Y-117733333D01*
X131942380Y-117733333D01*
X132037619Y-118161904D02*
X131990000Y-118209523D01*
X131942380Y-118304761D01*
X131942380Y-118542857D01*
X131990000Y-118638095D01*
X132037619Y-118685714D01*
X132132857Y-118733333D01*
X132228095Y-118733333D01*
X132370952Y-118685714D01*
X132942380Y-118114285D01*
X132942380Y-118733333D01*
X131942380Y-119638095D02*
X131942380Y-119161904D01*
X132418571Y-119114285D01*
X132370952Y-119161904D01*
X132323333Y-119257142D01*
X132323333Y-119495238D01*
X132370952Y-119590476D01*
X132418571Y-119638095D01*
X132513809Y-119685714D01*
X132751904Y-119685714D01*
X132847142Y-119638095D01*
X132894761Y-119590476D01*
X132942380Y-119495238D01*
X132942380Y-119257142D01*
X132894761Y-119161904D01*
X132847142Y-119114285D01*
%TO.C,U24*%
X111342380Y-117161904D02*
X112151904Y-117161904D01*
X112247142Y-117209523D01*
X112294761Y-117257142D01*
X112342380Y-117352380D01*
X112342380Y-117542857D01*
X112294761Y-117638095D01*
X112247142Y-117685714D01*
X112151904Y-117733333D01*
X111342380Y-117733333D01*
X111437619Y-118161904D02*
X111390000Y-118209523D01*
X111342380Y-118304761D01*
X111342380Y-118542857D01*
X111390000Y-118638095D01*
X111437619Y-118685714D01*
X111532857Y-118733333D01*
X111628095Y-118733333D01*
X111770952Y-118685714D01*
X112342380Y-118114285D01*
X112342380Y-118733333D01*
X111675714Y-119590476D02*
X112342380Y-119590476D01*
X111294761Y-119352380D02*
X112009047Y-119114285D01*
X112009047Y-119733333D01*
%TO.C,U23*%
X90742380Y-117161904D02*
X91551904Y-117161904D01*
X91647142Y-117209523D01*
X91694761Y-117257142D01*
X91742380Y-117352380D01*
X91742380Y-117542857D01*
X91694761Y-117638095D01*
X91647142Y-117685714D01*
X91551904Y-117733333D01*
X90742380Y-117733333D01*
X90837619Y-118161904D02*
X90790000Y-118209523D01*
X90742380Y-118304761D01*
X90742380Y-118542857D01*
X90790000Y-118638095D01*
X90837619Y-118685714D01*
X90932857Y-118733333D01*
X91028095Y-118733333D01*
X91170952Y-118685714D01*
X91742380Y-118114285D01*
X91742380Y-118733333D01*
X90742380Y-119066666D02*
X90742380Y-119685714D01*
X91123333Y-119352380D01*
X91123333Y-119495238D01*
X91170952Y-119590476D01*
X91218571Y-119638095D01*
X91313809Y-119685714D01*
X91551904Y-119685714D01*
X91647142Y-119638095D01*
X91694761Y-119590476D01*
X91742380Y-119495238D01*
X91742380Y-119209523D01*
X91694761Y-119114285D01*
X91647142Y-119066666D01*
%TO.C,U22*%
X70142380Y-117161904D02*
X70951904Y-117161904D01*
X71047142Y-117209523D01*
X71094761Y-117257142D01*
X71142380Y-117352380D01*
X71142380Y-117542857D01*
X71094761Y-117638095D01*
X71047142Y-117685714D01*
X70951904Y-117733333D01*
X70142380Y-117733333D01*
X70237619Y-118161904D02*
X70190000Y-118209523D01*
X70142380Y-118304761D01*
X70142380Y-118542857D01*
X70190000Y-118638095D01*
X70237619Y-118685714D01*
X70332857Y-118733333D01*
X70428095Y-118733333D01*
X70570952Y-118685714D01*
X71142380Y-118114285D01*
X71142380Y-118733333D01*
X70237619Y-119114285D02*
X70190000Y-119161904D01*
X70142380Y-119257142D01*
X70142380Y-119495238D01*
X70190000Y-119590476D01*
X70237619Y-119638095D01*
X70332857Y-119685714D01*
X70428095Y-119685714D01*
X70570952Y-119638095D01*
X71142380Y-119066666D01*
X71142380Y-119685714D01*
%TO.C,U21*%
X56752380Y-117161904D02*
X57561904Y-117161904D01*
X57657142Y-117209523D01*
X57704761Y-117257142D01*
X57752380Y-117352380D01*
X57752380Y-117542857D01*
X57704761Y-117638095D01*
X57657142Y-117685714D01*
X57561904Y-117733333D01*
X56752380Y-117733333D01*
X56847619Y-118161904D02*
X56800000Y-118209523D01*
X56752380Y-118304761D01*
X56752380Y-118542857D01*
X56800000Y-118638095D01*
X56847619Y-118685714D01*
X56942857Y-118733333D01*
X57038095Y-118733333D01*
X57180952Y-118685714D01*
X57752380Y-118114285D01*
X57752380Y-118733333D01*
X57752380Y-119685714D02*
X57752380Y-119114285D01*
X57752380Y-119400000D02*
X56752380Y-119400000D01*
X56895238Y-119304761D01*
X56990476Y-119209523D01*
X57038095Y-119114285D01*
%TO.C,RN1*%
X49290476Y-114052380D02*
X49623809Y-113576190D01*
X49861904Y-114052380D02*
X49861904Y-113052380D01*
X49480952Y-113052380D01*
X49385714Y-113100000D01*
X49338095Y-113147619D01*
X49290476Y-113242857D01*
X49290476Y-113385714D01*
X49338095Y-113480952D01*
X49385714Y-113528571D01*
X49480952Y-113576190D01*
X49861904Y-113576190D01*
X48861904Y-114052380D02*
X48861904Y-113052380D01*
X48290476Y-114052380D01*
X48290476Y-113052380D01*
X47290476Y-114052380D02*
X47861904Y-114052380D01*
X47576190Y-114052380D02*
X47576190Y-113052380D01*
X47671428Y-113195238D01*
X47766666Y-113290476D01*
X47861904Y-113338095D01*
%TO.C,R1*%
X48766666Y-115452380D02*
X49100000Y-114976190D01*
X49338095Y-115452380D02*
X49338095Y-114452380D01*
X48957142Y-114452380D01*
X48861904Y-114500000D01*
X48814285Y-114547619D01*
X48766666Y-114642857D01*
X48766666Y-114785714D01*
X48814285Y-114880952D01*
X48861904Y-114928571D01*
X48957142Y-114976190D01*
X49338095Y-114976190D01*
X47814285Y-115452380D02*
X48385714Y-115452380D01*
X48100000Y-115452380D02*
X48100000Y-114452380D01*
X48195238Y-114595238D01*
X48290476Y-114690476D01*
X48385714Y-114738095D01*
%TO.C,C20*%
X440642857Y-122327142D02*
X440690476Y-122374761D01*
X440833333Y-122422380D01*
X440928571Y-122422380D01*
X441071428Y-122374761D01*
X441166666Y-122279523D01*
X441214285Y-122184285D01*
X441261904Y-121993809D01*
X441261904Y-121850952D01*
X441214285Y-121660476D01*
X441166666Y-121565238D01*
X441071428Y-121470000D01*
X440928571Y-121422380D01*
X440833333Y-121422380D01*
X440690476Y-121470000D01*
X440642857Y-121517619D01*
X440261904Y-121517619D02*
X440214285Y-121470000D01*
X440119047Y-121422380D01*
X439880952Y-121422380D01*
X439785714Y-121470000D01*
X439738095Y-121517619D01*
X439690476Y-121612857D01*
X439690476Y-121708095D01*
X439738095Y-121850952D01*
X440309523Y-122422380D01*
X439690476Y-122422380D01*
X439071428Y-121422380D02*
X438976190Y-121422380D01*
X438880952Y-121470000D01*
X438833333Y-121517619D01*
X438785714Y-121612857D01*
X438738095Y-121803333D01*
X438738095Y-122041428D01*
X438785714Y-122231904D01*
X438833333Y-122327142D01*
X438880952Y-122374761D01*
X438976190Y-122422380D01*
X439071428Y-122422380D01*
X439166666Y-122374761D01*
X439214285Y-122327142D01*
X439261904Y-122231904D01*
X439309523Y-122041428D01*
X439309523Y-121803333D01*
X439261904Y-121612857D01*
X439214285Y-121517619D01*
X439166666Y-121470000D01*
X439071428Y-121422380D01*
%TO.C,C19*%
X420042857Y-122327142D02*
X420090476Y-122374761D01*
X420233333Y-122422380D01*
X420328571Y-122422380D01*
X420471428Y-122374761D01*
X420566666Y-122279523D01*
X420614285Y-122184285D01*
X420661904Y-121993809D01*
X420661904Y-121850952D01*
X420614285Y-121660476D01*
X420566666Y-121565238D01*
X420471428Y-121470000D01*
X420328571Y-121422380D01*
X420233333Y-121422380D01*
X420090476Y-121470000D01*
X420042857Y-121517619D01*
X419090476Y-122422380D02*
X419661904Y-122422380D01*
X419376190Y-122422380D02*
X419376190Y-121422380D01*
X419471428Y-121565238D01*
X419566666Y-121660476D01*
X419661904Y-121708095D01*
X418614285Y-122422380D02*
X418423809Y-122422380D01*
X418328571Y-122374761D01*
X418280952Y-122327142D01*
X418185714Y-122184285D01*
X418138095Y-121993809D01*
X418138095Y-121612857D01*
X418185714Y-121517619D01*
X418233333Y-121470000D01*
X418328571Y-121422380D01*
X418519047Y-121422380D01*
X418614285Y-121470000D01*
X418661904Y-121517619D01*
X418709523Y-121612857D01*
X418709523Y-121850952D01*
X418661904Y-121946190D01*
X418614285Y-121993809D01*
X418519047Y-122041428D01*
X418328571Y-122041428D01*
X418233333Y-121993809D01*
X418185714Y-121946190D01*
X418138095Y-121850952D01*
%TO.C,C18*%
X399442857Y-122327142D02*
X399490476Y-122374761D01*
X399633333Y-122422380D01*
X399728571Y-122422380D01*
X399871428Y-122374761D01*
X399966666Y-122279523D01*
X400014285Y-122184285D01*
X400061904Y-121993809D01*
X400061904Y-121850952D01*
X400014285Y-121660476D01*
X399966666Y-121565238D01*
X399871428Y-121470000D01*
X399728571Y-121422380D01*
X399633333Y-121422380D01*
X399490476Y-121470000D01*
X399442857Y-121517619D01*
X398490476Y-122422380D02*
X399061904Y-122422380D01*
X398776190Y-122422380D02*
X398776190Y-121422380D01*
X398871428Y-121565238D01*
X398966666Y-121660476D01*
X399061904Y-121708095D01*
X397919047Y-121850952D02*
X398014285Y-121803333D01*
X398061904Y-121755714D01*
X398109523Y-121660476D01*
X398109523Y-121612857D01*
X398061904Y-121517619D01*
X398014285Y-121470000D01*
X397919047Y-121422380D01*
X397728571Y-121422380D01*
X397633333Y-121470000D01*
X397585714Y-121517619D01*
X397538095Y-121612857D01*
X397538095Y-121660476D01*
X397585714Y-121755714D01*
X397633333Y-121803333D01*
X397728571Y-121850952D01*
X397919047Y-121850952D01*
X398014285Y-121898571D01*
X398061904Y-121946190D01*
X398109523Y-122041428D01*
X398109523Y-122231904D01*
X398061904Y-122327142D01*
X398014285Y-122374761D01*
X397919047Y-122422380D01*
X397728571Y-122422380D01*
X397633333Y-122374761D01*
X397585714Y-122327142D01*
X397538095Y-122231904D01*
X397538095Y-122041428D01*
X397585714Y-121946190D01*
X397633333Y-121898571D01*
X397728571Y-121850952D01*
%TO.C,C17*%
X378842857Y-122327142D02*
X378890476Y-122374761D01*
X379033333Y-122422380D01*
X379128571Y-122422380D01*
X379271428Y-122374761D01*
X379366666Y-122279523D01*
X379414285Y-122184285D01*
X379461904Y-121993809D01*
X379461904Y-121850952D01*
X379414285Y-121660476D01*
X379366666Y-121565238D01*
X379271428Y-121470000D01*
X379128571Y-121422380D01*
X379033333Y-121422380D01*
X378890476Y-121470000D01*
X378842857Y-121517619D01*
X377890476Y-122422380D02*
X378461904Y-122422380D01*
X378176190Y-122422380D02*
X378176190Y-121422380D01*
X378271428Y-121565238D01*
X378366666Y-121660476D01*
X378461904Y-121708095D01*
X377557142Y-121422380D02*
X376890476Y-121422380D01*
X377319047Y-122422380D01*
%TO.C,C16*%
X358242857Y-122327142D02*
X358290476Y-122374761D01*
X358433333Y-122422380D01*
X358528571Y-122422380D01*
X358671428Y-122374761D01*
X358766666Y-122279523D01*
X358814285Y-122184285D01*
X358861904Y-121993809D01*
X358861904Y-121850952D01*
X358814285Y-121660476D01*
X358766666Y-121565238D01*
X358671428Y-121470000D01*
X358528571Y-121422380D01*
X358433333Y-121422380D01*
X358290476Y-121470000D01*
X358242857Y-121517619D01*
X357290476Y-122422380D02*
X357861904Y-122422380D01*
X357576190Y-122422380D02*
X357576190Y-121422380D01*
X357671428Y-121565238D01*
X357766666Y-121660476D01*
X357861904Y-121708095D01*
X356433333Y-121422380D02*
X356623809Y-121422380D01*
X356719047Y-121470000D01*
X356766666Y-121517619D01*
X356861904Y-121660476D01*
X356909523Y-121850952D01*
X356909523Y-122231904D01*
X356861904Y-122327142D01*
X356814285Y-122374761D01*
X356719047Y-122422380D01*
X356528571Y-122422380D01*
X356433333Y-122374761D01*
X356385714Y-122327142D01*
X356338095Y-122231904D01*
X356338095Y-121993809D01*
X356385714Y-121898571D01*
X356433333Y-121850952D01*
X356528571Y-121803333D01*
X356719047Y-121803333D01*
X356814285Y-121850952D01*
X356861904Y-121898571D01*
X356909523Y-121993809D01*
%TO.C,C15*%
X337642857Y-122327142D02*
X337690476Y-122374761D01*
X337833333Y-122422380D01*
X337928571Y-122422380D01*
X338071428Y-122374761D01*
X338166666Y-122279523D01*
X338214285Y-122184285D01*
X338261904Y-121993809D01*
X338261904Y-121850952D01*
X338214285Y-121660476D01*
X338166666Y-121565238D01*
X338071428Y-121470000D01*
X337928571Y-121422380D01*
X337833333Y-121422380D01*
X337690476Y-121470000D01*
X337642857Y-121517619D01*
X336690476Y-122422380D02*
X337261904Y-122422380D01*
X336976190Y-122422380D02*
X336976190Y-121422380D01*
X337071428Y-121565238D01*
X337166666Y-121660476D01*
X337261904Y-121708095D01*
X335785714Y-121422380D02*
X336261904Y-121422380D01*
X336309523Y-121898571D01*
X336261904Y-121850952D01*
X336166666Y-121803333D01*
X335928571Y-121803333D01*
X335833333Y-121850952D01*
X335785714Y-121898571D01*
X335738095Y-121993809D01*
X335738095Y-122231904D01*
X335785714Y-122327142D01*
X335833333Y-122374761D01*
X335928571Y-122422380D01*
X336166666Y-122422380D01*
X336261904Y-122374761D01*
X336309523Y-122327142D01*
%TO.C,C14*%
X317042857Y-122327142D02*
X317090476Y-122374761D01*
X317233333Y-122422380D01*
X317328571Y-122422380D01*
X317471428Y-122374761D01*
X317566666Y-122279523D01*
X317614285Y-122184285D01*
X317661904Y-121993809D01*
X317661904Y-121850952D01*
X317614285Y-121660476D01*
X317566666Y-121565238D01*
X317471428Y-121470000D01*
X317328571Y-121422380D01*
X317233333Y-121422380D01*
X317090476Y-121470000D01*
X317042857Y-121517619D01*
X316090476Y-122422380D02*
X316661904Y-122422380D01*
X316376190Y-122422380D02*
X316376190Y-121422380D01*
X316471428Y-121565238D01*
X316566666Y-121660476D01*
X316661904Y-121708095D01*
X315233333Y-121755714D02*
X315233333Y-122422380D01*
X315471428Y-121374761D02*
X315709523Y-122089047D01*
X315090476Y-122089047D01*
%TO.C,C13*%
X296442857Y-122327142D02*
X296490476Y-122374761D01*
X296633333Y-122422380D01*
X296728571Y-122422380D01*
X296871428Y-122374761D01*
X296966666Y-122279523D01*
X297014285Y-122184285D01*
X297061904Y-121993809D01*
X297061904Y-121850952D01*
X297014285Y-121660476D01*
X296966666Y-121565238D01*
X296871428Y-121470000D01*
X296728571Y-121422380D01*
X296633333Y-121422380D01*
X296490476Y-121470000D01*
X296442857Y-121517619D01*
X295490476Y-122422380D02*
X296061904Y-122422380D01*
X295776190Y-122422380D02*
X295776190Y-121422380D01*
X295871428Y-121565238D01*
X295966666Y-121660476D01*
X296061904Y-121708095D01*
X295157142Y-121422380D02*
X294538095Y-121422380D01*
X294871428Y-121803333D01*
X294728571Y-121803333D01*
X294633333Y-121850952D01*
X294585714Y-121898571D01*
X294538095Y-121993809D01*
X294538095Y-122231904D01*
X294585714Y-122327142D01*
X294633333Y-122374761D01*
X294728571Y-122422380D01*
X295014285Y-122422380D01*
X295109523Y-122374761D01*
X295157142Y-122327142D01*
%TO.C,C12*%
X275842857Y-122327142D02*
X275890476Y-122374761D01*
X276033333Y-122422380D01*
X276128571Y-122422380D01*
X276271428Y-122374761D01*
X276366666Y-122279523D01*
X276414285Y-122184285D01*
X276461904Y-121993809D01*
X276461904Y-121850952D01*
X276414285Y-121660476D01*
X276366666Y-121565238D01*
X276271428Y-121470000D01*
X276128571Y-121422380D01*
X276033333Y-121422380D01*
X275890476Y-121470000D01*
X275842857Y-121517619D01*
X274890476Y-122422380D02*
X275461904Y-122422380D01*
X275176190Y-122422380D02*
X275176190Y-121422380D01*
X275271428Y-121565238D01*
X275366666Y-121660476D01*
X275461904Y-121708095D01*
X274509523Y-121517619D02*
X274461904Y-121470000D01*
X274366666Y-121422380D01*
X274128571Y-121422380D01*
X274033333Y-121470000D01*
X273985714Y-121517619D01*
X273938095Y-121612857D01*
X273938095Y-121708095D01*
X273985714Y-121850952D01*
X274557142Y-122422380D01*
X273938095Y-122422380D01*
%TO.C,C11*%
X255242857Y-122327142D02*
X255290476Y-122374761D01*
X255433333Y-122422380D01*
X255528571Y-122422380D01*
X255671428Y-122374761D01*
X255766666Y-122279523D01*
X255814285Y-122184285D01*
X255861904Y-121993809D01*
X255861904Y-121850952D01*
X255814285Y-121660476D01*
X255766666Y-121565238D01*
X255671428Y-121470000D01*
X255528571Y-121422380D01*
X255433333Y-121422380D01*
X255290476Y-121470000D01*
X255242857Y-121517619D01*
X254290476Y-122422380D02*
X254861904Y-122422380D01*
X254576190Y-122422380D02*
X254576190Y-121422380D01*
X254671428Y-121565238D01*
X254766666Y-121660476D01*
X254861904Y-121708095D01*
X253338095Y-122422380D02*
X253909523Y-122422380D01*
X253623809Y-122422380D02*
X253623809Y-121422380D01*
X253719047Y-121565238D01*
X253814285Y-121660476D01*
X253909523Y-121708095D01*
%TO.C,C10*%
X234642857Y-122327142D02*
X234690476Y-122374761D01*
X234833333Y-122422380D01*
X234928571Y-122422380D01*
X235071428Y-122374761D01*
X235166666Y-122279523D01*
X235214285Y-122184285D01*
X235261904Y-121993809D01*
X235261904Y-121850952D01*
X235214285Y-121660476D01*
X235166666Y-121565238D01*
X235071428Y-121470000D01*
X234928571Y-121422380D01*
X234833333Y-121422380D01*
X234690476Y-121470000D01*
X234642857Y-121517619D01*
X233690476Y-122422380D02*
X234261904Y-122422380D01*
X233976190Y-122422380D02*
X233976190Y-121422380D01*
X234071428Y-121565238D01*
X234166666Y-121660476D01*
X234261904Y-121708095D01*
X233071428Y-121422380D02*
X232976190Y-121422380D01*
X232880952Y-121470000D01*
X232833333Y-121517619D01*
X232785714Y-121612857D01*
X232738095Y-121803333D01*
X232738095Y-122041428D01*
X232785714Y-122231904D01*
X232833333Y-122327142D01*
X232880952Y-122374761D01*
X232976190Y-122422380D01*
X233071428Y-122422380D01*
X233166666Y-122374761D01*
X233214285Y-122327142D01*
X233261904Y-122231904D01*
X233309523Y-122041428D01*
X233309523Y-121803333D01*
X233261904Y-121612857D01*
X233214285Y-121517619D01*
X233166666Y-121470000D01*
X233071428Y-121422380D01*
%TO.C,C9*%
X213566666Y-122327142D02*
X213614285Y-122374761D01*
X213757142Y-122422380D01*
X213852380Y-122422380D01*
X213995238Y-122374761D01*
X214090476Y-122279523D01*
X214138095Y-122184285D01*
X214185714Y-121993809D01*
X214185714Y-121850952D01*
X214138095Y-121660476D01*
X214090476Y-121565238D01*
X213995238Y-121470000D01*
X213852380Y-121422380D01*
X213757142Y-121422380D01*
X213614285Y-121470000D01*
X213566666Y-121517619D01*
X213090476Y-122422380D02*
X212900000Y-122422380D01*
X212804761Y-122374761D01*
X212757142Y-122327142D01*
X212661904Y-122184285D01*
X212614285Y-121993809D01*
X212614285Y-121612857D01*
X212661904Y-121517619D01*
X212709523Y-121470000D01*
X212804761Y-121422380D01*
X212995238Y-121422380D01*
X213090476Y-121470000D01*
X213138095Y-121517619D01*
X213185714Y-121612857D01*
X213185714Y-121850952D01*
X213138095Y-121946190D01*
X213090476Y-121993809D01*
X212995238Y-122041428D01*
X212804761Y-122041428D01*
X212709523Y-121993809D01*
X212661904Y-121946190D01*
X212614285Y-121850952D01*
%TO.C,C8*%
X192966666Y-122327142D02*
X193014285Y-122374761D01*
X193157142Y-122422380D01*
X193252380Y-122422380D01*
X193395238Y-122374761D01*
X193490476Y-122279523D01*
X193538095Y-122184285D01*
X193585714Y-121993809D01*
X193585714Y-121850952D01*
X193538095Y-121660476D01*
X193490476Y-121565238D01*
X193395238Y-121470000D01*
X193252380Y-121422380D01*
X193157142Y-121422380D01*
X193014285Y-121470000D01*
X192966666Y-121517619D01*
X192395238Y-121850952D02*
X192490476Y-121803333D01*
X192538095Y-121755714D01*
X192585714Y-121660476D01*
X192585714Y-121612857D01*
X192538095Y-121517619D01*
X192490476Y-121470000D01*
X192395238Y-121422380D01*
X192204761Y-121422380D01*
X192109523Y-121470000D01*
X192061904Y-121517619D01*
X192014285Y-121612857D01*
X192014285Y-121660476D01*
X192061904Y-121755714D01*
X192109523Y-121803333D01*
X192204761Y-121850952D01*
X192395238Y-121850952D01*
X192490476Y-121898571D01*
X192538095Y-121946190D01*
X192585714Y-122041428D01*
X192585714Y-122231904D01*
X192538095Y-122327142D01*
X192490476Y-122374761D01*
X192395238Y-122422380D01*
X192204761Y-122422380D01*
X192109523Y-122374761D01*
X192061904Y-122327142D01*
X192014285Y-122231904D01*
X192014285Y-122041428D01*
X192061904Y-121946190D01*
X192109523Y-121898571D01*
X192204761Y-121850952D01*
%TO.C,C7*%
X172366666Y-122327142D02*
X172414285Y-122374761D01*
X172557142Y-122422380D01*
X172652380Y-122422380D01*
X172795238Y-122374761D01*
X172890476Y-122279523D01*
X172938095Y-122184285D01*
X172985714Y-121993809D01*
X172985714Y-121850952D01*
X172938095Y-121660476D01*
X172890476Y-121565238D01*
X172795238Y-121470000D01*
X172652380Y-121422380D01*
X172557142Y-121422380D01*
X172414285Y-121470000D01*
X172366666Y-121517619D01*
X172033333Y-121422380D02*
X171366666Y-121422380D01*
X171795238Y-122422380D01*
%TO.C,C6*%
X151766666Y-122327142D02*
X151814285Y-122374761D01*
X151957142Y-122422380D01*
X152052380Y-122422380D01*
X152195238Y-122374761D01*
X152290476Y-122279523D01*
X152338095Y-122184285D01*
X152385714Y-121993809D01*
X152385714Y-121850952D01*
X152338095Y-121660476D01*
X152290476Y-121565238D01*
X152195238Y-121470000D01*
X152052380Y-121422380D01*
X151957142Y-121422380D01*
X151814285Y-121470000D01*
X151766666Y-121517619D01*
X150909523Y-121422380D02*
X151100000Y-121422380D01*
X151195238Y-121470000D01*
X151242857Y-121517619D01*
X151338095Y-121660476D01*
X151385714Y-121850952D01*
X151385714Y-122231904D01*
X151338095Y-122327142D01*
X151290476Y-122374761D01*
X151195238Y-122422380D01*
X151004761Y-122422380D01*
X150909523Y-122374761D01*
X150861904Y-122327142D01*
X150814285Y-122231904D01*
X150814285Y-121993809D01*
X150861904Y-121898571D01*
X150909523Y-121850952D01*
X151004761Y-121803333D01*
X151195238Y-121803333D01*
X151290476Y-121850952D01*
X151338095Y-121898571D01*
X151385714Y-121993809D01*
%TO.C,C5*%
X131166666Y-122327142D02*
X131214285Y-122374761D01*
X131357142Y-122422380D01*
X131452380Y-122422380D01*
X131595238Y-122374761D01*
X131690476Y-122279523D01*
X131738095Y-122184285D01*
X131785714Y-121993809D01*
X131785714Y-121850952D01*
X131738095Y-121660476D01*
X131690476Y-121565238D01*
X131595238Y-121470000D01*
X131452380Y-121422380D01*
X131357142Y-121422380D01*
X131214285Y-121470000D01*
X131166666Y-121517619D01*
X130261904Y-121422380D02*
X130738095Y-121422380D01*
X130785714Y-121898571D01*
X130738095Y-121850952D01*
X130642857Y-121803333D01*
X130404761Y-121803333D01*
X130309523Y-121850952D01*
X130261904Y-121898571D01*
X130214285Y-121993809D01*
X130214285Y-122231904D01*
X130261904Y-122327142D01*
X130309523Y-122374761D01*
X130404761Y-122422380D01*
X130642857Y-122422380D01*
X130738095Y-122374761D01*
X130785714Y-122327142D01*
%TO.C,C4*%
X110566666Y-122327142D02*
X110614285Y-122374761D01*
X110757142Y-122422380D01*
X110852380Y-122422380D01*
X110995238Y-122374761D01*
X111090476Y-122279523D01*
X111138095Y-122184285D01*
X111185714Y-121993809D01*
X111185714Y-121850952D01*
X111138095Y-121660476D01*
X111090476Y-121565238D01*
X110995238Y-121470000D01*
X110852380Y-121422380D01*
X110757142Y-121422380D01*
X110614285Y-121470000D01*
X110566666Y-121517619D01*
X109709523Y-121755714D02*
X109709523Y-122422380D01*
X109947619Y-121374761D02*
X110185714Y-122089047D01*
X109566666Y-122089047D01*
%TO.C,C3*%
X89966666Y-122327142D02*
X90014285Y-122374761D01*
X90157142Y-122422380D01*
X90252380Y-122422380D01*
X90395238Y-122374761D01*
X90490476Y-122279523D01*
X90538095Y-122184285D01*
X90585714Y-121993809D01*
X90585714Y-121850952D01*
X90538095Y-121660476D01*
X90490476Y-121565238D01*
X90395238Y-121470000D01*
X90252380Y-121422380D01*
X90157142Y-121422380D01*
X90014285Y-121470000D01*
X89966666Y-121517619D01*
X89633333Y-121422380D02*
X89014285Y-121422380D01*
X89347619Y-121803333D01*
X89204761Y-121803333D01*
X89109523Y-121850952D01*
X89061904Y-121898571D01*
X89014285Y-121993809D01*
X89014285Y-122231904D01*
X89061904Y-122327142D01*
X89109523Y-122374761D01*
X89204761Y-122422380D01*
X89490476Y-122422380D01*
X89585714Y-122374761D01*
X89633333Y-122327142D01*
%TO.C,C2*%
X69366666Y-122327142D02*
X69414285Y-122374761D01*
X69557142Y-122422380D01*
X69652380Y-122422380D01*
X69795238Y-122374761D01*
X69890476Y-122279523D01*
X69938095Y-122184285D01*
X69985714Y-121993809D01*
X69985714Y-121850952D01*
X69938095Y-121660476D01*
X69890476Y-121565238D01*
X69795238Y-121470000D01*
X69652380Y-121422380D01*
X69557142Y-121422380D01*
X69414285Y-121470000D01*
X69366666Y-121517619D01*
X68985714Y-121517619D02*
X68938095Y-121470000D01*
X68842857Y-121422380D01*
X68604761Y-121422380D01*
X68509523Y-121470000D01*
X68461904Y-121517619D01*
X68414285Y-121612857D01*
X68414285Y-121708095D01*
X68461904Y-121850952D01*
X69033333Y-122422380D01*
X68414285Y-122422380D01*
%TO.C,C1*%
X48766666Y-116757142D02*
X48814285Y-116804761D01*
X48957142Y-116852380D01*
X49052380Y-116852380D01*
X49195238Y-116804761D01*
X49290476Y-116709523D01*
X49338095Y-116614285D01*
X49385714Y-116423809D01*
X49385714Y-116280952D01*
X49338095Y-116090476D01*
X49290476Y-115995238D01*
X49195238Y-115900000D01*
X49052380Y-115852380D01*
X48957142Y-115852380D01*
X48814285Y-115900000D01*
X48766666Y-115947619D01*
X47814285Y-116852380D02*
X48385714Y-116852380D01*
X48100000Y-116852380D02*
X48100000Y-115852380D01*
X48195238Y-115995238D01*
X48290476Y-116090476D01*
X48385714Y-116138095D01*
%TD*%
M02*
