M48
; DRILL file {KiCad 5.99.0+really5.1.10+dfsg1-1} date Mon Jan 10 00:23:25 2022
; FORMAT={-:-/ absolute / metric / decimal}
; #@! TF.CreationDate,2022-01-10T00:23:25+01:00
; #@! TF.GenerationSoftware,Kicad,Pcbnew,5.99.0+really5.1.10+dfsg1-1
FMAT,2
METRIC
T1C0.300
T2C1.000
T3C1.100
T4C2.850
T5C3.200
%
G90
G05
T1
X43.685Y-68.285
X43.7Y-70.19
X43.7Y-93.2
X45.55Y-48.95
X45.6Y-57.2
X45.8Y-54.6
X46.0Y-50.5
X46.326Y-88.026
X46.5Y-67.8
X47.05Y-42.8
X47.174Y-88.874
X47.7Y-45.2
X47.8Y-47.4
X48.25Y-55.25
X48.776Y-48.976
X48.974Y-50.474
X49.7Y-56.85
X49.9Y-49.7
X50.05Y-51.2
X50.5Y-49.0
X50.7Y-104.1
X51.2Y-43.6
X51.3Y-113.25
X51.9Y-100.7
X52.3Y-65.9
X52.35Y-99.05
X52.4Y-41.75
X52.45Y-43.9
X52.55Y-67.8
X52.7Y-100.65
X52.9Y-48.8
X53.0Y-96.7
X53.0Y-111.65
X53.05Y-107.55
X53.2Y-62.5
X53.45Y-67.05
X53.75Y-43.9
X53.8Y-98.2
X53.8Y-60.55
X53.8Y-95.3
X53.9Y-47.1
X54.1Y-43.0
X54.3Y-64.75
X54.35Y-66.45
X54.4Y-69.505
X54.4Y-75.9
X54.45Y-51.2
X54.5Y-57.1
X54.5Y-59.0
X54.5Y-92.2
X54.6Y-98.2
X54.7Y-67.726
X54.7Y-62.45
X55.1Y-63.4
X55.2Y-99.7
X55.3Y-69.5
X55.3Y-55.2
X55.3Y-75.9
X55.4Y-79.7
X55.4Y-91.4
X55.4Y-98.2
X55.6Y-60.35
X55.85Y-105.4
X56.1Y-69.5
X56.2Y-111.5
X56.274Y-79.674
X56.3Y-53.75
X56.3Y-75.885
X56.6Y-95.5
X56.6Y-96.5
X56.75Y-65.45
X56.8Y-63.4
X57.1Y-47.0
X57.2Y-43.0
X57.2Y-67.7
X57.2Y-81.5
X59.0Y-81.6
X59.0Y-98.15
X59.9Y-101.3
X59.9Y-102.6
X59.9Y-103.9
X59.9Y-90.9
X59.905Y-92.105
X59.95Y-79.1
X60.15Y-67.35
X60.2Y-60.25
X60.3Y-64.8
X60.35Y-56.3
X60.35Y-111.45
X61.1Y-70.9
X61.3Y-92.1
X61.3Y-103.9
X61.3Y-105.3
X61.8Y-90.9
X61.8Y-48.8
X61.8Y-102.6
X61.9Y-69.5
X61.9Y-70.7
X62.0Y-42.2
X62.0Y-43.0
X62.0Y-46.1
X62.0Y-47.1
X62.15Y-64.8
X62.2Y-61.5
X62.25Y-79.1
X62.3Y-101.3
X62.4Y-60.35
X62.56Y-72.54
X62.7Y-70.7
X62.7Y-69.5
X62.775Y-100.2
X62.8Y-51.3
X63.0Y-114.9
X63.125Y-73.106
X63.25Y-103.5
X63.65Y-110.15
X63.7Y-107.7
X63.95Y-53.45
X64.0Y-60.45
X64.0Y-71.6
X64.05Y-62.6
X64.1Y-68.8
X64.2Y-73.2
X64.2Y-109.0
X64.3Y-70.1
X64.7Y-93.6
X64.7Y-110.2
X64.8Y-50.8
X64.884Y-51.784
X65.1Y-92.0
X65.9Y-62.732
X65.9Y-66.0
X65.9Y-67.6
X66.0Y-43.0
X66.0Y-60.3
X66.016Y-52.916
X66.05Y-55.5
X66.05Y-103.4
X66.055Y-110.245
X66.075Y-108.975
X66.095Y-107.705
X66.1Y-105.8
X66.2Y-47.0
X66.3Y-49.7
X66.7Y-67.6
X67.6Y-65.7
X67.6Y-97.0
X69.3Y-96.4
X69.4Y-49.9
X69.4Y-52.4
X69.4Y-68.1
X69.5Y-100.2
X69.7Y-63.0
X69.7Y-64.7
X69.7Y-83.9
X69.7Y-91.75
X69.8Y-56.0
X69.8Y-101.9
X70.1Y-95.3
X70.2Y-65.6
X70.3Y-99.2
X70.4Y-110.5
X70.45Y-68.5
X70.6Y-96.4
X70.75Y-87.3
X70.8Y-82.0
X71.0Y-106.7
X71.4Y-59.6
X71.5Y-79.2
X72.05Y-49.0
X72.6Y-96.6
X72.65Y-94.2
X72.9Y-46.6
X73.0Y-51.9
X73.0Y-89.1
X73.1Y-99.2
X73.15Y-107.0
X73.55Y-48.8
X73.95Y-40.7
X74.2Y-47.5
X74.9Y-43.65
X75.8Y-47.5
X75.8Y-48.8
X76.25Y-45.85
X76.6Y-104.4
X76.6Y-106.4
X77.05Y-94.25
X77.15Y-109.0
X77.3Y-86.8
X77.45Y-101.65
X77.65Y-113.55
X78.3Y-60.7
X78.5Y-50.1
X78.6Y-92.55
X78.65Y-96.75
X79.35Y-63.833
X79.45Y-103.35
X79.6Y-73.55
X79.6Y-75.51
X80.0Y-68.5
X80.7Y-99.4
X80.85Y-66.85
X81.1Y-78.5
X81.3Y-59.4
X81.35Y-69.25
X81.7Y-56.1
X81.7Y-82.05
X82.1Y-106.95
X82.6Y-71.55
X82.6Y-76.01
X83.35Y-97.6
X83.4Y-104.69
X83.4Y-106.5
X85.05Y-106.9
X86.05Y-64.45
X86.15Y-101.45
X86.25Y-67.4
X86.3Y-61.9
X86.35Y-71.0
X86.5Y-97.95
X86.55Y-90.5
X87.15Y-63.0
X87.15Y-68.5
X87.7Y-98.25
X87.8Y-71.55
X89.0Y-71.55
X89.0Y-98.25
X89.0Y-101.05
X90.4Y-71.55
X91.6Y-98.25
X91.6Y-101.05
X92.0Y-71.55
X92.19Y-68.5
X92.6Y-98.25
X92.6Y-101.05
X93.0Y-74.0
X93.2Y-96.15
X93.5Y-69.4
X94.25Y-67.45
X94.5Y-49.95
X94.5Y-74.0
X94.77Y-102.7
X95.1Y-110.1
X95.3Y-78.9
X95.85Y-113.4
X97.45Y-115.15
X97.9Y-64.3
X97.9Y-112.0
X98.1Y-48.95
X98.6Y-88.45
X98.9Y-111.0
X99.3Y-85.35
X99.81Y-102.7
X99.9Y-112.1
X100.2Y-54.8
X100.3Y-84.4
X100.5Y-109.4
X100.55Y-69.7
X100.8Y-111.0
X100.85Y-66.2
X100.95Y-82.2
X100.95Y-87.15
X101.376Y-85.124
X101.65Y-53.15
X101.75Y-96.55
X101.9Y-86.3
X101.9Y-110.35
X102.0Y-107.65
X102.2Y-66.3
X102.224Y-68.024
X102.224Y-84.276
X102.9Y-107.9
X102.9Y-109.1
X103.25Y-43.9
X103.4Y-69.5
X103.55Y-46.05
X103.6Y-85.0
X103.8Y-105.3
X103.85Y-48.8
X104.0Y-40.75
X104.15Y-100.3
X104.15Y-107.45
X104.15Y-109.7
X104.2Y-112.05
X104.3Y-115.1
X217.5Y-55.3
X224.4Y-62.5
T2
X45.3Y-58.95
X45.3Y-61.49
X45.3Y-64.03
X45.3Y-66.57
X45.3Y-69.11
X45.3Y-71.65
X45.3Y-74.19
X45.3Y-76.73
X45.3Y-79.27
X45.3Y-81.81
X45.3Y-84.35
X45.3Y-86.89
X45.3Y-89.43
X45.3Y-91.97
X45.3Y-94.51
X45.3Y-97.05
X50.38Y-58.95
X50.38Y-61.49
X50.38Y-64.03
X50.38Y-66.57
X50.38Y-69.11
X50.38Y-71.65
X50.38Y-74.19
X50.38Y-76.73
X50.38Y-79.27
X50.38Y-81.81
X50.38Y-84.35
X50.38Y-86.89
X50.38Y-89.43
X50.38Y-91.97
X50.38Y-94.51
X50.38Y-97.05
X75.0Y-52.0
X75.0Y-54.54
X75.0Y-57.08
X75.0Y-59.62
X75.0Y-62.16
X75.0Y-64.7
X75.0Y-67.24
X75.0Y-69.78
X75.0Y-72.32
X75.0Y-74.86
X75.0Y-77.4
X75.0Y-79.94
X75.0Y-85.02
X75.0Y-87.56
X75.0Y-90.1
X75.0Y-92.64
X75.0Y-95.18
X75.0Y-97.72
X75.0Y-100.26
X75.0Y-102.8
X75.0Y-105.34
X75.0Y-107.88
X75.0Y-110.42
X75.0Y-112.96
X89.0Y-60.46
X89.0Y-63.0
X89.0Y-75.46
X89.0Y-78.0
X89.0Y-90.46
X89.0Y-93.0
X89.0Y-105.46
X89.0Y-108.0
X91.54Y-60.46
X91.54Y-63.0
X91.54Y-75.46
X91.54Y-78.0
X91.54Y-90.46
X91.54Y-93.0
X91.54Y-105.46
X91.54Y-108.0
X94.08Y-60.46
X94.08Y-63.0
X94.08Y-75.46
X94.08Y-78.0
X94.08Y-90.46
X94.08Y-93.0
X94.08Y-105.46
X94.08Y-108.0
X96.62Y-60.46
X96.62Y-63.0
X96.62Y-75.46
X96.62Y-78.0
X96.62Y-90.46
X96.62Y-93.0
X96.62Y-105.46
X96.62Y-108.0
X99.16Y-60.46
X99.16Y-63.0
X99.16Y-75.46
X99.16Y-78.0
X99.16Y-90.46
X99.16Y-93.0
X99.16Y-105.46
X99.16Y-108.0
X106.99Y-41.17
X106.99Y-43.71
X106.99Y-46.25
X106.99Y-48.79
X106.99Y-51.33
X106.99Y-53.87
X106.99Y-56.41
X106.99Y-58.95
X106.99Y-61.49
X106.99Y-64.03
X106.99Y-66.57
X106.99Y-69.11
X106.99Y-71.65
X106.99Y-74.19
X106.99Y-76.73
X106.99Y-79.27
X106.99Y-81.81
X106.99Y-84.35
X106.99Y-86.89
X106.99Y-89.43
X106.99Y-91.97
X106.99Y-94.51
X106.99Y-97.05
X106.99Y-99.59
X106.99Y-102.13
X106.99Y-104.67
X106.99Y-107.21
X106.99Y-109.75
X106.99Y-112.29
X106.99Y-114.83
X109.53Y-41.17
X109.53Y-43.71
X109.53Y-46.25
X109.53Y-48.79
X109.53Y-51.33
X109.53Y-53.87
X109.53Y-56.41
X109.53Y-58.95
X109.53Y-61.49
X109.53Y-64.03
X109.53Y-66.57
X109.53Y-69.11
X109.53Y-71.65
X109.53Y-74.19
X109.53Y-76.73
X109.53Y-79.27
X109.53Y-81.81
X109.53Y-84.35
X109.53Y-86.89
X109.53Y-89.43
X109.53Y-91.97
X109.53Y-94.51
X109.53Y-97.05
X109.53Y-99.59
X109.53Y-102.13
X109.53Y-104.67
X109.53Y-107.21
X109.53Y-109.75
X109.53Y-112.29
X109.53Y-114.83
X112.07Y-41.17
X112.07Y-43.71
X112.07Y-46.25
X112.07Y-48.79
X112.07Y-51.33
X112.07Y-53.87
X112.07Y-56.41
X112.07Y-58.95
X112.07Y-61.49
X112.07Y-64.03
X112.07Y-66.57
X112.07Y-69.11
X112.07Y-71.65
X112.07Y-74.19
X112.07Y-76.73
X112.07Y-79.27
X112.07Y-81.81
X112.07Y-84.35
X112.07Y-86.89
X112.07Y-89.43
X112.07Y-91.97
X112.07Y-94.51
X112.07Y-97.05
X112.07Y-99.59
X112.07Y-102.13
X112.07Y-104.67
X112.07Y-107.21
X112.07Y-109.75
X112.07Y-112.29
X112.07Y-114.83
X114.61Y-41.17
X114.61Y-43.71
X114.61Y-46.25
X114.61Y-48.79
X114.61Y-51.33
X114.61Y-53.87
X114.61Y-56.41
X114.61Y-58.95
X114.61Y-61.49
X114.61Y-64.03
X114.61Y-66.57
X114.61Y-69.11
X114.61Y-71.65
X114.61Y-74.19
X114.61Y-76.73
X114.61Y-79.27
X114.61Y-81.81
X114.61Y-84.35
X114.61Y-86.89
X114.61Y-89.43
X114.61Y-91.97
X114.61Y-94.51
X114.61Y-97.05
X114.61Y-99.59
X114.61Y-102.13
X114.61Y-104.67
X114.61Y-107.21
X114.61Y-109.75
X114.61Y-112.29
X114.61Y-114.83
X117.15Y-41.17
X117.15Y-43.71
X117.15Y-46.25
X117.15Y-48.79
X117.15Y-51.33
X117.15Y-53.87
X117.15Y-56.41
X117.15Y-58.95
X117.15Y-61.49
X117.15Y-64.03
X117.15Y-66.57
X117.15Y-69.11
X117.15Y-71.65
X117.15Y-74.19
X117.15Y-76.73
X117.15Y-79.27
X117.15Y-81.81
X117.15Y-84.35
X117.15Y-86.89
X117.15Y-89.43
X117.15Y-91.97
X117.15Y-94.51
X117.15Y-97.05
X117.15Y-99.59
X117.15Y-102.13
X117.15Y-104.67
X117.15Y-107.21
X117.15Y-109.75
X117.15Y-112.29
X117.15Y-114.83
X119.69Y-41.17
X119.69Y-43.71
X119.69Y-46.25
X119.69Y-48.79
X119.69Y-51.33
X119.69Y-53.87
X119.69Y-56.41
X119.69Y-58.95
X119.69Y-61.49
X119.69Y-64.03
X119.69Y-66.57
X119.69Y-69.11
X119.69Y-71.65
X119.69Y-74.19
X119.69Y-76.73
X119.69Y-79.27
X119.69Y-81.81
X119.69Y-84.35
X119.69Y-86.89
X119.69Y-89.43
X119.69Y-91.97
X119.69Y-94.51
X119.69Y-97.05
X119.69Y-99.59
X119.69Y-102.13
X119.69Y-104.67
X119.69Y-107.21
X119.69Y-109.75
X119.69Y-112.29
X119.69Y-114.83
X122.23Y-41.17
X122.23Y-43.71
X122.23Y-46.25
X122.23Y-48.79
X122.23Y-51.33
X122.23Y-53.87
X122.23Y-56.41
X122.23Y-58.95
X122.23Y-61.49
X122.23Y-64.03
X122.23Y-66.57
X122.23Y-69.11
X122.23Y-71.65
X122.23Y-74.19
X122.23Y-76.73
X122.23Y-79.27
X122.23Y-81.81
X122.23Y-84.35
X122.23Y-86.89
X122.23Y-89.43
X122.23Y-91.97
X122.23Y-94.51
X122.23Y-97.05
X122.23Y-99.59
X122.23Y-102.13
X122.23Y-104.67
X122.23Y-107.21
X122.23Y-109.75
X122.23Y-112.29
X122.23Y-114.83
X124.77Y-41.17
X124.77Y-43.71
X124.77Y-46.25
X124.77Y-48.79
X124.77Y-51.33
X124.77Y-53.87
X124.77Y-56.41
X124.77Y-58.95
X124.77Y-61.49
X124.77Y-64.03
X124.77Y-66.57
X124.77Y-69.11
X124.77Y-71.65
X124.77Y-74.19
X124.77Y-76.73
X124.77Y-79.27
X124.77Y-81.81
X124.77Y-84.35
X124.77Y-86.89
X124.77Y-89.43
X124.77Y-91.97
X124.77Y-94.51
X124.77Y-97.05
X124.77Y-99.59
X124.77Y-102.13
X124.77Y-104.67
X124.77Y-107.21
X124.77Y-109.75
X124.77Y-112.29
X124.77Y-114.83
X127.31Y-41.17
X127.31Y-43.71
X127.31Y-46.25
X127.31Y-48.79
X127.31Y-51.33
X127.31Y-53.87
X127.31Y-56.41
X127.31Y-58.95
X127.31Y-61.49
X127.31Y-64.03
X127.31Y-66.57
X127.31Y-69.11
X127.31Y-71.65
X127.31Y-74.19
X127.31Y-76.73
X127.31Y-79.27
X127.31Y-81.81
X127.31Y-84.35
X127.31Y-86.89
X127.31Y-89.43
X127.31Y-91.97
X127.31Y-94.51
X127.31Y-97.05
X127.31Y-99.59
X127.31Y-102.13
X127.31Y-104.67
X127.31Y-107.21
X127.31Y-109.75
X127.31Y-112.29
X127.31Y-114.83
X129.85Y-41.17
X129.85Y-43.71
X129.85Y-46.25
X129.85Y-48.79
X129.85Y-51.33
X129.85Y-53.87
X129.85Y-56.41
X129.85Y-58.95
X129.85Y-61.49
X129.85Y-64.03
X129.85Y-66.57
X129.85Y-69.11
X129.85Y-71.65
X129.85Y-74.19
X129.85Y-76.73
X129.85Y-79.27
X129.85Y-81.81
X129.85Y-84.35
X129.85Y-86.89
X129.85Y-89.43
X129.85Y-91.97
X129.85Y-94.51
X129.85Y-97.05
X129.85Y-99.59
X129.85Y-102.13
X129.85Y-104.67
X129.85Y-107.21
X129.85Y-109.75
X129.85Y-112.29
X129.85Y-114.83
X132.39Y-41.17
X132.39Y-43.71
X132.39Y-46.25
X132.39Y-48.79
X132.39Y-51.33
X132.39Y-53.87
X132.39Y-56.41
X132.39Y-58.95
X132.39Y-61.49
X132.39Y-64.03
X132.39Y-66.57
X132.39Y-69.11
X132.39Y-71.65
X132.39Y-74.19
X132.39Y-76.73
X132.39Y-79.27
X132.39Y-81.81
X132.39Y-84.35
X132.39Y-86.89
X132.39Y-89.43
X132.39Y-91.97
X132.39Y-94.51
X132.39Y-97.05
X132.39Y-99.59
X132.39Y-102.13
X132.39Y-104.67
X132.39Y-107.21
X132.39Y-109.75
X132.39Y-112.29
X132.39Y-114.83
X134.93Y-41.17
X134.93Y-43.71
X134.93Y-46.25
X134.93Y-48.79
X134.93Y-51.33
X134.93Y-53.87
X134.93Y-56.41
X134.93Y-58.95
X134.93Y-61.49
X134.93Y-64.03
X134.93Y-66.57
X134.93Y-69.11
X134.93Y-71.65
X134.93Y-74.19
X134.93Y-76.73
X134.93Y-79.27
X134.93Y-81.81
X134.93Y-84.35
X134.93Y-86.89
X134.93Y-89.43
X134.93Y-91.97
X134.93Y-94.51
X134.93Y-97.05
X134.93Y-99.59
X134.93Y-102.13
X134.93Y-104.67
X134.93Y-107.21
X134.93Y-109.75
X134.93Y-112.29
X134.93Y-114.83
X137.47Y-41.17
X137.47Y-43.71
X137.47Y-46.25
X137.47Y-48.79
X137.47Y-51.33
X137.47Y-53.87
X137.47Y-56.41
X137.47Y-58.95
X137.47Y-61.49
X137.47Y-64.03
X137.47Y-66.57
X137.47Y-69.11
X137.47Y-71.65
X137.47Y-74.19
X137.47Y-76.73
X137.47Y-79.27
X137.47Y-81.81
X137.47Y-84.35
X137.47Y-86.89
X137.47Y-89.43
X137.47Y-91.97
X137.47Y-94.51
X137.47Y-97.05
X137.47Y-99.59
X137.47Y-102.13
X137.47Y-104.67
X137.47Y-107.21
X137.47Y-109.75
X137.47Y-112.29
X137.47Y-114.83
X140.01Y-41.17
X140.01Y-43.71
X140.01Y-46.25
X140.01Y-48.79
X140.01Y-51.33
X140.01Y-53.87
X140.01Y-56.41
X140.01Y-58.95
X140.01Y-61.49
X140.01Y-64.03
X140.01Y-66.57
X140.01Y-69.11
X140.01Y-71.65
X140.01Y-74.19
X140.01Y-76.73
X140.01Y-79.27
X140.01Y-81.81
X140.01Y-84.35
X140.01Y-86.89
X140.01Y-89.43
X140.01Y-91.97
X140.01Y-94.51
X140.01Y-97.05
X140.01Y-99.59
X140.01Y-102.13
X140.01Y-104.67
X140.01Y-107.21
X140.01Y-109.75
X140.01Y-112.29
X140.01Y-114.83
X142.55Y-41.17
X142.55Y-43.71
X142.55Y-46.25
X142.55Y-48.79
X142.55Y-51.33
X142.55Y-53.87
X142.55Y-56.41
X142.55Y-58.95
X142.55Y-61.49
X142.55Y-64.03
X142.55Y-66.57
X142.55Y-69.11
X142.55Y-71.65
X142.55Y-74.19
X142.55Y-76.73
X142.55Y-79.27
X142.55Y-81.81
X142.55Y-84.35
X142.55Y-86.89
X142.55Y-89.43
X142.55Y-91.97
X142.55Y-94.51
X142.55Y-97.05
X142.55Y-99.59
X142.55Y-102.13
X142.55Y-104.67
X142.55Y-107.21
X142.55Y-109.75
X142.55Y-112.29
X142.55Y-114.83
X145.09Y-41.17
X145.09Y-43.71
X145.09Y-46.25
X145.09Y-48.79
X145.09Y-51.33
X145.09Y-53.87
X145.09Y-56.41
X145.09Y-58.95
X145.09Y-61.49
X145.09Y-64.03
X145.09Y-66.57
X145.09Y-69.11
X145.09Y-71.65
X145.09Y-74.19
X145.09Y-76.73
X145.09Y-79.27
X145.09Y-81.81
X145.09Y-84.35
X145.09Y-86.89
X145.09Y-89.43
X145.09Y-91.97
X145.09Y-94.51
X145.09Y-97.05
X145.09Y-99.59
X145.09Y-102.13
X145.09Y-104.67
X145.09Y-107.21
X145.09Y-109.75
X145.09Y-112.29
X145.09Y-114.83
X147.63Y-41.17
X147.63Y-43.71
X147.63Y-46.25
X147.63Y-48.79
X147.63Y-51.33
X147.63Y-53.87
X147.63Y-56.41
X147.63Y-58.95
X147.63Y-61.49
X147.63Y-64.03
X147.63Y-66.57
X147.63Y-69.11
X147.63Y-71.65
X147.63Y-74.19
X147.63Y-76.73
X147.63Y-79.27
X147.63Y-81.81
X147.63Y-84.35
X147.63Y-86.89
X147.63Y-89.43
X147.63Y-91.97
X147.63Y-94.51
X147.63Y-97.05
X147.63Y-99.59
X147.63Y-102.13
X147.63Y-104.67
X147.63Y-107.21
X147.63Y-109.75
X147.63Y-112.29
X147.63Y-114.83
X150.17Y-41.17
X150.17Y-43.71
X150.17Y-46.25
X150.17Y-48.79
X150.17Y-51.33
X150.17Y-53.87
X150.17Y-56.41
X150.17Y-58.95
X150.17Y-61.49
X150.17Y-64.03
X150.17Y-66.57
X150.17Y-69.11
X150.17Y-71.65
X150.17Y-74.19
X150.17Y-76.73
X150.17Y-79.27
X150.17Y-81.81
X150.17Y-84.35
X150.17Y-86.89
X150.17Y-89.43
X150.17Y-91.97
X150.17Y-94.51
X150.17Y-97.05
X150.17Y-99.59
X150.17Y-102.13
X150.17Y-104.67
X150.17Y-107.21
X150.17Y-109.75
X150.17Y-112.29
X150.17Y-114.83
X152.71Y-41.17
X152.71Y-43.71
X152.71Y-46.25
X152.71Y-48.79
X152.71Y-51.33
X152.71Y-53.87
X152.71Y-56.41
X152.71Y-58.95
X152.71Y-61.49
X152.71Y-64.03
X152.71Y-66.57
X152.71Y-69.11
X152.71Y-71.65
X152.71Y-74.19
X152.71Y-76.73
X152.71Y-79.27
X152.71Y-81.81
X152.71Y-84.35
X152.71Y-86.89
X152.71Y-89.43
X152.71Y-91.97
X152.71Y-94.51
X152.71Y-97.05
X152.71Y-99.59
X152.71Y-102.13
X152.71Y-104.67
X152.71Y-107.21
X152.71Y-109.75
X152.71Y-112.29
X152.71Y-114.83
X155.25Y-41.17
X155.25Y-43.71
X155.25Y-46.25
X155.25Y-48.79
X155.25Y-51.33
X155.25Y-53.87
X155.25Y-56.41
X155.25Y-58.95
X155.25Y-61.49
X155.25Y-64.03
X155.25Y-66.57
X155.25Y-69.11
X155.25Y-71.65
X155.25Y-74.19
X155.25Y-76.73
X155.25Y-79.27
X155.25Y-81.81
X155.25Y-84.35
X155.25Y-86.89
X155.25Y-89.43
X155.25Y-91.97
X155.25Y-94.51
X155.25Y-97.05
X155.25Y-99.59
X155.25Y-102.13
X155.25Y-104.67
X155.25Y-107.21
X155.25Y-109.75
X155.25Y-112.29
X155.25Y-114.83
X157.79Y-41.17
X157.79Y-43.71
X157.79Y-46.25
X157.79Y-48.79
X157.79Y-51.33
X157.79Y-53.87
X157.79Y-56.41
X157.79Y-58.95
X157.79Y-61.49
X157.79Y-64.03
X157.79Y-66.57
X157.79Y-69.11
X157.79Y-71.65
X157.79Y-74.19
X157.79Y-76.73
X157.79Y-79.27
X157.79Y-81.81
X157.79Y-84.35
X157.79Y-86.89
X157.79Y-89.43
X157.79Y-91.97
X157.79Y-94.51
X157.79Y-97.05
X157.79Y-99.59
X157.79Y-102.13
X157.79Y-104.67
X157.79Y-107.21
X157.79Y-109.75
X157.79Y-112.29
X157.79Y-114.83
X160.33Y-41.17
X160.33Y-43.71
X160.33Y-46.25
X160.33Y-48.79
X160.33Y-51.33
X160.33Y-53.87
X160.33Y-56.41
X160.33Y-58.95
X160.33Y-61.49
X160.33Y-64.03
X160.33Y-66.57
X160.33Y-69.11
X160.33Y-71.65
X160.33Y-74.19
X160.33Y-76.73
X160.33Y-79.27
X160.33Y-81.81
X160.33Y-84.35
X160.33Y-86.89
X160.33Y-89.43
X160.33Y-91.97
X160.33Y-94.51
X160.33Y-97.05
X160.33Y-99.59
X160.33Y-102.13
X160.33Y-104.67
X160.33Y-107.21
X160.33Y-109.75
X160.33Y-112.29
X160.33Y-114.83
X162.87Y-41.17
X162.87Y-43.71
X162.87Y-46.25
X162.87Y-48.79
X162.87Y-51.33
X162.87Y-53.87
X162.87Y-56.41
X162.87Y-58.95
X162.87Y-61.49
X162.87Y-64.03
X162.87Y-66.57
X162.87Y-69.11
X162.87Y-71.65
X162.87Y-74.19
X162.87Y-76.73
X162.87Y-79.27
X162.87Y-81.81
X162.87Y-84.35
X162.87Y-86.89
X162.87Y-89.43
X162.87Y-91.97
X162.87Y-94.51
X162.87Y-97.05
X162.87Y-99.59
X162.87Y-102.13
X162.87Y-104.67
X162.87Y-107.21
X162.87Y-109.75
X162.87Y-112.29
X162.87Y-114.83
X165.41Y-41.17
X165.41Y-43.71
X165.41Y-46.25
X165.41Y-48.79
X165.41Y-51.33
X165.41Y-53.87
X165.41Y-56.41
X165.41Y-58.95
X165.41Y-61.49
X165.41Y-64.03
X165.41Y-66.57
X165.41Y-69.11
X165.41Y-71.65
X165.41Y-74.19
X165.41Y-76.73
X165.41Y-79.27
X165.41Y-81.81
X165.41Y-84.35
X165.41Y-86.89
X165.41Y-89.43
X165.41Y-91.97
X165.41Y-94.51
X165.41Y-97.05
X165.41Y-99.59
X165.41Y-102.13
X165.41Y-104.67
X165.41Y-107.21
X165.41Y-109.75
X165.41Y-112.29
X165.41Y-114.83
X167.95Y-41.17
X167.95Y-43.71
X167.95Y-46.25
X167.95Y-48.79
X167.95Y-51.33
X167.95Y-53.87
X167.95Y-56.41
X167.95Y-58.95
X167.95Y-61.49
X167.95Y-64.03
X167.95Y-66.57
X167.95Y-69.11
X167.95Y-71.65
X167.95Y-74.19
X167.95Y-76.73
X167.95Y-79.27
X167.95Y-81.81
X167.95Y-84.35
X167.95Y-86.89
X167.95Y-89.43
X167.95Y-91.97
X167.95Y-94.51
X167.95Y-97.05
X167.95Y-99.59
X167.95Y-102.13
X167.95Y-104.67
X167.95Y-107.21
X167.95Y-109.75
X167.95Y-112.29
X167.95Y-114.83
X170.49Y-41.17
X170.49Y-43.71
X170.49Y-46.25
X170.49Y-48.79
X170.49Y-51.33
X170.49Y-53.87
X170.49Y-56.41
X170.49Y-58.95
X170.49Y-61.49
X170.49Y-64.03
X170.49Y-66.57
X170.49Y-69.11
X170.49Y-71.65
X170.49Y-74.19
X170.49Y-76.73
X170.49Y-79.27
X170.49Y-81.81
X170.49Y-84.35
X170.49Y-86.89
X170.49Y-89.43
X170.49Y-91.97
X170.49Y-94.51
X170.49Y-97.05
X170.49Y-99.59
X170.49Y-102.13
X170.49Y-104.67
X170.49Y-107.21
X170.49Y-109.75
X170.49Y-112.29
X170.49Y-114.83
X173.03Y-41.17
X173.03Y-43.71
X173.03Y-46.25
X173.03Y-48.79
X173.03Y-51.33
X173.03Y-53.87
X173.03Y-56.41
X173.03Y-58.95
X173.03Y-61.49
X173.03Y-64.03
X173.03Y-66.57
X173.03Y-69.11
X173.03Y-71.65
X173.03Y-74.19
X173.03Y-76.73
X173.03Y-79.27
X173.03Y-81.81
X173.03Y-84.35
X173.03Y-86.89
X173.03Y-89.43
X173.03Y-91.97
X173.03Y-94.51
X173.03Y-97.05
X173.03Y-99.59
X173.03Y-102.13
X173.03Y-104.67
X173.03Y-107.21
X173.03Y-109.75
X173.03Y-112.29
X173.03Y-114.83
X175.57Y-41.17
X175.57Y-43.71
X175.57Y-46.25
X175.57Y-48.79
X175.57Y-51.33
X175.57Y-53.87
X175.57Y-56.41
X175.57Y-58.95
X175.57Y-61.49
X175.57Y-64.03
X175.57Y-66.57
X175.57Y-69.11
X175.57Y-71.65
X175.57Y-74.19
X175.57Y-76.73
X175.57Y-79.27
X175.57Y-81.81
X175.57Y-84.35
X175.57Y-86.89
X175.57Y-89.43
X175.57Y-91.97
X175.57Y-94.51
X175.57Y-97.05
X175.57Y-99.59
X175.57Y-102.13
X175.57Y-104.67
X175.57Y-107.21
X175.57Y-109.75
X175.57Y-112.29
X175.57Y-114.83
X178.11Y-41.17
X178.11Y-43.71
X178.11Y-46.25
X178.11Y-48.79
X178.11Y-51.33
X178.11Y-53.87
X178.11Y-56.41
X178.11Y-58.95
X178.11Y-61.49
X178.11Y-64.03
X178.11Y-66.57
X178.11Y-69.11
X178.11Y-71.65
X178.11Y-74.19
X178.11Y-76.73
X178.11Y-79.27
X178.11Y-81.81
X178.11Y-84.35
X178.11Y-86.89
X178.11Y-89.43
X178.11Y-91.97
X178.11Y-94.51
X178.11Y-97.05
X178.11Y-99.59
X178.11Y-102.13
X178.11Y-104.67
X178.11Y-107.21
X178.11Y-109.75
X178.11Y-112.29
X178.11Y-114.83
X180.65Y-41.17
X180.65Y-43.71
X180.65Y-46.25
X180.65Y-48.79
X180.65Y-51.33
X180.65Y-53.87
X180.65Y-56.41
X180.65Y-58.95
X180.65Y-61.49
X180.65Y-64.03
X180.65Y-66.57
X180.65Y-69.11
X180.65Y-71.65
X180.65Y-74.19
X180.65Y-76.73
X180.65Y-79.27
X180.65Y-81.81
X180.65Y-84.35
X180.65Y-86.89
X180.65Y-89.43
X180.65Y-91.97
X180.65Y-94.51
X180.65Y-97.05
X180.65Y-99.59
X180.65Y-102.13
X180.65Y-104.67
X180.65Y-107.21
X180.65Y-109.75
X180.65Y-112.29
X180.65Y-114.83
X183.19Y-41.17
X183.19Y-43.71
X183.19Y-46.25
X183.19Y-48.79
X183.19Y-51.33
X183.19Y-53.87
X183.19Y-56.41
X183.19Y-58.95
X183.19Y-61.49
X183.19Y-64.03
X183.19Y-66.57
X183.19Y-69.11
X183.19Y-71.65
X183.19Y-74.19
X183.19Y-76.73
X183.19Y-79.27
X183.19Y-81.81
X183.19Y-84.35
X183.19Y-86.89
X183.19Y-89.43
X183.19Y-91.97
X183.19Y-94.51
X183.19Y-97.05
X183.19Y-99.59
X183.19Y-102.13
X183.19Y-104.67
X183.19Y-107.21
X183.19Y-109.75
X183.19Y-112.29
X183.19Y-114.83
X185.73Y-41.17
X185.73Y-43.71
X185.73Y-46.25
X185.73Y-48.79
X185.73Y-51.33
X185.73Y-53.87
X185.73Y-56.41
X185.73Y-58.95
X185.73Y-61.49
X185.73Y-64.03
X185.73Y-66.57
X185.73Y-69.11
X185.73Y-71.65
X185.73Y-74.19
X185.73Y-76.73
X185.73Y-79.27
X185.73Y-81.81
X185.73Y-84.35
X185.73Y-86.89
X185.73Y-89.43
X185.73Y-91.97
X185.73Y-94.51
X185.73Y-97.05
X185.73Y-99.59
X185.73Y-102.13
X185.73Y-104.67
X185.73Y-107.21
X185.73Y-109.75
X185.73Y-112.29
X185.73Y-114.83
X188.27Y-41.17
X188.27Y-43.71
X188.27Y-46.25
X188.27Y-48.79
X188.27Y-51.33
X188.27Y-53.87
X188.27Y-56.41
X188.27Y-58.95
X188.27Y-61.49
X188.27Y-64.03
X188.27Y-66.57
X188.27Y-69.11
X188.27Y-71.65
X188.27Y-74.19
X188.27Y-76.73
X188.27Y-79.27
X188.27Y-81.81
X188.27Y-84.35
X188.27Y-86.89
X188.27Y-89.43
X188.27Y-91.97
X188.27Y-94.51
X188.27Y-97.05
X188.27Y-99.59
X188.27Y-102.13
X188.27Y-104.67
X188.27Y-107.21
X188.27Y-109.75
X188.27Y-112.29
X188.27Y-114.83
X190.81Y-41.17
X190.81Y-43.71
X190.81Y-46.25
X190.81Y-48.79
X190.81Y-51.33
X190.81Y-53.87
X190.81Y-56.41
X190.81Y-58.95
X190.81Y-61.49
X190.81Y-64.03
X190.81Y-66.57
X190.81Y-69.11
X190.81Y-71.65
X190.81Y-74.19
X190.81Y-76.73
X190.81Y-79.27
X190.81Y-81.81
X190.81Y-84.35
X190.81Y-86.89
X190.81Y-89.43
X190.81Y-91.97
X190.81Y-94.51
X190.81Y-97.05
X190.81Y-99.59
X190.81Y-102.13
X190.81Y-104.67
X190.81Y-107.21
X190.81Y-109.75
X190.81Y-112.29
X190.81Y-114.83
X193.35Y-41.17
X193.35Y-43.71
X193.35Y-46.25
X193.35Y-48.79
X193.35Y-51.33
X193.35Y-53.87
X193.35Y-56.41
X193.35Y-58.95
X193.35Y-61.49
X193.35Y-64.03
X193.35Y-66.57
X193.35Y-69.11
X193.35Y-71.65
X193.35Y-74.19
X193.35Y-76.73
X193.35Y-79.27
X193.35Y-81.81
X193.35Y-84.35
X193.35Y-86.89
X193.35Y-89.43
X193.35Y-91.97
X193.35Y-94.51
X193.35Y-97.05
X193.35Y-99.59
X193.35Y-102.13
X193.35Y-104.67
X193.35Y-107.21
X193.35Y-109.75
X193.35Y-112.29
X193.35Y-114.83
X195.89Y-41.17
X195.89Y-43.71
X195.89Y-46.25
X195.89Y-48.79
X195.89Y-51.33
X195.89Y-53.87
X195.89Y-56.41
X195.89Y-58.95
X195.89Y-61.49
X195.89Y-64.03
X195.89Y-66.57
X195.89Y-69.11
X195.89Y-71.65
X195.89Y-74.19
X195.89Y-76.73
X195.89Y-79.27
X195.89Y-81.81
X195.89Y-84.35
X195.89Y-86.89
X195.89Y-89.43
X195.89Y-91.97
X195.89Y-94.51
X195.89Y-97.05
X195.89Y-99.59
X195.89Y-102.13
X195.89Y-104.67
X195.89Y-107.21
X195.89Y-109.75
X195.89Y-112.29
X195.89Y-114.83
X198.43Y-41.17
X198.43Y-43.71
X198.43Y-46.25
X198.43Y-48.79
X198.43Y-51.33
X198.43Y-53.87
X198.43Y-56.41
X198.43Y-58.95
X198.43Y-61.49
X198.43Y-64.03
X198.43Y-66.57
X198.43Y-69.11
X198.43Y-71.65
X198.43Y-74.19
X198.43Y-76.73
X198.43Y-79.27
X198.43Y-81.81
X198.43Y-84.35
X198.43Y-86.89
X198.43Y-89.43
X198.43Y-91.97
X198.43Y-94.51
X198.43Y-97.05
X198.43Y-99.59
X198.43Y-102.13
X198.43Y-104.67
X198.43Y-107.21
X198.43Y-109.75
X198.43Y-112.29
X198.43Y-114.83
X200.97Y-41.17
X200.97Y-43.71
X200.97Y-46.25
X200.97Y-48.79
X200.97Y-51.33
X200.97Y-53.87
X200.97Y-56.41
X200.97Y-58.95
X200.97Y-61.49
X200.97Y-64.03
X200.97Y-66.57
X200.97Y-69.11
X200.97Y-71.65
X200.97Y-74.19
X200.97Y-76.73
X200.97Y-79.27
X200.97Y-81.81
X200.97Y-84.35
X200.97Y-86.89
X200.97Y-89.43
X200.97Y-91.97
X200.97Y-94.51
X200.97Y-97.05
X200.97Y-99.59
X200.97Y-102.13
X200.97Y-104.67
X200.97Y-107.21
X200.97Y-109.75
X200.97Y-112.29
X200.97Y-114.83
X203.51Y-41.17
X203.51Y-43.71
X203.51Y-46.25
X203.51Y-48.79
X203.51Y-51.33
X203.51Y-53.87
X203.51Y-56.41
X203.51Y-58.95
X203.51Y-61.49
X203.51Y-64.03
X203.51Y-66.57
X203.51Y-69.11
X203.51Y-71.65
X203.51Y-74.19
X203.51Y-76.73
X203.51Y-79.27
X203.51Y-81.81
X203.51Y-84.35
X203.51Y-86.89
X203.51Y-89.43
X203.51Y-91.97
X203.51Y-94.51
X203.51Y-97.05
X203.51Y-99.59
X203.51Y-102.13
X203.51Y-104.67
X203.51Y-107.21
X203.51Y-109.75
X203.51Y-112.29
X203.51Y-114.83
X206.05Y-41.17
X206.05Y-43.71
X206.05Y-46.25
X206.05Y-48.79
X206.05Y-51.33
X206.05Y-53.87
X206.05Y-56.41
X206.05Y-61.49
X206.05Y-64.03
X206.05Y-66.57
X206.05Y-69.11
X206.05Y-71.65
X206.05Y-74.19
X206.05Y-76.73
X206.05Y-79.27
X206.05Y-81.81
X206.05Y-84.35
X206.05Y-86.89
X206.05Y-89.43
X206.05Y-91.97
X206.05Y-94.51
X206.05Y-99.59
X206.05Y-102.13
X206.05Y-104.67
X206.05Y-107.21
X206.05Y-109.75
X206.05Y-112.29
X206.05Y-114.83
X208.59Y-41.17
X208.59Y-43.71
X208.59Y-46.25
X208.59Y-48.79
X208.59Y-51.33
X208.59Y-53.87
X208.59Y-64.03
X208.59Y-66.57
X208.59Y-69.11
X208.59Y-71.65
X208.59Y-74.19
X208.59Y-76.73
X208.59Y-79.27
X208.59Y-81.81
X208.59Y-84.35
X208.59Y-86.89
X208.59Y-89.43
X208.59Y-91.97
X208.59Y-102.13
X208.59Y-104.67
X208.59Y-107.21
X208.59Y-109.75
X208.59Y-112.29
X208.59Y-114.83
X211.13Y-41.17
X211.13Y-43.71
X211.13Y-46.25
X211.13Y-48.79
X211.13Y-51.33
X211.13Y-53.87
X211.13Y-56.41
X211.13Y-61.49
X211.13Y-64.03
X211.13Y-66.57
X211.13Y-69.11
X211.13Y-71.65
X211.13Y-74.19
X211.13Y-76.73
X211.13Y-79.27
X211.13Y-81.81
X211.13Y-84.35
X211.13Y-86.89
X211.13Y-89.43
X211.13Y-91.97
X211.13Y-94.51
X211.13Y-99.59
X211.13Y-102.13
X211.13Y-104.67
X211.13Y-107.21
X211.13Y-109.75
X211.13Y-112.29
X211.13Y-114.83
X213.67Y-41.17
X213.67Y-43.71
X213.67Y-46.25
X213.67Y-48.79
X213.67Y-51.33
X213.67Y-53.87
X213.67Y-61.49
X213.67Y-64.03
X213.67Y-66.57
X213.67Y-69.11
X213.67Y-71.65
X213.67Y-74.19
X213.67Y-76.73
X213.67Y-79.27
X213.67Y-81.81
X213.67Y-84.35
X213.67Y-86.89
X213.67Y-89.43
X213.67Y-91.97
X213.67Y-94.51
X213.67Y-102.13
X213.67Y-104.67
X213.67Y-107.21
X213.67Y-109.75
X213.67Y-112.29
X213.67Y-114.83
X216.21Y-41.17
X216.21Y-43.71
X216.21Y-46.25
X216.21Y-48.79
X216.21Y-51.33
X216.21Y-53.87
X216.21Y-64.03
X216.21Y-66.57
X216.21Y-69.11
X216.21Y-71.65
X216.21Y-74.19
X216.21Y-76.73
X216.21Y-79.27
X216.21Y-81.81
X216.21Y-84.35
X216.21Y-86.89
X216.21Y-89.43
X216.21Y-91.97
X216.21Y-94.51
X216.21Y-102.13
X216.21Y-104.67
X216.21Y-107.21
X216.21Y-109.75
X216.21Y-112.29
X216.21Y-114.83
X218.75Y-41.17
X218.75Y-43.71
X218.75Y-46.25
X218.75Y-48.79
X218.75Y-51.33
X218.75Y-53.87
X218.75Y-64.03
X218.75Y-66.57
X218.75Y-69.11
X218.75Y-71.65
X218.75Y-74.19
X218.75Y-76.73
X218.75Y-79.27
X218.75Y-81.81
X218.75Y-84.35
X218.75Y-86.89
X218.75Y-89.43
X218.75Y-91.97
X218.75Y-102.13
X218.75Y-104.67
X218.75Y-107.21
X218.75Y-109.75
X218.75Y-112.29
X218.75Y-114.83
X221.29Y-41.17
X221.29Y-43.71
X221.29Y-46.25
X221.29Y-48.79
X221.29Y-51.33
X221.29Y-53.87
X221.29Y-64.03
X221.29Y-66.57
X221.29Y-69.11
X221.29Y-71.65
X221.29Y-74.19
X221.29Y-76.73
X221.29Y-79.27
X221.29Y-81.81
X221.29Y-84.35
X221.29Y-86.89
X221.29Y-89.43
X221.29Y-91.97
X221.29Y-102.13
X221.29Y-104.67
X221.29Y-107.21
X221.29Y-109.75
X221.29Y-112.29
X221.29Y-114.83
X223.83Y-41.17
X223.83Y-43.71
X223.83Y-46.25
X223.83Y-48.79
X223.83Y-51.33
X223.83Y-53.87
X223.83Y-64.03
X223.83Y-66.57
X223.83Y-69.11
X223.83Y-71.65
X223.83Y-74.19
X223.83Y-76.73
X223.83Y-79.27
X223.83Y-81.81
X223.83Y-84.35
X223.83Y-86.89
X223.83Y-89.43
X223.83Y-91.97
X223.83Y-102.13
X223.83Y-104.67
X223.83Y-107.21
X223.83Y-109.75
X223.83Y-112.29
X223.83Y-114.83
T3
X215.5Y-58.2
X215.5Y-97.8
T4
X42.76Y-53.87
X42.76Y-102.13
T5
X208.59Y-58.95
X208.59Y-97.05
T0
M30
