%TF.GenerationSoftware,KiCad,Pcbnew,5.99.0+really5.1.10+dfsg1-1*%
%TF.CreationDate,2022-01-10T00:23:21+01:00*%
%TF.ProjectId,RiserCard,52697365-7243-4617-9264-2e6b69636164,rev?*%
%TF.SameCoordinates,Original*%
%TF.FileFunction,Legend,Top*%
%TF.FilePolarity,Positive*%
%FSLAX46Y46*%
G04 Gerber Fmt 4.6, Leading zero omitted, Abs format (unit mm)*
G04 Created by KiCad (PCBNEW 5.99.0+really5.1.10+dfsg1-1) date 2022-01-10 00:23:21*
%MOMM*%
%LPD*%
G01*
G04 APERTURE LIST*
%ADD10C,0.100000*%
%ADD11C,0.150000*%
%ADD12C,0.120000*%
%ADD13C,0.010000*%
G04 APERTURE END LIST*
D10*
G36*
X104000000Y-55000000D02*
G01*
X82000000Y-55000000D01*
X82000000Y-50000000D01*
X78000000Y-50000000D01*
X78000000Y-41000000D01*
X104000000Y-41000000D01*
X104000000Y-55000000D01*
G37*
X104000000Y-55000000D02*
X82000000Y-55000000D01*
X82000000Y-50000000D01*
X78000000Y-50000000D01*
X78000000Y-41000000D01*
X104000000Y-41000000D01*
X104000000Y-55000000D01*
D11*
X77192738Y-94632380D02*
X77764166Y-94632380D01*
X77478452Y-95632380D02*
X77478452Y-94632380D01*
X78097500Y-95632380D02*
X78097500Y-94632380D01*
X78335595Y-94632380D01*
X78478452Y-94680000D01*
X78573690Y-94775238D01*
X78621309Y-94870476D01*
X78668928Y-95060952D01*
X78668928Y-95203809D01*
X78621309Y-95394285D01*
X78573690Y-95489523D01*
X78478452Y-95584761D01*
X78335595Y-95632380D01*
X78097500Y-95632380D01*
X79287976Y-94632380D02*
X79478452Y-94632380D01*
X79573690Y-94680000D01*
X79668928Y-94775238D01*
X79716547Y-94965714D01*
X79716547Y-95299047D01*
X79668928Y-95489523D01*
X79573690Y-95584761D01*
X79478452Y-95632380D01*
X79287976Y-95632380D01*
X79192738Y-95584761D01*
X79097500Y-95489523D01*
X79049880Y-95299047D01*
X79049880Y-94965714D01*
X79097500Y-94775238D01*
X79192738Y-94680000D01*
X79287976Y-94632380D01*
X77335595Y-90552380D02*
X77335595Y-89552380D01*
X77716547Y-89552380D01*
X77811785Y-89600000D01*
X77859404Y-89647619D01*
X77907023Y-89742857D01*
X77907023Y-89885714D01*
X77859404Y-89980952D01*
X77811785Y-90028571D01*
X77716547Y-90076190D01*
X77335595Y-90076190D01*
X78859404Y-89600000D02*
X78764166Y-89552380D01*
X78621309Y-89552380D01*
X78478452Y-89600000D01*
X78383214Y-89695238D01*
X78335595Y-89790476D01*
X78287976Y-89980952D01*
X78287976Y-90123809D01*
X78335595Y-90314285D01*
X78383214Y-90409523D01*
X78478452Y-90504761D01*
X78621309Y-90552380D01*
X78716547Y-90552380D01*
X78859404Y-90504761D01*
X78907023Y-90457142D01*
X78907023Y-90123809D01*
X78716547Y-90123809D01*
X79335595Y-90028571D02*
X79668928Y-90028571D01*
X79811785Y-90552380D02*
X79335595Y-90552380D01*
X79335595Y-89552380D01*
X79811785Y-89552380D01*
X80240357Y-90552380D02*
X80240357Y-89552380D01*
X80478452Y-89552380D01*
X80621309Y-89600000D01*
X80716547Y-89695238D01*
X80764166Y-89790476D01*
X80811785Y-89980952D01*
X80811785Y-90123809D01*
X80764166Y-90314285D01*
X80716547Y-90409523D01*
X80621309Y-90504761D01*
X80478452Y-90552380D01*
X80240357Y-90552380D01*
X77192738Y-97172380D02*
X77764166Y-97172380D01*
X77478452Y-98172380D02*
X77478452Y-97172380D01*
X78097500Y-98172380D02*
X78097500Y-97172380D01*
X78430833Y-97886666D01*
X78764166Y-97172380D01*
X78764166Y-98172380D01*
X79192738Y-98124761D02*
X79335595Y-98172380D01*
X79573690Y-98172380D01*
X79668928Y-98124761D01*
X79716547Y-98077142D01*
X79764166Y-97981904D01*
X79764166Y-97886666D01*
X79716547Y-97791428D01*
X79668928Y-97743809D01*
X79573690Y-97696190D01*
X79383214Y-97648571D01*
X79287976Y-97600952D01*
X79240357Y-97553333D01*
X79192738Y-97458095D01*
X79192738Y-97362857D01*
X79240357Y-97267619D01*
X79287976Y-97220000D01*
X79383214Y-97172380D01*
X79621309Y-97172380D01*
X79764166Y-97220000D01*
X77192738Y-99712380D02*
X77764166Y-99712380D01*
X77478452Y-100712380D02*
X77478452Y-99712380D01*
X78668928Y-100617142D02*
X78621309Y-100664761D01*
X78478452Y-100712380D01*
X78383214Y-100712380D01*
X78240357Y-100664761D01*
X78145119Y-100569523D01*
X78097500Y-100474285D01*
X78049880Y-100283809D01*
X78049880Y-100140952D01*
X78097500Y-99950476D01*
X78145119Y-99855238D01*
X78240357Y-99760000D01*
X78383214Y-99712380D01*
X78478452Y-99712380D01*
X78621309Y-99760000D01*
X78668928Y-99807619D01*
X79097500Y-100712380D02*
X79097500Y-99712380D01*
X79668928Y-100712380D02*
X79240357Y-100140952D01*
X79668928Y-99712380D02*
X79097500Y-100283809D01*
X77192738Y-84472380D02*
X77526071Y-85472380D01*
X77859404Y-84472380D01*
X78192738Y-85472380D02*
X78192738Y-84472380D01*
X78430833Y-84472380D01*
X78573690Y-84520000D01*
X78668928Y-84615238D01*
X78716547Y-84710476D01*
X78764166Y-84900952D01*
X78764166Y-85043809D01*
X78716547Y-85234285D01*
X78668928Y-85329523D01*
X78573690Y-85424761D01*
X78430833Y-85472380D01*
X78192738Y-85472380D01*
X79192738Y-85472380D02*
X79192738Y-84472380D01*
X79430833Y-84472380D01*
X79573690Y-84520000D01*
X79668928Y-84615238D01*
X79716547Y-84710476D01*
X79764166Y-84900952D01*
X79764166Y-85043809D01*
X79716547Y-85234285D01*
X79668928Y-85329523D01*
X79573690Y-85424761D01*
X79430833Y-85472380D01*
X79192738Y-85472380D01*
X77287976Y-110824761D02*
X77430833Y-110872380D01*
X77668928Y-110872380D01*
X77764166Y-110824761D01*
X77811785Y-110777142D01*
X77859404Y-110681904D01*
X77859404Y-110586666D01*
X77811785Y-110491428D01*
X77764166Y-110443809D01*
X77668928Y-110396190D01*
X77478452Y-110348571D01*
X77383214Y-110300952D01*
X77335595Y-110253333D01*
X77287976Y-110158095D01*
X77287976Y-110062857D01*
X77335595Y-109967619D01*
X77383214Y-109920000D01*
X77478452Y-109872380D01*
X77716547Y-109872380D01*
X77859404Y-109920000D01*
X78287976Y-110872380D02*
X78287976Y-109872380D01*
X78668928Y-109872380D01*
X78764166Y-109920000D01*
X78811785Y-109967619D01*
X78859404Y-110062857D01*
X78859404Y-110205714D01*
X78811785Y-110300952D01*
X78764166Y-110348571D01*
X78668928Y-110396190D01*
X78287976Y-110396190D01*
X79240357Y-110586666D02*
X79716547Y-110586666D01*
X79145119Y-110872380D02*
X79478452Y-109872380D01*
X79811785Y-110872380D01*
X80716547Y-110872380D02*
X80383214Y-110396190D01*
X80145119Y-110872380D02*
X80145119Y-109872380D01*
X80526071Y-109872380D01*
X80621309Y-109920000D01*
X80668928Y-109967619D01*
X80716547Y-110062857D01*
X80716547Y-110205714D01*
X80668928Y-110300952D01*
X80621309Y-110348571D01*
X80526071Y-110396190D01*
X80145119Y-110396190D01*
X81145119Y-110348571D02*
X81478452Y-110348571D01*
X81621309Y-110872380D02*
X81145119Y-110872380D01*
X81145119Y-109872380D01*
X81621309Y-109872380D01*
X77335595Y-88012380D02*
X77335595Y-87012380D01*
X77716547Y-87012380D01*
X77811785Y-87060000D01*
X77859404Y-87107619D01*
X77907023Y-87202857D01*
X77907023Y-87345714D01*
X77859404Y-87440952D01*
X77811785Y-87488571D01*
X77716547Y-87536190D01*
X77335595Y-87536190D01*
X78859404Y-87060000D02*
X78764166Y-87012380D01*
X78621309Y-87012380D01*
X78478452Y-87060000D01*
X78383214Y-87155238D01*
X78335595Y-87250476D01*
X78287976Y-87440952D01*
X78287976Y-87583809D01*
X78335595Y-87774285D01*
X78383214Y-87869523D01*
X78478452Y-87964761D01*
X78621309Y-88012380D01*
X78716547Y-88012380D01*
X78859404Y-87964761D01*
X78907023Y-87917142D01*
X78907023Y-87583809D01*
X78716547Y-87583809D01*
X79335595Y-87488571D02*
X79668928Y-87488571D01*
X79811785Y-88012380D02*
X79335595Y-88012380D01*
X79335595Y-87012380D01*
X79811785Y-87012380D01*
X80811785Y-87917142D02*
X80764166Y-87964761D01*
X80621309Y-88012380D01*
X80526071Y-88012380D01*
X80383214Y-87964761D01*
X80287976Y-87869523D01*
X80240357Y-87774285D01*
X80192738Y-87583809D01*
X80192738Y-87440952D01*
X80240357Y-87250476D01*
X80287976Y-87155238D01*
X80383214Y-87060000D01*
X80526071Y-87012380D01*
X80621309Y-87012380D01*
X80764166Y-87060000D01*
X80811785Y-87107619D01*
X77192738Y-92092380D02*
X77764166Y-92092380D01*
X77478452Y-93092380D02*
X77478452Y-92092380D01*
X78097500Y-93092380D02*
X78097500Y-92092380D01*
X78335595Y-92092380D01*
X78478452Y-92140000D01*
X78573690Y-92235238D01*
X78621309Y-92330476D01*
X78668928Y-92520952D01*
X78668928Y-92663809D01*
X78621309Y-92854285D01*
X78573690Y-92949523D01*
X78478452Y-93044761D01*
X78335595Y-93092380D01*
X78097500Y-93092380D01*
X79097500Y-93092380D02*
X79097500Y-92092380D01*
X77097500Y-101885000D02*
X78240357Y-101885000D01*
X77335595Y-103252380D02*
X77335595Y-102252380D01*
X77668928Y-102966666D01*
X78002261Y-102252380D01*
X78002261Y-103252380D01*
X78240357Y-101885000D02*
X79240357Y-101885000D01*
X79049880Y-103157142D02*
X79002261Y-103204761D01*
X78859404Y-103252380D01*
X78764166Y-103252380D01*
X78621309Y-103204761D01*
X78526071Y-103109523D01*
X78478452Y-103014285D01*
X78430833Y-102823809D01*
X78430833Y-102680952D01*
X78478452Y-102490476D01*
X78526071Y-102395238D01*
X78621309Y-102300000D01*
X78764166Y-102252380D01*
X78859404Y-102252380D01*
X79002261Y-102300000D01*
X79049880Y-102347619D01*
X79240357Y-101885000D02*
X80049880Y-101885000D01*
X79954642Y-103252380D02*
X79478452Y-103252380D01*
X79478452Y-102252380D01*
X80049880Y-101885000D02*
X81049880Y-101885000D01*
X80859404Y-103252380D02*
X80526071Y-102776190D01*
X80287976Y-103252380D02*
X80287976Y-102252380D01*
X80668928Y-102252380D01*
X80764166Y-102300000D01*
X80811785Y-102347619D01*
X80859404Y-102442857D01*
X80859404Y-102585714D01*
X80811785Y-102680952D01*
X80764166Y-102728571D01*
X80668928Y-102776190D01*
X80287976Y-102776190D01*
X77907023Y-105792380D02*
X77573690Y-105316190D01*
X77335595Y-105792380D02*
X77335595Y-104792380D01*
X77716547Y-104792380D01*
X77811785Y-104840000D01*
X77859404Y-104887619D01*
X77907023Y-104982857D01*
X77907023Y-105125714D01*
X77859404Y-105220952D01*
X77811785Y-105268571D01*
X77716547Y-105316190D01*
X77335595Y-105316190D01*
X78240357Y-104792380D02*
X78907023Y-105792380D01*
X78907023Y-104792380D02*
X78240357Y-105792380D01*
X77859404Y-112460000D02*
X77764166Y-112412380D01*
X77621309Y-112412380D01*
X77478452Y-112460000D01*
X77383214Y-112555238D01*
X77335595Y-112650476D01*
X77287976Y-112840952D01*
X77287976Y-112983809D01*
X77335595Y-113174285D01*
X77383214Y-113269523D01*
X77478452Y-113364761D01*
X77621309Y-113412380D01*
X77716547Y-113412380D01*
X77859404Y-113364761D01*
X77907023Y-113317142D01*
X77907023Y-112983809D01*
X77716547Y-112983809D01*
X78335595Y-113412380D02*
X78335595Y-112412380D01*
X78907023Y-113412380D01*
X78907023Y-112412380D01*
X79383214Y-113412380D02*
X79383214Y-112412380D01*
X79621309Y-112412380D01*
X79764166Y-112460000D01*
X79859404Y-112555238D01*
X79907023Y-112650476D01*
X79954642Y-112840952D01*
X79954642Y-112983809D01*
X79907023Y-113174285D01*
X79859404Y-113269523D01*
X79764166Y-113364761D01*
X79621309Y-113412380D01*
X79383214Y-113412380D01*
X77192738Y-107332380D02*
X77764166Y-107332380D01*
X77478452Y-108332380D02*
X77478452Y-107332380D01*
X78002261Y-107332380D02*
X78668928Y-108332380D01*
X78668928Y-107332380D02*
X78002261Y-108332380D01*
X77859404Y-79440000D02*
X77764166Y-79392380D01*
X77621309Y-79392380D01*
X77478452Y-79440000D01*
X77383214Y-79535238D01*
X77335595Y-79630476D01*
X77287976Y-79820952D01*
X77287976Y-79963809D01*
X77335595Y-80154285D01*
X77383214Y-80249523D01*
X77478452Y-80344761D01*
X77621309Y-80392380D01*
X77716547Y-80392380D01*
X77859404Y-80344761D01*
X77907023Y-80297142D01*
X77907023Y-79963809D01*
X77716547Y-79963809D01*
X78335595Y-80392380D02*
X78335595Y-79392380D01*
X78907023Y-80392380D01*
X78907023Y-79392380D01*
X79383214Y-80392380D02*
X79383214Y-79392380D01*
X79621309Y-79392380D01*
X79764166Y-79440000D01*
X79859404Y-79535238D01*
X79907023Y-79630476D01*
X79954642Y-79820952D01*
X79954642Y-79963809D01*
X79907023Y-80154285D01*
X79859404Y-80249523D01*
X79764166Y-80344761D01*
X79621309Y-80392380D01*
X79383214Y-80392380D01*
X77287976Y-77804761D02*
X77430833Y-77852380D01*
X77668928Y-77852380D01*
X77764166Y-77804761D01*
X77811785Y-77757142D01*
X77859404Y-77661904D01*
X77859404Y-77566666D01*
X77811785Y-77471428D01*
X77764166Y-77423809D01*
X77668928Y-77376190D01*
X77478452Y-77328571D01*
X77383214Y-77280952D01*
X77335595Y-77233333D01*
X77287976Y-77138095D01*
X77287976Y-77042857D01*
X77335595Y-76947619D01*
X77383214Y-76900000D01*
X77478452Y-76852380D01*
X77716547Y-76852380D01*
X77859404Y-76900000D01*
X78287976Y-77852380D02*
X78287976Y-76852380D01*
X78668928Y-76852380D01*
X78764166Y-76900000D01*
X78811785Y-76947619D01*
X78859404Y-77042857D01*
X78859404Y-77185714D01*
X78811785Y-77280952D01*
X78764166Y-77328571D01*
X78668928Y-77376190D01*
X78287976Y-77376190D01*
X79240357Y-77566666D02*
X79716547Y-77566666D01*
X79145119Y-77852380D02*
X79478452Y-76852380D01*
X79811785Y-77852380D01*
X80716547Y-77852380D02*
X80383214Y-77376190D01*
X80145119Y-77852380D02*
X80145119Y-76852380D01*
X80526071Y-76852380D01*
X80621309Y-76900000D01*
X80668928Y-76947619D01*
X80716547Y-77042857D01*
X80716547Y-77185714D01*
X80668928Y-77280952D01*
X80621309Y-77328571D01*
X80526071Y-77376190D01*
X80145119Y-77376190D01*
X81145119Y-77328571D02*
X81478452Y-77328571D01*
X81621309Y-77852380D02*
X81145119Y-77852380D01*
X81145119Y-76852380D01*
X81621309Y-76852380D01*
X77192738Y-74312380D02*
X77764166Y-74312380D01*
X77478452Y-75312380D02*
X77478452Y-74312380D01*
X78002261Y-74312380D02*
X78668928Y-75312380D01*
X78668928Y-74312380D02*
X78002261Y-75312380D01*
X77907023Y-72772380D02*
X77573690Y-72296190D01*
X77335595Y-72772380D02*
X77335595Y-71772380D01*
X77716547Y-71772380D01*
X77811785Y-71820000D01*
X77859404Y-71867619D01*
X77907023Y-71962857D01*
X77907023Y-72105714D01*
X77859404Y-72200952D01*
X77811785Y-72248571D01*
X77716547Y-72296190D01*
X77335595Y-72296190D01*
X78240357Y-71772380D02*
X78907023Y-72772380D01*
X78907023Y-71772380D02*
X78240357Y-72772380D01*
X77097500Y-68865000D02*
X78240357Y-68865000D01*
X77335595Y-70232380D02*
X77335595Y-69232380D01*
X77668928Y-69946666D01*
X78002261Y-69232380D01*
X78002261Y-70232380D01*
X78240357Y-68865000D02*
X79240357Y-68865000D01*
X79049880Y-70137142D02*
X79002261Y-70184761D01*
X78859404Y-70232380D01*
X78764166Y-70232380D01*
X78621309Y-70184761D01*
X78526071Y-70089523D01*
X78478452Y-69994285D01*
X78430833Y-69803809D01*
X78430833Y-69660952D01*
X78478452Y-69470476D01*
X78526071Y-69375238D01*
X78621309Y-69280000D01*
X78764166Y-69232380D01*
X78859404Y-69232380D01*
X79002261Y-69280000D01*
X79049880Y-69327619D01*
X79240357Y-68865000D02*
X80049880Y-68865000D01*
X79954642Y-70232380D02*
X79478452Y-70232380D01*
X79478452Y-69232380D01*
X80049880Y-68865000D02*
X81049880Y-68865000D01*
X80859404Y-70232380D02*
X80526071Y-69756190D01*
X80287976Y-70232380D02*
X80287976Y-69232380D01*
X80668928Y-69232380D01*
X80764166Y-69280000D01*
X80811785Y-69327619D01*
X80859404Y-69422857D01*
X80859404Y-69565714D01*
X80811785Y-69660952D01*
X80764166Y-69708571D01*
X80668928Y-69756190D01*
X80287976Y-69756190D01*
X77192738Y-66692380D02*
X77764166Y-66692380D01*
X77478452Y-67692380D02*
X77478452Y-66692380D01*
X78668928Y-67597142D02*
X78621309Y-67644761D01*
X78478452Y-67692380D01*
X78383214Y-67692380D01*
X78240357Y-67644761D01*
X78145119Y-67549523D01*
X78097500Y-67454285D01*
X78049880Y-67263809D01*
X78049880Y-67120952D01*
X78097500Y-66930476D01*
X78145119Y-66835238D01*
X78240357Y-66740000D01*
X78383214Y-66692380D01*
X78478452Y-66692380D01*
X78621309Y-66740000D01*
X78668928Y-66787619D01*
X79097500Y-67692380D02*
X79097500Y-66692380D01*
X79668928Y-67692380D02*
X79240357Y-67120952D01*
X79668928Y-66692380D02*
X79097500Y-67263809D01*
X77192738Y-64152380D02*
X77764166Y-64152380D01*
X77478452Y-65152380D02*
X77478452Y-64152380D01*
X78097500Y-65152380D02*
X78097500Y-64152380D01*
X78430833Y-64866666D01*
X78764166Y-64152380D01*
X78764166Y-65152380D01*
X79192738Y-65104761D02*
X79335595Y-65152380D01*
X79573690Y-65152380D01*
X79668928Y-65104761D01*
X79716547Y-65057142D01*
X79764166Y-64961904D01*
X79764166Y-64866666D01*
X79716547Y-64771428D01*
X79668928Y-64723809D01*
X79573690Y-64676190D01*
X79383214Y-64628571D01*
X79287976Y-64580952D01*
X79240357Y-64533333D01*
X79192738Y-64438095D01*
X79192738Y-64342857D01*
X79240357Y-64247619D01*
X79287976Y-64200000D01*
X79383214Y-64152380D01*
X79621309Y-64152380D01*
X79764166Y-64200000D01*
X77192738Y-61612380D02*
X77764166Y-61612380D01*
X77478452Y-62612380D02*
X77478452Y-61612380D01*
X78097500Y-62612380D02*
X78097500Y-61612380D01*
X78335595Y-61612380D01*
X78478452Y-61660000D01*
X78573690Y-61755238D01*
X78621309Y-61850476D01*
X78668928Y-62040952D01*
X78668928Y-62183809D01*
X78621309Y-62374285D01*
X78573690Y-62469523D01*
X78478452Y-62564761D01*
X78335595Y-62612380D01*
X78097500Y-62612380D01*
X79287976Y-61612380D02*
X79478452Y-61612380D01*
X79573690Y-61660000D01*
X79668928Y-61755238D01*
X79716547Y-61945714D01*
X79716547Y-62279047D01*
X79668928Y-62469523D01*
X79573690Y-62564761D01*
X79478452Y-62612380D01*
X79287976Y-62612380D01*
X79192738Y-62564761D01*
X79097500Y-62469523D01*
X79049880Y-62279047D01*
X79049880Y-61945714D01*
X79097500Y-61755238D01*
X79192738Y-61660000D01*
X79287976Y-61612380D01*
X77192738Y-59072380D02*
X77764166Y-59072380D01*
X77478452Y-60072380D02*
X77478452Y-59072380D01*
X78097500Y-60072380D02*
X78097500Y-59072380D01*
X78335595Y-59072380D01*
X78478452Y-59120000D01*
X78573690Y-59215238D01*
X78621309Y-59310476D01*
X78668928Y-59500952D01*
X78668928Y-59643809D01*
X78621309Y-59834285D01*
X78573690Y-59929523D01*
X78478452Y-60024761D01*
X78335595Y-60072380D01*
X78097500Y-60072380D01*
X79097500Y-60072380D02*
X79097500Y-59072380D01*
X77335595Y-57532380D02*
X77335595Y-56532380D01*
X77716547Y-56532380D01*
X77811785Y-56580000D01*
X77859404Y-56627619D01*
X77907023Y-56722857D01*
X77907023Y-56865714D01*
X77859404Y-56960952D01*
X77811785Y-57008571D01*
X77716547Y-57056190D01*
X77335595Y-57056190D01*
X78859404Y-56580000D02*
X78764166Y-56532380D01*
X78621309Y-56532380D01*
X78478452Y-56580000D01*
X78383214Y-56675238D01*
X78335595Y-56770476D01*
X78287976Y-56960952D01*
X78287976Y-57103809D01*
X78335595Y-57294285D01*
X78383214Y-57389523D01*
X78478452Y-57484761D01*
X78621309Y-57532380D01*
X78716547Y-57532380D01*
X78859404Y-57484761D01*
X78907023Y-57437142D01*
X78907023Y-57103809D01*
X78716547Y-57103809D01*
X79335595Y-57008571D02*
X79668928Y-57008571D01*
X79811785Y-57532380D02*
X79335595Y-57532380D01*
X79335595Y-56532380D01*
X79811785Y-56532380D01*
X80240357Y-57532380D02*
X80240357Y-56532380D01*
X80478452Y-56532380D01*
X80621309Y-56580000D01*
X80716547Y-56675238D01*
X80764166Y-56770476D01*
X80811785Y-56960952D01*
X80811785Y-57103809D01*
X80764166Y-57294285D01*
X80716547Y-57389523D01*
X80621309Y-57484761D01*
X80478452Y-57532380D01*
X80240357Y-57532380D01*
X77335595Y-54992380D02*
X77335595Y-53992380D01*
X77716547Y-53992380D01*
X77811785Y-54040000D01*
X77859404Y-54087619D01*
X77907023Y-54182857D01*
X77907023Y-54325714D01*
X77859404Y-54420952D01*
X77811785Y-54468571D01*
X77716547Y-54516190D01*
X77335595Y-54516190D01*
X78859404Y-54040000D02*
X78764166Y-53992380D01*
X78621309Y-53992380D01*
X78478452Y-54040000D01*
X78383214Y-54135238D01*
X78335595Y-54230476D01*
X78287976Y-54420952D01*
X78287976Y-54563809D01*
X78335595Y-54754285D01*
X78383214Y-54849523D01*
X78478452Y-54944761D01*
X78621309Y-54992380D01*
X78716547Y-54992380D01*
X78859404Y-54944761D01*
X78907023Y-54897142D01*
X78907023Y-54563809D01*
X78716547Y-54563809D01*
X79335595Y-54468571D02*
X79668928Y-54468571D01*
X79811785Y-54992380D02*
X79335595Y-54992380D01*
X79335595Y-53992380D01*
X79811785Y-53992380D01*
X80811785Y-54897142D02*
X80764166Y-54944761D01*
X80621309Y-54992380D01*
X80526071Y-54992380D01*
X80383214Y-54944761D01*
X80287976Y-54849523D01*
X80240357Y-54754285D01*
X80192738Y-54563809D01*
X80192738Y-54420952D01*
X80240357Y-54230476D01*
X80287976Y-54135238D01*
X80383214Y-54040000D01*
X80526071Y-53992380D01*
X80621309Y-53992380D01*
X80764166Y-54040000D01*
X80811785Y-54087619D01*
X77192738Y-51452380D02*
X77526071Y-52452380D01*
X77859404Y-51452380D01*
X78764166Y-52357142D02*
X78716547Y-52404761D01*
X78573690Y-52452380D01*
X78478452Y-52452380D01*
X78335595Y-52404761D01*
X78240357Y-52309523D01*
X78192738Y-52214285D01*
X78145119Y-52023809D01*
X78145119Y-51880952D01*
X78192738Y-51690476D01*
X78240357Y-51595238D01*
X78335595Y-51500000D01*
X78478452Y-51452380D01*
X78573690Y-51452380D01*
X78716547Y-51500000D01*
X78764166Y-51547619D01*
X79764166Y-52357142D02*
X79716547Y-52404761D01*
X79573690Y-52452380D01*
X79478452Y-52452380D01*
X79335595Y-52404761D01*
X79240357Y-52309523D01*
X79192738Y-52214285D01*
X79145119Y-52023809D01*
X79145119Y-51880952D01*
X79192738Y-51690476D01*
X79240357Y-51595238D01*
X79335595Y-51500000D01*
X79478452Y-51452380D01*
X79573690Y-51452380D01*
X79716547Y-51500000D01*
X79764166Y-51547619D01*
X92152380Y-100552380D02*
X92152380Y-101266666D01*
X92104761Y-101409523D01*
X92009523Y-101504761D01*
X91866666Y-101552380D01*
X91771428Y-101552380D01*
X92485714Y-100552380D02*
X93057142Y-100552380D01*
X92771428Y-101552380D02*
X92771428Y-100552380D01*
X93342857Y-101266666D02*
X93819047Y-101266666D01*
X93247619Y-101552380D02*
X93580952Y-100552380D01*
X93914285Y-101552380D01*
X94771428Y-100600000D02*
X94676190Y-100552380D01*
X94533333Y-100552380D01*
X94390476Y-100600000D01*
X94295238Y-100695238D01*
X94247619Y-100790476D01*
X94200000Y-100980952D01*
X94200000Y-101123809D01*
X94247619Y-101314285D01*
X94295238Y-101409523D01*
X94390476Y-101504761D01*
X94533333Y-101552380D01*
X94628571Y-101552380D01*
X94771428Y-101504761D01*
X94819047Y-101457142D01*
X94819047Y-101123809D01*
X94628571Y-101123809D01*
X96342857Y-101028571D02*
X96485714Y-101076190D01*
X96533333Y-101123809D01*
X96580952Y-101219047D01*
X96580952Y-101361904D01*
X96533333Y-101457142D01*
X96485714Y-101504761D01*
X96390476Y-101552380D01*
X96009523Y-101552380D01*
X96009523Y-100552380D01*
X96342857Y-100552380D01*
X96438095Y-100600000D01*
X96485714Y-100647619D01*
X96533333Y-100742857D01*
X96533333Y-100838095D01*
X96485714Y-100933333D01*
X96438095Y-100980952D01*
X96342857Y-101028571D01*
X96009523Y-101028571D01*
X91842857Y-86852380D02*
X91842857Y-85852380D01*
X92890476Y-86757142D02*
X92842857Y-86804761D01*
X92700000Y-86852380D01*
X92604761Y-86852380D01*
X92461904Y-86804761D01*
X92366666Y-86709523D01*
X92319047Y-86614285D01*
X92271428Y-86423809D01*
X92271428Y-86280952D01*
X92319047Y-86090476D01*
X92366666Y-85995238D01*
X92461904Y-85900000D01*
X92604761Y-85852380D01*
X92700000Y-85852380D01*
X92842857Y-85900000D01*
X92890476Y-85947619D01*
X93271428Y-86804761D02*
X93414285Y-86852380D01*
X93652380Y-86852380D01*
X93747619Y-86804761D01*
X93795238Y-86757142D01*
X93842857Y-86661904D01*
X93842857Y-86566666D01*
X93795238Y-86471428D01*
X93747619Y-86423809D01*
X93652380Y-86376190D01*
X93461904Y-86328571D01*
X93366666Y-86280952D01*
X93319047Y-86233333D01*
X93271428Y-86138095D01*
X93271428Y-86042857D01*
X93319047Y-85947619D01*
X93366666Y-85900000D01*
X93461904Y-85852380D01*
X93700000Y-85852380D01*
X93842857Y-85900000D01*
X94271428Y-86852380D02*
X94271428Y-85852380D01*
X94652380Y-85852380D01*
X94747619Y-85900000D01*
X94795238Y-85947619D01*
X94842857Y-86042857D01*
X94842857Y-86185714D01*
X94795238Y-86280952D01*
X94747619Y-86328571D01*
X94652380Y-86376190D01*
X94271428Y-86376190D01*
X96366666Y-86328571D02*
X96509523Y-86376190D01*
X96557142Y-86423809D01*
X96604761Y-86519047D01*
X96604761Y-86661904D01*
X96557142Y-86757142D01*
X96509523Y-86804761D01*
X96414285Y-86852380D01*
X96033333Y-86852380D01*
X96033333Y-85852380D01*
X96366666Y-85852380D01*
X96461904Y-85900000D01*
X96509523Y-85947619D01*
X96557142Y-86042857D01*
X96557142Y-86138095D01*
X96509523Y-86233333D01*
X96461904Y-86280952D01*
X96366666Y-86328571D01*
X96033333Y-86328571D01*
X92223809Y-70852380D02*
X92223809Y-71566666D01*
X92176190Y-71709523D01*
X92080952Y-71804761D01*
X91938095Y-71852380D01*
X91842857Y-71852380D01*
X92557142Y-70852380D02*
X93128571Y-70852380D01*
X92842857Y-71852380D02*
X92842857Y-70852380D01*
X93414285Y-71566666D02*
X93890476Y-71566666D01*
X93319047Y-71852380D02*
X93652380Y-70852380D01*
X93985714Y-71852380D01*
X94842857Y-70900000D02*
X94747619Y-70852380D01*
X94604761Y-70852380D01*
X94461904Y-70900000D01*
X94366666Y-70995238D01*
X94319047Y-71090476D01*
X94271428Y-71280952D01*
X94271428Y-71423809D01*
X94319047Y-71614285D01*
X94366666Y-71709523D01*
X94461904Y-71804761D01*
X94604761Y-71852380D01*
X94700000Y-71852380D01*
X94842857Y-71804761D01*
X94890476Y-71757142D01*
X94890476Y-71423809D01*
X94700000Y-71423809D01*
X96033333Y-71566666D02*
X96509523Y-71566666D01*
X95938095Y-71852380D02*
X96271428Y-70852380D01*
X96604761Y-71852380D01*
X91814285Y-56852380D02*
X91814285Y-55852380D01*
X92861904Y-56757142D02*
X92814285Y-56804761D01*
X92671428Y-56852380D01*
X92576190Y-56852380D01*
X92433333Y-56804761D01*
X92338095Y-56709523D01*
X92290476Y-56614285D01*
X92242857Y-56423809D01*
X92242857Y-56280952D01*
X92290476Y-56090476D01*
X92338095Y-55995238D01*
X92433333Y-55900000D01*
X92576190Y-55852380D01*
X92671428Y-55852380D01*
X92814285Y-55900000D01*
X92861904Y-55947619D01*
X93242857Y-56804761D02*
X93385714Y-56852380D01*
X93623809Y-56852380D01*
X93719047Y-56804761D01*
X93766666Y-56757142D01*
X93814285Y-56661904D01*
X93814285Y-56566666D01*
X93766666Y-56471428D01*
X93719047Y-56423809D01*
X93623809Y-56376190D01*
X93433333Y-56328571D01*
X93338095Y-56280952D01*
X93290476Y-56233333D01*
X93242857Y-56138095D01*
X93242857Y-56042857D01*
X93290476Y-55947619D01*
X93338095Y-55900000D01*
X93433333Y-55852380D01*
X93671428Y-55852380D01*
X93814285Y-55900000D01*
X94242857Y-56852380D02*
X94242857Y-55852380D01*
X94623809Y-55852380D01*
X94719047Y-55900000D01*
X94766666Y-55947619D01*
X94814285Y-56042857D01*
X94814285Y-56185714D01*
X94766666Y-56280952D01*
X94719047Y-56328571D01*
X94623809Y-56376190D01*
X94242857Y-56376190D01*
X95957142Y-56566666D02*
X96433333Y-56566666D01*
X95861904Y-56852380D02*
X96195238Y-55852380D01*
X96528571Y-56852380D01*
X213071428Y-97928571D02*
X213214285Y-97976190D01*
X213261904Y-98023809D01*
X213309523Y-98119047D01*
X213309523Y-98261904D01*
X213261904Y-98357142D01*
X213214285Y-98404761D01*
X213119047Y-98452380D01*
X212738095Y-98452380D01*
X212738095Y-97452380D01*
X213071428Y-97452380D01*
X213166666Y-97500000D01*
X213214285Y-97547619D01*
X213261904Y-97642857D01*
X213261904Y-97738095D01*
X213214285Y-97833333D01*
X213166666Y-97880952D01*
X213071428Y-97928571D01*
X212738095Y-97928571D01*
X212761904Y-58166666D02*
X213238095Y-58166666D01*
X212666666Y-58452380D02*
X213000000Y-57452380D01*
X213333333Y-58452380D01*
D12*
X212000000Y-97000000D02*
X214000000Y-97000000D01*
X214000000Y-59000000D02*
X212000000Y-59000000D01*
X225000000Y-78000000D02*
X206000000Y-78000000D01*
%TO.C,J8*%
X73670000Y-114290000D02*
X76330000Y-114290000D01*
X73670000Y-86290000D02*
X73670000Y-114290000D01*
X76330000Y-86290000D02*
X76330000Y-114290000D01*
X73670000Y-86290000D02*
X76330000Y-86290000D01*
X73670000Y-85020000D02*
X73670000Y-83690000D01*
X73670000Y-83690000D02*
X75000000Y-83690000D01*
%TO.C,J7*%
X73670000Y-81270000D02*
X76330000Y-81270000D01*
X73670000Y-53270000D02*
X73670000Y-81270000D01*
X76330000Y-53270000D02*
X76330000Y-81270000D01*
X73670000Y-53270000D02*
X76330000Y-53270000D01*
X73670000Y-52000000D02*
X73670000Y-50670000D01*
X73670000Y-50670000D02*
X75000000Y-50670000D01*
%TO.C,R8*%
X218745276Y-94077500D02*
X219254724Y-94077500D01*
X218745276Y-95122500D02*
X219254724Y-95122500D01*
%TO.C,R7*%
X218745276Y-95677500D02*
X219254724Y-95677500D01*
X218745276Y-96722500D02*
X219254724Y-96722500D01*
%TO.C,R6*%
X218745276Y-60877500D02*
X219254724Y-60877500D01*
X218745276Y-61922500D02*
X219254724Y-61922500D01*
%TO.C,R5*%
X218745276Y-59277500D02*
X219254724Y-59277500D01*
X218745276Y-60322500D02*
X219254724Y-60322500D01*
%TO.C,R4*%
X219254724Y-98322500D02*
X218745276Y-98322500D01*
X219254724Y-97277500D02*
X218745276Y-97277500D01*
%TO.C,R3*%
X219254724Y-58722500D02*
X218745276Y-58722500D01*
X219254724Y-57677500D02*
X218745276Y-57677500D01*
%TO.C,R2*%
X219254724Y-99922500D02*
X218745276Y-99922500D01*
X219254724Y-98877500D02*
X218745276Y-98877500D01*
%TO.C,R1*%
X219254724Y-57122500D02*
X218745276Y-57122500D01*
X219254724Y-56077500D02*
X218745276Y-56077500D01*
%TO.C,D8*%
X223800000Y-93865000D02*
X221340000Y-93865000D01*
X221340000Y-93865000D02*
X221340000Y-95335000D01*
X221340000Y-95335000D02*
X223800000Y-95335000D01*
%TO.C,D7*%
X223800000Y-95465000D02*
X221340000Y-95465000D01*
X221340000Y-95465000D02*
X221340000Y-96935000D01*
X221340000Y-96935000D02*
X223800000Y-96935000D01*
%TO.C,D6*%
X223800000Y-60665000D02*
X221340000Y-60665000D01*
X221340000Y-60665000D02*
X221340000Y-62135000D01*
X221340000Y-62135000D02*
X223800000Y-62135000D01*
%TO.C,D5*%
X223800000Y-59065000D02*
X221340000Y-59065000D01*
X221340000Y-59065000D02*
X221340000Y-60535000D01*
X221340000Y-60535000D02*
X223800000Y-60535000D01*
%TO.C,D4*%
X222200000Y-98535000D02*
X224660000Y-98535000D01*
X224660000Y-98535000D02*
X224660000Y-97065000D01*
X224660000Y-97065000D02*
X222200000Y-97065000D01*
%TO.C,D3*%
X222200000Y-58935000D02*
X224660000Y-58935000D01*
X224660000Y-58935000D02*
X224660000Y-57465000D01*
X224660000Y-57465000D02*
X222200000Y-57465000D01*
%TO.C,D2*%
X222200000Y-100135000D02*
X224660000Y-100135000D01*
X224660000Y-100135000D02*
X224660000Y-98665000D01*
X224660000Y-98665000D02*
X222200000Y-98665000D01*
%TO.C,D1*%
X222200000Y-57335000D02*
X224660000Y-57335000D01*
X224660000Y-57335000D02*
X224660000Y-55865000D01*
X224660000Y-55865000D02*
X222200000Y-55865000D01*
%TO.C,U9*%
X56100000Y-48660000D02*
X57900000Y-48660000D01*
X57900000Y-45440000D02*
X55450000Y-45440000D01*
%TO.C,U8*%
X64100000Y-48610000D02*
X65900000Y-48610000D01*
X65900000Y-45390000D02*
X63450000Y-45390000D01*
%TO.C,U7*%
X56100000Y-44610000D02*
X57900000Y-44610000D01*
X57900000Y-41390000D02*
X55450000Y-41390000D01*
%TO.C,U6*%
X64100000Y-44610000D02*
X65900000Y-44610000D01*
X65900000Y-41390000D02*
X63450000Y-41390000D01*
%TO.C,U5*%
X63000000Y-112310000D02*
X66860000Y-112310000D01*
X66860000Y-112310000D02*
X66860000Y-112075000D01*
X63000000Y-112310000D02*
X59140000Y-112310000D01*
X59140000Y-112310000D02*
X59140000Y-112075000D01*
X63000000Y-99290000D02*
X66860000Y-99290000D01*
X66860000Y-99290000D02*
X66860000Y-99525000D01*
X63000000Y-99290000D02*
X59140000Y-99290000D01*
X59140000Y-99290000D02*
X59140000Y-99525000D01*
X59140000Y-99525000D02*
X57325000Y-99525000D01*
%TO.C,U4*%
X63000000Y-96710000D02*
X66860000Y-96710000D01*
X66860000Y-96710000D02*
X66860000Y-96475000D01*
X63000000Y-96710000D02*
X59140000Y-96710000D01*
X59140000Y-96710000D02*
X59140000Y-96475000D01*
X63000000Y-83690000D02*
X66860000Y-83690000D01*
X66860000Y-83690000D02*
X66860000Y-83925000D01*
X63000000Y-83690000D02*
X59140000Y-83690000D01*
X59140000Y-83690000D02*
X59140000Y-83925000D01*
X59140000Y-83925000D02*
X57325000Y-83925000D01*
%TO.C,U3*%
X63000000Y-81110000D02*
X66860000Y-81110000D01*
X66860000Y-81110000D02*
X66860000Y-80875000D01*
X63000000Y-81110000D02*
X59140000Y-81110000D01*
X59140000Y-81110000D02*
X59140000Y-80875000D01*
X63000000Y-68090000D02*
X66860000Y-68090000D01*
X66860000Y-68090000D02*
X66860000Y-68325000D01*
X63000000Y-68090000D02*
X59140000Y-68090000D01*
X59140000Y-68090000D02*
X59140000Y-68325000D01*
X59140000Y-68325000D02*
X57325000Y-68325000D01*
%TO.C,U2*%
X63000000Y-65510000D02*
X66860000Y-65510000D01*
X66860000Y-65510000D02*
X66860000Y-65275000D01*
X63000000Y-65510000D02*
X59140000Y-65510000D01*
X59140000Y-65510000D02*
X59140000Y-65275000D01*
X63000000Y-52490000D02*
X66860000Y-52490000D01*
X66860000Y-52490000D02*
X66860000Y-52725000D01*
X63000000Y-52490000D02*
X59140000Y-52490000D01*
X59140000Y-52490000D02*
X59140000Y-52725000D01*
X59140000Y-52725000D02*
X57325000Y-52725000D01*
%TO.C,RN3*%
X50500000Y-47680000D02*
X49500000Y-47680000D01*
X50500000Y-44320000D02*
X49500000Y-44320000D01*
%TO.C,RN2*%
X50500000Y-54880000D02*
X49500000Y-54880000D01*
X50500000Y-51520000D02*
X49500000Y-51520000D01*
%TO.C,RN1*%
X50500000Y-102780000D02*
X49500000Y-102780000D01*
X50500000Y-99420000D02*
X49500000Y-99420000D01*
D13*
%TO.C,MARK1*%
G36*
X42634364Y-109926219D02*
G01*
X42656629Y-109954776D01*
X42683419Y-109994820D01*
X42709821Y-110038891D01*
X42716278Y-110050573D01*
X42730577Y-110076624D01*
X42754039Y-110118928D01*
X42785441Y-110175295D01*
X42823557Y-110243535D01*
X42867164Y-110321460D01*
X42915037Y-110406878D01*
X42965952Y-110497602D01*
X43018685Y-110591440D01*
X43022175Y-110597646D01*
X43282568Y-111060667D01*
X43717432Y-111060667D01*
X43977825Y-110597646D01*
X44030634Y-110503679D01*
X44081706Y-110412685D01*
X44129816Y-110326851D01*
X44173740Y-110248369D01*
X44212254Y-110179427D01*
X44244133Y-110122215D01*
X44268153Y-110078922D01*
X44283089Y-110051739D01*
X44283722Y-110050573D01*
X44309171Y-110006695D01*
X44336341Y-109964821D01*
X44360320Y-109932409D01*
X44365635Y-109926219D01*
X44402046Y-109885917D01*
X44588252Y-109885917D01*
X44619671Y-109928639D01*
X44630485Y-109946772D01*
X44649174Y-109982005D01*
X44674702Y-110032235D01*
X44706035Y-110095363D01*
X44742139Y-110169286D01*
X44781979Y-110251903D01*
X44824521Y-110341113D01*
X44865860Y-110428702D01*
X44939077Y-110584583D01*
X45004269Y-110723210D01*
X45062409Y-110846488D01*
X45114472Y-110956324D01*
X45161430Y-111054623D01*
X45204256Y-111143289D01*
X45243923Y-111224229D01*
X45281404Y-111299347D01*
X45317673Y-111370550D01*
X45353702Y-111439742D01*
X45390465Y-111508830D01*
X45428934Y-111579718D01*
X45470083Y-111654313D01*
X45514884Y-111734518D01*
X45564312Y-111822241D01*
X45619338Y-111919386D01*
X45680936Y-112027859D01*
X45696641Y-112055500D01*
X46066458Y-112706375D01*
X46069988Y-112824352D01*
X46071068Y-112879398D01*
X46069906Y-112919998D01*
X46065687Y-112952826D01*
X46057598Y-112984555D01*
X46046433Y-113017415D01*
X46000529Y-113126189D01*
X45943644Y-113225673D01*
X45872274Y-113321427D01*
X45813016Y-113387952D01*
X45796807Y-113402980D01*
X45765108Y-113430335D01*
X45718981Y-113469151D01*
X45659488Y-113518563D01*
X45587690Y-113577704D01*
X45504650Y-113645708D01*
X45411430Y-113721711D01*
X45309092Y-113804845D01*
X45198698Y-113894246D01*
X45081309Y-113989046D01*
X44957989Y-114088382D01*
X44829799Y-114191386D01*
X44697801Y-114297193D01*
X44693340Y-114300764D01*
X43637722Y-115145833D01*
X43497423Y-115145044D01*
X43357125Y-115144255D01*
X42316371Y-114310315D01*
X42185376Y-114205272D01*
X42058222Y-114103155D01*
X41935970Y-114004826D01*
X41819684Y-113911144D01*
X41710424Y-113822971D01*
X41609252Y-113741166D01*
X41517231Y-113666590D01*
X41435422Y-113600104D01*
X41364888Y-113542568D01*
X41306689Y-113494844D01*
X41261889Y-113457791D01*
X41231549Y-113432270D01*
X41217055Y-113419458D01*
X41173600Y-113373535D01*
X41126863Y-113318039D01*
X41081243Y-113258743D01*
X41041140Y-113201417D01*
X41010956Y-113151835D01*
X41006372Y-113143111D01*
X40989128Y-113105975D01*
X40969621Y-113059369D01*
X40953475Y-113017161D01*
X40941277Y-112980857D01*
X40933665Y-112949349D01*
X40929829Y-112915969D01*
X40928958Y-112874052D01*
X40929332Y-112856399D01*
X41081930Y-112856399D01*
X41093404Y-112901650D01*
X41115794Y-112956425D01*
X41147365Y-113017723D01*
X41186383Y-113082544D01*
X41231111Y-113147886D01*
X41279816Y-113210749D01*
X41330762Y-113268131D01*
X41352934Y-113290380D01*
X41367610Y-113303272D01*
X41396416Y-113327443D01*
X41437658Y-113361528D01*
X41489642Y-113404160D01*
X41550675Y-113453974D01*
X41619063Y-113509603D01*
X41693112Y-113569681D01*
X41771128Y-113632842D01*
X41851418Y-113697720D01*
X41932289Y-113762949D01*
X42012045Y-113827163D01*
X42088995Y-113888996D01*
X42161443Y-113947081D01*
X42227696Y-114000054D01*
X42286061Y-114046546D01*
X42334844Y-114085193D01*
X42372351Y-114114629D01*
X42396889Y-114133486D01*
X42406763Y-114140400D01*
X42406824Y-114140409D01*
X42404406Y-114131015D01*
X42396249Y-114105247D01*
X42383536Y-114066730D01*
X42367453Y-114019094D01*
X42362355Y-114004171D01*
X42294510Y-113821984D01*
X42213700Y-113632040D01*
X42122511Y-113439371D01*
X42023527Y-113249012D01*
X41919334Y-113065995D01*
X41812518Y-112895356D01*
X41734346Y-112781462D01*
X41692445Y-112726903D01*
X41642045Y-112667398D01*
X41586856Y-112606799D01*
X41530589Y-112548958D01*
X41476952Y-112497729D01*
X41429656Y-112456964D01*
X41402518Y-112436858D01*
X41370110Y-112415962D01*
X41344381Y-112400747D01*
X41330457Y-112394225D01*
X41329916Y-112394167D01*
X41322635Y-112402913D01*
X41306940Y-112427064D01*
X41284634Y-112463484D01*
X41257518Y-112509037D01*
X41227395Y-112560588D01*
X41196064Y-112615003D01*
X41165329Y-112669146D01*
X41136990Y-112719881D01*
X41112849Y-112764075D01*
X41094708Y-112798591D01*
X41084367Y-112820295D01*
X41083108Y-112823674D01*
X41081930Y-112856399D01*
X40929332Y-112856399D01*
X40930012Y-112824352D01*
X40933542Y-112706375D01*
X41204453Y-112229573D01*
X41418055Y-112229573D01*
X41425732Y-112239257D01*
X41448100Y-112254089D01*
X41480378Y-112270916D01*
X41481555Y-112271468D01*
X41510990Y-112287084D01*
X41541240Y-112307561D01*
X41575465Y-112335517D01*
X41616826Y-112373571D01*
X41668483Y-112424339D01*
X41679667Y-112435582D01*
X41776478Y-112540020D01*
X41869592Y-112654886D01*
X41960481Y-112782349D01*
X42050615Y-112924580D01*
X42141467Y-113083748D01*
X42217804Y-113228958D01*
X42303159Y-113401904D01*
X42376437Y-113561877D01*
X42438974Y-113712277D01*
X42492104Y-113856507D01*
X42537165Y-113997967D01*
X42575273Y-114139175D01*
X42589089Y-114194181D01*
X42601604Y-114242257D01*
X42611761Y-114279466D01*
X42618499Y-114301870D01*
X42620173Y-114306148D01*
X42630102Y-114316129D01*
X42654115Y-114337159D01*
X42689709Y-114367138D01*
X42734379Y-114403968D01*
X42785622Y-114445551D01*
X42806792Y-114462558D01*
X42870916Y-114513358D01*
X42920740Y-114551430D01*
X42957939Y-114577928D01*
X42984191Y-114594004D01*
X43001173Y-114600812D01*
X43007875Y-114600860D01*
X43028840Y-114595196D01*
X43062589Y-114586194D01*
X43097833Y-114576855D01*
X43120326Y-114571649D01*
X43145749Y-114567525D01*
X43176709Y-114564369D01*
X43215813Y-114562067D01*
X43265667Y-114560506D01*
X43328877Y-114559573D01*
X43408052Y-114559155D01*
X43505292Y-114559137D01*
X43600183Y-114559348D01*
X43676657Y-114559802D01*
X43737465Y-114560654D01*
X43785357Y-114562057D01*
X43823081Y-114564165D01*
X43853390Y-114567134D01*
X43879031Y-114571116D01*
X43902756Y-114576267D01*
X43927315Y-114582740D01*
X43927571Y-114582811D01*
X43969691Y-114593081D01*
X44002592Y-114598358D01*
X44021299Y-114597896D01*
X44022821Y-114597110D01*
X44060294Y-114567994D01*
X44104835Y-114532772D01*
X44153630Y-114493740D01*
X44203859Y-114453197D01*
X44252708Y-114413438D01*
X44297358Y-114376759D01*
X44334993Y-114345459D01*
X44362796Y-114321832D01*
X44377950Y-114308177D01*
X44379827Y-114306043D01*
X44384611Y-114291916D01*
X44393306Y-114261147D01*
X44404853Y-114217671D01*
X44418194Y-114165421D01*
X44424727Y-114139175D01*
X44426431Y-114132864D01*
X44601986Y-114132864D01*
X44603317Y-114132702D01*
X44613751Y-114124405D01*
X44639244Y-114104059D01*
X44678327Y-114072837D01*
X44729532Y-114031915D01*
X44791391Y-113982465D01*
X44862433Y-113925662D01*
X44941191Y-113862680D01*
X45026196Y-113794694D01*
X45115979Y-113722876D01*
X45119250Y-113720259D01*
X45232870Y-113629221D01*
X45331212Y-113550022D01*
X45415654Y-113481440D01*
X45487569Y-113422246D01*
X45548333Y-113371216D01*
X45599322Y-113327124D01*
X45641910Y-113288745D01*
X45677474Y-113254853D01*
X45707389Y-113224221D01*
X45733029Y-113195626D01*
X45755770Y-113167840D01*
X45776988Y-113139638D01*
X45787866Y-113124417D01*
X45826905Y-113064520D01*
X45860982Y-113003627D01*
X45888539Y-112945366D01*
X45908022Y-112893362D01*
X45917874Y-112851242D01*
X45916892Y-112823674D01*
X45909083Y-112806159D01*
X45892964Y-112774946D01*
X45870336Y-112733169D01*
X45843000Y-112683965D01*
X45812760Y-112630467D01*
X45781415Y-112575811D01*
X45750767Y-112523133D01*
X45722619Y-112475567D01*
X45698771Y-112436249D01*
X45681026Y-112408313D01*
X45671184Y-112394895D01*
X45670083Y-112394167D01*
X45657603Y-112399666D01*
X45632813Y-112414157D01*
X45600836Y-112434625D01*
X45597481Y-112436858D01*
X45556766Y-112468097D01*
X45507135Y-112512474D01*
X45452300Y-112566135D01*
X45395969Y-112625228D01*
X45341852Y-112685902D01*
X45293658Y-112744303D01*
X45265653Y-112781462D01*
X45158096Y-112940582D01*
X45051350Y-113115768D01*
X44947996Y-113301993D01*
X44850614Y-113494230D01*
X44761787Y-113687453D01*
X44684094Y-113876634D01*
X44637202Y-114005464D01*
X44621175Y-114054151D01*
X44609388Y-114093774D01*
X44602704Y-114121092D01*
X44601986Y-114132864D01*
X44426431Y-114132864D01*
X44463090Y-113997098D01*
X44508196Y-113855632D01*
X44561381Y-113711374D01*
X44623979Y-113560925D01*
X44697327Y-113400883D01*
X44782196Y-113228958D01*
X44874742Y-113054226D01*
X44965359Y-112898216D01*
X45055520Y-112758759D01*
X45146696Y-112633685D01*
X45240357Y-112520824D01*
X45320333Y-112435582D01*
X45374292Y-112382115D01*
X45417357Y-112341858D01*
X45452690Y-112312194D01*
X45483449Y-112290503D01*
X45512795Y-112274169D01*
X45518444Y-112271468D01*
X45550968Y-112254629D01*
X45573738Y-112239680D01*
X45581975Y-112229777D01*
X45581944Y-112229573D01*
X45576363Y-112218166D01*
X45561452Y-112190436D01*
X45538361Y-112148453D01*
X45508243Y-112094285D01*
X45472246Y-112029999D01*
X45431523Y-111957663D01*
X45387223Y-111879346D01*
X45378774Y-111864448D01*
X45326831Y-111772187D01*
X45278780Y-111685150D01*
X45233036Y-111600230D01*
X45188010Y-111514317D01*
X45142115Y-111424304D01*
X45093766Y-111327083D01*
X45041375Y-111219545D01*
X44983355Y-111098583D01*
X44925168Y-110976000D01*
X44876291Y-110872556D01*
X44828680Y-110771619D01*
X44783379Y-110675412D01*
X44741429Y-110586154D01*
X44703872Y-110506067D01*
X44671750Y-110437372D01*
X44646107Y-110382290D01*
X44627983Y-110343041D01*
X44622233Y-110330417D01*
X44597031Y-110275500D01*
X44569922Y-110217866D01*
X44544907Y-110165963D01*
X44532322Y-110140601D01*
X44492592Y-110061910D01*
X44473032Y-110087684D01*
X44461697Y-110105586D01*
X44442877Y-110138584D01*
X44418655Y-110182892D01*
X44391110Y-110234724D01*
X44371609Y-110272208D01*
X44343760Y-110325649D01*
X44318604Y-110372868D01*
X44297994Y-110410471D01*
X44283779Y-110435066D01*
X44278519Y-110442841D01*
X44271083Y-110454369D01*
X44254477Y-110482393D01*
X44229840Y-110524922D01*
X44198309Y-110579966D01*
X44161023Y-110645533D01*
X44119119Y-110719633D01*
X44073737Y-110800275D01*
X44050333Y-110842004D01*
X43833375Y-111229285D01*
X43773037Y-111229642D01*
X43726263Y-111226844D01*
X43675167Y-111219326D01*
X43651751Y-111214125D01*
X43591194Y-111203598D01*
X43519323Y-111199058D01*
X43445128Y-111200503D01*
X43377598Y-111207934D01*
X43348249Y-111214125D01*
X43301234Y-111223326D01*
X43250212Y-111228873D01*
X43226963Y-111229642D01*
X43166625Y-111229285D01*
X42949667Y-110842004D01*
X42902983Y-110758861D01*
X42859214Y-110681273D01*
X42819500Y-110611233D01*
X42784978Y-110550731D01*
X42756786Y-110501757D01*
X42736062Y-110466304D01*
X42723944Y-110446361D01*
X42721481Y-110442841D01*
X42713073Y-110429824D01*
X42696925Y-110401333D01*
X42674886Y-110360762D01*
X42648810Y-110311503D01*
X42628390Y-110272208D01*
X42599777Y-110217429D01*
X42573075Y-110167608D01*
X42550367Y-110126531D01*
X42533732Y-110097985D01*
X42526968Y-110087684D01*
X42507408Y-110061910D01*
X42467678Y-110140601D01*
X42445928Y-110184806D01*
X42419628Y-110239926D01*
X42392782Y-110297511D01*
X42377767Y-110330417D01*
X42363647Y-110361225D01*
X42341504Y-110408939D01*
X42312380Y-110471339D01*
X42277318Y-110546203D01*
X42237359Y-110631310D01*
X42193545Y-110724439D01*
X42146919Y-110823369D01*
X42098524Y-110925880D01*
X42074831Y-110976000D01*
X42010407Y-111111661D01*
X41953035Y-111231108D01*
X41901130Y-111337447D01*
X41853105Y-111433789D01*
X41807372Y-111523240D01*
X41762345Y-111608908D01*
X41716437Y-111693903D01*
X41668062Y-111781331D01*
X41621226Y-111864448D01*
X41576394Y-111943641D01*
X41534926Y-112017232D01*
X41497973Y-112083154D01*
X41466687Y-112139340D01*
X41442217Y-112183720D01*
X41425714Y-112214227D01*
X41418330Y-112228794D01*
X41418055Y-112229573D01*
X41204453Y-112229573D01*
X41303359Y-112055500D01*
X41366661Y-111944056D01*
X41423160Y-111844393D01*
X41473830Y-111754604D01*
X41519642Y-111672786D01*
X41561570Y-111597031D01*
X41600588Y-111525435D01*
X41637668Y-111456092D01*
X41673783Y-111387097D01*
X41709907Y-111316544D01*
X41747012Y-111242528D01*
X41786072Y-111163144D01*
X41828059Y-111076486D01*
X41873947Y-110980648D01*
X41924709Y-110873725D01*
X41981318Y-110753812D01*
X42044747Y-110619004D01*
X42115969Y-110467394D01*
X42134139Y-110428702D01*
X42178272Y-110335225D01*
X42220672Y-110246375D01*
X42260303Y-110164253D01*
X42296132Y-110090960D01*
X42327123Y-110028598D01*
X42352243Y-109979268D01*
X42370457Y-109945071D01*
X42380329Y-109928639D01*
X42411748Y-109885917D01*
X42597953Y-109885917D01*
X42634364Y-109926219D01*
G37*
X42634364Y-109926219D02*
X42656629Y-109954776D01*
X42683419Y-109994820D01*
X42709821Y-110038891D01*
X42716278Y-110050573D01*
X42730577Y-110076624D01*
X42754039Y-110118928D01*
X42785441Y-110175295D01*
X42823557Y-110243535D01*
X42867164Y-110321460D01*
X42915037Y-110406878D01*
X42965952Y-110497602D01*
X43018685Y-110591440D01*
X43022175Y-110597646D01*
X43282568Y-111060667D01*
X43717432Y-111060667D01*
X43977825Y-110597646D01*
X44030634Y-110503679D01*
X44081706Y-110412685D01*
X44129816Y-110326851D01*
X44173740Y-110248369D01*
X44212254Y-110179427D01*
X44244133Y-110122215D01*
X44268153Y-110078922D01*
X44283089Y-110051739D01*
X44283722Y-110050573D01*
X44309171Y-110006695D01*
X44336341Y-109964821D01*
X44360320Y-109932409D01*
X44365635Y-109926219D01*
X44402046Y-109885917D01*
X44588252Y-109885917D01*
X44619671Y-109928639D01*
X44630485Y-109946772D01*
X44649174Y-109982005D01*
X44674702Y-110032235D01*
X44706035Y-110095363D01*
X44742139Y-110169286D01*
X44781979Y-110251903D01*
X44824521Y-110341113D01*
X44865860Y-110428702D01*
X44939077Y-110584583D01*
X45004269Y-110723210D01*
X45062409Y-110846488D01*
X45114472Y-110956324D01*
X45161430Y-111054623D01*
X45204256Y-111143289D01*
X45243923Y-111224229D01*
X45281404Y-111299347D01*
X45317673Y-111370550D01*
X45353702Y-111439742D01*
X45390465Y-111508830D01*
X45428934Y-111579718D01*
X45470083Y-111654313D01*
X45514884Y-111734518D01*
X45564312Y-111822241D01*
X45619338Y-111919386D01*
X45680936Y-112027859D01*
X45696641Y-112055500D01*
X46066458Y-112706375D01*
X46069988Y-112824352D01*
X46071068Y-112879398D01*
X46069906Y-112919998D01*
X46065687Y-112952826D01*
X46057598Y-112984555D01*
X46046433Y-113017415D01*
X46000529Y-113126189D01*
X45943644Y-113225673D01*
X45872274Y-113321427D01*
X45813016Y-113387952D01*
X45796807Y-113402980D01*
X45765108Y-113430335D01*
X45718981Y-113469151D01*
X45659488Y-113518563D01*
X45587690Y-113577704D01*
X45504650Y-113645708D01*
X45411430Y-113721711D01*
X45309092Y-113804845D01*
X45198698Y-113894246D01*
X45081309Y-113989046D01*
X44957989Y-114088382D01*
X44829799Y-114191386D01*
X44697801Y-114297193D01*
X44693340Y-114300764D01*
X43637722Y-115145833D01*
X43497423Y-115145044D01*
X43357125Y-115144255D01*
X42316371Y-114310315D01*
X42185376Y-114205272D01*
X42058222Y-114103155D01*
X41935970Y-114004826D01*
X41819684Y-113911144D01*
X41710424Y-113822971D01*
X41609252Y-113741166D01*
X41517231Y-113666590D01*
X41435422Y-113600104D01*
X41364888Y-113542568D01*
X41306689Y-113494844D01*
X41261889Y-113457791D01*
X41231549Y-113432270D01*
X41217055Y-113419458D01*
X41173600Y-113373535D01*
X41126863Y-113318039D01*
X41081243Y-113258743D01*
X41041140Y-113201417D01*
X41010956Y-113151835D01*
X41006372Y-113143111D01*
X40989128Y-113105975D01*
X40969621Y-113059369D01*
X40953475Y-113017161D01*
X40941277Y-112980857D01*
X40933665Y-112949349D01*
X40929829Y-112915969D01*
X40928958Y-112874052D01*
X40929332Y-112856399D01*
X41081930Y-112856399D01*
X41093404Y-112901650D01*
X41115794Y-112956425D01*
X41147365Y-113017723D01*
X41186383Y-113082544D01*
X41231111Y-113147886D01*
X41279816Y-113210749D01*
X41330762Y-113268131D01*
X41352934Y-113290380D01*
X41367610Y-113303272D01*
X41396416Y-113327443D01*
X41437658Y-113361528D01*
X41489642Y-113404160D01*
X41550675Y-113453974D01*
X41619063Y-113509603D01*
X41693112Y-113569681D01*
X41771128Y-113632842D01*
X41851418Y-113697720D01*
X41932289Y-113762949D01*
X42012045Y-113827163D01*
X42088995Y-113888996D01*
X42161443Y-113947081D01*
X42227696Y-114000054D01*
X42286061Y-114046546D01*
X42334844Y-114085193D01*
X42372351Y-114114629D01*
X42396889Y-114133486D01*
X42406763Y-114140400D01*
X42406824Y-114140409D01*
X42404406Y-114131015D01*
X42396249Y-114105247D01*
X42383536Y-114066730D01*
X42367453Y-114019094D01*
X42362355Y-114004171D01*
X42294510Y-113821984D01*
X42213700Y-113632040D01*
X42122511Y-113439371D01*
X42023527Y-113249012D01*
X41919334Y-113065995D01*
X41812518Y-112895356D01*
X41734346Y-112781462D01*
X41692445Y-112726903D01*
X41642045Y-112667398D01*
X41586856Y-112606799D01*
X41530589Y-112548958D01*
X41476952Y-112497729D01*
X41429656Y-112456964D01*
X41402518Y-112436858D01*
X41370110Y-112415962D01*
X41344381Y-112400747D01*
X41330457Y-112394225D01*
X41329916Y-112394167D01*
X41322635Y-112402913D01*
X41306940Y-112427064D01*
X41284634Y-112463484D01*
X41257518Y-112509037D01*
X41227395Y-112560588D01*
X41196064Y-112615003D01*
X41165329Y-112669146D01*
X41136990Y-112719881D01*
X41112849Y-112764075D01*
X41094708Y-112798591D01*
X41084367Y-112820295D01*
X41083108Y-112823674D01*
X41081930Y-112856399D01*
X40929332Y-112856399D01*
X40930012Y-112824352D01*
X40933542Y-112706375D01*
X41204453Y-112229573D01*
X41418055Y-112229573D01*
X41425732Y-112239257D01*
X41448100Y-112254089D01*
X41480378Y-112270916D01*
X41481555Y-112271468D01*
X41510990Y-112287084D01*
X41541240Y-112307561D01*
X41575465Y-112335517D01*
X41616826Y-112373571D01*
X41668483Y-112424339D01*
X41679667Y-112435582D01*
X41776478Y-112540020D01*
X41869592Y-112654886D01*
X41960481Y-112782349D01*
X42050615Y-112924580D01*
X42141467Y-113083748D01*
X42217804Y-113228958D01*
X42303159Y-113401904D01*
X42376437Y-113561877D01*
X42438974Y-113712277D01*
X42492104Y-113856507D01*
X42537165Y-113997967D01*
X42575273Y-114139175D01*
X42589089Y-114194181D01*
X42601604Y-114242257D01*
X42611761Y-114279466D01*
X42618499Y-114301870D01*
X42620173Y-114306148D01*
X42630102Y-114316129D01*
X42654115Y-114337159D01*
X42689709Y-114367138D01*
X42734379Y-114403968D01*
X42785622Y-114445551D01*
X42806792Y-114462558D01*
X42870916Y-114513358D01*
X42920740Y-114551430D01*
X42957939Y-114577928D01*
X42984191Y-114594004D01*
X43001173Y-114600812D01*
X43007875Y-114600860D01*
X43028840Y-114595196D01*
X43062589Y-114586194D01*
X43097833Y-114576855D01*
X43120326Y-114571649D01*
X43145749Y-114567525D01*
X43176709Y-114564369D01*
X43215813Y-114562067D01*
X43265667Y-114560506D01*
X43328877Y-114559573D01*
X43408052Y-114559155D01*
X43505292Y-114559137D01*
X43600183Y-114559348D01*
X43676657Y-114559802D01*
X43737465Y-114560654D01*
X43785357Y-114562057D01*
X43823081Y-114564165D01*
X43853390Y-114567134D01*
X43879031Y-114571116D01*
X43902756Y-114576267D01*
X43927315Y-114582740D01*
X43927571Y-114582811D01*
X43969691Y-114593081D01*
X44002592Y-114598358D01*
X44021299Y-114597896D01*
X44022821Y-114597110D01*
X44060294Y-114567994D01*
X44104835Y-114532772D01*
X44153630Y-114493740D01*
X44203859Y-114453197D01*
X44252708Y-114413438D01*
X44297358Y-114376759D01*
X44334993Y-114345459D01*
X44362796Y-114321832D01*
X44377950Y-114308177D01*
X44379827Y-114306043D01*
X44384611Y-114291916D01*
X44393306Y-114261147D01*
X44404853Y-114217671D01*
X44418194Y-114165421D01*
X44424727Y-114139175D01*
X44426431Y-114132864D01*
X44601986Y-114132864D01*
X44603317Y-114132702D01*
X44613751Y-114124405D01*
X44639244Y-114104059D01*
X44678327Y-114072837D01*
X44729532Y-114031915D01*
X44791391Y-113982465D01*
X44862433Y-113925662D01*
X44941191Y-113862680D01*
X45026196Y-113794694D01*
X45115979Y-113722876D01*
X45119250Y-113720259D01*
X45232870Y-113629221D01*
X45331212Y-113550022D01*
X45415654Y-113481440D01*
X45487569Y-113422246D01*
X45548333Y-113371216D01*
X45599322Y-113327124D01*
X45641910Y-113288745D01*
X45677474Y-113254853D01*
X45707389Y-113224221D01*
X45733029Y-113195626D01*
X45755770Y-113167840D01*
X45776988Y-113139638D01*
X45787866Y-113124417D01*
X45826905Y-113064520D01*
X45860982Y-113003627D01*
X45888539Y-112945366D01*
X45908022Y-112893362D01*
X45917874Y-112851242D01*
X45916892Y-112823674D01*
X45909083Y-112806159D01*
X45892964Y-112774946D01*
X45870336Y-112733169D01*
X45843000Y-112683965D01*
X45812760Y-112630467D01*
X45781415Y-112575811D01*
X45750767Y-112523133D01*
X45722619Y-112475567D01*
X45698771Y-112436249D01*
X45681026Y-112408313D01*
X45671184Y-112394895D01*
X45670083Y-112394167D01*
X45657603Y-112399666D01*
X45632813Y-112414157D01*
X45600836Y-112434625D01*
X45597481Y-112436858D01*
X45556766Y-112468097D01*
X45507135Y-112512474D01*
X45452300Y-112566135D01*
X45395969Y-112625228D01*
X45341852Y-112685902D01*
X45293658Y-112744303D01*
X45265653Y-112781462D01*
X45158096Y-112940582D01*
X45051350Y-113115768D01*
X44947996Y-113301993D01*
X44850614Y-113494230D01*
X44761787Y-113687453D01*
X44684094Y-113876634D01*
X44637202Y-114005464D01*
X44621175Y-114054151D01*
X44609388Y-114093774D01*
X44602704Y-114121092D01*
X44601986Y-114132864D01*
X44426431Y-114132864D01*
X44463090Y-113997098D01*
X44508196Y-113855632D01*
X44561381Y-113711374D01*
X44623979Y-113560925D01*
X44697327Y-113400883D01*
X44782196Y-113228958D01*
X44874742Y-113054226D01*
X44965359Y-112898216D01*
X45055520Y-112758759D01*
X45146696Y-112633685D01*
X45240357Y-112520824D01*
X45320333Y-112435582D01*
X45374292Y-112382115D01*
X45417357Y-112341858D01*
X45452690Y-112312194D01*
X45483449Y-112290503D01*
X45512795Y-112274169D01*
X45518444Y-112271468D01*
X45550968Y-112254629D01*
X45573738Y-112239680D01*
X45581975Y-112229777D01*
X45581944Y-112229573D01*
X45576363Y-112218166D01*
X45561452Y-112190436D01*
X45538361Y-112148453D01*
X45508243Y-112094285D01*
X45472246Y-112029999D01*
X45431523Y-111957663D01*
X45387223Y-111879346D01*
X45378774Y-111864448D01*
X45326831Y-111772187D01*
X45278780Y-111685150D01*
X45233036Y-111600230D01*
X45188010Y-111514317D01*
X45142115Y-111424304D01*
X45093766Y-111327083D01*
X45041375Y-111219545D01*
X44983355Y-111098583D01*
X44925168Y-110976000D01*
X44876291Y-110872556D01*
X44828680Y-110771619D01*
X44783379Y-110675412D01*
X44741429Y-110586154D01*
X44703872Y-110506067D01*
X44671750Y-110437372D01*
X44646107Y-110382290D01*
X44627983Y-110343041D01*
X44622233Y-110330417D01*
X44597031Y-110275500D01*
X44569922Y-110217866D01*
X44544907Y-110165963D01*
X44532322Y-110140601D01*
X44492592Y-110061910D01*
X44473032Y-110087684D01*
X44461697Y-110105586D01*
X44442877Y-110138584D01*
X44418655Y-110182892D01*
X44391110Y-110234724D01*
X44371609Y-110272208D01*
X44343760Y-110325649D01*
X44318604Y-110372868D01*
X44297994Y-110410471D01*
X44283779Y-110435066D01*
X44278519Y-110442841D01*
X44271083Y-110454369D01*
X44254477Y-110482393D01*
X44229840Y-110524922D01*
X44198309Y-110579966D01*
X44161023Y-110645533D01*
X44119119Y-110719633D01*
X44073737Y-110800275D01*
X44050333Y-110842004D01*
X43833375Y-111229285D01*
X43773037Y-111229642D01*
X43726263Y-111226844D01*
X43675167Y-111219326D01*
X43651751Y-111214125D01*
X43591194Y-111203598D01*
X43519323Y-111199058D01*
X43445128Y-111200503D01*
X43377598Y-111207934D01*
X43348249Y-111214125D01*
X43301234Y-111223326D01*
X43250212Y-111228873D01*
X43226963Y-111229642D01*
X43166625Y-111229285D01*
X42949667Y-110842004D01*
X42902983Y-110758861D01*
X42859214Y-110681273D01*
X42819500Y-110611233D01*
X42784978Y-110550731D01*
X42756786Y-110501757D01*
X42736062Y-110466304D01*
X42723944Y-110446361D01*
X42721481Y-110442841D01*
X42713073Y-110429824D01*
X42696925Y-110401333D01*
X42674886Y-110360762D01*
X42648810Y-110311503D01*
X42628390Y-110272208D01*
X42599777Y-110217429D01*
X42573075Y-110167608D01*
X42550367Y-110126531D01*
X42533732Y-110097985D01*
X42526968Y-110087684D01*
X42507408Y-110061910D01*
X42467678Y-110140601D01*
X42445928Y-110184806D01*
X42419628Y-110239926D01*
X42392782Y-110297511D01*
X42377767Y-110330417D01*
X42363647Y-110361225D01*
X42341504Y-110408939D01*
X42312380Y-110471339D01*
X42277318Y-110546203D01*
X42237359Y-110631310D01*
X42193545Y-110724439D01*
X42146919Y-110823369D01*
X42098524Y-110925880D01*
X42074831Y-110976000D01*
X42010407Y-111111661D01*
X41953035Y-111231108D01*
X41901130Y-111337447D01*
X41853105Y-111433789D01*
X41807372Y-111523240D01*
X41762345Y-111608908D01*
X41716437Y-111693903D01*
X41668062Y-111781331D01*
X41621226Y-111864448D01*
X41576394Y-111943641D01*
X41534926Y-112017232D01*
X41497973Y-112083154D01*
X41466687Y-112139340D01*
X41442217Y-112183720D01*
X41425714Y-112214227D01*
X41418330Y-112228794D01*
X41418055Y-112229573D01*
X41204453Y-112229573D01*
X41303359Y-112055500D01*
X41366661Y-111944056D01*
X41423160Y-111844393D01*
X41473830Y-111754604D01*
X41519642Y-111672786D01*
X41561570Y-111597031D01*
X41600588Y-111525435D01*
X41637668Y-111456092D01*
X41673783Y-111387097D01*
X41709907Y-111316544D01*
X41747012Y-111242528D01*
X41786072Y-111163144D01*
X41828059Y-111076486D01*
X41873947Y-110980648D01*
X41924709Y-110873725D01*
X41981318Y-110753812D01*
X42044747Y-110619004D01*
X42115969Y-110467394D01*
X42134139Y-110428702D01*
X42178272Y-110335225D01*
X42220672Y-110246375D01*
X42260303Y-110164253D01*
X42296132Y-110090960D01*
X42327123Y-110028598D01*
X42352243Y-109979268D01*
X42370457Y-109945071D01*
X42380329Y-109928639D01*
X42411748Y-109885917D01*
X42597953Y-109885917D01*
X42634364Y-109926219D01*
D12*
%TO.C,J4*%
X83790000Y-111290000D02*
X83790000Y-102170000D01*
X83790000Y-102170000D02*
X104370000Y-102170000D01*
X104370000Y-102170000D02*
X104370000Y-111290000D01*
X104370000Y-111290000D02*
X83790000Y-111290000D01*
X92030000Y-111290000D02*
X92030000Y-109980000D01*
X92030000Y-109980000D02*
X85090000Y-109980000D01*
X85090000Y-109980000D02*
X85090000Y-103480000D01*
X85090000Y-103480000D02*
X103070000Y-103480000D01*
X103070000Y-103480000D02*
X103070000Y-109980000D01*
X103070000Y-109980000D02*
X96130000Y-109980000D01*
X96130000Y-109980000D02*
X96130000Y-109980000D01*
X96130000Y-109980000D02*
X96130000Y-111290000D01*
X89000000Y-111680000D02*
X88500000Y-112680000D01*
X88500000Y-112680000D02*
X89500000Y-112680000D01*
X89500000Y-112680000D02*
X89000000Y-111680000D01*
%TO.C,J3*%
X83790000Y-96290000D02*
X83790000Y-87170000D01*
X83790000Y-87170000D02*
X104370000Y-87170000D01*
X104370000Y-87170000D02*
X104370000Y-96290000D01*
X104370000Y-96290000D02*
X83790000Y-96290000D01*
X92030000Y-96290000D02*
X92030000Y-94980000D01*
X92030000Y-94980000D02*
X85090000Y-94980000D01*
X85090000Y-94980000D02*
X85090000Y-88480000D01*
X85090000Y-88480000D02*
X103070000Y-88480000D01*
X103070000Y-88480000D02*
X103070000Y-94980000D01*
X103070000Y-94980000D02*
X96130000Y-94980000D01*
X96130000Y-94980000D02*
X96130000Y-94980000D01*
X96130000Y-94980000D02*
X96130000Y-96290000D01*
X89000000Y-96680000D02*
X88500000Y-97680000D01*
X88500000Y-97680000D02*
X89500000Y-97680000D01*
X89500000Y-97680000D02*
X89000000Y-96680000D01*
%TO.C,J2*%
X83790000Y-81290000D02*
X83790000Y-72170000D01*
X83790000Y-72170000D02*
X104370000Y-72170000D01*
X104370000Y-72170000D02*
X104370000Y-81290000D01*
X104370000Y-81290000D02*
X83790000Y-81290000D01*
X92030000Y-81290000D02*
X92030000Y-79980000D01*
X92030000Y-79980000D02*
X85090000Y-79980000D01*
X85090000Y-79980000D02*
X85090000Y-73480000D01*
X85090000Y-73480000D02*
X103070000Y-73480000D01*
X103070000Y-73480000D02*
X103070000Y-79980000D01*
X103070000Y-79980000D02*
X96130000Y-79980000D01*
X96130000Y-79980000D02*
X96130000Y-79980000D01*
X96130000Y-79980000D02*
X96130000Y-81290000D01*
X89000000Y-81680000D02*
X88500000Y-82680000D01*
X88500000Y-82680000D02*
X89500000Y-82680000D01*
X89500000Y-82680000D02*
X89000000Y-81680000D01*
%TO.C,J1*%
X83790000Y-66290000D02*
X83790000Y-57170000D01*
X83790000Y-57170000D02*
X104370000Y-57170000D01*
X104370000Y-57170000D02*
X104370000Y-66290000D01*
X104370000Y-66290000D02*
X83790000Y-66290000D01*
X92030000Y-66290000D02*
X92030000Y-64980000D01*
X92030000Y-64980000D02*
X85090000Y-64980000D01*
X85090000Y-64980000D02*
X85090000Y-58480000D01*
X85090000Y-58480000D02*
X103070000Y-58480000D01*
X103070000Y-58480000D02*
X103070000Y-64980000D01*
X103070000Y-64980000D02*
X96130000Y-64980000D01*
X96130000Y-64980000D02*
X96130000Y-64980000D01*
X96130000Y-64980000D02*
X96130000Y-66290000D01*
X89000000Y-66680000D02*
X88500000Y-67680000D01*
X88500000Y-67680000D02*
X89500000Y-67680000D01*
X89500000Y-67680000D02*
X89000000Y-66680000D01*
%TO.C,C4*%
X68353733Y-97490000D02*
X68646267Y-97490000D01*
X68353733Y-98510000D02*
X68646267Y-98510000D01*
%TO.C,C3*%
X68353733Y-81890000D02*
X68646267Y-81890000D01*
X68353733Y-82910000D02*
X68646267Y-82910000D01*
%TO.C,C2*%
X68353733Y-66290000D02*
X68646267Y-66290000D01*
X68353733Y-67310000D02*
X68646267Y-67310000D01*
%TO.C,C1*%
X68353733Y-50690000D02*
X68646267Y-50690000D01*
X68353733Y-51710000D02*
X68646267Y-51710000D01*
%TO.C,U1*%
X40000000Y-105210000D02*
X45560000Y-105210000D01*
X45560000Y-105210000D02*
X45560000Y-99690000D01*
X45560000Y-99690000D02*
X44560000Y-99690000D01*
X40000000Y-50790000D02*
X45560000Y-50790000D01*
X45560000Y-50790000D02*
X45560000Y-56310000D01*
X45560000Y-56310000D02*
X44560000Y-56310000D01*
X44560000Y-99690000D02*
X44560000Y-98145000D01*
X44560000Y-95955000D02*
X44560000Y-95379000D01*
X44560000Y-93640000D02*
X44560000Y-92839000D01*
X44560000Y-91100000D02*
X44560000Y-90299000D01*
X44560000Y-88560000D02*
X44560000Y-87759000D01*
X44560000Y-86020000D02*
X44560000Y-85219000D01*
X44560000Y-83480000D02*
X44560000Y-82679000D01*
X44560000Y-80940000D02*
X44560000Y-80139000D01*
X44560000Y-78400000D02*
X44560000Y-77599000D01*
X44560000Y-75860000D02*
X44560000Y-75059000D01*
X44560000Y-73320000D02*
X44560000Y-72519000D01*
X44560000Y-70780000D02*
X44560000Y-69979000D01*
X44560000Y-68240000D02*
X44560000Y-67439000D01*
X44560000Y-65700000D02*
X44560000Y-64899000D01*
X44560000Y-63160000D02*
X44560000Y-62359000D01*
X44560000Y-60620000D02*
X44560000Y-59819000D01*
X44560000Y-58080000D02*
X44560000Y-56310000D01*
X45300000Y-98145000D02*
X45000000Y-98745000D01*
X45000000Y-98745000D02*
X45600000Y-98745000D01*
X45600000Y-98745000D02*
X45300000Y-98145000D01*
%TO.C,J8*%
D11*
X74666666Y-82142380D02*
X74666666Y-82856666D01*
X74619047Y-82999523D01*
X74523809Y-83094761D01*
X74380952Y-83142380D01*
X74285714Y-83142380D01*
X75285714Y-82570952D02*
X75190476Y-82523333D01*
X75142857Y-82475714D01*
X75095238Y-82380476D01*
X75095238Y-82332857D01*
X75142857Y-82237619D01*
X75190476Y-82190000D01*
X75285714Y-82142380D01*
X75476190Y-82142380D01*
X75571428Y-82190000D01*
X75619047Y-82237619D01*
X75666666Y-82332857D01*
X75666666Y-82380476D01*
X75619047Y-82475714D01*
X75571428Y-82523333D01*
X75476190Y-82570952D01*
X75285714Y-82570952D01*
X75190476Y-82618571D01*
X75142857Y-82666190D01*
X75095238Y-82761428D01*
X75095238Y-82951904D01*
X75142857Y-83047142D01*
X75190476Y-83094761D01*
X75285714Y-83142380D01*
X75476190Y-83142380D01*
X75571428Y-83094761D01*
X75619047Y-83047142D01*
X75666666Y-82951904D01*
X75666666Y-82761428D01*
X75619047Y-82666190D01*
X75571428Y-82618571D01*
X75476190Y-82570952D01*
%TO.C,J7*%
X74666666Y-49122380D02*
X74666666Y-49836666D01*
X74619047Y-49979523D01*
X74523809Y-50074761D01*
X74380952Y-50122380D01*
X74285714Y-50122380D01*
X75047619Y-49122380D02*
X75714285Y-49122380D01*
X75285714Y-50122380D01*
%TO.C,R8*%
X219873333Y-101452380D02*
X219540000Y-100976190D01*
X219301904Y-101452380D02*
X219301904Y-100452380D01*
X219682857Y-100452380D01*
X219778095Y-100500000D01*
X219825714Y-100547619D01*
X219873333Y-100642857D01*
X219873333Y-100785714D01*
X219825714Y-100880952D01*
X219778095Y-100928571D01*
X219682857Y-100976190D01*
X219301904Y-100976190D01*
X220444761Y-100880952D02*
X220349523Y-100833333D01*
X220301904Y-100785714D01*
X220254285Y-100690476D01*
X220254285Y-100642857D01*
X220301904Y-100547619D01*
X220349523Y-100500000D01*
X220444761Y-100452380D01*
X220635238Y-100452380D01*
X220730476Y-100500000D01*
X220778095Y-100547619D01*
X220825714Y-100642857D01*
X220825714Y-100690476D01*
X220778095Y-100785714D01*
X220730476Y-100833333D01*
X220635238Y-100880952D01*
X220444761Y-100880952D01*
X220349523Y-100928571D01*
X220301904Y-100976190D01*
X220254285Y-101071428D01*
X220254285Y-101261904D01*
X220301904Y-101357142D01*
X220349523Y-101404761D01*
X220444761Y-101452380D01*
X220635238Y-101452380D01*
X220730476Y-101404761D01*
X220778095Y-101357142D01*
X220825714Y-101261904D01*
X220825714Y-101071428D01*
X220778095Y-100976190D01*
X220730476Y-100928571D01*
X220635238Y-100880952D01*
%TO.C,R7*%
X219873333Y-103952380D02*
X219540000Y-103476190D01*
X219301904Y-103952380D02*
X219301904Y-102952380D01*
X219682857Y-102952380D01*
X219778095Y-103000000D01*
X219825714Y-103047619D01*
X219873333Y-103142857D01*
X219873333Y-103285714D01*
X219825714Y-103380952D01*
X219778095Y-103428571D01*
X219682857Y-103476190D01*
X219301904Y-103476190D01*
X220206666Y-102952380D02*
X220873333Y-102952380D01*
X220444761Y-103952380D01*
%TO.C,R6*%
X219873333Y-55552380D02*
X219540000Y-55076190D01*
X219301904Y-55552380D02*
X219301904Y-54552380D01*
X219682857Y-54552380D01*
X219778095Y-54600000D01*
X219825714Y-54647619D01*
X219873333Y-54742857D01*
X219873333Y-54885714D01*
X219825714Y-54980952D01*
X219778095Y-55028571D01*
X219682857Y-55076190D01*
X219301904Y-55076190D01*
X220730476Y-54552380D02*
X220540000Y-54552380D01*
X220444761Y-54600000D01*
X220397142Y-54647619D01*
X220301904Y-54790476D01*
X220254285Y-54980952D01*
X220254285Y-55361904D01*
X220301904Y-55457142D01*
X220349523Y-55504761D01*
X220444761Y-55552380D01*
X220635238Y-55552380D01*
X220730476Y-55504761D01*
X220778095Y-55457142D01*
X220825714Y-55361904D01*
X220825714Y-55123809D01*
X220778095Y-55028571D01*
X220730476Y-54980952D01*
X220635238Y-54933333D01*
X220444761Y-54933333D01*
X220349523Y-54980952D01*
X220301904Y-55028571D01*
X220254285Y-55123809D01*
%TO.C,R5*%
X219873333Y-53052380D02*
X219540000Y-52576190D01*
X219301904Y-53052380D02*
X219301904Y-52052380D01*
X219682857Y-52052380D01*
X219778095Y-52100000D01*
X219825714Y-52147619D01*
X219873333Y-52242857D01*
X219873333Y-52385714D01*
X219825714Y-52480952D01*
X219778095Y-52528571D01*
X219682857Y-52576190D01*
X219301904Y-52576190D01*
X220778095Y-52052380D02*
X220301904Y-52052380D01*
X220254285Y-52528571D01*
X220301904Y-52480952D01*
X220397142Y-52433333D01*
X220635238Y-52433333D01*
X220730476Y-52480952D01*
X220778095Y-52528571D01*
X220825714Y-52623809D01*
X220825714Y-52861904D01*
X220778095Y-52957142D01*
X220730476Y-53004761D01*
X220635238Y-53052380D01*
X220397142Y-53052380D01*
X220301904Y-53004761D01*
X220254285Y-52957142D01*
%TO.C,R4*%
X219873333Y-106552380D02*
X219540000Y-106076190D01*
X219301904Y-106552380D02*
X219301904Y-105552380D01*
X219682857Y-105552380D01*
X219778095Y-105600000D01*
X219825714Y-105647619D01*
X219873333Y-105742857D01*
X219873333Y-105885714D01*
X219825714Y-105980952D01*
X219778095Y-106028571D01*
X219682857Y-106076190D01*
X219301904Y-106076190D01*
X220730476Y-105885714D02*
X220730476Y-106552380D01*
X220492380Y-105504761D02*
X220254285Y-106219047D01*
X220873333Y-106219047D01*
%TO.C,R3*%
X219873333Y-50552380D02*
X219540000Y-50076190D01*
X219301904Y-50552380D02*
X219301904Y-49552380D01*
X219682857Y-49552380D01*
X219778095Y-49600000D01*
X219825714Y-49647619D01*
X219873333Y-49742857D01*
X219873333Y-49885714D01*
X219825714Y-49980952D01*
X219778095Y-50028571D01*
X219682857Y-50076190D01*
X219301904Y-50076190D01*
X220206666Y-49552380D02*
X220825714Y-49552380D01*
X220492380Y-49933333D01*
X220635238Y-49933333D01*
X220730476Y-49980952D01*
X220778095Y-50028571D01*
X220825714Y-50123809D01*
X220825714Y-50361904D01*
X220778095Y-50457142D01*
X220730476Y-50504761D01*
X220635238Y-50552380D01*
X220349523Y-50552380D01*
X220254285Y-50504761D01*
X220206666Y-50457142D01*
%TO.C,R2*%
X219873333Y-109052380D02*
X219540000Y-108576190D01*
X219301904Y-109052380D02*
X219301904Y-108052380D01*
X219682857Y-108052380D01*
X219778095Y-108100000D01*
X219825714Y-108147619D01*
X219873333Y-108242857D01*
X219873333Y-108385714D01*
X219825714Y-108480952D01*
X219778095Y-108528571D01*
X219682857Y-108576190D01*
X219301904Y-108576190D01*
X220254285Y-108147619D02*
X220301904Y-108100000D01*
X220397142Y-108052380D01*
X220635238Y-108052380D01*
X220730476Y-108100000D01*
X220778095Y-108147619D01*
X220825714Y-108242857D01*
X220825714Y-108338095D01*
X220778095Y-108480952D01*
X220206666Y-109052380D01*
X220825714Y-109052380D01*
%TO.C,R1*%
X219873333Y-47952380D02*
X219540000Y-47476190D01*
X219301904Y-47952380D02*
X219301904Y-46952380D01*
X219682857Y-46952380D01*
X219778095Y-47000000D01*
X219825714Y-47047619D01*
X219873333Y-47142857D01*
X219873333Y-47285714D01*
X219825714Y-47380952D01*
X219778095Y-47428571D01*
X219682857Y-47476190D01*
X219301904Y-47476190D01*
X220825714Y-47952380D02*
X220254285Y-47952380D01*
X220540000Y-47952380D02*
X220540000Y-46952380D01*
X220444761Y-47095238D01*
X220349523Y-47190476D01*
X220254285Y-47238095D01*
%TO.C,D8*%
X221761904Y-101452380D02*
X221761904Y-100452380D01*
X222000000Y-100452380D01*
X222142857Y-100500000D01*
X222238095Y-100595238D01*
X222285714Y-100690476D01*
X222333333Y-100880952D01*
X222333333Y-101023809D01*
X222285714Y-101214285D01*
X222238095Y-101309523D01*
X222142857Y-101404761D01*
X222000000Y-101452380D01*
X221761904Y-101452380D01*
X222904761Y-100880952D02*
X222809523Y-100833333D01*
X222761904Y-100785714D01*
X222714285Y-100690476D01*
X222714285Y-100642857D01*
X222761904Y-100547619D01*
X222809523Y-100500000D01*
X222904761Y-100452380D01*
X223095238Y-100452380D01*
X223190476Y-100500000D01*
X223238095Y-100547619D01*
X223285714Y-100642857D01*
X223285714Y-100690476D01*
X223238095Y-100785714D01*
X223190476Y-100833333D01*
X223095238Y-100880952D01*
X222904761Y-100880952D01*
X222809523Y-100928571D01*
X222761904Y-100976190D01*
X222714285Y-101071428D01*
X222714285Y-101261904D01*
X222761904Y-101357142D01*
X222809523Y-101404761D01*
X222904761Y-101452380D01*
X223095238Y-101452380D01*
X223190476Y-101404761D01*
X223238095Y-101357142D01*
X223285714Y-101261904D01*
X223285714Y-101071428D01*
X223238095Y-100976190D01*
X223190476Y-100928571D01*
X223095238Y-100880952D01*
%TO.C,D7*%
X221761904Y-103952380D02*
X221761904Y-102952380D01*
X222000000Y-102952380D01*
X222142857Y-103000000D01*
X222238095Y-103095238D01*
X222285714Y-103190476D01*
X222333333Y-103380952D01*
X222333333Y-103523809D01*
X222285714Y-103714285D01*
X222238095Y-103809523D01*
X222142857Y-103904761D01*
X222000000Y-103952380D01*
X221761904Y-103952380D01*
X222666666Y-102952380D02*
X223333333Y-102952380D01*
X222904761Y-103952380D01*
%TO.C,D6*%
X221761904Y-55552380D02*
X221761904Y-54552380D01*
X222000000Y-54552380D01*
X222142857Y-54600000D01*
X222238095Y-54695238D01*
X222285714Y-54790476D01*
X222333333Y-54980952D01*
X222333333Y-55123809D01*
X222285714Y-55314285D01*
X222238095Y-55409523D01*
X222142857Y-55504761D01*
X222000000Y-55552380D01*
X221761904Y-55552380D01*
X223190476Y-54552380D02*
X223000000Y-54552380D01*
X222904761Y-54600000D01*
X222857142Y-54647619D01*
X222761904Y-54790476D01*
X222714285Y-54980952D01*
X222714285Y-55361904D01*
X222761904Y-55457142D01*
X222809523Y-55504761D01*
X222904761Y-55552380D01*
X223095238Y-55552380D01*
X223190476Y-55504761D01*
X223238095Y-55457142D01*
X223285714Y-55361904D01*
X223285714Y-55123809D01*
X223238095Y-55028571D01*
X223190476Y-54980952D01*
X223095238Y-54933333D01*
X222904761Y-54933333D01*
X222809523Y-54980952D01*
X222761904Y-55028571D01*
X222714285Y-55123809D01*
%TO.C,D5*%
X221761904Y-53052380D02*
X221761904Y-52052380D01*
X222000000Y-52052380D01*
X222142857Y-52100000D01*
X222238095Y-52195238D01*
X222285714Y-52290476D01*
X222333333Y-52480952D01*
X222333333Y-52623809D01*
X222285714Y-52814285D01*
X222238095Y-52909523D01*
X222142857Y-53004761D01*
X222000000Y-53052380D01*
X221761904Y-53052380D01*
X223238095Y-52052380D02*
X222761904Y-52052380D01*
X222714285Y-52528571D01*
X222761904Y-52480952D01*
X222857142Y-52433333D01*
X223095238Y-52433333D01*
X223190476Y-52480952D01*
X223238095Y-52528571D01*
X223285714Y-52623809D01*
X223285714Y-52861904D01*
X223238095Y-52957142D01*
X223190476Y-53004761D01*
X223095238Y-53052380D01*
X222857142Y-53052380D01*
X222761904Y-53004761D01*
X222714285Y-52957142D01*
%TO.C,D4*%
X221761904Y-106552380D02*
X221761904Y-105552380D01*
X222000000Y-105552380D01*
X222142857Y-105600000D01*
X222238095Y-105695238D01*
X222285714Y-105790476D01*
X222333333Y-105980952D01*
X222333333Y-106123809D01*
X222285714Y-106314285D01*
X222238095Y-106409523D01*
X222142857Y-106504761D01*
X222000000Y-106552380D01*
X221761904Y-106552380D01*
X223190476Y-105885714D02*
X223190476Y-106552380D01*
X222952380Y-105504761D02*
X222714285Y-106219047D01*
X223333333Y-106219047D01*
%TO.C,D3*%
X221761904Y-50552380D02*
X221761904Y-49552380D01*
X222000000Y-49552380D01*
X222142857Y-49600000D01*
X222238095Y-49695238D01*
X222285714Y-49790476D01*
X222333333Y-49980952D01*
X222333333Y-50123809D01*
X222285714Y-50314285D01*
X222238095Y-50409523D01*
X222142857Y-50504761D01*
X222000000Y-50552380D01*
X221761904Y-50552380D01*
X222666666Y-49552380D02*
X223285714Y-49552380D01*
X222952380Y-49933333D01*
X223095238Y-49933333D01*
X223190476Y-49980952D01*
X223238095Y-50028571D01*
X223285714Y-50123809D01*
X223285714Y-50361904D01*
X223238095Y-50457142D01*
X223190476Y-50504761D01*
X223095238Y-50552380D01*
X222809523Y-50552380D01*
X222714285Y-50504761D01*
X222666666Y-50457142D01*
%TO.C,D2*%
X221761904Y-109052380D02*
X221761904Y-108052380D01*
X222000000Y-108052380D01*
X222142857Y-108100000D01*
X222238095Y-108195238D01*
X222285714Y-108290476D01*
X222333333Y-108480952D01*
X222333333Y-108623809D01*
X222285714Y-108814285D01*
X222238095Y-108909523D01*
X222142857Y-109004761D01*
X222000000Y-109052380D01*
X221761904Y-109052380D01*
X222714285Y-108147619D02*
X222761904Y-108100000D01*
X222857142Y-108052380D01*
X223095238Y-108052380D01*
X223190476Y-108100000D01*
X223238095Y-108147619D01*
X223285714Y-108242857D01*
X223285714Y-108338095D01*
X223238095Y-108480952D01*
X222666666Y-109052380D01*
X223285714Y-109052380D01*
%TO.C,D1*%
X221761904Y-47952380D02*
X221761904Y-46952380D01*
X222000000Y-46952380D01*
X222142857Y-47000000D01*
X222238095Y-47095238D01*
X222285714Y-47190476D01*
X222333333Y-47380952D01*
X222333333Y-47523809D01*
X222285714Y-47714285D01*
X222238095Y-47809523D01*
X222142857Y-47904761D01*
X222000000Y-47952380D01*
X221761904Y-47952380D01*
X223285714Y-47952380D02*
X222714285Y-47952380D01*
X223000000Y-47952380D02*
X223000000Y-46952380D01*
X222904761Y-47095238D01*
X222809523Y-47190476D01*
X222714285Y-47238095D01*
%TO.C,U9*%
X59538095Y-46602380D02*
X59538095Y-47411904D01*
X59585714Y-47507142D01*
X59633333Y-47554761D01*
X59728571Y-47602380D01*
X59919047Y-47602380D01*
X60014285Y-47554761D01*
X60061904Y-47507142D01*
X60109523Y-47411904D01*
X60109523Y-46602380D01*
X60633333Y-47602380D02*
X60823809Y-47602380D01*
X60919047Y-47554761D01*
X60966666Y-47507142D01*
X61061904Y-47364285D01*
X61109523Y-47173809D01*
X61109523Y-46792857D01*
X61061904Y-46697619D01*
X61014285Y-46650000D01*
X60919047Y-46602380D01*
X60728571Y-46602380D01*
X60633333Y-46650000D01*
X60585714Y-46697619D01*
X60538095Y-46792857D01*
X60538095Y-47030952D01*
X60585714Y-47126190D01*
X60633333Y-47173809D01*
X60728571Y-47221428D01*
X60919047Y-47221428D01*
X61014285Y-47173809D01*
X61061904Y-47126190D01*
X61109523Y-47030952D01*
%TO.C,U8*%
X67538095Y-46552380D02*
X67538095Y-47361904D01*
X67585714Y-47457142D01*
X67633333Y-47504761D01*
X67728571Y-47552380D01*
X67919047Y-47552380D01*
X68014285Y-47504761D01*
X68061904Y-47457142D01*
X68109523Y-47361904D01*
X68109523Y-46552380D01*
X68728571Y-46980952D02*
X68633333Y-46933333D01*
X68585714Y-46885714D01*
X68538095Y-46790476D01*
X68538095Y-46742857D01*
X68585714Y-46647619D01*
X68633333Y-46600000D01*
X68728571Y-46552380D01*
X68919047Y-46552380D01*
X69014285Y-46600000D01*
X69061904Y-46647619D01*
X69109523Y-46742857D01*
X69109523Y-46790476D01*
X69061904Y-46885714D01*
X69014285Y-46933333D01*
X68919047Y-46980952D01*
X68728571Y-46980952D01*
X68633333Y-47028571D01*
X68585714Y-47076190D01*
X68538095Y-47171428D01*
X68538095Y-47361904D01*
X68585714Y-47457142D01*
X68633333Y-47504761D01*
X68728571Y-47552380D01*
X68919047Y-47552380D01*
X69014285Y-47504761D01*
X69061904Y-47457142D01*
X69109523Y-47361904D01*
X69109523Y-47171428D01*
X69061904Y-47076190D01*
X69014285Y-47028571D01*
X68919047Y-46980952D01*
%TO.C,U7*%
X59538095Y-42552380D02*
X59538095Y-43361904D01*
X59585714Y-43457142D01*
X59633333Y-43504761D01*
X59728571Y-43552380D01*
X59919047Y-43552380D01*
X60014285Y-43504761D01*
X60061904Y-43457142D01*
X60109523Y-43361904D01*
X60109523Y-42552380D01*
X60490476Y-42552380D02*
X61157142Y-42552380D01*
X60728571Y-43552380D01*
%TO.C,U6*%
X67538095Y-42552380D02*
X67538095Y-43361904D01*
X67585714Y-43457142D01*
X67633333Y-43504761D01*
X67728571Y-43552380D01*
X67919047Y-43552380D01*
X68014285Y-43504761D01*
X68061904Y-43457142D01*
X68109523Y-43361904D01*
X68109523Y-42552380D01*
X69014285Y-42552380D02*
X68823809Y-42552380D01*
X68728571Y-42600000D01*
X68680952Y-42647619D01*
X68585714Y-42790476D01*
X68538095Y-42980952D01*
X68538095Y-43361904D01*
X68585714Y-43457142D01*
X68633333Y-43504761D01*
X68728571Y-43552380D01*
X68919047Y-43552380D01*
X69014285Y-43504761D01*
X69061904Y-43457142D01*
X69109523Y-43361904D01*
X69109523Y-43123809D01*
X69061904Y-43028571D01*
X69014285Y-42980952D01*
X68919047Y-42933333D01*
X68728571Y-42933333D01*
X68633333Y-42980952D01*
X68585714Y-43028571D01*
X68538095Y-43123809D01*
%TO.C,U5*%
X62238095Y-97902380D02*
X62238095Y-98711904D01*
X62285714Y-98807142D01*
X62333333Y-98854761D01*
X62428571Y-98902380D01*
X62619047Y-98902380D01*
X62714285Y-98854761D01*
X62761904Y-98807142D01*
X62809523Y-98711904D01*
X62809523Y-97902380D01*
X63761904Y-97902380D02*
X63285714Y-97902380D01*
X63238095Y-98378571D01*
X63285714Y-98330952D01*
X63380952Y-98283333D01*
X63619047Y-98283333D01*
X63714285Y-98330952D01*
X63761904Y-98378571D01*
X63809523Y-98473809D01*
X63809523Y-98711904D01*
X63761904Y-98807142D01*
X63714285Y-98854761D01*
X63619047Y-98902380D01*
X63380952Y-98902380D01*
X63285714Y-98854761D01*
X63238095Y-98807142D01*
%TO.C,U4*%
X62238095Y-82302380D02*
X62238095Y-83111904D01*
X62285714Y-83207142D01*
X62333333Y-83254761D01*
X62428571Y-83302380D01*
X62619047Y-83302380D01*
X62714285Y-83254761D01*
X62761904Y-83207142D01*
X62809523Y-83111904D01*
X62809523Y-82302380D01*
X63714285Y-82635714D02*
X63714285Y-83302380D01*
X63476190Y-82254761D02*
X63238095Y-82969047D01*
X63857142Y-82969047D01*
%TO.C,U3*%
X62238095Y-66702380D02*
X62238095Y-67511904D01*
X62285714Y-67607142D01*
X62333333Y-67654761D01*
X62428571Y-67702380D01*
X62619047Y-67702380D01*
X62714285Y-67654761D01*
X62761904Y-67607142D01*
X62809523Y-67511904D01*
X62809523Y-66702380D01*
X63190476Y-66702380D02*
X63809523Y-66702380D01*
X63476190Y-67083333D01*
X63619047Y-67083333D01*
X63714285Y-67130952D01*
X63761904Y-67178571D01*
X63809523Y-67273809D01*
X63809523Y-67511904D01*
X63761904Y-67607142D01*
X63714285Y-67654761D01*
X63619047Y-67702380D01*
X63333333Y-67702380D01*
X63238095Y-67654761D01*
X63190476Y-67607142D01*
%TO.C,U2*%
X62238095Y-51102380D02*
X62238095Y-51911904D01*
X62285714Y-52007142D01*
X62333333Y-52054761D01*
X62428571Y-52102380D01*
X62619047Y-52102380D01*
X62714285Y-52054761D01*
X62761904Y-52007142D01*
X62809523Y-51911904D01*
X62809523Y-51102380D01*
X63238095Y-51197619D02*
X63285714Y-51150000D01*
X63380952Y-51102380D01*
X63619047Y-51102380D01*
X63714285Y-51150000D01*
X63761904Y-51197619D01*
X63809523Y-51292857D01*
X63809523Y-51388095D01*
X63761904Y-51530952D01*
X63190476Y-52102380D01*
X63809523Y-52102380D01*
%TO.C,RN3*%
X49309523Y-43652380D02*
X48976190Y-43176190D01*
X48738095Y-43652380D02*
X48738095Y-42652380D01*
X49119047Y-42652380D01*
X49214285Y-42700000D01*
X49261904Y-42747619D01*
X49309523Y-42842857D01*
X49309523Y-42985714D01*
X49261904Y-43080952D01*
X49214285Y-43128571D01*
X49119047Y-43176190D01*
X48738095Y-43176190D01*
X49738095Y-43652380D02*
X49738095Y-42652380D01*
X50309523Y-43652380D01*
X50309523Y-42652380D01*
X50690476Y-42652380D02*
X51309523Y-42652380D01*
X50976190Y-43033333D01*
X51119047Y-43033333D01*
X51214285Y-43080952D01*
X51261904Y-43128571D01*
X51309523Y-43223809D01*
X51309523Y-43461904D01*
X51261904Y-43557142D01*
X51214285Y-43604761D01*
X51119047Y-43652380D01*
X50833333Y-43652380D01*
X50738095Y-43604761D01*
X50690476Y-43557142D01*
%TO.C,RN2*%
X49309523Y-50852380D02*
X48976190Y-50376190D01*
X48738095Y-50852380D02*
X48738095Y-49852380D01*
X49119047Y-49852380D01*
X49214285Y-49900000D01*
X49261904Y-49947619D01*
X49309523Y-50042857D01*
X49309523Y-50185714D01*
X49261904Y-50280952D01*
X49214285Y-50328571D01*
X49119047Y-50376190D01*
X48738095Y-50376190D01*
X49738095Y-50852380D02*
X49738095Y-49852380D01*
X50309523Y-50852380D01*
X50309523Y-49852380D01*
X50738095Y-49947619D02*
X50785714Y-49900000D01*
X50880952Y-49852380D01*
X51119047Y-49852380D01*
X51214285Y-49900000D01*
X51261904Y-49947619D01*
X51309523Y-50042857D01*
X51309523Y-50138095D01*
X51261904Y-50280952D01*
X50690476Y-50852380D01*
X51309523Y-50852380D01*
%TO.C,RN1*%
X49309523Y-103952380D02*
X48976190Y-103476190D01*
X48738095Y-103952380D02*
X48738095Y-102952380D01*
X49119047Y-102952380D01*
X49214285Y-103000000D01*
X49261904Y-103047619D01*
X49309523Y-103142857D01*
X49309523Y-103285714D01*
X49261904Y-103380952D01*
X49214285Y-103428571D01*
X49119047Y-103476190D01*
X48738095Y-103476190D01*
X49738095Y-103952380D02*
X49738095Y-102952380D01*
X50309523Y-103952380D01*
X50309523Y-102952380D01*
X51309523Y-103952380D02*
X50738095Y-103952380D01*
X51023809Y-103952380D02*
X51023809Y-102952380D01*
X50928571Y-103095238D01*
X50833333Y-103190476D01*
X50738095Y-103238095D01*
%TO.C,J4*%
X82352380Y-107063333D02*
X83066666Y-107063333D01*
X83209523Y-107110952D01*
X83304761Y-107206190D01*
X83352380Y-107349047D01*
X83352380Y-107444285D01*
X82685714Y-106158571D02*
X83352380Y-106158571D01*
X82304761Y-106396666D02*
X83019047Y-106634761D01*
X83019047Y-106015714D01*
%TO.C,J3*%
X82352380Y-92063333D02*
X83066666Y-92063333D01*
X83209523Y-92110952D01*
X83304761Y-92206190D01*
X83352380Y-92349047D01*
X83352380Y-92444285D01*
X82352380Y-91682380D02*
X82352380Y-91063333D01*
X82733333Y-91396666D01*
X82733333Y-91253809D01*
X82780952Y-91158571D01*
X82828571Y-91110952D01*
X82923809Y-91063333D01*
X83161904Y-91063333D01*
X83257142Y-91110952D01*
X83304761Y-91158571D01*
X83352380Y-91253809D01*
X83352380Y-91539523D01*
X83304761Y-91634761D01*
X83257142Y-91682380D01*
%TO.C,J2*%
X82352380Y-77063333D02*
X83066666Y-77063333D01*
X83209523Y-77110952D01*
X83304761Y-77206190D01*
X83352380Y-77349047D01*
X83352380Y-77444285D01*
X82447619Y-76634761D02*
X82400000Y-76587142D01*
X82352380Y-76491904D01*
X82352380Y-76253809D01*
X82400000Y-76158571D01*
X82447619Y-76110952D01*
X82542857Y-76063333D01*
X82638095Y-76063333D01*
X82780952Y-76110952D01*
X83352380Y-76682380D01*
X83352380Y-76063333D01*
%TO.C,J1*%
X82352380Y-62063333D02*
X83066666Y-62063333D01*
X83209523Y-62110952D01*
X83304761Y-62206190D01*
X83352380Y-62349047D01*
X83352380Y-62444285D01*
X83352380Y-61063333D02*
X83352380Y-61634761D01*
X83352380Y-61349047D02*
X82352380Y-61349047D01*
X82495238Y-61444285D01*
X82590476Y-61539523D01*
X82638095Y-61634761D01*
%TO.C,C4*%
X71033333Y-98357142D02*
X70985714Y-98404761D01*
X70842857Y-98452380D01*
X70747619Y-98452380D01*
X70604761Y-98404761D01*
X70509523Y-98309523D01*
X70461904Y-98214285D01*
X70414285Y-98023809D01*
X70414285Y-97880952D01*
X70461904Y-97690476D01*
X70509523Y-97595238D01*
X70604761Y-97500000D01*
X70747619Y-97452380D01*
X70842857Y-97452380D01*
X70985714Y-97500000D01*
X71033333Y-97547619D01*
X71890476Y-97785714D02*
X71890476Y-98452380D01*
X71652380Y-97404761D02*
X71414285Y-98119047D01*
X72033333Y-98119047D01*
%TO.C,C3*%
X71033333Y-82757142D02*
X70985714Y-82804761D01*
X70842857Y-82852380D01*
X70747619Y-82852380D01*
X70604761Y-82804761D01*
X70509523Y-82709523D01*
X70461904Y-82614285D01*
X70414285Y-82423809D01*
X70414285Y-82280952D01*
X70461904Y-82090476D01*
X70509523Y-81995238D01*
X70604761Y-81900000D01*
X70747619Y-81852380D01*
X70842857Y-81852380D01*
X70985714Y-81900000D01*
X71033333Y-81947619D01*
X71366666Y-81852380D02*
X71985714Y-81852380D01*
X71652380Y-82233333D01*
X71795238Y-82233333D01*
X71890476Y-82280952D01*
X71938095Y-82328571D01*
X71985714Y-82423809D01*
X71985714Y-82661904D01*
X71938095Y-82757142D01*
X71890476Y-82804761D01*
X71795238Y-82852380D01*
X71509523Y-82852380D01*
X71414285Y-82804761D01*
X71366666Y-82757142D01*
%TO.C,C2*%
X71033333Y-67157142D02*
X70985714Y-67204761D01*
X70842857Y-67252380D01*
X70747619Y-67252380D01*
X70604761Y-67204761D01*
X70509523Y-67109523D01*
X70461904Y-67014285D01*
X70414285Y-66823809D01*
X70414285Y-66680952D01*
X70461904Y-66490476D01*
X70509523Y-66395238D01*
X70604761Y-66300000D01*
X70747619Y-66252380D01*
X70842857Y-66252380D01*
X70985714Y-66300000D01*
X71033333Y-66347619D01*
X71414285Y-66347619D02*
X71461904Y-66300000D01*
X71557142Y-66252380D01*
X71795238Y-66252380D01*
X71890476Y-66300000D01*
X71938095Y-66347619D01*
X71985714Y-66442857D01*
X71985714Y-66538095D01*
X71938095Y-66680952D01*
X71366666Y-67252380D01*
X71985714Y-67252380D01*
%TO.C,C1*%
X71033333Y-51557142D02*
X70985714Y-51604761D01*
X70842857Y-51652380D01*
X70747619Y-51652380D01*
X70604761Y-51604761D01*
X70509523Y-51509523D01*
X70461904Y-51414285D01*
X70414285Y-51223809D01*
X70414285Y-51080952D01*
X70461904Y-50890476D01*
X70509523Y-50795238D01*
X70604761Y-50700000D01*
X70747619Y-50652380D01*
X70842857Y-50652380D01*
X70985714Y-50700000D01*
X71033333Y-50747619D01*
X71985714Y-51652380D02*
X71414285Y-51652380D01*
X71700000Y-51652380D02*
X71700000Y-50652380D01*
X71604761Y-50795238D01*
X71509523Y-50890476D01*
X71414285Y-50938095D01*
%TO.C,U1*%
X45752380Y-102891904D02*
X46561904Y-102891904D01*
X46657142Y-102844285D01*
X46704761Y-102796666D01*
X46752380Y-102701428D01*
X46752380Y-102510952D01*
X46704761Y-102415714D01*
X46657142Y-102368095D01*
X46561904Y-102320476D01*
X45752380Y-102320476D01*
X46752380Y-101320476D02*
X46752380Y-101891904D01*
X46752380Y-101606190D02*
X45752380Y-101606190D01*
X45895238Y-101701428D01*
X45990476Y-101796666D01*
X46038095Y-101891904D01*
%TD*%
M02*
