%TF.GenerationSoftware,KiCad,Pcbnew,5.99.0+really5.1.10+dfsg1-1*%
%TF.CreationDate,2022-01-10T00:23:21+01:00*%
%TF.ProjectId,RiserCard,52697365-7243-4617-9264-2e6b69636164,rev?*%
%TF.SameCoordinates,Original*%
%TF.FileFunction,Soldermask,Bot*%
%TF.FilePolarity,Negative*%
%FSLAX46Y46*%
G04 Gerber Fmt 4.6, Leading zero omitted, Abs format (unit mm)*
G04 Created by KiCad (PCBNEW 5.99.0+really5.1.10+dfsg1-1) date 2022-01-10 00:23:21*
%MOMM*%
%LPD*%
G01*
G04 APERTURE LIST*
%ADD10C,1.600000*%
%ADD11O,1.700000X1.700000*%
%ADD12R,1.700000X1.700000*%
%ADD13C,1.700000*%
%ADD14C,3.200000*%
%ADD15C,2.850000*%
%ADD16C,1.550000*%
G04 APERTURE END LIST*
D10*
%TO.C,H3*%
X208590000Y-76730000D03*
%TD*%
%TO.C,H3*%
X208590000Y-74190000D03*
%TD*%
%TO.C,H3*%
X211130000Y-76730000D03*
%TD*%
%TO.C,H3*%
X208590000Y-79270000D03*
%TD*%
%TO.C,H3*%
X206050000Y-76730000D03*
%TD*%
%TO.C,H3*%
X106990000Y-114830000D03*
%TD*%
%TO.C,H3*%
X109530000Y-114830000D03*
%TD*%
%TO.C,H3*%
X112070000Y-114830000D03*
%TD*%
%TO.C,H3*%
X114610000Y-114830000D03*
%TD*%
%TO.C,H3*%
X117150000Y-114830000D03*
%TD*%
%TO.C,H3*%
X119690000Y-114830000D03*
%TD*%
%TO.C,H3*%
X122230000Y-114830000D03*
%TD*%
%TO.C,H3*%
X124770000Y-114830000D03*
%TD*%
%TO.C,H3*%
X127310000Y-114830000D03*
%TD*%
%TO.C,H3*%
X129850000Y-114830000D03*
%TD*%
%TO.C,H3*%
X132390000Y-114830000D03*
%TD*%
%TO.C,H3*%
X134930000Y-114830000D03*
%TD*%
%TO.C,H3*%
X137470000Y-114830000D03*
%TD*%
%TO.C,H3*%
X140010000Y-114830000D03*
%TD*%
%TO.C,H3*%
X142550000Y-114830000D03*
%TD*%
%TO.C,H3*%
X145090000Y-114830000D03*
%TD*%
%TO.C,H3*%
X147630000Y-114830000D03*
%TD*%
%TO.C,H3*%
X150170000Y-114830000D03*
%TD*%
%TO.C,H3*%
X152710000Y-114830000D03*
%TD*%
%TO.C,H3*%
X155250000Y-114830000D03*
%TD*%
%TO.C,H3*%
X157790000Y-114830000D03*
%TD*%
%TO.C,H3*%
X160330000Y-114830000D03*
%TD*%
%TO.C,H3*%
X162870000Y-114830000D03*
%TD*%
%TO.C,H3*%
X165410000Y-114830000D03*
%TD*%
%TO.C,H3*%
X167950000Y-114830000D03*
%TD*%
%TO.C,H3*%
X170490000Y-114830000D03*
%TD*%
%TO.C,H3*%
X173030000Y-114830000D03*
%TD*%
%TO.C,H3*%
X175570000Y-114830000D03*
%TD*%
%TO.C,H3*%
X178110000Y-114830000D03*
%TD*%
%TO.C,H3*%
X180650000Y-114830000D03*
%TD*%
%TO.C,H3*%
X183190000Y-114830000D03*
%TD*%
%TO.C,H3*%
X185730000Y-114830000D03*
%TD*%
%TO.C,H3*%
X188270000Y-114830000D03*
%TD*%
%TO.C,H3*%
X190810000Y-114830000D03*
%TD*%
%TO.C,H3*%
X193350000Y-114830000D03*
%TD*%
%TO.C,H3*%
X195890000Y-114830000D03*
%TD*%
%TO.C,H3*%
X198430000Y-114830000D03*
%TD*%
%TO.C,H3*%
X200970000Y-114830000D03*
%TD*%
%TO.C,H3*%
X203510000Y-114830000D03*
%TD*%
%TO.C,H3*%
X206050000Y-114830000D03*
%TD*%
%TO.C,H3*%
X208590000Y-114830000D03*
%TD*%
%TO.C,H3*%
X211130000Y-114830000D03*
%TD*%
%TO.C,H3*%
X213670000Y-114830000D03*
%TD*%
%TO.C,H3*%
X216210000Y-114830000D03*
%TD*%
%TO.C,H3*%
X218750000Y-114830000D03*
%TD*%
%TO.C,H3*%
X221290000Y-114830000D03*
%TD*%
%TO.C,H3*%
X223830000Y-114830000D03*
%TD*%
%TO.C,H3*%
X106990000Y-112290000D03*
%TD*%
%TO.C,H3*%
X109530000Y-112290000D03*
%TD*%
%TO.C,H3*%
X112070000Y-112290000D03*
%TD*%
%TO.C,H3*%
X114610000Y-112290000D03*
%TD*%
%TO.C,H3*%
X117150000Y-112290000D03*
%TD*%
%TO.C,H3*%
X119690000Y-112290000D03*
%TD*%
%TO.C,H3*%
X122230000Y-112290000D03*
%TD*%
%TO.C,H3*%
X124770000Y-112290000D03*
%TD*%
%TO.C,H3*%
X127310000Y-112290000D03*
%TD*%
%TO.C,H3*%
X129850000Y-112290000D03*
%TD*%
%TO.C,H3*%
X132390000Y-112290000D03*
%TD*%
%TO.C,H3*%
X134930000Y-112290000D03*
%TD*%
%TO.C,H3*%
X137470000Y-112290000D03*
%TD*%
%TO.C,H3*%
X140010000Y-112290000D03*
%TD*%
%TO.C,H3*%
X142550000Y-112290000D03*
%TD*%
%TO.C,H3*%
X145090000Y-112290000D03*
%TD*%
%TO.C,H3*%
X147630000Y-112290000D03*
%TD*%
%TO.C,H3*%
X150170000Y-112290000D03*
%TD*%
%TO.C,H3*%
X152710000Y-112290000D03*
%TD*%
%TO.C,H3*%
X155250000Y-112290000D03*
%TD*%
%TO.C,H3*%
X157790000Y-112290000D03*
%TD*%
%TO.C,H3*%
X160330000Y-112290000D03*
%TD*%
%TO.C,H3*%
X162870000Y-112290000D03*
%TD*%
%TO.C,H3*%
X165410000Y-112290000D03*
%TD*%
%TO.C,H3*%
X167950000Y-112290000D03*
%TD*%
%TO.C,H3*%
X170490000Y-112290000D03*
%TD*%
%TO.C,H3*%
X173030000Y-112290000D03*
%TD*%
%TO.C,H3*%
X175570000Y-112290000D03*
%TD*%
%TO.C,H3*%
X178110000Y-112290000D03*
%TD*%
%TO.C,H3*%
X180650000Y-112290000D03*
%TD*%
%TO.C,H3*%
X183190000Y-112290000D03*
%TD*%
%TO.C,H3*%
X185730000Y-112290000D03*
%TD*%
%TO.C,H3*%
X188270000Y-112290000D03*
%TD*%
%TO.C,H3*%
X190810000Y-112290000D03*
%TD*%
%TO.C,H3*%
X193350000Y-112290000D03*
%TD*%
%TO.C,H3*%
X195890000Y-112290000D03*
%TD*%
%TO.C,H3*%
X198430000Y-112290000D03*
%TD*%
%TO.C,H3*%
X200970000Y-112290000D03*
%TD*%
%TO.C,H3*%
X203510000Y-112290000D03*
%TD*%
%TO.C,H3*%
X206050000Y-112290000D03*
%TD*%
%TO.C,H3*%
X208590000Y-112290000D03*
%TD*%
%TO.C,H3*%
X211130000Y-112290000D03*
%TD*%
%TO.C,H3*%
X213670000Y-112290000D03*
%TD*%
%TO.C,H3*%
X216210000Y-112290000D03*
%TD*%
%TO.C,H3*%
X218750000Y-112290000D03*
%TD*%
%TO.C,H3*%
X221290000Y-112290000D03*
%TD*%
%TO.C,H3*%
X223830000Y-112290000D03*
%TD*%
%TO.C,H3*%
X106990000Y-109750000D03*
%TD*%
%TO.C,H3*%
X109530000Y-109750000D03*
%TD*%
%TO.C,H3*%
X112070000Y-109750000D03*
%TD*%
%TO.C,H3*%
X114610000Y-109750000D03*
%TD*%
%TO.C,H3*%
X117150000Y-109750000D03*
%TD*%
%TO.C,H3*%
X119690000Y-109750000D03*
%TD*%
%TO.C,H3*%
X122230000Y-109750000D03*
%TD*%
%TO.C,H3*%
X124770000Y-109750000D03*
%TD*%
%TO.C,H3*%
X127310000Y-109750000D03*
%TD*%
%TO.C,H3*%
X129850000Y-109750000D03*
%TD*%
%TO.C,H3*%
X132390000Y-109750000D03*
%TD*%
%TO.C,H3*%
X134930000Y-109750000D03*
%TD*%
%TO.C,H3*%
X137470000Y-109750000D03*
%TD*%
%TO.C,H3*%
X140010000Y-109750000D03*
%TD*%
%TO.C,H3*%
X142550000Y-109750000D03*
%TD*%
%TO.C,H3*%
X145090000Y-109750000D03*
%TD*%
%TO.C,H3*%
X147630000Y-109750000D03*
%TD*%
%TO.C,H3*%
X150170000Y-109750000D03*
%TD*%
%TO.C,H3*%
X152710000Y-109750000D03*
%TD*%
%TO.C,H3*%
X155250000Y-109750000D03*
%TD*%
%TO.C,H3*%
X157790000Y-109750000D03*
%TD*%
%TO.C,H3*%
X160330000Y-109750000D03*
%TD*%
%TO.C,H3*%
X162870000Y-109750000D03*
%TD*%
%TO.C,H3*%
X165410000Y-109750000D03*
%TD*%
%TO.C,H3*%
X167950000Y-109750000D03*
%TD*%
%TO.C,H3*%
X170490000Y-109750000D03*
%TD*%
%TO.C,H3*%
X173030000Y-109750000D03*
%TD*%
%TO.C,H3*%
X175570000Y-109750000D03*
%TD*%
%TO.C,H3*%
X178110000Y-109750000D03*
%TD*%
%TO.C,H3*%
X180650000Y-109750000D03*
%TD*%
%TO.C,H3*%
X183190000Y-109750000D03*
%TD*%
%TO.C,H3*%
X185730000Y-109750000D03*
%TD*%
%TO.C,H3*%
X188270000Y-109750000D03*
%TD*%
%TO.C,H3*%
X190810000Y-109750000D03*
%TD*%
%TO.C,H3*%
X193350000Y-109750000D03*
%TD*%
%TO.C,H3*%
X195890000Y-109750000D03*
%TD*%
%TO.C,H3*%
X198430000Y-109750000D03*
%TD*%
%TO.C,H3*%
X200970000Y-109750000D03*
%TD*%
%TO.C,H3*%
X203510000Y-109750000D03*
%TD*%
%TO.C,H3*%
X206050000Y-109750000D03*
%TD*%
%TO.C,H3*%
X208590000Y-109750000D03*
%TD*%
%TO.C,H3*%
X211130000Y-109750000D03*
%TD*%
%TO.C,H3*%
X213670000Y-109750000D03*
%TD*%
%TO.C,H3*%
X216210000Y-109750000D03*
%TD*%
%TO.C,H3*%
X218750000Y-109750000D03*
%TD*%
%TO.C,H3*%
X221290000Y-109750000D03*
%TD*%
%TO.C,H3*%
X223830000Y-109750000D03*
%TD*%
%TO.C,H3*%
X106990000Y-107210000D03*
%TD*%
%TO.C,H3*%
X109530000Y-107210000D03*
%TD*%
%TO.C,H3*%
X112070000Y-107210000D03*
%TD*%
%TO.C,H3*%
X114610000Y-107210000D03*
%TD*%
%TO.C,H3*%
X117150000Y-107210000D03*
%TD*%
%TO.C,H3*%
X119690000Y-107210000D03*
%TD*%
%TO.C,H3*%
X122230000Y-107210000D03*
%TD*%
%TO.C,H3*%
X124770000Y-107210000D03*
%TD*%
%TO.C,H3*%
X127310000Y-107210000D03*
%TD*%
%TO.C,H3*%
X129850000Y-107210000D03*
%TD*%
%TO.C,H3*%
X132390000Y-107210000D03*
%TD*%
%TO.C,H3*%
X134930000Y-107210000D03*
%TD*%
%TO.C,H3*%
X137470000Y-107210000D03*
%TD*%
%TO.C,H3*%
X140010000Y-107210000D03*
%TD*%
%TO.C,H3*%
X142550000Y-107210000D03*
%TD*%
%TO.C,H3*%
X145090000Y-107210000D03*
%TD*%
%TO.C,H3*%
X147630000Y-107210000D03*
%TD*%
%TO.C,H3*%
X150170000Y-107210000D03*
%TD*%
%TO.C,H3*%
X152710000Y-107210000D03*
%TD*%
%TO.C,H3*%
X155250000Y-107210000D03*
%TD*%
%TO.C,H3*%
X157790000Y-107210000D03*
%TD*%
%TO.C,H3*%
X160330000Y-107210000D03*
%TD*%
%TO.C,H3*%
X162870000Y-107210000D03*
%TD*%
%TO.C,H3*%
X165410000Y-107210000D03*
%TD*%
%TO.C,H3*%
X167950000Y-107210000D03*
%TD*%
%TO.C,H3*%
X170490000Y-107210000D03*
%TD*%
%TO.C,H3*%
X173030000Y-107210000D03*
%TD*%
%TO.C,H3*%
X175570000Y-107210000D03*
%TD*%
%TO.C,H3*%
X178110000Y-107210000D03*
%TD*%
%TO.C,H3*%
X180650000Y-107210000D03*
%TD*%
%TO.C,H3*%
X183190000Y-107210000D03*
%TD*%
%TO.C,H3*%
X185730000Y-107210000D03*
%TD*%
%TO.C,H3*%
X188270000Y-107210000D03*
%TD*%
%TO.C,H3*%
X190810000Y-107210000D03*
%TD*%
%TO.C,H3*%
X193350000Y-107210000D03*
%TD*%
%TO.C,H3*%
X195890000Y-107210000D03*
%TD*%
%TO.C,H3*%
X198430000Y-107210000D03*
%TD*%
%TO.C,H3*%
X200970000Y-107210000D03*
%TD*%
%TO.C,H3*%
X203510000Y-107210000D03*
%TD*%
%TO.C,H3*%
X206050000Y-107210000D03*
%TD*%
%TO.C,H3*%
X208590000Y-107210000D03*
%TD*%
%TO.C,H3*%
X211130000Y-107210000D03*
%TD*%
%TO.C,H3*%
X213670000Y-107210000D03*
%TD*%
%TO.C,H3*%
X216210000Y-107210000D03*
%TD*%
%TO.C,H3*%
X218750000Y-107210000D03*
%TD*%
%TO.C,H3*%
X221290000Y-107210000D03*
%TD*%
%TO.C,H3*%
X223830000Y-107210000D03*
%TD*%
%TO.C,H3*%
X106990000Y-104670000D03*
%TD*%
%TO.C,H3*%
X109530000Y-104670000D03*
%TD*%
%TO.C,H3*%
X112070000Y-104670000D03*
%TD*%
%TO.C,H3*%
X114610000Y-104670000D03*
%TD*%
%TO.C,H3*%
X117150000Y-104670000D03*
%TD*%
%TO.C,H3*%
X119690000Y-104670000D03*
%TD*%
%TO.C,H3*%
X122230000Y-104670000D03*
%TD*%
%TO.C,H3*%
X124770000Y-104670000D03*
%TD*%
%TO.C,H3*%
X127310000Y-104670000D03*
%TD*%
%TO.C,H3*%
X129850000Y-104670000D03*
%TD*%
%TO.C,H3*%
X132390000Y-104670000D03*
%TD*%
%TO.C,H3*%
X134930000Y-104670000D03*
%TD*%
%TO.C,H3*%
X137470000Y-104670000D03*
%TD*%
%TO.C,H3*%
X140010000Y-104670000D03*
%TD*%
%TO.C,H3*%
X142550000Y-104670000D03*
%TD*%
%TO.C,H3*%
X145090000Y-104670000D03*
%TD*%
%TO.C,H3*%
X147630000Y-104670000D03*
%TD*%
%TO.C,H3*%
X150170000Y-104670000D03*
%TD*%
%TO.C,H3*%
X152710000Y-104670000D03*
%TD*%
%TO.C,H3*%
X155250000Y-104670000D03*
%TD*%
%TO.C,H3*%
X157790000Y-104670000D03*
%TD*%
%TO.C,H3*%
X160330000Y-104670000D03*
%TD*%
%TO.C,H3*%
X162870000Y-104670000D03*
%TD*%
%TO.C,H3*%
X165410000Y-104670000D03*
%TD*%
%TO.C,H3*%
X167950000Y-104670000D03*
%TD*%
%TO.C,H3*%
X170490000Y-104670000D03*
%TD*%
%TO.C,H3*%
X173030000Y-104670000D03*
%TD*%
%TO.C,H3*%
X175570000Y-104670000D03*
%TD*%
%TO.C,H3*%
X178110000Y-104670000D03*
%TD*%
%TO.C,H3*%
X180650000Y-104670000D03*
%TD*%
%TO.C,H3*%
X183190000Y-104670000D03*
%TD*%
%TO.C,H3*%
X185730000Y-104670000D03*
%TD*%
%TO.C,H3*%
X188270000Y-104670000D03*
%TD*%
%TO.C,H3*%
X190810000Y-104670000D03*
%TD*%
%TO.C,H3*%
X193350000Y-104670000D03*
%TD*%
%TO.C,H3*%
X195890000Y-104670000D03*
%TD*%
%TO.C,H3*%
X198430000Y-104670000D03*
%TD*%
%TO.C,H3*%
X200970000Y-104670000D03*
%TD*%
%TO.C,H3*%
X203510000Y-104670000D03*
%TD*%
%TO.C,H3*%
X206050000Y-104670000D03*
%TD*%
%TO.C,H3*%
X208590000Y-104670000D03*
%TD*%
%TO.C,H3*%
X211130000Y-104670000D03*
%TD*%
%TO.C,H3*%
X213670000Y-104670000D03*
%TD*%
%TO.C,H3*%
X216210000Y-104670000D03*
%TD*%
%TO.C,H3*%
X218750000Y-104670000D03*
%TD*%
%TO.C,H3*%
X221290000Y-104670000D03*
%TD*%
%TO.C,H3*%
X223830000Y-104670000D03*
%TD*%
%TO.C,H3*%
X106990000Y-102130000D03*
%TD*%
%TO.C,H3*%
X109530000Y-102130000D03*
%TD*%
%TO.C,H3*%
X112070000Y-102130000D03*
%TD*%
%TO.C,H3*%
X114610000Y-102130000D03*
%TD*%
%TO.C,H3*%
X117150000Y-102130000D03*
%TD*%
%TO.C,H3*%
X119690000Y-102130000D03*
%TD*%
%TO.C,H3*%
X122230000Y-102130000D03*
%TD*%
%TO.C,H3*%
X124770000Y-102130000D03*
%TD*%
%TO.C,H3*%
X127310000Y-102130000D03*
%TD*%
%TO.C,H3*%
X129850000Y-102130000D03*
%TD*%
%TO.C,H3*%
X132390000Y-102130000D03*
%TD*%
%TO.C,H3*%
X134930000Y-102130000D03*
%TD*%
%TO.C,H3*%
X137470000Y-102130000D03*
%TD*%
%TO.C,H3*%
X140010000Y-102130000D03*
%TD*%
%TO.C,H3*%
X142550000Y-102130000D03*
%TD*%
%TO.C,H3*%
X145090000Y-102130000D03*
%TD*%
%TO.C,H3*%
X147630000Y-102130000D03*
%TD*%
%TO.C,H3*%
X150170000Y-102130000D03*
%TD*%
%TO.C,H3*%
X152710000Y-102130000D03*
%TD*%
%TO.C,H3*%
X155250000Y-102130000D03*
%TD*%
%TO.C,H3*%
X157790000Y-102130000D03*
%TD*%
%TO.C,H3*%
X160330000Y-102130000D03*
%TD*%
%TO.C,H3*%
X162870000Y-102130000D03*
%TD*%
%TO.C,H3*%
X165410000Y-102130000D03*
%TD*%
%TO.C,H3*%
X167950000Y-102130000D03*
%TD*%
%TO.C,H3*%
X170490000Y-102130000D03*
%TD*%
%TO.C,H3*%
X173030000Y-102130000D03*
%TD*%
%TO.C,H3*%
X175570000Y-102130000D03*
%TD*%
%TO.C,H3*%
X178110000Y-102130000D03*
%TD*%
%TO.C,H3*%
X180650000Y-102130000D03*
%TD*%
%TO.C,H3*%
X183190000Y-102130000D03*
%TD*%
%TO.C,H3*%
X185730000Y-102130000D03*
%TD*%
%TO.C,H3*%
X188270000Y-102130000D03*
%TD*%
%TO.C,H3*%
X190810000Y-102130000D03*
%TD*%
%TO.C,H3*%
X193350000Y-102130000D03*
%TD*%
%TO.C,H3*%
X195890000Y-102130000D03*
%TD*%
%TO.C,H3*%
X198430000Y-102130000D03*
%TD*%
%TO.C,H3*%
X200970000Y-102130000D03*
%TD*%
%TO.C,H3*%
X203510000Y-102130000D03*
%TD*%
%TO.C,H3*%
X206050000Y-102130000D03*
%TD*%
%TO.C,H3*%
X208590000Y-102130000D03*
%TD*%
%TO.C,H3*%
X211130000Y-102130000D03*
%TD*%
%TO.C,H3*%
X213670000Y-102130000D03*
%TD*%
%TO.C,H3*%
X216210000Y-102130000D03*
%TD*%
%TO.C,H3*%
X218750000Y-102130000D03*
%TD*%
%TO.C,H3*%
X221290000Y-102130000D03*
%TD*%
%TO.C,H3*%
X223830000Y-102130000D03*
%TD*%
%TO.C,H3*%
X106990000Y-99590000D03*
%TD*%
%TO.C,H3*%
X109530000Y-99590000D03*
%TD*%
%TO.C,H3*%
X112070000Y-99590000D03*
%TD*%
%TO.C,H3*%
X114610000Y-99590000D03*
%TD*%
%TO.C,H3*%
X117150000Y-99590000D03*
%TD*%
%TO.C,H3*%
X119690000Y-99590000D03*
%TD*%
%TO.C,H3*%
X122230000Y-99590000D03*
%TD*%
%TO.C,H3*%
X124770000Y-99590000D03*
%TD*%
%TO.C,H3*%
X127310000Y-99590000D03*
%TD*%
%TO.C,H3*%
X129850000Y-99590000D03*
%TD*%
%TO.C,H3*%
X132390000Y-99590000D03*
%TD*%
%TO.C,H3*%
X134930000Y-99590000D03*
%TD*%
%TO.C,H3*%
X137470000Y-99590000D03*
%TD*%
%TO.C,H3*%
X140010000Y-99590000D03*
%TD*%
%TO.C,H3*%
X142550000Y-99590000D03*
%TD*%
%TO.C,H3*%
X145090000Y-99590000D03*
%TD*%
%TO.C,H3*%
X147630000Y-99590000D03*
%TD*%
%TO.C,H3*%
X150170000Y-99590000D03*
%TD*%
%TO.C,H3*%
X152710000Y-99590000D03*
%TD*%
%TO.C,H3*%
X155250000Y-99590000D03*
%TD*%
%TO.C,H3*%
X157790000Y-99590000D03*
%TD*%
%TO.C,H3*%
X160330000Y-99590000D03*
%TD*%
%TO.C,H3*%
X162870000Y-99590000D03*
%TD*%
%TO.C,H3*%
X165410000Y-99590000D03*
%TD*%
%TO.C,H3*%
X167950000Y-99590000D03*
%TD*%
%TO.C,H3*%
X170490000Y-99590000D03*
%TD*%
%TO.C,H3*%
X173030000Y-99590000D03*
%TD*%
%TO.C,H3*%
X175570000Y-99590000D03*
%TD*%
%TO.C,H3*%
X178110000Y-99590000D03*
%TD*%
%TO.C,H3*%
X180650000Y-99590000D03*
%TD*%
%TO.C,H3*%
X183190000Y-99590000D03*
%TD*%
%TO.C,H3*%
X185730000Y-99590000D03*
%TD*%
%TO.C,H3*%
X188270000Y-99590000D03*
%TD*%
%TO.C,H3*%
X190810000Y-99590000D03*
%TD*%
%TO.C,H3*%
X193350000Y-99590000D03*
%TD*%
%TO.C,H3*%
X195890000Y-99590000D03*
%TD*%
%TO.C,H3*%
X198430000Y-99590000D03*
%TD*%
%TO.C,H3*%
X200970000Y-99590000D03*
%TD*%
%TO.C,H3*%
X203510000Y-99590000D03*
%TD*%
%TO.C,H3*%
X206050000Y-99590000D03*
%TD*%
%TO.C,H3*%
X211130000Y-99590000D03*
%TD*%
%TO.C,H3*%
X106990000Y-97050000D03*
%TD*%
%TO.C,H3*%
X109530000Y-97050000D03*
%TD*%
%TO.C,H3*%
X112070000Y-97050000D03*
%TD*%
%TO.C,H3*%
X114610000Y-97050000D03*
%TD*%
%TO.C,H3*%
X117150000Y-97050000D03*
%TD*%
%TO.C,H3*%
X119690000Y-97050000D03*
%TD*%
%TO.C,H3*%
X122230000Y-97050000D03*
%TD*%
%TO.C,H3*%
X124770000Y-97050000D03*
%TD*%
%TO.C,H3*%
X127310000Y-97050000D03*
%TD*%
%TO.C,H3*%
X129850000Y-97050000D03*
%TD*%
%TO.C,H3*%
X132390000Y-97050000D03*
%TD*%
%TO.C,H3*%
X134930000Y-97050000D03*
%TD*%
%TO.C,H3*%
X137470000Y-97050000D03*
%TD*%
%TO.C,H3*%
X140010000Y-97050000D03*
%TD*%
%TO.C,H3*%
X142550000Y-97050000D03*
%TD*%
%TO.C,H3*%
X145090000Y-97050000D03*
%TD*%
%TO.C,H3*%
X147630000Y-97050000D03*
%TD*%
%TO.C,H3*%
X150170000Y-97050000D03*
%TD*%
%TO.C,H3*%
X152710000Y-97050000D03*
%TD*%
%TO.C,H3*%
X155250000Y-97050000D03*
%TD*%
%TO.C,H3*%
X157790000Y-97050000D03*
%TD*%
%TO.C,H3*%
X160330000Y-97050000D03*
%TD*%
%TO.C,H3*%
X162870000Y-97050000D03*
%TD*%
%TO.C,H3*%
X165410000Y-97050000D03*
%TD*%
%TO.C,H3*%
X167950000Y-97050000D03*
%TD*%
%TO.C,H3*%
X170490000Y-97050000D03*
%TD*%
%TO.C,H3*%
X173030000Y-97050000D03*
%TD*%
%TO.C,H3*%
X175570000Y-97050000D03*
%TD*%
%TO.C,H3*%
X178110000Y-97050000D03*
%TD*%
%TO.C,H3*%
X180650000Y-97050000D03*
%TD*%
%TO.C,H3*%
X183190000Y-97050000D03*
%TD*%
%TO.C,H3*%
X185730000Y-97050000D03*
%TD*%
%TO.C,H3*%
X188270000Y-97050000D03*
%TD*%
%TO.C,H3*%
X190810000Y-97050000D03*
%TD*%
%TO.C,H3*%
X193350000Y-97050000D03*
%TD*%
%TO.C,H3*%
X195890000Y-97050000D03*
%TD*%
%TO.C,H3*%
X198430000Y-97050000D03*
%TD*%
%TO.C,H3*%
X200970000Y-97050000D03*
%TD*%
%TO.C,H3*%
X203510000Y-97050000D03*
%TD*%
%TO.C,H3*%
X106990000Y-94510000D03*
%TD*%
%TO.C,H3*%
X109530000Y-94510000D03*
%TD*%
%TO.C,H3*%
X112070000Y-94510000D03*
%TD*%
%TO.C,H3*%
X114610000Y-94510000D03*
%TD*%
%TO.C,H3*%
X117150000Y-94510000D03*
%TD*%
%TO.C,H3*%
X119690000Y-94510000D03*
%TD*%
%TO.C,H3*%
X122230000Y-94510000D03*
%TD*%
%TO.C,H3*%
X124770000Y-94510000D03*
%TD*%
%TO.C,H3*%
X127310000Y-94510000D03*
%TD*%
%TO.C,H3*%
X129850000Y-94510000D03*
%TD*%
%TO.C,H3*%
X132390000Y-94510000D03*
%TD*%
%TO.C,H3*%
X134930000Y-94510000D03*
%TD*%
%TO.C,H3*%
X137470000Y-94510000D03*
%TD*%
%TO.C,H3*%
X140010000Y-94510000D03*
%TD*%
%TO.C,H3*%
X142550000Y-94510000D03*
%TD*%
%TO.C,H3*%
X145090000Y-94510000D03*
%TD*%
%TO.C,H3*%
X147630000Y-94510000D03*
%TD*%
%TO.C,H3*%
X150170000Y-94510000D03*
%TD*%
%TO.C,H3*%
X152710000Y-94510000D03*
%TD*%
%TO.C,H3*%
X155250000Y-94510000D03*
%TD*%
%TO.C,H3*%
X157790000Y-94510000D03*
%TD*%
%TO.C,H3*%
X160330000Y-94510000D03*
%TD*%
%TO.C,H3*%
X162870000Y-94510000D03*
%TD*%
%TO.C,H3*%
X165410000Y-94510000D03*
%TD*%
%TO.C,H3*%
X167950000Y-94510000D03*
%TD*%
%TO.C,H3*%
X170490000Y-94510000D03*
%TD*%
%TO.C,H3*%
X173030000Y-94510000D03*
%TD*%
%TO.C,H3*%
X175570000Y-94510000D03*
%TD*%
%TO.C,H3*%
X178110000Y-94510000D03*
%TD*%
%TO.C,H3*%
X180650000Y-94510000D03*
%TD*%
%TO.C,H3*%
X183190000Y-94510000D03*
%TD*%
%TO.C,H3*%
X185730000Y-94510000D03*
%TD*%
%TO.C,H3*%
X188270000Y-94510000D03*
%TD*%
%TO.C,H3*%
X190810000Y-94510000D03*
%TD*%
%TO.C,H3*%
X193350000Y-94510000D03*
%TD*%
%TO.C,H3*%
X195890000Y-94510000D03*
%TD*%
%TO.C,H3*%
X198430000Y-94510000D03*
%TD*%
%TO.C,H3*%
X200970000Y-94510000D03*
%TD*%
%TO.C,H3*%
X203510000Y-94510000D03*
%TD*%
%TO.C,H3*%
X206050000Y-94510000D03*
%TD*%
%TO.C,H3*%
X211130000Y-94510000D03*
%TD*%
%TO.C,H3*%
X213670000Y-94510000D03*
%TD*%
%TO.C,H3*%
X216210000Y-94510000D03*
%TD*%
%TO.C,H3*%
X106990000Y-91970000D03*
%TD*%
%TO.C,H3*%
X109530000Y-91970000D03*
%TD*%
%TO.C,H3*%
X112070000Y-91970000D03*
%TD*%
%TO.C,H3*%
X114610000Y-91970000D03*
%TD*%
%TO.C,H3*%
X117150000Y-91970000D03*
%TD*%
%TO.C,H3*%
X119690000Y-91970000D03*
%TD*%
%TO.C,H3*%
X122230000Y-91970000D03*
%TD*%
%TO.C,H3*%
X124770000Y-91970000D03*
%TD*%
%TO.C,H3*%
X127310000Y-91970000D03*
%TD*%
%TO.C,H3*%
X129850000Y-91970000D03*
%TD*%
%TO.C,H3*%
X132390000Y-91970000D03*
%TD*%
%TO.C,H3*%
X134930000Y-91970000D03*
%TD*%
%TO.C,H3*%
X137470000Y-91970000D03*
%TD*%
%TO.C,H3*%
X140010000Y-91970000D03*
%TD*%
%TO.C,H3*%
X142550000Y-91970000D03*
%TD*%
%TO.C,H3*%
X145090000Y-91970000D03*
%TD*%
%TO.C,H3*%
X147630000Y-91970000D03*
%TD*%
%TO.C,H3*%
X150170000Y-91970000D03*
%TD*%
%TO.C,H3*%
X152710000Y-91970000D03*
%TD*%
%TO.C,H3*%
X155250000Y-91970000D03*
%TD*%
%TO.C,H3*%
X157790000Y-91970000D03*
%TD*%
%TO.C,H3*%
X160330000Y-91970000D03*
%TD*%
%TO.C,H3*%
X162870000Y-91970000D03*
%TD*%
%TO.C,H3*%
X165410000Y-91970000D03*
%TD*%
%TO.C,H3*%
X167950000Y-91970000D03*
%TD*%
%TO.C,H3*%
X170490000Y-91970000D03*
%TD*%
%TO.C,H3*%
X173030000Y-91970000D03*
%TD*%
%TO.C,H3*%
X175570000Y-91970000D03*
%TD*%
%TO.C,H3*%
X178110000Y-91970000D03*
%TD*%
%TO.C,H3*%
X180650000Y-91970000D03*
%TD*%
%TO.C,H3*%
X183190000Y-91970000D03*
%TD*%
%TO.C,H3*%
X185730000Y-91970000D03*
%TD*%
%TO.C,H3*%
X188270000Y-91970000D03*
%TD*%
%TO.C,H3*%
X190810000Y-91970000D03*
%TD*%
%TO.C,H3*%
X193350000Y-91970000D03*
%TD*%
%TO.C,H3*%
X195890000Y-91970000D03*
%TD*%
%TO.C,H3*%
X198430000Y-91970000D03*
%TD*%
%TO.C,H3*%
X200970000Y-91970000D03*
%TD*%
%TO.C,H3*%
X203510000Y-91970000D03*
%TD*%
%TO.C,H3*%
X206050000Y-91970000D03*
%TD*%
%TO.C,H3*%
X208590000Y-91970000D03*
%TD*%
%TO.C,H3*%
X211130000Y-91970000D03*
%TD*%
%TO.C,H3*%
X213670000Y-91970000D03*
%TD*%
%TO.C,H3*%
X216210000Y-91970000D03*
%TD*%
%TO.C,H3*%
X218750000Y-91970000D03*
%TD*%
%TO.C,H3*%
X221290000Y-91970000D03*
%TD*%
%TO.C,H3*%
X223830000Y-91970000D03*
%TD*%
%TO.C,H3*%
X106990000Y-89430000D03*
%TD*%
%TO.C,H3*%
X109530000Y-89430000D03*
%TD*%
%TO.C,H3*%
X112070000Y-89430000D03*
%TD*%
%TO.C,H3*%
X114610000Y-89430000D03*
%TD*%
%TO.C,H3*%
X117150000Y-89430000D03*
%TD*%
%TO.C,H3*%
X119690000Y-89430000D03*
%TD*%
%TO.C,H3*%
X122230000Y-89430000D03*
%TD*%
%TO.C,H3*%
X124770000Y-89430000D03*
%TD*%
%TO.C,H3*%
X127310000Y-89430000D03*
%TD*%
%TO.C,H3*%
X129850000Y-89430000D03*
%TD*%
%TO.C,H3*%
X132390000Y-89430000D03*
%TD*%
%TO.C,H3*%
X134930000Y-89430000D03*
%TD*%
%TO.C,H3*%
X137470000Y-89430000D03*
%TD*%
%TO.C,H3*%
X140010000Y-89430000D03*
%TD*%
%TO.C,H3*%
X142550000Y-89430000D03*
%TD*%
%TO.C,H3*%
X145090000Y-89430000D03*
%TD*%
%TO.C,H3*%
X147630000Y-89430000D03*
%TD*%
%TO.C,H3*%
X150170000Y-89430000D03*
%TD*%
%TO.C,H3*%
X152710000Y-89430000D03*
%TD*%
%TO.C,H3*%
X155250000Y-89430000D03*
%TD*%
%TO.C,H3*%
X157790000Y-89430000D03*
%TD*%
%TO.C,H3*%
X160330000Y-89430000D03*
%TD*%
%TO.C,H3*%
X162870000Y-89430000D03*
%TD*%
%TO.C,H3*%
X165410000Y-89430000D03*
%TD*%
%TO.C,H3*%
X167950000Y-89430000D03*
%TD*%
%TO.C,H3*%
X170490000Y-89430000D03*
%TD*%
%TO.C,H3*%
X173030000Y-89430000D03*
%TD*%
%TO.C,H3*%
X175570000Y-89430000D03*
%TD*%
%TO.C,H3*%
X178110000Y-89430000D03*
%TD*%
%TO.C,H3*%
X180650000Y-89430000D03*
%TD*%
%TO.C,H3*%
X183190000Y-89430000D03*
%TD*%
%TO.C,H3*%
X185730000Y-89430000D03*
%TD*%
%TO.C,H3*%
X188270000Y-89430000D03*
%TD*%
%TO.C,H3*%
X190810000Y-89430000D03*
%TD*%
%TO.C,H3*%
X193350000Y-89430000D03*
%TD*%
%TO.C,H3*%
X195890000Y-89430000D03*
%TD*%
%TO.C,H3*%
X198430000Y-89430000D03*
%TD*%
%TO.C,H3*%
X200970000Y-89430000D03*
%TD*%
%TO.C,H3*%
X203510000Y-89430000D03*
%TD*%
%TO.C,H3*%
X206050000Y-89430000D03*
%TD*%
%TO.C,H3*%
X208590000Y-89430000D03*
%TD*%
%TO.C,H3*%
X211130000Y-89430000D03*
%TD*%
%TO.C,H3*%
X213670000Y-89430000D03*
%TD*%
%TO.C,H3*%
X216210000Y-89430000D03*
%TD*%
%TO.C,H3*%
X218750000Y-89430000D03*
%TD*%
%TO.C,H3*%
X221290000Y-89430000D03*
%TD*%
%TO.C,H3*%
X223830000Y-89430000D03*
%TD*%
%TO.C,H3*%
X106990000Y-86890000D03*
%TD*%
%TO.C,H3*%
X109530000Y-86890000D03*
%TD*%
%TO.C,H3*%
X112070000Y-86890000D03*
%TD*%
%TO.C,H3*%
X114610000Y-86890000D03*
%TD*%
%TO.C,H3*%
X117150000Y-86890000D03*
%TD*%
%TO.C,H3*%
X119690000Y-86890000D03*
%TD*%
%TO.C,H3*%
X122230000Y-86890000D03*
%TD*%
%TO.C,H3*%
X124770000Y-86890000D03*
%TD*%
%TO.C,H3*%
X127310000Y-86890000D03*
%TD*%
%TO.C,H3*%
X129850000Y-86890000D03*
%TD*%
%TO.C,H3*%
X132390000Y-86890000D03*
%TD*%
%TO.C,H3*%
X134930000Y-86890000D03*
%TD*%
%TO.C,H3*%
X137470000Y-86890000D03*
%TD*%
%TO.C,H3*%
X140010000Y-86890000D03*
%TD*%
%TO.C,H3*%
X142550000Y-86890000D03*
%TD*%
%TO.C,H3*%
X145090000Y-86890000D03*
%TD*%
%TO.C,H3*%
X147630000Y-86890000D03*
%TD*%
%TO.C,H3*%
X150170000Y-86890000D03*
%TD*%
%TO.C,H3*%
X152710000Y-86890000D03*
%TD*%
%TO.C,H3*%
X155250000Y-86890000D03*
%TD*%
%TO.C,H3*%
X157790000Y-86890000D03*
%TD*%
%TO.C,H3*%
X160330000Y-86890000D03*
%TD*%
%TO.C,H3*%
X162870000Y-86890000D03*
%TD*%
%TO.C,H3*%
X165410000Y-86890000D03*
%TD*%
%TO.C,H3*%
X167950000Y-86890000D03*
%TD*%
%TO.C,H3*%
X170490000Y-86890000D03*
%TD*%
%TO.C,H3*%
X173030000Y-86890000D03*
%TD*%
%TO.C,H3*%
X175570000Y-86890000D03*
%TD*%
%TO.C,H3*%
X178110000Y-86890000D03*
%TD*%
%TO.C,H3*%
X180650000Y-86890000D03*
%TD*%
%TO.C,H3*%
X183190000Y-86890000D03*
%TD*%
%TO.C,H3*%
X185730000Y-86890000D03*
%TD*%
%TO.C,H3*%
X188270000Y-86890000D03*
%TD*%
%TO.C,H3*%
X190810000Y-86890000D03*
%TD*%
%TO.C,H3*%
X193350000Y-86890000D03*
%TD*%
%TO.C,H3*%
X195890000Y-86890000D03*
%TD*%
%TO.C,H3*%
X198430000Y-86890000D03*
%TD*%
%TO.C,H3*%
X200970000Y-86890000D03*
%TD*%
%TO.C,H3*%
X203510000Y-86890000D03*
%TD*%
%TO.C,H3*%
X206050000Y-86890000D03*
%TD*%
%TO.C,H3*%
X208590000Y-86890000D03*
%TD*%
%TO.C,H3*%
X211130000Y-86890000D03*
%TD*%
%TO.C,H3*%
X213670000Y-86890000D03*
%TD*%
%TO.C,H3*%
X216210000Y-86890000D03*
%TD*%
%TO.C,H3*%
X218750000Y-86890000D03*
%TD*%
%TO.C,H3*%
X221290000Y-86890000D03*
%TD*%
%TO.C,H3*%
X223830000Y-86890000D03*
%TD*%
%TO.C,H3*%
X106990000Y-84350000D03*
%TD*%
%TO.C,H3*%
X109530000Y-84350000D03*
%TD*%
%TO.C,H3*%
X112070000Y-84350000D03*
%TD*%
%TO.C,H3*%
X114610000Y-84350000D03*
%TD*%
%TO.C,H3*%
X117150000Y-84350000D03*
%TD*%
%TO.C,H3*%
X119690000Y-84350000D03*
%TD*%
%TO.C,H3*%
X122230000Y-84350000D03*
%TD*%
%TO.C,H3*%
X124770000Y-84350000D03*
%TD*%
%TO.C,H3*%
X127310000Y-84350000D03*
%TD*%
%TO.C,H3*%
X129850000Y-84350000D03*
%TD*%
%TO.C,H3*%
X132390000Y-84350000D03*
%TD*%
%TO.C,H3*%
X134930000Y-84350000D03*
%TD*%
%TO.C,H3*%
X137470000Y-84350000D03*
%TD*%
%TO.C,H3*%
X140010000Y-84350000D03*
%TD*%
%TO.C,H3*%
X142550000Y-84350000D03*
%TD*%
%TO.C,H3*%
X145090000Y-84350000D03*
%TD*%
%TO.C,H3*%
X147630000Y-84350000D03*
%TD*%
%TO.C,H3*%
X150170000Y-84350000D03*
%TD*%
%TO.C,H3*%
X152710000Y-84350000D03*
%TD*%
%TO.C,H3*%
X155250000Y-84350000D03*
%TD*%
%TO.C,H3*%
X157790000Y-84350000D03*
%TD*%
%TO.C,H3*%
X160330000Y-84350000D03*
%TD*%
%TO.C,H3*%
X162870000Y-84350000D03*
%TD*%
%TO.C,H3*%
X165410000Y-84350000D03*
%TD*%
%TO.C,H3*%
X167950000Y-84350000D03*
%TD*%
%TO.C,H3*%
X170490000Y-84350000D03*
%TD*%
%TO.C,H3*%
X173030000Y-84350000D03*
%TD*%
%TO.C,H3*%
X175570000Y-84350000D03*
%TD*%
%TO.C,H3*%
X178110000Y-84350000D03*
%TD*%
%TO.C,H3*%
X180650000Y-84350000D03*
%TD*%
%TO.C,H3*%
X183190000Y-84350000D03*
%TD*%
%TO.C,H3*%
X185730000Y-84350000D03*
%TD*%
%TO.C,H3*%
X188270000Y-84350000D03*
%TD*%
%TO.C,H3*%
X190810000Y-84350000D03*
%TD*%
%TO.C,H3*%
X193350000Y-84350000D03*
%TD*%
%TO.C,H3*%
X195890000Y-84350000D03*
%TD*%
%TO.C,H3*%
X198430000Y-84350000D03*
%TD*%
%TO.C,H3*%
X200970000Y-84350000D03*
%TD*%
%TO.C,H3*%
X203510000Y-84350000D03*
%TD*%
%TO.C,H3*%
X206050000Y-84350000D03*
%TD*%
%TO.C,H3*%
X208590000Y-84350000D03*
%TD*%
%TO.C,H3*%
X211130000Y-84350000D03*
%TD*%
%TO.C,H3*%
X213670000Y-84350000D03*
%TD*%
%TO.C,H3*%
X216210000Y-84350000D03*
%TD*%
%TO.C,H3*%
X218750000Y-84350000D03*
%TD*%
%TO.C,H3*%
X221290000Y-84350000D03*
%TD*%
%TO.C,H3*%
X223830000Y-84350000D03*
%TD*%
%TO.C,H3*%
X106990000Y-81810000D03*
%TD*%
%TO.C,H3*%
X109530000Y-81810000D03*
%TD*%
%TO.C,H3*%
X112070000Y-81810000D03*
%TD*%
%TO.C,H3*%
X114610000Y-81810000D03*
%TD*%
%TO.C,H3*%
X117150000Y-81810000D03*
%TD*%
%TO.C,H3*%
X119690000Y-81810000D03*
%TD*%
%TO.C,H3*%
X122230000Y-81810000D03*
%TD*%
%TO.C,H3*%
X124770000Y-81810000D03*
%TD*%
%TO.C,H3*%
X127310000Y-81810000D03*
%TD*%
%TO.C,H3*%
X129850000Y-81810000D03*
%TD*%
%TO.C,H3*%
X132390000Y-81810000D03*
%TD*%
%TO.C,H3*%
X134930000Y-81810000D03*
%TD*%
%TO.C,H3*%
X137470000Y-81810000D03*
%TD*%
%TO.C,H3*%
X140010000Y-81810000D03*
%TD*%
%TO.C,H3*%
X142550000Y-81810000D03*
%TD*%
%TO.C,H3*%
X145090000Y-81810000D03*
%TD*%
%TO.C,H3*%
X147630000Y-81810000D03*
%TD*%
%TO.C,H3*%
X150170000Y-81810000D03*
%TD*%
%TO.C,H3*%
X152710000Y-81810000D03*
%TD*%
%TO.C,H3*%
X155250000Y-81810000D03*
%TD*%
%TO.C,H3*%
X157790000Y-81810000D03*
%TD*%
%TO.C,H3*%
X160330000Y-81810000D03*
%TD*%
%TO.C,H3*%
X162870000Y-81810000D03*
%TD*%
%TO.C,H3*%
X165410000Y-81810000D03*
%TD*%
%TO.C,H3*%
X167950000Y-81810000D03*
%TD*%
%TO.C,H3*%
X170490000Y-81810000D03*
%TD*%
%TO.C,H3*%
X173030000Y-81810000D03*
%TD*%
%TO.C,H3*%
X175570000Y-81810000D03*
%TD*%
%TO.C,H3*%
X178110000Y-81810000D03*
%TD*%
%TO.C,H3*%
X180650000Y-81810000D03*
%TD*%
%TO.C,H3*%
X183190000Y-81810000D03*
%TD*%
%TO.C,H3*%
X185730000Y-81810000D03*
%TD*%
%TO.C,H3*%
X188270000Y-81810000D03*
%TD*%
%TO.C,H3*%
X190810000Y-81810000D03*
%TD*%
%TO.C,H3*%
X193350000Y-81810000D03*
%TD*%
%TO.C,H3*%
X195890000Y-81810000D03*
%TD*%
%TO.C,H3*%
X198430000Y-81810000D03*
%TD*%
%TO.C,H3*%
X200970000Y-81810000D03*
%TD*%
%TO.C,H3*%
X203510000Y-81810000D03*
%TD*%
%TO.C,H3*%
X206050000Y-81810000D03*
%TD*%
%TO.C,H3*%
X208590000Y-81810000D03*
%TD*%
%TO.C,H3*%
X211130000Y-81810000D03*
%TD*%
%TO.C,H3*%
X213670000Y-81810000D03*
%TD*%
%TO.C,H3*%
X216210000Y-81810000D03*
%TD*%
%TO.C,H3*%
X218750000Y-81810000D03*
%TD*%
%TO.C,H3*%
X221290000Y-81810000D03*
%TD*%
%TO.C,H3*%
X223830000Y-81810000D03*
%TD*%
%TO.C,H3*%
X106990000Y-79270000D03*
%TD*%
%TO.C,H3*%
X109530000Y-79270000D03*
%TD*%
%TO.C,H3*%
X112070000Y-79270000D03*
%TD*%
%TO.C,H3*%
X114610000Y-79270000D03*
%TD*%
%TO.C,H3*%
X117150000Y-79270000D03*
%TD*%
%TO.C,H3*%
X119690000Y-79270000D03*
%TD*%
%TO.C,H3*%
X122230000Y-79270000D03*
%TD*%
%TO.C,H3*%
X124770000Y-79270000D03*
%TD*%
%TO.C,H3*%
X127310000Y-79270000D03*
%TD*%
%TO.C,H3*%
X129850000Y-79270000D03*
%TD*%
%TO.C,H3*%
X132390000Y-79270000D03*
%TD*%
%TO.C,H3*%
X134930000Y-79270000D03*
%TD*%
%TO.C,H3*%
X137470000Y-79270000D03*
%TD*%
%TO.C,H3*%
X140010000Y-79270000D03*
%TD*%
%TO.C,H3*%
X142550000Y-79270000D03*
%TD*%
%TO.C,H3*%
X145090000Y-79270000D03*
%TD*%
%TO.C,H3*%
X147630000Y-79270000D03*
%TD*%
%TO.C,H3*%
X150170000Y-79270000D03*
%TD*%
%TO.C,H3*%
X152710000Y-79270000D03*
%TD*%
%TO.C,H3*%
X155250000Y-79270000D03*
%TD*%
%TO.C,H3*%
X157790000Y-79270000D03*
%TD*%
%TO.C,H3*%
X160330000Y-79270000D03*
%TD*%
%TO.C,H3*%
X162870000Y-79270000D03*
%TD*%
%TO.C,H3*%
X165410000Y-79270000D03*
%TD*%
%TO.C,H3*%
X167950000Y-79270000D03*
%TD*%
%TO.C,H3*%
X170490000Y-79270000D03*
%TD*%
%TO.C,H3*%
X173030000Y-79270000D03*
%TD*%
%TO.C,H3*%
X175570000Y-79270000D03*
%TD*%
%TO.C,H3*%
X178110000Y-79270000D03*
%TD*%
%TO.C,H3*%
X180650000Y-79270000D03*
%TD*%
%TO.C,H3*%
X183190000Y-79270000D03*
%TD*%
%TO.C,H3*%
X185730000Y-79270000D03*
%TD*%
%TO.C,H3*%
X188270000Y-79270000D03*
%TD*%
%TO.C,H3*%
X190810000Y-79270000D03*
%TD*%
%TO.C,H3*%
X193350000Y-79270000D03*
%TD*%
%TO.C,H3*%
X195890000Y-79270000D03*
%TD*%
%TO.C,H3*%
X198430000Y-79270000D03*
%TD*%
%TO.C,H3*%
X200970000Y-79270000D03*
%TD*%
%TO.C,H3*%
X203510000Y-79270000D03*
%TD*%
%TO.C,H3*%
X206050000Y-79270000D03*
%TD*%
%TO.C,H3*%
X211130000Y-79270000D03*
%TD*%
%TO.C,H3*%
X213670000Y-79270000D03*
%TD*%
%TO.C,H3*%
X216210000Y-79270000D03*
%TD*%
%TO.C,H3*%
X218750000Y-79270000D03*
%TD*%
%TO.C,H3*%
X221290000Y-79270000D03*
%TD*%
%TO.C,H3*%
X223830000Y-79270000D03*
%TD*%
%TO.C,H3*%
X106990000Y-76730000D03*
%TD*%
%TO.C,H3*%
X109530000Y-76730000D03*
%TD*%
%TO.C,H3*%
X112070000Y-76730000D03*
%TD*%
%TO.C,H3*%
X114610000Y-76730000D03*
%TD*%
%TO.C,H3*%
X117150000Y-76730000D03*
%TD*%
%TO.C,H3*%
X119690000Y-76730000D03*
%TD*%
%TO.C,H3*%
X122230000Y-76730000D03*
%TD*%
%TO.C,H3*%
X124770000Y-76730000D03*
%TD*%
%TO.C,H3*%
X127310000Y-76730000D03*
%TD*%
%TO.C,H3*%
X129850000Y-76730000D03*
%TD*%
%TO.C,H3*%
X132390000Y-76730000D03*
%TD*%
%TO.C,H3*%
X134930000Y-76730000D03*
%TD*%
%TO.C,H3*%
X137470000Y-76730000D03*
%TD*%
%TO.C,H3*%
X140010000Y-76730000D03*
%TD*%
%TO.C,H3*%
X142550000Y-76730000D03*
%TD*%
%TO.C,H3*%
X145090000Y-76730000D03*
%TD*%
%TO.C,H3*%
X147630000Y-76730000D03*
%TD*%
%TO.C,H3*%
X150170000Y-76730000D03*
%TD*%
%TO.C,H3*%
X152710000Y-76730000D03*
%TD*%
%TO.C,H3*%
X155250000Y-76730000D03*
%TD*%
%TO.C,H3*%
X157790000Y-76730000D03*
%TD*%
%TO.C,H3*%
X160330000Y-76730000D03*
%TD*%
%TO.C,H3*%
X162870000Y-76730000D03*
%TD*%
%TO.C,H3*%
X165410000Y-76730000D03*
%TD*%
%TO.C,H3*%
X167950000Y-76730000D03*
%TD*%
%TO.C,H3*%
X170490000Y-76730000D03*
%TD*%
%TO.C,H3*%
X173030000Y-76730000D03*
%TD*%
%TO.C,H3*%
X175570000Y-76730000D03*
%TD*%
%TO.C,H3*%
X178110000Y-76730000D03*
%TD*%
%TO.C,H3*%
X180650000Y-76730000D03*
%TD*%
%TO.C,H3*%
X183190000Y-76730000D03*
%TD*%
%TO.C,H3*%
X185730000Y-76730000D03*
%TD*%
%TO.C,H3*%
X188270000Y-76730000D03*
%TD*%
%TO.C,H3*%
X190810000Y-76730000D03*
%TD*%
%TO.C,H3*%
X193350000Y-76730000D03*
%TD*%
%TO.C,H3*%
X195890000Y-76730000D03*
%TD*%
%TO.C,H3*%
X198430000Y-76730000D03*
%TD*%
%TO.C,H3*%
X200970000Y-76730000D03*
%TD*%
%TO.C,H3*%
X203510000Y-76730000D03*
%TD*%
%TO.C,H3*%
X213670000Y-76730000D03*
%TD*%
%TO.C,H3*%
X216210000Y-76730000D03*
%TD*%
%TO.C,H3*%
X218750000Y-76730000D03*
%TD*%
%TO.C,H3*%
X221290000Y-76730000D03*
%TD*%
%TO.C,H3*%
X223830000Y-76730000D03*
%TD*%
%TO.C,H3*%
X106990000Y-74190000D03*
%TD*%
%TO.C,H3*%
X109530000Y-74190000D03*
%TD*%
%TO.C,H3*%
X112070000Y-74190000D03*
%TD*%
%TO.C,H3*%
X114610000Y-74190000D03*
%TD*%
%TO.C,H3*%
X117150000Y-74190000D03*
%TD*%
%TO.C,H3*%
X119690000Y-74190000D03*
%TD*%
%TO.C,H3*%
X122230000Y-74190000D03*
%TD*%
%TO.C,H3*%
X124770000Y-74190000D03*
%TD*%
%TO.C,H3*%
X127310000Y-74190000D03*
%TD*%
%TO.C,H3*%
X129850000Y-74190000D03*
%TD*%
%TO.C,H3*%
X132390000Y-74190000D03*
%TD*%
%TO.C,H3*%
X134930000Y-74190000D03*
%TD*%
%TO.C,H3*%
X137470000Y-74190000D03*
%TD*%
%TO.C,H3*%
X140010000Y-74190000D03*
%TD*%
%TO.C,H3*%
X142550000Y-74190000D03*
%TD*%
%TO.C,H3*%
X145090000Y-74190000D03*
%TD*%
%TO.C,H3*%
X147630000Y-74190000D03*
%TD*%
%TO.C,H3*%
X150170000Y-74190000D03*
%TD*%
%TO.C,H3*%
X152710000Y-74190000D03*
%TD*%
%TO.C,H3*%
X155250000Y-74190000D03*
%TD*%
%TO.C,H3*%
X157790000Y-74190000D03*
%TD*%
%TO.C,H3*%
X160330000Y-74190000D03*
%TD*%
%TO.C,H3*%
X162870000Y-74190000D03*
%TD*%
%TO.C,H3*%
X165410000Y-74190000D03*
%TD*%
%TO.C,H3*%
X167950000Y-74190000D03*
%TD*%
%TO.C,H3*%
X170490000Y-74190000D03*
%TD*%
%TO.C,H3*%
X173030000Y-74190000D03*
%TD*%
%TO.C,H3*%
X175570000Y-74190000D03*
%TD*%
%TO.C,H3*%
X178110000Y-74190000D03*
%TD*%
%TO.C,H3*%
X180650000Y-74190000D03*
%TD*%
%TO.C,H3*%
X183190000Y-74190000D03*
%TD*%
%TO.C,H3*%
X185730000Y-74190000D03*
%TD*%
%TO.C,H3*%
X188270000Y-74190000D03*
%TD*%
%TO.C,H3*%
X190810000Y-74190000D03*
%TD*%
%TO.C,H3*%
X193350000Y-74190000D03*
%TD*%
%TO.C,H3*%
X195890000Y-74190000D03*
%TD*%
%TO.C,H3*%
X198430000Y-74190000D03*
%TD*%
%TO.C,H3*%
X200970000Y-74190000D03*
%TD*%
%TO.C,H3*%
X203510000Y-74190000D03*
%TD*%
%TO.C,H3*%
X206050000Y-74190000D03*
%TD*%
%TO.C,H3*%
X211130000Y-74190000D03*
%TD*%
%TO.C,H3*%
X213670000Y-74190000D03*
%TD*%
%TO.C,H3*%
X216210000Y-74190000D03*
%TD*%
%TO.C,H3*%
X218750000Y-74190000D03*
%TD*%
%TO.C,H3*%
X221290000Y-74190000D03*
%TD*%
%TO.C,H3*%
X223830000Y-74190000D03*
%TD*%
%TO.C,H3*%
X106990000Y-71650000D03*
%TD*%
%TO.C,H3*%
X109530000Y-71650000D03*
%TD*%
%TO.C,H3*%
X112070000Y-71650000D03*
%TD*%
%TO.C,H3*%
X114610000Y-71650000D03*
%TD*%
%TO.C,H3*%
X117150000Y-71650000D03*
%TD*%
%TO.C,H3*%
X119690000Y-71650000D03*
%TD*%
%TO.C,H3*%
X122230000Y-71650000D03*
%TD*%
%TO.C,H3*%
X124770000Y-71650000D03*
%TD*%
%TO.C,H3*%
X127310000Y-71650000D03*
%TD*%
%TO.C,H3*%
X129850000Y-71650000D03*
%TD*%
%TO.C,H3*%
X132390000Y-71650000D03*
%TD*%
%TO.C,H3*%
X134930000Y-71650000D03*
%TD*%
%TO.C,H3*%
X137470000Y-71650000D03*
%TD*%
%TO.C,H3*%
X140010000Y-71650000D03*
%TD*%
%TO.C,H3*%
X142550000Y-71650000D03*
%TD*%
%TO.C,H3*%
X145090000Y-71650000D03*
%TD*%
%TO.C,H3*%
X147630000Y-71650000D03*
%TD*%
%TO.C,H3*%
X150170000Y-71650000D03*
%TD*%
%TO.C,H3*%
X152710000Y-71650000D03*
%TD*%
%TO.C,H3*%
X155250000Y-71650000D03*
%TD*%
%TO.C,H3*%
X157790000Y-71650000D03*
%TD*%
%TO.C,H3*%
X160330000Y-71650000D03*
%TD*%
%TO.C,H3*%
X162870000Y-71650000D03*
%TD*%
%TO.C,H3*%
X165410000Y-71650000D03*
%TD*%
%TO.C,H3*%
X167950000Y-71650000D03*
%TD*%
%TO.C,H3*%
X170490000Y-71650000D03*
%TD*%
%TO.C,H3*%
X173030000Y-71650000D03*
%TD*%
%TO.C,H3*%
X175570000Y-71650000D03*
%TD*%
%TO.C,H3*%
X178110000Y-71650000D03*
%TD*%
%TO.C,H3*%
X180650000Y-71650000D03*
%TD*%
%TO.C,H3*%
X183190000Y-71650000D03*
%TD*%
%TO.C,H3*%
X185730000Y-71650000D03*
%TD*%
%TO.C,H3*%
X188270000Y-71650000D03*
%TD*%
%TO.C,H3*%
X190810000Y-71650000D03*
%TD*%
%TO.C,H3*%
X193350000Y-71650000D03*
%TD*%
%TO.C,H3*%
X195890000Y-71650000D03*
%TD*%
%TO.C,H3*%
X198430000Y-71650000D03*
%TD*%
%TO.C,H3*%
X200970000Y-71650000D03*
%TD*%
%TO.C,H3*%
X203510000Y-71650000D03*
%TD*%
%TO.C,H3*%
X206050000Y-71650000D03*
%TD*%
%TO.C,H3*%
X208590000Y-71650000D03*
%TD*%
%TO.C,H3*%
X211130000Y-71650000D03*
%TD*%
%TO.C,H3*%
X213670000Y-71650000D03*
%TD*%
%TO.C,H3*%
X216210000Y-71650000D03*
%TD*%
%TO.C,H3*%
X218750000Y-71650000D03*
%TD*%
%TO.C,H3*%
X221290000Y-71650000D03*
%TD*%
%TO.C,H3*%
X223830000Y-71650000D03*
%TD*%
%TO.C,H3*%
X106990000Y-69110000D03*
%TD*%
%TO.C,H3*%
X109530000Y-69110000D03*
%TD*%
%TO.C,H3*%
X112070000Y-69110000D03*
%TD*%
%TO.C,H3*%
X114610000Y-69110000D03*
%TD*%
%TO.C,H3*%
X117150000Y-69110000D03*
%TD*%
%TO.C,H3*%
X119690000Y-69110000D03*
%TD*%
%TO.C,H3*%
X122230000Y-69110000D03*
%TD*%
%TO.C,H3*%
X124770000Y-69110000D03*
%TD*%
%TO.C,H3*%
X127310000Y-69110000D03*
%TD*%
%TO.C,H3*%
X129850000Y-69110000D03*
%TD*%
%TO.C,H3*%
X132390000Y-69110000D03*
%TD*%
%TO.C,H3*%
X134930000Y-69110000D03*
%TD*%
%TO.C,H3*%
X137470000Y-69110000D03*
%TD*%
%TO.C,H3*%
X140010000Y-69110000D03*
%TD*%
%TO.C,H3*%
X142550000Y-69110000D03*
%TD*%
%TO.C,H3*%
X145090000Y-69110000D03*
%TD*%
%TO.C,H3*%
X147630000Y-69110000D03*
%TD*%
%TO.C,H3*%
X150170000Y-69110000D03*
%TD*%
%TO.C,H3*%
X152710000Y-69110000D03*
%TD*%
%TO.C,H3*%
X155250000Y-69110000D03*
%TD*%
%TO.C,H3*%
X157790000Y-69110000D03*
%TD*%
%TO.C,H3*%
X160330000Y-69110000D03*
%TD*%
%TO.C,H3*%
X162870000Y-69110000D03*
%TD*%
%TO.C,H3*%
X165410000Y-69110000D03*
%TD*%
%TO.C,H3*%
X167950000Y-69110000D03*
%TD*%
%TO.C,H3*%
X170490000Y-69110000D03*
%TD*%
%TO.C,H3*%
X173030000Y-69110000D03*
%TD*%
%TO.C,H3*%
X175570000Y-69110000D03*
%TD*%
%TO.C,H3*%
X178110000Y-69110000D03*
%TD*%
%TO.C,H3*%
X180650000Y-69110000D03*
%TD*%
%TO.C,H3*%
X183190000Y-69110000D03*
%TD*%
%TO.C,H3*%
X185730000Y-69110000D03*
%TD*%
%TO.C,H3*%
X188270000Y-69110000D03*
%TD*%
%TO.C,H3*%
X190810000Y-69110000D03*
%TD*%
%TO.C,H3*%
X193350000Y-69110000D03*
%TD*%
%TO.C,H3*%
X195890000Y-69110000D03*
%TD*%
%TO.C,H3*%
X198430000Y-69110000D03*
%TD*%
%TO.C,H3*%
X200970000Y-69110000D03*
%TD*%
%TO.C,H3*%
X203510000Y-69110000D03*
%TD*%
%TO.C,H3*%
X206050000Y-69110000D03*
%TD*%
%TO.C,H3*%
X208590000Y-69110000D03*
%TD*%
%TO.C,H3*%
X211130000Y-69110000D03*
%TD*%
%TO.C,H3*%
X213670000Y-69110000D03*
%TD*%
%TO.C,H3*%
X216210000Y-69110000D03*
%TD*%
%TO.C,H3*%
X218750000Y-69110000D03*
%TD*%
%TO.C,H3*%
X221290000Y-69110000D03*
%TD*%
%TO.C,H3*%
X223830000Y-69110000D03*
%TD*%
%TO.C,H3*%
X106990000Y-66570000D03*
%TD*%
%TO.C,H3*%
X109530000Y-66570000D03*
%TD*%
%TO.C,H3*%
X112070000Y-66570000D03*
%TD*%
%TO.C,H3*%
X114610000Y-66570000D03*
%TD*%
%TO.C,H3*%
X117150000Y-66570000D03*
%TD*%
%TO.C,H3*%
X119690000Y-66570000D03*
%TD*%
%TO.C,H3*%
X122230000Y-66570000D03*
%TD*%
%TO.C,H3*%
X124770000Y-66570000D03*
%TD*%
%TO.C,H3*%
X127310000Y-66570000D03*
%TD*%
%TO.C,H3*%
X129850000Y-66570000D03*
%TD*%
%TO.C,H3*%
X132390000Y-66570000D03*
%TD*%
%TO.C,H3*%
X134930000Y-66570000D03*
%TD*%
%TO.C,H3*%
X137470000Y-66570000D03*
%TD*%
%TO.C,H3*%
X140010000Y-66570000D03*
%TD*%
%TO.C,H3*%
X142550000Y-66570000D03*
%TD*%
%TO.C,H3*%
X145090000Y-66570000D03*
%TD*%
%TO.C,H3*%
X147630000Y-66570000D03*
%TD*%
%TO.C,H3*%
X150170000Y-66570000D03*
%TD*%
%TO.C,H3*%
X152710000Y-66570000D03*
%TD*%
%TO.C,H3*%
X155250000Y-66570000D03*
%TD*%
%TO.C,H3*%
X157790000Y-66570000D03*
%TD*%
%TO.C,H3*%
X160330000Y-66570000D03*
%TD*%
%TO.C,H3*%
X162870000Y-66570000D03*
%TD*%
%TO.C,H3*%
X165410000Y-66570000D03*
%TD*%
%TO.C,H3*%
X167950000Y-66570000D03*
%TD*%
%TO.C,H3*%
X170490000Y-66570000D03*
%TD*%
%TO.C,H3*%
X173030000Y-66570000D03*
%TD*%
%TO.C,H3*%
X175570000Y-66570000D03*
%TD*%
%TO.C,H3*%
X178110000Y-66570000D03*
%TD*%
%TO.C,H3*%
X180650000Y-66570000D03*
%TD*%
%TO.C,H3*%
X183190000Y-66570000D03*
%TD*%
%TO.C,H3*%
X185730000Y-66570000D03*
%TD*%
%TO.C,H3*%
X188270000Y-66570000D03*
%TD*%
%TO.C,H3*%
X190810000Y-66570000D03*
%TD*%
%TO.C,H3*%
X193350000Y-66570000D03*
%TD*%
%TO.C,H3*%
X195890000Y-66570000D03*
%TD*%
%TO.C,H3*%
X198430000Y-66570000D03*
%TD*%
%TO.C,H3*%
X200970000Y-66570000D03*
%TD*%
%TO.C,H3*%
X203510000Y-66570000D03*
%TD*%
%TO.C,H3*%
X206050000Y-66570000D03*
%TD*%
%TO.C,H3*%
X208590000Y-66570000D03*
%TD*%
%TO.C,H3*%
X211130000Y-66570000D03*
%TD*%
%TO.C,H3*%
X213670000Y-66570000D03*
%TD*%
%TO.C,H3*%
X216210000Y-66570000D03*
%TD*%
%TO.C,H3*%
X218750000Y-66570000D03*
%TD*%
%TO.C,H3*%
X221290000Y-66570000D03*
%TD*%
%TO.C,H3*%
X223830000Y-66570000D03*
%TD*%
%TO.C,H3*%
X106990000Y-64030000D03*
%TD*%
%TO.C,H3*%
X109530000Y-64030000D03*
%TD*%
%TO.C,H3*%
X112070000Y-64030000D03*
%TD*%
%TO.C,H3*%
X114610000Y-64030000D03*
%TD*%
%TO.C,H3*%
X117150000Y-64030000D03*
%TD*%
%TO.C,H3*%
X119690000Y-64030000D03*
%TD*%
%TO.C,H3*%
X122230000Y-64030000D03*
%TD*%
%TO.C,H3*%
X124770000Y-64030000D03*
%TD*%
%TO.C,H3*%
X127310000Y-64030000D03*
%TD*%
%TO.C,H3*%
X129850000Y-64030000D03*
%TD*%
%TO.C,H3*%
X132390000Y-64030000D03*
%TD*%
%TO.C,H3*%
X134930000Y-64030000D03*
%TD*%
%TO.C,H3*%
X137470000Y-64030000D03*
%TD*%
%TO.C,H3*%
X140010000Y-64030000D03*
%TD*%
%TO.C,H3*%
X142550000Y-64030000D03*
%TD*%
%TO.C,H3*%
X145090000Y-64030000D03*
%TD*%
%TO.C,H3*%
X147630000Y-64030000D03*
%TD*%
%TO.C,H3*%
X150170000Y-64030000D03*
%TD*%
%TO.C,H3*%
X152710000Y-64030000D03*
%TD*%
%TO.C,H3*%
X155250000Y-64030000D03*
%TD*%
%TO.C,H3*%
X157790000Y-64030000D03*
%TD*%
%TO.C,H3*%
X160330000Y-64030000D03*
%TD*%
%TO.C,H3*%
X162870000Y-64030000D03*
%TD*%
%TO.C,H3*%
X165410000Y-64030000D03*
%TD*%
%TO.C,H3*%
X167950000Y-64030000D03*
%TD*%
%TO.C,H3*%
X170490000Y-64030000D03*
%TD*%
%TO.C,H3*%
X173030000Y-64030000D03*
%TD*%
%TO.C,H3*%
X175570000Y-64030000D03*
%TD*%
%TO.C,H3*%
X178110000Y-64030000D03*
%TD*%
%TO.C,H3*%
X180650000Y-64030000D03*
%TD*%
%TO.C,H3*%
X183190000Y-64030000D03*
%TD*%
%TO.C,H3*%
X185730000Y-64030000D03*
%TD*%
%TO.C,H3*%
X188270000Y-64030000D03*
%TD*%
%TO.C,H3*%
X190810000Y-64030000D03*
%TD*%
%TO.C,H3*%
X193350000Y-64030000D03*
%TD*%
%TO.C,H3*%
X195890000Y-64030000D03*
%TD*%
%TO.C,H3*%
X198430000Y-64030000D03*
%TD*%
%TO.C,H3*%
X200970000Y-64030000D03*
%TD*%
%TO.C,H3*%
X203510000Y-64030000D03*
%TD*%
%TO.C,H3*%
X206050000Y-64030000D03*
%TD*%
%TO.C,H3*%
X208590000Y-64030000D03*
%TD*%
%TO.C,H3*%
X211130000Y-64030000D03*
%TD*%
%TO.C,H3*%
X213670000Y-64030000D03*
%TD*%
%TO.C,H3*%
X216210000Y-64030000D03*
%TD*%
%TO.C,H3*%
X218750000Y-64030000D03*
%TD*%
%TO.C,H3*%
X221290000Y-64030000D03*
%TD*%
%TO.C,H3*%
X223830000Y-64030000D03*
%TD*%
%TO.C,H3*%
X106990000Y-61490000D03*
%TD*%
%TO.C,H3*%
X109530000Y-61490000D03*
%TD*%
%TO.C,H3*%
X112070000Y-61490000D03*
%TD*%
%TO.C,H3*%
X114610000Y-61490000D03*
%TD*%
%TO.C,H3*%
X117150000Y-61490000D03*
%TD*%
%TO.C,H3*%
X119690000Y-61490000D03*
%TD*%
%TO.C,H3*%
X122230000Y-61490000D03*
%TD*%
%TO.C,H3*%
X124770000Y-61490000D03*
%TD*%
%TO.C,H3*%
X127310000Y-61490000D03*
%TD*%
%TO.C,H3*%
X129850000Y-61490000D03*
%TD*%
%TO.C,H3*%
X132390000Y-61490000D03*
%TD*%
%TO.C,H3*%
X134930000Y-61490000D03*
%TD*%
%TO.C,H3*%
X137470000Y-61490000D03*
%TD*%
%TO.C,H3*%
X140010000Y-61490000D03*
%TD*%
%TO.C,H3*%
X142550000Y-61490000D03*
%TD*%
%TO.C,H3*%
X145090000Y-61490000D03*
%TD*%
%TO.C,H3*%
X147630000Y-61490000D03*
%TD*%
%TO.C,H3*%
X150170000Y-61490000D03*
%TD*%
%TO.C,H3*%
X152710000Y-61490000D03*
%TD*%
%TO.C,H3*%
X155250000Y-61490000D03*
%TD*%
%TO.C,H3*%
X157790000Y-61490000D03*
%TD*%
%TO.C,H3*%
X160330000Y-61490000D03*
%TD*%
%TO.C,H3*%
X162870000Y-61490000D03*
%TD*%
%TO.C,H3*%
X165410000Y-61490000D03*
%TD*%
%TO.C,H3*%
X167950000Y-61490000D03*
%TD*%
%TO.C,H3*%
X170490000Y-61490000D03*
%TD*%
%TO.C,H3*%
X173030000Y-61490000D03*
%TD*%
%TO.C,H3*%
X175570000Y-61490000D03*
%TD*%
%TO.C,H3*%
X178110000Y-61490000D03*
%TD*%
%TO.C,H3*%
X180650000Y-61490000D03*
%TD*%
%TO.C,H3*%
X183190000Y-61490000D03*
%TD*%
%TO.C,H3*%
X185730000Y-61490000D03*
%TD*%
%TO.C,H3*%
X188270000Y-61490000D03*
%TD*%
%TO.C,H3*%
X190810000Y-61490000D03*
%TD*%
%TO.C,H3*%
X193350000Y-61490000D03*
%TD*%
%TO.C,H3*%
X195890000Y-61490000D03*
%TD*%
%TO.C,H3*%
X198430000Y-61490000D03*
%TD*%
%TO.C,H3*%
X200970000Y-61490000D03*
%TD*%
%TO.C,H3*%
X203510000Y-61490000D03*
%TD*%
%TO.C,H3*%
X206050000Y-61490000D03*
%TD*%
%TO.C,H3*%
X211130000Y-61490000D03*
%TD*%
%TO.C,H3*%
X213670000Y-61490000D03*
%TD*%
%TO.C,H3*%
X106990000Y-58950000D03*
%TD*%
%TO.C,H3*%
X109530000Y-58950000D03*
%TD*%
%TO.C,H3*%
X112070000Y-58950000D03*
%TD*%
%TO.C,H3*%
X114610000Y-58950000D03*
%TD*%
%TO.C,H3*%
X117150000Y-58950000D03*
%TD*%
%TO.C,H3*%
X119690000Y-58950000D03*
%TD*%
%TO.C,H3*%
X122230000Y-58950000D03*
%TD*%
%TO.C,H3*%
X124770000Y-58950000D03*
%TD*%
%TO.C,H3*%
X127310000Y-58950000D03*
%TD*%
%TO.C,H3*%
X129850000Y-58950000D03*
%TD*%
%TO.C,H3*%
X132390000Y-58950000D03*
%TD*%
%TO.C,H3*%
X134930000Y-58950000D03*
%TD*%
%TO.C,H3*%
X137470000Y-58950000D03*
%TD*%
%TO.C,H3*%
X140010000Y-58950000D03*
%TD*%
%TO.C,H3*%
X142550000Y-58950000D03*
%TD*%
%TO.C,H3*%
X145090000Y-58950000D03*
%TD*%
%TO.C,H3*%
X147630000Y-58950000D03*
%TD*%
%TO.C,H3*%
X150170000Y-58950000D03*
%TD*%
%TO.C,H3*%
X152710000Y-58950000D03*
%TD*%
%TO.C,H3*%
X155250000Y-58950000D03*
%TD*%
%TO.C,H3*%
X157790000Y-58950000D03*
%TD*%
%TO.C,H3*%
X160330000Y-58950000D03*
%TD*%
%TO.C,H3*%
X162870000Y-58950000D03*
%TD*%
%TO.C,H3*%
X165410000Y-58950000D03*
%TD*%
%TO.C,H3*%
X167950000Y-58950000D03*
%TD*%
%TO.C,H3*%
X170490000Y-58950000D03*
%TD*%
%TO.C,H3*%
X173030000Y-58950000D03*
%TD*%
%TO.C,H3*%
X175570000Y-58950000D03*
%TD*%
%TO.C,H3*%
X178110000Y-58950000D03*
%TD*%
%TO.C,H3*%
X180650000Y-58950000D03*
%TD*%
%TO.C,H3*%
X183190000Y-58950000D03*
%TD*%
%TO.C,H3*%
X185730000Y-58950000D03*
%TD*%
%TO.C,H3*%
X188270000Y-58950000D03*
%TD*%
%TO.C,H3*%
X190810000Y-58950000D03*
%TD*%
%TO.C,H3*%
X193350000Y-58950000D03*
%TD*%
%TO.C,H3*%
X195890000Y-58950000D03*
%TD*%
%TO.C,H3*%
X198430000Y-58950000D03*
%TD*%
%TO.C,H3*%
X200970000Y-58950000D03*
%TD*%
%TO.C,H3*%
X203510000Y-58950000D03*
%TD*%
%TO.C,H3*%
X106990000Y-56410000D03*
%TD*%
%TO.C,H3*%
X109530000Y-56410000D03*
%TD*%
%TO.C,H3*%
X112070000Y-56410000D03*
%TD*%
%TO.C,H3*%
X114610000Y-56410000D03*
%TD*%
%TO.C,H3*%
X117150000Y-56410000D03*
%TD*%
%TO.C,H3*%
X119690000Y-56410000D03*
%TD*%
%TO.C,H3*%
X122230000Y-56410000D03*
%TD*%
%TO.C,H3*%
X124770000Y-56410000D03*
%TD*%
%TO.C,H3*%
X127310000Y-56410000D03*
%TD*%
%TO.C,H3*%
X129850000Y-56410000D03*
%TD*%
%TO.C,H3*%
X132390000Y-56410000D03*
%TD*%
%TO.C,H3*%
X134930000Y-56410000D03*
%TD*%
%TO.C,H3*%
X137470000Y-56410000D03*
%TD*%
%TO.C,H3*%
X140010000Y-56410000D03*
%TD*%
%TO.C,H3*%
X142550000Y-56410000D03*
%TD*%
%TO.C,H3*%
X145090000Y-56410000D03*
%TD*%
%TO.C,H3*%
X147630000Y-56410000D03*
%TD*%
%TO.C,H3*%
X150170000Y-56410000D03*
%TD*%
%TO.C,H3*%
X152710000Y-56410000D03*
%TD*%
%TO.C,H3*%
X155250000Y-56410000D03*
%TD*%
%TO.C,H3*%
X157790000Y-56410000D03*
%TD*%
%TO.C,H3*%
X160330000Y-56410000D03*
%TD*%
%TO.C,H3*%
X162870000Y-56410000D03*
%TD*%
%TO.C,H3*%
X165410000Y-56410000D03*
%TD*%
%TO.C,H3*%
X167950000Y-56410000D03*
%TD*%
%TO.C,H3*%
X170490000Y-56410000D03*
%TD*%
%TO.C,H3*%
X173030000Y-56410000D03*
%TD*%
%TO.C,H3*%
X175570000Y-56410000D03*
%TD*%
%TO.C,H3*%
X178110000Y-56410000D03*
%TD*%
%TO.C,H3*%
X180650000Y-56410000D03*
%TD*%
%TO.C,H3*%
X183190000Y-56410000D03*
%TD*%
%TO.C,H3*%
X185730000Y-56410000D03*
%TD*%
%TO.C,H3*%
X188270000Y-56410000D03*
%TD*%
%TO.C,H3*%
X190810000Y-56410000D03*
%TD*%
%TO.C,H3*%
X193350000Y-56410000D03*
%TD*%
%TO.C,H3*%
X195890000Y-56410000D03*
%TD*%
%TO.C,H3*%
X198430000Y-56410000D03*
%TD*%
%TO.C,H3*%
X200970000Y-56410000D03*
%TD*%
%TO.C,H3*%
X203510000Y-56410000D03*
%TD*%
%TO.C,H3*%
X206050000Y-56410000D03*
%TD*%
%TO.C,H3*%
X211130000Y-56410000D03*
%TD*%
%TO.C,H3*%
X106990000Y-53870000D03*
%TD*%
%TO.C,H3*%
X109530000Y-53870000D03*
%TD*%
%TO.C,H3*%
X112070000Y-53870000D03*
%TD*%
%TO.C,H3*%
X114610000Y-53870000D03*
%TD*%
%TO.C,H3*%
X117150000Y-53870000D03*
%TD*%
%TO.C,H3*%
X119690000Y-53870000D03*
%TD*%
%TO.C,H3*%
X122230000Y-53870000D03*
%TD*%
%TO.C,H3*%
X124770000Y-53870000D03*
%TD*%
%TO.C,H3*%
X127310000Y-53870000D03*
%TD*%
%TO.C,H3*%
X129850000Y-53870000D03*
%TD*%
%TO.C,H3*%
X132390000Y-53870000D03*
%TD*%
%TO.C,H3*%
X134930000Y-53870000D03*
%TD*%
%TO.C,H3*%
X137470000Y-53870000D03*
%TD*%
%TO.C,H3*%
X140010000Y-53870000D03*
%TD*%
%TO.C,H3*%
X142550000Y-53870000D03*
%TD*%
%TO.C,H3*%
X145090000Y-53870000D03*
%TD*%
%TO.C,H3*%
X147630000Y-53870000D03*
%TD*%
%TO.C,H3*%
X150170000Y-53870000D03*
%TD*%
%TO.C,H3*%
X152710000Y-53870000D03*
%TD*%
%TO.C,H3*%
X155250000Y-53870000D03*
%TD*%
%TO.C,H3*%
X157790000Y-53870000D03*
%TD*%
%TO.C,H3*%
X160330000Y-53870000D03*
%TD*%
%TO.C,H3*%
X162870000Y-53870000D03*
%TD*%
%TO.C,H3*%
X165410000Y-53870000D03*
%TD*%
%TO.C,H3*%
X167950000Y-53870000D03*
%TD*%
%TO.C,H3*%
X170490000Y-53870000D03*
%TD*%
%TO.C,H3*%
X173030000Y-53870000D03*
%TD*%
%TO.C,H3*%
X175570000Y-53870000D03*
%TD*%
%TO.C,H3*%
X178110000Y-53870000D03*
%TD*%
%TO.C,H3*%
X180650000Y-53870000D03*
%TD*%
%TO.C,H3*%
X183190000Y-53870000D03*
%TD*%
%TO.C,H3*%
X185730000Y-53870000D03*
%TD*%
%TO.C,H3*%
X188270000Y-53870000D03*
%TD*%
%TO.C,H3*%
X190810000Y-53870000D03*
%TD*%
%TO.C,H3*%
X193350000Y-53870000D03*
%TD*%
%TO.C,H3*%
X195890000Y-53870000D03*
%TD*%
%TO.C,H3*%
X198430000Y-53870000D03*
%TD*%
%TO.C,H3*%
X200970000Y-53870000D03*
%TD*%
%TO.C,H3*%
X203510000Y-53870000D03*
%TD*%
%TO.C,H3*%
X206050000Y-53870000D03*
%TD*%
%TO.C,H3*%
X208590000Y-53870000D03*
%TD*%
%TO.C,H3*%
X211130000Y-53870000D03*
%TD*%
%TO.C,H3*%
X213670000Y-53870000D03*
%TD*%
%TO.C,H3*%
X216210000Y-53870000D03*
%TD*%
%TO.C,H3*%
X218750000Y-53870000D03*
%TD*%
%TO.C,H3*%
X221290000Y-53870000D03*
%TD*%
%TO.C,H3*%
X223830000Y-53870000D03*
%TD*%
%TO.C,H3*%
X106990000Y-51330000D03*
%TD*%
%TO.C,H3*%
X109530000Y-51330000D03*
%TD*%
%TO.C,H3*%
X112070000Y-51330000D03*
%TD*%
%TO.C,H3*%
X114610000Y-51330000D03*
%TD*%
%TO.C,H3*%
X117150000Y-51330000D03*
%TD*%
%TO.C,H3*%
X119690000Y-51330000D03*
%TD*%
%TO.C,H3*%
X122230000Y-51330000D03*
%TD*%
%TO.C,H3*%
X124770000Y-51330000D03*
%TD*%
%TO.C,H3*%
X127310000Y-51330000D03*
%TD*%
%TO.C,H3*%
X129850000Y-51330000D03*
%TD*%
%TO.C,H3*%
X132390000Y-51330000D03*
%TD*%
%TO.C,H3*%
X134930000Y-51330000D03*
%TD*%
%TO.C,H3*%
X137470000Y-51330000D03*
%TD*%
%TO.C,H3*%
X140010000Y-51330000D03*
%TD*%
%TO.C,H3*%
X142550000Y-51330000D03*
%TD*%
%TO.C,H3*%
X145090000Y-51330000D03*
%TD*%
%TO.C,H3*%
X147630000Y-51330000D03*
%TD*%
%TO.C,H3*%
X150170000Y-51330000D03*
%TD*%
%TO.C,H3*%
X152710000Y-51330000D03*
%TD*%
%TO.C,H3*%
X155250000Y-51330000D03*
%TD*%
%TO.C,H3*%
X157790000Y-51330000D03*
%TD*%
%TO.C,H3*%
X160330000Y-51330000D03*
%TD*%
%TO.C,H3*%
X162870000Y-51330000D03*
%TD*%
%TO.C,H3*%
X165410000Y-51330000D03*
%TD*%
%TO.C,H3*%
X167950000Y-51330000D03*
%TD*%
%TO.C,H3*%
X170490000Y-51330000D03*
%TD*%
%TO.C,H3*%
X173030000Y-51330000D03*
%TD*%
%TO.C,H3*%
X175570000Y-51330000D03*
%TD*%
%TO.C,H3*%
X178110000Y-51330000D03*
%TD*%
%TO.C,H3*%
X180650000Y-51330000D03*
%TD*%
%TO.C,H3*%
X183190000Y-51330000D03*
%TD*%
%TO.C,H3*%
X185730000Y-51330000D03*
%TD*%
%TO.C,H3*%
X188270000Y-51330000D03*
%TD*%
%TO.C,H3*%
X190810000Y-51330000D03*
%TD*%
%TO.C,H3*%
X193350000Y-51330000D03*
%TD*%
%TO.C,H3*%
X195890000Y-51330000D03*
%TD*%
%TO.C,H3*%
X198430000Y-51330000D03*
%TD*%
%TO.C,H3*%
X200970000Y-51330000D03*
%TD*%
%TO.C,H3*%
X203510000Y-51330000D03*
%TD*%
%TO.C,H3*%
X206050000Y-51330000D03*
%TD*%
%TO.C,H3*%
X208590000Y-51330000D03*
%TD*%
%TO.C,H3*%
X211130000Y-51330000D03*
%TD*%
%TO.C,H3*%
X213670000Y-51330000D03*
%TD*%
%TO.C,H3*%
X216210000Y-51330000D03*
%TD*%
%TO.C,H3*%
X218750000Y-51330000D03*
%TD*%
%TO.C,H3*%
X221290000Y-51330000D03*
%TD*%
%TO.C,H3*%
X223830000Y-51330000D03*
%TD*%
%TO.C,H3*%
X106990000Y-48790000D03*
%TD*%
%TO.C,H3*%
X109530000Y-48790000D03*
%TD*%
%TO.C,H3*%
X112070000Y-48790000D03*
%TD*%
%TO.C,H3*%
X114610000Y-48790000D03*
%TD*%
%TO.C,H3*%
X117150000Y-48790000D03*
%TD*%
%TO.C,H3*%
X119690000Y-48790000D03*
%TD*%
%TO.C,H3*%
X122230000Y-48790000D03*
%TD*%
%TO.C,H3*%
X124770000Y-48790000D03*
%TD*%
%TO.C,H3*%
X127310000Y-48790000D03*
%TD*%
%TO.C,H3*%
X129850000Y-48790000D03*
%TD*%
%TO.C,H3*%
X132390000Y-48790000D03*
%TD*%
%TO.C,H3*%
X134930000Y-48790000D03*
%TD*%
%TO.C,H3*%
X137470000Y-48790000D03*
%TD*%
%TO.C,H3*%
X140010000Y-48790000D03*
%TD*%
%TO.C,H3*%
X142550000Y-48790000D03*
%TD*%
%TO.C,H3*%
X145090000Y-48790000D03*
%TD*%
%TO.C,H3*%
X147630000Y-48790000D03*
%TD*%
%TO.C,H3*%
X150170000Y-48790000D03*
%TD*%
%TO.C,H3*%
X152710000Y-48790000D03*
%TD*%
%TO.C,H3*%
X155250000Y-48790000D03*
%TD*%
%TO.C,H3*%
X157790000Y-48790000D03*
%TD*%
%TO.C,H3*%
X160330000Y-48790000D03*
%TD*%
%TO.C,H3*%
X162870000Y-48790000D03*
%TD*%
%TO.C,H3*%
X165410000Y-48790000D03*
%TD*%
%TO.C,H3*%
X167950000Y-48790000D03*
%TD*%
%TO.C,H3*%
X170490000Y-48790000D03*
%TD*%
%TO.C,H3*%
X173030000Y-48790000D03*
%TD*%
%TO.C,H3*%
X175570000Y-48790000D03*
%TD*%
%TO.C,H3*%
X178110000Y-48790000D03*
%TD*%
%TO.C,H3*%
X180650000Y-48790000D03*
%TD*%
%TO.C,H3*%
X183190000Y-48790000D03*
%TD*%
%TO.C,H3*%
X185730000Y-48790000D03*
%TD*%
%TO.C,H3*%
X188270000Y-48790000D03*
%TD*%
%TO.C,H3*%
X190810000Y-48790000D03*
%TD*%
%TO.C,H3*%
X193350000Y-48790000D03*
%TD*%
%TO.C,H3*%
X195890000Y-48790000D03*
%TD*%
%TO.C,H3*%
X198430000Y-48790000D03*
%TD*%
%TO.C,H3*%
X200970000Y-48790000D03*
%TD*%
%TO.C,H3*%
X203510000Y-48790000D03*
%TD*%
%TO.C,H3*%
X206050000Y-48790000D03*
%TD*%
%TO.C,H3*%
X208590000Y-48790000D03*
%TD*%
%TO.C,H3*%
X211130000Y-48790000D03*
%TD*%
%TO.C,H3*%
X213670000Y-48790000D03*
%TD*%
%TO.C,H3*%
X216210000Y-48790000D03*
%TD*%
%TO.C,H3*%
X218750000Y-48790000D03*
%TD*%
%TO.C,H3*%
X221290000Y-48790000D03*
%TD*%
%TO.C,H3*%
X223830000Y-48790000D03*
%TD*%
%TO.C,H3*%
X106990000Y-46250000D03*
%TD*%
%TO.C,H3*%
X109530000Y-46250000D03*
%TD*%
%TO.C,H3*%
X112070000Y-46250000D03*
%TD*%
%TO.C,H3*%
X114610000Y-46250000D03*
%TD*%
%TO.C,H3*%
X117150000Y-46250000D03*
%TD*%
%TO.C,H3*%
X119690000Y-46250000D03*
%TD*%
%TO.C,H3*%
X122230000Y-46250000D03*
%TD*%
%TO.C,H3*%
X124770000Y-46250000D03*
%TD*%
%TO.C,H3*%
X127310000Y-46250000D03*
%TD*%
%TO.C,H3*%
X129850000Y-46250000D03*
%TD*%
%TO.C,H3*%
X132390000Y-46250000D03*
%TD*%
%TO.C,H3*%
X134930000Y-46250000D03*
%TD*%
%TO.C,H3*%
X137470000Y-46250000D03*
%TD*%
%TO.C,H3*%
X140010000Y-46250000D03*
%TD*%
%TO.C,H3*%
X142550000Y-46250000D03*
%TD*%
%TO.C,H3*%
X145090000Y-46250000D03*
%TD*%
%TO.C,H3*%
X147630000Y-46250000D03*
%TD*%
%TO.C,H3*%
X150170000Y-46250000D03*
%TD*%
%TO.C,H3*%
X152710000Y-46250000D03*
%TD*%
%TO.C,H3*%
X155250000Y-46250000D03*
%TD*%
%TO.C,H3*%
X157790000Y-46250000D03*
%TD*%
%TO.C,H3*%
X160330000Y-46250000D03*
%TD*%
%TO.C,H3*%
X162870000Y-46250000D03*
%TD*%
%TO.C,H3*%
X165410000Y-46250000D03*
%TD*%
%TO.C,H3*%
X167950000Y-46250000D03*
%TD*%
%TO.C,H3*%
X170490000Y-46250000D03*
%TD*%
%TO.C,H3*%
X173030000Y-46250000D03*
%TD*%
%TO.C,H3*%
X175570000Y-46250000D03*
%TD*%
%TO.C,H3*%
X178110000Y-46250000D03*
%TD*%
%TO.C,H3*%
X180650000Y-46250000D03*
%TD*%
%TO.C,H3*%
X183190000Y-46250000D03*
%TD*%
%TO.C,H3*%
X185730000Y-46250000D03*
%TD*%
%TO.C,H3*%
X188270000Y-46250000D03*
%TD*%
%TO.C,H3*%
X190810000Y-46250000D03*
%TD*%
%TO.C,H3*%
X193350000Y-46250000D03*
%TD*%
%TO.C,H3*%
X195890000Y-46250000D03*
%TD*%
%TO.C,H3*%
X198430000Y-46250000D03*
%TD*%
%TO.C,H3*%
X200970000Y-46250000D03*
%TD*%
%TO.C,H3*%
X203510000Y-46250000D03*
%TD*%
%TO.C,H3*%
X206050000Y-46250000D03*
%TD*%
%TO.C,H3*%
X208590000Y-46250000D03*
%TD*%
%TO.C,H3*%
X211130000Y-46250000D03*
%TD*%
%TO.C,H3*%
X213670000Y-46250000D03*
%TD*%
%TO.C,H3*%
X216210000Y-46250000D03*
%TD*%
%TO.C,H3*%
X218750000Y-46250000D03*
%TD*%
%TO.C,H3*%
X221290000Y-46250000D03*
%TD*%
%TO.C,H3*%
X223830000Y-46250000D03*
%TD*%
%TO.C,H3*%
X106990000Y-43710000D03*
%TD*%
%TO.C,H3*%
X109530000Y-43710000D03*
%TD*%
%TO.C,H3*%
X112070000Y-43710000D03*
%TD*%
%TO.C,H3*%
X114610000Y-43710000D03*
%TD*%
%TO.C,H3*%
X117150000Y-43710000D03*
%TD*%
%TO.C,H3*%
X119690000Y-43710000D03*
%TD*%
%TO.C,H3*%
X122230000Y-43710000D03*
%TD*%
%TO.C,H3*%
X124770000Y-43710000D03*
%TD*%
%TO.C,H3*%
X127310000Y-43710000D03*
%TD*%
%TO.C,H3*%
X129850000Y-43710000D03*
%TD*%
%TO.C,H3*%
X132390000Y-43710000D03*
%TD*%
%TO.C,H3*%
X134930000Y-43710000D03*
%TD*%
%TO.C,H3*%
X137470000Y-43710000D03*
%TD*%
%TO.C,H3*%
X140010000Y-43710000D03*
%TD*%
%TO.C,H3*%
X142550000Y-43710000D03*
%TD*%
%TO.C,H3*%
X145090000Y-43710000D03*
%TD*%
%TO.C,H3*%
X147630000Y-43710000D03*
%TD*%
%TO.C,H3*%
X150170000Y-43710000D03*
%TD*%
%TO.C,H3*%
X152710000Y-43710000D03*
%TD*%
%TO.C,H3*%
X155250000Y-43710000D03*
%TD*%
%TO.C,H3*%
X157790000Y-43710000D03*
%TD*%
%TO.C,H3*%
X160330000Y-43710000D03*
%TD*%
%TO.C,H3*%
X162870000Y-43710000D03*
%TD*%
%TO.C,H3*%
X165410000Y-43710000D03*
%TD*%
%TO.C,H3*%
X167950000Y-43710000D03*
%TD*%
%TO.C,H3*%
X170490000Y-43710000D03*
%TD*%
%TO.C,H3*%
X173030000Y-43710000D03*
%TD*%
%TO.C,H3*%
X175570000Y-43710000D03*
%TD*%
%TO.C,H3*%
X178110000Y-43710000D03*
%TD*%
%TO.C,H3*%
X180650000Y-43710000D03*
%TD*%
%TO.C,H3*%
X183190000Y-43710000D03*
%TD*%
%TO.C,H3*%
X185730000Y-43710000D03*
%TD*%
%TO.C,H3*%
X188270000Y-43710000D03*
%TD*%
%TO.C,H3*%
X190810000Y-43710000D03*
%TD*%
%TO.C,H3*%
X193350000Y-43710000D03*
%TD*%
%TO.C,H3*%
X195890000Y-43710000D03*
%TD*%
%TO.C,H3*%
X198430000Y-43710000D03*
%TD*%
%TO.C,H3*%
X200970000Y-43710000D03*
%TD*%
%TO.C,H3*%
X203510000Y-43710000D03*
%TD*%
%TO.C,H3*%
X206050000Y-43710000D03*
%TD*%
%TO.C,H3*%
X208590000Y-43710000D03*
%TD*%
%TO.C,H3*%
X211130000Y-43710000D03*
%TD*%
%TO.C,H3*%
X213670000Y-43710000D03*
%TD*%
%TO.C,H3*%
X216210000Y-43710000D03*
%TD*%
%TO.C,H3*%
X218750000Y-43710000D03*
%TD*%
%TO.C,H3*%
X221290000Y-43710000D03*
%TD*%
%TO.C,H3*%
X223830000Y-43710000D03*
%TD*%
%TO.C,H3*%
X106990000Y-41170000D03*
%TD*%
%TO.C,H3*%
X109530000Y-41170000D03*
%TD*%
%TO.C,H3*%
X112070000Y-41170000D03*
%TD*%
%TO.C,H3*%
X114610000Y-41170000D03*
%TD*%
%TO.C,H3*%
X117150000Y-41170000D03*
%TD*%
%TO.C,H3*%
X119690000Y-41170000D03*
%TD*%
%TO.C,H3*%
X122230000Y-41170000D03*
%TD*%
%TO.C,H3*%
X124770000Y-41170000D03*
%TD*%
%TO.C,H3*%
X127310000Y-41170000D03*
%TD*%
%TO.C,H3*%
X129850000Y-41170000D03*
%TD*%
%TO.C,H3*%
X132390000Y-41170000D03*
%TD*%
%TO.C,H3*%
X134930000Y-41170000D03*
%TD*%
%TO.C,H3*%
X137470000Y-41170000D03*
%TD*%
%TO.C,H3*%
X140010000Y-41170000D03*
%TD*%
%TO.C,H3*%
X142550000Y-41170000D03*
%TD*%
%TO.C,H3*%
X145090000Y-41170000D03*
%TD*%
%TO.C,H3*%
X147630000Y-41170000D03*
%TD*%
%TO.C,H3*%
X150170000Y-41170000D03*
%TD*%
%TO.C,H3*%
X152710000Y-41170000D03*
%TD*%
%TO.C,H3*%
X155250000Y-41170000D03*
%TD*%
%TO.C,H3*%
X157790000Y-41170000D03*
%TD*%
%TO.C,H3*%
X160330000Y-41170000D03*
%TD*%
%TO.C,H3*%
X162870000Y-41170000D03*
%TD*%
%TO.C,H3*%
X165410000Y-41170000D03*
%TD*%
%TO.C,H3*%
X167950000Y-41170000D03*
%TD*%
%TO.C,H3*%
X170490000Y-41170000D03*
%TD*%
%TO.C,H3*%
X173030000Y-41170000D03*
%TD*%
%TO.C,H3*%
X175570000Y-41170000D03*
%TD*%
%TO.C,H3*%
X178110000Y-41170000D03*
%TD*%
%TO.C,H3*%
X180650000Y-41170000D03*
%TD*%
%TO.C,H3*%
X183190000Y-41170000D03*
%TD*%
%TO.C,H3*%
X185730000Y-41170000D03*
%TD*%
%TO.C,H3*%
X188270000Y-41170000D03*
%TD*%
%TO.C,H3*%
X190810000Y-41170000D03*
%TD*%
%TO.C,H3*%
X193350000Y-41170000D03*
%TD*%
%TO.C,H3*%
X195890000Y-41170000D03*
%TD*%
%TO.C,H3*%
X198430000Y-41170000D03*
%TD*%
%TO.C,H3*%
X200970000Y-41170000D03*
%TD*%
%TO.C,H3*%
X203510000Y-41170000D03*
%TD*%
%TO.C,H3*%
X206050000Y-41170000D03*
%TD*%
%TO.C,H3*%
X208590000Y-41170000D03*
%TD*%
%TO.C,H3*%
X211130000Y-41170000D03*
%TD*%
%TO.C,H3*%
X213670000Y-41170000D03*
%TD*%
%TO.C,H3*%
X216210000Y-41170000D03*
%TD*%
%TO.C,H3*%
X218750000Y-41170000D03*
%TD*%
%TO.C,H3*%
X221290000Y-41170000D03*
%TD*%
D11*
%TO.C,J8*%
X75000000Y-112960000D03*
X75000000Y-110420000D03*
X75000000Y-107880000D03*
X75000000Y-105340000D03*
X75000000Y-102800000D03*
X75000000Y-100260000D03*
X75000000Y-97720000D03*
X75000000Y-95180000D03*
X75000000Y-92640000D03*
X75000000Y-90100000D03*
X75000000Y-87560000D03*
D12*
X75000000Y-85020000D03*
%TD*%
D11*
%TO.C,J7*%
X75000000Y-79940000D03*
X75000000Y-77400000D03*
X75000000Y-74860000D03*
X75000000Y-72320000D03*
X75000000Y-69780000D03*
X75000000Y-67240000D03*
X75000000Y-64700000D03*
X75000000Y-62160000D03*
X75000000Y-59620000D03*
X75000000Y-57080000D03*
X75000000Y-54540000D03*
D12*
X75000000Y-52000000D03*
%TD*%
D10*
%TO.C,H3*%
X223830000Y-41170000D03*
%TD*%
%TO.C,J6*%
G36*
G01*
X214450000Y-98600001D02*
X214450000Y-96999999D01*
G75*
G02*
X214699999Y-96750000I249999J0D01*
G01*
X216300001Y-96750000D01*
G75*
G02*
X216550000Y-96999999I0J-249999D01*
G01*
X216550000Y-98600001D01*
G75*
G02*
X216300001Y-98850000I-249999J0D01*
G01*
X214699999Y-98850000D01*
G75*
G02*
X214450000Y-98600001I0J249999D01*
G01*
G37*
%TD*%
%TO.C,J5*%
G36*
G01*
X214450000Y-59000001D02*
X214450000Y-57399999D01*
G75*
G02*
X214699999Y-57150000I249999J0D01*
G01*
X216300001Y-57150000D01*
G75*
G02*
X216550000Y-57399999I0J-249999D01*
G01*
X216550000Y-59000001D01*
G75*
G02*
X216300001Y-59250000I-249999J0D01*
G01*
X214699999Y-59250000D01*
G75*
G02*
X214450000Y-59000001I0J249999D01*
G01*
G37*
%TD*%
D13*
%TO.C,J4*%
X99160000Y-105460000D03*
X96620000Y-105460000D03*
X94080000Y-105460000D03*
X91540000Y-105460000D03*
X89000000Y-105460000D03*
X99160000Y-108000000D03*
X96620000Y-108000000D03*
X94080000Y-108000000D03*
X91540000Y-108000000D03*
G36*
G01*
X89600000Y-108850000D02*
X88400000Y-108850000D01*
G75*
G02*
X88150000Y-108600000I0J250000D01*
G01*
X88150000Y-107400000D01*
G75*
G02*
X88400000Y-107150000I250000J0D01*
G01*
X89600000Y-107150000D01*
G75*
G02*
X89850000Y-107400000I0J-250000D01*
G01*
X89850000Y-108600000D01*
G75*
G02*
X89600000Y-108850000I-250000J0D01*
G01*
G37*
%TD*%
%TO.C,J3*%
X99160000Y-90460000D03*
X96620000Y-90460000D03*
X94080000Y-90460000D03*
X91540000Y-90460000D03*
X89000000Y-90460000D03*
X99160000Y-93000000D03*
X96620000Y-93000000D03*
X94080000Y-93000000D03*
X91540000Y-93000000D03*
G36*
G01*
X89600000Y-93850000D02*
X88400000Y-93850000D01*
G75*
G02*
X88150000Y-93600000I0J250000D01*
G01*
X88150000Y-92400000D01*
G75*
G02*
X88400000Y-92150000I250000J0D01*
G01*
X89600000Y-92150000D01*
G75*
G02*
X89850000Y-92400000I0J-250000D01*
G01*
X89850000Y-93600000D01*
G75*
G02*
X89600000Y-93850000I-250000J0D01*
G01*
G37*
%TD*%
%TO.C,J2*%
X99160000Y-75460000D03*
X96620000Y-75460000D03*
X94080000Y-75460000D03*
X91540000Y-75460000D03*
X89000000Y-75460000D03*
X99160000Y-78000000D03*
X96620000Y-78000000D03*
X94080000Y-78000000D03*
X91540000Y-78000000D03*
G36*
G01*
X89600000Y-78850000D02*
X88400000Y-78850000D01*
G75*
G02*
X88150000Y-78600000I0J250000D01*
G01*
X88150000Y-77400000D01*
G75*
G02*
X88400000Y-77150000I250000J0D01*
G01*
X89600000Y-77150000D01*
G75*
G02*
X89850000Y-77400000I0J-250000D01*
G01*
X89850000Y-78600000D01*
G75*
G02*
X89600000Y-78850000I-250000J0D01*
G01*
G37*
%TD*%
%TO.C,J1*%
X99160000Y-60460000D03*
X96620000Y-60460000D03*
X94080000Y-60460000D03*
X91540000Y-60460000D03*
X89000000Y-60460000D03*
X99160000Y-63000000D03*
X96620000Y-63000000D03*
X94080000Y-63000000D03*
X91540000Y-63000000D03*
G36*
G01*
X89600000Y-63850000D02*
X88400000Y-63850000D01*
G75*
G02*
X88150000Y-63600000I0J250000D01*
G01*
X88150000Y-62400000D01*
G75*
G02*
X88400000Y-62150000I250000J0D01*
G01*
X89600000Y-62150000D01*
G75*
G02*
X89850000Y-62400000I0J-250000D01*
G01*
X89850000Y-63600000D01*
G75*
G02*
X89600000Y-63850000I-250000J0D01*
G01*
G37*
%TD*%
D14*
%TO.C,H2*%
X208590000Y-97050000D03*
%TD*%
%TO.C,H1*%
X208590000Y-58950000D03*
%TD*%
D15*
%TO.C,U1*%
X42760000Y-102130000D03*
X42760000Y-53870000D03*
G36*
G01*
X45825002Y-97825000D02*
X44774998Y-97825000D01*
G75*
G02*
X44525000Y-97575002I0J249998D01*
G01*
X44525000Y-96524998D01*
G75*
G02*
X44774998Y-96275000I249998J0D01*
G01*
X45825002Y-96275000D01*
G75*
G02*
X46075000Y-96524998I0J-249998D01*
G01*
X46075000Y-97575002D01*
G75*
G02*
X45825002Y-97825000I-249998J0D01*
G01*
G37*
D16*
X45300000Y-94510000D03*
X45300000Y-91970000D03*
X45300000Y-89430000D03*
X45300000Y-86890000D03*
X45300000Y-84350000D03*
X45300000Y-81810000D03*
X45300000Y-79270000D03*
X45300000Y-76730000D03*
X45300000Y-74190000D03*
X45300000Y-71650000D03*
X45300000Y-69110000D03*
X45300000Y-66570000D03*
X45300000Y-64030000D03*
X45300000Y-61490000D03*
X45300000Y-58950000D03*
X50380000Y-97050000D03*
X50380000Y-94510000D03*
X50380000Y-91970000D03*
X50380000Y-89430000D03*
X50380000Y-86890000D03*
X50380000Y-84350000D03*
X50380000Y-81810000D03*
X50380000Y-79270000D03*
X50380000Y-76730000D03*
X50380000Y-74190000D03*
X50380000Y-71650000D03*
X50380000Y-69110000D03*
X50380000Y-66570000D03*
X50380000Y-64030000D03*
X50380000Y-61490000D03*
X50380000Y-58950000D03*
%TD*%
M02*
