%TF.GenerationSoftware,KiCad,Pcbnew,5.99.0+really5.1.10+dfsg1-1*%
%TF.CreationDate,2021-12-05T23:28:57+01:00*%
%TF.ProjectId,RiserCard,52697365-7243-4617-9264-2e6b69636164,rev?*%
%TF.SameCoordinates,Original*%
%TF.FileFunction,Soldermask,Top*%
%TF.FilePolarity,Negative*%
%FSLAX46Y46*%
G04 Gerber Fmt 4.6, Leading zero omitted, Abs format (unit mm)*
G04 Created by KiCad (PCBNEW 5.99.0+really5.1.10+dfsg1-1) date 2021-12-05 23:28:57*
%MOMM*%
%LPD*%
G01*
G04 APERTURE LIST*
%ADD10C,0.010000*%
%ADD11O,1.700000X1.700000*%
%ADD12R,1.700000X1.700000*%
%ADD13R,1.560000X0.650000*%
%ADD14R,0.800000X0.500000*%
%ADD15R,0.800000X0.400000*%
%ADD16C,1.700000*%
%ADD17C,3.200000*%
%ADD18C,2.850000*%
%ADD19C,1.550000*%
G04 APERTURE END LIST*
D10*
%TO.C,MARK2*%
G36*
X42634364Y-40926219D02*
G01*
X42656629Y-40954776D01*
X42683419Y-40994820D01*
X42709821Y-41038891D01*
X42716278Y-41050573D01*
X42730577Y-41076624D01*
X42754039Y-41118928D01*
X42785441Y-41175295D01*
X42823557Y-41243535D01*
X42867164Y-41321460D01*
X42915037Y-41406878D01*
X42965952Y-41497602D01*
X43018685Y-41591440D01*
X43022175Y-41597646D01*
X43282568Y-42060667D01*
X43717432Y-42060667D01*
X43977825Y-41597646D01*
X44030634Y-41503679D01*
X44081706Y-41412685D01*
X44129816Y-41326851D01*
X44173740Y-41248369D01*
X44212254Y-41179427D01*
X44244133Y-41122215D01*
X44268153Y-41078922D01*
X44283089Y-41051739D01*
X44283722Y-41050573D01*
X44309171Y-41006695D01*
X44336341Y-40964821D01*
X44360320Y-40932409D01*
X44365635Y-40926219D01*
X44402046Y-40885917D01*
X44588252Y-40885917D01*
X44619671Y-40928639D01*
X44630485Y-40946772D01*
X44649174Y-40982005D01*
X44674702Y-41032235D01*
X44706035Y-41095363D01*
X44742139Y-41169286D01*
X44781979Y-41251903D01*
X44824521Y-41341113D01*
X44865860Y-41428702D01*
X44939077Y-41584583D01*
X45004269Y-41723210D01*
X45062409Y-41846488D01*
X45114472Y-41956324D01*
X45161430Y-42054623D01*
X45204256Y-42143289D01*
X45243923Y-42224229D01*
X45281404Y-42299347D01*
X45317673Y-42370550D01*
X45353702Y-42439742D01*
X45390465Y-42508830D01*
X45428934Y-42579718D01*
X45470083Y-42654313D01*
X45514884Y-42734518D01*
X45564312Y-42822241D01*
X45619338Y-42919386D01*
X45680936Y-43027859D01*
X45696641Y-43055500D01*
X46066458Y-43706375D01*
X46069988Y-43824352D01*
X46071068Y-43879398D01*
X46069906Y-43919998D01*
X46065687Y-43952826D01*
X46057598Y-43984555D01*
X46046433Y-44017415D01*
X46000529Y-44126189D01*
X45943644Y-44225673D01*
X45872274Y-44321427D01*
X45813016Y-44387952D01*
X45796807Y-44402980D01*
X45765108Y-44430335D01*
X45718981Y-44469151D01*
X45659488Y-44518563D01*
X45587690Y-44577704D01*
X45504650Y-44645708D01*
X45411430Y-44721711D01*
X45309092Y-44804845D01*
X45198698Y-44894246D01*
X45081309Y-44989046D01*
X44957989Y-45088382D01*
X44829799Y-45191386D01*
X44697801Y-45297193D01*
X44693340Y-45300764D01*
X43637722Y-46145833D01*
X43497423Y-46145044D01*
X43357125Y-46144255D01*
X42316371Y-45310315D01*
X42185376Y-45205272D01*
X42058222Y-45103155D01*
X41935970Y-45004826D01*
X41819684Y-44911144D01*
X41710424Y-44822971D01*
X41609252Y-44741166D01*
X41517231Y-44666590D01*
X41435422Y-44600104D01*
X41364888Y-44542568D01*
X41306689Y-44494844D01*
X41261889Y-44457791D01*
X41231549Y-44432270D01*
X41217055Y-44419458D01*
X41173600Y-44373535D01*
X41126863Y-44318039D01*
X41081243Y-44258743D01*
X41041140Y-44201417D01*
X41010956Y-44151835D01*
X41006372Y-44143111D01*
X40989128Y-44105975D01*
X40969621Y-44059369D01*
X40953475Y-44017161D01*
X40941277Y-43980857D01*
X40933665Y-43949349D01*
X40929829Y-43915969D01*
X40928958Y-43874052D01*
X40929332Y-43856399D01*
X41081930Y-43856399D01*
X41093404Y-43901650D01*
X41115794Y-43956425D01*
X41147365Y-44017723D01*
X41186383Y-44082544D01*
X41231111Y-44147886D01*
X41279816Y-44210749D01*
X41330762Y-44268131D01*
X41352934Y-44290380D01*
X41367610Y-44303272D01*
X41396416Y-44327443D01*
X41437658Y-44361528D01*
X41489642Y-44404160D01*
X41550675Y-44453974D01*
X41619063Y-44509603D01*
X41693112Y-44569681D01*
X41771128Y-44632842D01*
X41851418Y-44697720D01*
X41932289Y-44762949D01*
X42012045Y-44827163D01*
X42088995Y-44888996D01*
X42161443Y-44947081D01*
X42227696Y-45000054D01*
X42286061Y-45046546D01*
X42334844Y-45085193D01*
X42372351Y-45114629D01*
X42396889Y-45133486D01*
X42406763Y-45140400D01*
X42406824Y-45140409D01*
X42404406Y-45131015D01*
X42396249Y-45105247D01*
X42383536Y-45066730D01*
X42367453Y-45019094D01*
X42362355Y-45004171D01*
X42294510Y-44821984D01*
X42213700Y-44632040D01*
X42122511Y-44439371D01*
X42023527Y-44249012D01*
X41919334Y-44065995D01*
X41812518Y-43895356D01*
X41734346Y-43781462D01*
X41692445Y-43726903D01*
X41642045Y-43667398D01*
X41586856Y-43606799D01*
X41530589Y-43548958D01*
X41476952Y-43497729D01*
X41429656Y-43456964D01*
X41402518Y-43436858D01*
X41370110Y-43415962D01*
X41344381Y-43400747D01*
X41330457Y-43394225D01*
X41329916Y-43394167D01*
X41322635Y-43402913D01*
X41306940Y-43427064D01*
X41284634Y-43463484D01*
X41257518Y-43509037D01*
X41227395Y-43560588D01*
X41196064Y-43615003D01*
X41165329Y-43669146D01*
X41136990Y-43719881D01*
X41112849Y-43764075D01*
X41094708Y-43798591D01*
X41084367Y-43820295D01*
X41083108Y-43823674D01*
X41081930Y-43856399D01*
X40929332Y-43856399D01*
X40930012Y-43824352D01*
X40933542Y-43706375D01*
X41204453Y-43229573D01*
X41418055Y-43229573D01*
X41425732Y-43239257D01*
X41448100Y-43254089D01*
X41480378Y-43270916D01*
X41481555Y-43271468D01*
X41510990Y-43287084D01*
X41541240Y-43307561D01*
X41575465Y-43335517D01*
X41616826Y-43373571D01*
X41668483Y-43424339D01*
X41679667Y-43435582D01*
X41776478Y-43540020D01*
X41869592Y-43654886D01*
X41960481Y-43782349D01*
X42050615Y-43924580D01*
X42141467Y-44083748D01*
X42217804Y-44228958D01*
X42303159Y-44401904D01*
X42376437Y-44561877D01*
X42438974Y-44712277D01*
X42492104Y-44856507D01*
X42537165Y-44997967D01*
X42575273Y-45139175D01*
X42589089Y-45194181D01*
X42601604Y-45242257D01*
X42611761Y-45279466D01*
X42618499Y-45301870D01*
X42620173Y-45306148D01*
X42630102Y-45316129D01*
X42654115Y-45337159D01*
X42689709Y-45367138D01*
X42734379Y-45403968D01*
X42785622Y-45445551D01*
X42806792Y-45462558D01*
X42870916Y-45513358D01*
X42920740Y-45551430D01*
X42957939Y-45577928D01*
X42984191Y-45594004D01*
X43001173Y-45600812D01*
X43007875Y-45600860D01*
X43028840Y-45595196D01*
X43062589Y-45586194D01*
X43097833Y-45576855D01*
X43120326Y-45571649D01*
X43145749Y-45567525D01*
X43176709Y-45564369D01*
X43215813Y-45562067D01*
X43265667Y-45560506D01*
X43328877Y-45559573D01*
X43408052Y-45559155D01*
X43505292Y-45559137D01*
X43600183Y-45559348D01*
X43676657Y-45559802D01*
X43737465Y-45560654D01*
X43785357Y-45562057D01*
X43823081Y-45564165D01*
X43853390Y-45567134D01*
X43879031Y-45571116D01*
X43902756Y-45576267D01*
X43927315Y-45582740D01*
X43927571Y-45582811D01*
X43969691Y-45593081D01*
X44002592Y-45598358D01*
X44021299Y-45597896D01*
X44022821Y-45597110D01*
X44060294Y-45567994D01*
X44104835Y-45532772D01*
X44153630Y-45493740D01*
X44203859Y-45453197D01*
X44252708Y-45413438D01*
X44297358Y-45376759D01*
X44334993Y-45345459D01*
X44362796Y-45321832D01*
X44377950Y-45308177D01*
X44379827Y-45306043D01*
X44384611Y-45291916D01*
X44393306Y-45261147D01*
X44404853Y-45217671D01*
X44418194Y-45165421D01*
X44424727Y-45139175D01*
X44426431Y-45132864D01*
X44601986Y-45132864D01*
X44603317Y-45132702D01*
X44613751Y-45124405D01*
X44639244Y-45104059D01*
X44678327Y-45072837D01*
X44729532Y-45031915D01*
X44791391Y-44982465D01*
X44862433Y-44925662D01*
X44941191Y-44862680D01*
X45026196Y-44794694D01*
X45115979Y-44722876D01*
X45119250Y-44720259D01*
X45232870Y-44629221D01*
X45331212Y-44550022D01*
X45415654Y-44481440D01*
X45487569Y-44422246D01*
X45548333Y-44371216D01*
X45599322Y-44327124D01*
X45641910Y-44288745D01*
X45677474Y-44254853D01*
X45707389Y-44224221D01*
X45733029Y-44195626D01*
X45755770Y-44167840D01*
X45776988Y-44139638D01*
X45787866Y-44124417D01*
X45826905Y-44064520D01*
X45860982Y-44003627D01*
X45888539Y-43945366D01*
X45908022Y-43893362D01*
X45917874Y-43851242D01*
X45916892Y-43823674D01*
X45909083Y-43806159D01*
X45892964Y-43774946D01*
X45870336Y-43733169D01*
X45843000Y-43683965D01*
X45812760Y-43630467D01*
X45781415Y-43575811D01*
X45750767Y-43523133D01*
X45722619Y-43475567D01*
X45698771Y-43436249D01*
X45681026Y-43408313D01*
X45671184Y-43394895D01*
X45670083Y-43394167D01*
X45657603Y-43399666D01*
X45632813Y-43414157D01*
X45600836Y-43434625D01*
X45597481Y-43436858D01*
X45556766Y-43468097D01*
X45507135Y-43512474D01*
X45452300Y-43566135D01*
X45395969Y-43625228D01*
X45341852Y-43685902D01*
X45293658Y-43744303D01*
X45265653Y-43781462D01*
X45158096Y-43940582D01*
X45051350Y-44115768D01*
X44947996Y-44301993D01*
X44850614Y-44494230D01*
X44761787Y-44687453D01*
X44684094Y-44876634D01*
X44637202Y-45005464D01*
X44621175Y-45054151D01*
X44609388Y-45093774D01*
X44602704Y-45121092D01*
X44601986Y-45132864D01*
X44426431Y-45132864D01*
X44463090Y-44997098D01*
X44508196Y-44855632D01*
X44561381Y-44711374D01*
X44623979Y-44560925D01*
X44697327Y-44400883D01*
X44782196Y-44228958D01*
X44874742Y-44054226D01*
X44965359Y-43898216D01*
X45055520Y-43758759D01*
X45146696Y-43633685D01*
X45240357Y-43520824D01*
X45320333Y-43435582D01*
X45374292Y-43382115D01*
X45417357Y-43341858D01*
X45452690Y-43312194D01*
X45483449Y-43290503D01*
X45512795Y-43274169D01*
X45518444Y-43271468D01*
X45550968Y-43254629D01*
X45573738Y-43239680D01*
X45581975Y-43229777D01*
X45581944Y-43229573D01*
X45576363Y-43218166D01*
X45561452Y-43190436D01*
X45538361Y-43148453D01*
X45508243Y-43094285D01*
X45472246Y-43029999D01*
X45431523Y-42957663D01*
X45387223Y-42879346D01*
X45378774Y-42864448D01*
X45326831Y-42772187D01*
X45278780Y-42685150D01*
X45233036Y-42600230D01*
X45188010Y-42514317D01*
X45142115Y-42424304D01*
X45093766Y-42327083D01*
X45041375Y-42219545D01*
X44983355Y-42098583D01*
X44925168Y-41976000D01*
X44876291Y-41872556D01*
X44828680Y-41771619D01*
X44783379Y-41675412D01*
X44741429Y-41586154D01*
X44703872Y-41506067D01*
X44671750Y-41437372D01*
X44646107Y-41382290D01*
X44627983Y-41343041D01*
X44622233Y-41330417D01*
X44597031Y-41275500D01*
X44569922Y-41217866D01*
X44544907Y-41165963D01*
X44532322Y-41140601D01*
X44492592Y-41061910D01*
X44473032Y-41087684D01*
X44461697Y-41105586D01*
X44442877Y-41138584D01*
X44418655Y-41182892D01*
X44391110Y-41234724D01*
X44371609Y-41272208D01*
X44343760Y-41325649D01*
X44318604Y-41372868D01*
X44297994Y-41410471D01*
X44283779Y-41435066D01*
X44278519Y-41442841D01*
X44271083Y-41454369D01*
X44254477Y-41482393D01*
X44229840Y-41524922D01*
X44198309Y-41579966D01*
X44161023Y-41645533D01*
X44119119Y-41719633D01*
X44073737Y-41800275D01*
X44050333Y-41842004D01*
X43833375Y-42229285D01*
X43773037Y-42229642D01*
X43726263Y-42226844D01*
X43675167Y-42219326D01*
X43651751Y-42214125D01*
X43591194Y-42203598D01*
X43519323Y-42199058D01*
X43445128Y-42200503D01*
X43377598Y-42207934D01*
X43348249Y-42214125D01*
X43301234Y-42223326D01*
X43250212Y-42228873D01*
X43226963Y-42229642D01*
X43166625Y-42229285D01*
X42949667Y-41842004D01*
X42902983Y-41758861D01*
X42859214Y-41681273D01*
X42819500Y-41611233D01*
X42784978Y-41550731D01*
X42756786Y-41501757D01*
X42736062Y-41466304D01*
X42723944Y-41446361D01*
X42721481Y-41442841D01*
X42713073Y-41429824D01*
X42696925Y-41401333D01*
X42674886Y-41360762D01*
X42648810Y-41311503D01*
X42628390Y-41272208D01*
X42599777Y-41217429D01*
X42573075Y-41167608D01*
X42550367Y-41126531D01*
X42533732Y-41097985D01*
X42526968Y-41087684D01*
X42507408Y-41061910D01*
X42467678Y-41140601D01*
X42445928Y-41184806D01*
X42419628Y-41239926D01*
X42392782Y-41297511D01*
X42377767Y-41330417D01*
X42363647Y-41361225D01*
X42341504Y-41408939D01*
X42312380Y-41471339D01*
X42277318Y-41546203D01*
X42237359Y-41631310D01*
X42193545Y-41724439D01*
X42146919Y-41823369D01*
X42098524Y-41925880D01*
X42074831Y-41976000D01*
X42010407Y-42111661D01*
X41953035Y-42231108D01*
X41901130Y-42337447D01*
X41853105Y-42433789D01*
X41807372Y-42523240D01*
X41762345Y-42608908D01*
X41716437Y-42693903D01*
X41668062Y-42781331D01*
X41621226Y-42864448D01*
X41576394Y-42943641D01*
X41534926Y-43017232D01*
X41497973Y-43083154D01*
X41466687Y-43139340D01*
X41442217Y-43183720D01*
X41425714Y-43214227D01*
X41418330Y-43228794D01*
X41418055Y-43229573D01*
X41204453Y-43229573D01*
X41303359Y-43055500D01*
X41366661Y-42944056D01*
X41423160Y-42844393D01*
X41473830Y-42754604D01*
X41519642Y-42672786D01*
X41561570Y-42597031D01*
X41600588Y-42525435D01*
X41637668Y-42456092D01*
X41673783Y-42387097D01*
X41709907Y-42316544D01*
X41747012Y-42242528D01*
X41786072Y-42163144D01*
X41828059Y-42076486D01*
X41873947Y-41980648D01*
X41924709Y-41873725D01*
X41981318Y-41753812D01*
X42044747Y-41619004D01*
X42115969Y-41467394D01*
X42134139Y-41428702D01*
X42178272Y-41335225D01*
X42220672Y-41246375D01*
X42260303Y-41164253D01*
X42296132Y-41090960D01*
X42327123Y-41028598D01*
X42352243Y-40979268D01*
X42370457Y-40945071D01*
X42380329Y-40928639D01*
X42411748Y-40885917D01*
X42597953Y-40885917D01*
X42634364Y-40926219D01*
G37*
X42634364Y-40926219D02*
X42656629Y-40954776D01*
X42683419Y-40994820D01*
X42709821Y-41038891D01*
X42716278Y-41050573D01*
X42730577Y-41076624D01*
X42754039Y-41118928D01*
X42785441Y-41175295D01*
X42823557Y-41243535D01*
X42867164Y-41321460D01*
X42915037Y-41406878D01*
X42965952Y-41497602D01*
X43018685Y-41591440D01*
X43022175Y-41597646D01*
X43282568Y-42060667D01*
X43717432Y-42060667D01*
X43977825Y-41597646D01*
X44030634Y-41503679D01*
X44081706Y-41412685D01*
X44129816Y-41326851D01*
X44173740Y-41248369D01*
X44212254Y-41179427D01*
X44244133Y-41122215D01*
X44268153Y-41078922D01*
X44283089Y-41051739D01*
X44283722Y-41050573D01*
X44309171Y-41006695D01*
X44336341Y-40964821D01*
X44360320Y-40932409D01*
X44365635Y-40926219D01*
X44402046Y-40885917D01*
X44588252Y-40885917D01*
X44619671Y-40928639D01*
X44630485Y-40946772D01*
X44649174Y-40982005D01*
X44674702Y-41032235D01*
X44706035Y-41095363D01*
X44742139Y-41169286D01*
X44781979Y-41251903D01*
X44824521Y-41341113D01*
X44865860Y-41428702D01*
X44939077Y-41584583D01*
X45004269Y-41723210D01*
X45062409Y-41846488D01*
X45114472Y-41956324D01*
X45161430Y-42054623D01*
X45204256Y-42143289D01*
X45243923Y-42224229D01*
X45281404Y-42299347D01*
X45317673Y-42370550D01*
X45353702Y-42439742D01*
X45390465Y-42508830D01*
X45428934Y-42579718D01*
X45470083Y-42654313D01*
X45514884Y-42734518D01*
X45564312Y-42822241D01*
X45619338Y-42919386D01*
X45680936Y-43027859D01*
X45696641Y-43055500D01*
X46066458Y-43706375D01*
X46069988Y-43824352D01*
X46071068Y-43879398D01*
X46069906Y-43919998D01*
X46065687Y-43952826D01*
X46057598Y-43984555D01*
X46046433Y-44017415D01*
X46000529Y-44126189D01*
X45943644Y-44225673D01*
X45872274Y-44321427D01*
X45813016Y-44387952D01*
X45796807Y-44402980D01*
X45765108Y-44430335D01*
X45718981Y-44469151D01*
X45659488Y-44518563D01*
X45587690Y-44577704D01*
X45504650Y-44645708D01*
X45411430Y-44721711D01*
X45309092Y-44804845D01*
X45198698Y-44894246D01*
X45081309Y-44989046D01*
X44957989Y-45088382D01*
X44829799Y-45191386D01*
X44697801Y-45297193D01*
X44693340Y-45300764D01*
X43637722Y-46145833D01*
X43497423Y-46145044D01*
X43357125Y-46144255D01*
X42316371Y-45310315D01*
X42185376Y-45205272D01*
X42058222Y-45103155D01*
X41935970Y-45004826D01*
X41819684Y-44911144D01*
X41710424Y-44822971D01*
X41609252Y-44741166D01*
X41517231Y-44666590D01*
X41435422Y-44600104D01*
X41364888Y-44542568D01*
X41306689Y-44494844D01*
X41261889Y-44457791D01*
X41231549Y-44432270D01*
X41217055Y-44419458D01*
X41173600Y-44373535D01*
X41126863Y-44318039D01*
X41081243Y-44258743D01*
X41041140Y-44201417D01*
X41010956Y-44151835D01*
X41006372Y-44143111D01*
X40989128Y-44105975D01*
X40969621Y-44059369D01*
X40953475Y-44017161D01*
X40941277Y-43980857D01*
X40933665Y-43949349D01*
X40929829Y-43915969D01*
X40928958Y-43874052D01*
X40929332Y-43856399D01*
X41081930Y-43856399D01*
X41093404Y-43901650D01*
X41115794Y-43956425D01*
X41147365Y-44017723D01*
X41186383Y-44082544D01*
X41231111Y-44147886D01*
X41279816Y-44210749D01*
X41330762Y-44268131D01*
X41352934Y-44290380D01*
X41367610Y-44303272D01*
X41396416Y-44327443D01*
X41437658Y-44361528D01*
X41489642Y-44404160D01*
X41550675Y-44453974D01*
X41619063Y-44509603D01*
X41693112Y-44569681D01*
X41771128Y-44632842D01*
X41851418Y-44697720D01*
X41932289Y-44762949D01*
X42012045Y-44827163D01*
X42088995Y-44888996D01*
X42161443Y-44947081D01*
X42227696Y-45000054D01*
X42286061Y-45046546D01*
X42334844Y-45085193D01*
X42372351Y-45114629D01*
X42396889Y-45133486D01*
X42406763Y-45140400D01*
X42406824Y-45140409D01*
X42404406Y-45131015D01*
X42396249Y-45105247D01*
X42383536Y-45066730D01*
X42367453Y-45019094D01*
X42362355Y-45004171D01*
X42294510Y-44821984D01*
X42213700Y-44632040D01*
X42122511Y-44439371D01*
X42023527Y-44249012D01*
X41919334Y-44065995D01*
X41812518Y-43895356D01*
X41734346Y-43781462D01*
X41692445Y-43726903D01*
X41642045Y-43667398D01*
X41586856Y-43606799D01*
X41530589Y-43548958D01*
X41476952Y-43497729D01*
X41429656Y-43456964D01*
X41402518Y-43436858D01*
X41370110Y-43415962D01*
X41344381Y-43400747D01*
X41330457Y-43394225D01*
X41329916Y-43394167D01*
X41322635Y-43402913D01*
X41306940Y-43427064D01*
X41284634Y-43463484D01*
X41257518Y-43509037D01*
X41227395Y-43560588D01*
X41196064Y-43615003D01*
X41165329Y-43669146D01*
X41136990Y-43719881D01*
X41112849Y-43764075D01*
X41094708Y-43798591D01*
X41084367Y-43820295D01*
X41083108Y-43823674D01*
X41081930Y-43856399D01*
X40929332Y-43856399D01*
X40930012Y-43824352D01*
X40933542Y-43706375D01*
X41204453Y-43229573D01*
X41418055Y-43229573D01*
X41425732Y-43239257D01*
X41448100Y-43254089D01*
X41480378Y-43270916D01*
X41481555Y-43271468D01*
X41510990Y-43287084D01*
X41541240Y-43307561D01*
X41575465Y-43335517D01*
X41616826Y-43373571D01*
X41668483Y-43424339D01*
X41679667Y-43435582D01*
X41776478Y-43540020D01*
X41869592Y-43654886D01*
X41960481Y-43782349D01*
X42050615Y-43924580D01*
X42141467Y-44083748D01*
X42217804Y-44228958D01*
X42303159Y-44401904D01*
X42376437Y-44561877D01*
X42438974Y-44712277D01*
X42492104Y-44856507D01*
X42537165Y-44997967D01*
X42575273Y-45139175D01*
X42589089Y-45194181D01*
X42601604Y-45242257D01*
X42611761Y-45279466D01*
X42618499Y-45301870D01*
X42620173Y-45306148D01*
X42630102Y-45316129D01*
X42654115Y-45337159D01*
X42689709Y-45367138D01*
X42734379Y-45403968D01*
X42785622Y-45445551D01*
X42806792Y-45462558D01*
X42870916Y-45513358D01*
X42920740Y-45551430D01*
X42957939Y-45577928D01*
X42984191Y-45594004D01*
X43001173Y-45600812D01*
X43007875Y-45600860D01*
X43028840Y-45595196D01*
X43062589Y-45586194D01*
X43097833Y-45576855D01*
X43120326Y-45571649D01*
X43145749Y-45567525D01*
X43176709Y-45564369D01*
X43215813Y-45562067D01*
X43265667Y-45560506D01*
X43328877Y-45559573D01*
X43408052Y-45559155D01*
X43505292Y-45559137D01*
X43600183Y-45559348D01*
X43676657Y-45559802D01*
X43737465Y-45560654D01*
X43785357Y-45562057D01*
X43823081Y-45564165D01*
X43853390Y-45567134D01*
X43879031Y-45571116D01*
X43902756Y-45576267D01*
X43927315Y-45582740D01*
X43927571Y-45582811D01*
X43969691Y-45593081D01*
X44002592Y-45598358D01*
X44021299Y-45597896D01*
X44022821Y-45597110D01*
X44060294Y-45567994D01*
X44104835Y-45532772D01*
X44153630Y-45493740D01*
X44203859Y-45453197D01*
X44252708Y-45413438D01*
X44297358Y-45376759D01*
X44334993Y-45345459D01*
X44362796Y-45321832D01*
X44377950Y-45308177D01*
X44379827Y-45306043D01*
X44384611Y-45291916D01*
X44393306Y-45261147D01*
X44404853Y-45217671D01*
X44418194Y-45165421D01*
X44424727Y-45139175D01*
X44426431Y-45132864D01*
X44601986Y-45132864D01*
X44603317Y-45132702D01*
X44613751Y-45124405D01*
X44639244Y-45104059D01*
X44678327Y-45072837D01*
X44729532Y-45031915D01*
X44791391Y-44982465D01*
X44862433Y-44925662D01*
X44941191Y-44862680D01*
X45026196Y-44794694D01*
X45115979Y-44722876D01*
X45119250Y-44720259D01*
X45232870Y-44629221D01*
X45331212Y-44550022D01*
X45415654Y-44481440D01*
X45487569Y-44422246D01*
X45548333Y-44371216D01*
X45599322Y-44327124D01*
X45641910Y-44288745D01*
X45677474Y-44254853D01*
X45707389Y-44224221D01*
X45733029Y-44195626D01*
X45755770Y-44167840D01*
X45776988Y-44139638D01*
X45787866Y-44124417D01*
X45826905Y-44064520D01*
X45860982Y-44003627D01*
X45888539Y-43945366D01*
X45908022Y-43893362D01*
X45917874Y-43851242D01*
X45916892Y-43823674D01*
X45909083Y-43806159D01*
X45892964Y-43774946D01*
X45870336Y-43733169D01*
X45843000Y-43683965D01*
X45812760Y-43630467D01*
X45781415Y-43575811D01*
X45750767Y-43523133D01*
X45722619Y-43475567D01*
X45698771Y-43436249D01*
X45681026Y-43408313D01*
X45671184Y-43394895D01*
X45670083Y-43394167D01*
X45657603Y-43399666D01*
X45632813Y-43414157D01*
X45600836Y-43434625D01*
X45597481Y-43436858D01*
X45556766Y-43468097D01*
X45507135Y-43512474D01*
X45452300Y-43566135D01*
X45395969Y-43625228D01*
X45341852Y-43685902D01*
X45293658Y-43744303D01*
X45265653Y-43781462D01*
X45158096Y-43940582D01*
X45051350Y-44115768D01*
X44947996Y-44301993D01*
X44850614Y-44494230D01*
X44761787Y-44687453D01*
X44684094Y-44876634D01*
X44637202Y-45005464D01*
X44621175Y-45054151D01*
X44609388Y-45093774D01*
X44602704Y-45121092D01*
X44601986Y-45132864D01*
X44426431Y-45132864D01*
X44463090Y-44997098D01*
X44508196Y-44855632D01*
X44561381Y-44711374D01*
X44623979Y-44560925D01*
X44697327Y-44400883D01*
X44782196Y-44228958D01*
X44874742Y-44054226D01*
X44965359Y-43898216D01*
X45055520Y-43758759D01*
X45146696Y-43633685D01*
X45240357Y-43520824D01*
X45320333Y-43435582D01*
X45374292Y-43382115D01*
X45417357Y-43341858D01*
X45452690Y-43312194D01*
X45483449Y-43290503D01*
X45512795Y-43274169D01*
X45518444Y-43271468D01*
X45550968Y-43254629D01*
X45573738Y-43239680D01*
X45581975Y-43229777D01*
X45581944Y-43229573D01*
X45576363Y-43218166D01*
X45561452Y-43190436D01*
X45538361Y-43148453D01*
X45508243Y-43094285D01*
X45472246Y-43029999D01*
X45431523Y-42957663D01*
X45387223Y-42879346D01*
X45378774Y-42864448D01*
X45326831Y-42772187D01*
X45278780Y-42685150D01*
X45233036Y-42600230D01*
X45188010Y-42514317D01*
X45142115Y-42424304D01*
X45093766Y-42327083D01*
X45041375Y-42219545D01*
X44983355Y-42098583D01*
X44925168Y-41976000D01*
X44876291Y-41872556D01*
X44828680Y-41771619D01*
X44783379Y-41675412D01*
X44741429Y-41586154D01*
X44703872Y-41506067D01*
X44671750Y-41437372D01*
X44646107Y-41382290D01*
X44627983Y-41343041D01*
X44622233Y-41330417D01*
X44597031Y-41275500D01*
X44569922Y-41217866D01*
X44544907Y-41165963D01*
X44532322Y-41140601D01*
X44492592Y-41061910D01*
X44473032Y-41087684D01*
X44461697Y-41105586D01*
X44442877Y-41138584D01*
X44418655Y-41182892D01*
X44391110Y-41234724D01*
X44371609Y-41272208D01*
X44343760Y-41325649D01*
X44318604Y-41372868D01*
X44297994Y-41410471D01*
X44283779Y-41435066D01*
X44278519Y-41442841D01*
X44271083Y-41454369D01*
X44254477Y-41482393D01*
X44229840Y-41524922D01*
X44198309Y-41579966D01*
X44161023Y-41645533D01*
X44119119Y-41719633D01*
X44073737Y-41800275D01*
X44050333Y-41842004D01*
X43833375Y-42229285D01*
X43773037Y-42229642D01*
X43726263Y-42226844D01*
X43675167Y-42219326D01*
X43651751Y-42214125D01*
X43591194Y-42203598D01*
X43519323Y-42199058D01*
X43445128Y-42200503D01*
X43377598Y-42207934D01*
X43348249Y-42214125D01*
X43301234Y-42223326D01*
X43250212Y-42228873D01*
X43226963Y-42229642D01*
X43166625Y-42229285D01*
X42949667Y-41842004D01*
X42902983Y-41758861D01*
X42859214Y-41681273D01*
X42819500Y-41611233D01*
X42784978Y-41550731D01*
X42756786Y-41501757D01*
X42736062Y-41466304D01*
X42723944Y-41446361D01*
X42721481Y-41442841D01*
X42713073Y-41429824D01*
X42696925Y-41401333D01*
X42674886Y-41360762D01*
X42648810Y-41311503D01*
X42628390Y-41272208D01*
X42599777Y-41217429D01*
X42573075Y-41167608D01*
X42550367Y-41126531D01*
X42533732Y-41097985D01*
X42526968Y-41087684D01*
X42507408Y-41061910D01*
X42467678Y-41140601D01*
X42445928Y-41184806D01*
X42419628Y-41239926D01*
X42392782Y-41297511D01*
X42377767Y-41330417D01*
X42363647Y-41361225D01*
X42341504Y-41408939D01*
X42312380Y-41471339D01*
X42277318Y-41546203D01*
X42237359Y-41631310D01*
X42193545Y-41724439D01*
X42146919Y-41823369D01*
X42098524Y-41925880D01*
X42074831Y-41976000D01*
X42010407Y-42111661D01*
X41953035Y-42231108D01*
X41901130Y-42337447D01*
X41853105Y-42433789D01*
X41807372Y-42523240D01*
X41762345Y-42608908D01*
X41716437Y-42693903D01*
X41668062Y-42781331D01*
X41621226Y-42864448D01*
X41576394Y-42943641D01*
X41534926Y-43017232D01*
X41497973Y-43083154D01*
X41466687Y-43139340D01*
X41442217Y-43183720D01*
X41425714Y-43214227D01*
X41418330Y-43228794D01*
X41418055Y-43229573D01*
X41204453Y-43229573D01*
X41303359Y-43055500D01*
X41366661Y-42944056D01*
X41423160Y-42844393D01*
X41473830Y-42754604D01*
X41519642Y-42672786D01*
X41561570Y-42597031D01*
X41600588Y-42525435D01*
X41637668Y-42456092D01*
X41673783Y-42387097D01*
X41709907Y-42316544D01*
X41747012Y-42242528D01*
X41786072Y-42163144D01*
X41828059Y-42076486D01*
X41873947Y-41980648D01*
X41924709Y-41873725D01*
X41981318Y-41753812D01*
X42044747Y-41619004D01*
X42115969Y-41467394D01*
X42134139Y-41428702D01*
X42178272Y-41335225D01*
X42220672Y-41246375D01*
X42260303Y-41164253D01*
X42296132Y-41090960D01*
X42327123Y-41028598D01*
X42352243Y-40979268D01*
X42370457Y-40945071D01*
X42380329Y-40928639D01*
X42411748Y-40885917D01*
X42597953Y-40885917D01*
X42634364Y-40926219D01*
%TD*%
D11*
%TO.C,J8*%
X75000000Y-112960000D03*
X75000000Y-110420000D03*
X75000000Y-107880000D03*
X75000000Y-105340000D03*
X75000000Y-102800000D03*
X75000000Y-100260000D03*
X75000000Y-97720000D03*
X75000000Y-95180000D03*
X75000000Y-92640000D03*
X75000000Y-90100000D03*
X75000000Y-87560000D03*
D12*
X75000000Y-85020000D03*
%TD*%
D11*
%TO.C,J7*%
X75000000Y-79940000D03*
X75000000Y-77400000D03*
X75000000Y-74860000D03*
X75000000Y-72320000D03*
X75000000Y-69780000D03*
X75000000Y-67240000D03*
X75000000Y-64700000D03*
X75000000Y-62160000D03*
X75000000Y-59620000D03*
X75000000Y-57080000D03*
X75000000Y-54540000D03*
D12*
X75000000Y-52000000D03*
%TD*%
%TO.C,R8*%
G36*
G01*
X219425000Y-94837500D02*
X219425000Y-94362500D01*
G75*
G02*
X219662500Y-94125000I237500J0D01*
G01*
X220162500Y-94125000D01*
G75*
G02*
X220400000Y-94362500I0J-237500D01*
G01*
X220400000Y-94837500D01*
G75*
G02*
X220162500Y-95075000I-237500J0D01*
G01*
X219662500Y-95075000D01*
G75*
G02*
X219425000Y-94837500I0J237500D01*
G01*
G37*
G36*
G01*
X217600000Y-94837500D02*
X217600000Y-94362500D01*
G75*
G02*
X217837500Y-94125000I237500J0D01*
G01*
X218337500Y-94125000D01*
G75*
G02*
X218575000Y-94362500I0J-237500D01*
G01*
X218575000Y-94837500D01*
G75*
G02*
X218337500Y-95075000I-237500J0D01*
G01*
X217837500Y-95075000D01*
G75*
G02*
X217600000Y-94837500I0J237500D01*
G01*
G37*
%TD*%
%TO.C,R7*%
G36*
G01*
X219425000Y-96437500D02*
X219425000Y-95962500D01*
G75*
G02*
X219662500Y-95725000I237500J0D01*
G01*
X220162500Y-95725000D01*
G75*
G02*
X220400000Y-95962500I0J-237500D01*
G01*
X220400000Y-96437500D01*
G75*
G02*
X220162500Y-96675000I-237500J0D01*
G01*
X219662500Y-96675000D01*
G75*
G02*
X219425000Y-96437500I0J237500D01*
G01*
G37*
G36*
G01*
X217600000Y-96437500D02*
X217600000Y-95962500D01*
G75*
G02*
X217837500Y-95725000I237500J0D01*
G01*
X218337500Y-95725000D01*
G75*
G02*
X218575000Y-95962500I0J-237500D01*
G01*
X218575000Y-96437500D01*
G75*
G02*
X218337500Y-96675000I-237500J0D01*
G01*
X217837500Y-96675000D01*
G75*
G02*
X217600000Y-96437500I0J237500D01*
G01*
G37*
%TD*%
%TO.C,R6*%
G36*
G01*
X219425000Y-61637500D02*
X219425000Y-61162500D01*
G75*
G02*
X219662500Y-60925000I237500J0D01*
G01*
X220162500Y-60925000D01*
G75*
G02*
X220400000Y-61162500I0J-237500D01*
G01*
X220400000Y-61637500D01*
G75*
G02*
X220162500Y-61875000I-237500J0D01*
G01*
X219662500Y-61875000D01*
G75*
G02*
X219425000Y-61637500I0J237500D01*
G01*
G37*
G36*
G01*
X217600000Y-61637500D02*
X217600000Y-61162500D01*
G75*
G02*
X217837500Y-60925000I237500J0D01*
G01*
X218337500Y-60925000D01*
G75*
G02*
X218575000Y-61162500I0J-237500D01*
G01*
X218575000Y-61637500D01*
G75*
G02*
X218337500Y-61875000I-237500J0D01*
G01*
X217837500Y-61875000D01*
G75*
G02*
X217600000Y-61637500I0J237500D01*
G01*
G37*
%TD*%
%TO.C,R5*%
G36*
G01*
X219425000Y-60037500D02*
X219425000Y-59562500D01*
G75*
G02*
X219662500Y-59325000I237500J0D01*
G01*
X220162500Y-59325000D01*
G75*
G02*
X220400000Y-59562500I0J-237500D01*
G01*
X220400000Y-60037500D01*
G75*
G02*
X220162500Y-60275000I-237500J0D01*
G01*
X219662500Y-60275000D01*
G75*
G02*
X219425000Y-60037500I0J237500D01*
G01*
G37*
G36*
G01*
X217600000Y-60037500D02*
X217600000Y-59562500D01*
G75*
G02*
X217837500Y-59325000I237500J0D01*
G01*
X218337500Y-59325000D01*
G75*
G02*
X218575000Y-59562500I0J-237500D01*
G01*
X218575000Y-60037500D01*
G75*
G02*
X218337500Y-60275000I-237500J0D01*
G01*
X217837500Y-60275000D01*
G75*
G02*
X217600000Y-60037500I0J237500D01*
G01*
G37*
%TD*%
%TO.C,R4*%
G36*
G01*
X218575000Y-97562500D02*
X218575000Y-98037500D01*
G75*
G02*
X218337500Y-98275000I-237500J0D01*
G01*
X217837500Y-98275000D01*
G75*
G02*
X217600000Y-98037500I0J237500D01*
G01*
X217600000Y-97562500D01*
G75*
G02*
X217837500Y-97325000I237500J0D01*
G01*
X218337500Y-97325000D01*
G75*
G02*
X218575000Y-97562500I0J-237500D01*
G01*
G37*
G36*
G01*
X220400000Y-97562500D02*
X220400000Y-98037500D01*
G75*
G02*
X220162500Y-98275000I-237500J0D01*
G01*
X219662500Y-98275000D01*
G75*
G02*
X219425000Y-98037500I0J237500D01*
G01*
X219425000Y-97562500D01*
G75*
G02*
X219662500Y-97325000I237500J0D01*
G01*
X220162500Y-97325000D01*
G75*
G02*
X220400000Y-97562500I0J-237500D01*
G01*
G37*
%TD*%
%TO.C,R3*%
G36*
G01*
X218575000Y-57962500D02*
X218575000Y-58437500D01*
G75*
G02*
X218337500Y-58675000I-237500J0D01*
G01*
X217837500Y-58675000D01*
G75*
G02*
X217600000Y-58437500I0J237500D01*
G01*
X217600000Y-57962500D01*
G75*
G02*
X217837500Y-57725000I237500J0D01*
G01*
X218337500Y-57725000D01*
G75*
G02*
X218575000Y-57962500I0J-237500D01*
G01*
G37*
G36*
G01*
X220400000Y-57962500D02*
X220400000Y-58437500D01*
G75*
G02*
X220162500Y-58675000I-237500J0D01*
G01*
X219662500Y-58675000D01*
G75*
G02*
X219425000Y-58437500I0J237500D01*
G01*
X219425000Y-57962500D01*
G75*
G02*
X219662500Y-57725000I237500J0D01*
G01*
X220162500Y-57725000D01*
G75*
G02*
X220400000Y-57962500I0J-237500D01*
G01*
G37*
%TD*%
%TO.C,R2*%
G36*
G01*
X218575000Y-99162500D02*
X218575000Y-99637500D01*
G75*
G02*
X218337500Y-99875000I-237500J0D01*
G01*
X217837500Y-99875000D01*
G75*
G02*
X217600000Y-99637500I0J237500D01*
G01*
X217600000Y-99162500D01*
G75*
G02*
X217837500Y-98925000I237500J0D01*
G01*
X218337500Y-98925000D01*
G75*
G02*
X218575000Y-99162500I0J-237500D01*
G01*
G37*
G36*
G01*
X220400000Y-99162500D02*
X220400000Y-99637500D01*
G75*
G02*
X220162500Y-99875000I-237500J0D01*
G01*
X219662500Y-99875000D01*
G75*
G02*
X219425000Y-99637500I0J237500D01*
G01*
X219425000Y-99162500D01*
G75*
G02*
X219662500Y-98925000I237500J0D01*
G01*
X220162500Y-98925000D01*
G75*
G02*
X220400000Y-99162500I0J-237500D01*
G01*
G37*
%TD*%
%TO.C,R1*%
G36*
G01*
X218575000Y-56362500D02*
X218575000Y-56837500D01*
G75*
G02*
X218337500Y-57075000I-237500J0D01*
G01*
X217837500Y-57075000D01*
G75*
G02*
X217600000Y-56837500I0J237500D01*
G01*
X217600000Y-56362500D01*
G75*
G02*
X217837500Y-56125000I237500J0D01*
G01*
X218337500Y-56125000D01*
G75*
G02*
X218575000Y-56362500I0J-237500D01*
G01*
G37*
G36*
G01*
X220400000Y-56362500D02*
X220400000Y-56837500D01*
G75*
G02*
X220162500Y-57075000I-237500J0D01*
G01*
X219662500Y-57075000D01*
G75*
G02*
X219425000Y-56837500I0J237500D01*
G01*
X219425000Y-56362500D01*
G75*
G02*
X219662500Y-56125000I237500J0D01*
G01*
X220162500Y-56125000D01*
G75*
G02*
X220400000Y-56362500I0J-237500D01*
G01*
G37*
%TD*%
%TO.C,J6*%
G36*
G01*
X214450000Y-98600000D02*
X214450000Y-97000000D01*
G75*
G02*
X214700000Y-96750000I250000J0D01*
G01*
X216300000Y-96750000D01*
G75*
G02*
X216550000Y-97000000I0J-250000D01*
G01*
X216550000Y-98600000D01*
G75*
G02*
X216300000Y-98850000I-250000J0D01*
G01*
X214700000Y-98850000D01*
G75*
G02*
X214450000Y-98600000I0J250000D01*
G01*
G37*
%TD*%
%TO.C,J5*%
G36*
G01*
X214450000Y-59000000D02*
X214450000Y-57400000D01*
G75*
G02*
X214700000Y-57150000I250000J0D01*
G01*
X216300000Y-57150000D01*
G75*
G02*
X216550000Y-57400000I0J-250000D01*
G01*
X216550000Y-59000000D01*
G75*
G02*
X216300000Y-59250000I-250000J0D01*
G01*
X214700000Y-59250000D01*
G75*
G02*
X214450000Y-59000000I0J250000D01*
G01*
G37*
%TD*%
%TO.C,D8*%
G36*
G01*
X223350000Y-94837500D02*
X223350000Y-94362500D01*
G75*
G02*
X223587500Y-94125000I237500J0D01*
G01*
X224162500Y-94125000D01*
G75*
G02*
X224400000Y-94362500I0J-237500D01*
G01*
X224400000Y-94837500D01*
G75*
G02*
X224162500Y-95075000I-237500J0D01*
G01*
X223587500Y-95075000D01*
G75*
G02*
X223350000Y-94837500I0J237500D01*
G01*
G37*
G36*
G01*
X221600000Y-94837500D02*
X221600000Y-94362500D01*
G75*
G02*
X221837500Y-94125000I237500J0D01*
G01*
X222412500Y-94125000D01*
G75*
G02*
X222650000Y-94362500I0J-237500D01*
G01*
X222650000Y-94837500D01*
G75*
G02*
X222412500Y-95075000I-237500J0D01*
G01*
X221837500Y-95075000D01*
G75*
G02*
X221600000Y-94837500I0J237500D01*
G01*
G37*
%TD*%
%TO.C,D7*%
G36*
G01*
X223350000Y-96437500D02*
X223350000Y-95962500D01*
G75*
G02*
X223587500Y-95725000I237500J0D01*
G01*
X224162500Y-95725000D01*
G75*
G02*
X224400000Y-95962500I0J-237500D01*
G01*
X224400000Y-96437500D01*
G75*
G02*
X224162500Y-96675000I-237500J0D01*
G01*
X223587500Y-96675000D01*
G75*
G02*
X223350000Y-96437500I0J237500D01*
G01*
G37*
G36*
G01*
X221600000Y-96437500D02*
X221600000Y-95962500D01*
G75*
G02*
X221837500Y-95725000I237500J0D01*
G01*
X222412500Y-95725000D01*
G75*
G02*
X222650000Y-95962500I0J-237500D01*
G01*
X222650000Y-96437500D01*
G75*
G02*
X222412500Y-96675000I-237500J0D01*
G01*
X221837500Y-96675000D01*
G75*
G02*
X221600000Y-96437500I0J237500D01*
G01*
G37*
%TD*%
%TO.C,D6*%
G36*
G01*
X223350000Y-61637500D02*
X223350000Y-61162500D01*
G75*
G02*
X223587500Y-60925000I237500J0D01*
G01*
X224162500Y-60925000D01*
G75*
G02*
X224400000Y-61162500I0J-237500D01*
G01*
X224400000Y-61637500D01*
G75*
G02*
X224162500Y-61875000I-237500J0D01*
G01*
X223587500Y-61875000D01*
G75*
G02*
X223350000Y-61637500I0J237500D01*
G01*
G37*
G36*
G01*
X221600000Y-61637500D02*
X221600000Y-61162500D01*
G75*
G02*
X221837500Y-60925000I237500J0D01*
G01*
X222412500Y-60925000D01*
G75*
G02*
X222650000Y-61162500I0J-237500D01*
G01*
X222650000Y-61637500D01*
G75*
G02*
X222412500Y-61875000I-237500J0D01*
G01*
X221837500Y-61875000D01*
G75*
G02*
X221600000Y-61637500I0J237500D01*
G01*
G37*
%TD*%
%TO.C,D5*%
G36*
G01*
X223350000Y-60037500D02*
X223350000Y-59562500D01*
G75*
G02*
X223587500Y-59325000I237500J0D01*
G01*
X224162500Y-59325000D01*
G75*
G02*
X224400000Y-59562500I0J-237500D01*
G01*
X224400000Y-60037500D01*
G75*
G02*
X224162500Y-60275000I-237500J0D01*
G01*
X223587500Y-60275000D01*
G75*
G02*
X223350000Y-60037500I0J237500D01*
G01*
G37*
G36*
G01*
X221600000Y-60037500D02*
X221600000Y-59562500D01*
G75*
G02*
X221837500Y-59325000I237500J0D01*
G01*
X222412500Y-59325000D01*
G75*
G02*
X222650000Y-59562500I0J-237500D01*
G01*
X222650000Y-60037500D01*
G75*
G02*
X222412500Y-60275000I-237500J0D01*
G01*
X221837500Y-60275000D01*
G75*
G02*
X221600000Y-60037500I0J237500D01*
G01*
G37*
%TD*%
%TO.C,D4*%
G36*
G01*
X222650000Y-97562500D02*
X222650000Y-98037500D01*
G75*
G02*
X222412500Y-98275000I-237500J0D01*
G01*
X221837500Y-98275000D01*
G75*
G02*
X221600000Y-98037500I0J237500D01*
G01*
X221600000Y-97562500D01*
G75*
G02*
X221837500Y-97325000I237500J0D01*
G01*
X222412500Y-97325000D01*
G75*
G02*
X222650000Y-97562500I0J-237500D01*
G01*
G37*
G36*
G01*
X224400000Y-97562500D02*
X224400000Y-98037500D01*
G75*
G02*
X224162500Y-98275000I-237500J0D01*
G01*
X223587500Y-98275000D01*
G75*
G02*
X223350000Y-98037500I0J237500D01*
G01*
X223350000Y-97562500D01*
G75*
G02*
X223587500Y-97325000I237500J0D01*
G01*
X224162500Y-97325000D01*
G75*
G02*
X224400000Y-97562500I0J-237500D01*
G01*
G37*
%TD*%
%TO.C,D3*%
G36*
G01*
X222650000Y-57962500D02*
X222650000Y-58437500D01*
G75*
G02*
X222412500Y-58675000I-237500J0D01*
G01*
X221837500Y-58675000D01*
G75*
G02*
X221600000Y-58437500I0J237500D01*
G01*
X221600000Y-57962500D01*
G75*
G02*
X221837500Y-57725000I237500J0D01*
G01*
X222412500Y-57725000D01*
G75*
G02*
X222650000Y-57962500I0J-237500D01*
G01*
G37*
G36*
G01*
X224400000Y-57962500D02*
X224400000Y-58437500D01*
G75*
G02*
X224162500Y-58675000I-237500J0D01*
G01*
X223587500Y-58675000D01*
G75*
G02*
X223350000Y-58437500I0J237500D01*
G01*
X223350000Y-57962500D01*
G75*
G02*
X223587500Y-57725000I237500J0D01*
G01*
X224162500Y-57725000D01*
G75*
G02*
X224400000Y-57962500I0J-237500D01*
G01*
G37*
%TD*%
%TO.C,D2*%
G36*
G01*
X222650000Y-99162500D02*
X222650000Y-99637500D01*
G75*
G02*
X222412500Y-99875000I-237500J0D01*
G01*
X221837500Y-99875000D01*
G75*
G02*
X221600000Y-99637500I0J237500D01*
G01*
X221600000Y-99162500D01*
G75*
G02*
X221837500Y-98925000I237500J0D01*
G01*
X222412500Y-98925000D01*
G75*
G02*
X222650000Y-99162500I0J-237500D01*
G01*
G37*
G36*
G01*
X224400000Y-99162500D02*
X224400000Y-99637500D01*
G75*
G02*
X224162500Y-99875000I-237500J0D01*
G01*
X223587500Y-99875000D01*
G75*
G02*
X223350000Y-99637500I0J237500D01*
G01*
X223350000Y-99162500D01*
G75*
G02*
X223587500Y-98925000I237500J0D01*
G01*
X224162500Y-98925000D01*
G75*
G02*
X224400000Y-99162500I0J-237500D01*
G01*
G37*
%TD*%
%TO.C,D1*%
G36*
G01*
X222650000Y-56362500D02*
X222650000Y-56837500D01*
G75*
G02*
X222412500Y-57075000I-237500J0D01*
G01*
X221837500Y-57075000D01*
G75*
G02*
X221600000Y-56837500I0J237500D01*
G01*
X221600000Y-56362500D01*
G75*
G02*
X221837500Y-56125000I237500J0D01*
G01*
X222412500Y-56125000D01*
G75*
G02*
X222650000Y-56362500I0J-237500D01*
G01*
G37*
G36*
G01*
X224400000Y-56362500D02*
X224400000Y-56837500D01*
G75*
G02*
X224162500Y-57075000I-237500J0D01*
G01*
X223587500Y-57075000D01*
G75*
G02*
X223350000Y-56837500I0J237500D01*
G01*
X223350000Y-56362500D01*
G75*
G02*
X223587500Y-56125000I237500J0D01*
G01*
X224162500Y-56125000D01*
G75*
G02*
X224400000Y-56362500I0J-237500D01*
G01*
G37*
%TD*%
D13*
%TO.C,U9*%
X58350000Y-46100000D03*
X58350000Y-48000000D03*
X55650000Y-48000000D03*
X55650000Y-47050000D03*
X55650000Y-46100000D03*
%TD*%
%TO.C,U8*%
X66350000Y-46050000D03*
X66350000Y-47950000D03*
X63650000Y-47950000D03*
X63650000Y-47000000D03*
X63650000Y-46050000D03*
%TD*%
%TO.C,U7*%
X58350000Y-42050000D03*
X58350000Y-43950000D03*
X55650000Y-43950000D03*
X55650000Y-43000000D03*
X55650000Y-42050000D03*
%TD*%
%TO.C,U6*%
X66350000Y-42050000D03*
X66350000Y-43950000D03*
X63650000Y-43950000D03*
X63650000Y-43000000D03*
X63650000Y-42050000D03*
%TD*%
%TO.C,U5*%
G36*
G01*
X66625000Y-100235000D02*
X66625000Y-99935000D01*
G75*
G02*
X66775000Y-99785000I150000J0D01*
G01*
X68525000Y-99785000D01*
G75*
G02*
X68675000Y-99935000I0J-150000D01*
G01*
X68675000Y-100235000D01*
G75*
G02*
X68525000Y-100385000I-150000J0D01*
G01*
X66775000Y-100385000D01*
G75*
G02*
X66625000Y-100235000I0J150000D01*
G01*
G37*
G36*
G01*
X66625000Y-101505000D02*
X66625000Y-101205000D01*
G75*
G02*
X66775000Y-101055000I150000J0D01*
G01*
X68525000Y-101055000D01*
G75*
G02*
X68675000Y-101205000I0J-150000D01*
G01*
X68675000Y-101505000D01*
G75*
G02*
X68525000Y-101655000I-150000J0D01*
G01*
X66775000Y-101655000D01*
G75*
G02*
X66625000Y-101505000I0J150000D01*
G01*
G37*
G36*
G01*
X66625000Y-102775000D02*
X66625000Y-102475000D01*
G75*
G02*
X66775000Y-102325000I150000J0D01*
G01*
X68525000Y-102325000D01*
G75*
G02*
X68675000Y-102475000I0J-150000D01*
G01*
X68675000Y-102775000D01*
G75*
G02*
X68525000Y-102925000I-150000J0D01*
G01*
X66775000Y-102925000D01*
G75*
G02*
X66625000Y-102775000I0J150000D01*
G01*
G37*
G36*
G01*
X66625000Y-104045000D02*
X66625000Y-103745000D01*
G75*
G02*
X66775000Y-103595000I150000J0D01*
G01*
X68525000Y-103595000D01*
G75*
G02*
X68675000Y-103745000I0J-150000D01*
G01*
X68675000Y-104045000D01*
G75*
G02*
X68525000Y-104195000I-150000J0D01*
G01*
X66775000Y-104195000D01*
G75*
G02*
X66625000Y-104045000I0J150000D01*
G01*
G37*
G36*
G01*
X66625000Y-105315000D02*
X66625000Y-105015000D01*
G75*
G02*
X66775000Y-104865000I150000J0D01*
G01*
X68525000Y-104865000D01*
G75*
G02*
X68675000Y-105015000I0J-150000D01*
G01*
X68675000Y-105315000D01*
G75*
G02*
X68525000Y-105465000I-150000J0D01*
G01*
X66775000Y-105465000D01*
G75*
G02*
X66625000Y-105315000I0J150000D01*
G01*
G37*
G36*
G01*
X66625000Y-106585000D02*
X66625000Y-106285000D01*
G75*
G02*
X66775000Y-106135000I150000J0D01*
G01*
X68525000Y-106135000D01*
G75*
G02*
X68675000Y-106285000I0J-150000D01*
G01*
X68675000Y-106585000D01*
G75*
G02*
X68525000Y-106735000I-150000J0D01*
G01*
X66775000Y-106735000D01*
G75*
G02*
X66625000Y-106585000I0J150000D01*
G01*
G37*
G36*
G01*
X66625000Y-107855000D02*
X66625000Y-107555000D01*
G75*
G02*
X66775000Y-107405000I150000J0D01*
G01*
X68525000Y-107405000D01*
G75*
G02*
X68675000Y-107555000I0J-150000D01*
G01*
X68675000Y-107855000D01*
G75*
G02*
X68525000Y-108005000I-150000J0D01*
G01*
X66775000Y-108005000D01*
G75*
G02*
X66625000Y-107855000I0J150000D01*
G01*
G37*
G36*
G01*
X66625000Y-109125000D02*
X66625000Y-108825000D01*
G75*
G02*
X66775000Y-108675000I150000J0D01*
G01*
X68525000Y-108675000D01*
G75*
G02*
X68675000Y-108825000I0J-150000D01*
G01*
X68675000Y-109125000D01*
G75*
G02*
X68525000Y-109275000I-150000J0D01*
G01*
X66775000Y-109275000D01*
G75*
G02*
X66625000Y-109125000I0J150000D01*
G01*
G37*
G36*
G01*
X66625000Y-110395000D02*
X66625000Y-110095000D01*
G75*
G02*
X66775000Y-109945000I150000J0D01*
G01*
X68525000Y-109945000D01*
G75*
G02*
X68675000Y-110095000I0J-150000D01*
G01*
X68675000Y-110395000D01*
G75*
G02*
X68525000Y-110545000I-150000J0D01*
G01*
X66775000Y-110545000D01*
G75*
G02*
X66625000Y-110395000I0J150000D01*
G01*
G37*
G36*
G01*
X66625000Y-111665000D02*
X66625000Y-111365000D01*
G75*
G02*
X66775000Y-111215000I150000J0D01*
G01*
X68525000Y-111215000D01*
G75*
G02*
X68675000Y-111365000I0J-150000D01*
G01*
X68675000Y-111665000D01*
G75*
G02*
X68525000Y-111815000I-150000J0D01*
G01*
X66775000Y-111815000D01*
G75*
G02*
X66625000Y-111665000I0J150000D01*
G01*
G37*
G36*
G01*
X57325000Y-111665000D02*
X57325000Y-111365000D01*
G75*
G02*
X57475000Y-111215000I150000J0D01*
G01*
X59225000Y-111215000D01*
G75*
G02*
X59375000Y-111365000I0J-150000D01*
G01*
X59375000Y-111665000D01*
G75*
G02*
X59225000Y-111815000I-150000J0D01*
G01*
X57475000Y-111815000D01*
G75*
G02*
X57325000Y-111665000I0J150000D01*
G01*
G37*
G36*
G01*
X57325000Y-110395000D02*
X57325000Y-110095000D01*
G75*
G02*
X57475000Y-109945000I150000J0D01*
G01*
X59225000Y-109945000D01*
G75*
G02*
X59375000Y-110095000I0J-150000D01*
G01*
X59375000Y-110395000D01*
G75*
G02*
X59225000Y-110545000I-150000J0D01*
G01*
X57475000Y-110545000D01*
G75*
G02*
X57325000Y-110395000I0J150000D01*
G01*
G37*
G36*
G01*
X57325000Y-109125000D02*
X57325000Y-108825000D01*
G75*
G02*
X57475000Y-108675000I150000J0D01*
G01*
X59225000Y-108675000D01*
G75*
G02*
X59375000Y-108825000I0J-150000D01*
G01*
X59375000Y-109125000D01*
G75*
G02*
X59225000Y-109275000I-150000J0D01*
G01*
X57475000Y-109275000D01*
G75*
G02*
X57325000Y-109125000I0J150000D01*
G01*
G37*
G36*
G01*
X57325000Y-107855000D02*
X57325000Y-107555000D01*
G75*
G02*
X57475000Y-107405000I150000J0D01*
G01*
X59225000Y-107405000D01*
G75*
G02*
X59375000Y-107555000I0J-150000D01*
G01*
X59375000Y-107855000D01*
G75*
G02*
X59225000Y-108005000I-150000J0D01*
G01*
X57475000Y-108005000D01*
G75*
G02*
X57325000Y-107855000I0J150000D01*
G01*
G37*
G36*
G01*
X57325000Y-106585000D02*
X57325000Y-106285000D01*
G75*
G02*
X57475000Y-106135000I150000J0D01*
G01*
X59225000Y-106135000D01*
G75*
G02*
X59375000Y-106285000I0J-150000D01*
G01*
X59375000Y-106585000D01*
G75*
G02*
X59225000Y-106735000I-150000J0D01*
G01*
X57475000Y-106735000D01*
G75*
G02*
X57325000Y-106585000I0J150000D01*
G01*
G37*
G36*
G01*
X57325000Y-105315000D02*
X57325000Y-105015000D01*
G75*
G02*
X57475000Y-104865000I150000J0D01*
G01*
X59225000Y-104865000D01*
G75*
G02*
X59375000Y-105015000I0J-150000D01*
G01*
X59375000Y-105315000D01*
G75*
G02*
X59225000Y-105465000I-150000J0D01*
G01*
X57475000Y-105465000D01*
G75*
G02*
X57325000Y-105315000I0J150000D01*
G01*
G37*
G36*
G01*
X57325000Y-104045000D02*
X57325000Y-103745000D01*
G75*
G02*
X57475000Y-103595000I150000J0D01*
G01*
X59225000Y-103595000D01*
G75*
G02*
X59375000Y-103745000I0J-150000D01*
G01*
X59375000Y-104045000D01*
G75*
G02*
X59225000Y-104195000I-150000J0D01*
G01*
X57475000Y-104195000D01*
G75*
G02*
X57325000Y-104045000I0J150000D01*
G01*
G37*
G36*
G01*
X57325000Y-102775000D02*
X57325000Y-102475000D01*
G75*
G02*
X57475000Y-102325000I150000J0D01*
G01*
X59225000Y-102325000D01*
G75*
G02*
X59375000Y-102475000I0J-150000D01*
G01*
X59375000Y-102775000D01*
G75*
G02*
X59225000Y-102925000I-150000J0D01*
G01*
X57475000Y-102925000D01*
G75*
G02*
X57325000Y-102775000I0J150000D01*
G01*
G37*
G36*
G01*
X57325000Y-101505000D02*
X57325000Y-101205000D01*
G75*
G02*
X57475000Y-101055000I150000J0D01*
G01*
X59225000Y-101055000D01*
G75*
G02*
X59375000Y-101205000I0J-150000D01*
G01*
X59375000Y-101505000D01*
G75*
G02*
X59225000Y-101655000I-150000J0D01*
G01*
X57475000Y-101655000D01*
G75*
G02*
X57325000Y-101505000I0J150000D01*
G01*
G37*
G36*
G01*
X57325000Y-100235000D02*
X57325000Y-99935000D01*
G75*
G02*
X57475000Y-99785000I150000J0D01*
G01*
X59225000Y-99785000D01*
G75*
G02*
X59375000Y-99935000I0J-150000D01*
G01*
X59375000Y-100235000D01*
G75*
G02*
X59225000Y-100385000I-150000J0D01*
G01*
X57475000Y-100385000D01*
G75*
G02*
X57325000Y-100235000I0J150000D01*
G01*
G37*
%TD*%
%TO.C,U4*%
G36*
G01*
X66625000Y-84635000D02*
X66625000Y-84335000D01*
G75*
G02*
X66775000Y-84185000I150000J0D01*
G01*
X68525000Y-84185000D01*
G75*
G02*
X68675000Y-84335000I0J-150000D01*
G01*
X68675000Y-84635000D01*
G75*
G02*
X68525000Y-84785000I-150000J0D01*
G01*
X66775000Y-84785000D01*
G75*
G02*
X66625000Y-84635000I0J150000D01*
G01*
G37*
G36*
G01*
X66625000Y-85905000D02*
X66625000Y-85605000D01*
G75*
G02*
X66775000Y-85455000I150000J0D01*
G01*
X68525000Y-85455000D01*
G75*
G02*
X68675000Y-85605000I0J-150000D01*
G01*
X68675000Y-85905000D01*
G75*
G02*
X68525000Y-86055000I-150000J0D01*
G01*
X66775000Y-86055000D01*
G75*
G02*
X66625000Y-85905000I0J150000D01*
G01*
G37*
G36*
G01*
X66625000Y-87175000D02*
X66625000Y-86875000D01*
G75*
G02*
X66775000Y-86725000I150000J0D01*
G01*
X68525000Y-86725000D01*
G75*
G02*
X68675000Y-86875000I0J-150000D01*
G01*
X68675000Y-87175000D01*
G75*
G02*
X68525000Y-87325000I-150000J0D01*
G01*
X66775000Y-87325000D01*
G75*
G02*
X66625000Y-87175000I0J150000D01*
G01*
G37*
G36*
G01*
X66625000Y-88445000D02*
X66625000Y-88145000D01*
G75*
G02*
X66775000Y-87995000I150000J0D01*
G01*
X68525000Y-87995000D01*
G75*
G02*
X68675000Y-88145000I0J-150000D01*
G01*
X68675000Y-88445000D01*
G75*
G02*
X68525000Y-88595000I-150000J0D01*
G01*
X66775000Y-88595000D01*
G75*
G02*
X66625000Y-88445000I0J150000D01*
G01*
G37*
G36*
G01*
X66625000Y-89715000D02*
X66625000Y-89415000D01*
G75*
G02*
X66775000Y-89265000I150000J0D01*
G01*
X68525000Y-89265000D01*
G75*
G02*
X68675000Y-89415000I0J-150000D01*
G01*
X68675000Y-89715000D01*
G75*
G02*
X68525000Y-89865000I-150000J0D01*
G01*
X66775000Y-89865000D01*
G75*
G02*
X66625000Y-89715000I0J150000D01*
G01*
G37*
G36*
G01*
X66625000Y-90985000D02*
X66625000Y-90685000D01*
G75*
G02*
X66775000Y-90535000I150000J0D01*
G01*
X68525000Y-90535000D01*
G75*
G02*
X68675000Y-90685000I0J-150000D01*
G01*
X68675000Y-90985000D01*
G75*
G02*
X68525000Y-91135000I-150000J0D01*
G01*
X66775000Y-91135000D01*
G75*
G02*
X66625000Y-90985000I0J150000D01*
G01*
G37*
G36*
G01*
X66625000Y-92255000D02*
X66625000Y-91955000D01*
G75*
G02*
X66775000Y-91805000I150000J0D01*
G01*
X68525000Y-91805000D01*
G75*
G02*
X68675000Y-91955000I0J-150000D01*
G01*
X68675000Y-92255000D01*
G75*
G02*
X68525000Y-92405000I-150000J0D01*
G01*
X66775000Y-92405000D01*
G75*
G02*
X66625000Y-92255000I0J150000D01*
G01*
G37*
G36*
G01*
X66625000Y-93525000D02*
X66625000Y-93225000D01*
G75*
G02*
X66775000Y-93075000I150000J0D01*
G01*
X68525000Y-93075000D01*
G75*
G02*
X68675000Y-93225000I0J-150000D01*
G01*
X68675000Y-93525000D01*
G75*
G02*
X68525000Y-93675000I-150000J0D01*
G01*
X66775000Y-93675000D01*
G75*
G02*
X66625000Y-93525000I0J150000D01*
G01*
G37*
G36*
G01*
X66625000Y-94795000D02*
X66625000Y-94495000D01*
G75*
G02*
X66775000Y-94345000I150000J0D01*
G01*
X68525000Y-94345000D01*
G75*
G02*
X68675000Y-94495000I0J-150000D01*
G01*
X68675000Y-94795000D01*
G75*
G02*
X68525000Y-94945000I-150000J0D01*
G01*
X66775000Y-94945000D01*
G75*
G02*
X66625000Y-94795000I0J150000D01*
G01*
G37*
G36*
G01*
X66625000Y-96065000D02*
X66625000Y-95765000D01*
G75*
G02*
X66775000Y-95615000I150000J0D01*
G01*
X68525000Y-95615000D01*
G75*
G02*
X68675000Y-95765000I0J-150000D01*
G01*
X68675000Y-96065000D01*
G75*
G02*
X68525000Y-96215000I-150000J0D01*
G01*
X66775000Y-96215000D01*
G75*
G02*
X66625000Y-96065000I0J150000D01*
G01*
G37*
G36*
G01*
X57325000Y-96065000D02*
X57325000Y-95765000D01*
G75*
G02*
X57475000Y-95615000I150000J0D01*
G01*
X59225000Y-95615000D01*
G75*
G02*
X59375000Y-95765000I0J-150000D01*
G01*
X59375000Y-96065000D01*
G75*
G02*
X59225000Y-96215000I-150000J0D01*
G01*
X57475000Y-96215000D01*
G75*
G02*
X57325000Y-96065000I0J150000D01*
G01*
G37*
G36*
G01*
X57325000Y-94795000D02*
X57325000Y-94495000D01*
G75*
G02*
X57475000Y-94345000I150000J0D01*
G01*
X59225000Y-94345000D01*
G75*
G02*
X59375000Y-94495000I0J-150000D01*
G01*
X59375000Y-94795000D01*
G75*
G02*
X59225000Y-94945000I-150000J0D01*
G01*
X57475000Y-94945000D01*
G75*
G02*
X57325000Y-94795000I0J150000D01*
G01*
G37*
G36*
G01*
X57325000Y-93525000D02*
X57325000Y-93225000D01*
G75*
G02*
X57475000Y-93075000I150000J0D01*
G01*
X59225000Y-93075000D01*
G75*
G02*
X59375000Y-93225000I0J-150000D01*
G01*
X59375000Y-93525000D01*
G75*
G02*
X59225000Y-93675000I-150000J0D01*
G01*
X57475000Y-93675000D01*
G75*
G02*
X57325000Y-93525000I0J150000D01*
G01*
G37*
G36*
G01*
X57325000Y-92255000D02*
X57325000Y-91955000D01*
G75*
G02*
X57475000Y-91805000I150000J0D01*
G01*
X59225000Y-91805000D01*
G75*
G02*
X59375000Y-91955000I0J-150000D01*
G01*
X59375000Y-92255000D01*
G75*
G02*
X59225000Y-92405000I-150000J0D01*
G01*
X57475000Y-92405000D01*
G75*
G02*
X57325000Y-92255000I0J150000D01*
G01*
G37*
G36*
G01*
X57325000Y-90985000D02*
X57325000Y-90685000D01*
G75*
G02*
X57475000Y-90535000I150000J0D01*
G01*
X59225000Y-90535000D01*
G75*
G02*
X59375000Y-90685000I0J-150000D01*
G01*
X59375000Y-90985000D01*
G75*
G02*
X59225000Y-91135000I-150000J0D01*
G01*
X57475000Y-91135000D01*
G75*
G02*
X57325000Y-90985000I0J150000D01*
G01*
G37*
G36*
G01*
X57325000Y-89715000D02*
X57325000Y-89415000D01*
G75*
G02*
X57475000Y-89265000I150000J0D01*
G01*
X59225000Y-89265000D01*
G75*
G02*
X59375000Y-89415000I0J-150000D01*
G01*
X59375000Y-89715000D01*
G75*
G02*
X59225000Y-89865000I-150000J0D01*
G01*
X57475000Y-89865000D01*
G75*
G02*
X57325000Y-89715000I0J150000D01*
G01*
G37*
G36*
G01*
X57325000Y-88445000D02*
X57325000Y-88145000D01*
G75*
G02*
X57475000Y-87995000I150000J0D01*
G01*
X59225000Y-87995000D01*
G75*
G02*
X59375000Y-88145000I0J-150000D01*
G01*
X59375000Y-88445000D01*
G75*
G02*
X59225000Y-88595000I-150000J0D01*
G01*
X57475000Y-88595000D01*
G75*
G02*
X57325000Y-88445000I0J150000D01*
G01*
G37*
G36*
G01*
X57325000Y-87175000D02*
X57325000Y-86875000D01*
G75*
G02*
X57475000Y-86725000I150000J0D01*
G01*
X59225000Y-86725000D01*
G75*
G02*
X59375000Y-86875000I0J-150000D01*
G01*
X59375000Y-87175000D01*
G75*
G02*
X59225000Y-87325000I-150000J0D01*
G01*
X57475000Y-87325000D01*
G75*
G02*
X57325000Y-87175000I0J150000D01*
G01*
G37*
G36*
G01*
X57325000Y-85905000D02*
X57325000Y-85605000D01*
G75*
G02*
X57475000Y-85455000I150000J0D01*
G01*
X59225000Y-85455000D01*
G75*
G02*
X59375000Y-85605000I0J-150000D01*
G01*
X59375000Y-85905000D01*
G75*
G02*
X59225000Y-86055000I-150000J0D01*
G01*
X57475000Y-86055000D01*
G75*
G02*
X57325000Y-85905000I0J150000D01*
G01*
G37*
G36*
G01*
X57325000Y-84635000D02*
X57325000Y-84335000D01*
G75*
G02*
X57475000Y-84185000I150000J0D01*
G01*
X59225000Y-84185000D01*
G75*
G02*
X59375000Y-84335000I0J-150000D01*
G01*
X59375000Y-84635000D01*
G75*
G02*
X59225000Y-84785000I-150000J0D01*
G01*
X57475000Y-84785000D01*
G75*
G02*
X57325000Y-84635000I0J150000D01*
G01*
G37*
%TD*%
%TO.C,U3*%
G36*
G01*
X66625000Y-69035000D02*
X66625000Y-68735000D01*
G75*
G02*
X66775000Y-68585000I150000J0D01*
G01*
X68525000Y-68585000D01*
G75*
G02*
X68675000Y-68735000I0J-150000D01*
G01*
X68675000Y-69035000D01*
G75*
G02*
X68525000Y-69185000I-150000J0D01*
G01*
X66775000Y-69185000D01*
G75*
G02*
X66625000Y-69035000I0J150000D01*
G01*
G37*
G36*
G01*
X66625000Y-70305000D02*
X66625000Y-70005000D01*
G75*
G02*
X66775000Y-69855000I150000J0D01*
G01*
X68525000Y-69855000D01*
G75*
G02*
X68675000Y-70005000I0J-150000D01*
G01*
X68675000Y-70305000D01*
G75*
G02*
X68525000Y-70455000I-150000J0D01*
G01*
X66775000Y-70455000D01*
G75*
G02*
X66625000Y-70305000I0J150000D01*
G01*
G37*
G36*
G01*
X66625000Y-71575000D02*
X66625000Y-71275000D01*
G75*
G02*
X66775000Y-71125000I150000J0D01*
G01*
X68525000Y-71125000D01*
G75*
G02*
X68675000Y-71275000I0J-150000D01*
G01*
X68675000Y-71575000D01*
G75*
G02*
X68525000Y-71725000I-150000J0D01*
G01*
X66775000Y-71725000D01*
G75*
G02*
X66625000Y-71575000I0J150000D01*
G01*
G37*
G36*
G01*
X66625000Y-72845000D02*
X66625000Y-72545000D01*
G75*
G02*
X66775000Y-72395000I150000J0D01*
G01*
X68525000Y-72395000D01*
G75*
G02*
X68675000Y-72545000I0J-150000D01*
G01*
X68675000Y-72845000D01*
G75*
G02*
X68525000Y-72995000I-150000J0D01*
G01*
X66775000Y-72995000D01*
G75*
G02*
X66625000Y-72845000I0J150000D01*
G01*
G37*
G36*
G01*
X66625000Y-74115000D02*
X66625000Y-73815000D01*
G75*
G02*
X66775000Y-73665000I150000J0D01*
G01*
X68525000Y-73665000D01*
G75*
G02*
X68675000Y-73815000I0J-150000D01*
G01*
X68675000Y-74115000D01*
G75*
G02*
X68525000Y-74265000I-150000J0D01*
G01*
X66775000Y-74265000D01*
G75*
G02*
X66625000Y-74115000I0J150000D01*
G01*
G37*
G36*
G01*
X66625000Y-75385000D02*
X66625000Y-75085000D01*
G75*
G02*
X66775000Y-74935000I150000J0D01*
G01*
X68525000Y-74935000D01*
G75*
G02*
X68675000Y-75085000I0J-150000D01*
G01*
X68675000Y-75385000D01*
G75*
G02*
X68525000Y-75535000I-150000J0D01*
G01*
X66775000Y-75535000D01*
G75*
G02*
X66625000Y-75385000I0J150000D01*
G01*
G37*
G36*
G01*
X66625000Y-76655000D02*
X66625000Y-76355000D01*
G75*
G02*
X66775000Y-76205000I150000J0D01*
G01*
X68525000Y-76205000D01*
G75*
G02*
X68675000Y-76355000I0J-150000D01*
G01*
X68675000Y-76655000D01*
G75*
G02*
X68525000Y-76805000I-150000J0D01*
G01*
X66775000Y-76805000D01*
G75*
G02*
X66625000Y-76655000I0J150000D01*
G01*
G37*
G36*
G01*
X66625000Y-77925000D02*
X66625000Y-77625000D01*
G75*
G02*
X66775000Y-77475000I150000J0D01*
G01*
X68525000Y-77475000D01*
G75*
G02*
X68675000Y-77625000I0J-150000D01*
G01*
X68675000Y-77925000D01*
G75*
G02*
X68525000Y-78075000I-150000J0D01*
G01*
X66775000Y-78075000D01*
G75*
G02*
X66625000Y-77925000I0J150000D01*
G01*
G37*
G36*
G01*
X66625000Y-79195000D02*
X66625000Y-78895000D01*
G75*
G02*
X66775000Y-78745000I150000J0D01*
G01*
X68525000Y-78745000D01*
G75*
G02*
X68675000Y-78895000I0J-150000D01*
G01*
X68675000Y-79195000D01*
G75*
G02*
X68525000Y-79345000I-150000J0D01*
G01*
X66775000Y-79345000D01*
G75*
G02*
X66625000Y-79195000I0J150000D01*
G01*
G37*
G36*
G01*
X66625000Y-80465000D02*
X66625000Y-80165000D01*
G75*
G02*
X66775000Y-80015000I150000J0D01*
G01*
X68525000Y-80015000D01*
G75*
G02*
X68675000Y-80165000I0J-150000D01*
G01*
X68675000Y-80465000D01*
G75*
G02*
X68525000Y-80615000I-150000J0D01*
G01*
X66775000Y-80615000D01*
G75*
G02*
X66625000Y-80465000I0J150000D01*
G01*
G37*
G36*
G01*
X57325000Y-80465000D02*
X57325000Y-80165000D01*
G75*
G02*
X57475000Y-80015000I150000J0D01*
G01*
X59225000Y-80015000D01*
G75*
G02*
X59375000Y-80165000I0J-150000D01*
G01*
X59375000Y-80465000D01*
G75*
G02*
X59225000Y-80615000I-150000J0D01*
G01*
X57475000Y-80615000D01*
G75*
G02*
X57325000Y-80465000I0J150000D01*
G01*
G37*
G36*
G01*
X57325000Y-79195000D02*
X57325000Y-78895000D01*
G75*
G02*
X57475000Y-78745000I150000J0D01*
G01*
X59225000Y-78745000D01*
G75*
G02*
X59375000Y-78895000I0J-150000D01*
G01*
X59375000Y-79195000D01*
G75*
G02*
X59225000Y-79345000I-150000J0D01*
G01*
X57475000Y-79345000D01*
G75*
G02*
X57325000Y-79195000I0J150000D01*
G01*
G37*
G36*
G01*
X57325000Y-77925000D02*
X57325000Y-77625000D01*
G75*
G02*
X57475000Y-77475000I150000J0D01*
G01*
X59225000Y-77475000D01*
G75*
G02*
X59375000Y-77625000I0J-150000D01*
G01*
X59375000Y-77925000D01*
G75*
G02*
X59225000Y-78075000I-150000J0D01*
G01*
X57475000Y-78075000D01*
G75*
G02*
X57325000Y-77925000I0J150000D01*
G01*
G37*
G36*
G01*
X57325000Y-76655000D02*
X57325000Y-76355000D01*
G75*
G02*
X57475000Y-76205000I150000J0D01*
G01*
X59225000Y-76205000D01*
G75*
G02*
X59375000Y-76355000I0J-150000D01*
G01*
X59375000Y-76655000D01*
G75*
G02*
X59225000Y-76805000I-150000J0D01*
G01*
X57475000Y-76805000D01*
G75*
G02*
X57325000Y-76655000I0J150000D01*
G01*
G37*
G36*
G01*
X57325000Y-75385000D02*
X57325000Y-75085000D01*
G75*
G02*
X57475000Y-74935000I150000J0D01*
G01*
X59225000Y-74935000D01*
G75*
G02*
X59375000Y-75085000I0J-150000D01*
G01*
X59375000Y-75385000D01*
G75*
G02*
X59225000Y-75535000I-150000J0D01*
G01*
X57475000Y-75535000D01*
G75*
G02*
X57325000Y-75385000I0J150000D01*
G01*
G37*
G36*
G01*
X57325000Y-74115000D02*
X57325000Y-73815000D01*
G75*
G02*
X57475000Y-73665000I150000J0D01*
G01*
X59225000Y-73665000D01*
G75*
G02*
X59375000Y-73815000I0J-150000D01*
G01*
X59375000Y-74115000D01*
G75*
G02*
X59225000Y-74265000I-150000J0D01*
G01*
X57475000Y-74265000D01*
G75*
G02*
X57325000Y-74115000I0J150000D01*
G01*
G37*
G36*
G01*
X57325000Y-72845000D02*
X57325000Y-72545000D01*
G75*
G02*
X57475000Y-72395000I150000J0D01*
G01*
X59225000Y-72395000D01*
G75*
G02*
X59375000Y-72545000I0J-150000D01*
G01*
X59375000Y-72845000D01*
G75*
G02*
X59225000Y-72995000I-150000J0D01*
G01*
X57475000Y-72995000D01*
G75*
G02*
X57325000Y-72845000I0J150000D01*
G01*
G37*
G36*
G01*
X57325000Y-71575000D02*
X57325000Y-71275000D01*
G75*
G02*
X57475000Y-71125000I150000J0D01*
G01*
X59225000Y-71125000D01*
G75*
G02*
X59375000Y-71275000I0J-150000D01*
G01*
X59375000Y-71575000D01*
G75*
G02*
X59225000Y-71725000I-150000J0D01*
G01*
X57475000Y-71725000D01*
G75*
G02*
X57325000Y-71575000I0J150000D01*
G01*
G37*
G36*
G01*
X57325000Y-70305000D02*
X57325000Y-70005000D01*
G75*
G02*
X57475000Y-69855000I150000J0D01*
G01*
X59225000Y-69855000D01*
G75*
G02*
X59375000Y-70005000I0J-150000D01*
G01*
X59375000Y-70305000D01*
G75*
G02*
X59225000Y-70455000I-150000J0D01*
G01*
X57475000Y-70455000D01*
G75*
G02*
X57325000Y-70305000I0J150000D01*
G01*
G37*
G36*
G01*
X57325000Y-69035000D02*
X57325000Y-68735000D01*
G75*
G02*
X57475000Y-68585000I150000J0D01*
G01*
X59225000Y-68585000D01*
G75*
G02*
X59375000Y-68735000I0J-150000D01*
G01*
X59375000Y-69035000D01*
G75*
G02*
X59225000Y-69185000I-150000J0D01*
G01*
X57475000Y-69185000D01*
G75*
G02*
X57325000Y-69035000I0J150000D01*
G01*
G37*
%TD*%
%TO.C,U2*%
G36*
G01*
X66625000Y-53435000D02*
X66625000Y-53135000D01*
G75*
G02*
X66775000Y-52985000I150000J0D01*
G01*
X68525000Y-52985000D01*
G75*
G02*
X68675000Y-53135000I0J-150000D01*
G01*
X68675000Y-53435000D01*
G75*
G02*
X68525000Y-53585000I-150000J0D01*
G01*
X66775000Y-53585000D01*
G75*
G02*
X66625000Y-53435000I0J150000D01*
G01*
G37*
G36*
G01*
X66625000Y-54705000D02*
X66625000Y-54405000D01*
G75*
G02*
X66775000Y-54255000I150000J0D01*
G01*
X68525000Y-54255000D01*
G75*
G02*
X68675000Y-54405000I0J-150000D01*
G01*
X68675000Y-54705000D01*
G75*
G02*
X68525000Y-54855000I-150000J0D01*
G01*
X66775000Y-54855000D01*
G75*
G02*
X66625000Y-54705000I0J150000D01*
G01*
G37*
G36*
G01*
X66625000Y-55975000D02*
X66625000Y-55675000D01*
G75*
G02*
X66775000Y-55525000I150000J0D01*
G01*
X68525000Y-55525000D01*
G75*
G02*
X68675000Y-55675000I0J-150000D01*
G01*
X68675000Y-55975000D01*
G75*
G02*
X68525000Y-56125000I-150000J0D01*
G01*
X66775000Y-56125000D01*
G75*
G02*
X66625000Y-55975000I0J150000D01*
G01*
G37*
G36*
G01*
X66625000Y-57245000D02*
X66625000Y-56945000D01*
G75*
G02*
X66775000Y-56795000I150000J0D01*
G01*
X68525000Y-56795000D01*
G75*
G02*
X68675000Y-56945000I0J-150000D01*
G01*
X68675000Y-57245000D01*
G75*
G02*
X68525000Y-57395000I-150000J0D01*
G01*
X66775000Y-57395000D01*
G75*
G02*
X66625000Y-57245000I0J150000D01*
G01*
G37*
G36*
G01*
X66625000Y-58515000D02*
X66625000Y-58215000D01*
G75*
G02*
X66775000Y-58065000I150000J0D01*
G01*
X68525000Y-58065000D01*
G75*
G02*
X68675000Y-58215000I0J-150000D01*
G01*
X68675000Y-58515000D01*
G75*
G02*
X68525000Y-58665000I-150000J0D01*
G01*
X66775000Y-58665000D01*
G75*
G02*
X66625000Y-58515000I0J150000D01*
G01*
G37*
G36*
G01*
X66625000Y-59785000D02*
X66625000Y-59485000D01*
G75*
G02*
X66775000Y-59335000I150000J0D01*
G01*
X68525000Y-59335000D01*
G75*
G02*
X68675000Y-59485000I0J-150000D01*
G01*
X68675000Y-59785000D01*
G75*
G02*
X68525000Y-59935000I-150000J0D01*
G01*
X66775000Y-59935000D01*
G75*
G02*
X66625000Y-59785000I0J150000D01*
G01*
G37*
G36*
G01*
X66625000Y-61055000D02*
X66625000Y-60755000D01*
G75*
G02*
X66775000Y-60605000I150000J0D01*
G01*
X68525000Y-60605000D01*
G75*
G02*
X68675000Y-60755000I0J-150000D01*
G01*
X68675000Y-61055000D01*
G75*
G02*
X68525000Y-61205000I-150000J0D01*
G01*
X66775000Y-61205000D01*
G75*
G02*
X66625000Y-61055000I0J150000D01*
G01*
G37*
G36*
G01*
X66625000Y-62325000D02*
X66625000Y-62025000D01*
G75*
G02*
X66775000Y-61875000I150000J0D01*
G01*
X68525000Y-61875000D01*
G75*
G02*
X68675000Y-62025000I0J-150000D01*
G01*
X68675000Y-62325000D01*
G75*
G02*
X68525000Y-62475000I-150000J0D01*
G01*
X66775000Y-62475000D01*
G75*
G02*
X66625000Y-62325000I0J150000D01*
G01*
G37*
G36*
G01*
X66625000Y-63595000D02*
X66625000Y-63295000D01*
G75*
G02*
X66775000Y-63145000I150000J0D01*
G01*
X68525000Y-63145000D01*
G75*
G02*
X68675000Y-63295000I0J-150000D01*
G01*
X68675000Y-63595000D01*
G75*
G02*
X68525000Y-63745000I-150000J0D01*
G01*
X66775000Y-63745000D01*
G75*
G02*
X66625000Y-63595000I0J150000D01*
G01*
G37*
G36*
G01*
X66625000Y-64865000D02*
X66625000Y-64565000D01*
G75*
G02*
X66775000Y-64415000I150000J0D01*
G01*
X68525000Y-64415000D01*
G75*
G02*
X68675000Y-64565000I0J-150000D01*
G01*
X68675000Y-64865000D01*
G75*
G02*
X68525000Y-65015000I-150000J0D01*
G01*
X66775000Y-65015000D01*
G75*
G02*
X66625000Y-64865000I0J150000D01*
G01*
G37*
G36*
G01*
X57325000Y-64865000D02*
X57325000Y-64565000D01*
G75*
G02*
X57475000Y-64415000I150000J0D01*
G01*
X59225000Y-64415000D01*
G75*
G02*
X59375000Y-64565000I0J-150000D01*
G01*
X59375000Y-64865000D01*
G75*
G02*
X59225000Y-65015000I-150000J0D01*
G01*
X57475000Y-65015000D01*
G75*
G02*
X57325000Y-64865000I0J150000D01*
G01*
G37*
G36*
G01*
X57325000Y-63595000D02*
X57325000Y-63295000D01*
G75*
G02*
X57475000Y-63145000I150000J0D01*
G01*
X59225000Y-63145000D01*
G75*
G02*
X59375000Y-63295000I0J-150000D01*
G01*
X59375000Y-63595000D01*
G75*
G02*
X59225000Y-63745000I-150000J0D01*
G01*
X57475000Y-63745000D01*
G75*
G02*
X57325000Y-63595000I0J150000D01*
G01*
G37*
G36*
G01*
X57325000Y-62325000D02*
X57325000Y-62025000D01*
G75*
G02*
X57475000Y-61875000I150000J0D01*
G01*
X59225000Y-61875000D01*
G75*
G02*
X59375000Y-62025000I0J-150000D01*
G01*
X59375000Y-62325000D01*
G75*
G02*
X59225000Y-62475000I-150000J0D01*
G01*
X57475000Y-62475000D01*
G75*
G02*
X57325000Y-62325000I0J150000D01*
G01*
G37*
G36*
G01*
X57325000Y-61055000D02*
X57325000Y-60755000D01*
G75*
G02*
X57475000Y-60605000I150000J0D01*
G01*
X59225000Y-60605000D01*
G75*
G02*
X59375000Y-60755000I0J-150000D01*
G01*
X59375000Y-61055000D01*
G75*
G02*
X59225000Y-61205000I-150000J0D01*
G01*
X57475000Y-61205000D01*
G75*
G02*
X57325000Y-61055000I0J150000D01*
G01*
G37*
G36*
G01*
X57325000Y-59785000D02*
X57325000Y-59485000D01*
G75*
G02*
X57475000Y-59335000I150000J0D01*
G01*
X59225000Y-59335000D01*
G75*
G02*
X59375000Y-59485000I0J-150000D01*
G01*
X59375000Y-59785000D01*
G75*
G02*
X59225000Y-59935000I-150000J0D01*
G01*
X57475000Y-59935000D01*
G75*
G02*
X57325000Y-59785000I0J150000D01*
G01*
G37*
G36*
G01*
X57325000Y-58515000D02*
X57325000Y-58215000D01*
G75*
G02*
X57475000Y-58065000I150000J0D01*
G01*
X59225000Y-58065000D01*
G75*
G02*
X59375000Y-58215000I0J-150000D01*
G01*
X59375000Y-58515000D01*
G75*
G02*
X59225000Y-58665000I-150000J0D01*
G01*
X57475000Y-58665000D01*
G75*
G02*
X57325000Y-58515000I0J150000D01*
G01*
G37*
G36*
G01*
X57325000Y-57245000D02*
X57325000Y-56945000D01*
G75*
G02*
X57475000Y-56795000I150000J0D01*
G01*
X59225000Y-56795000D01*
G75*
G02*
X59375000Y-56945000I0J-150000D01*
G01*
X59375000Y-57245000D01*
G75*
G02*
X59225000Y-57395000I-150000J0D01*
G01*
X57475000Y-57395000D01*
G75*
G02*
X57325000Y-57245000I0J150000D01*
G01*
G37*
G36*
G01*
X57325000Y-55975000D02*
X57325000Y-55675000D01*
G75*
G02*
X57475000Y-55525000I150000J0D01*
G01*
X59225000Y-55525000D01*
G75*
G02*
X59375000Y-55675000I0J-150000D01*
G01*
X59375000Y-55975000D01*
G75*
G02*
X59225000Y-56125000I-150000J0D01*
G01*
X57475000Y-56125000D01*
G75*
G02*
X57325000Y-55975000I0J150000D01*
G01*
G37*
G36*
G01*
X57325000Y-54705000D02*
X57325000Y-54405000D01*
G75*
G02*
X57475000Y-54255000I150000J0D01*
G01*
X59225000Y-54255000D01*
G75*
G02*
X59375000Y-54405000I0J-150000D01*
G01*
X59375000Y-54705000D01*
G75*
G02*
X59225000Y-54855000I-150000J0D01*
G01*
X57475000Y-54855000D01*
G75*
G02*
X57325000Y-54705000I0J150000D01*
G01*
G37*
G36*
G01*
X57325000Y-53435000D02*
X57325000Y-53135000D01*
G75*
G02*
X57475000Y-52985000I150000J0D01*
G01*
X59225000Y-52985000D01*
G75*
G02*
X59375000Y-53135000I0J-150000D01*
G01*
X59375000Y-53435000D01*
G75*
G02*
X59225000Y-53585000I-150000J0D01*
G01*
X57475000Y-53585000D01*
G75*
G02*
X57325000Y-53435000I0J150000D01*
G01*
G37*
%TD*%
D14*
%TO.C,RN3*%
X50900000Y-47200000D03*
D15*
X50900000Y-46400000D03*
D14*
X50900000Y-44800000D03*
D15*
X50900000Y-45600000D03*
D14*
X49100000Y-47200000D03*
D15*
X49100000Y-45600000D03*
X49100000Y-46400000D03*
D14*
X49100000Y-44800000D03*
%TD*%
%TO.C,RN2*%
X50900000Y-54400000D03*
D15*
X50900000Y-53600000D03*
D14*
X50900000Y-52000000D03*
D15*
X50900000Y-52800000D03*
D14*
X49100000Y-54400000D03*
D15*
X49100000Y-52800000D03*
X49100000Y-53600000D03*
D14*
X49100000Y-52000000D03*
%TD*%
%TO.C,RN1*%
X50900000Y-102300000D03*
D15*
X50900000Y-101500000D03*
D14*
X50900000Y-99900000D03*
D15*
X50900000Y-100700000D03*
D14*
X49100000Y-102300000D03*
D15*
X49100000Y-100700000D03*
X49100000Y-101500000D03*
D14*
X49100000Y-99900000D03*
%TD*%
D16*
%TO.C,J4*%
X99160000Y-105460000D03*
X96620000Y-105460000D03*
X94080000Y-105460000D03*
X91540000Y-105460000D03*
X89000000Y-105460000D03*
X99160000Y-108000000D03*
X96620000Y-108000000D03*
X94080000Y-108000000D03*
X91540000Y-108000000D03*
G36*
G01*
X89600000Y-108850000D02*
X88400000Y-108850000D01*
G75*
G02*
X88150000Y-108600000I0J250000D01*
G01*
X88150000Y-107400000D01*
G75*
G02*
X88400000Y-107150000I250000J0D01*
G01*
X89600000Y-107150000D01*
G75*
G02*
X89850000Y-107400000I0J-250000D01*
G01*
X89850000Y-108600000D01*
G75*
G02*
X89600000Y-108850000I-250000J0D01*
G01*
G37*
%TD*%
%TO.C,J3*%
X99160000Y-90460000D03*
X96620000Y-90460000D03*
X94080000Y-90460000D03*
X91540000Y-90460000D03*
X89000000Y-90460000D03*
X99160000Y-93000000D03*
X96620000Y-93000000D03*
X94080000Y-93000000D03*
X91540000Y-93000000D03*
G36*
G01*
X89600000Y-93850000D02*
X88400000Y-93850000D01*
G75*
G02*
X88150000Y-93600000I0J250000D01*
G01*
X88150000Y-92400000D01*
G75*
G02*
X88400000Y-92150000I250000J0D01*
G01*
X89600000Y-92150000D01*
G75*
G02*
X89850000Y-92400000I0J-250000D01*
G01*
X89850000Y-93600000D01*
G75*
G02*
X89600000Y-93850000I-250000J0D01*
G01*
G37*
%TD*%
%TO.C,J2*%
X99160000Y-75460000D03*
X96620000Y-75460000D03*
X94080000Y-75460000D03*
X91540000Y-75460000D03*
X89000000Y-75460000D03*
X99160000Y-78000000D03*
X96620000Y-78000000D03*
X94080000Y-78000000D03*
X91540000Y-78000000D03*
G36*
G01*
X89600000Y-78850000D02*
X88400000Y-78850000D01*
G75*
G02*
X88150000Y-78600000I0J250000D01*
G01*
X88150000Y-77400000D01*
G75*
G02*
X88400000Y-77150000I250000J0D01*
G01*
X89600000Y-77150000D01*
G75*
G02*
X89850000Y-77400000I0J-250000D01*
G01*
X89850000Y-78600000D01*
G75*
G02*
X89600000Y-78850000I-250000J0D01*
G01*
G37*
%TD*%
%TO.C,J1*%
X99160000Y-60460000D03*
X96620000Y-60460000D03*
X94080000Y-60460000D03*
X91540000Y-60460000D03*
X89000000Y-60460000D03*
X99160000Y-63000000D03*
X96620000Y-63000000D03*
X94080000Y-63000000D03*
X91540000Y-63000000D03*
G36*
G01*
X89600000Y-63850000D02*
X88400000Y-63850000D01*
G75*
G02*
X88150000Y-63600000I0J250000D01*
G01*
X88150000Y-62400000D01*
G75*
G02*
X88400000Y-62150000I250000J0D01*
G01*
X89600000Y-62150000D01*
G75*
G02*
X89850000Y-62400000I0J-250000D01*
G01*
X89850000Y-63600000D01*
G75*
G02*
X89600000Y-63850000I-250000J0D01*
G01*
G37*
%TD*%
D17*
%TO.C,H2*%
X208590000Y-97050000D03*
%TD*%
%TO.C,H1*%
X208590000Y-58950000D03*
%TD*%
%TO.C,C4*%
G36*
G01*
X68825000Y-98237500D02*
X68825000Y-97762500D01*
G75*
G02*
X69062500Y-97525000I237500J0D01*
G01*
X69662500Y-97525000D01*
G75*
G02*
X69900000Y-97762500I0J-237500D01*
G01*
X69900000Y-98237500D01*
G75*
G02*
X69662500Y-98475000I-237500J0D01*
G01*
X69062500Y-98475000D01*
G75*
G02*
X68825000Y-98237500I0J237500D01*
G01*
G37*
G36*
G01*
X67100000Y-98237500D02*
X67100000Y-97762500D01*
G75*
G02*
X67337500Y-97525000I237500J0D01*
G01*
X67937500Y-97525000D01*
G75*
G02*
X68175000Y-97762500I0J-237500D01*
G01*
X68175000Y-98237500D01*
G75*
G02*
X67937500Y-98475000I-237500J0D01*
G01*
X67337500Y-98475000D01*
G75*
G02*
X67100000Y-98237500I0J237500D01*
G01*
G37*
%TD*%
%TO.C,C3*%
G36*
G01*
X68825000Y-82637500D02*
X68825000Y-82162500D01*
G75*
G02*
X69062500Y-81925000I237500J0D01*
G01*
X69662500Y-81925000D01*
G75*
G02*
X69900000Y-82162500I0J-237500D01*
G01*
X69900000Y-82637500D01*
G75*
G02*
X69662500Y-82875000I-237500J0D01*
G01*
X69062500Y-82875000D01*
G75*
G02*
X68825000Y-82637500I0J237500D01*
G01*
G37*
G36*
G01*
X67100000Y-82637500D02*
X67100000Y-82162500D01*
G75*
G02*
X67337500Y-81925000I237500J0D01*
G01*
X67937500Y-81925000D01*
G75*
G02*
X68175000Y-82162500I0J-237500D01*
G01*
X68175000Y-82637500D01*
G75*
G02*
X67937500Y-82875000I-237500J0D01*
G01*
X67337500Y-82875000D01*
G75*
G02*
X67100000Y-82637500I0J237500D01*
G01*
G37*
%TD*%
%TO.C,C2*%
G36*
G01*
X68825000Y-67037500D02*
X68825000Y-66562500D01*
G75*
G02*
X69062500Y-66325000I237500J0D01*
G01*
X69662500Y-66325000D01*
G75*
G02*
X69900000Y-66562500I0J-237500D01*
G01*
X69900000Y-67037500D01*
G75*
G02*
X69662500Y-67275000I-237500J0D01*
G01*
X69062500Y-67275000D01*
G75*
G02*
X68825000Y-67037500I0J237500D01*
G01*
G37*
G36*
G01*
X67100000Y-67037500D02*
X67100000Y-66562500D01*
G75*
G02*
X67337500Y-66325000I237500J0D01*
G01*
X67937500Y-66325000D01*
G75*
G02*
X68175000Y-66562500I0J-237500D01*
G01*
X68175000Y-67037500D01*
G75*
G02*
X67937500Y-67275000I-237500J0D01*
G01*
X67337500Y-67275000D01*
G75*
G02*
X67100000Y-67037500I0J237500D01*
G01*
G37*
%TD*%
%TO.C,C1*%
G36*
G01*
X68825000Y-51437500D02*
X68825000Y-50962500D01*
G75*
G02*
X69062500Y-50725000I237500J0D01*
G01*
X69662500Y-50725000D01*
G75*
G02*
X69900000Y-50962500I0J-237500D01*
G01*
X69900000Y-51437500D01*
G75*
G02*
X69662500Y-51675000I-237500J0D01*
G01*
X69062500Y-51675000D01*
G75*
G02*
X68825000Y-51437500I0J237500D01*
G01*
G37*
G36*
G01*
X67100000Y-51437500D02*
X67100000Y-50962500D01*
G75*
G02*
X67337500Y-50725000I237500J0D01*
G01*
X67937500Y-50725000D01*
G75*
G02*
X68175000Y-50962500I0J-237500D01*
G01*
X68175000Y-51437500D01*
G75*
G02*
X67937500Y-51675000I-237500J0D01*
G01*
X67337500Y-51675000D01*
G75*
G02*
X67100000Y-51437500I0J237500D01*
G01*
G37*
%TD*%
D18*
%TO.C,U1*%
X42760000Y-102130000D03*
X42760000Y-53870000D03*
G36*
G01*
X45825001Y-97825000D02*
X44774999Y-97825000D01*
G75*
G02*
X44525000Y-97575001I0J249999D01*
G01*
X44525000Y-96524999D01*
G75*
G02*
X44774999Y-96275000I249999J0D01*
G01*
X45825001Y-96275000D01*
G75*
G02*
X46075000Y-96524999I0J-249999D01*
G01*
X46075000Y-97575001D01*
G75*
G02*
X45825001Y-97825000I-249999J0D01*
G01*
G37*
D19*
X45300000Y-94510000D03*
X45300000Y-91970000D03*
X45300000Y-89430000D03*
X45300000Y-86890000D03*
X45300000Y-84350000D03*
X45300000Y-81810000D03*
X45300000Y-79270000D03*
X45300000Y-76730000D03*
X45300000Y-74190000D03*
X45300000Y-71650000D03*
X45300000Y-69110000D03*
X45300000Y-66570000D03*
X45300000Y-64030000D03*
X45300000Y-61490000D03*
X45300000Y-58950000D03*
X50380000Y-97050000D03*
X50380000Y-94510000D03*
X50380000Y-91970000D03*
X50380000Y-89430000D03*
X50380000Y-86890000D03*
X50380000Y-84350000D03*
X50380000Y-81810000D03*
X50380000Y-79270000D03*
X50380000Y-76730000D03*
X50380000Y-74190000D03*
X50380000Y-71650000D03*
X50380000Y-69110000D03*
X50380000Y-66570000D03*
X50380000Y-64030000D03*
X50380000Y-61490000D03*
X50380000Y-58950000D03*
%TD*%
M02*
